<svg width="248" height="17" viewBox="0 0 248 17" fill="none" xmlns="http://www.w3.org/2000/svg">
<path fill-rule="evenodd" clip-rule="evenodd" d="M193.033 0.520662C195.9 1.60184 198.574 2.75153 201.511 3.67947C204.612 4.6597 207.913 5.46902 211.395 6.0883C214.271 6.6003 217.048 7.24638 220.161 7.27718C222.332 8.04391 224.91 7.83789 227.31 8.03073C228.293 8.10931 229.362 7.86932 230.363 7.92092C231.442 7.97671 232.468 7.76087 233.428 7.7863C236.979 7.87931 240.36 7.23531 243.878 7.26462C244.136 7.26668 244.399 7.11457 244.76 7.00332C245.633 7.38152 246.466 7.74229 247.5 8.19006C246.455 8.49692 245.707 8.71659 244.502 9.07031L247.76 9.26874C247.295 9.68313 247.009 9.93778 246.621 10.2834C246.716 10.3876 246.887 10.5767 247.177 10.8951C246.577 11.4693 246.125 12.2855 245.098 12.7957C243.668 13.505 241.862 14.0357 240.104 14.5388C239.354 14.7541 238.283 14.8283 237.423 14.7566C235.51 14.599 233.646 15.1336 231.734 14.7937C231.455 14.7437 231.011 14.9371 230.587 15.0302C230.502 14.8364 230.414 14.6343 230.324 14.4276L218.137 13.6854C219.264 14.0959 220.556 14.0743 221.796 14.166C223.202 14.2684 224.619 14.3367 226.028 14.4287C227.279 14.5106 228.529 14.6048 229.706 14.9908C227.249 14.8412 224.788 14.6982 222.332 14.5399C219.415 14.3522 216.396 14.3427 213.904 13.3523C210.966 13.1964 208.452 12.4568 205.796 11.8791C204.435 11.5832 203.483 11.1822 202.637 10.6251C202.465 10.6949 202.295 10.7649 201.978 10.8944C200.155 10.2361 198.396 9.45588 196.387 8.92506C194.998 8.55907 194.616 7.70956 193.101 7.46847C192.545 7.38042 192.086 7.13392 191.294 6.85967C190.385 6.64242 188.735 7.07368 187.761 6.32883C187.589 6.39804 187.418 6.46794 187.144 6.57891C186.906 6.48843 186.64 6.38631 186.36 6.27963C186.164 6.46381 185.971 6.64568 185.756 6.84679L184.678 6.78111C184.982 6.58108 185.185 6.4465 185.391 6.31091C185.219 6.2568 185.003 6.13657 184.882 6.15844C184.02 6.3133 183.172 6.49143 182.33 6.67361C181.575 6.83686 180.832 7.01449 179.909 7.226C179.705 7.13886 179.392 7.00591 179.032 6.85195C178.811 7.03092 178.56 7.23476 178.302 7.44568C178.148 7.35354 178.011 7.2717 177.859 7.18025C177.127 7.41774 176.392 7.85304 175.651 7.8571C173.619 7.8672 171.998 8.49195 170.091 8.67282C169.125 8.76406 168.224 9.1338 167.374 9.43695C164.554 10.4438 161.541 11.228 158.245 11.6972C157.976 11.5332 157.767 11.4072 157.556 11.2785C157.135 11.4502 156.708 11.6254 156.158 11.8503L153.365 11.6802C152.881 11.9969 152.44 12.2882 151.944 12.6129L150.802 12.5433C150.372 12.7631 150.033 13.0942 149.573 13.1453C147.444 13.3817 145.401 14.0113 143.085 13.1617C142.099 12.8003 140.403 12.948 138.96 13.1396C140.256 13.2597 141.551 13.3802 142.847 13.5009L142.785 13.6939L138.413 13.4276C138.322 13.221 138.235 13.0189 138.085 12.6779C136.38 13.3399 134.879 12.9521 133.434 12.5185C131.402 11.9073 129.443 11.2855 127.741 10.3867C125.542 9.22541 123.181 8.10475 120.358 7.30827C120.089 7.23277 119.881 7.10301 119.436 6.90592L115.623 6.67373C115.52 6.56785 115.427 6.51172 115.451 6.48579C115.494 6.43986 115.619 6.41698 115.695 6.37738C115.823 6.30923 115.941 6.23545 116.167 6.10225L113.835 5.96026C113.732 5.70989 113.649 5.50869 113.546 5.25962C113.301 5.22293 113.01 5.18025 112.235 5.06456C112.564 5.37976 112.714 5.52275 112.88 5.68042C112.691 5.76418 112.457 5.86888 112.105 6.02673C112.816 6.1454 113.456 6.25158 114.095 6.35898C109.747 6.44976 105.465 7.07312 101.218 6.44026C100.17 7.53203 98.4528 7.7151 96.3432 7.54615C93.2739 8.68794 90.1961 9.89271 86.9979 11.0055C83.6642 12.1648 79.9681 13.0673 76.0023 13.2909C72.6598 13.4789 69.0719 13.9017 65.8497 12.8319C65.6011 12.7495 65.2095 12.7774 64.8829 12.765C61.559 12.6466 58.8784 11.7287 56.1966 10.8574C55.0743 10.4933 54.2802 9.8659 53.1744 9.48226C51.6571 8.95587 49.9258 8.64309 48.1973 8.30246C45.1038 7.69378 41.8943 7.69383 38.7364 7.4436C35.82 7.21243 32.9007 7.28307 30.0015 7.57598C29.6952 7.60713 29.3143 7.58331 29.0387 7.51298C28.77 7.44369 28.5931 7.28099 28.313 7.12508C28.1369 7.3161 27.9689 7.49888 27.678 7.8149C27.1865 7.68285 26.7052 7.5533 26.1668 7.40905C26.0836 7.51793 25.9714 7.66302 25.7822 7.91114C23.0519 8.13899 20.5912 9.30974 17.4224 8.84964L16.3445 9.28584C16.5227 9.41624 16.701 9.54665 16.9466 9.7266C15.2618 10.2261 13.3944 10.6092 11.964 11.2506C10.4443 11.9326 9.0216 12.6355 6.90409 13.2051C6.69752 13.3762 6.27124 13.7282 5.76434 14.1462C5.27577 14.2535 4.61626 14.3982 4.02444 14.5278C3.60895 15.5267 3.60895 15.5267 2.49005 16.0725L0 14.4483L0.674485 11.5213C0.827164 11.4789 1.81377 11.3653 1.89589 11.1561C2.23414 10.3031 4.02252 10.1474 4.66193 9.4697C5.34005 8.75013 6.70325 8.37925 7.81582 7.87667C9.33024 7.19123 10.8258 6.49281 12.2707 5.76764C15.5269 4.13539 21.8331 2.62227 27.3309 2.31516C28.6301 2.24299 29.889 1.999 31.1845 1.89048C32.4071 1.78811 33.613 2.26814 34.9506 1.80853C35.5029 1.61926 36.6347 1.87435 36.7529 1.88156C37.6751 2.19985 38.1306 2.3571 38.6658 2.54162C38.1693 2.81959 37.8953 2.9735 37.5015 3.19484L41.4824 3.43728C40.4656 3.18234 40.1038 3.09182 39.5107 2.943C41.5178 2.09019 43.3952 1.46421 45.8865 2.37368C46.1245 2.4604 46.4869 2.4694 46.7981 2.49084C50.8199 2.76567 54.1688 3.68503 57.2037 5.07343C58.4331 5.6352 60.116 6.13183 61.9322 6.11293C63.7132 6.09438 65.143 6.62228 66.797 6.76598C71.8184 7.20193 76.4249 6.50555 80.7917 5.32013C83.1057 4.69148 85.3901 4.00187 87.4924 3.20404C91.1448 1.8182 95.3115 1.10128 99.6355 0.642978C102.744 0.313639 105.982 0.323398 109.129 0.124693C112.428 -0.0828715 115.526 0.395337 118.72 0.401863C120.792 0.405972 122.294 0.980652 123.716 1.56411C126.857 2.85061 129.794 4.26671 132.909 5.57093C134.343 6.17069 136.188 6.42872 137.948 6.66915C141.171 7.10891 144.427 6.85018 147.591 6.48438C150.145 6.19039 152.618 5.7034 155.114 5.28198C159.302 4.57503 163.211 3.55165 167.188 2.58471C171.194 1.61078 175.432 0.814157 180.018 0.739154C181.418 0.71611 182.816 0.496127 184.196 0.328658C187.214 -0.0385756 190.14 0.431613 193.033 0.520662Z" fill="#F1A5C3"/>
</svg>
