<svg width="14" height="24" viewBox="0 0 14 24" fill="none" xmlns="http://www.w3.org/2000/svg">
<path d="M6.75 23.25H7.25C8.18743 23.25 8.65615 23.25 8.98473 23.0113C9.09085 22.9342 9.18417 22.8409 9.26127 22.7347C9.5 22.4061 9.5 21.9374 9.5 21V13.875H11.0625C11.9403 13.875 12.3792 13.875 12.6945 13.6643C12.831 13.5731 12.9481 13.456 13.0393 13.3195C13.25 13.0042 13.25 12.5653 13.25 11.6875C13.25 10.8097 13.25 10.3708 13.0393 10.0555C12.9481 9.91905 12.831 9.80186 12.6945 9.71066C12.3792 9.5 11.9403 9.5 11.0625 9.5H9.5V7C9.5 6.41757 9.5 6.12636 9.59515 5.89665C9.72202 5.59036 9.96536 5.34702 10.2716 5.22015C10.5014 5.125 10.7926 5.125 11.375 5.125C11.9574 5.125 12.2486 5.125 12.4784 5.02985C12.7846 4.90298 13.028 4.65964 13.1548 4.35335C13.25 4.12364 13.25 3.83243 13.25 3.25V2.69444C13.25 2.04674 13.25 1.72288 13.1329 1.47173C13.0087 1.20538 12.7946 0.991314 12.5283 0.867115C12.2771 0.75 11.9533 0.75 11.3056 0.75C9.03858 0.75 7.90509 0.75 7.02604 1.1599C6.09384 1.5946 5.3446 2.34384 4.9099 3.27605C4.5 4.15509 4.5 5.28858 4.5 7.55556V9.5H2.9375C2.05971 9.5 1.62082 9.5 1.30554 9.71066C1.16905 9.80186 1.05186 9.91905 0.960663 10.0555C0.75 10.3708 0.75 10.8097 0.75 11.6875C0.75 12.5653 0.75 13.0042 0.960663 13.3195C1.05186 13.456 1.16905 13.5731 1.30554 13.6643C1.62082 13.875 2.05971 13.875 2.9375 13.875H4.5V21C4.5 21.9374 4.5 22.4061 4.73873 22.7347C4.81583 22.8409 4.90915 22.9342 5.01527 23.0113C5.34385 23.25 5.81257 23.25 6.75 23.25Z" fill="#000"/>
</svg>
