<svg width="208" height="98" viewBox="0 0 208 98" fill="none" xmlns="http://www.w3.org/2000/svg">
<g clip-path="url(#clip0_228_475)">
<path d="M14.5234 43.5968C15.9099 45.6218 17.4167 47.5618 19.0357 49.4063C45.9049 79.5962 88.7014 71.3471 108.529 96.8045C108.724 95.9317 108.97 95.0708 109.263 94.2261C93.0748 70.3353 39.3609 78.8782 14.9967 43.2378L14.5234 43.5968Z" fill="white"/>
<path d="M91.6302 61.0166C97.7906 65.9612 101.748 73.2558 96.632 84.8259C96.4606 84.5729 90.5205 73.3537 91.6302 61.0166Z" fill="white"/>
<path d="M81.1806 58.4302C88.8914 63.5788 90.458 71.9585 87.8959 80.6646C87.6185 80.4198 80.6176 72.0238 81.1806 58.4302Z" fill="white"/>
<path d="M70.8672 56.4736C78.4964 60.6757 80.2588 69.4389 78.7493 77.2557C78.4963 77.0925 70.8428 69.8143 70.8672 56.4736Z" fill="white"/>
<path d="M61.4656 55.0107C68.7601 58.9681 70.082 68.8818 69.4618 74.3568C68.9152 74.0467 60.6904 67.2907 61.4656 55.0107Z" fill="white"/>
<path d="M53.4819 53.3828C58.965 57.0382 60.2869 66.6582 60.0584 71.8313C58.5081 71.1377 51.5317 64.9202 53.4819 53.3828Z" fill="white"/>
<path d="M45.8307 50.9912C50.7264 54.0428 51.3302 63.2304 50.7264 68.9991C48.3357 67.7833 44.8026 62.5613 44.925 56.4744C44.9924 54.6156 45.2968 52.773 45.8307 50.9912Z" fill="white"/>
<path d="M38.6101 47.7827C38.9468 48.0196 39.256 48.2933 39.5321 48.5987C39.8935 49.0468 40.2208 49.5213 40.5112 50.0184C42.9591 54.0247 41.9963 63.8894 41.7759 65.252C38.5285 63.1795 35.1015 55.9421 38.6101 47.7827Z" fill="white"/>
<path d="M32.0024 43.5874C35.8292 46.9736 34.5074 55.5328 33.3324 60.5182C29.6688 57.5727 27.7677 50.5556 32.0024 43.5874Z" fill="white"/>
<path d="M26.0187 38.5234C29.413 41.6567 27.2181 49.3918 25.5127 54.6954C21.9063 51.1624 21.1066 44.333 26.0187 38.5234Z" fill="white"/>
<path d="M21.039 32.5898C23.9846 35.7312 21.2349 41.7366 18.6891 47.8072C14.6991 42.4138 16.3963 36.4085 21.039 32.5898Z" fill="white"/>
<path d="M8.57025 29.6196C8.66816 31.1291 8.57025 30.0439 8.57025 30.3784C8.41911 30.3941 8.26748 30.3537 8.14414 30.265C8.02081 30.1763 7.93434 30.0453 7.90116 29.8971C15.7506 36.3185 15.3018 43.7681 15.1713 44.0782C12.4284 43.0125 10.1655 40.9875 8.80292 38.3794C7.44032 35.7712 7.07062 32.7572 7.76246 29.8971C7.81196 30.065 7.92458 30.2073 8.07671 30.294C8.22885 30.3808 8.40866 30.4052 8.57841 30.3622C8.58657 30.0439 8.66816 31.1291 8.57025 29.6196Z" fill="white"/>
<path d="M77.3516 97.5568C87.3796 97.3691 97.7503 85.8969 97.9869 85.6032C86.7023 84.9341 81.5129 91.0945 77.3516 97.5568Z" fill="white"/>
<path d="M69.4453 94.0055C79.2775 93.4996 88.2693 82.9413 89.1831 81.3257C78.4942 82.0519 74.2268 86.1316 69.4453 94.0055Z" fill="white"/>
<path d="M61.1094 90.7681C70.9008 90.3602 79.2316 79.5571 80.0639 77.8926C68.4937 79.1818 64.773 84.5017 61.1094 90.7681Z" fill="white"/>
<path d="M51.6406 87.4551C62.199 87.8467 70.0158 76.6112 70.7583 74.9956C59.947 76.5051 55.7367 81.8414 51.6406 87.4551Z" fill="white"/>
<path d="M41.1641 83.0167C52.1712 84.9913 59.7514 76.1056 61.3506 72.5073C49.4378 74.3595 45.8802 78.0639 41.1641 83.0167Z" fill="white"/>
<path d="M31.0547 77.4419C41.0582 81.13 50.3437 72.6278 51.9348 69.8455C40.3076 70.0005 36.2768 73.4764 31.0547 77.4419Z" fill="white"/>
<path d="M21.5078 70.6311C30.6872 75.5267 40.3481 69.4398 42.7225 66.3147C31.8785 65.1561 28.525 66.8451 21.5078 70.6311Z" fill="white"/>
<path d="M12.9219 62.4197C21.7831 69.1186 31.7948 63.8477 34.0468 61.6772C24.2309 59.0499 20.3633 59.9474 12.9219 62.4197Z" fill="white"/>
<path d="M5.64844 52.9807C13.2368 61.3196 23.8115 57.5173 26.0472 55.9833C16.3863 51.9444 14.477 51.8628 5.64844 52.9807Z" fill="white"/>
<path d="M-0.0234375 42.333C3.82784 49.3012 10.7063 51.3084 17.699 49.5623C18.1065 49.4623 18.505 49.3286 18.8903 49.1624C18.8168 49.1053 18.6536 49.0074 18.4252 48.8687C18.1967 48.73 17.9193 48.5342 17.6092 48.3302C9.45788 43.2958 9.16415 43.2387 -0.0234375 42.333Z" fill="white"/>
<path d="M193.06 43.5963C191.674 45.6213 190.167 47.5613 188.548 49.4058C161.679 79.5957 118.882 71.3466 99.0547 96.804C98.8592 95.9312 98.614 95.0703 98.3203 94.2256C114.509 70.3348 168.223 78.8777 192.587 43.2373L193.06 43.5963Z" fill="white"/>
<path d="M115.968 61.0166C109.808 65.9612 105.85 73.2558 110.966 84.8259C111.138 84.5729 117.053 73.3537 115.968 61.0166Z" fill="white"/>
<path d="M126.486 58.4302C118.776 63.5788 117.209 71.9585 119.771 80.6646C120.024 80.4198 127.025 72.0238 126.486 58.4302Z" fill="white"/>
<path d="M136.712 56.4736C129.083 60.6757 127.321 69.4389 128.83 77.2557C129.083 77.0925 136.737 69.8143 136.712 56.4736Z" fill="white"/>
<path d="M146.147 55.0107C138.853 58.9681 137.531 68.8818 138.151 74.3568C138.73 74.0467 146.922 67.2907 146.147 55.0107Z" fill="white"/>
<path d="M154.109 53.3828C148.625 57.0382 147.304 66.6582 147.532 71.8313C149.082 71.1377 156.059 64.9202 154.109 53.3828Z" fill="white"/>
<path d="M161.721 50.9907C156.826 54.0424 156.222 63.2299 156.826 68.9986C159.216 67.7828 162.749 62.5608 162.627 56.4739C162.559 54.6151 162.255 52.7725 161.721 50.9907Z" fill="white"/>
<path d="M169.014 47.7827C168.675 48.0191 168.363 48.2928 168.084 48.5987C167.723 49.0468 167.395 49.5213 167.105 50.0184C164.657 54.0247 165.62 63.8894 165.84 65.252C169.096 63.1795 172.523 55.9421 169.014 47.7827Z" fill="white"/>
<path d="M175.588 43.5874C171.761 46.9736 173.083 55.5328 174.258 60.5182C177.921 57.5727 179.847 50.5556 175.588 43.5874Z" fill="white"/>
<path d="M181.602 38.5232C178.208 41.6564 180.403 49.3915 182.108 54.6951C185.715 51.1621 186.514 44.3327 181.602 38.5232Z" fill="white"/>
<path d="M186.594 32.5898C183.648 35.7312 186.398 41.7366 188.943 47.8072C192.95 42.4138 191.236 36.4085 186.594 32.5898Z" fill="white"/>
<path d="M199.012 29.6196C198.914 31.1291 199.012 30.0439 199.012 30.3784C199.163 30.3941 199.315 30.3537 199.438 30.265C199.562 30.1763 199.648 30.0453 199.681 29.8971C191.832 36.3185 192.281 43.7681 192.411 44.0782C195.154 43.0125 197.417 40.9875 198.78 38.3794C200.142 35.7712 200.512 32.7572 199.82 29.8971C199.772 30.0662 199.66 30.2098 199.507 30.2968C199.355 30.3838 199.174 30.4073 199.004 30.3622C198.996 30.0439 198.914 31.1291 199.012 29.6196Z" fill="white"/>
<path d="M130.26 97.5568C120.232 97.3691 109.862 85.8969 109.625 85.6032C120.91 84.9341 126.099 91.0945 130.26 97.5568Z" fill="white"/>
<path d="M138.23 94.0055C128.397 93.4996 119.406 82.9413 118.5 81.3257C129.181 82.0519 133.473 86.1316 138.23 94.0055Z" fill="white"/>
<path d="M146.501 90.7676C136.71 90.3597 128.379 79.5566 127.547 77.8921C139.101 79.1813 142.838 84.5012 146.501 90.7676Z" fill="white"/>
<path d="M156 87.456C145.442 87.8477 137.625 76.6121 136.883 74.9966C147.727 76.5061 151.904 81.8424 156 87.456Z" fill="white"/>
<path d="M166.483 83.0167C155.476 84.9913 147.896 76.1056 146.297 72.5073C158.169 74.3595 161.726 78.0639 166.483 83.0167Z" fill="white"/>
<path d="M176.622 77.4421C166.619 81.1302 157.333 72.6281 155.742 69.8457C167.345 70.0007 171.376 73.4766 176.622 77.4421Z" fill="white"/>
<path d="M186.066 70.6311C176.887 75.5267 167.226 69.4398 164.852 66.3147C175.696 65.1561 179.033 66.8451 186.066 70.6311Z" fill="white"/>
<path d="M194.695 62.4197C185.834 69.1186 175.822 63.8477 173.57 61.6772C183.386 59.0499 187.254 59.9474 194.695 62.4197Z" fill="white"/>
<path d="M201.914 52.9807C194.326 61.3196 183.751 57.5173 181.516 55.9833C191.176 51.9444 193.086 51.8628 201.914 52.9807Z" fill="white"/>
<path d="M207.586 42.333C203.734 49.3012 196.856 51.3084 189.863 49.5623C189.456 49.4623 189.057 49.3286 188.672 49.1624C188.745 49.1053 188.909 49.0074 189.137 48.8687C189.365 48.73 189.643 48.5342 189.953 48.3302C198.104 43.2958 198.398 43.2387 207.586 42.333Z" fill="white"/>
</g>
<path d="M91.498 17.0527V18.5371H82.1914V17.2383L86.8496 12.0527C87.4225 11.4147 87.8652 10.8743 88.1777 10.4316C88.4967 9.98242 88.7181 9.58203 88.8418 9.23047C88.972 8.8724 89.0371 8.50781 89.0371 8.13672C89.0371 7.66797 88.9395 7.24479 88.7441 6.86719C88.5553 6.48307 88.2754 6.17708 87.9043 5.94922C87.5332 5.72135 87.084 5.60742 86.5566 5.60742C85.9251 5.60742 85.3978 5.73112 84.9746 5.97852C84.5579 6.2194 84.2454 6.55794 84.0371 6.99414C83.8288 7.43034 83.7246 7.93164 83.7246 8.49805H81.918C81.918 7.69727 82.0938 6.96484 82.4453 6.30078C82.7969 5.63672 83.3177 5.10938 84.0078 4.71875C84.6979 4.32161 85.5475 4.12305 86.5566 4.12305C87.4551 4.12305 88.2233 4.28255 88.8613 4.60156C89.4993 4.91406 89.9876 5.35677 90.3262 5.92969C90.6712 6.49609 90.8438 7.16016 90.8438 7.92188C90.8438 8.33854 90.7721 8.76172 90.6289 9.19141C90.4922 9.61458 90.3001 10.0378 90.0527 10.4609C89.8118 10.8841 89.5286 11.3008 89.2031 11.7109C88.8841 12.1211 88.5423 12.5247 88.1777 12.9219L84.3691 17.0527H91.498ZM102.357 10.2949V12.4629C102.357 13.6283 102.253 14.6113 102.045 15.4121C101.837 16.2129 101.537 16.8574 101.146 17.3457C100.756 17.834 100.284 18.1888 99.7305 18.4102C99.1836 18.625 98.5651 18.7324 97.875 18.7324C97.3281 18.7324 96.8236 18.6641 96.3613 18.5273C95.8991 18.3906 95.4824 18.1725 95.1113 17.873C94.7467 17.5671 94.4342 17.1699 94.1738 16.6816C93.9134 16.1934 93.7148 15.6009 93.5781 14.9043C93.4414 14.2077 93.373 13.3939 93.373 12.4629V10.2949C93.373 9.12956 93.4772 8.15299 93.6855 7.36523C93.9004 6.57747 94.2031 5.94596 94.5938 5.4707C94.9844 4.98893 95.4531 4.64388 96 4.43555C96.5534 4.22721 97.1719 4.12305 97.8555 4.12305C98.4089 4.12305 98.9167 4.19141 99.3789 4.32812C99.8477 4.45833 100.264 4.66992 100.629 4.96289C100.993 5.24935 101.303 5.63346 101.557 6.11523C101.817 6.59049 102.016 7.17318 102.152 7.86328C102.289 8.55339 102.357 9.36393 102.357 10.2949ZM100.541 12.7559V9.99219C100.541 9.35417 100.502 8.79427 100.424 8.3125C100.352 7.82422 100.245 7.40755 100.102 7.0625C99.9583 6.71745 99.776 6.4375 99.5547 6.22266C99.3398 6.00781 99.0892 5.85156 98.8027 5.75391C98.5228 5.64974 98.207 5.59766 97.8555 5.59766C97.4258 5.59766 97.0449 5.67904 96.7129 5.8418C96.3809 5.99805 96.1009 6.2487 95.873 6.59375C95.6517 6.9388 95.4824 7.39128 95.3652 7.95117C95.248 8.51107 95.1895 9.19141 95.1895 9.99219V12.7559C95.1895 13.3939 95.2253 13.957 95.2969 14.4453C95.375 14.9336 95.4889 15.3568 95.6387 15.7148C95.7884 16.0664 95.9707 16.3561 96.1855 16.584C96.4004 16.8118 96.6478 16.9811 96.9277 17.0918C97.2142 17.196 97.5299 17.248 97.875 17.248C98.3177 17.248 98.7051 17.1634 99.0371 16.9941C99.3691 16.8249 99.6458 16.5612 99.8672 16.2031C100.095 15.8385 100.264 15.373 100.375 14.8066C100.486 14.2337 100.541 13.5501 100.541 12.7559ZM110.619 4.24023V18.5371H108.812V6.49609L105.17 7.82422V6.19336L110.336 4.24023H110.619ZM124.896 14.6895C124.896 15.5553 124.695 16.291 124.291 16.8965C123.894 17.4954 123.354 17.9512 122.67 18.2637C121.993 18.5762 121.228 18.7324 120.375 18.7324C119.522 18.7324 118.754 18.5762 118.07 18.2637C117.387 17.9512 116.846 17.4954 116.449 16.8965C116.052 16.291 115.854 15.5553 115.854 14.6895C115.854 14.123 115.961 13.6055 116.176 13.1367C116.397 12.6615 116.706 12.248 117.104 11.8965C117.507 11.5449 117.982 11.2747 118.529 11.0859C119.083 10.8906 119.691 10.793 120.355 10.793C121.228 10.793 122.006 10.9622 122.689 11.3008C123.373 11.6328 123.91 12.0918 124.301 12.6777C124.698 13.2637 124.896 13.9342 124.896 14.6895ZM123.08 14.6504C123.08 14.123 122.966 13.6576 122.738 13.2539C122.51 12.8438 122.191 12.5247 121.781 12.2969C121.371 12.069 120.896 11.9551 120.355 11.9551C119.802 11.9551 119.324 12.069 118.92 12.2969C118.523 12.5247 118.214 12.8438 117.992 13.2539C117.771 13.6576 117.66 14.123 117.66 14.6504C117.66 15.1973 117.768 15.666 117.982 16.0566C118.204 16.4408 118.516 16.737 118.92 16.9453C119.33 17.1471 119.815 17.248 120.375 17.248C120.935 17.248 121.417 17.1471 121.82 16.9453C122.224 16.737 122.533 16.4408 122.748 16.0566C122.969 15.666 123.08 15.1973 123.08 14.6504ZM124.564 8.01953C124.564 8.70964 124.382 9.33138 124.018 9.88477C123.653 10.4382 123.155 10.8743 122.523 11.1934C121.892 11.5124 121.176 11.6719 120.375 11.6719C119.561 11.6719 118.835 11.5124 118.197 11.1934C117.566 10.8743 117.071 10.4382 116.713 9.88477C116.355 9.33138 116.176 8.70964 116.176 8.01953C116.176 7.19271 116.355 6.48958 116.713 5.91016C117.077 5.33073 117.576 4.88802 118.207 4.58203C118.839 4.27604 119.558 4.12305 120.365 4.12305C121.179 4.12305 121.902 4.27604 122.533 4.58203C123.165 4.88802 123.66 5.33073 124.018 5.91016C124.382 6.48958 124.564 7.19271 124.564 8.01953ZM122.758 8.04883C122.758 7.57357 122.657 7.15365 122.455 6.78906C122.253 6.42448 121.973 6.13802 121.615 5.92969C121.257 5.71484 120.84 5.60742 120.365 5.60742C119.89 5.60742 119.473 5.70833 119.115 5.91016C118.764 6.10547 118.487 6.38542 118.285 6.75C118.09 7.11458 117.992 7.54753 117.992 8.04883C117.992 8.53711 118.09 8.96354 118.285 9.32812C118.487 9.69271 118.767 9.97591 119.125 10.1777C119.483 10.3796 119.9 10.4805 120.375 10.4805C120.85 10.4805 121.264 10.3796 121.615 10.1777C121.973 9.97591 122.253 9.69271 122.455 9.32812C122.657 8.96354 122.758 8.53711 122.758 8.04883Z" fill="white"/>
<defs>
<clipPath id="clip0_228_475">
<rect width="207.648" height="67.9191" fill="white" transform="translate(0.015625 29.6177)"/>
</clipPath>
</defs>
</svg>
