<svg width="651" height="650" viewBox="0 0 651 650" fill="none" xmlns="http://www.w3.org/2000/svg">
<path d="M612.291 332.34C622.963 342.649 633.635 353.022 637.413 365.039C640.743 375.711 635.748 387.28 627.317 395.711C609.238 413.726 587.232 426.532 586.763 445.358C586.186 468.837 603.838 496.158 597.435 519.893C591.8 540.64 557.628 542.924 526.059 539.231C499.123 536.051 475.259 535.282 464.673 548.217C452.272 563.457 450.863 590.906 434.961 606.637C421.087 620.361 396.819 609.134 374.258 600.916C364.909 597.501 354.813 596.647 346.51 600.66C336.969 605.335 328.516 615.174 318.911 625.42C308.581 636.433 297.887 646.764 286.425 647.938C275.753 649.091 265.401 639.891 258.08 627.725C242.968 602.667 236.244 574.641 219.66 566.872C203.716 559.402 180.749 568.644 156.566 572.742C131.635 577.011 106.214 573.916 91.9987 558.932C77.7833 543.948 75.4356 518.377 79.3843 493.596C83.1836 469.819 91.572 447.151 83.9521 431.442C75.9266 415.006 48.3923 407.963 23.9529 393.022C12.0854 385.658 3.12059 375.391 4.05975 364.762C5.10562 353.428 14.86 342.755 25.4042 332.446C35.2653 322.82 44.8276 314.325 49.4594 304.698C53.4721 296.395 52.7677 286.385 49.6728 276.951C42.2663 254.731 32.2344 230.932 45.9161 217.186C61.4976 201.519 88.2209 199.513 102.799 186.856C115.435 175.842 114.218 151.894 110.974 124.744C107.217 93.1965 110.163 59.1735 131.166 54.3069C155.584 48.7787 182.883 67.1136 206.362 66.3666C225.081 65.8116 237.44 42.8876 255.305 23.8484C263.629 14.9904 275.369 9.61178 285.977 13.0482C298.101 16.997 308.495 28.2028 318.826 39.2165C328.431 49.4619 337.14 58.5973 346.702 61.3507C355.56 63.912 366.147 59.8992 376.349 52.9836C402.347 35.3531 430.244 5.68432 453.424 14.03C475.601 22.0982 478.824 58.3837 484.694 86.6011C489.475 109.568 497.137 129.141 509.987 141.392C522.836 153.644 542.964 160.858 566.101 165.767C594.148 171.723 629.686 175.864 637.264 197.955C645.182 221.285 616.367 248.883 599.228 274.795C592.462 285.019 588.556 295.563 590.967 304.485C593.721 313.898 602.429 322.713 612.291 332.34Z" fill="white"/>
<mask id="mask0_215_2809" style="mask-type:alpha" maskUnits="userSpaceOnUse" x="3" y="0" width="636" height="637">
<path d="M612.291 320.34C622.963 330.649 633.635 341.022 637.413 353.039C640.743 363.711 635.748 375.28 627.317 383.711C609.238 401.726 587.232 414.532 586.763 433.358C586.186 456.837 603.838 484.158 597.435 507.893C591.8 528.64 557.628 530.924 526.059 527.231C499.123 524.051 475.259 523.282 464.673 536.217C452.272 551.457 450.863 578.906 434.961 594.637C421.087 608.361 396.819 597.134 374.258 588.916C364.909 585.501 354.813 584.647 346.51 588.66C336.969 593.335 328.516 603.174 318.911 613.42C308.581 624.433 297.887 634.764 286.425 635.938C275.753 637.091 265.401 627.891 258.08 615.725C242.968 590.667 236.244 562.641 219.66 554.872C203.716 547.402 180.749 556.644 156.566 560.742C131.635 565.011 106.214 561.916 91.9987 546.932C77.7833 531.948 75.4356 506.377 79.3843 481.596C83.1836 457.819 91.572 435.151 83.9521 419.442C75.9266 403.006 48.3923 395.963 23.9529 381.022C12.0854 373.658 3.12059 363.391 4.05975 352.762C5.10562 341.428 14.86 330.755 25.4042 320.446C35.2653 310.82 44.8276 302.325 49.4594 292.698C53.4721 284.395 52.7677 274.385 49.6728 264.951C42.2663 242.731 32.2344 218.932 45.9161 205.186C61.4976 189.519 88.2209 187.513 102.799 174.856C115.435 163.842 114.218 139.894 110.974 112.744C107.217 81.1965 110.163 47.1735 131.166 42.3069C155.584 36.7787 182.883 55.1136 206.362 54.3666C225.081 53.8116 237.44 30.8876 255.305 11.8484C263.629 2.99044 275.369 -2.38822 285.977 1.04823C298.101 4.99695 308.495 16.2028 318.826 27.2165C328.431 37.4619 337.14 46.5973 346.702 49.3507C355.56 51.912 366.147 47.8992 376.349 40.9836C402.347 23.3531 430.244 -6.31568 453.424 2.02999C475.601 10.0982 478.824 46.3837 484.694 74.6011C489.475 97.5677 497.137 117.141 509.987 129.392C522.836 141.644 542.964 148.858 566.101 153.767C594.148 159.723 629.686 163.864 637.264 185.955C645.182 209.285 616.367 236.883 599.228 262.795C592.462 273.019 588.556 283.563 590.967 292.485C593.721 301.898 602.429 310.713 612.291 320.34Z" fill="white"/>
</mask>
<g mask="url(#mask0_215_2809)">
<g filter="url(#filter0_f_215_2809)">
<ellipse cx="227.5" cy="84.5239" rx="131.5" ry="122.5" fill="#FFF500"/>
</g>
<g filter="url(#filter1_f_215_2809)">
<ellipse cx="571" cy="371.524" rx="165" ry="164.5" fill="#FD0055"/>
</g>
<g filter="url(#filter2_f_215_2809)">
<ellipse cx="90.5" cy="313.024" rx="160.5" ry="155" fill="#FD2FE8"/>
</g>
<g filter="url(#filter3_f_215_2809)">
<ellipse cx="294" cy="486.524" rx="230" ry="214.5" fill="#9C4FFE"/>
</g>
<g filter="url(#filter4_f_215_2809)">
<ellipse cx="471" cy="140.524" rx="261" ry="214.5" fill="#4AE5E8"/>
</g>
</g>
<g clip-path="url(#clip0_215_2809)">
<path fill-rule="evenodd" clip-rule="evenodd" d="M11.3759 533.902C-25.3747 430.791 36.7414 313.083 130.096 265.076C166.73 242.891 207.802 228.37 250.367 220.269C244.604 221.518 241.996 226.606 241.429 232.221C240.988 236.6 241.62 241.02 243.271 245.1C253.388 268.604 283.731 276.184 306.379 279.809C313.384 281.038 320.479 281.684 327.591 281.741C347.495 281.6 367.039 277.234 385.386 269.615C394.234 265.945 403.687 261.431 410.597 254.618C416.94 248.358 421.544 240.509 422.001 231.435C422.009 230.479 421.931 229.525 421.769 228.583C421.17 224.77 419.239 218.685 413.778 217.597C455.469 224.532 495.203 240.272 530.334 263.768C539.195 269.809 547.472 276.006 555.165 282.359C630.25 344.141 652.022 418.698 649.865 479.294C648.745 510.597 643.793 539.826 628.924 567.883C634.417 556.839 635.131 542.537 628.982 526.026C628.247 524.06 627.458 522.096 626.612 520.134C611.73 485.592 579.21 450.477 545.969 436.87L545.402 436.645C531.113 430.901 514.866 426.432 499.334 428.673C496.376 429.095 493.461 429.774 490.621 430.701C477.098 435.132 468.379 442.936 463.936 452.216C463.569 452.976 463.234 453.748 462.925 454.528C460.714 460.244 459.945 466.416 460.684 472.5C454.553 477.009 448.141 481.121 441.487 484.813C445.866 471.444 448.313 457.303 451.43 443.69C454.946 428.331 458.72 412.342 458.713 396.423C461.102 367.941 455.996 340.792 437.772 322.574C417.764 302.573 390.441 306.553 368.108 320.147C347.65 332.594 332.916 349.872 322.536 369.731C315.053 378.837 309.521 389.565 304.981 400.409C304.166 402.363 303.389 404.323 302.65 406.289C297.526 395.463 290.318 385.754 281.438 377.716C277.709 372.588 273.213 368.064 268.108 364.303C243.992 347.038 212.271 361.727 196.14 383.847C193.467 387.491 191.214 391.424 189.423 395.573C182.443 412.072 181.883 430.514 184.632 447.45L184.787 449.981C185.54 462.313 187.124 475.218 191.001 487.144C182.709 482.948 174.93 477.807 167.819 471.824C184.845 446.13 162.429 425.079 132.626 428.441C131.982 428.505 131.384 428.589 130.759 428.679C115.919 430.948 101.424 435.074 87.6139 440.959C61.759 451.855 37.4819 468.714 21.9754 489.578C21.5246 490.183 21.0803 490.808 20.6489 491.433C11.685 504.557 8.16899 521.184 11.3759 533.934V533.902Z" fill="white"/>
<path fill-rule="evenodd" clip-rule="evenodd" d="M11.3759 533.902C-25.3747 430.791 36.7414 313.083 130.096 265.076C166.73 242.891 207.802 228.37 250.367 220.269C244.604 221.518 241.996 226.606 241.429 232.221C240.988 236.6 241.62 241.02 243.271 245.1C253.388 268.604 283.731 276.184 306.379 279.809C313.384 281.038 320.479 281.684 327.591 281.741C347.495 281.6 367.039 277.234 385.386 269.615C394.234 265.945 403.687 261.431 410.597 254.618C416.94 248.358 421.544 240.509 422.001 231.435C422.009 230.479 421.931 229.525 421.769 228.583C421.17 224.77 419.239 218.685 413.778 217.597C455.469 224.532 495.203 240.272 530.334 263.768C539.195 269.809 547.472 276.006 555.165 282.359C630.25 344.141 652.022 418.698 649.865 479.294C648.745 510.597 643.793 539.826 628.924 567.883C634.417 556.839 635.131 542.537 628.982 526.026C628.248 524.06 627.458 522.096 626.612 520.134C611.73 485.592 579.21 450.477 545.969 436.87L545.402 436.645C531.113 430.901 514.866 426.432 499.334 428.673C496.376 429.095 493.461 429.774 490.621 430.701C477.098 435.132 468.379 442.936 463.936 452.216C463.569 452.976 463.234 453.748 462.925 454.528C460.714 460.244 459.945 466.416 460.684 472.5C454.553 477.009 448.141 481.121 441.487 484.813C445.866 471.444 448.313 457.303 451.43 443.69C454.946 428.331 458.72 412.342 458.713 396.423C461.102 367.941 455.996 340.792 437.772 322.574C417.764 302.573 390.441 306.553 368.108 320.147C347.65 332.594 332.916 349.872 322.536 369.731C315.053 378.837 309.521 389.565 304.981 400.409C304.166 402.363 303.389 404.323 302.65 406.289C297.526 395.463 290.318 385.754 281.438 377.716C277.709 372.588 273.213 368.064 268.108 364.303C243.992 347.038 212.271 361.727 196.14 383.847C193.467 387.491 191.214 391.424 189.423 395.573C182.443 412.072 181.883 430.514 184.632 447.45L184.787 449.981C185.54 462.313 187.124 475.218 191.001 487.144C182.709 482.948 174.93 477.807 167.819 471.824C184.845 446.13 162.429 425.079 132.626 428.441C131.983 428.505 131.384 428.589 130.759 428.679C115.919 430.948 101.424 435.074 87.6139 440.959C61.759 451.855 37.4819 468.714 21.9754 489.578C21.5246 490.183 21.0803 490.808 20.6489 491.433C11.685 504.557 8.16899 521.184 11.3759 533.934V533.902Z" stroke="black" stroke-width="1.28791" stroke-miterlimit="10"/>
<path fill-rule="evenodd" clip-rule="evenodd" d="M306.436 141.204C306.406 140.948 306.479 140.69 306.639 140.488C306.799 140.286 307.033 140.155 307.289 140.125C307.546 140.095 307.803 140.168 308.006 140.328C308.208 140.488 308.338 140.722 308.368 140.978C309.179 147.933 310.667 153.941 315.632 159.132C329.432 173.53 353.67 169.615 360.76 149.524C360.803 149.404 360.868 149.294 360.953 149.2C361.038 149.105 361.14 149.028 361.255 148.974C361.369 148.919 361.494 148.887 361.62 148.881C361.747 148.874 361.874 148.892 361.994 148.935C362.113 148.977 362.223 149.042 362.318 149.127C362.412 149.212 362.489 149.315 362.544 149.429C362.598 149.544 362.63 149.668 362.637 149.794C362.643 149.921 362.625 150.048 362.583 150.168C354.984 171.689 329.02 175.894 314.241 160.471C308.961 154.959 307.312 148.603 306.449 141.21L306.436 141.204Z" fill="black"/>
<path fill-rule="evenodd" clip-rule="evenodd" d="M342.056 96.0691C363.808 97.4858 379.186 112.097 377.666 134.61C376.565 150.851 370.319 170.201 359.481 182.907C352.146 191.503 342.738 197.074 331.372 196.694C302.71 195.779 291.196 170.433 293.257 144.83C295.105 121.789 302.446 109.322 311.687 102.741C320.927 96.1593 332.222 95.4445 342.056 96.082V96.0691ZM341.927 98.001C332.506 97.3892 321.7 98.001 312.807 104.305C303.914 110.61 296.966 122.742 295.182 144.971C293.211 169.442 304.011 193.912 331.437 194.749C342.171 195.09 351.071 189.771 358.013 181.638C368.599 169.261 374.659 150.335 375.754 134.488C377.203 113.147 362.566 99.3469 341.946 98.0074L341.927 98.001Z" fill="black"/>
<path fill-rule="evenodd" clip-rule="evenodd" d="M324.834 90.6992C324.773 90.8148 324.688 90.9168 324.586 90.9988C324.484 91.0808 324.366 91.1412 324.24 91.1763C324.114 91.2114 323.982 91.2204 323.852 91.2029C323.722 91.1853 323.597 91.1416 323.485 91.0742C323.373 91.0069 323.275 90.9174 323.198 90.8112C323.122 90.705 323.067 90.5843 323.039 90.4564C323.01 90.3286 323.008 90.1963 323.032 90.0675C323.056 89.9388 323.106 89.8163 323.179 89.7075C327.97 81.6709 334.668 76.1844 342.942 72.1017C343.173 71.9881 343.439 71.9708 343.683 72.0535C343.926 72.1362 344.126 72.3122 344.24 72.5428C344.354 72.7734 344.371 73.0396 344.288 73.283C344.205 73.5263 344.029 73.7268 343.799 73.8404C335.833 77.7621 329.432 83.0168 324.834 90.6992Z" fill="black"/>
<path fill-rule="evenodd" clip-rule="evenodd" d="M338.526 89.411C338.309 89.5485 338.046 89.5942 337.796 89.538C337.545 89.4819 337.327 89.3285 337.189 89.1116C337.052 88.8947 337.006 88.6321 337.063 88.3815C337.119 88.1309 337.272 87.9129 337.489 87.7754C341.597 85.1996 346.44 82.7203 351.205 81.5934C351.332 81.5525 351.466 81.5384 351.599 81.5518C351.731 81.5652 351.86 81.6059 351.976 81.6713C352.092 81.7367 352.193 81.8255 352.273 81.9319C352.353 82.0384 352.411 82.1603 352.441 82.29C352.472 82.4196 352.476 82.5542 352.452 82.6854C352.428 82.8165 352.377 82.9412 352.303 83.0518C352.229 83.1624 352.132 83.2564 352.02 83.3279C351.907 83.3994 351.781 83.4469 351.65 83.4673C347.09 84.5492 342.46 86.9125 338.526 89.411Z" fill="black"/>
<path fill-rule="evenodd" clip-rule="evenodd" d="M348.569 91.9031C348.318 91.9551 348.057 91.9054 347.843 91.7647C347.628 91.624 347.479 91.4039 347.426 91.1528C347.374 90.9018 347.424 90.6403 347.565 90.426C347.705 90.2116 347.926 90.0619 348.177 90.0098C352.462 89.0722 356.859 88.747 361.236 89.0439C361.492 89.0627 361.73 89.1825 361.898 89.3769C362.066 89.5713 362.15 89.8245 362.131 90.0807C362.112 90.3368 361.993 90.5751 361.798 90.7429C361.604 90.9108 361.351 90.9945 361.094 90.9758C356.896 90.6939 352.679 91.0082 348.569 91.9095V91.9031Z" fill="black"/>
<path fill-rule="evenodd" clip-rule="evenodd" d="M323.841 128.125C323.862 127.998 323.908 127.877 323.976 127.768C324.044 127.658 324.133 127.564 324.238 127.489C324.342 127.414 324.461 127.361 324.586 127.332C324.711 127.303 324.841 127.299 324.968 127.32C325.095 127.341 325.216 127.387 325.325 127.455C325.434 127.523 325.529 127.612 325.604 127.717C325.678 127.821 325.732 127.94 325.761 128.065C325.79 128.19 325.794 128.32 325.773 128.447C325.624 129.01 325.63 129.603 325.788 130.164C325.947 130.724 326.253 131.232 326.674 131.634C327.423 132.356 328.396 132.801 329.431 132.897C330.467 132.993 331.504 132.734 332.373 132.163C333.204 131.519 333.88 130.81 333.925 129.922C333.94 129.665 334.055 129.425 334.247 129.255C334.438 129.084 334.69 128.996 334.946 129.01C335.202 129.025 335.442 129.141 335.613 129.332C335.784 129.523 335.872 129.775 335.857 130.031C335.773 131.448 334.852 132.729 333.526 133.714C332.273 134.544 330.776 134.923 329.279 134.79C327.783 134.656 326.376 134.018 325.29 132.98C324.641 132.372 324.167 131.6 323.918 130.746C323.669 129.892 323.653 128.987 323.873 128.125H323.841Z" fill="black"/>
<path fill-rule="evenodd" clip-rule="evenodd" d="M339.914 130.772C339.935 130.645 339.981 130.524 340.048 130.414C340.116 130.305 340.205 130.21 340.309 130.135C340.413 130.06 340.531 130.007 340.656 129.977C340.782 129.948 340.911 129.943 341.038 129.964C341.165 129.985 341.287 130.03 341.396 130.098C341.505 130.166 341.6 130.254 341.675 130.358C341.75 130.463 341.804 130.581 341.833 130.706C341.863 130.831 341.867 130.961 341.846 131.088C341.692 132.015 341.466 132.498 341.943 133.451C342.312 134.09 342.907 134.568 343.611 134.79C344.221 135.018 344.87 135.12 345.521 135.091C346.171 135.063 346.81 134.903 347.397 134.623C348.601 133.979 349.142 133.277 349.213 132.234C349.222 132.107 349.256 131.983 349.313 131.869C349.369 131.756 349.448 131.654 349.544 131.571C349.64 131.487 349.751 131.424 349.872 131.383C349.993 131.343 350.12 131.327 350.247 131.336C350.374 131.344 350.497 131.378 350.611 131.435C350.725 131.492 350.827 131.57 350.91 131.666C350.993 131.762 351.057 131.874 351.097 131.994C351.138 132.115 351.154 132.242 351.145 132.369C351.029 134.056 350.263 135.299 348.312 136.336C347.482 136.737 346.58 136.967 345.66 137.012C344.739 137.058 343.819 136.917 342.954 136.6C341.784 136.214 340.805 135.396 340.217 134.314C339.502 132.884 339.715 132.17 339.947 130.772H339.914Z" fill="black"/>
<path fill-rule="evenodd" clip-rule="evenodd" d="M427.272 491.948C426.809 492.727 426.345 493.493 425.875 494.253C418.018 488.337 409.745 482.993 401.121 478.264C393.239 473.904 370.804 465.868 361.576 480.196C355.136 490.229 358.24 504.666 363.508 514.969C356.894 512.922 349.985 513.372 346.449 519.541C343.564 524.551 342.373 530.598 342.373 536.999C326.603 536.69 308.817 542.151 298.726 548.397C299.775 547.637 300.799 546.839 301.817 546.034C305.887 542.878 309.677 539.377 313.144 535.57C323.544 523.978 336.41 504.093 317.156 490.782C303.523 481.368 273.431 489.372 256.134 504.099C253.559 497.016 247.763 492.154 237.885 494.53C234.514 495.344 231.265 496.602 228.225 498.272C222.617 498.31 214.058 496.565 204.908 493.165C203.42 492.611 201.952 492.045 200.516 491.452C187.843 471.238 175.105 429.342 189.504 395.548C191.295 391.399 193.548 387.465 196.221 383.821C212.352 361.688 244.073 347.013 268.189 364.277C287.218 377.903 297.921 406.385 304.103 428.505C311.006 385.058 329.217 343.812 368.189 320.089C390.522 306.495 417.845 302.515 437.853 322.517C478.074 362.719 454.389 446.446 427.279 491.941L427.272 491.948Z" fill="white"/>
<path fill-rule="evenodd" clip-rule="evenodd" d="M302.696 406.27C303.43 404.3 304.207 402.34 305.027 400.391C309.567 389.547 315.099 378.818 322.582 369.713C313.18 387.744 307.352 407.867 304.068 428.513C302.851 424.147 301.453 419.536 299.85 414.835C295.465 401.956 289.547 388.484 281.484 377.698C290.364 385.736 297.572 395.445 302.696 406.27Z" fill="black"/>
<path fill-rule="evenodd" clip-rule="evenodd" d="M458.757 396.372C458.757 412.29 454.99 428.28 451.474 443.638C448.358 457.251 445.911 471.393 441.532 484.761C436.818 487.382 432.033 489.777 427.242 491.948C442.053 467.065 455.873 430.772 458.757 396.372Z" fill="black"/>
<path fill-rule="evenodd" clip-rule="evenodd" d="M184.633 447.45C187.511 465.14 194.009 481.148 200.487 491.484C197.203 490.136 194.041 488.689 191.002 487.144C187.138 475.218 185.541 462.313 184.787 449.981L184.633 447.45Z" fill="black"/>
<path d="M499.385 428.621C496.427 429.044 493.512 429.722 490.672 430.649C480.169 434.095 472.564 439.594 467.612 446.22C471.16 431.744 472.641 412.857 470.464 400.673C470.442 400.546 470.396 400.425 470.327 400.316C470.258 400.208 470.168 400.113 470.063 400.039C469.958 399.965 469.839 399.912 469.714 399.884C469.588 399.856 469.458 399.853 469.331 399.875C469.204 399.897 469.083 399.943 468.974 400.012C468.865 400.081 468.771 400.171 468.697 400.276C468.623 400.381 468.57 400.5 468.542 400.626C468.514 400.751 468.511 400.881 468.533 401.008C471.057 415.124 468.565 438.416 463.645 452.905C463.413 453.445 463.181 453.974 462.943 454.476C460.733 460.192 459.963 466.365 460.702 472.449C476.679 460.684 490.549 446.027 499.385 428.621Z" fill="black"/>
<path d="M167.826 471.799C172.334 464.953 174.099 458.443 173.622 452.635C173.287 433.271 182.399 400.236 193.198 384.626C193.344 384.415 193.401 384.155 193.355 383.903C193.309 383.65 193.164 383.426 192.954 383.28C192.743 383.134 192.482 383.078 192.23 383.124C191.978 383.17 191.754 383.314 191.608 383.525C181.845 397.647 173.422 425.775 171.922 445.686C166.77 433.664 151.129 426.329 132.641 428.415C142.828 445.519 153.936 460.117 167.826 471.799Z" fill="black"/>
<path d="M629.036 525.975C628.302 524.008 627.512 522.044 626.666 520.082C611.784 485.541 579.264 450.426 546.023 436.819C569.09 452.351 601.983 484.794 617.393 536.89C615.809 539.156 614.051 541.571 612.145 544.083C611.974 544.065 611.801 544.093 611.645 544.164C611.489 544.235 611.354 544.347 611.256 544.488C599.832 560.793 585.163 576.042 567.667 589.739C557.948 597.325 547.748 604.273 537.13 610.539C498.686 633.341 467.248 646.671 420.336 647.335C392.156 647.721 372.239 642.357 355.76 629.89C345.315 621.989 338.483 610.636 339.661 603.224L340.601 602.741L341.393 602.329C341.805 602.116 342.211 601.891 342.617 601.685L343.351 601.285C343.789 601.041 344.227 600.796 344.639 600.545L345.283 600.184C345.791 599.888 346.294 599.579 346.796 599.276L347.195 599.038C347.839 598.645 348.483 598.252 349.082 597.847L349.468 597.589C349.958 597.273 350.441 596.945 350.917 596.63C351.143 596.481 351.362 596.32 351.561 596.166L352.688 595.387L353.409 594.859C353.706 594.64 354.002 594.434 354.285 594.215C359.108 594.524 363.887 596.262 368.51 597.943C370.442 598.645 372.438 599.373 374.396 599.978C374.643 600.095 374.926 600.11 375.185 600.021C375.444 599.932 375.657 599.746 375.78 599.502C376.18 598.671 375.581 598.252 374.138 597.254C373.649 596.913 373.089 596.527 372.85 596.301C371.44 595.084 370.069 593.725 368.742 592.437L368.388 592.09C366.321 590.093 364.608 588.335 363.056 586.616L363.243 586.423L363.784 585.856L364.26 585.354L364.775 584.794L365.226 584.285L365.722 583.725L366.153 583.209C366.314 583.023 366.462 582.836 366.617 582.649C366.772 582.462 366.894 582.308 367.036 582.134L367.473 581.574L367.866 581.059L368.285 580.492L368.652 579.983C368.781 579.79 368.916 579.603 369.045 579.417L369.392 578.901L369.759 578.335L370.088 577.82L370.429 577.253C370.532 577.079 370.635 576.905 370.732 576.731C370.828 576.557 370.951 576.358 371.054 576.165C371.157 575.971 371.241 575.823 371.331 575.649L371.633 575.083C371.717 574.909 371.801 574.735 371.891 574.568L372.161 573.994C372.245 573.827 372.322 573.653 372.4 573.479C372.477 573.305 372.567 573.099 372.644 572.913C372.722 572.726 372.793 572.565 372.857 572.391C372.921 572.217 373.011 572.011 373.082 571.824L373.276 571.309C373.34 571.116 373.411 570.929 373.475 570.736C373.54 570.543 373.591 570.395 373.643 570.221C373.694 570.047 373.765 569.841 373.823 569.648C373.881 569.455 373.919 569.306 373.965 569.133L374.119 568.566C374.164 568.392 374.203 568.225 374.241 568.051C374.28 567.877 374.332 567.671 374.37 567.478L374.467 566.962C374.505 566.776 374.544 566.583 374.57 566.396C374.596 566.209 374.628 566.054 374.647 565.881C374.666 565.707 374.705 565.501 374.731 565.314C374.757 565.127 374.769 564.966 374.782 564.799C374.795 564.631 374.827 564.419 374.84 564.232C374.853 564.045 374.84 563.891 374.872 563.717C374.905 563.543 374.872 563.337 374.872 563.15C374.872 562.963 374.872 562.809 374.872 562.642C374.872 562.474 374.872 562.262 374.872 562.068C374.872 561.875 374.872 561.734 374.872 561.566C374.872 561.399 374.872 561.186 374.872 560.993C374.872 560.8 374.872 560.658 374.872 560.497C374.872 560.336 374.872 560.111 374.827 559.918L374.769 559.428C374.769 559.235 374.724 559.042 374.699 558.849C374.673 558.655 374.647 558.527 374.621 558.366C374.596 558.205 374.563 557.973 374.525 557.78C374.486 557.586 374.46 557.464 374.428 557.31C374.396 557.155 374.351 556.91 374.306 556.711L374.19 556.26C374.138 556.054 374.093 555.854 374.035 555.616C373.977 555.378 373.952 555.345 373.913 555.21C373.874 555.075 373.791 554.772 373.72 554.566L373.617 554.27C373.411 553.665 373.192 553.066 372.973 552.467V552.422C372.838 552.1 372.689 551.778 372.535 551.437C372.49 551.346 372.451 551.25 372.406 551.153L371.988 550.336C371.891 550.155 371.788 549.975 371.685 549.795C371.685 549.73 371.614 549.672 371.575 549.608C369.594 546.172 366.776 543.292 363.384 541.236L363.249 541.153L362.547 540.734L362.096 540.489L361.665 540.258C361.407 540.116 361.143 539.987 360.873 539.858L360.751 539.794C356.99 537.978 352.225 536.651 346.204 536.175L345.437 536.11H344.877L343.428 536.04V534.34C343.364 528.995 343.299 523.946 345.65 519.857C348.786 514.416 356.52 513.881 362.946 515.761C363.655 517.127 364.415 518.447 365.207 519.677C366.623 521.885 373.237 530.959 377.397 531.712C377.762 531.794 378.14 531.797 378.506 531.722C378.873 531.646 379.219 531.494 379.522 531.274C380.089 530.862 380.525 530.294 380.776 529.639C381.028 528.984 381.084 528.271 380.939 527.585C380.146 523.006 372.425 516.798 364.292 514.158C359.327 504.241 356.288 490.332 362.489 480.717C372.355 465.378 393.992 471.11 398.229 472.417C412.718 476.879 435.578 492.895 462.238 543.844C462.297 543.957 462.377 544.057 462.475 544.138C462.572 544.22 462.684 544.281 462.805 544.319C462.927 544.357 463.054 544.371 463.18 544.359C463.307 544.348 463.43 544.312 463.542 544.253C463.655 544.195 463.754 544.114 463.836 544.017C463.917 543.92 463.979 543.807 464.017 543.686C464.055 543.565 464.068 543.438 464.057 543.311C464.046 543.185 464.01 543.062 463.951 542.949C450.428 517.133 436.551 497.666 422.673 485.096C411.919 475.36 403.896 472.14 398.796 470.569C394.326 469.191 371.485 463.157 360.866 479.668C354.543 489.495 357.08 503.211 361.826 513.475C355.032 511.956 347.35 513.025 343.982 518.891C341.361 523.437 341.406 528.744 341.496 534.346C341.496 534.887 341.496 535.441 341.496 535.995C329.049 535.937 316.247 539.214 306.723 543.271C309.277 541.059 311.694 538.694 313.961 536.188C321.089 528.235 329.319 516.431 328.012 505.355C327.303 499.334 323.865 494.157 317.799 489.965C311.147 485.367 300.528 484.465 287.893 487.389C276.45 490.068 265.142 495.522 256.642 502.444C253.3 494.672 246.48 491.426 237.755 493.539C236.431 493.856 235.124 494.241 233.84 494.691C233.677 494.67 233.511 494.688 233.357 494.743C231.856 495.322 230.395 496 228.984 496.771C228.675 496.926 228.34 497.08 228.063 497.248C222.268 497.248 213.825 495.361 205.325 492.206C203.844 491.652 202.382 491.079 200.966 490.499C197.636 489.134 194.906 487.749 192.015 486.281C191.786 486.166 191.52 486.146 191.277 486.227C191.034 486.307 190.832 486.481 190.717 486.709C190.602 486.938 190.582 487.204 190.662 487.447C190.743 487.69 190.916 487.892 191.145 488.007C194.069 489.488 196.831 490.892 200.231 492.289C201.667 492.875 203.155 493.455 204.649 494.015C212.08 496.771 219.544 498.587 225.256 499.057C209.633 509.959 203.207 531.583 202.666 548.983C202.657 549.239 202.751 549.488 202.926 549.676C203.101 549.863 203.343 549.973 203.599 549.981C203.856 549.99 204.105 549.896 204.292 549.721C204.479 549.546 204.589 549.304 204.598 549.048C205.158 530.959 212.138 508.053 229.828 498.491C232.489 497.144 235.299 496.111 238.199 495.412C248.824 492.837 253.293 499.276 255.084 503.752C246.712 511.041 242.32 519.052 242.346 526.934C242.346 530.205 243.802 532.504 246.307 533.232C249.179 534.063 252.604 532.588 254.453 529.684C258.806 522.897 259.984 512.355 257.357 504.338C265.58 497.492 277.107 491.877 288.331 489.25C300.251 486.461 310.586 487.279 316.665 491.504C322.255 495.367 325.41 500.081 326.054 505.529C327.278 515.89 319.351 527.192 312.48 534.848C309.054 538.616 305.307 542.078 301.281 545.197C300.167 546.072 299.233 546.8 298.242 547.521C297.079 548.233 295.957 549.009 294.88 549.846C294.757 549.913 294.649 550.006 294.565 550.119C294.48 550.231 294.421 550.36 294.39 550.497C294.36 550.635 294.359 550.777 294.388 550.914C294.417 551.052 294.475 551.182 294.558 551.295C294.957 551.829 295.286 551.849 295.988 551.43C296.29 551.243 296.664 550.986 297.147 550.645L298.235 549.885C298.596 549.64 298.95 549.389 299.304 549.131C308.461 543.484 325.861 537.54 342.398 537.894C352.701 538.1 366.095 540.914 371.189 553.169C371.337 553.53 371.472 553.884 371.601 554.244C371.601 554.334 371.666 554.431 371.704 554.521C371.807 554.824 371.904 555.12 371.994 555.423C372.052 555.622 372.116 555.822 372.168 556.028C372.193 556.102 372.215 556.177 372.232 556.253C373.259 560.147 373.259 564.241 372.232 568.134V568.18C372.168 568.444 372.091 568.708 372.013 568.972C371.975 569.107 371.936 569.242 371.891 569.377C371.846 569.513 371.794 569.68 371.749 569.834C371.704 569.989 371.582 570.33 371.492 570.575C371.494 570.607 371.494 570.639 371.492 570.672C369.772 575.091 367.263 579.161 364.086 582.681L363.9 582.894C363.713 583.113 363.526 583.325 363.333 583.538C363.14 583.75 362.785 584.137 362.496 584.439L362.187 584.761C361.858 585.103 361.543 585.444 361.176 585.792L361.124 585.843C358.731 588.187 356.186 590.37 353.506 592.379C352.933 592.811 352.347 593.236 351.761 593.667C350.306 594.704 348.792 595.709 347.253 596.687C344.404 598.489 341.464 600.141 338.444 601.639C337.484 602.11 336.512 602.573 335.572 602.998C307.489 615.639 274.879 624.21 241.252 627.791C210.715 631.01 180.971 629.941 157.492 624.687C135.146 619.65 114.031 610.198 95.3889 596.887C77.7228 584.283 62.2723 568.832 49.668 551.166C41.5513 539.868 34.7886 527.657 29.5186 514.783C29.4655 514.66 29.3878 514.549 29.2904 514.457C29.1929 514.365 29.0778 514.294 28.9519 514.248C33.4596 501.639 40.7685 490.138 48.7922 479.475C59.5528 465.211 72.8054 451.636 87.7001 440.837C61.8452 451.733 37.5681 468.592 22.0616 489.456C21.6108 490.061 21.1665 490.686 20.7351 491.31C11.7712 504.434 8.25518 521.061 11.4621 533.812C16.2982 553.001 38.3279 561.109 48.1676 552.357C60.8752 570.161 76.4469 585.735 94.2492 598.445C113.097 611.906 134.446 621.463 157.041 626.554C171.814 629.858 189.033 631.532 207.36 631.532C218.74 631.52 230.111 630.908 241.425 629.697C275.259 626.091 308.075 617.462 336.338 604.737C336.782 604.537 337.233 604.331 337.678 604.093C337.259 612.213 344.117 623.315 354.672 631.319C370.938 643.619 390.411 649.17 417.522 649.17H420.439C467.783 648.526 499.465 635.067 538.193 612.104C548.881 605.793 559.152 598.8 568.942 591.169L569.586 590.647C596.426 595.928 619.692 586.571 629.055 567.742C634.471 556.794 635.185 542.492 629.036 525.975ZM378.91 527.906C378.998 528.239 378.984 528.59 378.869 528.914C378.754 529.238 378.544 529.52 378.266 529.722C378.172 529.785 378.066 529.825 377.954 529.839C377.842 529.854 377.729 529.843 377.622 529.806C374.847 529.304 369.045 522.259 366.72 518.627C366.321 517.983 365.928 517.339 365.548 516.695C372.619 519.574 378.337 524.777 378.91 527.945V527.906ZM252.727 528.699C251.349 530.843 248.779 532.021 246.738 531.429C245.096 530.946 244.162 529.368 244.162 526.979C244.162 518.125 250.151 510.7 255.644 505.767C257.756 513.134 256.584 522.71 252.727 528.731V528.699ZM367.029 593.468L367.39 593.815C368.278 594.678 369.193 595.567 370.133 596.43L369.18 596.082C365.078 594.588 360.86 593.062 356.507 592.463C358.349 590.991 360.066 589.488 361.659 587.955C363.23 589.72 364.956 591.491 367.029 593.5V593.468Z" fill="white"/>
<path d="M421.798 228.537C421.199 224.725 419.267 218.64 413.806 217.552L413.24 217.461C408.436 216.817 403.696 220.372 401.384 223.708C383.959 221.673 362.418 219.709 350.55 219.554C343.229 219.458 335.804 219.554 328.482 219.844C319.647 220.192 310.355 220.849 300.869 221.776C293.212 222.536 277.783 224.693 264.325 226.986C260.126 221.563 256.101 219.303 251.091 220.115L250.364 220.256C244.6 221.505 241.992 226.593 241.426 232.208C240.984 236.587 241.617 241.007 243.267 245.087C245.094 249.309 247.629 253.188 250.763 256.556C244.793 248.661 243.035 240.071 245.206 232.73H245.334C257.408 229.652 287.005 225.208 299.807 223.843C298.712 231.5 301.416 237.16 307.534 239.839C310.138 240.911 312.935 241.437 315.751 241.384C320.278 241.301 324.75 240.369 328.933 238.635C337.706 235.016 345.334 229.087 351.008 221.48C367.48 221.757 401.526 225.343 418.301 227.842C421.849 230.244 421.289 237.733 418.617 243.883C420.632 240.005 421.796 235.741 422.03 231.377C422.036 230.426 421.959 229.475 421.798 228.537Z" fill="black"/>
</g>
<defs>
<filter id="filter0_f_215_2809" x="44.2" y="-89.7761" width="366.6" height="348.6" filterUnits="userSpaceOnUse" color-interpolation-filters="sRGB">
<feFlood flood-opacity="0" result="BackgroundImageFix"/>
<feBlend mode="normal" in="SourceGraphic" in2="BackgroundImageFix" result="shape"/>
<feGaussianBlur stdDeviation="25.9" result="effect1_foregroundBlur_215_2809"/>
</filter>
<filter id="filter1_f_215_2809" x="354.2" y="155.224" width="433.6" height="432.6" filterUnits="userSpaceOnUse" color-interpolation-filters="sRGB">
<feFlood flood-opacity="0" result="BackgroundImageFix"/>
<feBlend mode="normal" in="SourceGraphic" in2="BackgroundImageFix" result="shape"/>
<feGaussianBlur stdDeviation="25.9" result="effect1_foregroundBlur_215_2809"/>
</filter>
<filter id="filter2_f_215_2809" x="-121.8" y="106.224" width="424.6" height="413.6" filterUnits="userSpaceOnUse" color-interpolation-filters="sRGB">
<feFlood flood-opacity="0" result="BackgroundImageFix"/>
<feBlend mode="normal" in="SourceGraphic" in2="BackgroundImageFix" result="shape"/>
<feGaussianBlur stdDeviation="25.9" result="effect1_foregroundBlur_215_2809"/>
</filter>
<filter id="filter3_f_215_2809" x="12.2" y="220.224" width="563.6" height="532.6" filterUnits="userSpaceOnUse" color-interpolation-filters="sRGB">
<feFlood flood-opacity="0" result="BackgroundImageFix"/>
<feBlend mode="normal" in="SourceGraphic" in2="BackgroundImageFix" result="shape"/>
<feGaussianBlur stdDeviation="25.9" result="effect1_foregroundBlur_215_2809"/>
</filter>
<filter id="filter4_f_215_2809" x="158.2" y="-125.776" width="625.6" height="532.6" filterUnits="userSpaceOnUse" color-interpolation-filters="sRGB">
<feFlood flood-opacity="0" result="BackgroundImageFix"/>
<feBlend mode="normal" in="SourceGraphic" in2="BackgroundImageFix" result="shape"/>
<feGaussianBlur stdDeviation="25.9" result="effect1_foregroundBlur_215_2809"/>
</filter>
<clipPath id="clip0_215_2809">
<rect width="650.699" height="577.262" fill="white" transform="translate(0 72.0239)"/>
</clipPath>
</defs>
</svg>
