<svg width="30" height="28" viewBox="0 0 30 28" fill="none" xmlns="http://www.w3.org/2000/svg">
<g clip-path="url(#clip0_158_403)">
<path fill-rule="evenodd" clip-rule="evenodd" d="M12.8018 20.408C12.8935 20.3154 12.9941 20.2138 13.1093 20.0986C13.1169 20.1344 13.1244 20.1694 13.1318 20.2039C13.2418 20.7175 13.3224 21.0941 13.4193 21.4641C13.5271 21.9526 13.6343 22.441 13.7414 22.9293C14.0707 24.4299 14.3998 25.93 14.7479 27.428C14.7744 27.5446 14.8267 27.6537 14.9007 27.7476C14.9748 27.8414 15.0688 27.9176 15.176 27.9705C15.5018 28.0616 15.6147 27.757 15.7106 27.4986C15.7157 27.4847 15.7208 27.471 15.7259 27.4575C15.747 27.4047 15.7642 27.3504 15.7775 27.2952C15.9012 26.8381 16.0278 26.3817 16.1544 25.9253C16.4511 24.8559 16.7478 23.7864 17.0065 22.7078C17.1718 22.0051 17.301 21.2897 17.4345 20.5503C17.4917 20.2334 17.5497 19.9122 17.6117 19.5857C17.7269 19.6457 17.8379 19.7135 17.9439 19.7886C18.203 20.0136 18.4571 20.2427 18.7117 20.4722C19.1461 20.8639 19.5821 21.257 20.0475 21.6339C21.1768 22.5639 22.3319 23.4902 23.4797 24.4092C23.69 24.5937 23.9926 24.7635 24.2178 24.5088C24.3154 24.3997 24.3058 24.1857 24.2967 23.983C24.2941 23.9252 24.2916 23.8683 24.2916 23.815C24.2808 23.7027 24.2482 23.5937 24.1956 23.4939C23.1426 20.7802 22.092 18.0627 21.0439 15.3416C21.0093 15.2559 20.9769 15.1703 20.9442 15.0841C20.9178 15.0142 20.8912 14.9439 20.8631 14.8729C20.9385 14.8166 21.0187 14.7672 21.103 14.7252C23.7513 13.7265 26.3044 12.4913 28.7313 11.0347C29.0066 10.89 29.2706 10.7247 29.521 10.5402C29.8975 10.2449 29.8458 9.83898 29.3882 9.72089C28.8976 9.58428 28.3916 9.5111 27.8825 9.50314C26.2955 9.50314 24.7123 9.54005 23.1291 9.59541C22.5626 9.61519 21.9995 9.66317 21.4186 9.71265C21.1328 9.737 20.8427 9.76172 20.5457 9.78363C20.6459 9.40858 20.7447 9.04019 20.8422 8.67659C21.0929 7.74141 21.3352 6.83791 21.5717 5.93441C21.6396 5.71967 21.672 5.49529 21.6676 5.27011C21.6656 5.19854 21.6443 5.12884 21.606 5.06834C21.5677 5.00784 21.5138 4.95878 21.45 4.92631C21.3862 4.89383 21.3148 4.87914 21.2433 4.88379C21.1719 4.88845 21.103 4.91226 21.0439 4.95273C20.9234 5.02814 20.8141 5.12006 20.7191 5.22583C19.8629 6.09679 18.9994 6.95668 18.1358 7.80919C17.8848 8.05646 17.6339 8.29265 17.2648 8.63956L17.2417 8.55911C16.9972 7.70891 16.7914 6.99327 16.6411 6.27763C16.4055 5.14329 16.1859 4.00895 15.9665 2.87566C15.8525 2.28707 15.7386 1.69877 15.6225 1.1109C15.5968 0.886046 15.5319 0.667449 15.4306 0.465056C15.3175 0.252627 15.1333 0.0867219 14.9103 -0.00364208C14.6113 -0.073762 14.4822 0.258386 14.4268 0.476127C14.4196 0.504342 14.4124 0.532619 14.4051 0.560951C14.3565 0.751254 14.3071 0.94399 14.2718 1.13673C14.0707 2.27901 13.8714 3.42221 13.6721 4.56541C13.4728 5.70849 13.2735 6.85157 13.0724 7.99372C13.0564 8.08269 13.0277 8.16885 12.9855 8.29577C12.9594 8.37417 12.9282 8.46812 12.8915 8.58789C12.7727 8.45195 12.667 8.32617 12.5682 8.2088C12.3695 7.97248 12.1994 7.77024 12.0095 7.58777C11.5224 7.11538 11.0241 6.65406 10.4927 6.22965C10.4058 6.1671 10.3052 6.12611 10.1994 6.11006C10.0935 6.09402 9.98531 6.10339 9.88377 6.13739C9.74722 6.21489 9.69186 6.50275 9.66972 6.70942C9.6656 6.90757 9.69046 7.10526 9.74353 7.29621C9.91192 8.21588 10.0832 9.13839 10.2572 10.0762C10.2815 10.2072 10.3059 10.3385 10.3303 10.4701C9.72223 10.5771 9.11935 10.6789 8.51976 10.7802C7.69292 10.9198 6.87234 11.0584 6.05301 11.2082C4.32584 11.5182 2.60237 11.8429 0.886274 12.1935C0.64639 12.26 0.303172 12.4334 0.247814 12.629C0.152594 12.9691 0.467884 13.0992 0.743221 13.2128C0.766685 13.2225 0.789859 13.2321 0.812463 13.2416C0.966112 13.3136 1.12385 13.3764 1.28485 13.4299C1.67184 13.5452 2.0582 13.664 2.44475 13.7829C3.38161 14.071 4.31964 14.3594 5.27061 14.5998C6.61586 14.9391 7.97603 15.2312 9.36338 15.5291C9.66591 15.5941 9.96973 15.6593 10.275 15.7254C10.2063 15.9432 10.1237 16.1565 10.0277 16.3638C8.64745 19.0062 7.63993 21.8 6.63242 24.5937C6.5485 24.7739 6.49132 24.9653 6.46266 25.162C6.4534 25.2535 6.46232 25.346 6.48892 25.434C6.51553 25.522 6.55928 25.604 6.61766 25.675C6.70048 25.7152 6.79133 25.736 6.88337 25.736C6.97542 25.736 7.06627 25.7152 7.14909 25.675C7.39971 25.5446 7.62976 25.3779 7.83184 25.1805C9.34987 23.7338 10.863 22.2859 12.3712 20.8367C12.5075 20.7051 12.6409 20.5704 12.8018 20.408ZM13.2891 18.8848C13.3605 18.8128 13.4388 18.7337 13.5284 18.6441C13.5344 18.6719 13.5402 18.6992 13.546 18.726C13.6316 19.1258 13.6943 19.4189 13.7697 19.7069C13.8536 20.087 13.937 20.4672 14.0204 20.8472C14.2767 22.0153 14.5329 23.1829 14.8038 24.3488C14.8245 24.4396 14.8651 24.5245 14.9228 24.5976C14.9804 24.6706 15.0536 24.7299 15.137 24.7711C15.3906 24.842 15.4785 24.6049 15.5531 24.4038C15.5571 24.393 15.5611 24.3823 15.565 24.3718C15.5814 24.3307 15.5949 24.2885 15.6052 24.2454C15.7015 23.8897 15.8 23.5345 15.8986 23.1792C16.1295 22.3469 16.3604 21.5144 16.5618 20.6749C16.6905 20.128 16.791 19.5712 16.8949 18.9956C16.9395 18.749 16.9846 18.499 17.0329 18.2448C17.1225 18.2916 17.2089 18.3443 17.2914 18.4028C17.4931 18.5779 17.6908 18.7562 17.889 18.9349C18.2271 19.2397 18.5665 19.5457 18.9287 19.839C19.8077 20.5629 20.7068 21.2839 21.6001 21.9991C21.7638 22.1428 21.9994 22.2749 22.1746 22.0767C22.2506 21.9918 22.2431 21.8252 22.2361 21.6675C22.234 21.6225 22.2321 21.5781 22.2321 21.5367C22.2236 21.4493 22.1983 21.3644 22.1574 21.2868C21.3378 19.1745 20.5201 17.0594 19.7043 14.9415C19.6773 14.8748 19.6521 14.8082 19.6267 14.7411C19.6061 14.6867 19.5854 14.6319 19.5635 14.5766C19.6222 14.5328 19.6847 14.4944 19.7502 14.4617C21.8116 13.6844 23.7987 12.723 25.6877 11.5893C25.902 11.4766 26.1075 11.348 26.3024 11.2043C26.5954 10.9745 26.5551 10.6586 26.199 10.5667C25.8171 10.4603 25.4233 10.4034 25.027 10.3972C23.7918 10.3972 22.5595 10.4259 21.3272 10.469C20.8864 10.4844 20.4481 10.5217 19.9959 10.5602C19.7735 10.5792 19.5476 10.5984 19.3165 10.6155C19.3945 10.3235 19.4714 10.0368 19.5473 9.75374C19.7424 9.02588 19.931 8.32268 20.115 7.61948C20.1679 7.45234 20.1931 7.2777 20.1897 7.10243C20.1881 7.04672 20.1715 6.99248 20.1417 6.94539C20.1119 6.8983 20.07 6.86011 20.0203 6.83483C19.9706 6.80956 19.9151 6.79813 19.8595 6.80175C19.8039 6.80537 19.7502 6.8239 19.7043 6.8554C19.6105 6.91409 19.5254 6.98564 19.4515 7.06797C18.7851 7.74587 18.1129 8.41516 17.4407 9.07871C17.2454 9.27116 17.0501 9.455 16.7628 9.72501L16.7448 9.66232C16.5545 9.00061 16.3944 8.44362 16.2774 7.88663C16.094 7.0037 15.9231 6.12078 15.7523 5.23868C15.6636 4.78057 15.5749 4.32269 15.4846 3.86514C15.4646 3.69013 15.414 3.51999 15.3352 3.36246C15.2472 3.19712 15.1038 3.06799 14.9302 2.99765C14.6975 2.94308 14.597 3.2016 14.5539 3.37108C14.5483 3.39303 14.5427 3.41502 14.537 3.43706C14.4991 3.5852 14.4608 3.73522 14.4333 3.88525C14.2767 4.77429 14.1216 5.66405 13.9665 6.55381C13.8114 7.44355 13.6562 8.3333 13.4997 9.22233C13.4873 9.29158 13.465 9.35864 13.4321 9.45743C13.4118 9.51845 13.3875 9.59158 13.3589 9.6848C13.2665 9.57899 13.1841 9.48109 13.1073 9.38973C12.9526 9.20579 12.8202 9.04838 12.6724 8.90636C12.2932 8.53868 11.9055 8.17962 11.4918 7.84928C11.4242 7.80059 11.3459 7.76869 11.2635 7.7562C11.1811 7.74372 11.0969 7.75101 11.0179 7.77747C10.9116 7.83779 10.8685 8.06185 10.8513 8.22271C10.8481 8.37693 10.8674 8.5308 10.9087 8.67943C11.0398 9.3951 11.173 10.113 11.3085 10.8428C11.3274 10.9449 11.3464 11.0472 11.3654 11.1498C10.8921 11.2331 10.4228 11.3123 9.95615 11.3912C9.3126 11.4999 8.67393 11.6077 8.03622 11.7243C6.6919 11.9656 5.35045 12.2183 4.01474 12.4912C3.82803 12.5429 3.56089 12.6779 3.5178 12.8302C3.44369 13.0949 3.68909 13.1961 3.9034 13.2846C3.92166 13.2921 3.9397 13.2996 3.95729 13.307C4.07688 13.363 4.19966 13.4119 4.32497 13.4535C4.62618 13.5433 4.9269 13.6357 5.22777 13.7283C5.95697 13.9525 6.68708 14.177 7.42726 14.3641C8.47431 14.6282 9.53298 14.8555 10.6128 15.0874C10.8483 15.138 11.0848 15.1888 11.3223 15.2402C11.2689 15.4098 11.2046 15.5758 11.1299 15.7371C10.0556 17.7938 9.27139 19.9683 8.4872 22.1428C8.42189 22.283 8.37738 22.432 8.35507 22.5851C8.34786 22.6564 8.35481 22.7283 8.37552 22.7968C8.39622 22.8654 8.43027 22.9291 8.47571 22.9844C8.54018 23.0157 8.61089 23.0319 8.68253 23.0319C8.75418 23.0319 8.82489 23.0157 8.88935 22.9844C9.08442 22.8829 9.26348 22.7532 9.42076 22.5995C10.6023 21.4735 11.78 20.3465 12.9539 19.2186C13.0601 19.1161 13.1639 19.0113 13.2891 18.8848Z" fill="white"/>
<circle cx="15.5" cy="14" r="3.75" fill="#FFF500" stroke="white" stroke-width="0.5"/>
</g>
<defs>
<clipPath id="clip0_158_403">
<rect width="29.55" height="28" fill="white" transform="translate(0.226562)"/>
</clipPath>
</defs>
</svg>
