<svg width="30" height="30" viewBox="0 0 30 30" fill="none" xmlns="http://www.w3.org/2000/svg">
<path d="M3.27015 24.5201C2.65995 25.1303 2.65995 26.1197 3.27015 26.7299C3.88034 27.3401 4.86966 27.3401 5.47985 26.7299L3.27015 24.5201ZM26.7299 5.47985C27.3401 4.86966 27.3401 3.88034 26.7299 3.27015C26.1197 2.65995 25.1303 2.65995 24.5201 3.27015L26.7299 5.47985ZM5.47985 26.7299L14.8549 17.3549L12.6451 15.1451L3.27015 24.5201L5.47985 26.7299ZM17.3549 14.8549L26.7299 5.47985L24.5201 3.27015L15.1451 12.6451L17.3549 14.8549Z" fill="#000000"/>
<path d="M7.75541 2.8125H5.33977C3.9932 2.8125 3.31992 2.8125 3.03842 3.16692C2.95063 3.27745 2.88893 3.40638 2.85792 3.54409C2.75851 3.98565 3.18088 4.50997 4.02563 5.55862L20.9423 26.5586C21.1632 26.8328 21.2736 26.9699 21.4191 27.0562C21.4671 27.0847 21.5175 27.1089 21.5698 27.1284C21.7284 27.1875 21.9044 27.1875 22.2564 27.1875H24.6631C26.0093 27.1875 26.6824 27.1875 26.9639 26.8332C27.0517 26.7226 27.1134 26.5937 27.1444 26.4561C27.2439 26.0146 26.8218 25.4903 25.9775 24.4417L9.06984 3.44172C8.84898 3.16741 8.73855 3.03025 8.59304 2.94386C8.54501 2.91535 8.49454 2.89119 8.44222 2.87167C8.28367 2.8125 8.10759 2.8125 7.75541 2.8125Z" fill="#000000"/>
</svg>
