<svg width="117" height="101" viewBox="0 0 117 101" fill="none" xmlns="http://www.w3.org/2000/svg">
<g clip-path="url(#clip0_226_2)">
<path d="M34.6828 7.13937C34.5393 7.13937 34.8263 4.74721 35.9028 4.36447C36.9793 3.98172 39.0126 2.37899 39.7781 2.61821C41.3687 2.78053 42.9717 2.78053 44.5624 2.61821C43.5006 3.50584 42.595 4.56506 41.8832 5.75192C40.4001 8.14407 40.0173 9.077 37.6012 10.0099C36.5965 10.3927 35.2091 8.90954 35.2091 8.90954C35.2091 8.90954 37.0271 7.25898 37.984 6.20643C38.9408 5.15389 40.2087 4.98642 40.7589 4.50799C39.3205 4.89605 37.9377 5.46686 36.6444 6.20643C36.0782 6.67554 35.404 6.99617 34.6828 7.13937Z" fill="white"/>
<path d="M38.1008 95.649C38.1008 95.649 38.1008 95.8882 38.1008 96.247C38.0291 96.7026 37.917 97.1509 37.7659 97.5866C37.5848 98.0912 37.3178 98.5606 36.9765 98.974C36.7943 99.161 36.594 99.3292 36.3784 99.4764C36.1399 99.5978 35.8798 99.671 35.6129 99.6917C35.3077 99.7126 35.0041 99.7525 34.7039 99.8113L33.6274 100.003L32.4792 100.218H31.8812H31.2592H30.6612H30.0871H28.9628L28.0298 100.098C27.7724 100.043 27.5284 99.9376 27.3122 99.7874L26.9533 99.5721L26.4271 99.3089L25.8051 98.998L25.0875 98.6631C24.0828 98.1846 22.8867 97.5866 21.7385 96.9646L20.9251 96.5101L20.1118 96.0556L19.3702 95.625L18.7244 95.2423L17.7197 94.6682C17.5856 94.5724 17.4412 94.4921 17.2891 94.4289H17.6479C18.1179 94.4576 18.5892 94.4576 19.0593 94.4289L20.064 94.2615L20.6142 94.118C20.8239 94.0815 21.0316 94.0336 21.2361 93.9744L22.5279 93.52L23.9153 92.8741C24.8722 92.3717 25.6616 91.8933 26.3075 91.4866C26.9495 91.114 27.6124 90.7785 28.293 90.4819L28.7953 90.3144L29.2977 90.147H29.8239L30.398 90.0274C31.318 89.905 32.2449 89.841 33.1729 89.836C33.3948 89.8011 33.6208 89.8011 33.8427 89.836C34.067 89.92 34.2831 90.0241 34.4886 90.147C34.7104 90.2684 34.9189 90.4127 35.1106 90.5776L35.6847 91.0799L36.187 91.5823L36.5698 92.0129L36.9286 92.4435L36.3545 92.7784C36.0196 92.9697 35.5173 93.2568 34.9431 93.5439L34.0341 94.0223L33.1012 94.5007C32.4553 94.8117 31.8333 95.0988 31.3071 95.3858C30.7979 95.6247 30.2588 95.7937 29.7043 95.8882H28.8671H27.2882H26.5945C26.2134 95.8383 25.8274 95.8383 25.4463 95.8882H25.7573L26.5706 96.0556C27.2883 96.1752 28.2212 96.3188 29.202 96.3905H29.9196H30.6612C31.1154 96.4149 31.5705 96.4149 32.0247 96.3905H32.3357H32.6227H33.149H33.5796L33.8906 96.2709C34.2259 96.0798 34.5892 95.9426 34.9671 95.8642C35.346 95.7792 35.7293 95.7153 36.1153 95.6729H37.1917L38.1008 95.649Z" fill="white"/>
<path d="M23.575 86.8457C23.575 86.8457 23.575 87.061 23.3837 87.3481C23.1537 87.693 22.8892 88.0136 22.5943 88.3049C22.2516 88.6505 21.8455 88.9266 21.3982 89.1182C21.1729 89.1912 20.9402 89.2393 20.7045 89.2618C20.466 89.2605 20.2302 89.2117 20.0107 89.1182L19.1974 88.8312L18.2405 88.568L17.188 88.281L16.6617 88.1375L16.1355 87.97C15.7865 87.8686 15.4431 87.7489 15.1068 87.6112C14.7938 87.4992 14.4899 87.3633 14.1978 87.2045C13.7162 86.9947 13.2902 86.6752 12.9539 86.2716C12.5053 85.6732 12.0262 85.0984 11.5186 84.5493L9.29391 82.1571L7.30843 79.765C6.75823 79.143 6.39941 78.6885 6.35156 78.6646H6.63863C7.04464 78.8186 7.46013 78.9465 7.88254 79.0473C8.53396 79.2137 9.19807 79.3257 9.86802 79.3822H11.1359H11.8057H12.5233L13.8868 79.2387L15.059 79.0712H16.0876H17.0923C17.4108 79.0476 17.7307 79.0476 18.0492 79.0712C18.3998 79.0992 18.7454 79.1716 19.0778 79.2865L20.226 79.6453L20.848 79.8845L21.5178 80.1716C22.3148 80.6725 22.9147 81.4329 23.2162 82.3245C23.3837 82.7551 23.5272 83.1857 23.6229 83.4967C23.6921 83.6573 23.7404 83.8261 23.7664 83.999H22.4986H21.6852H19.7715H17.9774C17.4516 83.9997 16.9283 83.9273 16.4225 83.7837L15.7049 83.5445L15.37 83.401L15.0351 83.2575L14.3892 82.9465L13.8151 82.6594C13.5053 82.4858 13.1761 82.3493 12.8343 82.2528L13.0735 82.4202L13.7433 82.8508L14.6762 83.4488L15.8006 84.0947L16.0876 84.2383L16.3986 84.4057L16.9966 84.6928L18.1688 85.1951C18.4881 85.3278 18.8157 85.4397 19.1496 85.53C19.3879 85.5591 19.6289 85.5591 19.8672 85.53C20.0424 85.5181 20.2183 85.5181 20.3935 85.53H20.9198C21.2704 85.6164 21.6141 85.7283 21.9484 85.8649L22.8574 86.2238L23.575 86.8457Z" fill="white"/>
<path d="M12.6462 73.1865C12.6462 73.1865 12.1199 73.7606 11.3305 74.0477C10.9199 74.2119 10.4809 74.2932 10.0387 74.2869C9.83298 74.3231 9.62251 74.3231 9.41677 74.2869C9.20849 74.2107 9.02031 74.088 8.86657 73.9281C8.44171 73.5431 7.9944 73.1836 7.52697 72.8516C7.0007 72.4928 6.42658 72.0861 5.90031 71.6556C5.75488 71.5655 5.61866 71.4613 5.49363 71.3446L5.1109 71.0336C4.87098 70.8449 4.64696 70.6369 4.4411 70.4116C4.08292 70.0988 3.81803 69.6932 3.67561 69.2395C3.67561 69.072 3.50815 68.8089 3.38855 68.4979C3.26894 68.1869 3.10149 67.8042 2.91012 67.3975C2.5513 66.5602 2.09678 65.5795 1.6662 64.6226L0.565809 62.0391L0.183075 61.1779C0.135799 61.0545 0.0798433 60.9346 0.015625 60.8191L0.254836 61.0105C0.555979 61.2582 0.875897 61.4821 1.2117 61.6803L1.97719 62.1348L2.8862 62.5654C3.65993 62.9016 4.46001 63.1737 5.27835 63.3787L7.67049 63.8811C8.28826 64.0026 8.896 64.1705 9.48853 64.3834C10.0717 64.6123 10.6257 64.9094 11.1391 65.2685L11.5697 65.5795L12.0481 65.9622L13.0289 66.8473C13.1752 66.9997 13.3036 67.1682 13.4117 67.3497C13.5098 67.5412 13.5898 67.7414 13.6509 67.9477C13.769 68.3774 13.8412 68.8185 13.8661 69.2634C13.8661 69.5026 13.8661 69.694 13.8661 69.9093C13.8793 70.0765 13.8793 70.2444 13.8661 70.4116V70.7704V70.8901L13.3399 70.7226L12.0481 70.2442L11.2348 69.9571L10.3736 69.6222L8.81873 69.072C8.36039 68.9069 7.926 68.6817 7.52697 68.4022C7.1553 68.1242 6.80359 67.8204 6.47442 67.4932C6.13952 67.1822 5.85245 66.8713 5.58932 66.6081C5.36242 66.3777 5.11412 66.1695 4.84776 65.9861L5.44579 66.7516L6.09167 67.5411L6.88108 68.4501L7.76618 69.3352L8.60343 70.1485L9.36892 70.7465C9.54518 70.8759 9.73834 70.9806 9.94303 71.0575C10.566 71.3039 11.1348 71.6695 11.6175 72.134L12.2873 72.7798L12.6462 73.1865Z" fill="white"/>
<path d="M7.53678 56.9916C7.53678 56.9916 6.93874 57.3026 6.17326 57.2787C5.76791 57.3152 5.36023 57.2411 4.99372 57.0642C4.6272 56.8872 4.31558 56.6141 4.09208 56.274C3.66149 55.5085 2.82424 54.432 2.13052 53.3795C1.47092 52.5612 1.02681 51.5908 0.838757 50.5568C0.838757 50.2219 0.838758 49.552 0.671307 48.7148C0.671307 48.2842 0.671308 47.8297 0.503857 47.3513L0.360334 45.8921C0.348656 45.7728 0.348656 45.6526 0.360334 45.5332C0.348639 45.47 0.348639 45.4051 0.360334 45.3419C0.37203 45.2786 0.37203 45.2138 0.360334 45.1505V44.385C0.373835 44.146 0.373835 43.9064 0.360334 43.6674C0.373187 43.5561 0.373187 43.4437 0.360334 43.3325V43.0215C0.395078 42.5517 0.395078 42.0799 0.360334 41.6101L0.503857 41.9211L0.743069 42.3517L1.12582 42.9497L1.36503 43.3085C1.36503 43.3085 1.55641 43.5477 1.6521 43.6674L2.29797 44.4329L3.11129 45.2462L3.58973 45.6289L4.09208 45.9877L4.61836 46.3466L5.07287 46.6336L5.93403 47.2078C6.4446 47.5061 6.93234 47.8419 7.39324 48.2125C7.8395 48.6053 8.24066 49.0466 8.58931 49.5282L8.87638 49.9348L9.18735 50.3893C9.37872 50.7242 9.59402 51.083 9.80932 51.4897C9.89115 51.6663 9.95526 51.8506 10.0007 52.0399C10.0257 52.2384 10.0257 52.4394 10.0007 52.6379C9.98979 53.0481 9.94175 53.4564 9.85717 53.8579C9.85717 54.0732 9.85716 54.2407 9.71363 54.4081C9.5701 54.5756 9.71363 54.743 9.5701 54.8626C9.42657 54.9822 9.42658 55.2693 9.42658 55.2693L9.0199 54.9344L8.56541 54.5756L7.99128 54.1211L6.72344 53.0446C6.29285 52.6858 5.88618 52.3269 5.50344 52.0399C5.1508 51.7553 4.83713 51.4255 4.5705 51.0591C4.32099 50.7006 4.09717 50.3249 3.9007 49.9348L3.61366 49.3846L3.37443 48.8823C3.23303 48.6086 3.0732 48.3448 2.89601 48.0928V48.3321C2.89601 48.4756 3.03953 48.6909 3.13522 48.954L3.30267 49.3846C3.30267 49.5281 3.42228 49.6956 3.49404 49.8391L3.70933 50.3654C3.70933 50.5328 3.87679 50.7003 3.94856 50.8917C4.25248 51.5807 4.59593 52.2516 4.97718 52.9011C5.13086 53.165 5.29855 53.4205 5.47953 53.6666C5.59873 53.8392 5.73496 53.9995 5.88619 54.145C6.1439 54.3309 6.37004 54.5571 6.55599 54.8148C6.73724 55.0689 6.90493 55.3324 7.05834 55.6042L7.46502 56.3697C7.46502 56.3697 7.46502 56.6089 7.63247 56.7046L7.53678 56.9916Z" fill="white"/>
<path d="M7.25269 39.1226C7.25269 39.2422 6.65464 39.1226 6.03268 38.7638C5.69489 38.5726 5.39493 38.3213 5.1476 38.0222C4.88741 37.6957 4.74421 37.2914 4.74092 36.874C4.74092 36.6587 4.74092 36.3955 4.74092 36.1324C4.74092 35.8693 4.74092 35.5583 4.74092 35.2473C4.74092 34.9363 4.59741 33.9794 4.54956 33.3096C4.38369 32.267 4.474 31.1998 4.8127 30.1999C4.98015 29.9128 5.21936 29.2908 5.53033 28.5253C5.84131 27.7599 6.22407 26.8748 6.60681 26.1332C7.34838 24.4348 8.11386 22.9277 8.11386 22.8081V23.0952C8.0951 23.4617 8.0951 23.829 8.11386 24.1956C8.11386 24.4348 8.11386 24.6979 8.11386 24.985C8.11386 25.272 8.11386 25.583 8.28131 25.9179C8.44465 26.6528 8.66868 27.373 8.95111 28.0709L9.40562 29.1234C9.54915 29.4344 9.69268 29.7214 9.81228 30.0085L10.1711 30.8218L10.4582 31.5873C10.4445 31.7145 10.4445 31.8428 10.4582 31.97C10.4582 32.1136 10.4582 32.2571 10.4582 32.3767C10.5311 32.6671 10.5791 32.9632 10.6017 33.2618C10.6134 33.4211 10.6134 33.581 10.6017 33.7402C10.6017 33.9077 10.6017 34.0751 10.6017 34.2665C10.6017 34.4579 10.6017 35.032 10.6017 35.4626C10.5255 36.2088 10.2157 36.912 9.7166 37.472C9.53185 37.7299 9.32364 37.9701 9.09463 38.1896L8.90327 38.4049V38.2853L8.73582 37.9265L8.25738 36.7543L7.97034 36.0128L7.68327 35.2473C7.46798 34.721 7.30052 34.1947 7.13307 33.7642C6.85328 32.9252 6.74747 32.038 6.8221 31.1567C6.8221 30.3195 6.8221 29.5779 6.8221 29.0756V29.3148C6.8221 29.4822 6.8221 29.6975 6.8221 29.9606C6.8221 30.2238 6.8221 30.5587 6.8221 30.9175V31.4438C6.8221 31.6351 6.8221 31.8265 6.8221 32.0179C6.7708 32.8145 6.7708 33.6135 6.8221 34.41C6.83342 34.5693 6.83342 34.7292 6.8221 34.8885C6.83386 35.0318 6.83386 35.1758 6.8221 35.3191C6.85601 35.5215 6.90397 35.7213 6.96562 35.9171C7.0815 36.2094 7.16183 36.5146 7.20485 36.8261C7.22839 37.1366 7.22839 37.4485 7.20485 37.759C7.20485 38.07 7.20485 38.3571 7.20485 38.6202C7.20485 38.8833 7.25269 38.9551 7.25269 39.1226Z" fill="white"/>
<path d="M14.1108 22.2101C14.1108 22.2101 13.6563 21.8992 13.3453 21.3011C13.1701 20.9824 13.0564 20.6334 13.0104 20.2725C12.9861 20.0899 12.9861 19.9049 13.0104 19.7223C13.0335 19.5457 13.0903 19.3751 13.1779 19.2199C13.3214 18.8611 13.4889 18.4306 13.6563 17.9282C13.8238 17.4258 13.8477 17.4258 13.9195 17.1627L14.2065 16.3733C14.4274 15.537 14.8458 14.7658 15.4265 14.1247C15.8084 13.8506 16.1611 13.5379 16.4791 13.1918L17.2206 12.4741L18.01 11.6847L18.7516 10.967L19.3975 10.3211C19.6339 10.1105 19.8501 9.87825 20.0434 9.62744C20.0434 9.62744 20.0434 9.96233 19.7324 10.7757C19.48 11.922 19.3675 13.0948 19.3975 14.2682C19.3975 14.651 19.3975 14.9858 19.3975 15.2968C19.3975 15.6078 19.3975 15.9188 19.3975 16.2059C19.4334 16.7155 19.4334 17.2271 19.3975 17.7368C19.2754 18.8987 18.9345 20.0269 18.3928 21.0619C18.2534 21.3589 18.039 21.6145 17.7708 21.8035C17.5021 21.9874 17.2131 22.1399 16.9096 22.258C16.6624 22.3672 16.4063 22.4552 16.1442 22.5211H15.8332C15.8332 22.5211 15.8332 22.3537 15.8332 22.0666C15.8332 21.7795 15.8332 21.3729 15.8332 20.9184C15.8332 19.9854 16.0245 18.8851 16.0963 18.0478C16.1658 17.2867 16.3853 16.5468 16.7422 15.871L16.9575 15.4164L17.1489 15.0098C17.2694 14.7813 17.3657 14.5407 17.4359 14.2921V14.4596C17.4359 14.4596 17.2685 14.7227 17.1728 14.9141L16.9814 15.2251L16.7661 15.5839L16.5508 15.9906C16.4579 16.1179 16.3778 16.2541 16.3116 16.3972C16.2411 16.5457 16.1612 16.6895 16.0724 16.8278C16.0103 16.976 15.9384 17.1198 15.8571 17.2584C15.7136 17.5455 15.594 17.8325 15.4744 18.0956C15.3625 18.3336 15.2743 18.582 15.2112 18.8372C15.1531 19.0097 15.1052 19.1854 15.0677 19.3635C15.0452 19.6385 14.9971 19.9108 14.9242 20.1768C14.835 20.4377 14.7312 20.6932 14.6132 20.9423C14.4697 21.4925 14.2304 21.8513 14.1108 22.2101Z" fill="white"/>
<path d="M25.7543 9.60337C25.7543 9.60337 25.4912 9.19669 25.3955 8.57473C25.3473 8.24958 25.3473 7.9191 25.3955 7.59394C25.4539 7.28816 25.5852 7.00099 25.7782 6.75671C26.2088 6.27828 26.7351 5.44103 27.2853 4.69946C27.8354 3.9579 28.3378 3.28809 28.7445 3.16849C29.6234 2.76394 30.478 2.30865 31.3041 1.80495C32.3566 1.18299 33.3135 0.608874 33.3613 0.537109C33.1697 0.822067 33.0093 1.12684 32.8829 1.44614C32.4636 2.39751 32.1507 3.39232 31.95 4.41242C31.6629 5.70418 31.5433 6.61317 31.2562 7.45042C30.893 8.41208 30.3398 9.29073 29.6296 10.0339C29.438 10.2501 29.1892 10.4077 28.9119 10.4885C28.6386 10.5616 28.3575 10.6018 28.0747 10.6081C27.7488 10.6448 27.4198 10.6448 27.0939 10.6081L27.6441 9.29238C27.9551 8.5269 28.3139 7.61788 28.5531 6.90023C28.7927 6.28486 29.1411 5.71765 29.5817 5.22574C29.9172 4.86129 30.2213 4.46917 30.4907 4.05357L30.0362 4.48418C29.7731 4.74731 29.3904 5.10612 29.0315 5.51278C28.3697 6.14943 27.7982 6.87384 27.3331 7.66574C26.9385 8.4086 26.4021 9.06689 25.7543 9.60337Z" fill="white"/>
<path d="M35.4673 87.8747C35.3172 87.8492 35.172 87.8008 35.0367 87.7311H34.7496L34.4147 87.5637L34.0559 87.3723L33.6732 87.157L33.2904 86.9178L32.9077 86.6547L32.5249 86.3915L32.1661 86.1284L31.8551 85.8652L31.5442 85.626L31.1136 85.2433C31.1136 85.2433 30.9461 85.0519 30.9461 85.0041C30.9242 84.7813 30.9242 84.557 30.9461 84.3343C30.9461 83.9994 30.9461 83.5688 30.9461 83.1382C30.9461 82.7076 30.9461 82.2531 30.9461 81.8704C30.9461 81.4876 30.9461 81.1288 30.9461 80.8896C30.9461 80.6503 30.9461 80.3633 30.9461 80.0045C30.9617 79.6105 31.0097 79.2185 31.0896 78.8324L31.2332 78.2343C31.2984 78.0295 31.3783 77.8296 31.4724 77.6363C31.6501 77.2622 31.9025 76.9285 32.214 76.6555C32.5213 76.3848 32.7873 76.0705 33.0034 75.7226C33.2035 75.4134 33.3718 75.0848 33.5057 74.7418C33.6581 74.4004 33.786 74.0487 33.8885 73.6892V73.9284C33.8885 74.1198 33.8885 74.3351 34.1038 74.6221C34.319 74.9092 34.5583 75.9857 34.8932 76.7751C35.2281 77.5645 35.5869 78.4257 35.9218 79.1673C35.9995 79.3398 36.0873 79.5075 36.1849 79.6696C36.247 79.8178 36.3189 79.9616 36.4002 80.1002L36.7351 80.746C36.8786 80.9725 36.9989 81.213 37.0939 81.4637C37.1828 81.6523 37.2394 81.8544 37.2614 82.0617C37.2816 82.3085 37.2816 82.5565 37.2614 82.8033C37.2614 83.0903 37.1896 83.4731 37.0461 83.9515C37.0461 84.4539 36.8547 84.9323 36.783 85.4108C36.7112 85.8892 36.5916 86.3198 36.5198 86.7025C36.3524 87.4441 36.2567 87.9703 36.2567 87.9703L35.9935 87.5158C35.8261 87.2288 35.6347 86.846 35.4194 86.3915L35.0606 85.6978L34.8932 85.339C34.8275 85.2242 34.7715 85.1042 34.7257 84.9802C34.4865 84.5017 34.2951 84.0233 34.1038 83.6406L33.8885 83.0186C33.8776 82.8993 33.8776 82.7791 33.8885 82.6598V82.3249C33.8885 82.0857 33.8885 81.8464 33.8885 81.6072C33.9012 81.3602 33.9012 81.1127 33.8885 80.8657C33.8885 80.4111 33.8885 79.9567 33.8885 79.5739V78.5692C33.873 78.8162 33.873 79.0638 33.8885 79.3108C33.8885 79.55 33.8885 79.8131 33.8885 80.1002C33.8885 80.4112 33.8885 80.746 33.8885 81.0809C33.8885 81.4158 33.8885 81.7747 33.8885 82.1574V83.21C33.94 83.8162 34.0769 84.4122 34.2951 84.9802L34.8453 86.2001C34.8412 86.2878 34.8412 86.3756 34.8453 86.4633C34.8543 86.5508 34.8543 86.6389 34.8453 86.7264L35.0845 87.1809L35.3955 87.8029L35.4673 87.8747Z" fill="white"/>
<path d="M25.5483 78.9275L25.4047 78.8079C25.4047 78.8079 25.4047 78.8079 25.2134 78.6644L24.7588 78.2099L24.2326 77.5879C24.0361 77.3673 23.8525 77.1357 23.6824 76.8942C23.1593 76.271 22.7246 75.5788 22.3906 74.8369C22.4125 74.6322 22.4608 74.4312 22.5341 74.2389C22.5341 73.9518 22.7255 73.5691 22.8451 73.1864C22.9647 72.8036 23.1083 72.4209 23.2279 72.0621C23.3475 71.7032 23.2279 71.7271 23.3953 71.5836C23.4556 71.4693 23.5037 71.3491 23.5388 71.2248C23.5388 71.0334 23.6824 70.7464 23.7781 70.4354C23.8818 70.0841 24.0097 69.7404 24.1608 69.4068C24.3221 69.0528 24.5314 68.7228 24.7828 68.426C25.0144 68.1394 25.3091 67.9101 25.6439 67.7562C26.2768 67.4312 26.8192 66.9545 27.2228 66.3687C27.4329 66.0912 27.6171 65.7949 27.773 65.4836C27.7834 65.579 27.7834 65.6753 27.773 65.7707C27.773 65.7707 27.773 65.9621 27.773 66.0817C27.773 66.2013 27.773 66.3209 27.773 66.4883C27.7623 66.6476 27.7623 66.8075 27.773 66.9668C27.773 67.1581 27.773 67.3256 27.773 67.5409V68.1389C27.788 68.354 27.788 68.5698 27.773 68.7848C27.773 69.622 28.06 70.5311 28.2035 71.1769C28.2035 71.3683 28.2035 71.5597 28.2035 71.7272C28.2126 71.8865 28.2126 72.0462 28.2035 72.2056C28.2035 72.4926 28.2035 72.7318 28.371 72.8993C28.5384 73.0667 28.371 73.4495 28.4906 73.6648C28.5265 73.8625 28.5265 74.0651 28.4906 74.2628C28.3139 74.827 28.0647 75.3657 27.749 75.8656L27.1032 77.0377L26.5051 78.0663L25.9071 79.0949C25.9122 79.0472 25.9122 78.9991 25.9071 78.9514C25.9071 78.9514 25.9071 78.7601 25.9071 78.5926C25.9071 78.4252 25.7635 77.8989 25.6918 77.4204C25.62 76.942 25.5483 76.4397 25.4765 75.9373C25.4047 75.435 25.333 74.9565 25.2851 74.5499C25.2724 74.3348 25.2724 74.1191 25.2851 73.904C25.2851 73.6887 25.2851 73.4734 25.2851 73.2342C25.2851 72.995 25.2851 73.0189 25.2851 72.8993C25.2736 72.7879 25.2736 72.6757 25.2851 72.5644C25.2717 72.3413 25.2717 72.1176 25.2851 71.8946C25.2851 71.464 25.4765 71.0334 25.5722 70.6985L25.7875 69.7895C25.7875 69.7895 25.7875 70.0287 25.5243 70.4115V70.7464L25.3808 71.1291C25.3808 71.3923 25.1894 71.6793 25.0937 71.9903C24.9057 72.619 24.754 73.2579 24.6392 73.904V74.3824C24.628 74.5337 24.628 74.6856 24.6392 74.8369C24.6152 75.0915 24.6152 75.3478 24.6392 75.6024C24.6392 76.5114 24.8545 77.3248 24.9502 77.9946C25.0459 78.6644 24.9502 78.4969 24.9502 78.6644C24.9502 78.8318 25.5483 78.9275 25.5483 78.9275Z" fill="white"/>
<path d="M17.7501 67.9242C17.2642 67.2244 16.8628 66.4696 16.5541 65.6756C16.3454 65.2154 16.1617 64.7442 16.0039 64.2642C15.907 64.0267 15.8426 63.7773 15.8125 63.5226C16.033 63.0541 16.2806 62.5989 16.5541 62.1591C16.9368 61.5132 17.3435 60.8673 17.5588 60.5324C17.6604 60.3 17.7804 60.076 17.9176 59.8626C18.0724 59.5711 18.2483 59.2913 18.4439 59.0254C18.8193 58.4439 19.4002 58.0254 20.0705 57.8532C20.6902 57.7117 21.2603 57.406 21.7211 56.9681C21.9704 56.7635 22.1951 56.5307 22.3909 56.2744C22.3812 56.3619 22.3812 56.4501 22.3909 56.5376C22.3909 56.705 22.3909 56.9203 22.3909 57.2074C22.3909 57.4944 22.3909 57.4944 22.3909 57.6619C22.3791 57.8451 22.3791 58.0288 22.3909 58.212C22.3909 58.5709 22.3909 58.9775 22.3909 59.3842C22.3909 60.2215 22.3909 61.0826 22.3909 61.7764C22.3909 62.1591 22.3909 62.494 22.3909 62.7811V63.4509C22.4049 63.7058 22.4049 63.9614 22.3909 64.2164C22.3688 64.3978 22.3204 64.575 22.2474 64.7426C21.987 65.2056 21.6561 65.6253 21.2666 65.9865L19.6878 67.6371L19.1376 68.1873L18.9223 68.3787V68.2591C18.9371 68.1479 18.9371 68.0353 18.9223 67.9242C18.9223 67.661 18.9223 67.2544 18.9223 66.8238C18.9223 65.9626 19.0897 64.8861 19.1615 64.1446C19.2089 63.7401 19.2889 63.3401 19.4007 62.9485L19.616 62.3505L19.8552 61.7764L20.3337 60.7477C20.5011 60.4367 20.6207 60.1736 20.7164 59.9823L20.3576 60.4846C20.2273 60.6691 20.1075 60.8608 19.9988 61.0587C19.8552 61.274 19.7117 61.5371 19.5682 61.7764L19.3529 62.183C19.2749 62.3114 19.2108 62.4478 19.1615 62.5897C19.0196 62.862 18.8918 63.1415 18.7788 63.427C18.6621 63.682 18.5661 63.946 18.4917 64.2164C18.428 64.444 18.38 64.6758 18.3482 64.9101C18.3482 65.3407 18.3482 65.7473 18.2046 66.1061C18.0611 66.465 18.2046 66.7759 18.2046 67.0391C18.2046 67.3022 18.2046 67.2783 18.2046 67.3979V67.661C18.0387 67.721 17.8848 67.8101 17.7501 67.9242Z" fill="white"/>
<path d="M14.0219 54.1452C13.9602 54.0485 13.9119 53.9438 13.8783 53.8342C13.8783 53.6906 13.8783 53.4993 13.7109 53.3079V52.973C13.7109 52.973 13.7109 52.7577 13.7109 52.6381L13.5673 51.8965C13.4115 51.2218 13.3313 50.5318 13.3281 49.8393L13.6391 49.4565L14.2371 48.8107C14.4286 48.5807 14.6365 48.3648 14.8591 48.1648L15.3614 47.6385L15.816 47.1362C16.0043 46.9033 16.2124 46.6872 16.4379 46.4903L16.7967 46.2271L17.2034 45.9879C17.4812 45.8633 17.7844 45.806 18.0885 45.8205C18.3886 45.8429 18.6902 45.8022 18.9736 45.7009H19.3563H19.5477C19.7964 45.5918 20.0363 45.4639 20.2654 45.3181C20.2512 45.373 20.2512 45.4307 20.2654 45.4856C20.2564 45.5571 20.2564 45.6294 20.2654 45.7009V45.8922C20.2726 46.0197 20.2726 46.1475 20.2654 46.275L20.1218 46.7295C20.0261 47.0325 19.9305 47.3674 19.8348 47.7342C19.6195 48.4519 19.4281 49.2173 19.2846 49.8632C19.141 50.5091 19.1411 50.4852 19.0693 50.7483C18.9975 51.0114 19.0693 51.2028 19.0693 51.3463L18.9018 51.9922C18.8567 52.1596 18.775 52.3148 18.6626 52.4467C18.3509 52.8044 17.9784 53.1041 17.5622 53.3318C16.9642 53.7624 16.3422 54.1452 15.8638 54.4561L15.0505 54.9346L15.1701 54.5518C15.1701 54.4322 15.1701 54.2887 15.1701 54.1212C15.1701 53.9538 15.1701 53.7863 15.3375 53.595C15.505 53.4036 15.3375 53.2122 15.505 52.9969C15.5796 52.8012 15.6435 52.6016 15.6963 52.3989C15.8399 51.9922 15.9595 51.5855 16.0552 51.2506C16.1713 50.9084 16.3237 50.5797 16.5097 50.2699C16.6895 49.9468 16.8892 49.6352 17.1077 49.3369L17.7297 48.5236L18.2081 47.9255L17.8015 48.3083C17.4677 48.6128 17.1559 48.9405 16.8685 49.2891L16.3422 49.8871L15.8638 50.5569C15.7203 50.7722 15.5767 50.9875 15.4571 51.2028C15.3587 51.3891 15.2709 51.5808 15.194 51.7769C14.9548 52.5185 14.7395 53.1404 14.596 53.6189C14.4524 54.0973 14.596 54.0255 14.4285 54.1452H14.0219Z" fill="white"/>
<path d="M13.7831 40.0076C13.7423 39.746 13.7423 39.4797 13.7831 39.2182C13.7831 38.8593 13.7831 38.4048 13.7831 37.9982C13.7831 37.5915 13.7831 37.5676 13.7831 37.3523C13.7924 37.2648 13.7924 37.1766 13.7831 37.0892V36.826C13.7729 36.6986 13.7729 36.5707 13.7831 36.4433C13.7669 36.3805 13.7669 36.3147 13.7831 36.2519C14.127 36.0475 14.487 35.8715 14.8596 35.7256L15.2662 35.5821C15.3767 35.5139 15.4981 35.4653 15.6251 35.4386L16.2231 35.1994C16.6283 35.0162 17.0436 34.8565 17.467 34.7209H17.8498H18.2564C18.523 34.7246 18.785 34.7902 19.0219 34.9123C19.4701 35.1511 19.9737 35.2666 20.4811 35.2472H21.0074H21.1988L21.0792 35.3668L20.7203 35.7256L19.6917 36.8978C19.309 37.3523 18.9262 37.8546 18.6153 38.2852L18.376 38.5962C18.3183 38.6882 18.2544 38.7761 18.1847 38.8594L17.9215 39.266L17.5866 39.6966C17.5007 39.8033 17.3951 39.8926 17.2757 39.9598L16.8451 40.1272L16.1274 40.2947L15.1945 40.486L14.3812 40.6296L13.5678 40.797L13.7113 40.5817L13.9506 40.2707L14.2137 39.9119L14.8596 39.0746L15.4816 38.3092C15.8905 37.8434 16.3861 37.4616 16.9408 37.1849L17.6823 36.8021L18.2564 36.5151L17.8019 36.6586C17.435 36.7622 17.0754 36.8901 16.7255 37.0413C16.3427 37.2327 15.9121 37.448 15.5294 37.6872L15.2423 37.8786C15.1526 37.9287 15.0718 37.9934 15.0031 38.0699C14.8573 38.1774 14.7212 38.2974 14.5964 38.4287L14.0463 39.1225L13.807 39.4335L13.5918 39.6966L13.3047 40.0793L13.7831 40.0076Z" fill="white"/>
<path d="M18.8203 27.2572C19.0157 26.6852 19.264 26.1326 19.5619 25.6066L19.8489 25.1282L20.1121 24.7215C20.199 24.5604 20.3122 24.4149 20.447 24.2909C20.7935 24.2156 21.1454 24.1676 21.4995 24.1474H22.8152H23.3415C23.564 24.1225 23.7887 24.1225 24.0113 24.1474C24.2491 24.1113 24.4911 24.1113 24.7289 24.1474C24.9687 24.2125 25.1847 24.3454 25.3509 24.5301C25.6926 24.8274 26.1041 25.0331 26.5469 25.1282C26.7615 25.1533 26.9783 25.1533 27.1928 25.1282L26.6187 25.487L25.3269 26.3482L23.9156 27.329L23.3654 27.7596L22.9826 28.0227C22.7665 28.2266 22.5037 28.3745 22.2172 28.4533C21.8528 28.5131 21.4811 28.5131 21.1168 28.4533L19.5619 28.1423L18.8681 27.9748L19.1313 27.8074L19.7532 27.4247L21.3321 26.4678L21.6909 26.2764L22.0975 26.1329C22.3696 26.036 22.6498 25.9639 22.9348 25.9176L23.7003 25.7741L24.2744 25.6545H23.8438H22.8152C22.0382 25.6977 21.2758 25.8843 20.5666 26.2047L19.8728 26.6113L19.3227 26.9223L18.8203 27.2572Z" fill="white"/>
<path d="M28.2754 16.8035C28.5223 16.336 28.8277 15.9019 29.1844 15.5117L29.7824 14.7941C29.9738 14.6266 30.0934 14.4831 30.1412 14.4831C30.4519 14.4619 30.7636 14.4619 31.0742 14.4831H32.2463C32.6048 14.461 32.9643 14.461 33.3228 14.4831C33.5381 14.4919 33.7492 14.5453 33.9428 14.64C34.1363 14.7347 34.3081 14.8686 34.4471 15.0333C34.7057 15.3326 35.0469 15.549 35.4279 15.6552C35.6211 15.7257 35.8218 15.7738 36.0259 15.7988L34.1601 16.7078L31.7679 17.9517C31.0503 18.3105 31.0024 18.3105 30.0695 17.9517L28.7538 17.4493L28.1797 17.1862L29.0409 16.8513L30.5958 16.2772C31.0713 16.098 31.5715 15.9931 32.0789 15.9662C32.5812 15.9662 33.0357 15.9662 33.2989 15.9662H32.9162H31.9832C31.6173 15.9304 31.2487 15.9304 30.8828 15.9662C30.5677 15.9813 30.255 16.0295 29.9499 16.1097L28.2754 16.8035Z" fill="white"/>
<path d="M40.564 4.53194C32.6918 8.99919 25.7098 14.8783 19.9675 21.875C15.9253 26.9301 13.1001 32.8473 11.7105 39.1689C10.3209 45.4905 10.4042 52.0471 11.9539 58.3314C13.3528 64.4459 15.9107 70.2357 19.4891 75.3874C23.4757 81.1199 28.6893 85.8922 34.751 89.3575C41.7119 93.4899 48.8997 97.2276 56.2804 100.553C56.6138 98.6948 56.4571 96.782 55.8259 95.003C49.6541 95.7924 36.6887 90.2187 30.2059 85.4344C24.8307 81.3452 20.4071 76.138 17.2405 70.1725C14.3761 64.8375 12.542 59.0107 11.8342 52.9969C11.1161 46.995 11.737 40.9086 13.6523 35.1754C16.2033 27.9677 20.4826 21.4954 26.1154 16.3253C30.632 12.1003 35.6067 8.39342 40.9467 5.27354C41.4012 5.0104 40.9467 4.2688 40.564 4.53194Z" fill="white"/>
<path d="M82.317 7.13937C82.4606 7.13937 82.1735 4.74721 81.0971 4.36447C80.0206 3.98172 77.9873 2.37899 77.2218 2.61821C75.6312 2.78053 74.0281 2.78053 72.4375 2.61821C73.4993 3.50584 74.4049 4.56506 75.1167 5.75192C76.5998 8.14407 76.9826 9.077 79.3986 10.0099C80.4033 10.3927 81.7908 8.90954 81.7908 8.90954C81.7908 8.90954 79.9728 7.25898 79.0159 6.20643C78.0591 5.15389 76.7912 4.98642 76.241 4.50799C77.6794 4.89605 79.0622 5.46686 80.3555 6.20643C80.9217 6.67554 81.5958 6.99617 82.317 7.13937Z" fill="white"/>
<path d="M78.8828 95.6488C78.8828 95.6488 78.8828 95.888 78.8828 96.2468C78.9525 96.7052 79.0728 97.1545 79.2416 97.5864C79.405 98.0939 79.665 98.565 80.0071 98.9739C80.1893 99.1608 80.3896 99.329 80.6052 99.4762C80.8437 99.5976 81.1038 99.6708 81.3706 99.6915C81.6758 99.7124 81.9794 99.7523 82.2797 99.8111L83.3561 100.002L84.5043 100.218H85.1263H85.7244H86.3224H86.9204H88.0208L88.9537 100.098C89.2112 100.043 89.4552 99.9374 89.6714 99.7872L90.0302 99.5719L90.5565 99.3088L91.1785 98.9978L91.8961 98.6629C92.9008 98.1844 94.0969 97.5864 95.2451 96.9644L96.0824 96.5099L96.8717 96.0554L97.6133 95.6248L98.2592 95.2421L99.2639 94.668L99.6945 94.4287H99.3357C98.8737 94.4578 98.4103 94.4578 97.9482 94.4287L96.9435 94.2613L96.3694 94.1178L95.7714 93.9742C95.3408 93.8546 94.9102 93.6872 94.4557 93.5198L93.0682 92.8739C92.1114 92.3715 91.3459 91.8931 90.6761 91.4864C90.0341 91.1138 89.3711 90.7783 88.6906 90.4817L88.2122 90.3143L87.6859 90.1468H87.1596L86.5855 90.0272C85.6735 89.9056 84.7546 89.8417 83.8345 89.8358C83.6045 89.8021 83.3708 89.8021 83.1408 89.8358C82.9166 89.9198 82.7004 90.0239 82.4949 90.1468C82.2731 90.2682 82.0647 90.4125 81.873 90.5774L81.2989 91.0798L80.7965 91.5821L80.4138 92.0127L80.0549 92.4433L80.6291 92.7782L82.0404 93.5437L82.9495 94.0221L83.9063 94.5005L85.6765 95.3856C86.194 95.6247 86.741 95.7936 87.3032 95.888H88.1165H89.6953H90.389C90.7783 95.8399 91.172 95.8399 91.5612 95.888H91.2263L90.413 96.0554C89.7192 96.175 88.7863 96.3186 87.8055 96.3903H87.064H86.3224C85.8682 96.4147 85.413 96.4147 84.9589 96.3903H84.6479H84.3608H83.8345H83.404L83.093 96.2707C82.6908 96.1036 82.2606 96.0144 81.8251 96.0076C81.4466 95.9205 81.0632 95.8566 80.6769 95.8162H79.6244L78.8828 95.6488Z" fill="white"/>
<path d="M93.4101 86.8457C93.4101 86.8457 93.4101 87.061 93.6015 87.3481C93.8314 87.693 94.0959 88.0136 94.3909 88.3049C94.7423 88.6398 95.1464 88.9145 95.587 89.1182C95.8129 89.1888 96.0453 89.2369 96.2807 89.2618C96.5194 89.2625 96.7556 89.2136 96.9744 89.1182L97.7878 88.8312L98.7446 88.568L99.7972 88.281L100.323 88.1375L100.85 87.97C101.199 87.8686 101.542 87.7489 101.878 87.6112C102.197 87.4946 102.509 87.3588 102.811 87.2045C103.287 86.9954 103.705 86.6755 104.031 86.2716C104.48 85.6732 104.959 85.0984 105.467 84.5493L107.691 82.1571L109.677 79.765C110.227 79.143 110.586 78.6885 110.634 78.6646H110.347C109.949 78.8192 109.541 78.9471 109.127 79.0473C108.467 79.2135 107.795 79.3255 107.117 79.3822H105.873H105.179H104.462L103.098 79.2387L101.926 79.0712H100.898H99.9168C99.5903 79.0477 99.2625 79.0477 98.936 79.0712C98.5854 79.0992 98.2398 79.1716 97.9074 79.2865L96.7831 79.6453L96.1372 79.8845L95.4674 80.1716C94.6711 80.6675 94.0775 81.4307 93.7929 82.3245C93.6265 82.7065 93.4827 83.0979 93.3623 83.4967C93.3623 83.7838 93.2188 83.999 93.2188 83.999H94.4866H95.2999H97.2136H99.0077C99.5335 83.9997 100.057 83.9273 100.563 83.7837L101.28 83.5445L101.615 83.401L101.95 83.2575L102.596 82.9465L103.17 82.6594C103.474 82.4905 103.795 82.3542 104.127 82.2528L103.912 82.4202L103.266 82.8508L102.309 83.4488L101.185 84.0947L100.898 84.2383L100.587 84.4057L99.9885 84.6928L98.8403 85.1951L97.8356 85.53C97.5973 85.5591 97.3563 85.5591 97.118 85.53C96.9427 85.518 96.7669 85.518 96.5917 85.53H96.0654C95.7148 85.6164 95.371 85.7283 95.0368 85.8649L94.1278 86.2238L93.4101 86.8457Z" fill="white"/>
<path d="M104.339 73.1865C104.339 73.1865 104.866 73.7606 105.655 74.0477C106.066 74.2096 106.505 74.2908 106.947 74.2869C107.153 74.3231 107.363 74.3231 107.569 74.2869C107.779 74.1994 107.972 74.0782 108.143 73.9281C108.559 73.5428 108.999 73.1833 109.459 72.8516C109.985 72.4928 110.559 72.0861 111.109 71.6556L111.492 71.3446L111.875 71.0336C112.115 70.8449 112.339 70.6369 112.545 70.4116C112.9 70.0921 113.172 69.6894 113.334 69.2395C113.334 69.072 113.477 68.8089 113.597 68.4979C113.717 68.1869 113.908 67.8042 114.076 67.3975L115.319 64.6226L116.42 62.0391L116.803 61.1779C116.85 61.0545 116.906 60.9346 116.97 60.8191L116.731 61.0105C116.43 61.2582 116.11 61.4821 115.774 61.6803L115.032 62.1348L114.099 62.5654C113.326 62.9016 112.526 63.1737 111.707 63.3787L109.315 63.8811C108.697 64.0026 108.09 64.1705 107.497 64.3834C106.916 64.6174 106.363 64.9142 105.847 65.2685L105.416 65.5795L104.961 65.9622C104.65 66.2014 104.316 66.5124 103.957 66.8473C103.811 66.9942 103.69 67.1639 103.598 67.3497C103.492 67.5403 103.403 67.7405 103.335 67.9477C103.217 68.3774 103.144 68.8185 103.119 69.2634C103.108 69.4785 103.108 69.6941 103.119 69.9093C103.096 70.0759 103.096 70.245 103.119 70.4116V70.7704V70.8901L103.646 70.7226L104.938 70.2442L105.751 69.9571L106.612 69.6222L108.191 69.072C108.639 68.9019 109.065 68.677 109.459 68.4022C109.833 68.1182 110.192 67.8148 110.535 67.4932L111.396 66.6081C111.623 66.3777 111.872 66.1695 112.138 65.9861L111.54 66.7516L110.894 67.5411L110.105 68.4501C109.818 68.761 109.53 69.0481 109.219 69.3352L108.382 70.1485L107.617 70.7465C107.444 70.8812 107.25 70.9863 107.043 71.0575C106.423 71.3101 105.855 71.675 105.368 72.134L104.698 72.7798L104.339 73.1865Z" fill="white"/>
<path d="M109.457 56.9916C109.457 56.9916 110.055 57.3026 110.82 57.2786C111.228 57.3047 111.635 57.2261 112.004 57.0502C112.372 56.8744 112.689 56.6071 112.925 56.2739C113.332 55.5084 114.169 54.432 114.863 53.3794C115.533 52.5674 115.978 51.5942 116.155 50.5567C116.155 50.2218 116.155 49.552 116.322 48.7147C116.322 48.2841 116.322 47.8297 116.49 47.3512C116.657 46.8728 116.49 46.3704 116.657 45.892C116.825 45.4136 116.657 45.6528 116.657 45.5332C116.669 45.4699 116.669 45.4051 116.657 45.3418C116.657 45.3418 116.657 45.3418 116.657 45.1505V44.3849C116.644 44.1459 116.644 43.9063 116.657 43.6673C116.657 43.5477 116.657 43.4281 116.657 43.3324C116.644 43.2291 116.644 43.1247 116.657 43.0214C116.657 42.232 116.657 41.6818 116.657 41.61C116.657 41.5383 116.657 41.6101 116.537 41.921L116.298 42.3516L115.915 42.9497L115.676 43.3085L115.413 43.6673L114.743 44.4328C114.504 44.6959 114.217 44.983 113.93 45.2461L113.452 45.6289L112.949 45.9877L112.447 46.3465L111.968 46.6336L111.107 47.2077C110.604 47.506 110.124 47.8418 109.672 48.2124C109.218 48.6045 108.809 49.0458 108.452 49.5281L108.165 49.9348L107.854 50.3892C107.663 50.7241 107.447 51.083 107.232 51.4896C107.15 51.6663 107.086 51.8505 107.041 52.0398C107.028 52.239 107.028 52.4387 107.041 52.6379C107.052 53.048 107.1 53.4564 107.184 53.8579C107.184 54.0732 107.184 54.2406 107.328 54.4081C107.471 54.5755 107.328 54.743 107.471 54.8626C107.615 54.9822 107.615 55.2692 107.615 55.2692L108.045 54.9343L108.5 54.5755L109.05 54.121L110.533 52.9488L111.753 51.9441C112.106 51.6595 112.419 51.3298 112.686 50.9634C112.936 50.6049 113.159 50.2291 113.356 49.839C113.475 49.6477 113.547 49.4563 113.643 49.2889C113.739 49.1214 113.81 48.93 113.882 48.7865C114.024 48.5128 114.183 48.2491 114.361 47.9971V48.2363L114.121 48.8583L113.954 49.2889C113.9 49.4445 113.836 49.5963 113.763 49.7434L113.547 50.2697L113.308 50.7959C113.004 51.485 112.661 52.1559 112.279 52.8053C112.126 53.0693 111.958 53.3248 111.777 53.5708C111.665 53.7489 111.528 53.91 111.37 54.0493C111.12 54.2359 110.902 54.4621 110.725 54.7191C110.519 54.961 110.343 55.2259 110.198 55.5085L109.792 56.2739L109.624 56.6088L109.457 56.9916Z" fill="white"/>
<path d="M109.758 39.1226C109.758 39.2422 110.356 39.1226 110.978 38.7638C111.32 38.5791 111.622 38.3268 111.863 38.0222C112.123 37.6957 112.267 37.2914 112.27 36.874C112.27 36.6587 112.27 36.3955 112.27 36.1324C112.27 35.8693 112.27 35.5583 112.27 35.2473C112.27 34.9363 112.437 33.9794 112.485 33.3096C112.651 32.267 112.561 31.1998 112.222 30.1999C112.055 29.9128 111.815 29.2908 111.504 28.5253L110.452 26.1332C109.686 24.4348 108.921 22.9277 108.921 22.8081V23.0952C108.94 23.4617 108.94 23.829 108.921 24.1956C108.921 24.4348 108.921 24.6979 108.921 24.985C108.921 25.272 108.921 25.583 108.753 25.9179C108.59 26.6528 108.366 27.373 108.084 28.0709L107.629 29.1234C107.486 29.4344 107.342 29.7214 107.223 30.0085L106.864 30.8218L106.577 31.5873C106.551 31.719 106.511 31.8473 106.457 31.97C106.471 32.1053 106.471 32.2415 106.457 32.3767L106.313 33.2618C106.302 33.4211 106.302 33.581 106.313 33.7402C106.313 33.9077 106.313 34.0751 106.313 34.2665C106.313 34.4579 106.313 35.032 106.313 35.4626C106.37 36.2094 106.672 36.9164 107.175 37.472C107.359 37.7299 107.568 37.9701 107.797 38.1896L107.988 38.4049V38.2853C108.023 38.161 108.071 38.0407 108.132 37.9265C108.132 37.6394 108.443 37.2328 108.61 36.7543L108.897 36.0128L109.184 35.2473L109.734 33.7642C110.014 32.9252 110.12 32.038 110.045 31.1567C110.001 30.4637 110.001 29.7686 110.045 29.0756C110.045 29.0756 110.045 29.0755 110.045 29.3148C110.045 29.554 110.045 29.6975 110.045 29.9606C110.061 30.2794 110.061 30.5987 110.045 30.9175C110.058 31.0927 110.058 31.2686 110.045 31.4438C110.057 31.635 110.057 31.8267 110.045 32.0179C110.097 32.8145 110.097 33.6135 110.045 34.41C110.045 34.5775 110.045 34.7449 110.045 34.8885C110.045 35.032 110.045 35.1755 110.045 35.3191C110.023 35.5238 109.975 35.7248 109.902 35.9171C109.786 36.2094 109.706 36.5146 109.663 36.8261C109.639 37.1366 109.639 37.4485 109.663 37.759C109.663 38.07 109.663 38.3571 109.663 38.6202C109.702 38.7861 109.734 38.9537 109.758 39.1226Z" fill="white"/>
<path d="M102.885 22.2101C102.885 22.2101 103.34 21.8992 103.651 21.3011C103.823 20.9791 103.944 20.632 104.009 20.2725C104.034 20.0899 104.034 19.9049 104.009 19.7223C103.984 19.5493 103.936 19.3803 103.866 19.2199C103.674 18.7992 103.507 18.3679 103.364 17.9282C103.364 17.6651 103.172 17.4258 103.1 17.1627L102.813 16.3733C102.592 15.537 102.174 14.7658 101.593 14.1247C101.212 13.8506 100.859 13.5379 100.541 13.1918L99.7993 12.4741L99.0099 11.6847L98.2683 10.967L97.6225 10.3211C97.3861 10.1105 97.1698 9.87825 96.9766 9.62744C97.1134 10.0004 97.2174 10.3846 97.2876 10.7757C97.528 11.9239 97.6403 13.0952 97.6225 14.2682C97.6225 14.651 97.6225 14.9858 97.6225 15.2968C97.6225 15.6078 97.6225 15.9188 97.6225 16.2059C97.5865 16.7155 97.5865 17.2271 97.6225 17.7368C97.7446 18.8987 98.0855 20.0269 98.6272 21.0619C98.7666 21.3589 98.9809 21.6145 99.2491 21.8035C99.5178 21.9874 99.8068 22.1399 100.11 22.258L100.876 22.5211H101.211C101.211 22.5211 101.211 22.3537 101.211 22.0666C101.211 21.7795 101.211 21.3729 101.091 20.9184C101.091 19.9854 100.9 18.8851 100.828 18.0478C100.755 17.2904 100.544 16.5526 100.206 15.871C100.206 15.7035 100.039 15.56 99.9667 15.4164L99.7754 15.0098C99.6652 14.7766 99.5693 14.537 99.4883 14.2921V14.4596L99.7754 14.9141L99.9428 15.2251L100.158 15.5839L100.397 15.9906L100.613 16.3972C100.683 16.5457 100.763 16.6895 100.852 16.8278L101.067 17.2584C101.211 17.5455 101.33 17.8325 101.45 18.0956C101.558 18.3377 101.654 18.5852 101.737 18.8372L101.857 19.3635C101.879 19.6385 101.927 19.9108 102 20.1768C102.089 20.4377 102.193 20.6932 102.311 20.9423C102.526 21.4925 102.766 21.8513 102.885 22.2101Z" fill="white"/>
<path d="M91.2398 9.60337C91.2398 9.60337 91.503 9.19669 91.5987 8.57473C91.6468 8.24958 91.6468 7.9191 91.5987 7.59394C91.5615 7.28177 91.4277 6.98904 91.2159 6.75671C90.7853 6.27828 90.2591 5.44103 89.7328 4.69946C89.3758 4.07983 88.8754 3.55484 88.2736 3.16849C87.3837 2.77058 86.5207 2.31509 85.6901 1.80495C84.6375 1.18299 83.6807 0.608874 83.6328 0.537109C83.8245 0.822067 83.9848 1.12684 84.1112 1.44614C84.5296 2.4 84.8503 3.39386 85.0681 4.41242C85.2313 5.43741 85.4549 6.45184 85.7379 7.45042C86.1021 8.41716 86.6644 9.29714 87.3885 10.0339C87.5764 10.2544 87.8265 10.4128 88.1061 10.4885C88.3709 10.5633 88.6443 10.6035 88.9195 10.6081C89.2454 10.6448 89.5743 10.6448 89.9002 10.6081L89.35 9.29238C89.063 8.5269 88.6802 7.61788 88.441 6.90023C88.2014 6.28486 87.853 5.71765 87.4124 5.22574C87.077 4.86129 86.7729 4.46917 86.5034 4.05357L86.9579 4.48418C87.3102 4.80961 87.6455 5.15292 87.9626 5.51278C88.6317 6.14285 89.204 6.86835 89.661 7.66574C90.0556 8.4086 90.592 9.06689 91.2398 9.60337Z" fill="white"/>
<path d="M81.5441 87.8747C81.6853 87.8446 81.822 87.7963 81.9508 87.7311H82.2379L82.5727 87.5637L82.9316 87.3723L83.3143 87.157L83.6971 86.9178L84.0798 86.6547L84.4626 86.3915L84.8214 86.1284L85.1563 85.8652L85.4433 85.626L85.8739 85.2433C85.8739 85.2433 86.0414 85.0519 86.0414 85.0041C86.0759 84.7821 86.0759 84.5562 86.0414 84.3343C86.0414 83.9994 86.0414 83.5688 86.0414 83.1382C86.0414 82.7076 86.0414 82.2531 86.0414 81.8704C86.0414 81.4876 86.0414 81.1288 86.0414 80.8896C86.0414 80.6503 86.0414 80.3633 86.0414 80.0045C86.0258 79.6105 85.9778 79.2185 85.8978 78.8324C85.8727 78.6282 85.8246 78.4276 85.7543 78.2343C85.6891 78.0295 85.6092 77.8296 85.5151 77.6363C85.3373 77.2622 85.085 76.9285 84.7735 76.6555C84.4662 76.3848 84.2002 76.0705 83.9841 75.7226C83.784 75.4134 83.6157 75.0848 83.4818 74.7418C83.3294 74.4004 83.2015 74.0487 83.099 73.6892V73.9284C83.099 74.1198 83.099 74.3351 82.8837 74.6221C82.6684 74.9092 82.4292 75.9857 82.0943 76.7751C81.7594 77.5645 81.4006 78.4257 81.0657 79.1673C80.988 79.3398 80.9002 79.5075 80.8026 79.6696L80.5873 80.1002L80.2524 80.746C80.1184 80.9778 79.9986 81.2175 79.8936 81.4637C79.8157 81.6562 79.7595 81.8568 79.7261 82.0617C79.7059 82.3085 79.7059 82.5565 79.7261 82.8033C79.7261 83.0903 79.7979 83.4731 79.9414 83.9515L80.2285 85.4108C80.2285 85.8892 80.3959 86.3198 80.4676 86.7025L80.7547 87.9703C80.826 87.8145 80.9059 87.6628 80.9939 87.5158C81.1614 87.2288 81.3527 86.846 81.592 86.3915L81.9269 85.6978C82.094 85.3398 82.094 85.3398 82.2615 84.9808C82.501 84.5017 82.6924 84.0233 82.8837 83.6406C82.9804 83.4427 83.0526 83.2339 83.099 83.0186C83.1099 82.8993 83.1099 82.7791 83.099 82.6598V82.3249C83.099 82.0857 83.099 81.8464 83.2186 81.6072C83.3382 81.368 83.2186 81.1049 83.2186 80.8657C83.2186 80.6264 83.2186 79.9567 83.2186 79.5739C83.2186 79.1912 83.2186 78.8323 83.2186 78.5692C83.2186 78.3061 83.2186 78.8563 83.2186 79.3108C83.2186 79.7653 83.2186 79.8131 83.2186 80.1002C83.2186 80.3872 83.2186 80.746 83.2186 81.0809C83.2186 81.4158 83.2186 81.7747 83.2186 82.1574V83.21C83.1671 83.8162 83.0302 84.4122 82.812 84.9802C82.6445 85.4107 82.4292 85.8174 82.2618 86.2001C82.2749 86.2874 82.2749 86.3761 82.2618 86.4633C82.2122 86.5462 82.1721 86.6345 82.1422 86.7264C82.0557 86.8705 81.9835 87.0227 81.9269 87.1809L81.592 87.8029C81.5748 87.826 81.5589 87.85 81.5441 87.8747Z" fill="white"/>
<path d="M91.3986 78.9275L91.5421 78.8079C91.5421 78.8079 91.5421 78.8079 91.7335 78.6644L92.188 78.2099L92.7143 77.5879C92.9107 77.3673 93.0944 77.1357 93.2645 76.8942C93.7876 76.271 94.2223 75.5788 94.5562 74.8369C94.5337 74.6345 94.4936 74.4344 94.4366 74.2389L94.1017 73.1864C93.9821 72.8036 93.8386 72.4209 93.719 72.0621C93.5994 71.7032 93.5994 71.7271 93.5515 71.5836C93.5037 71.4401 93.5515 71.3205 93.408 71.2248C93.2645 71.1291 93.2645 70.7464 93.1688 70.4354C93.0651 70.0841 92.9372 69.7404 92.786 69.4068C92.6241 69.0584 92.4235 68.7294 92.188 68.426C91.944 68.1423 91.6422 67.914 91.3029 67.7562C90.6701 67.4312 90.1277 66.9545 89.7241 66.3687C89.5139 66.0912 89.3297 65.7949 89.1739 65.4836C89.1792 65.5793 89.1792 65.6751 89.1739 65.7707C89.1739 65.7707 89.1739 65.9621 89.1739 66.0817C89.1739 66.2013 89.1739 66.3209 89.1739 66.4883C89.1846 66.6476 89.1846 66.8075 89.1739 66.9668C89.1848 67.158 89.1848 67.3497 89.1739 67.5409V68.1389C89.1588 68.354 89.1588 68.5698 89.1739 68.7848C89.0543 69.622 88.9108 70.5311 88.7433 71.1769C88.7433 71.3683 88.7433 71.5597 88.7433 71.7272C88.7343 71.8865 88.7343 72.0462 88.7433 72.2056C88.7433 72.4926 88.6237 72.7318 88.5759 72.8993C88.528 73.0667 88.5759 73.4495 88.4563 73.6648C88.4312 73.8633 88.4312 74.0643 88.4563 74.2628C88.6329 74.827 88.8822 75.3657 89.1978 75.8656L89.8437 77.0377L90.4418 78.0663L91.0398 79.0949C91.0346 79.0472 91.0346 78.9991 91.0398 78.9514C91.0257 78.8322 91.0257 78.7118 91.0398 78.5926C91.0398 78.3056 91.0398 77.8989 91.2311 77.4204C91.4225 76.942 91.3747 76.4397 91.4464 75.9373C91.5182 75.435 91.59 74.9565 91.6378 74.5499C91.6506 74.3348 91.6506 74.1191 91.6378 73.904C91.6378 73.6887 91.6378 73.4734 91.6378 73.2342C91.6378 72.995 91.6378 73.0189 91.6378 72.8993C91.6493 72.7879 91.6493 72.6757 91.6378 72.5644C91.6116 72.3389 91.5717 72.1152 91.5182 71.8946C91.5182 71.464 91.3268 71.0334 91.2311 70.6985C91.1354 70.3636 91.0637 70.0048 91.0158 69.7895C90.968 69.5742 91.1355 70.0287 91.279 70.4115C91.3294 70.519 91.3695 70.6312 91.3986 70.7464L91.5421 71.1291C91.6378 71.3843 91.7335 71.6713 91.8292 71.9903C92.0172 72.619 92.169 73.2579 92.2837 73.904V74.3824C92.2837 74.5499 92.2837 74.6934 92.2837 74.8369C92.2968 75.0919 92.2968 75.3474 92.2837 75.6024C92.2837 76.5114 92.0684 77.3248 91.9966 77.9946C91.9249 78.6644 91.9966 78.4969 91.877 78.6644L91.3986 78.9275Z" fill="white"/>
<path d="M99.2502 67.9242C99.7464 67.2268 100.156 66.4717 100.47 65.6756C100.686 65.1732 100.853 64.6708 100.996 64.2642C101.106 64.031 101.17 63.7795 101.188 63.5226C100.967 63.0541 100.72 62.5989 100.446 62.1591L99.4655 60.5324L99.1067 59.8626C98.9393 59.5995 98.7718 59.3124 98.5565 59.0254C98.1811 58.4439 97.6002 58.0254 96.9298 57.8532C96.3102 57.7117 95.74 57.406 95.2792 56.9681C95.0375 56.7555 94.8134 56.5235 94.6095 56.2744C94.6191 56.3619 94.6191 56.4501 94.6095 56.5376C94.6297 56.7604 94.6297 56.9845 94.6095 57.2074C94.5989 57.3587 94.5989 57.5105 94.6095 57.6619C94.6095 57.8532 94.6095 58.0207 94.6095 58.212C94.6095 58.4034 94.6095 58.9775 94.6095 59.3842C94.6095 60.2215 94.6095 61.0826 94.6095 61.7764C94.6095 62.1591 94.6095 62.494 94.6095 62.7811V63.4509C94.6095 63.7618 94.6095 64.025 94.6095 64.2164C94.6118 64.3983 94.6526 64.5776 94.7291 64.7426C94.9895 65.2056 95.3204 65.6253 95.7099 65.9865C96.26 66.5846 96.8581 67.2065 97.3126 67.6371L97.8389 68.1873L98.0542 68.3787V68.2591C98.0542 68.2591 98.0542 68.0677 98.0542 67.9242C98.0542 67.7806 98.0542 67.2544 98.0542 66.8238C98.0542 65.9626 97.8867 64.8861 97.8149 64.1446C97.7675 63.7401 97.6876 63.3401 97.5757 62.9485L97.3604 62.3505C97.291 62.155 97.2111 61.9633 97.1212 61.7764L96.6428 60.7477C96.4993 60.4367 96.3557 60.1736 96.2839 59.9823L96.6188 60.4846L96.9777 61.0587L97.4083 61.7764L97.6236 62.183C97.7015 62.3114 97.7657 62.4478 97.8149 62.5897C97.9568 62.862 98.0846 63.1415 98.1977 63.427C98.3143 63.682 98.4104 63.946 98.4848 64.2164C98.5485 64.444 98.5964 64.6758 98.6283 64.9101C98.6283 65.3407 98.6283 65.7473 98.7718 66.1061C98.9153 66.465 98.7718 66.7759 98.7718 67.0391C98.7718 67.3022 98.7718 67.2783 98.7718 67.3979C98.7587 67.4851 98.7587 67.5738 98.7718 67.661L99.2502 67.9242Z" fill="white"/>
<path d="M102.978 54.1452C103.04 54.0485 103.088 53.9438 103.122 53.8342C103.122 53.6906 103.122 53.4993 103.289 53.3079C103.279 53.1965 103.279 53.0844 103.289 52.973V52.6381C103.351 52.3938 103.399 52.1462 103.433 51.8965C103.589 51.2218 103.669 50.5318 103.672 49.8393L103.361 49.4565L102.763 48.8107C102.558 48.5624 102.334 48.3305 102.093 48.1169C101.937 47.9309 101.769 47.7551 101.591 47.5907L101.16 47.0883L100.514 46.4424L100.156 46.1793L99.749 45.9401C99.4718 45.8138 99.1681 45.7563 98.8639 45.7726C98.5638 45.7937 98.2625 45.753 97.9788 45.653H97.596H97.4046C97.1618 45.5478 96.9295 45.4196 96.7109 45.2703V45.4377V45.653V45.8444C96.7109 45.964 96.7109 46.0836 96.7109 46.2271L96.8545 46.6817C96.8545 46.9926 97.0458 47.3275 97.1655 47.6864C97.2851 48.0452 97.5482 49.1695 97.6917 49.8154C97.771 50.1068 97.8349 50.4023 97.8831 50.7005C97.9428 50.8968 97.9908 51.0965 98.0266 51.2985L98.1941 51.9444C98.2488 52.1078 98.3296 52.2612 98.4333 52.3989C98.7506 52.7506 99.1221 53.0494 99.5337 53.284C100.132 53.7146 100.754 54.0973 101.232 54.4083L102.045 54.8867L101.926 54.504C101.926 54.3844 101.926 54.2408 101.806 54.0734C101.687 53.9059 101.806 53.7385 101.639 53.5471C101.471 53.3557 101.519 53.1644 101.471 52.9491C101.397 52.7534 101.333 52.5537 101.28 52.351C101.28 51.9444 101.017 51.5377 100.921 51.2028C100.805 50.8606 100.653 50.5318 100.467 50.222C100.296 49.8938 100.095 49.5816 99.8686 49.2891C99.6533 48.9781 99.438 48.715 99.2466 48.4758L98.7682 47.8777L99.1748 48.2604C99.5086 48.5649 99.8203 48.8927 100.108 49.2412C100.299 49.4326 100.467 49.6479 100.634 49.8393L101.112 50.5091C101.256 50.7244 101.4 50.9397 101.519 51.155C101.627 51.3363 101.716 51.5288 101.782 51.7291C102.021 52.4707 102.237 53.0926 102.38 53.571C102.524 54.0495 102.5 53.9777 102.548 54.0973L102.978 54.1452Z" fill="white"/>
<path d="M103.223 40.0076C103.264 39.746 103.264 39.4797 103.223 39.2182C103.223 38.8593 103.223 38.4048 103.223 37.9982C103.223 37.5915 103.223 37.5676 103.103 37.3523C102.984 37.137 103.103 37.1609 103.103 37.0892V36.826V36.4433C103.113 36.3799 103.113 36.3154 103.103 36.2519C102.759 36.0475 102.399 35.8715 102.027 35.7256L101.62 35.5821C101.51 35.5139 101.388 35.4653 101.261 35.4386L100.687 35.1994C100.4 35.1994 99.9456 34.8645 99.4193 34.7209H99.0365H98.6299C98.3633 34.7246 98.1013 34.7902 97.8644 34.9123C97.4161 35.1511 96.9126 35.2666 96.4052 35.2472H95.8789H95.6875V35.3668L96.0463 35.7256L97.075 36.8978C97.4577 37.3523 97.8405 37.8546 98.1514 38.2852C98.2386 38.383 98.3185 38.4869 98.3906 38.5962C98.4484 38.6882 98.5123 38.7761 98.582 38.8594L98.8691 39.266L99.1801 39.6966C99.266 39.8033 99.3716 39.8926 99.491 39.9598L99.9216 40.1272L100.663 40.2947L101.572 40.486L102.386 40.6296L103.199 40.797L103.055 40.5817C102.973 40.4861 102.9 40.3819 102.84 40.2707L102.553 39.9119L101.907 39.0746L101.285 38.3092C100.883 37.8459 100.396 37.4642 99.8499 37.1849L99.0844 36.8021L98.5103 36.5151L98.9648 36.6586C99.3251 36.7585 99.677 36.8865 100.017 37.0413C100.439 37.2278 100.846 37.4436 101.237 37.6872L101.524 37.8786C101.614 37.9287 101.695 37.9934 101.764 38.0699C101.914 38.1711 102.051 38.2917 102.17 38.4287C102.362 38.668 102.577 38.9072 102.72 39.1225L102.96 39.4335L103.175 39.6966L103.462 40.0793L103.223 40.0076Z" fill="white"/>
<path d="M98.1694 27.2572C97.974 26.6852 97.7257 26.1326 97.4278 25.6066L97.1408 25.1282L96.8776 24.7215C96.7906 24.5604 96.6775 24.4149 96.5427 24.2909C96.1965 24.2136 95.8445 24.1656 95.4902 24.1474H94.1745H93.6721C93.4415 24.1231 93.209 24.1231 92.9784 24.1474C92.7406 24.1113 92.4986 24.1113 92.2608 24.1474C92.021 24.2125 91.805 24.3454 91.6388 24.5301C91.3057 24.8264 90.9021 25.0323 90.4667 25.1282C90.2441 25.1527 90.0195 25.1527 89.7969 25.1282L90.371 25.487L91.6627 26.3482L93.0741 27.329L93.6243 27.7596L94.007 28.0227C94.2264 28.2222 94.4881 28.3694 94.7725 28.4533C95.1369 28.5131 95.5086 28.5131 95.8729 28.4533L97.4039 28.1423L98.1215 27.9748L97.8584 27.8074L97.2365 27.4247L95.6576 26.4678L95.2988 26.2764L94.8922 26.1329C94.6201 26.036 94.3399 25.9639 94.0549 25.9176L93.2894 25.7741L92.7153 25.6545H93.1459H94.1984C94.9673 25.7006 95.7213 25.8871 96.4231 26.2047L97.1168 26.6113L97.667 26.9223L98.1694 27.2572Z" fill="white"/>
<path d="M88.7267 16.8035C88.4798 16.336 88.1743 15.9019 87.8176 15.5117L87.2196 14.7941C87.0282 14.6266 86.9086 14.4831 86.8608 14.4831C86.5502 14.4619 86.2385 14.4619 85.9279 14.4831H84.7557C84.3972 14.461 84.0377 14.461 83.6792 14.4831C83.4642 14.4933 83.2536 14.5474 83.0602 14.642C82.8669 14.7366 82.6949 14.8697 82.5549 15.0333C82.3003 15.3372 81.9576 15.5545 81.5741 15.6552C81.3886 15.7241 81.1961 15.7723 81 15.7988L82.842 16.7078L85.2341 17.9517C85.9518 18.3105 85.9996 18.3105 86.9326 17.9517L88.2482 17.4493L88.8462 17.1862L87.9612 16.8513L86.4063 16.2772C85.9308 16.098 85.4305 15.9931 84.9231 15.9662C84.4208 15.9662 83.9663 15.9662 83.7031 15.9662H84.0859H85.0188C85.3847 15.9304 85.7533 15.9304 86.1192 15.9662C86.4343 15.9813 86.747 16.0295 87.0521 16.1097L88.7267 16.8035Z" fill="white"/>
<path d="M76.4415 4.53194C84.3136 8.99919 91.2956 14.8783 97.0379 21.875C101.08 26.9301 103.905 32.8473 105.295 39.1689C106.684 45.4905 106.601 52.0471 105.052 58.3314C103.653 64.4459 101.095 70.2357 97.5163 75.3874C93.5297 81.1199 88.3161 85.8922 82.2544 89.3575C75.2935 93.4899 68.1057 97.2276 60.725 100.553C60.3879 98.6932 60.5531 96.7774 61.2035 95.003C67.3513 95.7924 80.3407 90.2187 86.7995 85.4344C92.1694 81.359 96.5926 76.1686 99.7649 70.2204C102.638 64.8889 104.472 59.0605 105.171 53.0447C105.889 47.0429 105.268 40.9564 103.353 35.2232C100.802 28.0214 96.5321 21.551 90.9139 16.3731C86.3844 12.1533 81.4024 8.44685 76.0587 5.32135C75.6042 5.05822 76.0587 4.31666 76.4415 4.57979V4.53194Z" fill="white"/>
<path d="M47.498 56.0527V57.5371H38.1914V56.2383L42.8496 51.0527C43.4225 50.4147 43.8652 49.8743 44.1777 49.4316C44.4967 48.9824 44.7181 48.582 44.8418 48.2305C44.972 47.8724 45.0371 47.5078 45.0371 47.1367C45.0371 46.668 44.9395 46.2448 44.7441 45.8672C44.5553 45.4831 44.2754 45.1771 43.9043 44.9492C43.5332 44.7214 43.084 44.6074 42.5566 44.6074C41.9251 44.6074 41.3978 44.7311 40.9746 44.9785C40.5579 45.2194 40.2454 45.5579 40.0371 45.9941C39.8288 46.4303 39.7246 46.9316 39.7246 47.498H37.918C37.918 46.6973 38.0938 45.9648 38.4453 45.3008C38.7969 44.6367 39.3177 44.1094 40.0078 43.7188C40.6979 43.3216 41.5475 43.123 42.5566 43.123C43.4551 43.123 44.2233 43.2826 44.8613 43.6016C45.4993 43.9141 45.9876 44.3568 46.3262 44.9297C46.6712 45.4961 46.8438 46.1602 46.8438 46.9219C46.8438 47.3385 46.7721 47.7617 46.6289 48.1914C46.4922 48.6146 46.3001 49.0378 46.0527 49.4609C45.8118 49.8841 45.5286 50.3008 45.2031 50.7109C44.8841 51.1211 44.5423 51.5247 44.1777 51.9219L40.3691 56.0527H47.498ZM58.3574 49.2949V51.4629C58.3574 52.6283 58.2533 53.6113 58.0449 54.4121C57.8366 55.2129 57.5371 55.8574 57.1465 56.3457C56.7559 56.834 56.2839 57.1888 55.7305 57.4102C55.1836 57.625 54.5651 57.7324 53.875 57.7324C53.3281 57.7324 52.8236 57.6641 52.3613 57.5273C51.8991 57.3906 51.4824 57.1725 51.1113 56.873C50.7467 56.5671 50.4342 56.1699 50.1738 55.6816C49.9134 55.1934 49.7148 54.6009 49.5781 53.9043C49.4414 53.2077 49.373 52.3939 49.373 51.4629V49.2949C49.373 48.1296 49.4772 47.153 49.6855 46.3652C49.9004 45.5775 50.2031 44.946 50.5938 44.4707C50.9844 43.9889 51.4531 43.6439 52 43.4355C52.5534 43.2272 53.1719 43.123 53.8555 43.123C54.4089 43.123 54.9167 43.1914 55.3789 43.3281C55.8477 43.4583 56.2643 43.6699 56.6289 43.9629C56.9935 44.2493 57.3027 44.6335 57.5566 45.1152C57.8171 45.5905 58.0156 46.1732 58.1523 46.8633C58.2891 47.5534 58.3574 48.3639 58.3574 49.2949ZM56.541 51.7559V48.9922C56.541 48.3542 56.502 47.7943 56.4238 47.3125C56.3522 46.8242 56.2448 46.4076 56.1016 46.0625C55.9583 45.7174 55.776 45.4375 55.5547 45.2227C55.3398 45.0078 55.0892 44.8516 54.8027 44.7539C54.5228 44.6497 54.207 44.5977 53.8555 44.5977C53.4258 44.5977 53.0449 44.679 52.7129 44.8418C52.3809 44.998 52.1009 45.2487 51.873 45.5938C51.6517 45.9388 51.4824 46.3913 51.3652 46.9512C51.248 47.5111 51.1895 48.1914 51.1895 48.9922V51.7559C51.1895 52.3939 51.2253 52.957 51.2969 53.4453C51.375 53.9336 51.4889 54.3568 51.6387 54.7148C51.7884 55.0664 51.9707 55.3561 52.1855 55.584C52.4004 55.8118 52.6478 55.9811 52.9277 56.0918C53.2142 56.196 53.5299 56.248 53.875 56.248C54.3177 56.248 54.7051 56.1634 55.0371 55.9941C55.3691 55.8249 55.6458 55.5612 55.8672 55.2031C56.0951 54.8385 56.2643 54.373 56.375 53.8066C56.4857 53.2337 56.541 52.5501 56.541 51.7559ZM69.998 56.0527V57.5371H60.6914V56.2383L65.3496 51.0527C65.9225 50.4147 66.3652 49.8743 66.6777 49.4316C66.9967 48.9824 67.2181 48.582 67.3418 48.2305C67.472 47.8724 67.5371 47.5078 67.5371 47.1367C67.5371 46.668 67.4395 46.2448 67.2441 45.8672C67.0553 45.4831 66.7754 45.1771 66.4043 44.9492C66.0332 44.7214 65.584 44.6074 65.0566 44.6074C64.4251 44.6074 63.8978 44.7311 63.4746 44.9785C63.0579 45.2194 62.7454 45.5579 62.5371 45.9941C62.3288 46.4303 62.2246 46.9316 62.2246 47.498H60.418C60.418 46.6973 60.5938 45.9648 60.9453 45.3008C61.2969 44.6367 61.8177 44.1094 62.5078 43.7188C63.1979 43.3216 64.0475 43.123 65.0566 43.123C65.9551 43.123 66.7233 43.2826 67.3613 43.6016C67.9993 43.9141 68.4876 44.3568 68.8262 44.9297C69.1712 45.4961 69.3438 46.1602 69.3438 46.9219C69.3438 47.3385 69.2721 47.7617 69.1289 48.1914C68.9922 48.6146 68.8001 49.0378 68.5527 49.4609C68.3118 49.8841 68.0286 50.3008 67.7031 50.7109C67.3841 51.1211 67.0423 51.5247 66.6777 51.9219L62.8691 56.0527H69.998ZM81.248 56.0527V57.5371H71.9414V56.2383L76.5996 51.0527C77.1725 50.4147 77.6152 49.8743 77.9277 49.4316C78.2467 48.9824 78.4681 48.582 78.5918 48.2305C78.722 47.8724 78.7871 47.5078 78.7871 47.1367C78.7871 46.668 78.6895 46.2448 78.4941 45.8672C78.3053 45.4831 78.0254 45.1771 77.6543 44.9492C77.2832 44.7214 76.834 44.6074 76.3066 44.6074C75.6751 44.6074 75.1478 44.7311 74.7246 44.9785C74.3079 45.2194 73.9954 45.5579 73.7871 45.9941C73.5788 46.4303 73.4746 46.9316 73.4746 47.498H71.668C71.668 46.6973 71.8438 45.9648 72.1953 45.3008C72.5469 44.6367 73.0677 44.1094 73.7578 43.7188C74.4479 43.3216 75.2975 43.123 76.3066 43.123C77.2051 43.123 77.9733 43.2826 78.6113 43.6016C79.2493 43.9141 79.7376 44.3568 80.0762 44.9297C80.4212 45.4961 80.5938 46.1602 80.5938 46.9219C80.5938 47.3385 80.5221 47.7617 80.3789 48.1914C80.2422 48.6146 80.0501 49.0378 79.8027 49.4609C79.5618 49.8841 79.2786 50.3008 78.9531 50.7109C78.6341 51.1211 78.2923 51.5247 77.9277 51.9219L74.1191 56.0527H81.248Z" fill="white"/>
</g>
<defs>
<clipPath id="clip0_226_2">
<rect width="117" height="100.04" fill="white" transform="translate(0 0.537109)"/>
</clipPath>
</defs>
</svg>
