<svg width="22" height="22" viewBox="0 0 22 22" fill="none" xmlns="http://www.w3.org/2000/svg">
<path d="M16.9583 5.95834C16.9583 6.4646 16.5479 6.87501 16.0417 6.87501C15.5354 6.87501 15.125 6.4646 15.125 5.95834C15.125 5.45208 15.5354 5.04167 16.0417 5.04167C16.5479 5.04167 16.9583 5.45208 16.9583 5.95834Z" fill="white"/>
<path d="M2.75 9.35C2.75 6.6002 2.75 5.22529 3.45027 4.26145C3.67643 3.95017 3.95017 3.67643 4.26145 3.45027C5.22529 2.75 6.6002 2.75 9.35 2.75H12.65C15.3998 2.75 16.7747 2.75 17.7385 3.45027C18.0498 3.67643 18.3236 3.95017 18.5497 4.26145C19.25 5.22529 19.25 6.6002 19.25 9.35V12.65C19.25 15.3998 19.25 16.7747 18.5497 17.7385C18.3236 18.0498 18.0498 18.3236 17.7385 18.5497C16.7747 19.25 15.3998 19.25 12.65 19.25H9.35C6.6002 19.25 5.22529 19.25 4.26145 18.5497C3.95017 18.3236 3.67643 18.0498 3.45027 17.7385C2.75 16.7747 2.75 15.3998 2.75 12.65V9.35Z" stroke="white" stroke-linejoin="round"/>
<path d="M14.6667 11C14.6667 13.025 13.025 14.6667 11 14.6667C8.97496 14.6667 7.33333 13.025 7.33333 11C7.33333 8.97496 8.97496 7.33333 11 7.33333C13.025 7.33333 14.6667 8.97496 14.6667 11Z" stroke="white" stroke-linejoin="round"/>
</svg>
