<svg id="Layer_1" enable-background="new 0 0 512 512" height="512" viewBox="0 0 512 512" fill="#fff" width="512" xmlns="http://www.w3.org/2000/svg"><path d="m487.523 400.344c3.905 3.905 3.905 10.237 0 14.143-1.953 1.952-4.512 2.929-7.071 2.929s-5.118-.977-7.071-2.929l-35.927-35.927-35.927 35.927c-1.953 1.952-4.512 2.929-7.071 2.929s-5.118-.977-7.071-2.929c-3.905-3.905-3.905-10.237 0-14.143l35.927-35.927-35.927-35.927c-3.905-3.905-3.905-10.237 0-14.143 3.906-3.904 10.236-3.904 14.143 0l35.927 35.927 35.927-35.927c3.906-3.904 10.236-3.904 14.143 0 3.905 3.905 3.905 10.237 0 14.143l-35.927 35.927zm-210.604-64.574c9.033 9.033 14.008 21.043 14.008 33.818s-4.975 24.786-14.008 33.819c-9.324 9.323-21.571 13.984-33.819 13.984-12.247 0-24.494-4.661-33.817-13.984-9.034-9.033-14.009-21.044-14.009-33.819s4.975-24.785 14.009-33.818c18.646-18.646 48.988-18.646 67.636 0zm-5.992 33.818c0-7.433-2.895-14.421-8.149-19.676-5.426-5.425-12.552-8.138-19.678-8.138-7.125 0-14.251 2.713-19.676 8.138 0 0 0 0-.001 0-5.255 5.255-8.149 12.243-8.149 19.676s2.895 14.421 8.15 19.677c10.849 10.849 28.503 10.848 39.354 0 5.254-5.256 8.149-12.244 8.149-19.677zm-27.826-121.072c-41.469 0-80.455 16.149-109.777 45.472-3.905 3.905-3.905 10.237 0 14.143 3.906 3.904 10.236 3.904 14.143 0 25.545-25.546 59.509-39.614 95.635-39.614s70.09 14.068 95.635 39.614c1.953 1.952 4.512 2.929 7.071 2.929s5.118-.977 7.071-2.929c3.905-3.905 3.905-10.237 0-14.143-29.324-29.322-68.311-45.472-109.778-45.472zm145.67 4.282c1.953 1.952 4.512 2.929 7.071 2.929s5.118-.977 7.071-2.929c3.905-3.905 3.905-10.237 0-14.143-42.688-42.688-99.444-66.196-159.813-66.196s-117.125 23.509-159.813 66.196c-3.905 3.905-3.905 10.237 0 14.143 3.906 3.904 10.236 3.904 14.143 0 80.322-80.324 211.019-80.324 291.341 0zm58.81-53.514c1.953 1.952 4.512 2.929 7.071 2.929s5.118-.977 7.071-2.929c3.905-3.905 3.905-10.237 0-14.143-58.396-58.396-136.038-90.557-218.623-90.557-82.586 0-160.228 32.16-218.624 90.557-3.905 3.905-3.905 10.237 0 14.143 3.906 3.904 10.236 3.904 14.143 0 112.751-112.752 296.213-112.751 408.962 0z"/></svg>