<svg width="68" height="91" viewBox="0 0 68 91" fill="none" xmlns="http://www.w3.org/2000/svg">
<path d="M38.2144 40.0232C35.8183 39.1757 34.3458 39.8689 33.7741 42.0609C34.2874 44.6119 37.8672 45.738 39.9895 44.2313C42.1118 42.7246 42.4575 39.425 41.0438 37.238C39.632 35.0517 36.8605 33.987 34.2648 34.1617C33.0393 34.244 31.8143 34.5773 30.7933 35.2602C29.2069 36.3216 28.2732 38.0997 27.4645 39.8293C25.0259 45.047 23.1022 50.806 24.0124 56.4926C24.9218 62.1811 29.4445 67.6243 35.1989 67.8628C40.3815 68.0789 44.8264 64.263 48.1224 60.2574C54.981 51.9199 59.4808 41.6604 60.9663 30.9666C61.7714 25.1744 61.5488 18.7799 57.962 14.1609C54.3096 9.45755 47.7407 7.65549 41.8682 8.64575C35.995 9.63799 30.7707 13.0426 26.4363 17.127C20.9453 22.304 16.5675 28.7772 14.4608 36.0232C12.354 43.2692 12.6317 51.3026 15.8501 58.1271C17.409 61.4348 19.7661 64.536 23.0796 66.0801" stroke="white" stroke-width="2.10383" stroke-miterlimit="10"/>
<path d="M28.2645 58.2183C23.6341 68.363 21.178 77.0178 21.9008 83.4959" stroke="white" stroke-width="2.10383" stroke-miterlimit="10"/>
</svg>
