<svg width="139" height="109" viewBox="0 0 139 109" fill="none" xmlns="http://www.w3.org/2000/svg">
<g clip-path="url(#clip0_226_383)" filter="url(#filter0_d_226_383)">
<path d="M30.1532 9.33034C32.0639 6.66487 33.5017 3.69048 34.4037 0.537354C31.1101 1.53532 28.2004 3.51662 26.065 6.21548C23.9812 8.91149 22.8411 12.2176 22.8203 15.625C25.6109 13.9676 28.0922 11.8377 30.1532 9.33034Z" fill="#E8E8E8"/>
<path d="M20.0364 21.4656C21.0946 18.3334 21.5782 15.0358 21.464 11.7317C21.2722 8.91636 20.1279 6.25016 18.2194 4.17163C16.3996 7.27056 15.5308 10.836 15.721 14.4247C15.8991 15.8375 16.376 17.1961 17.1201 18.4101C17.8642 19.6241 18.8583 20.6657 20.0364 21.4656Z" fill="white"/>
<path d="M35.1544 16.0464C33.9636 15.4428 32.6643 15.0831 31.3327 14.9884C30.001 14.8937 28.6639 15.0659 27.3997 15.4949C24.5154 16.7654 22.1235 18.9409 20.5859 21.6921C23.1913 22.2957 25.9187 22.092 28.4055 21.1081C30.9754 19.8965 33.2717 18.1743 35.1544 16.0464Z" fill="white"/>
<path d="M16.8865 30.096C17.4669 26.9428 17.4669 23.71 16.8865 20.5568C16.2974 17.8172 14.8135 15.3515 12.6685 13.5483C11.315 16.8226 10.9649 20.4252 11.6626 23.8987C12.037 25.2464 12.6974 26.4975 13.5988 27.567C14.5003 28.6364 15.6216 29.499 16.8865 30.096Z" fill="white"/>
<path d="M31.1509 22.8609C28.6153 22.0051 25.8465 22.168 23.4287 23.3151C20.7727 24.9436 18.7044 27.3756 17.5234 30.2586C20.1786 30.5286 22.8525 29.9735 25.1808 28.6688C27.5584 27.1759 29.5931 25.1965 31.1509 22.8609Z" fill="white"/>
<path d="M14.9195 39.0186C15.0711 35.8361 14.6648 32.6517 13.719 29.6092C12.7807 26.9354 10.9765 24.6515 8.59251 23.1199C7.70777 26.5339 7.84312 30.1324 8.98185 33.4703C9.52774 34.7594 10.3384 35.9195 11.3613 36.8753C12.3841 37.8311 13.5964 38.5613 14.9195 39.0186Z" fill="white"/>
<path d="M22.89 36.5533C25.0174 34.7647 26.7518 32.5553 27.984 30.064C25.3638 29.549 22.6458 30.06 20.3916 31.4916C17.9807 33.44 16.2625 36.114 15.4922 39.1166C18.1583 39.0176 20.7342 38.1251 22.89 36.5533Z" fill="white"/>
<path d="M14.1541 48.0718C13.9004 44.9106 13.0759 41.8215 11.7206 38.9543C10.4229 36.4848 8.34742 34.512 5.81539 33.3411C5.38209 36.8251 5.99184 40.3594 7.56749 43.4968C8.27742 44.6835 9.23204 45.7053 10.3678 46.4941C11.5035 47.283 12.7943 47.8208 14.1541 48.0718Z" fill="white"/>
<path d="M21.7193 44.5997C23.602 42.5667 25.029 40.1551 25.9049 37.5264C23.2399 37.3741 20.6173 38.2444 18.5721 39.9598C16.4394 42.1864 15.0848 45.0435 14.7109 48.1039C17.3459 47.6659 19.788 46.4449 21.7193 44.5997Z" fill="white"/>
<path d="M14.5506 57.1567C13.8934 54.057 12.6845 51.1006 10.9815 48.4286C9.39041 46.1865 7.11245 44.5236 4.49219 43.6914C4.58601 47.1858 5.71528 50.5736 7.73683 53.4253C8.55555 54.4818 9.58306 55.3583 10.7553 56.0002C11.9276 56.6422 13.2195 57.0358 14.5506 57.1567Z" fill="white"/>
<path d="M21.5669 52.7438C23.1669 50.4794 24.2724 47.9036 24.8116 45.1838C22.1688 45.3435 19.686 46.5037 17.868 48.4285C16.0472 50.9107 15.0796 53.9161 15.1101 56.9943C17.6356 56.2479 19.8828 54.7686 21.5669 52.7438Z" fill="white"/>
<path d="M16.132 66.1438C15.0799 63.1424 13.4852 60.3598 11.4273 57.9349C9.54236 55.8912 7.03106 54.5328 4.28906 54.0737C4.76382 57.5395 6.26703 60.7833 8.60444 63.3858C9.59966 64.3419 10.7827 65.0808 12.0785 65.5555C13.3743 66.0303 14.7547 66.2306 16.132 66.1438Z" fill="white"/>
<path d="M22.5561 60.8225C23.857 58.3747 24.6098 55.6733 24.7624 52.9055C22.1313 53.4098 19.8021 54.9238 18.2731 57.1236C16.7906 59.8353 16.2325 62.9564 16.6833 66.0139C19.1018 64.8879 21.1419 63.0846 22.5561 60.8225Z" fill="white"/>
<path d="M11.0706 73.1199C12.184 73.9457 13.4571 74.5308 14.8089 74.8381C16.1607 75.1453 17.5616 75.1679 18.9226 74.9045C17.483 72.0386 15.5248 69.4643 13.1471 67.312C11.0138 65.5217 8.33854 64.5042 5.55469 64.4243C6.51801 67.7934 8.43329 70.8127 11.0706 73.1199Z" fill="white"/>
<path d="M24.6743 68.7397C25.6098 66.1206 26.0071 63.3396 25.8424 60.5632C24.5809 60.9743 23.4129 61.6301 22.4052 62.493C21.3974 63.356 20.5698 64.4092 19.9696 65.5924C18.8483 68.4964 18.7115 71.6882 19.5802 74.6774C21.8298 73.2475 23.603 71.1806 24.6743 68.7397Z" fill="white"/>
<path d="M14.9261 82.5292C16.1357 83.2227 17.4801 83.6481 18.8684 83.7769C20.2567 83.9056 21.6564 83.7347 22.9729 83.2755C21.1161 80.6261 18.8231 78.3112 16.1915 76.4293C13.8256 74.9335 11.0277 74.2711 8.24219 74.5474C9.65677 77.7951 11.9774 80.5663 14.9261 82.5292Z" fill="white"/>
<path d="M27.6223 76.3649C28.1835 73.6246 28.1835 70.7989 27.6223 68.0586C25.2197 69.2497 23.3794 71.3346 22.4958 73.8665C21.7732 76.9162 22.0695 80.1186 23.3394 82.984C25.4188 81.2751 26.9155 78.962 27.6223 76.3649Z" fill="white"/>
<path d="M27.9222 91.3554C25.7156 88.9132 23.103 86.8714 20.1999 85.3204C17.6493 84.1213 14.7702 83.8129 12.0234 84.4443C13.881 87.5293 16.5833 90.0176 19.8106 91.615C21.1017 92.1579 22.4948 92.4157 23.8947 92.3709C25.2946 92.3261 26.6684 91.9797 27.9222 91.3554Z" fill="white"/>
<path d="M31.5079 83.7952C31.7106 80.9564 31.324 78.1063 30.3722 75.4241C28.1577 76.9445 26.6307 79.2757 26.1217 81.9134C25.8344 85.0979 26.5979 88.2889 28.2957 90.9984C30.0877 88.9887 31.2102 86.4714 31.5079 83.7952Z" fill="white"/>
<path d="M17.0625 93.9181C19.3534 96.7975 22.4134 98.9688 25.8879 100.18C27.2528 100.568 28.6861 100.653 30.0873 100.429C31.4885 100.205 32.8238 99.6769 33.9995 98.8824C31.4028 96.7149 28.4643 94.9934 25.3039 93.7883C22.622 92.8927 19.7149 92.9385 17.0625 93.9181Z" fill="white"/>
<path d="M34.0962 82.4971C33.1098 83.3992 32.3144 84.49 31.7571 85.7049C31.1998 86.9199 30.8919 88.2343 30.8516 89.5704C31.0711 92.8367 32.3207 95.9493 34.4207 98.4607C35.918 96.1952 36.667 93.517 36.5621 90.8034C36.2922 87.8998 35.4543 85.0776 34.0962 82.4971Z" fill="white"/>
<path d="M115.522 15.625C115.453 12.226 114.318 8.93453 112.277 6.21548C110.133 3.51118 107.212 1.52938 103.906 0.537354C104.844 3.68261 106.291 6.65295 108.189 9.33034C110.233 11.8545 112.717 13.9873 115.522 15.625Z" fill="white"/>
<path d="M122.564 14.5863C122.771 10.996 121.901 7.42552 120.065 4.33325C118.172 6.42153 117.03 9.08223 116.821 11.8933C116.743 15.1953 117.225 18.4867 118.248 21.6272C119.432 20.8336 120.431 19.7936 121.176 18.5784C121.92 17.3632 122.394 16.0015 122.564 14.5863Z" fill="white"/>
<path d="M109.975 21.1088C112.463 22.0907 115.189 22.2944 117.795 21.6928C116.248 18.949 113.859 16.776 110.981 15.4956C109.718 15.063 108.38 14.8888 107.048 14.9836C105.716 15.0784 104.416 15.44 103.227 16.0472C105.101 18.1839 107.399 19.9076 109.975 21.1088Z" fill="white"/>
<path d="M121.44 30.096C122.693 29.4916 123.802 28.6257 124.692 27.5567C125.582 26.4877 126.232 25.2404 126.599 23.8987C127.275 20.4214 126.914 16.8222 125.561 13.5483C123.418 15.3482 121.944 17.8169 121.375 20.5568C120.843 23.7162 120.865 26.9441 121.44 30.096Z" fill="white"/>
<path d="M115.036 23.3151C112.607 22.166 109.828 22.0031 107.281 22.8608C108.861 25.1784 110.891 27.1537 113.251 28.6687C115.583 29.9635 118.254 30.5181 120.909 30.2586C119.758 27.367 117.697 24.9294 115.036 23.3151Z" fill="white"/>
<path d="M123.438 39.019C124.741 38.5687 125.938 37.8554 126.954 36.9233C127.97 35.9911 128.783 34.8601 129.343 33.6004C130.502 30.2675 130.649 26.6662 129.765 23.25C127.381 24.7816 125.577 27.0655 124.639 29.7393C123.69 32.7366 123.284 35.879 123.438 39.019Z" fill="white"/>
<path d="M117.944 31.4589C115.69 30.0273 112.972 29.5162 110.352 30.0313C111.589 32.5286 113.335 34.7392 115.478 36.5206C117.625 38.0863 120.188 38.9785 122.843 39.0838C122.104 36.0678 120.38 33.3845 117.944 31.4589Z" fill="white"/>
<path d="M126.612 38.9543C125.276 41.8265 124.463 44.914 124.211 48.0718C125.549 47.7967 126.816 47.2484 127.933 46.4612C129.049 45.674 129.992 44.6648 130.7 43.4968C132.258 40.3533 132.866 36.8246 132.452 33.3411C129.957 34.5411 127.91 36.508 126.612 38.9543Z" fill="white"/>
<path d="M119.763 39.9598C117.719 38.2415 115.095 37.3707 112.43 37.5263C113.315 40.1579 114.753 42.5696 116.648 44.5997C118.569 46.4407 121 47.6616 123.624 48.1038C123.25 45.0435 121.895 42.1863 119.763 39.9598Z" fill="white"/>
<path d="M127.383 48.4286C125.677 51.1029 124.458 54.0577 123.781 57.1567C125.166 57.0841 126.519 56.7166 127.75 56.0787C128.981 55.4408 130.062 54.5472 130.919 53.4578C132.865 50.5807 133.925 47.1968 133.969 43.7239C131.317 44.5265 129.002 46.1798 127.383 48.4286Z" fill="white"/>
<path d="M120.436 48.5259C118.622 46.5957 116.137 45.4345 113.492 45.2812C114.031 48.001 115.137 50.5768 116.737 52.8413C118.417 54.9058 120.678 56.42 123.226 57.1891C123.276 54.0728 122.295 51.0274 120.436 48.5259Z" fill="white"/>
<path d="M129.771 63.3862C132.062 60.7913 133.56 57.5929 134.086 54.1714C131.334 54.626 128.811 55.9846 126.916 58.0325C124.874 60.4686 123.281 63.2481 122.211 66.2415C123.6 66.3161 124.99 66.1008 126.291 65.6093C127.593 65.1177 128.778 64.3606 129.771 63.3862Z" fill="white"/>
<path d="M120.028 57.1236C118.507 54.9161 116.174 53.3999 113.539 52.9055C113.729 55.671 114.492 58.3669 115.778 60.8225C117.176 63.086 119.206 64.8906 121.618 66.0139C122.079 62.9563 121.52 59.8321 120.028 57.1236Z" fill="white"/>
<path d="M125.252 67.3118C122.895 69.4834 120.94 72.0536 119.477 74.9043C120.838 75.1677 122.239 75.1451 123.59 74.8378C124.942 74.5306 126.215 73.9455 127.329 73.1197C129.991 70.8338 131.911 67.8064 132.844 64.4241C130.062 64.509 127.388 65.5259 125.252 67.3118Z" fill="white"/>
<path d="M118.759 74.6774C119.61 71.6838 119.462 68.4943 118.337 65.5924C117.127 63.2137 115.029 61.4071 112.497 60.5632C112.313 63.3403 112.711 66.125 113.665 68.7397C114.726 71.187 116.501 73.2566 118.759 74.6774Z" fill="white"/>
<path d="M122.232 76.4295C119.597 78.325 117.323 80.6766 115.516 83.373C116.832 83.8321 118.232 84.0031 119.62 83.8744C121.008 83.7456 122.353 83.3201 123.562 82.6267C126.457 80.6551 128.712 77.8808 130.052 74.6449C127.32 74.3665 124.572 74.9935 122.232 76.4295Z" fill="white"/>
<path d="M114.942 82.984C116.212 80.1186 116.508 76.9162 115.785 73.8665C114.907 71.3422 113.08 69.2591 110.691 68.0586C110.103 70.7961 110.103 73.6274 110.691 76.3649C111.403 78.9518 112.886 81.2606 114.942 82.984Z" fill="white"/>
<path d="M118.278 85.3197C115.362 86.8648 112.737 88.9071 110.523 91.3548C111.782 91.9839 113.161 92.3329 114.567 92.3777C115.973 92.4225 117.372 92.1621 118.667 91.6143C121.897 90.0319 124.592 87.5393 126.422 84.4437C123.686 83.8121 120.817 84.1207 118.278 85.3197Z" fill="white"/>
<path d="M106.816 83.7952C107.123 86.4751 108.257 88.9928 110.061 90.9984C111.729 88.2763 112.49 85.0954 112.235 81.9134C111.713 79.281 110.189 76.9544 107.985 75.4241C107.032 78.1064 106.634 80.9545 106.816 83.7952Z" fill="white"/>
<path d="M113.03 93.7887C109.878 94.9899 106.95 96.7119 104.367 98.8828C105.543 99.6773 106.878 100.205 108.279 100.429C109.681 100.653 111.114 100.569 112.479 100.181C115.953 98.9692 119.013 96.7979 121.304 93.9184C118.64 92.9416 115.724 92.8958 113.03 93.7887Z" fill="white"/>
<path d="M104.215 82.4971C102.885 85.0847 102.07 87.9055 101.814 90.8034C101.714 93.5118 102.45 96.1852 103.923 98.4607C106.052 95.9643 107.316 92.8451 107.524 89.5704C107.47 88.2306 107.15 86.9151 106.581 85.7006C106.013 84.4861 105.209 83.3971 104.215 82.4971Z" fill="white"/>
<path d="M56.6777 55.6426V57.127H47.3711V55.8281L52.0293 50.6426C52.6022 50.0046 53.0449 49.4642 53.3574 49.0215C53.6764 48.5723 53.8978 48.1719 54.0215 47.8203C54.1517 47.4622 54.2168 47.0977 54.2168 46.7266C54.2168 46.2578 54.1191 45.8346 53.9238 45.457C53.735 45.0729 53.4551 44.7669 53.084 44.5391C52.7129 44.3112 52.2637 44.1973 51.7363 44.1973C51.1048 44.1973 50.5775 44.321 50.1543 44.5684C49.7376 44.8092 49.4251 45.1478 49.2168 45.584C49.0085 46.0202 48.9043 46.5215 48.9043 47.0879H47.0977C47.0977 46.2871 47.2734 45.5547 47.625 44.8906C47.9766 44.2266 48.4974 43.6992 49.1875 43.3086C49.8776 42.9115 50.7272 42.7129 51.7363 42.7129C52.6348 42.7129 53.403 42.8724 54.041 43.1914C54.679 43.5039 55.1673 43.9466 55.5059 44.5195C55.8509 45.0859 56.0234 45.75 56.0234 46.5117C56.0234 46.9284 55.9518 47.3516 55.8086 47.7812C55.6719 48.2044 55.4798 48.6276 55.2324 49.0508C54.9915 49.474 54.7083 49.8906 54.3828 50.3008C54.0638 50.7109 53.722 51.1146 53.3574 51.5117L49.5488 55.6426H56.6777ZM67.5371 48.8848V51.0527C67.5371 52.2181 67.4329 53.2012 67.2246 54.002C67.0163 54.8027 66.7168 55.4473 66.3262 55.9355C65.9355 56.4238 65.4635 56.7786 64.9102 57C64.3633 57.2148 63.7448 57.3223 63.0547 57.3223C62.5078 57.3223 62.0033 57.2539 61.541 57.1172C61.0788 56.9805 60.6621 56.7624 60.291 56.4629C59.9264 56.1569 59.6139 55.7598 59.3535 55.2715C59.0931 54.7832 58.8945 54.1908 58.7578 53.4941C58.6211 52.7975 58.5527 51.9837 58.5527 51.0527V48.8848C58.5527 47.7194 58.6569 46.7428 58.8652 45.9551C59.0801 45.1673 59.3828 44.5358 59.7734 44.0605C60.1641 43.5788 60.6328 43.2337 61.1797 43.0254C61.7331 42.8171 62.3516 42.7129 63.0352 42.7129C63.5885 42.7129 64.0964 42.7812 64.5586 42.918C65.0273 43.0482 65.444 43.2598 65.8086 43.5527C66.1732 43.8392 66.4824 44.2233 66.7363 44.7051C66.9967 45.1803 67.1953 45.763 67.332 46.4531C67.4688 47.1432 67.5371 47.9538 67.5371 48.8848ZM65.7207 51.3457V48.582C65.7207 47.944 65.6816 47.3841 65.6035 46.9023C65.5319 46.4141 65.4245 45.9974 65.2812 45.6523C65.138 45.3073 64.9557 45.0273 64.7344 44.8125C64.5195 44.5977 64.2689 44.4414 63.9824 44.3438C63.7025 44.2396 63.3867 44.1875 63.0352 44.1875C62.6055 44.1875 62.2246 44.2689 61.8926 44.4316C61.5605 44.5879 61.2806 44.8385 61.0527 45.1836C60.8314 45.5286 60.6621 45.9811 60.5449 46.541C60.4277 47.1009 60.3691 47.7812 60.3691 48.582V51.3457C60.3691 51.9837 60.4049 52.5469 60.4766 53.0352C60.5547 53.5234 60.6686 53.9466 60.8184 54.3047C60.9681 54.6562 61.1504 54.946 61.3652 55.1738C61.5801 55.4017 61.8275 55.571 62.1074 55.6816C62.3939 55.7858 62.7096 55.8379 63.0547 55.8379C63.4974 55.8379 63.8848 55.7533 64.2168 55.584C64.5488 55.4147 64.8255 55.151 65.0469 54.793C65.2747 54.4284 65.444 53.9629 65.5547 53.3965C65.6654 52.8236 65.7207 52.14 65.7207 51.3457ZM75.7988 42.8301V57.127H73.9922V45.0859L70.3496 46.4141V44.7832L75.5156 42.8301H75.7988ZM82.9082 55.6133H83.0938C84.1354 55.6133 84.9818 55.4668 85.6328 55.1738C86.2839 54.8809 86.7852 54.487 87.1367 53.9922C87.4883 53.4974 87.7292 52.9408 87.8594 52.3223C87.9896 51.6973 88.0547 51.056 88.0547 50.3984V48.2207C88.0547 47.5762 87.9798 47.0033 87.8301 46.502C87.6868 46.0007 87.485 45.5807 87.2246 45.2422C86.9707 44.9036 86.681 44.6465 86.3555 44.4707C86.0299 44.2949 85.6849 44.207 85.3203 44.207C84.9036 44.207 84.5293 44.2917 84.1973 44.4609C83.8717 44.6237 83.5951 44.8548 83.3672 45.1543C83.1458 45.4538 82.9766 45.8053 82.8594 46.209C82.7422 46.6126 82.6836 47.0521 82.6836 47.5273C82.6836 47.9505 82.7357 48.3607 82.8398 48.7578C82.944 49.1549 83.1035 49.513 83.3184 49.832C83.5332 50.151 83.8001 50.4049 84.1191 50.5938C84.4447 50.776 84.8255 50.8672 85.2617 50.8672C85.6654 50.8672 86.043 50.7891 86.3945 50.6328C86.7526 50.4701 87.0684 50.252 87.3418 49.9785C87.6217 49.6986 87.8431 49.3828 88.0059 49.0312C88.1751 48.6797 88.2728 48.3118 88.2988 47.9277H89.1582C89.1582 48.4681 89.0508 49.002 88.8359 49.5293C88.6276 50.0501 88.3346 50.5254 87.957 50.9551C87.5794 51.3848 87.1367 51.7298 86.6289 51.9902C86.1211 52.2441 85.5677 52.3711 84.9688 52.3711C84.2656 52.3711 83.6569 52.2344 83.1426 51.9609C82.6283 51.6875 82.2051 51.3229 81.873 50.8672C81.5475 50.4115 81.3034 49.9036 81.1406 49.3438C80.9844 48.7773 80.9062 48.2044 80.9062 47.625C80.9062 46.9479 81.0007 46.3132 81.1895 45.7207C81.3783 45.1283 81.6582 44.6074 82.0293 44.1582C82.4004 43.7025 82.8594 43.3477 83.4062 43.0938C83.9596 42.8398 84.5977 42.7129 85.3203 42.7129C86.1341 42.7129 86.8275 42.8757 87.4004 43.2012C87.9733 43.5267 88.4388 43.9629 88.7969 44.5098C89.1615 45.0566 89.4284 45.6719 89.5977 46.3555C89.7669 47.0391 89.8516 47.7422 89.8516 48.4648V49.1191C89.8516 49.8548 89.8027 50.6035 89.7051 51.3652C89.6139 52.1204 89.4349 52.8431 89.168 53.5332C88.9076 54.2233 88.5267 54.8418 88.0254 55.3887C87.5241 55.929 86.8698 56.3587 86.0625 56.6777C85.2617 56.9902 84.2721 57.1465 83.0938 57.1465H82.9082V55.6133Z" fill="white"/>
</g>
<defs>
<filter id="filter0_d_226_383" x="0.289062" y="0.537109" width="137.789" height="108" filterUnits="userSpaceOnUse" color-interpolation-filters="sRGB">
<feFlood flood-opacity="0" result="BackgroundImageFix"/>
<feColorMatrix in="SourceAlpha" type="matrix" values="0 0 0 0 0 0 0 0 0 0 0 0 0 0 0 0 0 0 127 0" result="hardAlpha"/>
<feOffset dy="4"/>
<feGaussianBlur stdDeviation="2"/>
<feComposite in2="hardAlpha" operator="out"/>
<feColorMatrix type="matrix" values="0 0 0 0 0 0 0 0 0 0 0 0 0 0 0 0 0 0 0.25 0"/>
<feBlend mode="normal" in2="BackgroundImageFix" result="effect1_dropShadow_226_383"/>
<feBlend mode="normal" in="SourceGraphic" in2="effect1_dropShadow_226_383" result="shape"/>
</filter>
<clipPath id="clip0_226_383">
<rect width="129.786" height="100" fill="white" transform="translate(4.28906 0.537109)"/>
</clipPath>
</defs>
</svg>
