<svg width="66" height="87" viewBox="0 0 66 87" fill="none" xmlns="http://www.w3.org/2000/svg">
<path d="M24.2895 64.5536L51.9117 52.8223L47.5309 8.52327L11.0694 41.8054L23.2839 64.1876L24.2895 64.5536Z" stroke="white" stroke-width="1.54873" stroke-miterlimit="10"/>
<path d="M47.5339 8.52402C32.1077 37.4492 22.2782 62.1599 21.4992 80.0536" stroke="white" stroke-width="1.54873" stroke-miterlimit="10"/>
<path d="M13.3089 39.7604L20.6726 37.3248L19.3021 45.5231L25.3893 42.3608L25.219 50.6532L29.3645 47.5094" stroke="white" stroke-width="1.54873" stroke-miterlimit="10"/>
<path d="M29.3597 47.5095L30.513 52.5819L35.7129 46.1201L38.3432 52.4553L42.5632 45.2941L46.6399 51.8937L51.056 44.2254" stroke="white" stroke-width="1.54873" stroke-miterlimit="10"/>
<path d="M22.2763 31.5745L31.2389 29.6813L30.0482 37.1276L35.2987 33.2438L37.0972 39.1428L41.9459 32.6043L45.8031 38.4351L49.7894 31.3635" stroke="white" stroke-width="1.54873" stroke-miterlimit="10"/>
<path d="M32.8463 21.9295L38.514 19.6117L37.2836 25.7135L40.9771 21.2531L40.8084 26.9964L45.402 21.5485L49.4099 27.5083" stroke="white" stroke-width="1.54873" stroke-miterlimit="10"/>
</svg>
