<svg width="51" height="42" viewBox="0 0 51 42" fill="none" xmlns="http://www.w3.org/2000/svg">
<g clip-path="url(#clip0_215_923)">
<path d="M19.6719 39.8401C19.6719 39.8401 19.6119 39.9601 19.4919 40.1601C19.3093 40.4167 19.1016 40.6545 18.8719 40.8701C18.7106 41.0184 18.5366 41.1522 18.3519 41.2701C18.1357 41.4032 17.9081 41.517 17.6719 41.6101L17.2719 41.7501C17.1247 41.7949 16.9742 41.8283 16.8219 41.8501C16.6601 41.8811 16.4964 41.9012 16.3319 41.9101C16.1524 41.9303 15.9713 41.9303 15.7919 41.9101C15.4867 41.8966 15.1827 41.8632 14.8819 41.8101C14.5719 41.7501 14.2719 41.6801 13.9619 41.5901C13.8092 41.5526 13.6589 41.5058 13.5119 41.4501L13.0519 41.3001L12.6019 41.1401L12.1419 40.9701L11.6819 40.8401L11.2219 40.6801L10.7519 40.5301L10.2619 40.4001C9.93197 40.3199 9.5982 40.2565 9.26188 40.2101C8.90091 40.1575 8.53665 40.1307 8.17188 40.1301C8.27758 40.0352 8.39525 39.9545 8.52187 39.8901C8.86395 39.7154 9.23204 39.5972 9.61187 39.5401C9.88674 39.4989 10.164 39.4755 10.4419 39.4701C10.6051 39.4605 10.7687 39.4605 10.9319 39.4701H11.1919H11.4719L12.0619 39.5601L12.3719 39.6301L12.7119 39.7001C12.9319 39.7501 13.1719 39.8101 13.4119 39.8901C13.6519 39.9701 13.9319 40.0301 14.2019 40.1201C14.4719 40.2101 14.6519 40.2501 14.8619 40.3101L15.4719 40.4501C15.8619 40.5101 16.2019 40.5601 16.4719 40.5901C16.7517 40.6048 17.0321 40.6048 17.3119 40.5901C17.534 40.5862 17.7552 40.5594 17.9719 40.5101C18.1507 40.4761 18.3276 40.4327 18.5019 40.3801C18.6491 40.3297 18.7927 40.2696 18.9319 40.2001C19.2219 40.1201 19.4419 39.9801 19.6719 39.8401Z" fill="white"/>
<path d="M13.2612 37.26C13.1755 37.3322 13.0853 37.399 12.9912 37.46C12.746 37.6238 12.4804 37.7549 12.2012 37.85C11.7928 37.9911 11.3634 38.0622 10.9312 38.06C10.6628 38.0567 10.3951 38.0299 10.1312 37.98L9.69125 37.87L9.24125 37.7L8.86125 37.53C8.74125 37.46 8.62125 37.4 8.50125 37.32C8.38125 37.24 8.03125 37.02 7.80125 36.86L7.12125 36.33L6.45125 35.78C5.99619 35.4168 5.51856 35.0828 5.02125 34.78C4.47745 34.4357 3.89297 34.1602 3.28125 33.96C3.40329 33.9111 3.53094 33.8775 3.66125 33.86C3.81096 33.8468 3.96154 33.8468 4.11125 33.86C4.31104 33.847 4.51146 33.847 4.71125 33.86C4.96199 33.8972 5.20943 33.954 5.45125 34.03L5.87125 34.18C6.01125 34.24 6.17125 34.3 6.32125 34.38C6.47125 34.46 6.64125 34.54 6.80125 34.63L7.32125 34.94C7.50125 35.05 7.68125 35.18 7.87125 35.31L8.47125 35.75L8.72125 35.95C8.80838 36.0009 8.89191 36.0577 8.97125 36.12L9.44125 36.43C9.75125 36.62 10.0312 36.76 10.2812 36.89L10.4712 36.98L10.6512 37.06L10.9912 37.19C11.1835 37.2583 11.3808 37.3118 11.5812 37.35C11.8841 37.4095 12.1929 37.433 12.5012 37.42C12.7587 37.3888 13.013 37.3352 13.2612 37.26Z" fill="white"/>
<path d="M8.2 32.5499L7.9 32.6399C7.63682 32.6942 7.36872 32.721 7.1 32.7199C6.91874 32.7136 6.73821 32.6936 6.56 32.6599C6.34822 32.6288 6.14037 32.5752 5.94 32.4999C5.43974 32.3242 4.98043 32.0486 4.59 31.6899C4.21768 31.3459 3.88251 30.9638 3.59 30.5499C3.44 30.3399 3.31 30.1199 3.16 29.8999L2.95 29.5699L2.74 29.2399C2.6 29.0199 2.45 28.7999 2.29 28.5799C2.13521 28.3575 1.96829 28.1439 1.79 27.9399L1.51 27.6299L1.21 27.3299C0.988368 27.1219 0.750996 26.9313 0.5 26.7599H0.59C0.679824 26.7519 0.770176 26.7519 0.860001 26.7599C1.18313 26.8079 1.49685 26.9057 1.79 27.0499C1.99684 27.1485 2.19432 27.2656 2.38 27.3999C2.61577 27.5639 2.83966 27.7443 3.05 27.9399C3.30105 28.1829 3.5381 28.44 3.76 28.7099C4.02981 29.0304 4.28346 29.3641 4.52 29.7099C4.63 29.8799 4.74 30.0299 4.85 30.1699C4.96 30.3099 5.06 30.4499 5.17 30.5799C5.26211 30.6999 5.36235 30.8135 5.47 30.9199L5.75 31.2199L6.02 31.4799L6.27 31.6899C6.41708 31.8053 6.57067 31.9121 6.73 32.0099C6.97346 32.1604 7.23572 32.2781 7.51 32.3599C7.73565 32.4381 7.96613 32.5015 8.2 32.5499Z" fill="white"/>
<path d="M4.93 26.4499H4.65C4.40805 26.4182 4.17009 26.3612 3.94 26.2799C3.5988 26.1535 3.28111 25.971 3 25.7399C2.82542 25.5989 2.6647 25.4415 2.52 25.2699C2.34958 25.0739 2.20196 24.8592 2.08 24.6299C2.02 24.5299 1.97 24.4299 1.92 24.3299L1.85 24.1799L1.79 24.0199C1.71 23.7999 1.64 23.5799 1.57 23.3599C1.49481 23.1376 1.43467 22.9104 1.39 22.6799L1.21 21.9899C1.16 21.7499 1.09 21.5199 1.02 21.2899L0.9 20.9399L0.780001 20.5899C0.582282 20.0912 0.320048 19.6205 0 19.1899C0.112091 19.2136 0.219969 19.2541 0.32 19.3099C0.603023 19.4397 0.860443 19.6192 1.08 19.8399C1.41571 20.177 1.69586 20.5651 1.91 20.9899C2.06133 21.2664 2.1917 21.5539 2.3 21.8499C2.43718 22.2131 2.55402 22.5837 2.65 22.9599C2.75 23.3099 2.85 23.6299 2.95 23.8999C3.05 24.1699 3.17 24.4199 3.27 24.6299C3.37 24.8399 3.37 24.8399 3.42 24.9299C3.46741 25.0201 3.52087 25.107 3.58 25.1899C3.66786 25.3351 3.76824 25.4723 3.88 25.5999C4.04063 25.8051 4.22912 25.9869 4.44 26.1399C4.58 26.2399 4.75 26.3399 4.93 26.4499Z" fill="white"/>
<path d="M3.81312 19.6201L3.58312 19.5201C3.38093 19.4139 3.19281 19.2829 3.02312 19.1301C2.77702 18.9155 2.5676 18.6621 2.40312 18.3801C2.29863 18.2057 2.21155 18.0215 2.14312 17.8301C2.06421 17.6122 2.00399 17.3881 1.96312 17.1601C1.88505 16.3409 1.90183 15.5154 2.01312 14.7001C2.01312 14.4901 2.01312 14.2801 2.01312 14.0701C2.02809 13.8536 2.02809 13.6365 2.01312 13.4201C1.99377 13.1949 1.96037 12.9711 1.91312 12.7501C1.86013 12.5152 1.78995 12.2846 1.70312 12.0601C1.79052 12.1095 1.87118 12.17 1.94312 12.2401C2.13588 12.4217 2.30096 12.6306 2.43312 12.8601C2.52316 13.0272 2.60006 13.201 2.66312 13.3801C2.74455 13.5971 2.80483 13.8215 2.84312 14.0501C2.95093 14.6673 2.97782 15.2959 2.92312 15.9201C2.92312 16.2401 2.92312 16.5301 2.92312 16.8001C2.92312 17.0701 2.92312 17.3001 2.92312 17.5101C2.95966 17.8504 3.03344 18.1858 3.14312 18.5101C3.21755 18.7345 3.31825 18.9493 3.44312 19.1501C3.57312 19.3301 3.69312 19.4701 3.81312 19.6201Z" fill="white"/>
<path d="M4.9391 12.8401C4.72797 12.6578 4.54883 12.4415 4.4091 12.2001C4.26012 11.9477 4.14894 11.6748 4.0791 11.3901C4.03635 11.2163 4.00958 11.0389 3.9991 10.8601C3.97947 10.6539 3.97947 10.4463 3.9991 10.2401C4.05396 9.89931 4.14102 9.56448 4.2591 9.24011L4.4391 8.73012C4.5091 8.56012 4.5791 8.38011 4.6391 8.21011C4.6991 8.04011 4.7591 7.86011 4.8091 7.68011C4.8591 7.50011 4.8991 7.31012 4.9391 7.12012C5.01212 6.70762 5.02894 6.28713 4.9891 5.87012C5.05041 5.93731 5.10407 6.01109 5.1491 6.09012C5.27404 6.29176 5.3684 6.5108 5.4291 6.74011C5.51622 7.10665 5.54324 7.48492 5.5091 7.86012C5.4855 8.10917 5.44541 8.35637 5.3891 8.60011C5.31875 8.89802 5.23195 9.19181 5.1291 9.48012C4.83393 10.2049 4.67462 10.9777 4.6591 11.7601C4.66503 11.9696 4.69523 12.1776 4.7491 12.3801C4.8191 12.4701 4.8791 12.6201 4.9391 12.8401Z" fill="white"/>
<path d="M7.87016 6.4998C7.73445 6.28936 7.63947 6.0553 7.59016 5.8098C7.52843 5.55808 7.50483 5.29852 7.52016 5.03979C7.54634 4.69472 7.63088 4.35659 7.77016 4.03979C7.91157 3.75184 8.07892 3.47738 8.27016 3.2198L8.88016 2.4498C8.98016 2.3198 9.08016 2.17979 9.17016 2.03979C9.27175 1.90057 9.36204 1.75343 9.44016 1.59979C9.62696 1.27038 9.76825 0.917176 9.86016 0.549805C9.89265 0.623377 9.91616 0.700598 9.93016 0.7798C9.9635 0.991831 9.9635 1.20777 9.93016 1.4198C9.81917 2.24709 9.47196 3.02484 8.93016 3.65981C8.78718 3.84285 8.65367 4.03309 8.53016 4.2298L8.37016 4.4798L8.24016 4.70979C8.16016 4.85979 8.10016 4.9998 8.05016 5.1198C8.00278 5.2338 7.96269 5.35071 7.93016 5.4698C7.87975 5.64921 7.84956 5.83368 7.84016 6.01979C7.85016 6.18979 7.86016 6.3398 7.87016 6.4998Z" fill="white"/>
<path d="M19.6733 39.8399C19.6616 39.7187 19.6415 39.5984 19.6133 39.4799C19.5555 39.1734 19.4719 38.8723 19.3633 38.5799C19.3033 38.3999 19.2233 38.2199 19.1333 38.0199C19.0419 37.8139 18.9384 37.6136 18.8233 37.4199C18.7633 37.3199 18.7033 37.2199 18.6333 37.1199C18.5633 37.0199 18.4933 36.9099 18.4133 36.8099C18.342 36.7032 18.2617 36.6029 18.1733 36.5099C18.0933 36.4099 17.9933 36.3099 17.9033 36.2099C17.7498 36.0526 17.5861 35.9056 17.4133 35.7699C17.2533 35.6199 17.0833 35.4799 16.9133 35.3499L16.6633 35.1499L16.4133 34.9399L16.1633 34.7199C16.0833 34.6499 16.0133 34.5699 15.9333 34.4899L15.7133 34.2499C15.6378 34.1643 15.5677 34.0741 15.5033 33.9799L15.3233 33.6999L15.2433 33.5499C15.214 33.4994 15.1905 33.4457 15.1733 33.3899C15.0765 33.1689 15.0061 32.9373 14.9633 32.6999C14.9327 32.4274 14.9327 32.1524 14.9633 31.8799C14.8821 31.993 14.8118 32.1135 14.7533 32.2399C14.6099 32.5565 14.5188 32.8942 14.4833 33.2399C14.4535 33.4689 14.4535 33.7009 14.4833 33.9299C14.4833 34.0599 14.4833 34.1899 14.5533 34.3199L14.6133 34.5299C14.6133 34.5899 14.6133 34.6599 14.6933 34.7299C14.7733 34.7999 14.8233 35.0099 14.9033 35.1599C14.9429 35.2354 14.9863 35.3088 15.0333 35.3799L15.1933 35.5899C15.3087 35.7459 15.4358 35.893 15.5733 36.0299C15.7275 36.1834 15.8911 36.327 16.0633 36.4599L16.5133 36.7899L16.9133 37.0999C17.1733 37.2899 17.4033 37.4599 17.6033 37.6299C17.7996 37.7675 17.9867 37.9178 18.1633 38.0799C18.3333 38.2199 18.4833 38.3399 18.6133 38.4699C18.7345 38.5823 18.848 38.7025 18.9533 38.8299L19.2333 39.1699C19.3733 39.3799 19.5133 39.5999 19.6733 39.8399Z" fill="white"/>
<path d="M13.2697 37.2499C13.303 37.1416 13.3297 37.0314 13.3497 36.9199C13.4026 36.6361 13.4327 36.3485 13.4397 36.0599C13.4516 35.6612 13.4215 35.2623 13.3497 34.8699C13.3107 34.6392 13.2539 34.4118 13.1797 34.1899C13.1797 34.0799 13.0997 33.9599 13.0597 33.8499C13.0197 33.7399 12.9697 33.6099 12.9097 33.4899C12.8657 33.3935 12.8156 33.2999 12.7597 33.2099L12.6097 32.9299C12.4997 32.7499 12.3897 32.5699 12.2697 32.3999C12.1497 32.2299 12.0497 32.0399 11.9297 31.8599C11.8097 31.6799 11.7197 31.4999 11.6197 31.3099C11.4197 30.9282 11.2845 30.5159 11.2197 30.0899C11.1584 29.5981 11.2097 29.0989 11.3697 28.6299C11.2705 28.7102 11.18 28.8007 11.0997 28.8999C11.0046 29.0041 10.9208 29.1181 10.8497 29.2399C10.7505 29.3911 10.6667 29.5519 10.5997 29.7199C10.5229 29.9274 10.4659 30.1417 10.4297 30.3599C10.4297 30.4699 10.4297 30.5999 10.4297 30.7299C10.4297 30.8599 10.4297 30.9899 10.4297 31.1299C10.4297 31.2699 10.4297 31.4299 10.4997 31.5799C10.5374 31.7435 10.5875 31.904 10.6497 32.0599C10.7139 32.2337 10.7874 32.4039 10.8697 32.5699C10.9639 32.7517 11.0674 32.9286 11.1797 33.0999C11.7865 33.9216 12.3313 34.7873 12.8097 35.6899C12.9428 35.9534 13.0435 36.2321 13.1097 36.5199C13.1597 36.7699 13.2097 36.9999 13.2697 37.2499Z" fill="white"/>
<path d="M8.23057 32.5298C8.29065 32.4475 8.34415 32.3606 8.39057 32.2698C8.52279 32.0372 8.63325 31.7928 8.72056 31.5398C9.0011 30.7624 9.08694 29.9281 8.97056 29.1098C8.90208 28.7176 8.80856 28.3301 8.69057 27.9498C8.69057 27.7598 8.59057 27.5698 8.53057 27.3798C8.47057 27.1898 8.48056 27.1898 8.45056 27.0898C8.44495 26.9932 8.44495 26.8964 8.45056 26.7998C8.40919 26.6021 8.38245 26.4015 8.37057 26.1998C8.35064 25.997 8.35064 25.7927 8.37057 25.5898C8.38086 25.4816 8.40094 25.3745 8.43056 25.2698C8.43056 25.1698 8.49057 25.0598 8.53057 24.9598C8.61447 24.734 8.72527 24.5191 8.86056 24.3198H8.77056L8.55057 24.4498C8.30282 24.6137 8.08613 24.8202 7.91057 25.0598C7.7871 25.2222 7.67992 25.3964 7.59056 25.5798C7.50214 25.803 7.43518 26.034 7.39057 26.2698C7.34898 26.565 7.34898 26.8646 7.39057 27.1598C7.41771 27.5236 7.48821 27.8828 7.60056 28.2298C7.60056 28.3898 7.70056 28.5498 7.74056 28.6998C7.78056 28.8498 7.83057 28.9898 7.87057 29.1198C7.91057 29.2498 7.95056 29.3898 7.99056 29.5098C8.03056 29.6298 8.06056 29.7498 8.09056 29.8598C8.12056 29.9698 8.14056 30.0798 8.17056 30.1898C8.20056 30.2998 8.17056 30.3798 8.24056 30.4698C8.31056 30.5598 8.31056 30.8298 8.33056 30.9798C8.35435 31.2526 8.35435 31.527 8.33056 31.7998C8.28056 32.0798 8.25057 32.2998 8.23057 32.5298Z" fill="white"/>
<path d="M4.97656 26.4299C5.05407 26.3752 5.12759 26.315 5.19656 26.2499C5.37479 26.0833 5.53561 25.899 5.67656 25.6999C5.87892 25.4283 6.05315 25.1368 6.19656 24.8299C6.27856 24.6479 6.34871 24.4609 6.40656 24.2699C6.46485 24.0626 6.51159 23.8523 6.54656 23.6399C6.55585 23.5468 6.55585 23.453 6.54656 23.3599V23.0899C6.54656 22.9099 6.54656 22.7199 6.54656 22.5399C6.53665 22.3567 6.53665 22.1731 6.54656 21.9899C6.54766 21.6233 6.58788 21.2579 6.66656 20.8999C6.68862 20.8086 6.71532 20.7185 6.74656 20.6299C6.74656 20.5399 6.81656 20.4499 6.85656 20.3599C6.94151 20.1815 7.04189 20.0108 7.15656 19.8499C7.29158 19.6763 7.4459 19.5186 7.61656 19.3799C7.50776 19.3921 7.40052 19.4155 7.29656 19.4499C7.03553 19.53 6.78905 19.6516 6.56656 19.8099C6.24441 20.0633 5.9816 20.3842 5.79656 20.7499C5.68513 20.9951 5.59481 21.2493 5.52656 21.5099C5.46396 21.8396 5.43049 22.1743 5.42656 22.5099C5.42656 22.8199 5.42656 23.1099 5.42656 23.3699C5.42656 23.6299 5.42656 23.8599 5.42656 24.0799C5.42656 24.2999 5.42656 24.2799 5.42656 24.3799C5.42656 24.4799 5.42656 24.5699 5.42656 24.6499C5.42656 24.7299 5.42656 24.9799 5.36656 25.1199C5.31919 25.3638 5.25572 25.6043 5.17656 25.8399C5.14656 26.0499 5.07656 26.2399 4.97656 26.4299Z" fill="white"/>
<path d="M3.88281 19.6201L4.12281 19.5201C4.31658 19.4226 4.50366 19.3124 4.68281 19.1901C4.93575 19.0104 5.17023 18.8061 5.38281 18.5801C5.63733 18.277 5.84929 17.9406 6.01281 17.5801C6.30281 16.9701 6.44281 16.2901 6.69281 15.6501C6.93976 14.9542 7.43467 14.3739 8.08281 14.0201C7.98309 14.0096 7.88254 14.0096 7.78281 14.0201C7.53456 14.0402 7.29131 14.101 7.06281 14.2001C6.9048 14.2721 6.7541 14.3592 6.61281 14.4601C6.44709 14.5859 6.29313 14.7265 6.15281 14.8801C5.79292 15.3125 5.53031 15.8172 5.38281 16.3601C5.30281 16.6401 5.22281 16.8901 5.15281 17.1201C5.08281 17.3501 5.01281 17.5601 4.95281 17.7401C4.85063 18.0419 4.72698 18.336 4.58281 18.6201C4.47815 18.8216 4.35424 19.0125 4.21281 19.1901C4.13281 19.3401 4.00281 19.4801 3.88281 19.6201Z" fill="white"/>
<path d="M5.02344 12.8401C5.29756 12.8138 5.56675 12.7499 5.82344 12.6501C6.08877 12.552 6.34074 12.421 6.57344 12.2601C6.70011 12.1734 6.8301 12.0734 6.96344 11.9601C7.09678 11.8364 7.22047 11.7027 7.33344 11.5601C7.52614 11.3136 7.69997 11.0528 7.85344 10.7801L8.09344 10.3701C8.17344 10.2301 8.25344 10.1001 8.34344 9.97012C8.42786 9.83145 8.52494 9.70089 8.63344 9.58012C8.73915 9.45942 8.85273 9.34582 8.97344 9.24011C9.26932 9.0072 9.60958 8.83707 9.97344 8.74011C9.89303 8.70944 9.809 8.68927 9.72344 8.68011C9.50169 8.64244 9.27518 8.64244 9.05344 8.68011C8.71434 8.74382 8.39544 8.88784 8.12344 9.10011C7.93747 9.2387 7.76951 9.39996 7.62344 9.58012C7.44164 9.79416 7.2809 10.0252 7.14344 10.2701C6.81284 10.9206 6.41393 11.5341 5.95344 12.1001C5.82185 12.2557 5.67058 12.3935 5.50344 12.5101C5.35136 12.6312 5.19097 12.7415 5.02344 12.8401Z" fill="white"/>
<path d="M7.95312 6.55C8.19507 6.58676 8.44118 6.58676 8.68312 6.55C9.24091 6.48299 9.76988 6.26517 10.2131 5.91999C10.4274 5.74565 10.628 5.55508 10.8131 5.34999C11.0131 5.15999 11.1931 4.94998 11.4031 4.76998L11.7331 4.5L12.1031 4.28999C12.3884 4.15822 12.6989 4.08998 13.0131 4.08999C12.9497 4.04774 12.8828 4.01095 12.8131 3.97999C12.6324 3.90157 12.4397 3.85424 12.2431 3.83999C11.9379 3.82132 11.6327 3.87619 11.3531 4C10.9363 4.18031 10.5642 4.44999 10.2631 4.78999C10.1031 4.94999 9.96313 5.12 9.82313 5.25L9.62313 5.44999L9.45312 5.61999C9.35183 5.71929 9.24499 5.81277 9.13313 5.89999C9.04862 5.97982 8.95838 6.05335 8.86312 6.11999C8.71401 6.2254 8.55288 6.31268 8.38313 6.37998C8.24408 6.44695 8.10037 6.50377 7.95312 6.55Z" fill="white"/>
<path d="M22.5907 40.0001V40.1901H22.0307C21.8042 40.2034 21.5771 40.2034 21.3507 40.1901H20.9207H20.6807H20.4307C20.0543 40.1462 19.6804 40.0828 19.3107 40.0001L19.0007 39.9401L18.6807 39.8701L18.0007 39.6901C15.748 39.021 13.6437 37.9281 11.8007 36.4701C9.49258 34.6462 7.59469 32.3565 6.23066 29.7501C5.86109 29.0611 5.52731 28.3535 5.23066 27.6301L5.02066 27.0801C4.96066 26.8901 4.88066 26.7101 4.83066 26.5201C4.71066 26.1501 4.58066 25.7801 4.49066 25.3901L4.33066 24.8301L4.20066 24.2501C4.11066 23.8701 4.05066 23.4801 3.99066 23.0901C3.99066 22.9001 3.93066 22.7101 3.90066 22.5101C3.87066 22.3101 3.90066 22.1301 3.83066 21.9301C3.76066 21.7301 3.83066 21.5401 3.83066 21.3501C3.83066 21.1601 3.83066 20.9601 3.83066 20.7701C3.78561 20.0041 3.78561 19.2361 3.83066 18.4701C3.89066 17.7101 3.99066 16.9701 4.11066 16.2401C4.23066 15.5101 4.39066 14.8101 4.57066 14.1201C4.75066 13.4301 4.96066 12.7701 5.18066 12.1201C5.60162 10.9228 6.1062 9.75662 6.69066 8.6301C7.17976 7.67616 7.73443 6.75729 8.35066 5.8801C8.82449 5.18652 9.33522 4.51889 9.88066 3.8801L10.2107 3.5201C10.3107 3.4101 10.4107 3.3001 10.5107 3.2101L10.9907 2.7301L11.4007 2.3501L11.5307 2.4901L11.1207 2.8701C10.9807 2.9901 10.8307 3.1601 10.6407 3.3401L10.3507 3.6501C10.244 3.76343 10.134 3.88343 10.0207 4.0101C9.47271 4.59012 8.95854 5.20112 8.48066 5.8401C7.87211 6.7134 7.32094 7.62532 6.83066 8.5701C6.24712 9.68884 5.7458 10.8486 5.33066 12.0401C5.11066 12.6701 4.91066 13.3301 4.73066 14.0401C4.55066 14.7501 4.40066 15.4201 4.26066 16.1401C4.12066 16.8601 4.05066 17.6001 3.99066 18.3501C3.94561 19.1094 3.94561 19.8708 3.99066 20.6301C3.99066 20.8201 3.99066 21.0101 3.99066 21.2001C3.99066 21.3901 3.99066 21.5901 3.99066 21.7801C3.99066 21.9701 4.04066 22.1701 4.06066 22.3601C4.08066 22.5501 4.11066 22.7401 4.14066 22.9301C4.21066 23.3201 4.27066 23.7001 4.36066 24.0801L4.49066 24.6501L4.64066 25.2201C4.73066 25.5901 4.86066 25.9601 4.98066 26.3301C4.98066 26.5201 5.11066 26.7001 5.17066 26.8801L5.38066 27.4301C5.6771 28.1471 6.01089 28.848 6.38066 29.5301C7.74073 32.1077 9.62026 34.3754 11.9007 36.1901C12.8915 36.9609 13.9568 37.6309 15.0807 38.1901C16.0433 38.6699 17.0474 39.0615 18.0807 39.3601L18.7407 39.5301L19.0607 39.6001L19.3707 39.6701C19.7707 39.7601 20.1407 39.8001 20.4807 39.8601H20.7207H20.9607H21.3807C21.6407 39.8601 21.8707 39.8601 22.0507 39.8601L22.5907 40.0001Z" fill="white"/>
<path d="M12.4335 2.17999C12.7635 1.86999 13.3335 1.28999 13.8735 0.819992C14.1435 0.599992 14.3935 0.37999 14.5935 0.23999L14.9035 0L14.5335 0.110001C14.2316 0.197435 13.9345 0.300913 13.6435 0.419998C13.3035 0.569998 12.9335 0.730004 12.6435 0.910004L12.4035 1.03999L12.1735 1.17999L11.7935 1.42C11.6175 1.55599 11.4595 1.71394 11.3235 1.89C11.2192 2.03799 11.1288 2.19533 11.0535 2.36C11.0044 2.47677 10.9643 2.59712 10.9335 2.72C10.9284 2.76653 10.9284 2.81347 10.9335 2.86C11.0919 2.86828 11.2505 2.8514 11.4035 2.81C11.5761 2.76856 11.7413 2.70112 11.8935 2.61C12.0918 2.49121 12.2734 2.3466 12.4335 2.17999Z" fill="white"/>
<path d="M30.9062 39.8399C30.918 39.7187 30.938 39.5984 30.9662 39.4799C31.024 39.1734 31.1077 38.8723 31.2162 38.5799C31.2762 38.3999 31.3562 38.2199 31.4462 38.0199C31.5377 37.8139 31.6412 37.6136 31.7562 37.4199C31.8162 37.3199 31.8762 37.2199 31.9462 37.1199C32.0162 37.0199 32.0862 36.9099 32.1662 36.8099C32.2375 36.7032 32.3178 36.6029 32.4062 36.5099C32.4863 36.4099 32.5862 36.3099 32.6762 36.2099C32.8297 36.0526 32.9934 35.9056 33.1662 35.7699C33.3262 35.6199 33.4962 35.4799 33.6662 35.3499L33.9162 35.1499L34.1662 34.9399L34.4162 34.7199C34.4962 34.6499 34.5662 34.5699 34.6462 34.4899L34.8662 34.2499C34.9417 34.1643 35.0119 34.0741 35.0762 33.9799L35.2562 33.6999L35.3362 33.5499C35.3362 33.5499 35.3863 33.4499 35.4062 33.3899C35.503 33.1689 35.5735 32.9373 35.6162 32.6999C35.6469 32.4274 35.6469 32.1524 35.6162 31.8799C35.6975 31.993 35.7678 32.1135 35.8262 32.2399C35.9651 32.5581 36.0561 32.8951 36.0962 33.2399C36.121 33.4692 36.121 33.7006 36.0962 33.9299C36.0792 34.0617 36.0525 34.192 36.0162 34.3199C36.0208 34.3898 36.0208 34.46 36.0162 34.5299C36.0162 34.5899 35.9662 34.6599 35.9362 34.7299C35.9062 34.7999 35.8062 35.0099 35.7262 35.1599L35.5962 35.3799L35.4362 35.5899C35.3172 35.7459 35.1869 35.893 35.0462 36.0299C34.8979 36.1857 34.7374 36.3295 34.5662 36.4599L34.1162 36.7899L33.7162 37.0999C33.4562 37.2899 33.2262 37.4599 33.0262 37.6299C32.83 37.7675 32.6429 37.9178 32.4662 38.0799C32.2962 38.2199 32.1462 38.3399 32.0162 38.4699C31.8951 38.5823 31.7815 38.7025 31.6762 38.8299C31.5762 38.9499 31.4762 39.0599 31.3962 39.1699C31.3162 39.2799 31.0763 39.5999 30.9062 39.8399Z" fill="white"/>
<path d="M37.3132 37.2499C37.2799 37.1416 37.2532 37.0314 37.2332 36.9199C37.1802 36.6361 37.1501 36.3485 37.1432 36.0599C37.1312 35.6612 37.1614 35.2623 37.2332 34.8699C37.2721 34.6392 37.3289 34.4118 37.4032 34.1899C37.4342 34.0736 37.4743 33.9599 37.5232 33.8499C37.5646 33.7265 37.6147 33.6062 37.6732 33.4899C37.7172 33.3935 37.7673 33.2999 37.8232 33.2099L37.9732 32.9299C38.0832 32.7499 38.1932 32.5699 38.3132 32.3999C38.4332 32.2299 38.5332 32.0399 38.6532 31.8599C38.7732 31.6799 38.8632 31.4999 38.9632 31.3099C39.1588 30.9264 39.2938 30.5148 39.3632 30.0899C39.4244 29.5981 39.3731 29.0989 39.2132 28.6299C39.3124 28.7102 39.4029 28.8007 39.4832 28.8999C39.5787 29.0062 39.6656 29.1199 39.7432 29.2399C39.8351 29.3937 39.9153 29.5541 39.9832 29.7199C40.06 29.9274 40.1169 30.1417 40.1532 30.3599C40.1532 30.4699 40.1532 30.5999 40.1532 30.7299C40.1532 30.8599 40.1532 30.9899 40.1532 31.1299C40.1532 31.2699 40.1532 31.4299 40.0832 31.5799C40.0132 31.7299 39.9932 31.8899 39.9332 32.0599C39.8689 32.2337 39.7955 32.4039 39.7132 32.5699C39.6189 32.7517 39.5155 32.9286 39.4032 33.0999C38.7964 33.9216 38.2515 34.7873 37.7732 35.6899C37.6401 35.9534 37.5393 36.2321 37.4732 36.5199C37.4232 36.7699 37.3732 36.9999 37.3132 37.2499Z" fill="white"/>
<path d="M42.3529 32.5298C42.2928 32.4475 42.2393 32.3606 42.1929 32.2698C42.0607 32.0372 41.9502 31.7928 41.8629 31.5398C41.5824 30.7624 41.4965 29.9281 41.6129 29.1098C41.6766 28.7166 41.7702 28.3288 41.8929 27.9498C41.8929 27.7598 41.9929 27.5698 42.0529 27.3798C42.1129 27.1898 42.0529 27.1898 42.1329 27.0898C42.2129 26.9898 42.1329 26.8998 42.1329 26.7998C42.1743 26.6021 42.201 26.4015 42.2129 26.1998C42.2278 25.9968 42.2278 25.7929 42.2129 25.5898C42.2026 25.4816 42.1825 25.3745 42.1529 25.2698C42.1529 25.1698 42.0929 25.0598 42.0529 24.9598C41.969 24.734 41.8582 24.5191 41.7229 24.3198H41.8129L42.0329 24.4498C42.2807 24.6137 42.4974 24.8202 42.6729 25.0598C42.7965 25.2202 42.9006 25.3948 42.9829 25.5798C43.0794 25.8009 43.1499 26.0325 43.1929 26.2698C43.2512 26.5627 43.268 26.8623 43.2429 27.1598C43.2109 27.5229 43.1405 27.8816 43.0329 28.2298C43.0329 28.3898 42.9329 28.5498 42.8929 28.6998C42.8529 28.8498 42.7929 28.9898 42.7629 29.1198C42.7329 29.2498 42.6729 29.3898 42.6429 29.5098L42.5429 29.8598C42.5429 29.9798 42.5429 30.0798 42.4629 30.1898C42.3829 30.2998 42.4129 30.3798 42.3929 30.4698C42.3729 30.5598 42.3229 30.8298 42.3029 30.9798C42.2741 31.2524 42.2741 31.5273 42.3029 31.7998C42.3029 32.0798 42.3329 32.2998 42.3529 32.5298Z" fill="white"/>
<path d="M45.6009 26.4299C45.5234 26.3752 45.4499 26.315 45.3809 26.2499C45.2027 26.0833 45.0419 25.899 44.9009 25.6999C44.6986 25.4283 44.5244 25.1368 44.3809 24.8299C44.2989 24.6479 44.2288 24.4609 44.1709 24.2699C44.1127 24.0626 44.0659 23.8523 44.0309 23.6399C44.0216 23.5468 44.0216 23.453 44.0309 23.3599V23.0899C44.0309 22.9099 44.0309 22.7199 44.0309 22.5399C44.0408 22.3567 44.0408 22.1731 44.0309 21.9899C44.0298 21.6233 43.9896 21.2579 43.9109 20.8999C43.8889 20.8086 43.8622 20.7185 43.8309 20.6299C43.8309 20.5399 43.7609 20.4499 43.7209 20.3599C43.636 20.1815 43.5356 20.0108 43.4209 19.8499C43.2859 19.6763 43.1316 19.5186 42.9609 19.3799C43.0697 19.3921 43.177 19.4155 43.2809 19.4499C43.542 19.53 43.7885 19.6516 44.0109 19.8099C44.3331 20.0633 44.5959 20.3842 44.7809 20.7499C44.8924 20.9951 44.9827 21.2493 45.0509 21.5099C45.1135 21.8396 45.147 22.1743 45.1509 22.5099C45.1509 22.8199 45.1509 23.1099 45.1509 23.3699C45.1509 23.6299 45.1509 23.8599 45.1509 24.0799C45.1509 24.2999 45.1509 24.2799 45.1509 24.3799C45.1509 24.4799 45.1509 24.5699 45.1509 24.6499C45.1509 24.7299 45.1509 24.9799 45.2109 25.1199C45.2536 25.3649 45.3171 25.6058 45.4009 25.8399C45.4309 26.0499 45.5109 26.2399 45.6009 26.4299Z" fill="white"/>
<path d="M46.7009 19.6201L46.4609 19.5201C46.2672 19.4226 46.0801 19.3124 45.9009 19.1901C45.648 19.0104 45.4135 18.8061 45.2009 18.5801C45.0804 18.4426 44.9669 18.2991 44.8609 18.1501C44.7541 17.9826 44.6573 17.809 44.5709 17.6301C44.2809 17.0201 44.1409 16.3401 43.8909 15.7001C43.645 14.9788 43.1337 14.3781 42.4609 14.0201C42.5607 14.0096 42.6612 14.0096 42.7609 14.0201C43.0092 14.0402 43.2524 14.101 43.4809 14.2001C43.639 14.2721 43.7896 14.3592 43.9309 14.4601C44.0955 14.5836 44.2464 14.7244 44.3809 14.8801C44.7479 15.3092 45.0144 15.8148 45.1609 16.3601C45.2409 16.6401 45.3209 16.8901 45.3909 17.1201C45.4609 17.3501 45.5209 17.5601 45.5909 17.7401C45.6931 18.0419 45.8168 18.336 45.9609 18.6201C46.0656 18.8216 46.1895 19.0125 46.3309 19.1901C46.4509 19.3401 46.5809 19.4801 46.7009 19.6201Z" fill="white"/>
<path d="M45.5462 12.8401C45.2723 12.8128 45.0032 12.7489 44.7462 12.6501C44.4841 12.5518 44.2355 12.4208 44.0062 12.2601C43.8729 12.1734 43.7429 12.0734 43.6162 11.9601C43.4829 11.8364 43.3592 11.7027 43.2462 11.5601C43.0535 11.3136 42.8797 11.0528 42.7262 10.7801L42.4863 10.3701C42.4063 10.2301 42.3263 10.1001 42.2363 9.97012C42.1485 9.8337 42.0516 9.7034 41.9463 9.58012C41.8371 9.45933 41.7202 9.34574 41.5962 9.24011C41.3201 9.01133 41.0003 8.84121 40.6562 8.74011C40.7367 8.70944 40.8207 8.68927 40.9062 8.68011C41.128 8.64244 41.3545 8.64244 41.5762 8.68011C41.9153 8.74382 42.2342 8.88784 42.5062 9.10011C42.6922 9.2387 42.8602 9.39996 43.0062 9.58012C43.188 9.79416 43.3488 10.0252 43.4863 10.2701C43.8168 10.9206 44.2158 11.5341 44.6762 12.1001C44.8078 12.2557 44.9591 12.3935 45.1263 12.5101C45.2663 12.6301 45.4062 12.7101 45.5462 12.8401Z" fill="white"/>
<path d="M42.6303 6.55C42.3884 6.58676 42.1423 6.58676 41.9003 6.55C41.3425 6.48299 40.8136 6.26517 40.3703 5.91999C40.155 5.74318 39.9513 5.55278 39.7603 5.34999C39.5703 5.15999 39.3903 4.94998 39.1803 4.76998L38.8503 4.5L38.4803 4.28999C38.195 4.15822 37.8845 4.08998 37.5703 4.08999C37.6338 4.04774 37.7007 4.01095 37.7703 3.97999C37.9511 3.90157 38.1438 3.85424 38.3403 3.83999C38.6455 3.82132 38.9507 3.87619 39.2303 4C39.6471 4.18031 40.0192 4.44999 40.3203 4.78999C40.4803 4.94999 40.6203 5.12 40.7603 5.25L40.9503 5.44999L41.1303 5.61999C41.2316 5.71929 41.3385 5.81277 41.4503 5.89999C41.5348 5.97982 41.6251 6.05335 41.7203 6.11999C41.8694 6.2254 42.0306 6.31268 42.2003 6.37998C42.3394 6.44695 42.4831 6.50377 42.6303 6.55Z" fill="white"/>
<path d="M30.9062 39.8399C30.9062 39.8399 30.9662 39.9599 31.0862 40.1599C31.2689 40.4166 31.4766 40.6544 31.7062 40.8699C31.8675 41.0182 32.0415 41.1521 32.2262 41.2699C32.4425 41.4031 32.67 41.5168 32.9062 41.6099L33.3062 41.7499C33.4535 41.7948 33.6039 41.8282 33.7562 41.8499C33.918 41.881 34.0817 41.901 34.2462 41.9099C34.4257 41.9302 34.6068 41.9302 34.7862 41.9099C35.0914 41.8965 35.3954 41.8631 35.6962 41.8099C36.0062 41.7499 36.3062 41.6799 36.6162 41.5899C36.7689 41.5524 36.9192 41.5057 37.0662 41.4499L37.5162 41.2999L37.9762 41.1399L38.4362 40.9699L38.8962 40.8199L39.3562 40.6599L39.8262 40.5099L40.3162 40.3799C40.6462 40.2997 40.9799 40.2363 41.3162 40.1899C41.6772 40.137 42.0415 40.1102 42.4062 40.1099C42.3085 40.0059 42.1976 39.9151 42.0762 39.8399C41.7342 39.6652 41.3661 39.547 40.9863 39.4899C40.7114 39.4487 40.4341 39.4254 40.1562 39.4199C39.9931 39.4102 39.8294 39.4102 39.6662 39.4199H39.4062H39.1263L38.5362 39.5099L38.2262 39.5799L37.8862 39.6499C37.6662 39.6999 37.4262 39.7599 37.1862 39.8399C36.9462 39.9199 36.6662 39.9799 36.3962 40.0699C36.1262 40.1599 35.9462 40.1999 35.7362 40.2599L35.1262 40.3999C34.7362 40.4599 34.3962 40.5099 34.1262 40.5399C33.8464 40.5546 33.5661 40.5546 33.2862 40.5399C33.064 40.5367 32.8428 40.5099 32.6262 40.4599C32.4474 40.426 32.2705 40.3826 32.0962 40.3299C31.9491 40.2796 31.8054 40.2195 31.6662 40.1499C31.3562 40.1199 31.1363 39.9799 30.9062 39.8399Z" fill="white"/>
<path d="M37.3203 37.26C37.4061 37.3322 37.4962 37.399 37.5903 37.46C37.8344 37.6258 38.1003 37.757 38.3803 37.85C38.7888 37.9911 39.2182 38.0622 39.6503 38.06C39.9188 38.0567 40.1865 38.0299 40.4503 37.98L40.8903 37.87L41.3403 37.7L41.7203 37.53C41.8403 37.46 41.9603 37.4 42.0803 37.32C42.2003 37.24 42.5503 37.02 42.7803 36.86L43.4603 36.33L44.1303 35.78C44.5854 35.4168 45.063 35.0828 45.5603 34.78C46.1041 34.4357 46.6886 34.1602 47.3003 33.96C47.1776 33.913 47.0502 33.8794 46.9203 33.86C46.7706 33.8468 46.62 33.8468 46.4703 33.86C46.2705 33.847 46.0701 33.847 45.8703 33.86C45.6194 33.896 45.3718 33.9529 45.1303 34.03L44.7103 34.18C44.5567 34.2383 44.4065 34.305 44.2603 34.38C44.1003 34.45 43.9403 34.54 43.7803 34.63L43.2603 34.94C43.0803 35.05 42.9003 35.18 42.7103 35.31L42.1103 35.75L41.8603 35.95C41.7732 36.0009 41.6896 36.0577 41.6103 36.12L41.1403 36.43C40.8303 36.62 40.5503 36.76 40.3003 36.89L40.1103 36.98L39.9303 37.06L39.5903 37.19C39.3976 37.2569 39.2004 37.3103 39.0003 37.35C38.6975 37.4095 38.3887 37.433 38.0803 37.42C37.8228 37.3888 37.5685 37.3352 37.3203 37.26Z" fill="white"/>
<path d="M42.3828 32.5501L42.6828 32.6401C42.946 32.6944 43.2141 32.7212 43.4828 32.7201C43.6641 32.7138 43.8446 32.6938 44.0228 32.6601C44.2346 32.629 44.4424 32.5754 44.6428 32.5001C45.1431 32.3244 45.6024 32.0488 45.9928 31.6901C46.3651 31.3461 46.7003 30.964 46.9928 30.5501C47.1428 30.3401 47.2728 30.1201 47.4228 29.9001L47.6328 29.5701L47.8428 29.2401C47.9828 29.0201 48.1328 28.8001 48.2928 28.5801C48.4476 28.3577 48.6145 28.1441 48.7928 27.9401L49.0728 27.6301L49.3728 27.3301C49.5944 27.1221 49.8318 26.9315 50.0828 26.7601H49.9828C49.893 26.7518 49.8026 26.7518 49.7128 26.7601C49.3897 26.8081 49.076 26.9059 48.7828 27.0501C48.5748 27.1464 48.3771 27.2637 48.1928 27.4001C47.957 27.5641 47.7332 27.7445 47.5228 27.9401C47.2718 28.1831 47.0347 28.4402 46.8128 28.7101C46.5828 29.0101 46.3128 29.3401 46.0528 29.7101C45.9428 29.8801 45.8328 30.0301 45.7228 30.1701C45.6128 30.3101 45.5128 30.4501 45.4028 30.5801C45.3107 30.7001 45.2105 30.8137 45.1028 30.9201L44.8228 31.2201L44.5528 31.4801L44.3028 31.6901C44.1557 31.8055 44.0021 31.9123 43.8428 32.0101C43.5994 32.1606 43.3371 32.2783 43.0628 32.3601C42.8404 32.4379 42.6133 32.5013 42.3828 32.5501Z" fill="white"/>
<path d="M45.6406 26.4499H45.9306C46.1726 26.4182 46.4105 26.3612 46.6406 26.2799C46.9818 26.1535 47.2995 25.971 47.5806 25.7399C47.7552 25.5989 47.9159 25.4415 48.0606 25.2699C48.2311 25.0739 48.3787 24.8592 48.5006 24.6299L48.6606 24.3299L48.7306 24.1799L48.7906 24.0199C48.8706 23.7999 48.9406 23.5799 49.0106 23.3599C49.0858 23.1376 49.146 22.9104 49.1906 22.6799L49.3706 21.9899C49.4306 21.7499 49.4906 21.5199 49.5606 21.2899L49.6806 20.9399C49.6806 20.8199 49.7606 20.7099 49.8006 20.5899C49.8941 20.3492 50.0044 20.1153 50.1306 19.8899C50.2628 19.6478 50.4098 19.414 50.5706 19.1899C50.462 19.2147 50.3576 19.2551 50.2606 19.3099C49.9961 19.4417 49.756 19.6175 49.5506 19.8299C49.2118 20.1643 48.9313 20.553 48.7206 20.9799C48.5693 21.2564 48.4389 21.5439 48.3306 21.8399C48.1935 22.2032 48.0766 22.5737 47.9806 22.9499C47.8806 23.2999 47.7706 23.6199 47.6806 23.8899C47.5906 24.1599 47.4606 24.4099 47.3606 24.6199C47.2606 24.8299 47.2606 24.8299 47.2106 24.9199L47.0506 25.1799C46.9628 25.3251 46.8624 25.4623 46.7506 25.5899C46.59 25.7951 46.4015 25.9769 46.1906 26.1299C46.0128 26.2459 45.8293 26.3527 45.6406 26.4499Z" fill="white"/>
<path d="M46.7734 19.6201L47.0034 19.5201C47.2056 19.4139 47.3938 19.2829 47.5634 19.1301C47.8095 18.9155 48.019 18.6621 48.1834 18.3801C48.2839 18.2036 48.3709 18.0197 48.4434 17.8301C48.5223 17.6122 48.5826 17.3881 48.6234 17.1601C48.7015 16.3409 48.6847 15.5154 48.5734 14.7001C48.5734 14.4901 48.5734 14.2801 48.5734 14.0701C48.5734 13.8601 48.5734 13.6401 48.5734 13.4201C48.5928 13.1949 48.6262 12.9711 48.6734 12.7501C48.7264 12.5152 48.7966 12.2846 48.8834 12.0601C48.796 12.1095 48.7154 12.17 48.6434 12.2401C48.4507 12.4217 48.2856 12.6306 48.1534 12.8601C48.0634 13.0272 47.9865 13.201 47.9234 13.3801C47.8377 13.5957 47.7773 13.8205 47.7434 14.0501C47.6306 14.6667 47.6037 15.296 47.6634 15.9201C47.6634 16.2401 47.6634 16.5301 47.6634 16.8001C47.6634 17.0701 47.6634 17.3001 47.6634 17.5101C47.6269 17.8504 47.5531 18.1858 47.4434 18.5101C47.369 18.7345 47.2683 18.9493 47.1434 19.1501C47.0134 19.3301 46.8934 19.4701 46.7734 19.6201Z" fill="white"/>
<path d="M45.6365 12.8398C45.8476 12.6575 46.0268 12.4412 46.1665 12.1998C46.3155 11.9474 46.4267 11.6745 46.4965 11.3898C46.5344 11.215 46.5611 11.038 46.5765 10.8598C46.5961 10.6536 46.5961 10.446 46.5765 10.2398C46.5216 9.89897 46.4346 9.56414 46.3165 9.23978L46.0765 8.63979C46.0065 8.46979 45.9365 8.28978 45.8765 8.11978C45.8165 7.94978 45.7565 7.76978 45.7065 7.58978C45.6565 7.40978 45.6165 7.21979 45.5765 7.02979C45.5035 6.61729 45.4867 6.1968 45.5265 5.77979C45.4652 5.84698 45.4115 5.92076 45.3665 5.99979C45.2416 6.20143 45.1472 6.42047 45.0865 6.64978C44.9994 7.01632 44.9724 7.39457 45.0065 7.76978C45.0301 8.01882 45.0702 8.26604 45.1265 8.50978C45.1969 8.80769 45.2837 9.10148 45.3865 9.38979C45.6817 10.1145 45.841 10.8874 45.8565 11.6698C45.8506 11.8792 45.8204 12.0873 45.7665 12.2898C45.7565 12.4698 45.6965 12.6198 45.6365 12.8398Z" fill="white"/>
<path d="M42.71 6.4998C42.8457 6.28936 42.9407 6.0553 42.99 5.8098C43.0517 5.55808 43.0753 5.29852 43.06 5.03979C43.0348 4.69344 42.9467 4.35458 42.8 4.03979C42.6658 3.75006 42.5016 3.47523 42.31 3.2198L41.7 2.4498C41.6 2.3198 41.5 2.17979 41.41 2.03979C41.3084 1.90057 41.2181 1.75343 41.14 1.59979C40.9532 1.27038 40.8119 0.917176 40.72 0.549805C40.6875 0.623377 40.664 0.700598 40.65 0.7798C40.6167 0.991831 40.6167 1.20777 40.65 1.4198C40.761 2.24709 41.1082 3.02484 41.65 3.65981C41.793 3.84285 41.9265 4.03309 42.05 4.2298L42.21 4.4798L42.34 4.70979C42.41 4.85979 42.48 4.9998 42.53 5.1198C42.5774 5.2338 42.6175 5.35071 42.65 5.4698C42.7004 5.64921 42.7306 5.83368 42.74 6.01979C42.73 6.18979 42.72 6.3398 42.71 6.4998Z" fill="white"/>
<path d="M27.9922 40.19V40H28.5522C28.7322 40 28.9622 40 29.2222 40H29.6422H29.8822H30.1222C30.4622 39.94 30.8322 39.9 31.2322 39.81L31.5422 39.74L31.8622 39.67L32.5222 39.5C33.5555 39.2014 34.5596 38.8098 35.5222 38.33C36.6441 37.7729 37.7063 37.1027 38.6922 36.33C39.7907 35.4596 40.7961 34.4777 41.6922 33.4C42.6612 32.251 43.5027 31.0004 44.2022 29.67C44.5622 28.99 44.8722 28.29 45.2022 27.57L45.4122 27.02C45.4722 26.84 45.5522 26.66 45.6022 26.47C45.7222 26.1 45.8522 25.73 45.9422 25.36L46.0922 24.79L46.2222 24.22C46.3122 23.84 46.3722 23.46 46.4422 23.07C46.4422 22.88 46.4922 22.69 46.5222 22.5C46.5522 22.31 46.5222 22.11 46.5922 21.92C46.6622 21.73 46.5922 21.54 46.5922 21.34C46.5922 21.14 46.5922 20.96 46.5922 20.77C46.6323 20.0105 46.6323 19.2495 46.5922 18.49C46.5322 17.74 46.4322 17.01 46.3122 16.28C46.1922 15.55 46.0322 14.86 45.8522 14.18C45.6722 13.5 45.4722 12.84 45.2522 12.18C44.837 10.9885 44.3357 9.82873 43.7522 8.70999C43.2609 7.71676 42.7029 6.75791 42.0822 5.84C41.6171 5.1676 41.1129 4.52316 40.5722 3.91C40.4622 3.78 40.3422 3.66 40.2422 3.55L39.9522 3.23999C39.7622 3.05999 39.6122 2.88999 39.4722 2.76999L39.0622 2.39L39.1922 2.25L39.6022 2.62999L40.0822 3.11C40.1822 3.2 40.2822 3.31 40.3822 3.42C40.4822 3.53 40.6022 3.65 40.7122 3.78C41.2576 4.41879 41.7684 5.08642 42.2422 5.78C42.8584 6.65719 43.4131 7.57607 43.9022 8.53C44.4866 9.65653 44.9912 10.8227 45.4122 12.02C45.6322 12.65 45.8322 13.32 46.0222 14.02C46.2122 14.72 46.3522 15.42 46.4822 16.14C46.6122 16.86 46.7022 17.61 46.7622 18.37C46.8023 19.1361 46.8023 19.9039 46.7622 20.67C46.7622 20.86 46.7622 21.06 46.7622 21.25C46.7622 21.44 46.7622 21.64 46.7622 21.83C46.7622 22.02 46.7622 22.22 46.6822 22.41C46.666 22.6046 46.6393 22.7982 46.6022 22.99C46.5422 23.38 46.4822 23.77 46.3922 24.15L46.2622 24.73L46.1122 25.29C46.0122 25.68 45.8822 26.05 45.7622 26.42C45.7622 26.61 45.6322 26.79 45.5722 26.98L45.3622 27.53C45.0655 28.2534 44.7318 28.961 44.3622 29.65C42.9982 32.2564 41.1003 34.5461 38.7922 36.37C36.9492 37.828 34.8449 38.9209 32.5922 39.59L31.9122 39.77L31.5922 39.84L31.2822 39.9C30.9124 39.9827 30.5386 40.0461 30.1622 40.09H29.9122H29.6722H29.2422C29.0157 40.1033 28.7887 40.1033 28.5622 40.09L27.9922 40.19Z" fill="white"/>
<path d="M38.8197 1.34999C38.2336 0.97094 37.6104 0.652631 36.9597 0.399994C36.6097 0.279994 36.2997 0.170001 36.0597 0.110001L35.6797 0L35.9897 0.229996C36.1897 0.369996 36.4397 0.580003 36.7197 0.800003C37.2697 1.26 37.8497 1.8 38.2197 2.17C38.3738 2.31829 38.5491 2.44296 38.7397 2.53999C38.8892 2.62234 39.0467 2.68935 39.2097 2.73999L39.5697 2.84H39.7097C39.7227 2.67677 39.6988 2.51271 39.6397 2.36C39.5762 2.18538 39.4887 2.02046 39.3797 1.87C39.2167 1.6728 39.0284 1.49795 38.8197 1.34999Z" fill="white"/>
<path d="M27.9806 40.19H22.5906L22.3906 40H28.1706L27.9806 40.19Z" fill="white"/>
</g>
<defs>
<clipPath id="clip0_215_923">
<rect width="50.57" height="41.92" fill="white"/>
</clipPath>
</defs>
</svg>
