<svg width="24" height="26" viewBox="0 0 24 26" fill="none" xmlns="http://www.w3.org/2000/svg">
<path fill-rule="evenodd" clip-rule="evenodd" d="M8.07979 2.82913L8.07977 2.82916L8.0797 2.82924C7.88153 3.05219 7.78244 3.16368 7.67859 3.26592C7.14783 3.78846 6.49245 4.16684 5.77453 4.36523C5.63405 4.40405 5.48794 4.43413 5.19571 4.49427L5.19569 4.49428C4.27681 4.68342 3.81737 4.77799 3.45995 4.92008C1.57649 5.66883 0.453905 7.6132 0.747201 9.6187C0.80286 9.99928 0.950679 10.4445 1.24632 11.3348L1.24635 11.3349C1.34035 11.618 1.38736 11.7596 1.42398 11.9006C1.61113 12.6215 1.61113 13.3783 1.42398 14.0992C1.38736 14.2403 1.34034 14.3819 1.24632 14.665C0.950679 15.5554 0.802859 16.0006 0.747201 16.3811C0.453904 18.3866 1.57649 20.331 3.45995 21.0798C3.81737 21.2219 4.27681 21.3164 5.19569 21.5056L5.19573 21.5056C5.48794 21.5657 5.63406 21.5958 5.77453 21.6346C6.49245 21.833 7.14783 22.2114 7.67859 22.7339C7.78245 22.8362 7.88156 22.9477 8.07978 23.1707C8.70302 23.8719 9.01464 24.2225 9.3164 24.461C10.9066 25.7177 13.1517 25.7177 14.7419 24.461C15.0437 24.2225 15.3553 23.8719 15.9785 23.1707C16.1767 22.9477 16.2758 22.8362 16.3797 22.7339C16.9105 22.2114 17.5659 21.833 18.2838 21.6346C18.4242 21.5958 18.5704 21.5657 18.8626 21.5056L18.8626 21.5056C19.7815 21.3164 20.2409 21.2219 20.5984 21.0798C22.4818 20.331 23.6044 18.3867 23.3111 16.3812C23.2554 16.0006 23.1076 15.5554 22.812 14.665L22.812 14.665C22.718 14.3819 22.6709 14.2403 22.6343 14.0992C22.4472 13.3783 22.4472 12.6215 22.6343 11.9006C22.6709 11.7595 22.718 11.618 22.812 11.3348L22.812 11.3348C23.1076 10.4445 23.2554 9.99928 23.3111 9.6187C23.6044 7.6132 22.4818 5.66883 20.5984 4.92008C20.2409 4.77799 19.7815 4.68343 18.8626 4.49429L18.8626 4.49428C18.5704 4.43413 18.4242 4.40405 18.2838 4.36523C17.5659 4.16684 16.9105 3.78846 16.3797 3.26592C16.2759 3.16368 16.1768 3.05218 15.9786 2.82921L15.9785 2.82915L15.9785 2.82914C15.3553 2.12795 15.0437 1.77734 14.7419 1.53885C13.1517 0.282104 10.9066 0.282103 9.3164 1.53886C9.01464 1.77734 8.70302 2.12794 8.07979 2.82913ZM12 15.8137C13.5533 15.8137 14.8125 14.5545 14.8125 13.0012C14.8125 11.4479 13.5533 10.1887 12 10.1887C10.4467 10.1887 9.1875 11.4479 9.1875 13.0012C9.1875 14.5545 10.4467 15.8137 12 15.8137Z" fill="#000"/>
</svg>
