<svg width="113" height="101" viewBox="0 0 113 101" fill="none" xmlns="http://www.w3.org/2000/svg">
<g clip-path="url(#clip0_226_296)">
<path d="M40.1697 92.3049C39.8683 92.2716 39.5641 92.2716 39.2627 92.3049H39.0133H38.7639L38.2424 92.4183C37.4669 92.6508 36.7091 92.9387 35.9749 93.28C35.2267 93.6201 34.4557 93.9829 33.7075 94.3457C32.9592 94.7086 32.415 95.026 31.9842 95.2528L31.2812 95.6383H31.4853L32.0522 95.8197C32.5283 95.9557 33.2086 96.1371 33.9795 96.2959L34.569 96.4092H35.2039C35.6269 96.4326 36.0508 96.4326 36.4737 96.4092C37.3067 96.4486 38.1408 96.3568 38.9453 96.1372C40.1689 95.7864 41.254 95.0656 42.0517 94.0737C42.4133 93.646 42.7181 93.1735 42.9587 92.6678C42.536 92.4172 42.0771 92.2337 41.5982 92.1235C41.1171 92.1356 40.6385 92.1964 40.1697 92.3049Z" fill="white"/>
<path d="M42.4231 86.3866C42.0576 85.8415 41.6316 85.3394 41.1533 84.89L40.4277 84.2324L40.065 83.9603L39.7248 83.6655C39.2486 83.3254 38.8405 83.0306 38.5457 82.8492L38.0469 82.5317C38.0469 82.5317 38.0469 82.7812 38.0469 83.2347C38.0556 83.8114 38.1011 84.387 38.1829 84.958C38.2905 85.7237 38.4496 86.4813 38.6591 87.2256C38.8707 87.9318 39.1677 88.6095 39.5434 89.2437L39.8155 89.6519L39.9742 89.8333C40.0213 89.8918 40.0745 89.945 40.133 89.992C40.3241 90.2049 40.5457 90.3883 40.7905 90.5363C40.9992 90.6885 41.219 90.8249 41.4481 90.9444L42.083 91.1939C42.5312 91.3287 42.9983 91.3899 43.4662 91.3753C43.5362 90.8333 43.5362 90.2846 43.4662 89.7426C43.4168 89.213 43.3181 88.6892 43.1714 88.178C43.1714 88.0419 43.1714 87.9059 43.0126 87.7472C42.8539 87.5884 43.0126 87.4751 42.8539 87.3163C42.7314 86.9971 42.5874 86.6865 42.4231 86.3866Z" fill="white"/>
<path d="M30.9659 88.0194L30.7391 87.838C30.4812 87.6057 30.2001 87.4005 29.9002 87.2257L29.2653 86.931L28.4944 86.6589C27.8672 86.4839 27.2181 86.3999 26.567 86.4094H25.4106L24.1635 86.5908L22.9164 86.8176L21.7373 87.0443L19.8326 87.4752L19.0391 87.6793L19.7193 88.1101L20.4675 88.5636L20.921 88.8131L21.4426 89.0625C21.7827 89.2439 22.1681 89.4026 22.5536 89.5613L23.1432 89.7881L23.4379 89.9015H23.7554C24.5492 90.1458 25.3737 90.2756 26.2042 90.287C27.4905 90.2469 28.7366 89.8289 29.7868 89.0852C30.1212 88.8592 30.4326 88.601 30.7165 88.3142L31.0339 87.9741L30.9659 88.0194Z" fill="white"/>
<path d="M28.7998 83.4845C28.9743 84.0584 29.2508 84.5961 29.6161 85.0718L30.1603 85.616L30.7045 86.0015C30.9874 86.1888 31.2919 86.3411 31.6115 86.455H31.8836H31.997C31.997 86.455 31.9969 86.2963 32.1557 86.0242C32.2758 85.6446 32.3742 85.2585 32.4504 84.8677C32.673 83.7314 32.6265 82.5587 32.3144 81.4437C32.1396 80.8178 31.8721 80.2216 31.5208 79.675C31.2056 79.1344 30.8493 78.6189 30.4551 78.133L29.9562 77.4981L29.5708 76.9992L29.1626 76.5911C29.1626 76.5911 29.1626 76.8405 29.0039 77.2713C28.8554 77.8306 28.7418 78.3986 28.6638 78.972C28.6638 79.3122 28.6638 79.675 28.5504 80.0604C28.437 80.4459 28.5504 80.8087 28.5504 81.1942V82.328C28.601 82.7198 28.6845 83.1067 28.7998 83.4845Z" fill="white"/>
<path d="M20.2325 79.4933C20.0481 79.2081 19.8354 78.9422 19.5977 78.6996C19.2467 78.3398 18.8503 78.0272 18.4185 77.7699C17.87 77.4328 17.2738 77.1806 16.6499 77.0216L15.879 76.8629L15.0854 76.7042C13.7249 76.5001 12.2057 76.432 11.0493 76.364H9.03125C9.03125 76.364 9.32601 76.7268 9.80218 77.2484C10.4187 77.9196 11.094 78.5343 11.8202 79.0851L12.183 79.3799L12.3871 79.5159L12.5911 79.652L13.4301 80.1509C13.7006 80.3051 13.9808 80.4415 14.2691 80.559C14.5451 80.6874 14.8339 80.7863 15.1307 80.8538C16.3826 81.1747 17.702 81.1115 18.9174 80.6724C19.4535 80.4886 19.9641 80.2371 20.4366 79.9241L20.2325 79.4933Z" fill="white"/>
<path d="M20.7339 77.7245C20.952 77.9835 21.2036 78.2123 21.4821 78.4048L21.8222 78.6088C22.1621 78.1782 22.4584 77.7149 22.7066 77.2256C23.2504 76.2041 23.5529 75.0716 23.5908 73.915C23.5828 73.4349 23.5296 72.9566 23.4321 72.4864C23.4321 72.2596 23.3188 72.0329 23.2734 71.7834L23.0694 71.1259C22.9619 70.7633 22.8332 70.4075 22.6839 70.0601C22.6876 69.9846 22.6876 69.9089 22.6839 69.8333V69.6066C22.6387 69.4676 22.5857 69.3314 22.5251 69.1984L22.1397 68.3821C22.1397 68.3821 21.7315 69.017 21.2553 69.9694C21.1193 70.1961 21.006 70.4683 20.8699 70.7404L20.6885 71.1485C20.6257 71.2883 20.5726 71.4323 20.5297 71.5794C20.2935 72.174 20.1113 72.7887 19.9856 73.4161C19.9856 73.6429 19.9856 73.8923 19.8495 74.1191C19.7135 74.3458 19.8495 74.5726 19.8495 74.7993C19.8525 75.3954 19.96 75.9864 20.167 76.5454C20.298 76.9637 20.4889 77.3609 20.7339 77.7245Z" fill="white"/>
<path d="M10.1622 69.3804H10.9784C11.5475 69.3498 12.1109 69.2509 12.6563 69.0856C12.6648 68.9572 12.6648 68.8284 12.6563 68.7001L12.4977 68.2919C12.4977 68.1332 12.3616 67.9518 12.2709 67.7704C12.0397 67.3324 11.7498 66.9281 11.4093 66.5686L11.0918 66.2511C10.9897 66.1339 10.8756 66.0275 10.7517 65.9337C10.4885 65.7214 10.2078 65.5318 9.91272 65.3668C9.58237 65.1539 9.23326 64.9717 8.8697 64.8225L7.75867 64.301L5.4912 63.4393L3.65455 62.8271L2.90625 62.5776C2.99653 62.826 3.10259 63.0684 3.22373 63.3033C3.32974 63.567 3.45081 63.8244 3.58646 64.0742C3.74519 64.369 3.92663 64.6638 4.1307 65.0039L4.78829 66.0017C4.86132 66.0749 4.92248 66.1591 4.96965 66.2511L5.17372 66.5005L5.58185 66.9767C5.86137 67.2871 6.16467 67.5751 6.48889 67.8384C6.63148 67.9856 6.79134 68.1151 6.96504 68.2239C7.12263 68.3428 7.28944 68.4489 7.46388 68.5413C8.06936 68.8942 8.72782 69.1468 9.41387 69.2897C9.66136 69.3341 9.91123 69.3644 10.1622 69.3804Z" fill="white"/>
<path d="M13.1797 65.7748C13.2407 66.2422 13.3627 66.6996 13.5425 67.1353C13.6235 67.2994 13.7144 67.4584 13.8146 67.6115L14.064 67.9743C14.1473 68.0721 14.2383 68.1631 14.3361 68.2464C14.79 67.9298 15.2081 67.5649 15.5832 67.158C15.7683 66.9717 15.9424 66.7748 16.1047 66.5684L16.6036 65.8881C16.9435 65.3677 17.2106 64.8031 17.3972 64.2101C17.4483 64.0626 17.4862 63.9109 17.5106 63.7566C17.5106 63.5979 17.5105 63.4392 17.6239 63.2578C17.7373 63.0764 17.6239 62.6228 17.6239 62.2827C17.6239 61.9426 17.6239 61.0129 17.6239 60.446C17.6239 59.8791 17.6239 59.9018 17.6239 59.675C17.6239 59.4482 17.6239 59.2215 17.6239 59.0401C17.6239 58.8587 17.6239 58.4958 17.6239 58.4958C17.4301 58.6398 17.2482 58.7991 17.0797 58.9721C16.7623 59.2668 16.3088 59.7203 15.8327 60.2419C15.3397 60.808 14.8851 61.4064 14.4722 62.0333C14.2681 62.3507 14.0867 62.6909 13.9053 63.0083C13.7508 63.3303 13.6219 63.6639 13.5198 64.0061C13.4179 64.3064 13.3569 64.6191 13.3384 64.9358C13.3273 65.0792 13.3273 65.2232 13.3384 65.3666C13.3388 65.5707 13.3388 65.5707 13.3388 65.7748H13.1797Z" fill="white"/>
<path d="M4.25215 56.0237C4.52405 56.2151 4.81241 56.3821 5.1138 56.5226C5.63034 56.7783 6.17973 56.9614 6.74638 57.0668C7.30479 57.1879 7.87579 57.2412 8.44698 57.2255C8.52607 56.7602 8.52607 56.2849 8.44698 55.8196C8.44698 55.6155 8.44702 55.3888 8.26562 55.162C8.08422 54.9353 8.08421 54.6858 7.97084 54.4364C7.77596 54.1873 7.55556 53.9593 7.31325 53.7561L7.01847 53.3479L6.85973 53.1665L6.67836 52.9625C5.51587 51.8447 4.24768 50.8422 2.89166 49.9693C2.25677 49.5384 1.71259 49.1529 1.28178 48.9035L0.601563 48.4727C0.601563 48.4727 0.601557 48.7674 0.737605 49.2436C0.873653 49.7198 0.941639 50.3774 1.12304 51.1031C1.36421 51.8756 1.65196 52.6329 1.98469 53.3706C2.06949 53.5663 2.168 53.7557 2.27947 53.9375L2.61957 54.459C2.83756 54.7869 3.08014 55.0977 3.34518 55.3888C3.62676 55.6286 3.93043 55.8412 4.25215 56.0237Z" fill="white"/>
<path d="M10.2916 56.863C10.8409 56.6386 11.3653 56.3574 11.8562 56.024C12.3222 55.7465 12.7623 55.4278 13.1713 55.0716C13.3998 54.8694 13.6121 54.6495 13.8062 54.414C14.0277 54.1794 14.2324 53.9294 14.4184 53.6657C14.5772 53.3936 14.7358 53.0988 14.8719 52.8041C15.0079 52.5093 15.1213 52.2145 15.2347 51.897C15.4378 51.3126 15.597 50.7138 15.7109 50.1056C15.847 49.5387 15.9377 49.0625 15.983 48.7224C15.9935 48.5336 15.9935 48.3443 15.983 48.1555L15.3481 48.473C14.9626 48.6771 14.4184 48.9945 13.8289 49.38C13.1843 49.7862 12.5773 50.2491 12.0149 50.7632C11.4499 51.2513 10.9472 51.8073 10.5184 52.4186C10.1886 52.9197 9.96484 53.483 9.86081 54.0739C9.86081 54.3233 9.86081 54.5954 9.86081 54.8222C9.84848 55.0412 9.84848 55.2608 9.86081 55.4798C9.92173 55.9627 10.0676 56.4309 10.2916 56.863Z" fill="white"/>
<path d="M2.7835 38.2917C2.7835 38.6092 2.78352 38.9266 2.94224 39.2214C3.06706 39.8138 3.27306 40.3861 3.55443 40.9221C3.87841 41.5301 4.30842 42.0754 4.82421 42.5321C5.24431 42.922 5.71763 43.2503 6.23003 43.5072C6.73169 43.7708 7.26516 43.9689 7.81729 44.0967C7.87415 43.9726 7.91968 43.8436 7.95333 43.7112C8.03212 43.3822 8.09265 43.0492 8.1347 42.7135C8.19975 42.2319 8.19975 41.7438 8.1347 41.2622C8.01944 40.6456 7.81314 40.0495 7.5225 39.4935C7.5225 39.2668 7.27312 39.0627 7.13707 38.8359L6.93294 38.4958L6.70625 38.1783C6.33128 37.6028 5.9224 37.05 5.4818 36.523C5.07365 35.9788 4.64284 35.4799 4.28004 35.0264C3.55445 34.1647 2.98757 33.5525 2.98757 33.5525C2.98757 33.5525 2.98755 33.9833 2.82883 34.6863C2.82883 35.0491 2.82883 35.4573 2.82883 35.9108C2.82883 36.3643 2.82883 36.8631 2.82883 37.362C2.79023 37.6703 2.77509 37.9811 2.7835 38.2917Z" fill="white"/>
<path d="M14.4168 42.4188L14.6889 42.1693L14.9609 41.9199L15.4371 41.353C15.586 41.1657 15.7224 40.9687 15.8453 40.7634L16.2307 40.1739C16.4448 39.8642 16.6344 39.5381 16.7976 39.1988L17.0244 38.768C17.0244 38.6092 17.1831 38.4959 17.2284 38.3598C17.2738 38.2238 17.6139 37.5662 17.6139 37.5662C17.6139 37.5662 16.843 37.7022 15.7773 37.9743L14.9383 38.2238L14.054 38.5412C13.44 38.7834 12.8417 39.0636 12.2627 39.3802C11.8523 39.6152 11.4651 39.8885 11.1063 40.1965C10.6379 40.5844 10.2524 41.0625 9.97256 41.6024C9.7768 42.0279 9.63945 42.478 9.56436 42.9403C9.52021 43.2638 9.52021 43.5919 9.56436 43.9154V44.3009C10.1329 44.2655 10.6958 44.1666 11.2423 44.0061C12.4038 43.7155 13.4874 43.1737 14.4168 42.4188Z" fill="white"/>
<path d="M8.42428 29.0173C8.73431 29.4899 9.09972 29.9238 9.51269 30.3098C9.92435 30.7024 10.381 31.0449 10.8732 31.3302C10.9555 31.2215 11.0313 31.1079 11.0999 30.99C11.5265 30.299 11.8044 29.5268 11.9162 28.7225C11.9162 28.4504 11.9162 28.1556 11.9162 27.8381C11.9478 27.5063 11.9478 27.1722 11.9162 26.8404C11.9162 26.4927 11.8255 26.1299 11.6441 25.752C11.6441 25.5705 11.5307 25.3665 11.4627 25.1624C11.3887 24.978 11.3281 24.7886 11.2813 24.5955C11.0092 23.8245 10.6917 23.0535 10.397 22.3279C10.2458 21.9953 10.1098 21.6779 9.98884 21.3755L9.64873 20.6046L9.33132 19.9016C9.19531 20.1278 9.07412 20.3626 8.96852 20.6046C8.84312 20.8608 8.73697 21.1261 8.65104 21.3982C8.50928 21.7228 8.3881 22.0561 8.28824 22.3959C8.28824 22.5773 8.28827 22.7588 8.10687 22.9402C7.92547 23.1216 7.99348 23.3256 7.94813 23.5297C7.85811 23.9339 7.78999 24.3427 7.74407 24.7542C7.71031 25.1617 7.71031 25.5712 7.74407 25.9787C7.73451 26.3674 7.77256 26.7558 7.85741 27.1352C7.93714 27.7904 8.12888 28.427 8.42428 29.0173Z" fill="white"/>
<path d="M18.6439 31.0807C18.9361 30.9026 19.2163 30.7057 19.4828 30.4911C19.7549 30.287 19.9817 30.0829 20.2311 29.8562L20.8887 29.2439C21.0927 29.0399 21.2741 28.8358 21.4555 28.6771L21.6823 28.4049L21.8637 28.2009L22.2491 27.77H21.5235C21.07 27.77 20.4352 27.77 19.7096 27.77C18.9507 27.7978 18.1938 27.8659 17.4421 27.9741H16.8526L16.3084 28.1328C15.9518 28.2263 15.603 28.3476 15.2654 28.4956C14.9723 28.6383 14.6917 28.8051 14.4264 28.9945C14.1894 29.153 13.9757 29.3438 13.7915 29.5614C13.4653 29.9057 13.1904 30.2952 12.9752 30.7179C12.85 31.0244 12.7588 31.3438 12.7031 31.6702V32.0331C13.2612 32.1581 13.8318 32.219 14.4037 32.2145C14.9586 32.222 15.5128 32.1764 16.0589 32.0784C16.6923 31.9782 17.3099 31.7952 17.8956 31.5342C18.1555 31.401 18.4056 31.2494 18.6439 31.0807Z" fill="white"/>
<path d="M15.5176 17.4752C15.6645 18.0171 15.8859 18.536 16.1752 19.0171C16.4553 19.499 16.7984 19.9413 17.1955 20.3323C17.5879 20.0489 17.9324 19.7043 18.2159 19.3119C18.3549 19.1303 18.4836 18.941 18.6014 18.745C18.7362 18.5181 18.8573 18.2834 18.9642 18.0421C19.2136 17.4663 19.3667 16.8534 19.4177 16.228C19.4712 15.4731 19.4712 14.7154 19.4177 13.9605C19.4177 13.1441 19.2816 12.3278 19.1909 11.6929C19.1002 11.058 19.0096 10.287 18.9415 9.8108C18.8902 9.56362 18.8523 9.31381 18.8281 9.0625L18.6694 9.22123L18.3066 9.65207C17.9892 10.0376 17.5583 10.5818 17.1275 11.194C16.6802 11.9204 16.2861 12.6782 15.9485 13.4616C15.6271 14.1824 15.4132 14.9463 15.3136 15.7292C15.3023 15.9104 15.3023 16.0922 15.3136 16.2734C15.3017 16.447 15.3017 16.6213 15.3136 16.7949C15.3678 17.0256 15.4359 17.2528 15.5176 17.4752Z" fill="white"/>
<path d="M24.8097 22.0104L25.2858 21.8517H25.5126H25.7394C26.7637 21.4042 27.7496 20.8734 28.687 20.2644L29.0498 20.015H29.1633H28.9818L28.483 19.8336L26.7597 19.3347L25.6486 19.1079H25.0818H24.4922C23.7392 19.0161 22.9778 19.0161 22.2247 19.1079C21.613 19.1998 21.0266 19.4159 20.5015 19.7429C20.2794 19.8704 20.0672 20.0144 19.8666 20.1737L19.3904 20.6499C19.0923 21.0012 18.8547 21.3997 18.6875 21.829C19.1956 22.0838 19.7272 22.2888 20.2748 22.4413C20.8151 22.5952 21.3697 22.6939 21.93 22.7361C22.5549 22.8146 23.1871 22.8146 23.812 22.7361C24.1649 22.5234 24.4987 22.2806 24.8097 22.0104Z" fill="white"/>
<path d="M26.6212 10.6727C26.6773 10.8144 26.7455 10.951 26.8252 11.0809H26.9387L27.2107 10.9448C27.5322 10.8065 27.8365 10.6315 28.1177 10.4233C29.0163 9.73602 29.7133 8.81963 30.1358 7.77021C30.3172 7.3167 30.4759 6.84051 30.6346 6.31896C30.813 5.66179 30.9568 4.99571 31.0655 4.32349C31.2015 3.66589 31.3376 3.03098 31.4283 2.48676C31.6097 1.35297 31.7004 0.559326 31.7004 0.559326C31.7004 0.559326 31.3148 0.786086 30.7253 1.21692C30.1357 1.64776 30.0678 1.67044 29.705 1.96523C29.3422 2.26001 28.9794 2.57746 28.5939 2.94027L27.9363 3.62055L27.7096 3.86998L27.5508 4.07405L27.2788 4.43687C26.9097 4.91676 26.6048 5.44274 26.3718 6.00151C26.2282 6.32872 26.1217 6.67098 26.0543 7.02191C26.034 7.34661 26.034 7.67226 26.0543 7.99696C26.0354 8.55602 26.1043 9.11458 26.2584 9.6523C26.3551 10.0006 26.4763 10.3415 26.6212 10.6727Z" fill="white"/>
<path d="M35.5897 14.5277L36.7234 14.2556L37.6531 14.0288C37.9455 13.9463 38.2331 13.8479 38.5148 13.734C38.5148 13.734 37.9025 13.2805 36.9728 12.7136C36.4597 12.398 35.9299 12.1103 35.3856 11.8519C34.7924 11.5708 34.1783 11.3358 33.549 11.149C33.0905 11.0026 32.6201 10.8964 32.1432 10.8315C31.0385 10.7216 29.9288 10.9851 28.9914 11.5798C28.7179 11.7789 28.4602 11.9988 28.2204 12.2374L28.0391 12.4415L28.4018 12.7363C28.71 13.0034 29.0443 13.2389 29.3995 13.4392C29.8674 13.7259 30.3609 13.9688 30.8734 14.1649C31.1603 14.2793 31.456 14.3703 31.7577 14.437C32.0701 14.5213 32.3885 14.5819 32.71 14.6184C33.6692 14.7289 34.6394 14.6984 35.5897 14.5277Z" fill="white"/>
<path d="M50.0334 93.3258H49.0584H48.4688L47.8113 93.2125L46.3374 92.963L44.7048 92.6002L43.8432 92.4188L42.9816 92.1694C42.3921 92.0107 41.8025 91.8746 41.213 91.6705C39.0666 90.9876 36.9682 90.1619 34.9321 89.1989L33.7983 88.6546L33.3222 88.4052L32.9367 88.2011L32.2111 87.793L31.4628 87.3848L29.5809 86.2284C27.7064 85.016 25.9183 83.6749 24.2296 82.2147C22.5566 80.7468 20.9812 79.1713 19.5133 77.4982C19.3546 77.3395 19.2185 77.1581 19.0825 76.9993L18.6517 76.4324L18.0395 75.6841C17.8807 75.5027 17.7674 75.3213 17.6767 75.2079L17.5406 75.0265L17.0644 74.3689L16.4975 73.598L15.8173 72.5776C15.6813 72.3961 15.5679 72.1921 15.4318 71.988L15.0464 71.3531L14.2074 69.9472L13.3911 68.4279L13.187 68.0197L12.983 67.6342C12.983 67.3621 12.7335 67.09 12.5975 66.8179C11.6874 64.8298 10.9294 62.7756 10.33 60.6728C10.33 60.446 10.194 60.2419 10.1486 60.0605C10.1033 59.8791 10.1486 59.6751 9.9899 59.4936L9.76314 58.5639L9.58178 57.7703V57.5662C9.5333 57.3719 9.49548 57.1751 9.46843 56.9766L9.28699 56.0469C9.19853 55.6501 9.13043 55.249 9.08293 54.8451C9.08293 54.4143 9.08296 53.9381 8.90156 53.4165C8.88912 53.2884 8.88912 53.1593 8.90156 53.0311C8.90156 53.0311 8.90156 52.7816 8.90156 52.6456V51.8293C8.78819 50.7181 8.78817 49.5617 8.74282 48.3372C8.69747 47.1127 8.74284 46.0696 8.90156 44.8451V44.0288C8.90156 43.8927 8.90156 43.7567 8.90156 43.6206C8.89171 43.4923 8.89171 43.3635 8.90156 43.2351C8.90156 42.7363 9.03758 42.2601 9.08293 41.8066C9.12828 41.3531 9.21897 40.9676 9.28699 40.6048C9.35502 40.2419 9.42308 39.9472 9.46843 39.6751C9.49548 39.4766 9.5333 39.2798 9.58178 39.0855V38.8814L9.76314 38.0877L9.9899 37.1807C9.9899 36.9993 9.98992 36.8179 10.1486 36.6138C10.1987 36.4068 10.2592 36.2024 10.33 36.0016C10.9294 33.8988 11.6874 31.8446 12.5975 29.8565C12.7335 29.5843 12.8696 29.3122 12.983 29.0401L13.187 28.632L13.3911 28.2465L14.2074 26.7045L15.0464 25.3213C15.1613 25.0945 15.29 24.8748 15.4318 24.6637L15.8173 24.0968L16.4975 23.0764C16.7016 22.759 16.9057 22.5095 17.0644 22.3054C17.2231 22.1014 17.5406 21.6252 17.5406 21.6252L17.6767 21.4664L18.0395 20.9676L18.6517 20.2193C18.7835 20.0772 18.9048 19.9256 19.0145 19.7658L19.4453 19.2896C20.9014 17.6056 22.4776 16.0292 24.1616 14.573C25.8446 13.1058 27.6332 11.7643 29.5128 10.5594C30.3065 10.0832 30.9186 9.65238 31.3948 9.40295L32.1431 8.99479L32.8687 8.58662L33.2542 8.35987L33.7303 8.1331L34.0704 7.97437C34.4707 7.99741 34.8719 7.99741 35.2722 7.97437C36.4728 7.94192 37.6508 7.63967 38.7188 7.09001C39.3038 6.78604 39.8453 6.40469 40.3286 5.95623L41.0542 5.27597L41.6664 4.61837L42.5961 3.52992C42.8002 3.23514 42.9362 3.07642 42.9362 3.07642H42.2107C41.7572 3.07642 41.1223 3.07642 40.3967 3.07642H39.8525H39.2856C38.9002 3.07642 38.5147 3.21246 38.1292 3.28049C37.3903 3.44012 36.6743 3.69151 35.9978 4.02879C35.459 4.32976 34.9758 4.72092 34.5693 5.18526C34.2666 5.55417 34.0219 5.96708 33.8437 6.40975C33.73 6.7091 33.6539 7.02137 33.617 7.33945C33.6078 7.38434 33.6078 7.43061 33.617 7.4755H33.4809L33.0047 7.70227L32.6193 7.92902L31.871 8.33719L31.1227 8.74535L29.2181 9.92448C27.3234 11.1554 25.5129 12.5114 23.7988 13.9834C22.1175 15.4663 20.5345 17.0569 19.0598 18.7453C18.9011 18.9041 18.765 19.0855 18.629 19.2442L18.2662 19.6977L17.654 20.446C17.4726 20.6501 17.3592 20.8315 17.2685 20.9449L17.1324 21.1036L16.6336 21.7839L16.0667 22.5549L15.3865 23.5979C15.2504 23.7794 15.1371 23.9834 14.9784 24.1875L14.5929 24.8451C14.3208 25.276 14.0487 25.7522 13.7539 26.251L12.9377 27.793L12.7336 28.1785L12.5295 28.5866C12.5295 28.8587 12.2801 29.1535 12.144 29.4256C11.221 31.4239 10.4626 33.4943 9.87656 35.6161L9.67249 36.251C9.67249 36.4551 9.5591 36.6365 9.51376 36.8179C9.46841 36.9993 9.37772 37.4755 9.30969 37.7476C9.24167 38.0197 9.10563 38.5413 9.10563 38.5413V38.7453C9.05535 38.9469 9.01745 39.1514 8.99221 39.3576L8.81085 40.2873C8.81085 40.6501 8.65213 41.0583 8.60678 41.4891C8.56143 41.9199 8.49337 42.4188 8.42535 42.9404C8.4144 43.0686 8.4144 43.1976 8.42535 43.3259C8.42535 43.4619 8.42535 43.598 8.42535 43.734V44.5503C8.31197 45.6841 8.31202 46.8179 8.26668 48.0878C8.22133 49.3576 8.26662 50.4914 8.42535 51.6025V52.4415C8.42535 52.5775 8.42535 52.7136 8.42535 52.827C8.4142 52.9628 8.4142 53.0993 8.42535 53.2351C8.42535 53.734 8.56143 54.2329 8.60678 54.6637C8.65213 55.0946 8.74282 55.5254 8.81085 55.8882C8.87887 56.251 8.94686 56.5458 8.99221 56.8179C9.03756 57.09 8.99225 57.2714 9.10563 57.4302V57.6342C9.10563 57.6342 9.10562 57.929 9.30969 58.4279C9.51376 58.9268 9.44573 58.9948 9.51376 59.3576C9.58178 59.7204 9.62715 59.7204 9.67249 59.9245L9.87656 60.5367C10.466 62.6648 11.2242 64.7424 12.144 66.7499C12.2801 67.022 12.4161 67.2941 12.5295 67.5662L12.7336 67.9744L12.9377 68.3825L13.7539 69.9245L14.5929 71.3304L14.9784 71.988C15.1371 72.1921 15.2504 72.3735 15.3865 72.5776L16.0667 73.598C16.2934 73.9154 16.4975 74.1648 16.6336 74.3916L17.1324 75.0492L17.2685 75.2306C17.2685 75.2306 17.4726 75.5254 17.654 75.7295L18.2662 76.4778L18.629 76.9313C18.765 77.09 18.9011 77.2714 19.0598 77.4302C20.5345 79.1186 22.1175 80.7092 23.7988 82.1921C25.5186 83.6569 27.3286 85.0126 29.2181 86.251L31.1227 87.4075L31.871 87.8157L32.6193 88.2465L33.0047 88.4506L33.4809 88.7L34.6146 89.2442C36.6774 90.2241 38.8065 91.0577 40.9862 91.7385C41.5758 91.9426 42.1653 92.0787 42.7548 92.2601L43.6391 92.4869L44.5008 92.6909L46.1561 93.0537L47.6299 93.3032L48.2875 93.4392H48.8997L49.8747 93.5526H50.7363V93.0991L50.0334 93.3258Z" fill="white"/>
<path d="M44.6953 92.8723C46.5621 93.3772 48.2717 94.3439 49.6666 95.6833C51.0615 97.0228 52.0967 98.6919 52.6768 100.537L52.4954 93.4619L45.1261 92.5095L44.6953 92.8723Z" fill="white"/>
<path d="M73.4686 92.3049C73.7776 92.2716 74.0893 92.2716 74.3983 92.3049H74.6478H74.8971L75.396 92.4183C76.1741 92.6432 76.9324 92.9313 77.6635 93.28C78.4344 93.6201 79.2053 93.9829 79.9309 94.3457L81.6542 95.2528L82.3344 95.6383H82.1304L81.5862 95.8197C81.0874 95.9557 80.4298 96.1371 79.6588 96.2959L79.0693 96.4092H78.4344C78.0039 96.4318 77.5724 96.4318 77.1419 96.4092C76.3164 96.4485 75.4899 96.3567 74.6931 96.1372C73.4637 95.7852 72.3717 95.065 71.564 94.0737C71.2129 93.6429 70.9159 93.1708 70.6797 92.6678C71.0937 92.4161 71.5453 92.2323 72.0175 92.1235C72.5062 92.134 72.9924 92.1948 73.4686 92.3049Z" fill="white"/>
<path d="M71.2016 86.3866C71.574 85.8468 71.9994 85.3454 72.4713 84.89L73.2196 84.2324L73.5824 83.9603L73.9225 83.6655C74.376 83.3254 74.8068 83.0306 75.1016 82.8492L75.5778 82.5317V83.2347C75.5599 83.8118 75.5069 84.3873 75.4191 84.958C75.3197 85.7233 75.1681 86.4809 74.9656 87.2256C74.7539 87.9317 74.457 88.6095 74.0813 89.2437L73.7865 89.6519L73.6278 89.8333L73.4917 89.992C73.2958 90.1998 73.0749 90.3826 72.8341 90.5363L72.1766 90.9444L71.5417 91.1939C71.0855 91.3276 70.6111 91.3889 70.1358 91.3753C70.0797 90.8325 70.0797 90.2854 70.1358 89.7426C70.1935 89.2124 70.2998 88.6887 70.4533 88.178L70.5894 87.7472C70.5894 87.6111 70.5893 87.475 70.7707 87.3163C70.8925 86.9968 71.0365 86.6861 71.2016 86.3866Z" fill="white"/>
<path d="M82.6852 88.0194L82.912 87.838C83.1785 87.6062 83.4671 87.4011 83.7736 87.2257L84.4085 86.931L85.1567 86.6589C85.7839 86.4839 86.433 86.3999 87.0841 86.4094H88.2632L89.4876 86.5908L90.7574 86.8176L91.9365 87.0443L93.8412 87.4752L94.6121 87.6793L93.9545 88.1101L93.2063 88.5636L92.7301 88.8131L92.2313 89.0625L91.1202 89.5613L90.508 89.7881L90.2132 89.9015H89.8958C89.102 90.1458 88.2774 90.2756 87.4469 90.287C86.1613 90.2429 84.9164 89.8253 83.8643 89.0852C83.539 88.8475 83.2285 88.59 82.9347 88.3142L82.6172 87.9741L82.6852 88.0194Z" fill="white"/>
<path d="M84.8512 83.4845C84.6693 84.0598 84.3851 84.5975 84.0121 85.0718C83.856 85.2693 83.6814 85.4516 83.4907 85.616L82.9464 86.0015C82.6586 86.1801 82.355 86.3319 82.0395 86.455H81.7674C81.7674 86.455 81.7674 86.2963 81.6086 86.0242C81.4885 85.6446 81.3901 85.2585 81.3139 84.8677C81.1153 83.9839 81.0953 83.0692 81.2549 82.1775C81.4145 81.2858 81.7506 80.435 82.2435 79.675C82.5593 79.1401 82.9076 78.6251 83.2866 78.133L83.7855 77.4981L84.1936 76.9992L84.579 76.5911C84.6539 76.8137 84.7145 77.041 84.7604 77.2713C84.7604 77.7022 84.9872 78.2918 85.1006 78.972C85.1006 79.3122 85.1005 79.675 85.2139 80.0604C85.2368 80.438 85.2368 80.8167 85.2139 81.1942C85.2358 81.5718 85.2358 81.9504 85.2139 82.328C85.1263 82.7232 85.005 83.1101 84.8512 83.4845Z" fill="white"/>
<path d="M93.4768 79.4933C93.6612 79.2081 93.8739 78.9422 94.1116 78.6996C94.4578 78.3345 94.8549 78.0213 95.2907 77.7699C95.837 77.4286 96.434 77.1761 97.0593 77.0216L97.8076 76.8629L98.6013 76.7042C99.9617 76.5001 101.504 76.432 102.66 76.364H104.678C104.678 76.364 104.383 76.7268 103.884 77.2484C103.277 77.92 102.609 78.5348 101.889 79.0851L101.504 79.3799L101.322 79.5159L101.118 79.652L100.279 80.1509C100.001 80.3053 99.7132 80.4417 99.4175 80.559C99.1493 80.6872 98.868 80.786 98.5786 80.8538C97.3267 81.1747 96.0073 81.1115 94.7919 80.6724C94.2475 80.4913 93.7291 80.2397 93.25 79.9241C93.3099 79.7728 93.3859 79.6283 93.4768 79.4933Z" fill="white"/>
<path d="M92.9125 77.7245C92.7016 77.9822 92.4576 78.2109 92.1869 78.4048L91.8467 78.6088C91.5069 78.1782 91.2107 77.7149 90.9625 77.2256C90.4084 76.2082 90.1052 75.0732 90.0781 73.915C90.0784 73.4356 90.124 72.9573 90.2142 72.4864C90.2142 72.2596 90.3276 72.0329 90.3956 71.7834C90.4636 71.534 90.509 71.3299 90.5997 71.1259C90.6999 70.7639 90.8211 70.408 90.9625 70.0601L91.0758 69.8333V69.6066L91.2572 69.1984C91.4613 68.6995 91.62 68.3821 91.62 68.3821C91.9537 68.8926 92.2566 69.4227 92.527 69.9694C92.6403 70.1961 92.7764 70.4683 92.8898 70.7404L93.0938 71.1485C93.1367 71.2956 93.1898 71.4396 93.2526 71.5794C93.4785 72.1775 93.6605 72.7914 93.7968 73.4161C93.7968 73.6429 93.7968 73.8923 93.9102 74.1191C93.9327 74.3453 93.9327 74.5731 93.9102 74.7993C93.9131 75.3981 93.7976 75.9915 93.57 76.5454C93.4202 76.9733 93.1978 77.3721 92.9125 77.7245Z" fill="white"/>
<path d="M103.492 69.3804H102.676C102.099 69.348 101.529 69.2491 100.975 69.0856C100.967 68.9572 100.967 68.8284 100.975 68.7001C101.036 68.5671 101.089 68.4309 101.134 68.2919C101.203 68.1116 101.286 67.9372 101.383 67.7704C101.614 67.3324 101.904 66.9281 102.245 66.5686L102.54 66.2511L102.88 65.9337C103.143 65.7214 103.424 65.5318 103.719 65.3668C104.049 65.1539 104.398 64.9717 104.762 64.8225L105.896 64.301L108.163 63.4393L110 62.8271L110.771 62.5776L110.453 63.3033C110.338 63.5669 110.21 63.8243 110.068 64.0742C109.909 64.369 109.728 64.6638 109.523 65.0039C109.323 65.3485 109.103 65.6816 108.866 66.0017L108.684 66.2511L108.48 66.5005L108.072 66.9767C107.795 67.2812 107.499 67.5689 107.188 67.8384C107.041 67.9803 106.881 68.1093 106.712 68.2239L106.213 68.5413C105.605 68.8897 104.948 69.1421 104.263 69.2897C104.008 69.335 103.751 69.3653 103.492 69.3804Z" fill="white"/>
<path d="M100.481 65.7748C100.398 66.4243 100.182 67.0497 99.846 67.6115L99.5739 67.9743C99.4907 68.0721 99.3997 68.1631 99.3019 68.2464C98.8538 67.9224 98.4364 67.5581 98.0547 67.158L97.5559 66.5684C97.3695 66.3515 97.1955 66.1244 97.0344 65.8881C96.7023 65.3665 96.443 64.8019 96.2635 64.2101L96.1274 63.7566C96.1274 63.5979 96.1274 63.4392 96.1274 63.2578C96.1041 62.9332 96.1041 62.6073 96.1274 62.2827C96.0929 61.671 96.0929 61.0577 96.1274 60.446C96.1274 60.1739 96.1274 59.9018 96.1274 59.675C96.1274 59.4482 96.1274 59.2215 96.1274 59.0401C96.1274 58.8587 96.1274 58.4958 96.1274 58.4958C96.31 58.6447 96.4841 58.8037 96.6489 58.9721C97.0866 59.3731 97.5029 59.797 97.896 60.2419C98.396 60.8023 98.8508 61.4013 99.2565 62.0333C99.4622 62.3482 99.6515 62.6737 99.8233 63.0083C99.9844 63.3301 100.121 63.6636 100.232 64.0061C100.322 64.3092 100.383 64.6207 100.413 64.9358C100.424 65.0792 100.424 65.2232 100.413 65.3666V65.5707C100.413 65.5707 100.481 65.7067 100.481 65.7748Z" fill="white"/>
<path d="M109.339 56.0243C109.071 56.2205 108.782 56.3878 108.478 56.5232C107.964 56.7853 107.414 56.9688 106.845 57.0674C106.287 57.1886 105.716 57.2419 105.145 57.2261C105.111 56.7545 105.149 56.2804 105.258 55.8202C105.3 55.5964 105.361 55.3765 105.439 55.1627C105.522 54.9147 105.62 54.6723 105.734 54.437C105.86 54.1731 106.012 53.9225 106.188 53.6887L106.482 53.2806C106.548 53.2259 106.609 53.1652 106.664 53.0992L106.845 52.8951C108.005 51.7831 109.265 50.7811 110.609 49.9019C111.244 49.471 111.811 49.0856 112.242 48.8361L112.899 48.4053V49.1763C112.899 49.6524 112.695 50.31 112.491 51.0357C112.27 51.815 111.982 52.5738 111.63 53.3032C111.545 53.4989 111.446 53.6883 111.335 53.8701C111.335 54.0515 111.131 54.2103 111.017 54.3917C110.799 54.7195 110.557 55.0303 110.292 55.3214C109.998 55.5866 109.679 55.822 109.339 56.0243Z" fill="white"/>
<path d="M103.357 56.8631C102.825 56.6681 102.316 56.4173 101.838 56.1148C101.364 55.8378 100.917 55.5191 100.5 55.1624C100.277 54.9543 100.065 54.7348 99.8651 54.5048C99.6508 54.2699 99.4537 54.0199 99.2755 53.7565C99.0949 53.482 98.9357 53.1939 98.7993 52.8949C98.6633 52.6001 98.5726 52.3053 98.4365 51.9878C98.244 51.4002 98.085 50.8021 97.9604 50.1965C97.8528 49.7401 97.7695 49.2784 97.7109 48.8132V48.2463L98.3458 48.5638C98.754 48.7679 99.2755 49.0853 99.8877 49.4708C100.528 49.8826 101.135 50.3452 101.702 50.8541C102.253 51.349 102.748 51.9042 103.176 52.5094C103.361 52.7689 103.514 53.0508 103.629 53.3484C103.629 53.6205 103.788 53.8926 103.856 54.1647C103.877 54.4137 103.877 54.664 103.856 54.913C103.891 55.1308 103.891 55.3528 103.856 55.5706C103.763 56.0265 103.595 56.4635 103.357 56.8631Z" fill="white"/>
<path d="M110.961 38.2917C110.961 38.6092 110.961 38.9266 110.779 39.2214C110.662 39.8127 110.464 40.385 110.19 40.9221C109.858 41.5252 109.429 42.0692 108.92 42.5321C108.492 42.9121 108.02 43.2395 107.514 43.5072C107.004 43.7693 106.463 43.9673 105.904 44.0967L105.791 43.7112C105.691 43.3859 105.623 43.0518 105.587 42.7135C105.523 42.2318 105.523 41.7439 105.587 41.2622C105.692 40.6429 105.899 40.0453 106.199 39.4935L106.562 38.8359C106.629 38.7175 106.705 38.6038 106.789 38.4958L106.993 38.1783C107.378 37.6114 107.786 37.0446 108.217 36.523L109.442 35.0264L110.711 33.5525C110.711 33.5525 110.711 33.9833 110.893 34.6863C110.918 35.0941 110.918 35.503 110.893 35.9108C110.893 36.3643 110.893 36.8631 110.893 37.362C110.939 37.6697 110.962 37.9806 110.961 38.2917Z" fill="white"/>
<path d="M99.2369 42.4188L98.9649 42.1693L98.7154 41.9199C98.5382 41.7472 98.3787 41.5573 98.2393 41.353C98.083 41.166 97.9391 40.9691 97.8084 40.7634L97.4229 40.1739C97.2088 39.8642 97.0193 39.5381 96.8561 39.1988L96.6294 38.768C96.6294 38.6092 96.4933 38.4959 96.4252 38.3598C96.2878 38.1031 96.1667 37.8381 96.0625 37.5662C96.0625 37.5662 96.8107 37.7022 97.8764 37.9743L98.7381 38.2238L99.5997 38.5412C100.217 38.7746 100.816 39.0551 101.391 39.3802C101.805 39.6096 102.193 39.8833 102.547 40.1965C103.022 40.5783 103.409 41.0578 103.681 41.6024C103.877 42.0279 104.014 42.478 104.089 42.9403C104.145 43.263 104.145 43.5927 104.089 43.9154C104.102 44.0435 104.102 44.1727 104.089 44.3009C103.528 44.2645 102.973 44.1656 102.434 44.0061C101.267 43.7111 100.177 43.1699 99.2369 42.4188Z" fill="white"/>
<path d="M105.221 29.0172C104.926 29.494 104.567 29.9288 104.156 30.3097C103.744 30.7023 103.287 31.0448 102.795 31.3301C102.713 31.2214 102.637 31.1078 102.569 30.99C102.39 30.7021 102.238 30.3985 102.115 30.0829C101.912 29.6394 101.789 29.1635 101.752 28.6771C101.728 28.3828 101.728 28.087 101.752 27.7927C101.732 27.4604 101.732 27.1272 101.752 26.795C101.752 26.4473 101.843 26.0845 102.024 25.7065C102.098 25.5144 102.159 25.3174 102.206 25.117L102.41 24.5501C102.682 23.7791 102.999 23.0081 103.294 22.2825L103.702 21.3301L104.042 20.5591L104.36 19.8562L104.723 20.5591C104.723 20.7632 104.927 21.0353 105.04 21.3528L105.403 22.3505C105.466 22.5287 105.519 22.7104 105.562 22.8947C105.625 23.0883 105.678 23.2851 105.72 23.4843C105.72 23.8925 105.879 24.3006 105.947 24.7088C105.97 25.1167 105.97 25.5254 105.947 25.9333C105.945 26.3215 105.907 26.7086 105.834 27.0897C105.745 27.7633 105.538 28.4158 105.221 29.0172Z" fill="white"/>
<path d="M95.0201 31.0807C94.7253 30.8993 94.4532 30.6952 94.1811 30.4911C93.909 30.287 93.6823 30.0829 93.4555 29.8562L92.7753 29.2439L92.2311 28.6771L92.0044 28.4049L91.8003 28.2009C91.6716 28.064 91.5505 27.9201 91.4375 27.77H92.1631C92.6166 27.77 93.2514 27.77 93.9544 27.77C94.7133 27.7976 95.4702 27.8657 96.2218 27.9741H96.7887L97.3556 28.1328C97.7048 28.2264 98.046 28.3478 98.3759 28.4956C98.6735 28.6434 98.9613 28.81 99.2376 28.9945C99.4746 29.153 99.6883 29.3438 99.8725 29.5614C100.192 29.906 100.46 30.2956 100.666 30.7179C100.807 31.0203 100.907 31.3408 100.961 31.6702C100.971 31.791 100.971 31.9123 100.961 32.0331C100.403 32.1581 99.8322 32.219 99.2602 32.2145C98.713 32.2209 98.1663 32.1754 97.6276 32.0784C96.9935 31.9814 96.3756 31.7983 95.791 31.5342C95.5238 31.4012 95.2661 31.2497 95.0201 31.0807Z" fill="white"/>
<path d="M98.1513 17.4752C97.9946 18.0136 97.7738 18.5313 97.4937 19.0171C97.2017 19.4969 96.8513 19.9387 96.4507 20.3323C96.0631 20.0432 95.7194 19.6995 95.4303 19.3119C95.2992 19.1297 95.1781 18.9405 95.0676 18.745C94.924 18.5231 94.8025 18.2877 94.7048 18.0421C94.4554 17.4663 94.3022 16.8534 94.2513 16.228C94.1871 15.4735 94.1871 14.7149 94.2513 13.9605C94.2513 13.1441 94.3873 12.3278 94.4553 11.6929C94.5233 11.058 94.6367 10.287 94.7274 9.8108L94.8408 9.0625L94.9769 9.22123L95.3623 9.65207C95.6797 10.0376 96.1106 10.5818 96.5187 11.194C96.9848 11.9096 97.3797 12.6691 97.6978 13.4616C98.026 14.1815 98.2475 14.9454 98.3554 15.7292C98.3667 15.9104 98.3667 16.0922 98.3554 16.2734C98.3676 16.447 98.3676 16.6213 98.3554 16.7949C98.301 17.0256 98.2329 17.2527 98.1513 17.4752Z" fill="white"/>
<path d="M88.9465 22.0101L88.4704 21.8514H88.2436H87.9941C87.4079 21.6129 86.8396 21.3325 86.2935 21.0124C85.863 20.7885 85.4466 20.5387 85.0465 20.2641L84.7064 20.0146H84.5703H84.7517L85.2505 19.8332L86.9738 19.3344L88.0849 19.1076H88.6744H89.264C90.017 19.0162 90.7784 19.0162 91.5315 19.1076C92.1432 19.1995 92.7296 19.4156 93.2547 19.7425L93.8896 20.1734L94.3431 20.6496C94.6412 21.0009 94.8788 21.3993 95.046 21.8287C94.0398 22.3321 92.9472 22.6399 91.8262 22.7357C90.8229 22.7215 89.8368 22.473 88.9465 22.0101Z" fill="white"/>
<path d="M87.004 10.6727C86.9479 10.8144 86.8797 10.951 86.8 11.0809L86.5052 10.9448C86.191 10.8063 85.8942 10.6312 85.6209 10.4233C84.7083 9.74479 84.0018 8.82637 83.5802 7.77021C83.3911 7.29696 83.232 6.81225 83.104 6.31896C82.9226 5.68404 82.7866 4.98109 82.6505 4.32349C82.5145 3.66589 82.401 3.03098 82.3103 2.48676C82.1289 1.35297 82.0156 0.559326 82.0156 0.559326C82.3602 0.759734 82.6933 0.979278 83.0133 1.21692L84.0336 1.96523C84.3738 2.26001 84.7593 2.57746 85.122 2.94027L85.7796 3.62055L85.961 3.80196L86.097 4.00603C86.202 4.12133 86.3005 4.24247 86.3918 4.36885C86.7444 4.8596 87.0482 5.38364 87.2988 5.93348C87.4253 6.26482 87.5239 6.60614 87.5936 6.95388C87.6511 7.2763 87.6889 7.60192 87.7069 7.92894C87.7034 8.48677 87.6349 9.04227 87.5029 9.58426C87.3663 9.95996 87.1995 10.324 87.004 10.6727Z" fill="white"/>
<path d="M78.089 14.5279L76.9553 14.2558L76.0256 14.029C75.7333 13.9465 75.4457 13.8481 75.1641 13.7342C75.1641 13.7342 75.7536 13.2807 76.6832 12.7138C77.1964 12.3982 77.7263 12.1105 78.2705 11.8521C78.8653 11.5748 79.4791 11.3399 80.1071 11.1492C80.5656 11.0028 81.036 10.8966 81.5129 10.8317C82.6248 10.722 83.7416 10.9852 84.6874 11.58C84.9608 11.7792 85.2186 11.999 85.4583 12.2376L85.6398 12.4417L85.277 12.7365C84.9687 13.0036 84.6345 13.2391 84.2793 13.4395C83.8033 13.726 83.3024 13.9689 82.7827 14.1651C82.4969 14.2827 82.2009 14.3738 81.8984 14.4372C81.5865 14.5236 81.268 14.5843 80.9461 14.6186C79.9945 14.7295 79.0317 14.699 78.089 14.5279Z" fill="white"/>
<path d="M63.6319 93.3255H64.5842H65.1964L65.854 93.2121L67.3278 92.9627L68.9377 92.5999L69.7994 92.4185L70.6837 92.1691C71.2506 92.0103 71.8628 91.8743 72.4296 91.6702C74.5833 90.987 76.6891 90.1613 78.7332 89.1985L79.8669 88.6543L80.3205 88.4049L80.7059 88.2008L81.4542 87.7926L82.1797 87.3845L84.0844 86.228C85.9511 85.0045 87.7384 83.6639 89.4357 82.2144C91.1031 80.7406 92.6782 79.1654 94.152 77.4978L94.5602 76.999C94.6962 76.8402 94.8095 76.6815 94.9456 76.5455C95.0816 76.4094 95.3764 76.0239 95.5352 75.7972C95.6756 75.6543 95.7975 75.4943 95.898 75.321L96.034 75.1396L96.5328 74.482C96.728 74.235 96.9096 73.9776 97.077 73.711C97.2811 73.4162 97.5306 73.0534 97.7573 72.6906L98.1654 72.101L98.5509 71.4661C98.8003 71.0126 99.095 70.5364 99.3898 70.0602C99.6846 69.584 99.9114 69.0625 100.206 68.5409L100.41 68.1328L100.592 67.7473L100.977 66.931C101.886 64.9423 102.644 62.8882 103.245 60.7858C103.288 60.5772 103.349 60.3724 103.426 60.1736C103.426 59.9695 103.426 59.7881 103.562 59.6067C103.698 59.4253 103.743 58.9491 103.789 58.677C103.863 58.4157 103.923 58.1508 103.97 57.8833V57.6793L104.083 57.0897C104.083 56.8403 104.084 56.5228 104.242 56.16C104.331 55.7631 104.399 55.362 104.446 54.9582C104.446 54.5349 104.514 54.0587 104.65 53.5296V53.1441C104.662 53.0159 104.662 52.8868 104.65 52.7586V51.9423C104.65 50.8312 104.65 49.6747 104.809 48.4502C104.968 47.2257 104.809 46.1827 104.65 44.9582V44.1418C104.662 44.006 104.662 43.8695 104.65 43.7337V43.3482C104.65 42.8493 104.582 42.3731 104.446 41.9196C104.446 41.4888 104.31 41.0806 104.242 40.7178C104.174 40.355 104.129 40.0602 104.083 39.7881L103.97 39.1985V38.9944C103.923 38.727 103.863 38.4621 103.789 38.2008C103.789 37.9514 103.653 37.6339 103.562 37.2938C103.471 36.9536 103.562 36.931 103.426 36.7269C103.355 36.526 103.295 36.3217 103.245 36.1146C102.644 34.0123 101.886 31.9581 100.977 29.9695L100.592 29.1532L100.41 28.745L100.206 28.3595C99.9114 27.838 99.6392 27.3165 99.3898 26.8176C99.1404 26.3187 98.8003 25.8879 98.5509 25.4344C98.3014 24.9808 98.3015 24.9808 98.1654 24.7768L97.7573 24.2099C97.5306 23.8244 97.2811 23.4842 97.077 23.1895C96.9151 22.9192 96.7333 22.6615 96.5328 22.4185L96.034 21.7382L95.898 21.5795C95.799 21.3983 95.677 21.2306 95.5352 21.0806L94.9456 20.3323C94.8061 20.1909 94.6773 20.0393 94.5602 19.8788L94.152 19.4026C92.6899 17.7241 91.1141 16.1482 89.4357 14.6861C87.7442 13.2294 85.9564 11.8885 84.0844 10.6725C83.2908 10.1963 82.6559 9.76542 82.1797 9.51599L81.4542 9.10782L80.7059 8.69966L80.3205 8.4729L79.8669 8.24615L79.5041 8.08742C79.0963 8.11045 78.6875 8.11045 78.2797 8.08742C77.086 8.05705 75.915 7.75459 74.8559 7.20307C74.2638 6.89919 73.7148 6.51792 73.2233 6.06928L72.5204 5.389L71.8855 4.7314C71.5454 4.30056 71.1825 3.91509 70.9784 3.64298L70.6383 3.18945H71.3639C71.8174 3.18945 72.4523 3.18945 73.1553 3.18945H73.7221H74.289L75.4227 3.39354C76.2067 3.54778 76.9684 3.79916 77.6902 4.14185C78.225 4.4487 78.7072 4.83911 79.1187 5.2983C79.4155 5.66726 79.6527 6.08043 79.8216 6.52279C79.9409 6.82183 80.0246 7.13389 80.071 7.4525C80.071 7.4525 80.071 7.4525 80.071 7.58855L80.5472 7.81531L80.9554 8.04206C81.4088 8.31417 81.7036 8.45022 81.7036 8.45022L82.4292 8.85839L84.3339 10.0375C86.2363 11.2574 88.0474 12.6139 89.7531 14.0965C91.4467 15.5737 93.0376 17.1647 94.5148 18.8584C94.6735 19.0171 94.8095 19.1985 94.9456 19.3573L95.3084 19.8108L95.9206 20.5591C96.0572 20.7134 96.1787 20.8804 96.2834 21.0579L96.4194 21.2167L96.9183 21.8969L97.4851 22.6679L98.1654 23.711L98.5736 24.3006C98.7096 24.5047 98.823 24.7314 98.9591 24.9582C99.0951 25.1849 99.5032 25.8652 99.798 26.3641L100.614 27.906L100.841 28.2915C100.911 28.4232 100.971 28.5596 101.022 28.6997C101.158 28.9718 101.295 29.2666 101.408 29.5387C102.329 31.5376 103.088 33.6079 103.675 35.7291C103.675 35.9559 103.811 36.16 103.857 36.3641C103.902 36.5681 103.97 36.7496 104.015 36.931C104.061 37.1124 104.174 37.5885 104.242 37.8607L104.424 38.6543C104.428 38.7223 104.428 38.7904 104.424 38.8584C104.484 39.0589 104.529 39.2635 104.56 39.4706C104.56 39.7201 104.56 40.0375 104.718 40.4003C104.877 40.7632 104.877 41.1713 104.922 41.6022C104.968 42.033 105.059 42.5319 105.127 43.0534C105.116 43.1817 105.116 43.3106 105.127 43.4389C105.138 43.5747 105.138 43.7112 105.127 43.847V44.6634C105.263 45.7972 105.263 46.931 105.285 48.2008C105.291 49.3743 105.238 50.5473 105.127 51.7155V52.5545C105.139 52.6828 105.139 52.8118 105.127 52.94C105.115 53.0758 105.115 53.2124 105.127 53.3482C105.127 53.8471 104.99 54.3459 104.922 54.7768C104.854 55.2076 104.786 55.6384 104.718 56.0012C104.65 56.3641 104.605 56.6588 104.56 56.931C104.514 57.2031 104.56 57.3845 104.424 57.5432V57.7473L104.242 58.5409L104.015 59.4706C104.015 59.652 104.015 59.8334 103.857 60.0375C103.807 60.2446 103.746 60.4489 103.675 60.6498C103.085 62.7774 102.326 64.855 101.408 66.8629C101.295 67.135 101.158 67.4071 101.022 67.6793C100.971 67.8193 100.911 67.9557 100.841 68.0874C100.774 68.2281 100.698 68.3645 100.614 68.4956L99.798 70.0375L98.9591 71.4434C98.823 71.6702 98.7096 71.8969 98.5736 72.101L98.1654 72.6906L97.4851 73.711C97.2811 74.0285 97.077 74.2779 96.9183 74.5047L96.4194 75.1623L96.2834 75.3436C96.1787 75.5212 96.0572 75.6882 95.9206 75.8425L95.3084 76.5908L94.9456 77.0443C94.8095 77.2031 94.6735 77.3845 94.5148 77.5432C91.5822 80.9641 88.177 83.9496 84.4019 86.4094L82.4972 87.5659L81.7716 87.974L81.0234 88.4049L80.6152 88.6089L80.139 88.8584L79.0053 89.4026C76.9505 90.3828 74.8289 91.2163 72.6564 91.897C72.0669 92.101 71.4546 92.2371 70.8651 92.4185L70.0034 92.6452L69.1192 92.8493L67.4866 93.2121L65.99 93.4616L65.3325 93.5976H64.7203L63.7453 93.711H62.9062V93.2575L63.6319 93.3255Z" fill="white"/>
<path d="M68.9346 92.8723C67.0697 93.381 65.362 94.349 63.9677 95.6879C62.5734 97.0268 61.5369 98.6939 60.9531 100.537L61.1345 93.4619L68.5038 92.5095L68.9346 92.8723Z" fill="white"/>
<path d="M45.834 56.0527V57.5371H36.5273V56.2383L41.1855 51.0527C41.7585 50.4147 42.2012 49.8743 42.5137 49.4316C42.8327 48.9824 43.054 48.582 43.1777 48.2305C43.3079 47.8724 43.373 47.5078 43.373 47.1367C43.373 46.668 43.2754 46.2448 43.0801 45.8672C42.8913 45.4831 42.6113 45.1771 42.2402 44.9492C41.8691 44.7214 41.4199 44.6074 40.8926 44.6074C40.2611 44.6074 39.7337 44.7311 39.3105 44.9785C38.8939 45.2194 38.5814 45.5579 38.373 45.9941C38.1647 46.4303 38.0605 46.9316 38.0605 47.498H36.2539C36.2539 46.6973 36.4297 45.9648 36.7812 45.3008C37.1328 44.6367 37.6536 44.1094 38.3438 43.7188C39.0339 43.3216 39.8835 43.123 40.8926 43.123C41.791 43.123 42.5592 43.2826 43.1973 43.6016C43.8353 43.9141 44.3236 44.3568 44.6621 44.9297C45.0072 45.4961 45.1797 46.1602 45.1797 46.9219C45.1797 47.3385 45.1081 47.7617 44.9648 48.1914C44.8281 48.6146 44.6361 49.0378 44.3887 49.4609C44.1478 49.8841 43.8646 50.3008 43.5391 50.7109C43.2201 51.1211 42.8783 51.5247 42.5137 51.9219L38.7051 56.0527H45.834ZM56.6934 49.2949V51.4629C56.6934 52.6283 56.5892 53.6113 56.3809 54.4121C56.1725 55.2129 55.873 55.8574 55.4824 56.3457C55.0918 56.834 54.6198 57.1888 54.0664 57.4102C53.5195 57.625 52.901 57.7324 52.2109 57.7324C51.6641 57.7324 51.1595 57.6641 50.6973 57.5273C50.235 57.3906 49.8184 57.1725 49.4473 56.873C49.0827 56.5671 48.7702 56.1699 48.5098 55.6816C48.2493 55.1934 48.0508 54.6009 47.9141 53.9043C47.7773 53.2077 47.709 52.3939 47.709 51.4629V49.2949C47.709 48.1296 47.8132 47.153 48.0215 46.3652C48.2363 45.5775 48.5391 44.946 48.9297 44.4707C49.3203 43.9889 49.7891 43.6439 50.3359 43.4355C50.8893 43.2272 51.5078 43.123 52.1914 43.123C52.7448 43.123 53.2526 43.1914 53.7148 43.3281C54.1836 43.4583 54.6003 43.6699 54.9648 43.9629C55.3294 44.2493 55.6387 44.6335 55.8926 45.1152C56.153 45.5905 56.3516 46.1732 56.4883 46.8633C56.625 47.5534 56.6934 48.3639 56.6934 49.2949ZM54.877 51.7559V48.9922C54.877 48.3542 54.8379 47.7943 54.7598 47.3125C54.6882 46.8242 54.5807 46.4076 54.4375 46.0625C54.2943 45.7174 54.112 45.4375 53.8906 45.2227C53.6758 45.0078 53.4251 44.8516 53.1387 44.7539C52.8587 44.6497 52.543 44.5977 52.1914 44.5977C51.7617 44.5977 51.3809 44.679 51.0488 44.8418C50.7168 44.998 50.4368 45.2487 50.209 45.5938C49.9876 45.9388 49.8184 46.3913 49.7012 46.9512C49.584 47.5111 49.5254 48.1914 49.5254 48.9922V51.7559C49.5254 52.3939 49.5612 52.957 49.6328 53.4453C49.7109 53.9336 49.8249 54.3568 49.9746 54.7148C50.1243 55.0664 50.3066 55.3561 50.5215 55.584C50.7363 55.8118 50.9837 55.9811 51.2637 56.0918C51.5501 56.196 51.8659 56.248 52.2109 56.248C52.6536 56.248 53.041 56.1634 53.373 55.9941C53.7051 55.8249 53.9818 55.5612 54.2031 55.2031C54.431 54.8385 54.6003 54.373 54.7109 53.8066C54.8216 53.2337 54.877 52.5501 54.877 51.7559ZM68.334 56.0527V57.5371H59.0273V56.2383L63.6855 51.0527C64.2585 50.4147 64.7012 49.8743 65.0137 49.4316C65.3327 48.9824 65.554 48.582 65.6777 48.2305C65.8079 47.8724 65.873 47.5078 65.873 47.1367C65.873 46.668 65.7754 46.2448 65.5801 45.8672C65.3913 45.4831 65.1113 45.1771 64.7402 44.9492C64.3691 44.7214 63.9199 44.6074 63.3926 44.6074C62.7611 44.6074 62.2337 44.7311 61.8105 44.9785C61.3939 45.2194 61.0814 45.5579 60.873 45.9941C60.6647 46.4303 60.5605 46.9316 60.5605 47.498H58.7539C58.7539 46.6973 58.9297 45.9648 59.2812 45.3008C59.6328 44.6367 60.1536 44.1094 60.8438 43.7188C61.5339 43.3216 62.3835 43.123 63.3926 43.123C64.291 43.123 65.0592 43.2826 65.6973 43.6016C66.3353 43.9141 66.8236 44.3568 67.1621 44.9297C67.5072 45.4961 67.6797 46.1602 67.6797 46.9219C67.6797 47.3385 67.6081 47.7617 67.4648 48.1914C67.3281 48.6146 67.1361 49.0378 66.8887 49.4609C66.6478 49.8841 66.3646 50.3008 66.0391 50.7109C65.7201 51.1211 65.3783 51.5247 65.0137 51.9219L61.2051 56.0527H68.334ZM76.2051 43.2402V57.5371H74.3984V45.4961L70.7559 46.8242V45.1934L75.9219 43.2402H76.2051Z" fill="white"/>
</g>
<defs>
<clipPath id="clip0_226_296">
<rect width="112.262" height="100" fill="white" transform="translate(0.703125 0.537109)"/>
</clipPath>
</defs>
</svg>
