<svg width="101" height="101" viewBox="0 0 101 101" fill="none" xmlns="http://www.w3.org/2000/svg">
<g clip-path="url(#clip0_228_525)">
<path d="M94.8671 50.5472C95.1112 51.4421 95.2739 52.3369 95.4773 53.0284C95.6807 53.7199 95.9044 54.2487 96.3721 54.4317C96.8399 54.6148 97.9991 55.0825 98.9347 55.4893L100.623 56.2621C100.623 56.0791 100.623 55.8757 100.48 55.6724L100.297 54.9808L99.8295 53.5166C99.6871 53.0285 99.4838 52.52 99.3211 52.0523C99.1584 51.5845 99.016 51.137 98.9143 50.7506C98.8752 50.6592 98.8024 50.5863 98.7109 50.5472C97.4725 50.092 96.1806 49.7981 94.8671 49.6727C94.5531 49.2376 94.2677 48.7824 94.013 48.3101C94.013 48.3101 94.013 47.883 94.013 47.2526C94.013 46.6221 94.013 46.5408 94.013 46.134C94.013 45.7273 94.013 45.3205 93.8706 44.8731C93.7282 44.4257 93.7689 44.0392 93.6876 43.6325C93.6062 43.2257 93.5452 42.8596 93.5045 42.5546C93.4639 42.2495 93.3825 41.9648 93.3622 41.7817V41.497L94.4807 41.8021C94.7808 42.1948 95.0398 42.6174 95.2536 43.063C94.7858 43.063 94.9892 43.7138 95.0299 43.8765C95.0705 44.0392 95.2942 44.0595 95.4773 44.1205C95.6603 44.1816 95.945 43.7952 95.9247 43.5918C95.8779 43.4438 95.8166 43.3007 95.7416 43.1647C95.7416 43.1647 95.3959 43.063 95.3146 43.063C95.1926 42.6359 94.9688 42.0868 94.9078 41.9038L96.3518 42.2495H96.4942C96.6862 42.5273 96.8562 42.8197 97.0026 43.124C96.8399 43.124 96.7992 43.2664 96.7992 43.3884C96.7992 43.5104 96.7992 43.6528 96.7992 43.7138C96.7992 43.7748 97.0026 43.8358 97.1246 43.8765C97.2466 43.9172 97.4297 43.6528 97.4297 43.5104C97.3998 43.4048 97.3589 43.3025 97.3076 43.2054C97.3076 43.2054 97.0636 43.2054 97.0229 43.2054L96.7382 42.4122C97.1692 42.5356 97.5852 42.7061 97.9788 42.9206C97.8568 43.1647 97.9788 43.2868 98.2228 43.3478C98.4669 43.4088 98.4872 43.2054 98.5076 43.1037C98.5279 43.002 98.3245 42.9003 98.2635 42.819C98.2025 42.7376 98.1008 42.819 98.0195 42.819C97.6334 42.5587 97.2167 42.347 96.7789 42.1885L97.572 41.8224C97.572 41.8224 97.6941 41.9851 97.8161 41.9445C97.9381 41.9038 98.0805 41.9444 98.0398 41.7004C97.9991 41.4563 97.8771 41.2733 97.7144 41.3343C97.5517 41.3953 97.328 41.7004 97.5314 41.7817C97.1558 41.9327 96.7564 42.0154 96.3518 42.0258L95.2943 41.7207H95.1112C95.4572 41.5799 95.7906 41.4098 96.1077 41.2123C96.1077 41.2123 96.2704 41.4767 96.4738 41.4157C96.6772 41.3547 96.8399 41.4156 96.7789 41.0699C96.7179 40.7242 96.5145 40.4598 96.3111 40.5412C96.1077 40.6225 95.762 41.0699 96.0671 41.1919C95.5742 41.3758 95.0627 41.5053 94.5417 41.5783C94.0737 41.4598 93.6275 41.2676 93.2198 41.0089L92.9147 39.748C92.9147 39.3819 92.691 38.9548 92.569 38.487C92.447 38.0193 92.3046 37.5312 92.1216 37.0431L91.6335 35.5991C91.4708 35.1517 91.3081 34.745 91.1657 34.3789C91.0233 34.0128 90.9013 33.728 90.82 33.5043L90.6573 33.1993L91.003 33.3823L91.3081 33.5653C92.7114 35.1313 93.3418 37.0634 94.5417 37.0227C95.1315 37.0227 96.2704 37.0227 97.2873 37.0227C98.3042 37.0227 99.138 37.0227 99.138 37.0227C98.599 36.2372 98.015 35.4835 97.389 34.7653L96.3721 33.5857C96.0467 33.1993 95.7417 32.8535 95.4976 32.5281C95.2536 32.2027 92.63 32.7111 91.5318 32.9959C91.0698 32.7153 90.6281 32.4027 90.2099 32.0604L90.0878 31.7757C90.0878 31.5926 89.8641 31.3485 89.7218 31.0435C89.3964 30.4334 89.0099 29.6199 88.5422 28.847L87.871 27.6878L87.2406 26.7116L86.7932 26.0201L86.6101 25.776L87.7693 25.6134C88.1982 25.863 88.6003 26.156 88.9693 26.4879C88.5625 26.7319 88.9693 27.1997 89.0709 27.342C89.1726 27.4844 89.3963 27.342 89.5794 27.342C89.7624 27.342 89.8845 26.8743 89.7828 26.7116C89.6898 26.5827 89.5804 26.4665 89.4574 26.3659C89.4574 26.3659 89.0913 26.3659 89.0303 26.3659L88.1964 25.471L89.6811 25.227H89.8235C90.099 25.4154 90.3638 25.6191 90.6166 25.8371C90.3522 25.9998 90.6166 26.3455 90.6166 26.4472C90.6166 26.5488 90.8403 26.4472 90.9827 26.4472C91.125 26.4472 91.1861 26.1015 91.1251 25.9794L90.9013 25.7354C90.7999 25.7255 90.6977 25.7255 90.5963 25.7354L90.0268 25.1252C90.4734 25.0857 90.9225 25.0857 91.3691 25.1252C91.3691 25.41 91.5928 25.4303 91.7555 25.4303C91.9182 25.4303 91.9589 25.2066 91.9182 25.0846C91.8775 24.9625 91.6945 24.9625 91.5928 24.9218C91.4911 24.8812 91.4504 24.9219 91.3894 25.0846C90.9358 24.9833 90.4708 24.9423 90.0065 24.9626C90.2171 24.7588 90.4141 24.5414 90.5963 24.3117C90.5963 24.3117 90.759 24.4338 90.881 24.3117C91.003 24.1897 91.125 24.3117 90.881 24.0067C90.6369 23.7016 90.576 23.6609 90.4336 23.7829C90.2912 23.905 90.2302 24.2507 90.4336 24.2711C90.1291 24.5432 89.7866 24.7692 89.4167 24.9422L88.3388 25.0439H88.1354C88.3951 24.7729 88.6395 24.4877 88.8676 24.1897C88.8676 24.1897 89.132 24.3524 89.2743 24.1897C89.4167 24.027 89.6404 24.088 89.4167 23.7423C89.193 23.3965 88.9489 23.2745 88.7862 23.4575C88.6235 23.6406 88.4812 24.1491 88.7862 24.1491C88.4037 24.4941 87.9882 24.8006 87.5456 25.0642C87.0609 25.1458 86.566 25.1458 86.0813 25.0642L85.4102 24.1083C85.1865 23.844 84.9425 23.5186 84.6781 23.1728C84.4137 22.8271 84.1289 22.461 83.8035 22.1153L82.9087 21.0781L82.0952 20.2036L81.302 19.3494L80.4885 18.5969H81.2207L81.7291 18.8409C82.5223 19.3087 83.2748 19.8171 83.9052 20.1832C84.5357 20.5493 85.0848 20.7527 85.5322 20.529L88.0948 19.4714L89.8235 18.8206C89.0228 18.3137 88.1945 17.852 87.3423 17.4376L85.939 16.7665L84.7187 16.1157H84.4544C83.2979 16.6483 82.2174 17.3322 81.241 18.1494C80.9766 18.1494 80.3258 17.9664 79.675 17.7834L78.8615 17.0716C78.6175 16.8682 78.3531 16.6038 78.0277 16.3597L77.0312 15.5666L76.5227 15.1802L76.0143 14.814L75.1194 14.1836C74.9102 14.0236 74.693 13.8742 74.4686 13.7362L74.2246 13.5938L75.2415 13.004C75.734 13.0662 76.2182 13.1821 76.6854 13.3498C76.4007 13.7159 76.9498 14.0209 77.1125 14.0819C77.2752 14.1429 77.4176 14.082 77.6006 13.9192C77.7836 13.7565 77.6006 13.3701 77.6006 13.2684C77.4652 13.1869 77.3222 13.1187 77.1735 13.065C77.1735 13.065 76.8481 13.2481 76.7871 13.2887C76.4237 13.0992 76.0503 12.9294 75.6685 12.7803L76.9498 11.9872H77.0718C77.406 12.0388 77.7334 12.1275 78.048 12.2516C77.865 12.4956 78.2514 12.7193 78.3734 12.7803C78.4955 12.8413 78.5768 12.7803 78.6988 12.6583C78.8209 12.5362 78.6988 12.2719 78.6988 12.1905C78.6043 12.1339 78.5013 12.0927 78.3938 12.0685C78.3938 12.0685 78.1701 12.1905 78.1294 12.2108C77.885 12.076 77.6338 11.9538 77.3769 11.8448C77.7702 11.639 78.178 11.4623 78.5971 11.316C78.5971 11.5601 78.9226 11.4991 79.0853 11.4381C79.248 11.377 79.0853 11.1533 79.0853 11.0516C79.0853 10.95 78.8209 11.0516 78.7192 11.0516C78.6175 11.0516 78.6175 11.194 78.5971 11.2753C78.1377 11.3511 77.6922 11.495 77.2752 11.7024C77.2752 11.5194 77.4989 11.1127 77.5599 10.8686C77.621 10.6246 77.7837 10.8686 77.8447 10.8686C77.9057 10.8686 78.048 10.7262 77.8447 10.5432C77.6413 10.3602 77.4176 10.3398 77.3566 10.5432C77.2955 10.7466 77.3565 11.072 77.5396 10.9906C77.379 11.3673 77.1516 11.7118 76.8684 12.0075C76.538 12.1538 76.2186 12.3237 75.9126 12.516L75.7295 12.6176C75.8752 12.2758 75.9908 11.9219 76.0753 11.5601C76.0753 11.5601 76.3804 11.5601 76.4821 11.4381C76.5837 11.316 76.7668 11.194 76.4821 10.9703C76.1973 10.7466 75.8719 10.7262 75.7702 10.9703C75.6685 11.2143 75.7702 11.7228 76.0753 11.6007C75.8526 12.0758 75.5799 12.5258 75.2618 12.943C74.8474 13.1982 74.3939 13.3836 73.9195 13.4921L73.6145 13.2887C73.4314 13.1667 73.167 13.004 72.8213 12.821L71.6824 12.1498C71.2757 11.9058 70.8079 11.7024 70.3401 11.4584C69.4453 10.9703 68.4894 10.5635 67.7979 10.2381L66.9234 9.89238L66.598 9.77036L67.3302 9.56697C67.8357 9.60203 68.3384 9.66998 68.8351 9.77036L70.1774 9.99405C70.9909 10.1567 71.662 10.1568 72.0485 9.75C72.4349 9.34325 73.2891 8.48911 74.0822 7.81797L75.4448 6.55698C74.5091 6.39309 73.5655 6.27772 72.6179 6.21128H71.8248H71.0519C70.5959 6.19448 70.1411 6.15376 69.6893 6.08926C69.2419 6.08926 67.7776 8.26536 67.2081 9.24156C66.9641 9.24156 66.3133 9.42459 65.6218 9.4856L64.5439 9.11954L63.4457 8.75348L62.1644 8.38742L61.5136 8.20433L60.8832 8.06201L59.7443 7.79761L58.9308 7.63488H58.6257C58.7884 7.4315 59.0325 7.14681 59.3375 6.71972C59.8125 6.57601 60.3056 6.50065 60.8018 6.49597C60.6798 6.92306 61.3103 6.98408 61.473 7.00441C61.6357 7.02475 61.7374 6.80107 61.8594 6.65871C61.9814 6.51635 61.7373 6.12991 61.5543 6.0689C61.3991 6.04796 61.2418 6.04796 61.0865 6.0689C61.0865 6.0689 60.8628 6.35366 60.8222 6.41467H59.6019L60.4764 5.21476V5.09267C60.8111 5.02197 61.1514 4.98114 61.4933 4.97065C61.4933 5.27572 61.8594 5.31644 61.9814 5.33678C62.1034 5.35712 62.1645 5.19436 62.2458 5.09267C62.3272 4.99099 62.2458 4.72663 62.0221 4.68596C61.9139 4.67522 61.8049 4.67522 61.6967 4.68596C61.6967 4.68596 61.534 4.86899 61.4933 4.93C61.2156 4.91337 60.9371 4.91337 60.6594 4.93C60.9455 4.58713 61.2584 4.2675 61.595 3.97413C61.7984 4.17751 61.9611 3.97413 62.1034 3.97413C62.2458 3.97413 62.1034 3.68938 61.9611 3.62836C61.8187 3.56735 61.717 3.6284 61.6153 3.73009C61.5136 3.83178 61.6153 3.8928 61.6153 3.99449C61.2227 4.24186 60.8667 4.54308 60.5578 4.88935C60.5759 4.59812 60.5759 4.30601 60.5578 4.01478C60.5578 4.01478 60.7815 4.01479 60.8018 3.83175C60.8222 3.64871 60.9238 3.60807 60.6391 3.54706C60.3544 3.48605 60.1917 3.54707 60.1714 3.68944C60.151 3.8318 60.3747 4.1775 60.5374 4.03514C60.5169 4.43851 60.4346 4.83637 60.2934 5.21476C60.0697 5.45881 59.846 5.72316 59.5816 6.0689L59.4595 6.23164C59.4898 5.8594 59.4898 5.48527 59.4595 5.11303C59.4595 5.11303 59.7646 5.11302 59.785 4.84863C59.8053 4.58424 59.968 4.52327 59.5612 4.44192C59.1545 4.36057 58.9105 4.44191 58.9105 4.68596C58.9105 4.93001 59.1952 5.3774 59.4189 5.15368C59.3973 5.67519 59.3223 6.19313 59.1952 6.69936C58.9074 7.0928 58.557 7.43632 58.1579 7.71624H57.8529C57.5783 7.65517 57.2996 7.61439 57.019 7.59422L55.8191 7.43155H55.1683H54.4565L53.0939 7.32982H51.894H49.6162L50.206 6.88239C50.3755 6.8034 50.5527 6.74207 50.7348 6.69936C51.6296 6.45531 52.5245 6.29264 53.2159 6.08926C53.9074 5.88588 54.4362 5.6825 54.6192 5.1944C54.8023 4.7063 55.27 3.56737 55.6768 2.63184C56.0835 1.69631 56.4496 0.943848 56.4496 0.943848L55.8598 1.08616L55.1683 1.26926L53.704 1.73698L52.2397 2.24542C51.7516 2.40812 51.3245 2.55051 50.9178 2.6522C50.8328 2.69378 50.7672 2.76669 50.7348 2.85559C50.2917 4.03341 50.0046 5.26407 49.8806 6.51633C49.4487 6.83517 48.9932 7.12074 48.518 7.37054H47.4401H46.3419L45.1013 7.53321C44.6742 7.53321 44.2268 7.53318 43.8404 7.69589L42.7625 7.89927L41.9896 8.02129H41.7049L42.01 6.90275C42.4027 6.60266 42.8252 6.34368 43.2709 6.12991C43.2709 6.59768 43.9217 6.39433 44.1047 6.35366C44.2878 6.31298 44.2674 6.08927 44.3284 5.90623C44.3894 5.72319 44.003 5.43846 43.7997 5.4588C43.6516 5.50561 43.5086 5.56691 43.3726 5.64183C43.3726 5.64183 43.3726 5.98755 43.3726 6.0689C42.9658 6.19093 42.3964 6.41467 42.2133 6.47568C42.315 6.06893 42.4167 5.60112 42.5591 5.03166C42.5591 5.03166 42.5591 5.03171 42.5591 4.88935C42.8341 4.69303 43.1269 4.52281 43.4336 4.38091C43.4336 4.54361 43.576 4.58423 43.698 4.58423H44.0234C44.1454 4.58423 44.1454 4.38091 44.1861 4.25889C44.2268 4.13686 43.9624 3.95377 43.82 3.95377C43.713 3.97976 43.6103 4.02084 43.5149 4.07579C43.5149 4.07579 43.5149 4.3199 43.5149 4.38091L42.7218 4.64524C42.8526 4.21987 43.0158 3.80516 43.2099 3.40468C43.4539 3.52671 43.576 3.40469 43.637 3.16064C43.698 2.91659 43.4946 2.89622 43.3929 2.87588C43.2912 2.85555 43.1895 3.05891 43.1082 3.11992C43.0268 3.18094 43.1082 3.28268 43.1082 3.36403C42.8479 3.75012 42.6362 4.16676 42.4777 4.60459C42.3701 4.33041 42.2409 4.06522 42.0913 3.81146C42.1412 3.79391 42.1841 3.76058 42.2134 3.71656C42.2428 3.67254 42.257 3.62017 42.254 3.56735C42.254 3.40465 42.254 3.30299 41.9896 3.34367C41.7252 3.38435 41.5626 3.50638 41.6236 3.66908C41.6846 3.83178 41.9896 4.05549 42.071 3.85211C42.222 4.22762 42.3046 4.62707 42.315 5.03166C42.1799 5.36847 42.0711 5.71527 41.9896 6.0689V6.25193C41.8475 5.91006 41.6845 5.57727 41.5015 5.25541C41.5015 5.25541 41.7456 5.09272 41.6846 4.88935C41.6236 4.68597 41.6846 4.52322 41.3388 4.58423C40.9931 4.64525 40.7287 4.84865 40.8101 5.05202C40.8914 5.2554 41.3388 5.60113 41.4609 5.29606C41.6398 5.78351 41.7692 6.28775 41.8473 6.80109C41.7286 7.28185 41.5365 7.74142 41.2778 8.16367L40.0169 8.44843L38.756 8.79413C38.2882 8.9365 37.8001 9.05853 37.312 9.24156L35.8884 9.72965L34.6478 10.2178L33.7936 10.5635L33.4682 10.7059L33.6512 10.3805C33.7021 10.2666 33.7634 10.1577 33.8343 10.0551C35.4206 8.6721 37.3323 8.0213 37.2917 6.82138C37.2917 6.23159 37.2917 5.09269 37.2917 4.09615C37.2917 3.09961 37.2917 2.22513 37.2917 2.22513C36.5016 2.76529 35.7475 3.35632 35.0342 3.99449L33.8546 4.99101C33.4682 5.31641 33.1225 5.64182 32.7971 5.88587C32.4717 6.12992 32.9801 8.73316 33.2649 9.85173C32.9877 10.3095 32.6749 10.7447 32.3293 11.1533L31.8209 11.0313L31.0887 11.3973C30.4786 11.7227 29.6651 12.1092 28.8923 12.577L27.733 13.2481C27.3873 13.4921 27.0416 13.6955 26.7568 13.8785L26.0654 14.326L25.801 14.509C25.801 14.2446 25.801 13.8582 25.6586 13.3498C25.9082 12.9209 26.2013 12.5188 26.5331 12.1498C26.7772 12.5566 27.245 12.1499 27.3873 12.0482C27.5297 11.9465 27.3873 11.7228 27.3873 11.5397C27.3873 11.3567 26.9195 11.2346 26.7568 11.3363C26.6279 11.4293 26.5117 11.5387 26.4111 11.6617C26.4111 11.6617 26.4111 12.0278 26.4111 12.0888L25.5162 12.9227C25.5162 12.5159 25.4349 12.0278 25.2722 11.4584C25.2821 11.4046 25.2821 11.3495 25.2722 11.2957C25.4591 11.019 25.6629 10.7541 25.8823 10.5025C26.045 10.7669 26.3908 10.5025 26.4925 10.5025C26.5941 10.5025 26.4925 10.2788 26.4925 10.1364C26.4925 9.99406 26.1467 9.93305 26.045 10.0144C25.9527 10.0678 25.8701 10.1366 25.801 10.2178C25.801 10.2178 25.801 10.4822 25.801 10.5228C25.801 10.5635 25.3129 10.9703 25.1909 11.1126C25.1514 10.6593 25.1514 10.2034 25.1909 9.75C25.4756 9.75 25.4959 9.52629 25.4959 9.36358C25.4959 9.20088 25.2519 9.18057 25.1502 9.20091C25.0485 9.22125 25.0281 9.42463 24.9875 9.52632C24.9468 9.62801 24.9875 9.68897 25.1502 9.72965C25.0503 10.1835 25.0093 10.6483 25.0282 11.1126C24.8244 10.902 24.607 10.705 24.3773 10.5228C24.4104 10.4828 24.4285 10.4324 24.4285 10.3805C24.4285 10.3285 24.4104 10.2782 24.3773 10.2381C24.3773 10.1161 24.3774 9.99406 24.0723 10.1364C23.7672 10.2788 23.7266 10.4618 23.8486 10.5635C23.9706 10.6652 24.3164 10.7872 24.3367 10.5635C24.6088 10.8679 24.8348 11.2105 25.0078 11.5804C25.0078 11.9058 25.0078 12.2515 25.0078 12.6583C25.0078 12.6583 25.0078 12.8006 25.0078 12.8617C24.7368 12.602 24.4516 12.3576 24.1536 12.1295C24.1536 12.1295 24.3163 11.8855 24.1536 11.7228C23.9909 11.5601 24.1536 11.3567 23.7062 11.5804C23.2588 11.8041 23.2588 12.0481 23.4215 12.2108C23.5842 12.3735 24.113 12.5159 24.113 12.2108C24.4626 12.5969 24.7695 13.0197 25.0282 13.4718C25.1097 13.9497 25.1097 14.4379 25.0282 14.9158L24.0926 15.5869L23.1368 16.3191L22.0792 17.1936L21.042 18.0884L20.1675 18.9019L19.3336 19.6951L18.5608 20.5086V19.7764L18.8049 19.268C19.2726 18.4748 19.7811 17.7224 20.1471 17.0919C20.5132 16.4614 20.7166 15.9326 20.4929 15.4649C20.2692 14.9971 19.8014 13.8379 19.4353 12.9024C19.0693 11.9668 18.7845 11.1737 18.7845 11.1737C18.2777 11.9743 17.816 12.8027 17.4016 13.6549C17.1575 14.1226 16.9338 14.6107 16.7304 15.0582C16.5271 15.5056 16.283 15.9326 16.0796 16.2784C16.0589 16.3653 16.0589 16.4558 16.0796 16.5428C16.6201 17.6949 17.3034 18.7746 18.1134 19.7561C18.1134 20.0205 17.9304 20.6713 17.7473 21.3221L17.0355 22.1356C16.8321 22.3796 16.5678 22.644 16.3237 22.9694L15.5305 23.966L15.1441 24.4744L14.778 24.9829L14.1476 25.8777C13.9876 26.087 13.8382 26.3042 13.7001 26.5285C13.644 26.6045 13.5963 26.6863 13.5578 26.7726L12.968 25.7557C13.0301 25.2632 13.1461 24.779 13.3137 24.3117C13.6798 24.5965 13.9849 24.0474 14.0459 23.8847C14.1069 23.722 14.0459 23.5796 13.8832 23.4169C13.7205 23.2542 13.3341 23.3152 13.2324 23.4169C13.1463 23.5471 13.0843 23.6918 13.0494 23.8439C13.0494 23.8439 13.212 24.1694 13.2527 24.2304C13.0697 24.6168 12.8256 25.1456 12.7443 25.349L11.9511 24.0677V23.9457C12.0055 23.6121 12.0941 23.2849 12.2155 22.9694C12.4596 23.1525 12.6833 22.7661 12.7443 22.644C12.8053 22.522 12.7443 22.4407 12.6223 22.3186C12.5002 22.1966 12.2359 22.3186 12.1545 22.3186C12.0979 22.4132 12.0567 22.5162 12.0325 22.6237C12.0325 22.6237 12.1545 22.8474 12.1748 22.8881C12.0353 23.137 11.913 23.3952 11.8088 23.6609C11.602 23.261 11.4253 22.8464 11.28 22.4204C11.524 22.3187 11.463 22.0949 11.402 21.9322C11.341 21.7695 11.1173 21.9322 11.0156 21.9322C10.9139 21.9322 11.0156 22.1966 11.0156 22.2983C11.0156 22.4 11.1376 22.4 11.2393 22.4204C11.3151 22.8798 11.459 23.3254 11.6664 23.7423C11.4834 23.7423 11.0766 23.5185 10.8326 23.4575C10.5885 23.3965 10.8326 23.2542 10.8326 23.1728C10.8326 23.0915 10.6902 22.9695 10.5072 23.1728C10.3241 23.3762 10.3038 23.5999 10.5072 23.6609C10.7106 23.7219 11.036 23.6609 10.9546 23.4779C11.3312 23.6385 11.6757 23.8659 11.9715 24.1491C12.1172 24.4863 12.2871 24.8125 12.4799 25.1252L12.5816 25.288C12.2364 25.1514 11.8832 25.0359 11.5241 24.9422C11.5241 24.9422 11.5241 24.6372 11.402 24.5355C11.28 24.4338 11.158 24.2508 10.9342 24.5355C10.7105 24.8202 10.6902 25.1456 10.9342 25.2472C11.1783 25.3489 11.6664 25.2473 11.5444 24.9422C12.0194 25.1649 12.4694 25.4376 12.8867 25.7557C13.1418 26.1701 13.3273 26.6236 13.4358 27.098L13.2324 27.403C13.1104 27.5861 12.9477 27.8505 12.7646 28.1962L12.0935 29.3351C11.8495 29.7419 11.6461 30.2097 11.402 30.6774C10.9139 31.5723 10.5072 32.5282 10.1818 33.24C10.0191 33.5857 9.91739 33.8907 9.83604 34.0941L9.71402 34.4195L9.51063 33.6874C9.54568 33.1819 9.61363 32.6791 9.71402 32.1824C9.71402 31.7146 9.87672 31.2468 9.93773 30.8401C10.0801 30.0266 10.1004 29.3555 9.69366 28.9691C9.28691 28.5827 8.43274 27.7285 7.7616 26.9353C7.09046 26.1421 6.50069 25.5727 6.50069 25.5727C6.33565 26.515 6.22025 27.4654 6.15495 28.4199C6.15495 28.664 6.15495 28.9284 6.15495 29.1927V29.9656C6.15495 30.4537 6.15496 30.9215 6.03293 31.3282C5.91091 31.735 8.20902 33.24 9.18522 33.8094C9.18522 34.0535 9.36828 34.7246 9.42929 35.3958L9.0632 36.4533C9.0632 36.7787 8.81917 37.1651 8.69714 37.5718L8.33105 38.8531L8.14802 39.5039C8.14802 39.7276 8.04632 39.931 8.00564 40.1344C7.96497 40.3378 7.82263 40.9479 7.74127 41.2733C7.65992 41.5987 7.61925 41.8834 7.57857 42.0868C7.56864 42.1882 7.56864 42.2905 7.57857 42.3919L6.64303 41.6801C6.50238 41.2037 6.42044 40.712 6.39899 40.2158C6.84642 40.3378 6.90742 39.7073 6.92776 39.5446C6.94809 39.3819 6.72438 39.2802 6.58202 39.1582C6.43966 39.0361 6.03292 39.2802 5.99225 39.4633C5.9713 39.6185 5.9713 39.7758 5.99225 39.931C5.99225 39.931 6.27697 40.1547 6.33798 40.1954C6.33798 40.6225 6.33798 41.2123 6.33798 41.4157L5.13808 40.5412H5.01606C4.94535 40.2065 4.90449 39.8662 4.89401 39.5243C5.19907 39.5243 5.23976 39.1582 5.2601 39.0565C5.28043 38.9548 5.11774 38.8532 5.01606 38.7718C4.91437 38.6905 4.64996 38.7718 4.60928 38.9955C4.59854 39.1037 4.59854 39.2127 4.60928 39.3209C4.60928 39.3209 4.79234 39.4836 4.85335 39.5243C4.83742 39.802 4.83742 40.0804 4.85335 40.3581C4.51049 40.0721 4.19086 39.7592 3.89749 39.4226C4.08052 39.2192 3.89749 39.0565 3.89749 38.9141C3.89749 38.7718 3.61277 38.9141 3.55175 39.0565C3.49074 39.1989 3.55173 39.3006 3.65342 39.4023C3.7551 39.504 3.81613 39.4023 3.91781 39.4023C4.17327 39.7828 4.47374 40.131 4.81267 40.4394C4.52145 40.4213 4.22936 40.4213 3.93814 40.4394C3.93814 40.4394 3.93815 40.2361 3.75511 40.1954C3.57207 40.1547 3.53141 40.0734 3.45006 40.3581C3.36871 40.6429 3.45006 40.8259 3.61276 40.8259C3.77546 40.8259 4.10086 40.6225 3.9585 40.4598C4.36216 40.478 4.76035 40.5603 5.13808 40.7038L5.99225 41.3953L6.15495 41.5173C5.78235 41.4979 5.40898 41.4979 5.03638 41.5173C5.03638 41.5173 5.03637 41.2123 4.77199 41.1919C4.5076 41.1716 4.44659 41.0089 4.36524 41.4157C4.28389 41.8224 4.36523 42.0665 4.60928 42.0665C4.85333 42.0665 5.30078 41.7818 5.07707 41.558C5.59857 41.5797 6.11647 41.6546 6.62271 41.7817C7.01614 42.0695 7.35966 42.4199 7.63958 42.819V43.124C7.57851 43.3986 7.53773 43.6773 7.51756 43.9579C7.51756 44.3239 7.41587 44.7104 7.35486 45.1578C7.29384 45.6052 7.35486 45.5848 7.35486 45.8289V46.5204C7.35486 46.9882 7.35485 47.4559 7.25316 47.883C7.15148 48.3101 7.25316 48.7372 7.25316 49.0829C7.25316 49.7744 7.25316 50.2422 7.25316 50.2422V51.7065L6.78541 51.1167L6.62271 50.588C6.37866 49.6931 6.21595 48.7982 6.01257 48.1068C5.8092 47.4153 5.60582 46.8865 5.11772 46.7035C4.62962 46.5204 3.49073 46.0526 2.5552 45.6459L0.867188 44.8731C0.867188 45.0561 0.867202 45.2595 1.00956 45.4832C1.15193 45.7069 1.13158 45.9103 1.1926 46.1543C1.25361 46.3984 1.49765 47.1102 1.66035 47.6186C1.82305 48.1271 2.00609 48.6152 2.16879 49.0829C2.33149 49.5507 2.47384 49.9981 2.57553 50.4049C2.61712 50.4899 2.69002 50.5555 2.77892 50.588C3.95674 51.031 5.18742 51.3181 6.43968 51.4421C6.76109 51.8722 7.04676 52.328 7.29385 52.8047C7.29385 52.8047 7.29385 53.2318 7.29385 53.8826C7.29385 54.208 7.29385 54.5741 7.29385 54.9808C7.29385 55.3876 7.29383 55.7944 7.43619 56.2214C7.57856 56.6485 7.5379 57.096 7.61926 57.4824C7.7006 57.8688 7.7616 58.2552 7.82261 58.5603C7.88362 58.8653 7.92429 59.1501 7.94463 59.3331C7.93798 59.4279 7.93798 59.5231 7.94463 59.6179L6.80574 59.3331C6.50988 58.9303 6.25123 58.5014 6.03293 58.0518C6.50069 58.0518 6.29729 57.401 6.25661 57.2383C6.21594 57.0756 5.99226 57.0756 5.80922 56.9943C5.62618 56.9129 5.34145 57.3196 5.36179 57.523C5.4086 57.6711 5.4699 57.8142 5.54482 57.9502C5.54482 57.9502 5.89054 58.0518 5.97189 58.0518C6.09392 58.4586 6.31765 59.028 6.37867 59.2111L4.93469 58.8653H4.79234C4.59602 58.5903 4.4258 58.2975 4.28391 57.9908C4.4466 57.9908 4.48726 57.8484 4.48726 57.7264C4.50109 57.6184 4.50109 57.509 4.48726 57.401C4.48726 57.279 4.30422 57.279 4.16185 57.2383C4.01949 57.1977 3.85679 57.462 3.87713 57.6044C3.8563 57.705 3.8563 57.8088 3.87713 57.9094C3.87713 57.9094 4.1212 57.9094 4.18221 57.9094C4.24322 57.9094 4.38557 58.5399 4.44658 58.7026C4.01563 58.5792 3.59958 58.4087 3.20599 58.1942C3.32801 57.9501 3.206 57.8281 2.96195 57.7671C2.7179 57.7061 2.69756 57.9095 2.67722 58.0112C2.65689 58.1129 2.86025 58.2145 2.92126 58.2959C2.98228 58.3772 3.08399 58.2959 3.16534 58.2959C3.55417 58.5514 3.97026 58.7629 4.40593 58.9263C4.24322 58.9263 3.83648 59.1704 3.61276 59.3127C3.38905 59.4551 3.49072 59.1297 3.36869 59.1704C3.24667 59.2111 3.1043 59.1704 3.14498 59.4145C3.18565 59.6585 3.30769 59.8415 3.47039 59.7805C3.63309 59.7195 3.85679 59.4144 3.65342 59.3331C4.02893 59.1821 4.4284 59.0995 4.833 59.0891C5.1698 59.2242 5.5166 59.333 5.87023 59.4145H6.05326C5.71139 59.5566 5.37857 59.7196 5.05671 59.9025C5.05671 59.9025 4.89402 59.6585 4.69065 59.7195C4.48727 59.7805 4.32456 59.7195 4.38557 60.0652C4.44658 60.411 4.64997 60.6754 4.87368 60.594C5.09739 60.5127 5.40246 60.0652 5.09739 59.9432C5.59106 59.7619 6.10225 59.6324 6.62271 59.5568C7.09583 59.6792 7.54818 59.8712 7.96499 60.1263C7.96499 60.1263 8.06668 60.6347 8.24971 61.3872C8.24971 61.7533 8.47342 62.1804 8.59545 62.6481C8.71747 63.1159 8.85984 63.604 9.04287 64.0921L9.53095 65.536C9.71399 65.9835 9.87671 66.3902 9.99874 66.7563C10.1208 67.1224 10.2631 67.4071 10.3648 67.6105C10.4027 67.7229 10.4503 67.8318 10.5072 67.9359L10.1818 67.7529C10.0679 67.702 9.95899 67.6407 9.85636 67.5698C8.45307 65.9835 7.82262 64.0921 6.62271 64.1124H3.87713H2.02644C2.56548 64.898 3.14946 65.6517 3.77547 66.3699L4.79234 67.5495C5.13808 67.9359 5.44312 68.2816 5.68717 68.607C5.93122 68.9324 8.53442 68.424 9.75467 68.1393C10.2044 68.4285 10.6388 68.7408 11.0563 69.0748L11.1783 69.3595C11.1783 69.5426 11.402 69.7866 11.5444 70.0917C11.6867 70.3968 12.2562 71.5153 12.724 72.2881C12.968 72.6746 13.1714 73.0813 13.3951 73.4474L14.0256 74.4236L14.473 75.1151L14.656 75.3795L13.4968 75.5218C13.0679 75.2722 12.6658 74.9792 12.2969 74.6473C12.7036 74.4236 12.2969 73.9355 12.1952 73.8135C12.0935 73.6914 11.8698 73.8135 11.6868 73.8135C11.5037 73.8135 11.3817 74.2812 11.4834 74.4643C11.5813 74.5828 11.6902 74.6918 11.8088 74.7897C11.8088 74.7897 12.1748 74.7897 12.2358 74.7897L13.0697 75.6845L11.5851 75.9286H11.4427C11.1614 75.7482 10.896 75.5441 10.6495 75.3184C10.9139 75.1557 10.6495 74.81 10.6495 74.7083C10.6495 74.6066 10.4258 74.7083 10.2835 74.7083C10.1411 74.7083 10.0801 75.0541 10.1411 75.1557C10.208 75.2501 10.2828 75.3385 10.3648 75.4202C10.4662 75.4301 10.5684 75.4301 10.6699 75.4202L11.2393 76.0303C10.7928 76.0698 10.3436 76.0698 9.89705 76.0303C9.89705 75.7455 9.67333 75.7252 9.51063 75.7252C9.34793 75.7252 9.32759 75.9693 9.34792 76.071C9.36826 76.1727 9.57164 76.193 9.67333 76.2336C9.77502 76.2743 9.81571 76.2337 9.87672 76.071C10.3305 76.1709 10.7953 76.2119 11.2597 76.193C11.1376 76.315 10.8326 76.6404 10.6699 76.8437C10.6298 76.8107 10.5795 76.7926 10.5275 76.7926C10.4756 76.7926 10.4252 76.8107 10.3852 76.8437C10.2631 76.9454 10.1411 76.8438 10.2835 77.1489C10.4258 77.4539 10.6089 77.4946 10.7309 77.3725C10.8529 77.2505 10.9343 76.9048 10.7309 76.8845C11.0353 76.6124 11.3779 76.3863 11.7478 76.2133L12.8257 76.0913H13.029C12.8256 76.315 12.4799 76.7014 12.2969 76.9455C12.1138 77.1895 12.0528 76.7828 11.8901 76.9455C11.7274 77.1082 11.5241 76.9455 11.7478 77.3929C11.9715 77.8403 12.2155 77.8606 12.3782 77.6776C12.5409 77.4946 12.6833 76.9861 12.3782 76.9861C12.7643 76.6365 13.187 76.3297 13.6391 76.071C14.117 75.9894 14.6053 75.9894 15.0831 76.071L15.7543 77.0268C15.978 77.2912 16.222 77.6166 16.4864 77.9623C16.7508 78.3081 17.0355 78.6741 17.3609 79.0199L18.2558 80.0571C18.5405 80.4029 18.8252 80.6672 19.0693 80.9316L19.8828 81.7655L20.6759 82.5383H19.9438L19.4353 82.2943C18.6422 81.8265 17.8897 81.3181 17.2592 80.952C16.6288 80.5859 16.1 80.3825 15.6322 80.6062C15.1644 80.8299 14.0052 81.3181 13.0697 81.6638C12.1342 82.0095 11.341 82.3146 11.341 82.3146C12.1416 82.8214 12.97 83.2832 13.8222 83.6976L15.2255 84.389C15.6427 84.5783 16.05 84.7887 16.4457 85.0195H16.7101C17.863 84.4804 18.9427 83.797 19.9234 82.9857C20.4531 83.072 20.9764 83.1943 21.4894 83.3518L22.3029 84.0433C22.547 84.2467 22.8114 84.5111 23.1368 84.7551L24.1333 85.5483L24.6417 85.9347L25.1502 86.3008L26.045 86.9312C26.2543 87.0913 26.4715 87.2406 26.6958 87.3787L26.9399 87.5413L25.923 88.1108C25.4305 88.0487 24.9463 87.9328 24.479 87.7651C24.7638 87.399 24.2146 87.1142 24.0519 87.0126C23.8892 86.9109 23.7469 87.0126 23.5842 87.1956C23.4215 87.3787 23.4825 87.7447 23.5842 87.8464C23.7144 87.9325 23.8591 87.9945 24.0113 88.0294C24.0113 88.0294 24.3367 87.8668 24.3977 87.8261C24.7841 88.0295 25.3129 88.2735 25.5162 88.3548L24.235 89.1277H24.113C23.7794 89.0733 23.4522 88.9847 23.1368 88.8633C23.3198 88.6192 22.9334 88.3955 22.8114 88.3548C22.6894 88.3142 22.608 88.3548 22.486 88.3548C22.3639 88.3548 22.486 88.7413 22.486 88.8226C22.5821 88.876 22.6846 88.917 22.791 88.9446C22.791 88.9446 23.0147 88.8429 23.0554 88.8023C23.2998 88.9371 23.551 89.0594 23.8079 89.1684C23.4163 89.3777 23.0082 89.5545 22.5877 89.6971C22.5877 89.4327 22.2623 89.4937 22.0996 89.5547C21.9368 89.6158 22.0996 89.8395 22.0996 89.9412C22.0996 90.0429 22.3639 89.9412 22.4656 89.9412C22.5673 89.9412 22.5877 89.7785 22.5877 89.6971C23.0471 89.6214 23.4927 89.4774 23.9096 89.2701C23.9096 89.4531 23.6859 89.8598 23.6249 90.1039C23.5639 90.348 23.4012 90.1039 23.3401 90.1039C23.2791 90.1039 23.1368 90.2463 23.3401 90.4293C23.5435 90.6124 23.7672 90.6327 23.8283 90.4293C23.8893 90.2259 23.8282 89.9005 23.6452 89.9819C23.8109 89.608 24.0377 89.2643 24.3163 88.965L25.2925 88.4566H25.4552C25.3188 88.7949 25.2033 89.1412 25.1095 89.4937C25.1095 89.4937 24.8044 89.4938 24.7027 89.6361C24.6011 89.7785 24.418 89.8598 24.7027 90.0835C24.9875 90.3073 25.3129 90.3479 25.4146 90.0835C25.5163 89.8192 25.4146 89.3311 25.1095 89.4531C25.3322 88.978 25.6049 88.528 25.923 88.1108C26.3374 87.8557 26.7908 87.6702 27.2653 87.5617L27.55 87.7651L28.3635 88.2328L29.5024 88.904C29.9092 89.148 30.3769 89.3717 30.8447 89.5955C31.7395 90.0836 32.6954 90.4903 33.3869 90.8157L34.2614 91.1614L34.5868 91.2835L33.875 91.4868C33.3609 91.4719 32.8497 91.4038 32.3496 91.2835L31.0074 91.0598C30.1939 90.9174 29.5431 90.8971 29.1363 91.3038C28.7296 91.7106 27.8957 92.5647 27.1026 93.3376L25.7196 94.4155C26.6538 94.5894 27.598 94.7049 28.5465 94.7612H29.3397H30.1125L31.4751 94.9035C31.9226 94.9035 33.3869 92.7071 33.9563 91.7309C34.2004 91.7309 34.8715 91.5479 35.5426 91.4868L36.6205 91.8529L37.7187 92.219L39 92.5851L39.6508 92.7681L40.2813 92.9105L41.4202 93.1749L42.2337 93.3376H42.5388L41.8269 94.2528C41.3506 94.3934 40.8588 94.4754 40.3626 94.4968C40.4846 94.0494 39.8542 93.9884 39.6915 93.968C39.5288 93.9477 39.4271 94.1714 39.3051 94.3138C39.183 94.4562 39.4271 94.8629 39.6101 94.9035C39.7654 94.9245 39.9227 94.9245 40.0779 94.9035C40.0779 94.9035 40.3016 94.6189 40.3423 94.5578H41.5625L40.688 95.7578V95.8798C40.3551 95.9603 40.0137 96.0013 39.6712 96.0018C39.6712 95.6967 39.3254 95.6561 39.183 95.6357C39.0407 95.6154 39 95.7781 38.9187 95.8798C38.8373 95.9815 38.9187 96.2459 39.1424 96.2866H39.4678C39.4678 96.2866 39.6508 96.1035 39.6712 96.0424H40.505C40.2189 96.3853 39.9061 96.7049 39.5695 96.9983C39.3661 96.7949 39.2034 96.9983 39.061 96.9983C38.9187 96.9983 39.061 97.2831 39.2034 97.3441C39.3458 97.4051 39.4474 97.3441 39.5491 97.3441C39.6508 97.3441 39.5491 97.1814 39.5491 97.0797C39.9458 96.8378 40.3025 96.536 40.6067 96.1848C40.5885 96.4828 40.5885 96.7817 40.6067 97.0797C40.6067 97.0797 40.383 97.0797 40.383 97.2424C40.383 97.4051 40.2406 97.4661 40.5253 97.5475C40.8101 97.6288 40.9727 97.5474 40.9931 97.3847C41.0134 97.222 40.7897 96.8967 40.627 97.039C40.6475 96.6357 40.7298 96.2378 40.8711 95.8594L41.5625 95.0053L41.6846 94.8629C41.6651 95.2287 41.6651 95.5953 41.6846 95.9611C41.6846 95.9611 41.3795 95.9612 41.3592 96.2255C41.3388 96.4899 41.1761 96.5509 41.5829 96.6323C41.9896 96.7136 42.2337 96.6323 42.2337 96.4086C42.2337 96.1849 41.9489 95.6967 41.7252 95.9204C41.7469 95.3989 41.8218 94.8811 41.9489 94.3748C42.2478 93.9911 42.5966 93.6491 42.9862 93.3579H43.2912C43.5658 93.419 43.8445 93.4598 44.1251 93.4799L45.325 93.6426H45.9961H46.6876L48.0502 93.7444H49.2501H50.4094H51.5279L50.9381 94.2121L50.4094 94.3748C49.5145 94.6189 48.6197 94.7815 47.9282 94.9849C47.2367 95.1883 46.7079 95.412 46.5249 95.8798C46.3419 96.3475 45.8741 97.5068 45.4674 98.4423C45.0606 99.3779 44.6945 100.13 44.6945 100.13L45.2843 99.9879L45.9758 99.8049L47.4401 99.3372C47.9485 99.1948 48.4366 98.9915 48.9044 98.8288C49.3721 98.6661 49.8196 98.5237 50.2263 98.422C50.3113 98.3804 50.3769 98.3075 50.4094 98.2186C50.8524 97.0408 51.1395 95.8101 51.2635 94.5578C51.6987 94.2438 52.1538 93.9584 52.6261 93.7036H53.704H54.8023L56.0632 93.541C56.4794 93.5094 56.8935 93.455 57.3038 93.3782L58.402 93.1952L59.1545 93.0528H59.4392L59.1341 94.1714C58.7414 94.4715 58.3189 94.7305 57.8732 94.9443C57.8732 94.4765 57.2224 94.6798 57.0597 94.7205C56.897 94.7612 56.897 94.9849 56.836 95.1679C56.775 95.351 57.1411 95.6357 57.3445 95.6154C57.4957 95.5775 57.6398 95.5157 57.7715 95.4323C57.7715 95.4323 57.8732 95.0866 57.8732 95.0053C58.28 94.8832 58.8494 94.6595 59.0325 94.5781C58.9308 95.0052 58.8291 95.473 58.6867 96.0424C58.6867 96.0424 58.6867 96.1441 58.6867 96.1848C58.4117 96.3811 58.1189 96.5514 57.8122 96.6933C57.8122 96.5306 57.6698 96.4899 57.5478 96.4899H57.2224C57.1004 96.4899 57.1004 96.6933 57.0597 96.8153C57.0191 96.9373 57.2834 97.1203 57.4258 97.1203C57.5328 97.0944 57.6355 97.0533 57.7309 96.9983C57.7309 96.9983 57.7309 96.7543 57.7309 96.7136C58 96.6325 58.2647 96.5374 58.524 96.4289C58.397 96.8556 58.2337 97.2706 58.0359 97.6695C57.7919 97.5475 57.6698 97.6695 57.6088 97.9135C57.5478 98.1576 57.7512 98.1779 57.8529 98.1982C57.9546 98.2186 58.0563 98.0152 58.1376 97.9542C58.219 97.8932 58.1376 97.7915 58.1376 97.7101C58.3932 97.3213 58.6046 96.9053 58.7681 96.4696C58.7681 96.6323 59.0121 97.039 59.1545 97.2627C59.2969 97.4864 58.9714 97.3847 59.0121 97.5068C59.0528 97.6288 59.0121 97.7712 59.2562 97.7305C59.5002 97.6898 59.6833 97.5678 59.6222 97.4051C59.5612 97.2424 59.2765 97.039 59.1748 97.2221C59.0238 96.8465 58.9412 96.447 58.9308 96.0424C59.0628 95.6976 59.1715 95.3443 59.2562 94.9849V94.8019C59.397 95.1479 59.5671 95.4813 59.7646 95.7984C59.7646 95.7984 59.5002 95.9814 59.5612 96.1645C59.6222 96.3475 59.5612 96.5306 59.907 96.4696C60.2527 96.4086 60.5171 96.2052 60.4358 95.9814C60.3544 95.7577 59.907 95.4527 59.785 95.7578C59.5991 95.2668 59.4761 94.7543 59.4189 94.2324C59.5256 93.7574 59.7112 93.3037 59.968 92.8901L61.2289 92.6054L62.4898 92.2597C62.9576 92.1173 63.4457 91.9953 63.9338 91.8123L65.3778 91.3242L66.598 90.836L67.4725 90.4903L67.7776 90.3479L67.5945 90.6937C67.5406 90.7995 67.4795 90.9014 67.4115 90.9988C65.8455 92.3817 63.9135 93.0325 63.9541 94.2324C63.9541 94.8222 63.9541 95.9611 63.9541 96.978C63.9541 97.9949 63.9541 98.8288 63.9541 98.8288C64.7442 98.2886 65.4983 97.6975 66.2116 97.0593L67.3912 96.0628L68.4487 95.1679C68.8148 94.9036 68.2657 92.3207 67.981 91.2224C68.2515 90.754 68.5647 90.3115 68.9165 89.9005L69.2012 89.7785L69.9334 89.4124C70.5435 89.087 71.357 88.7006 72.1298 88.2328L73.2891 87.5617L74.2652 86.9312L74.9567 86.4838L75.2211 86.3008C75.2211 86.5652 75.2211 86.9515 75.3635 87.46C75.1139 87.8889 74.8208 88.291 74.489 88.66C74.2652 88.2532 73.7772 88.6599 73.6348 88.7616C73.4924 88.8633 73.6348 89.087 73.6348 89.2701C73.6348 89.4531 74.1026 89.5751 74.2856 89.4734C74.4042 89.3756 74.5131 89.2666 74.611 89.148C74.611 89.148 74.611 88.782 74.611 88.721C74.9364 88.4566 75.3635 88.0295 75.5058 87.8871C75.5058 88.2939 75.5872 88.782 75.7499 89.3514C75.7499 89.3514 75.7499 89.4531 75.7499 89.5141C75.5695 89.7954 75.3654 90.0608 75.1398 90.3073C74.9771 90.0429 74.6313 90.3073 74.5296 90.3073C74.428 90.3073 74.5296 90.531 74.5296 90.6734C74.5296 90.8157 74.8754 90.8767 74.9974 90.8157L75.2211 90.592C75.2211 90.592 75.2211 90.3276 75.2211 90.2869C75.2211 90.2463 75.7092 89.8192 75.8516 89.7175C75.883 90.1644 75.883 90.6129 75.8516 91.0598C75.5668 91.0598 75.5465 91.2835 75.5465 91.4462C75.5465 91.6089 75.7906 91.6292 75.8923 91.6089C75.9939 91.5885 76.0143 91.3851 76.055 91.2835C76.0956 91.1818 76.055 91.1411 75.8923 91.0801C75.9935 90.6264 76.0346 90.1615 76.0143 89.6971C76.1363 89.8192 76.4617 90.1242 76.6651 90.2869C76.632 90.327 76.6139 90.3774 76.6139 90.4293C76.6139 90.4813 76.632 90.5316 76.6651 90.5716C76.7668 90.6937 76.6651 90.8157 76.9701 90.6734C77.2752 90.531 77.3159 90.3683 77.1939 90.2463C77.0718 90.1243 76.7261 90.0226 76.7058 90.2463C76.4337 89.9418 76.2076 89.5993 76.0346 89.2294C76.0346 88.9243 76.0346 88.5583 76.0346 88.1515V87.9481C76.3003 88.2136 76.5858 88.4583 76.8888 88.6802C76.8888 88.6802 76.7261 88.9447 76.8888 89.087C77.0515 89.2294 76.8888 89.4531 77.3362 89.2294C77.7837 89.0057 77.804 88.7616 77.621 88.5989C77.4379 88.4362 76.9295 88.2939 76.9295 88.5989C76.5844 88.2164 76.2779 87.8009 76.0143 87.3583C75.9327 86.8736 75.9327 86.3787 76.0143 85.894L76.9701 85.2229L77.9057 84.4907C78.2514 84.206 78.6175 83.9416 78.9632 83.6162L80.0004 82.7213L80.8749 81.9079L81.7291 81.0944L82.4816 80.3012V81.0333L82.2375 81.5418C81.7698 82.335 81.2614 83.0874 80.8953 83.7179C80.5292 84.3483 80.3258 84.8975 80.5496 85.3449C80.7733 85.7923 81.2614 86.9719 81.6071 87.9074C81.9528 88.8429 82.2579 89.6361 82.2579 89.6361C82.7648 88.8355 83.2265 88.0071 83.6408 87.1549C83.8849 86.6872 84.1086 86.1991 84.312 85.7516C84.5154 85.3042 84.7594 84.8772 84.9628 84.5314C84.9835 84.4445 84.9835 84.3539 84.9628 84.267C84.4237 83.1141 83.7403 82.0343 82.929 81.0536C83.016 80.5258 83.1314 80.0031 83.2748 79.4877L83.9866 78.6742C84.1899 78.4301 84.4543 78.1657 84.6984 77.8403L85.4916 76.8437C85.6136 76.681 85.756 76.5183 85.878 76.3353L86.244 75.8269L86.8745 74.9321C87.0345 74.7228 87.1839 74.5056 87.3219 74.2812L87.4846 74.0372C87.6067 74.2813 87.7897 74.6067 88.0541 75.0541C87.9919 75.5466 87.876 76.0308 87.7083 76.498C87.3423 76.2133 87.0575 76.7624 86.9762 76.9251C86.8948 77.0878 86.9762 77.2302 87.1389 77.4133C87.3016 77.5963 87.688 77.4133 87.7897 77.4133C87.8713 77.2779 87.9394 77.1348 87.9931 76.9861C87.9931 76.9861 87.81 76.6607 87.7693 76.5997C87.9727 76.2336 88.2168 75.6846 88.2981 75.5015L89.0709 76.7624V76.8845C89.0166 77.2181 88.928 77.5452 88.8066 77.8606C88.5625 77.6776 88.3388 78.064 88.2778 78.186C88.2168 78.3081 88.2778 78.3894 88.3998 78.5114C88.5219 78.6335 88.7862 78.5114 88.8676 78.5114C88.9242 78.4169 88.9654 78.3139 88.9896 78.2064C88.9896 78.2064 88.9896 77.9827 88.8472 77.942C88.9821 77.6976 89.1043 77.4465 89.2133 77.1895C89.4272 77.586 89.6042 78.0013 89.7421 78.4301C89.4777 78.4301 89.5387 78.7555 89.5997 78.9182C89.6608 79.0809 89.8845 78.9182 89.9862 78.9182C90.0879 78.9182 89.9862 78.6538 89.9862 78.5522C89.9862 78.4505 89.8641 78.4505 89.7625 78.4301C89.6867 77.9707 89.5427 77.5251 89.3353 77.1081C89.5184 77.1081 89.9251 77.3319 90.1692 77.3929C90.4132 77.4539 90.1692 77.6166 90.1692 77.6776C90.1692 77.7386 90.3116 77.881 90.4946 77.6776C90.6776 77.4742 90.698 77.2505 90.4946 77.1895C90.2912 77.1285 89.9658 77.1895 90.0472 77.3725C89.6705 77.212 89.326 76.9846 89.0303 76.7014C88.8879 76.4167 88.7252 76.1116 88.5015 75.7456V75.5625C88.8398 75.699 89.1862 75.8144 89.5387 75.9082C89.5387 75.9082 89.5387 76.2133 89.6811 76.315C89.8234 76.4167 89.9048 76.5997 90.1285 76.315C90.3522 76.0303 90.3929 75.7049 90.1285 75.6032C89.8641 75.5015 89.376 75.6032 89.498 75.9082C89.023 75.6855 88.573 75.4128 88.1558 75.0947C87.9006 74.6803 87.7151 74.2269 87.6066 73.7524L87.81 73.4678L88.2981 72.6542L88.9489 71.5153C89.193 71.1086 89.4167 70.6408 89.6404 70.1934C90.1285 69.2782 90.5353 68.3223 90.8607 67.6308C91.0234 67.2647 91.125 66.9597 91.2064 66.7563L91.3284 66.4309L91.5318 67.1631C91.4967 67.6686 91.4288 68.1713 91.3284 68.6681C91.3284 69.1358 91.1657 69.6036 91.1047 70.0103C90.9623 70.8238 90.942 71.495 91.3488 71.8814C91.7555 72.2678 92.6097 73.122 93.3825 73.9152L94.6231 75.2778C94.7971 74.3436 94.9125 73.3995 94.9688 72.4509C94.9688 72.1865 94.9688 71.9221 94.9688 71.6577V70.8848C94.9688 70.3967 94.9688 69.929 95.0909 69.5223C95.2129 69.1155 92.9147 67.6105 91.9385 67.0411C91.9385 66.797 91.7555 66.1259 91.6945 65.4547L92.0606 64.3971C92.1623 64.0717 92.3046 63.6853 92.4267 63.2786C92.5487 62.8718 92.6707 62.4447 92.7927 61.9973L92.9758 61.3465C92.9758 61.1228 93.0774 60.9194 93.1181 60.716C93.1588 60.5127 93.3012 59.9025 93.3825 59.5771C93.4639 59.2517 93.5045 58.967 93.5452 58.7636V58.4586C93.7486 58.6213 94.0333 58.8654 94.4604 59.1704C94.6011 59.6468 94.683 60.1385 94.7044 60.6347C94.257 60.5127 94.196 61.1431 94.1757 61.3058C94.1553 61.4685 94.3791 61.5702 94.5214 61.6923C94.6638 61.8143 95.0705 61.5703 95.1112 61.3872C95.1324 61.232 95.1324 61.0746 95.1112 60.9194C95.1112 60.9194 94.8265 60.6957 94.7655 60.655C94.7655 60.2279 94.7655 59.6381 94.7655 59.4348L95.9654 60.3093H96.0874C96.168 60.6423 96.2089 60.9836 96.2094 61.3262C95.9044 61.3262 95.8637 61.6922 95.8433 61.7939C95.823 61.8956 95.9857 61.9973 96.0874 62.0787C96.1891 62.16 96.4535 62.0787 96.4942 61.8549C96.5049 61.7467 96.5049 61.6377 96.4942 61.5295C96.4942 61.5295 96.3111 61.3669 96.2501 61.3262C96.266 61.0485 96.266 60.7701 96.2501 60.4924C96.593 60.7784 96.9126 61.0912 97.2059 61.4279C97.0026 61.6312 97.2059 61.7939 97.2059 61.9363C97.2059 62.0787 97.4907 61.9363 97.5517 61.7939C97.6127 61.6516 97.5517 61.5499 97.5517 61.4482C97.5517 61.3465 97.389 61.4482 97.3076 61.4482C97.0441 61.0618 96.7371 60.7069 96.3925 60.3906C96.6837 60.4088 96.9757 60.4088 97.267 60.3906C97.267 60.3906 97.267 60.6144 97.45 60.6347C97.6331 60.6551 97.6737 60.7567 97.7551 60.472C97.8364 60.1873 97.7551 60.0042 97.5924 60.0042C97.4297 60.0042 97.1043 60.2076 97.267 60.3703C96.8553 60.3642 96.4484 60.2814 96.0671 60.1263L95.2129 59.4348L95.0502 59.3127C95.4224 59.3438 95.7965 59.3438 96.1687 59.3127C96.1687 59.3127 96.1688 59.6178 96.4332 59.6381C96.6975 59.6585 96.7585 59.8212 96.8399 59.4145C96.9212 59.0077 96.8399 58.7636 96.5958 58.7636C96.3518 58.7636 95.9044 59.0484 96.1281 59.2721C95.6066 59.2505 95.0887 59.1755 94.5824 59.0483C94.1938 58.755 93.8511 58.4055 93.5656 58.0112V57.7061C93.5656 57.5027 93.5655 57.218 93.7079 56.8723C93.8503 56.5265 93.7079 56.1198 93.8503 55.6724C93.9926 55.2249 93.8503 55.2452 93.8503 55.0012V54.3097C93.8503 53.8623 93.8503 53.3945 93.952 52.9471C94.0537 52.4996 93.952 52.1132 93.952 51.7675V49.4693L94.4197 50.0592C94.579 50.2123 94.7284 50.3753 94.8671 50.5472ZM93.5452 51.5845C93.5452 51.9099 93.5452 52.2759 93.5452 52.6624C93.5452 53.0488 93.5452 53.4758 93.5452 53.9029C93.5452 54.33 93.5452 54.7368 93.4435 55.1232C93.3418 55.5096 93.4435 55.8757 93.3012 56.1808C93.1588 56.4859 93.3012 56.7705 93.3012 56.9536C93.3012 57.1366 93.3012 57.2383 93.3012 57.2383C92.9964 57.6657 92.6489 58.0609 92.264 58.4179C90.9481 58.274 89.618 58.3288 88.3185 58.5806C88.1354 58.845 87.9117 59.1501 87.6473 59.4755L87.2609 59.9432L86.8338 60.411L85.9797 61.2652C85.7356 61.5499 85.4712 61.7939 85.2678 61.9973L87.0982 62.1193L89.8235 62.2617C90.3726 62.2617 90.7997 61.855 91.2268 61.1838C91.4628 60.8262 91.6735 60.4524 91.8572 60.0652C92.0606 59.6585 92.325 59.2314 92.569 58.784L93.1181 58.2959V58.6213C93.1181 58.8246 93.1181 59.1297 92.9554 59.4755C92.7927 59.8212 92.7724 60.2483 92.6707 60.6754C92.569 61.1025 92.569 61.1228 92.508 61.3669L92.325 62.0583C92.1826 62.5058 92.0606 62.9735 91.9182 63.4006C91.7759 63.8277 91.6538 64.2344 91.5318 64.5802C91.4098 64.9259 91.3284 65.1903 91.2471 65.3937L91.1251 65.6988C90.6316 65.9682 90.0805 66.1147 89.5184 66.1258C89.0256 65.9596 88.5491 65.7485 88.0948 65.4954C88.3998 65.4954 88.0947 65.0073 87.9321 64.8853C87.7694 64.7633 87.5253 64.8853 87.4033 65.231C87.2813 65.5767 87.4033 65.4954 87.6677 65.5971C87.7217 65.6338 87.7854 65.6535 87.8507 65.6535C87.916 65.6535 87.9798 65.6338 88.0337 65.5971L88.9489 66.2276H88.7456H87.688C87.2936 66.1195 86.9169 65.9551 86.5694 65.7394C86.7932 65.7394 86.5694 65.3937 86.4678 65.3327C86.3661 65.2717 86.183 65.3327 86.1017 65.536C86.0203 65.7394 86.1017 65.7191 86.2644 65.8004C86.4271 65.8818 86.4881 65.8004 86.5288 65.8004L87.2203 66.3089C86.7883 66.329 86.3593 66.3903 85.939 66.4919C85.939 66.4919 85.756 66.3293 85.7153 66.3496C85.6746 66.3699 85.4509 66.3496 85.4509 66.5123C85.4509 66.675 85.4509 66.797 85.6543 66.797C85.8576 66.797 86.0407 66.797 85.9797 66.5326C86.2441 66.5326 86.7118 66.5326 87.2813 66.5326C87.1263 66.7198 86.9837 66.9168 86.8542 67.1224C86.8542 67.1224 86.5898 67.1224 86.5491 67.1224C86.4911 67.1871 86.4368 67.255 86.3864 67.3258C86.3864 67.4478 86.3864 67.7325 86.5898 67.7325C86.7931 67.7325 86.8745 67.7325 86.9355 67.7325C86.9965 67.7325 87.1999 67.3258 86.9355 67.2037C87.1376 66.9851 87.3551 66.7812 87.5863 66.5936H87.749C88.3185 66.5936 88.8066 66.5936 89.2133 66.5936L88.5625 67.5292C88.5625 67.5292 88.1761 67.5292 88.1354 67.5292C88.0411 67.6273 87.9592 67.7365 87.8914 67.8546C87.8914 68.0173 87.8914 68.4444 88.1761 68.4444C88.4608 68.4444 88.5829 68.4444 88.6642 68.4444C88.7456 68.4444 89.071 67.8139 88.6642 67.6308C88.9764 67.292 89.3092 66.9727 89.6608 66.6749C90.1031 66.6682 90.5445 66.6342 90.9827 66.5733L90.881 66.8783C90.881 67.0614 90.698 67.3461 90.5556 67.6512L90.0675 68.7494L89.7828 69.3595L89.4777 69.99L88.8472 71.1899C88.6439 71.5763 88.4405 71.9424 88.2575 72.2475L87.8304 72.9593C87.8039 73.0347 87.7624 73.1038 87.7083 73.1626C87.2608 73.4322 86.7914 73.6635 86.305 73.8542C85.13 73.233 83.8789 72.768 82.5833 72.4712C81.9433 72.9148 81.2623 73.2962 80.5496 73.6101L79.4513 74.0779L78.5158 74.4846L80.1428 75.2981L82.6036 76.4574C83.1121 76.7014 83.6612 76.4573 84.312 76.0303C84.6374 75.8065 84.9628 75.5218 85.3289 75.2371C85.6949 74.9524 86.0813 74.627 86.4678 74.3219L87.1592 74.0779L86.9965 74.3423L86.5288 75.0337C86.122 75.5828 85.6339 76.3557 85.0441 77.0675L84.2103 78.125L83.4375 78.9996L82.9087 79.6301L82.685 79.8537C82.1275 79.9175 81.5629 79.8478 81.0376 79.6503C80.6304 79.3127 80.262 78.9307 79.9394 78.5114C80.2445 78.5114 80.1631 78.0844 79.9394 77.9013C79.7157 77.7183 79.553 77.759 79.3293 78.0234C79.1056 78.2878 79.3293 78.2877 79.3293 78.4504C79.3293 78.6131 79.6344 78.4504 79.7157 78.4504C79.8957 78.7724 80.0926 79.0847 80.3055 79.3859H80.1225L79.2683 79.0809H79.1259C78.8015 78.831 78.5139 78.5366 78.2717 78.2064C78.3734 78.2064 78.2717 77.9013 78.2717 77.7793C78.2717 77.6573 78.048 77.6776 77.926 77.7793C77.7633 77.942 77.926 77.942 77.926 78.064C77.9668 78.0854 78.0122 78.0966 78.0582 78.0966C78.1042 78.0966 78.1496 78.0854 78.1904 78.064C78.3124 78.2877 78.5565 78.6335 78.6582 78.7962C78.245 78.6389 77.815 78.5297 77.3769 78.4708C77.3769 78.4708 77.2752 78.2471 77.2142 78.2674C77.1532 78.2877 76.9498 78.2674 76.9295 78.2674C76.9091 78.2674 76.9295 78.5522 76.9295 78.6132C76.9295 78.6742 77.2955 78.7148 77.3159 78.4708C77.7303 78.5902 78.1377 78.7327 78.5361 78.8979L77.926 79.2843C77.926 79.2843 77.7023 79.1216 77.6616 79.1419C77.5726 79.1748 77.49 79.223 77.4176 79.2843C77.4176 79.2843 77.4176 79.6707 77.4176 79.7114C77.4176 79.752 77.6616 79.8741 77.743 79.8131C77.8243 79.7521 78.1497 79.5284 77.926 79.3046C78.1981 79.1875 78.4764 79.0857 78.7598 78.9996H78.8819L79.5123 79.2843C79.7483 79.3987 79.9932 79.494 80.2445 79.569L79.9801 79.7521L79.309 80.1995C79.309 80.1995 78.9429 79.9961 78.9022 80.0368C78.7666 80.0767 78.6416 80.1461 78.5361 80.2402C78.4141 80.3418 78.4344 80.8096 78.5361 80.891C78.6378 80.9723 78.8819 81.0943 79.0039 80.891C79.1259 80.6876 79.614 80.4842 79.2886 80.1588C79.5463 80.0287 79.8111 79.9133 80.0818 79.8131L80.5699 79.6301C81.2003 79.8538 81.6071 79.9758 81.8512 80.0368L81.0986 80.83L80.3462 81.5621C80.1021 81.7655 79.8377 82.0299 79.553 82.2943L78.6378 83.1078C78.0074 83.6569 77.3362 84.1653 76.8481 84.5517L76.238 85.0195L75.9939 85.1822C75.4754 85.259 74.9521 85.2997 74.4279 85.3042C73.6551 84.4907 71.8654 82.518 71.5197 82.5993C71.174 82.6807 70.8282 82.7213 70.4215 82.7823C70.0147 82.8434 69.5876 82.7823 69.1809 82.7823C68.347 82.7823 67.5132 82.7823 66.9641 82.7823L68.1437 84.145L69.9944 86.1788C70.7265 86.9923 72.4145 86.1788 74.3873 85.6703H75.1194C75.1194 85.6703 74.733 85.955 74.1229 86.3414L73.0653 86.9922L71.8451 87.7041L71.235 88.0701L70.6045 88.3752L69.5266 88.9446L68.7334 89.3107L68.4284 89.4531C67.8887 89.2913 67.3943 89.0058 66.9844 88.6192C66.7584 88.1554 66.5747 87.6721 66.4353 87.1753C66.6794 87.338 66.8014 86.8499 66.7404 86.6058C66.6794 86.3618 66.4353 86.3414 66.1302 86.6058C65.8252 86.8702 65.9675 86.8092 66.1302 87.0329C66.1569 87.1006 66.2054 87.1573 66.2681 87.1942C66.3307 87.2311 66.4039 87.2459 66.476 87.2363C66.476 87.5617 66.598 88.0295 66.6387 88.3345L66.5167 88.1922L65.7235 87.46C65.5242 87.1092 65.3736 86.7329 65.2761 86.3414C65.4388 86.4635 65.5405 86.1381 65.4998 85.9754C65.4591 85.8127 65.2964 85.772 65.093 85.8736C64.8897 85.9753 64.971 86.016 65.093 86.1584C65.2151 86.3008 65.2557 86.3007 65.3168 86.3211C65.3778 86.3414 65.4184 86.9922 65.4388 87.1753C65.1224 86.8745 64.7747 86.6086 64.4016 86.3821C64.4016 86.3821 64.4016 86.1584 64.4016 86.138C64.4016 86.1177 64.1779 85.9957 64.1168 86.138C64.0558 86.2804 63.9541 86.3821 64.1168 86.5041C64.2795 86.6261 64.4016 86.7482 64.5236 86.5041C64.8624 86.7654 65.1819 87.0509 65.4795 87.3583C65.2469 87.3861 65.016 87.4268 64.788 87.4803C64.788 87.4803 64.6253 87.2567 64.5846 87.2567C64.4966 87.2512 64.4082 87.2512 64.3202 87.2567C64.1982 87.2567 64.0762 87.5617 64.1779 87.6634C64.2795 87.7651 64.3405 87.9074 64.4422 87.8668C64.5439 87.8261 64.9303 87.8667 64.8083 87.4803C65.0991 87.4508 65.3921 87.4508 65.6828 87.4803C66.0692 87.9074 66.415 88.2531 66.72 88.5379C66.5167 88.5379 65.9879 88.6599 65.6015 88.7616C65.6015 88.7616 65.3574 88.4362 65.3168 88.4362C65.1815 88.4234 65.0453 88.4234 64.91 88.4362C64.7473 88.4362 64.5643 88.904 64.7066 89.026C64.849 89.148 64.9303 89.3718 65.093 89.3514C65.2557 89.3311 65.8049 89.1887 65.6422 88.7616C66.1023 88.7211 66.565 88.7211 67.0251 88.7616C67.3481 89.0712 67.6875 89.3631 68.042 89.6361L67.7369 89.7785L66.9641 90.0835L65.8455 90.531L64.5439 90.958C63.6694 91.2834 62.7746 91.5072 62.1034 91.7106L61.6357 91.8326H61.2899H60.9645C60.4581 91.7076 59.9618 91.5443 59.4799 91.3445C59.11 90.064 58.555 88.8444 57.8325 87.7244L56.7547 87.4803L55.5751 87.0533L54.4362 86.6058L53.521 86.2194C53.521 86.2194 53.765 87.0126 54.0904 87.9481C54.4158 88.8837 54.8022 89.9819 55.0056 90.531C55.3717 91.5682 57.2428 91.4665 59.2562 91.7512L59.5816 91.9139L59.907 92.0767H59.6019L58.7884 92.2393L57.6292 92.4427L56.3072 92.6257C55.392 92.7478 54.4769 92.8088 53.8057 92.8698H52.6465C52.2074 92.5244 51.8584 92.0779 51.6296 91.5682C51.577 91.0475 51.577 90.5229 51.6296 90.0022C51.7923 90.2666 52.0974 89.8599 52.1177 89.6158C52.138 89.3718 51.9347 89.2497 51.5889 89.2701C51.2432 89.2904 51.3652 89.4124 51.3652 89.6565C51.3652 89.9005 51.5279 89.9209 51.5889 89.9615C51.6499 90.0022 51.4059 90.7547 51.3449 91.0394C51.3522 90.9854 51.3522 90.9307 51.3449 90.8767L50.9585 90.0429V89.9209C50.8971 89.5164 50.8971 89.105 50.9585 88.7006C50.9585 88.7006 51.2229 88.5176 51.2432 88.3956C51.2635 88.2735 51.1415 88.1515 50.9585 88.1515C50.7348 88.1515 50.7958 88.1515 50.7958 88.3956C50.7926 88.4431 50.8046 88.4905 50.8302 88.5307C50.8558 88.571 50.8936 88.602 50.9381 88.6192C50.9381 88.8633 50.7754 89.2904 50.7348 89.4531C50.5566 89.059 50.3386 88.6842 50.084 88.3345C50.084 88.3345 50.084 88.1108 50.084 88.0701C50.084 88.0295 49.9213 87.8464 49.8399 87.8871C49.7586 87.9278 49.5959 88.0498 49.6772 88.1922C49.7586 88.3345 49.8399 88.5379 50.0433 88.3956C50.2487 88.771 50.432 89.158 50.5924 89.5547L49.9009 89.3921C49.9009 89.3921 49.9009 89.1277 49.7992 89.1277C49.7123 89.1069 49.6218 89.1069 49.5349 89.1277C49.4128 89.1277 49.2095 89.3514 49.2501 89.4734C49.2908 89.5955 49.2501 89.7378 49.4128 89.7581C49.5755 89.7785 49.9009 89.7582 49.9009 89.5345C50.1814 89.6347 50.4534 89.7571 50.7144 89.9005V90.0429C50.7144 90.2666 50.8771 90.4903 50.9585 90.6734C51.0398 90.8564 51.1618 91.1818 51.2635 91.4055H50.9585L50.1653 91.2428C50.1653 91.2428 50.0636 90.836 50.0026 90.836C49.8681 90.8116 49.7304 90.8116 49.5959 90.836C49.4332 90.836 49.1077 91.1411 49.1891 91.3242C49.2704 91.5072 49.1891 91.7309 49.4332 91.7512C49.6772 91.7716 50.1653 91.8732 50.1653 91.4055L50.9585 91.7309L51.4466 91.9546C51.6215 92.3583 51.8184 92.752 52.0364 93.1342H50.9585H49.9212H48.8434H47.6028L46.3825 93.0325L45.3047 92.8901L44.5725 92.7885H44.2674C43.8445 92.4781 43.4497 92.131 43.0878 91.7512C43.2318 90.4354 43.1769 89.1053 42.9252 87.8057L42.0303 87.1346L41.5625 86.7482L41.0948 86.3211L40.2406 85.4669C39.9559 85.2229 39.7322 84.9585 39.5085 84.7551C39.2847 84.5517 39.5085 85.5889 39.3864 86.5855C39.2644 87.582 39.2847 88.6192 39.2441 89.3107C39.2034 90.0022 39.6712 90.2869 40.3016 90.714C40.9321 91.1411 41.0338 91.1208 41.4405 91.3445C41.8473 91.5682 42.2744 91.8122 42.7218 92.0563L43.2099 92.6054H42.8845L42.0303 92.4427L40.8304 92.158L40.1389 91.9953L39.4678 91.8123L38.1052 91.4055L36.9256 91.0191L36.1121 90.7344L35.807 90.6123C35.5376 90.1189 35.3911 89.5677 35.3799 89.0057C35.5462 88.5129 35.7572 88.0364 36.0104 87.5821C36.0104 87.8871 36.4985 87.582 36.6205 87.4193C36.7426 87.2566 36.6205 87.0126 36.2748 86.8905C35.9291 86.7685 36.0104 86.8905 35.9087 87.1549C35.8748 87.2137 35.8569 87.2803 35.8569 87.3481C35.8569 87.416 35.8748 87.4826 35.9087 87.5413C35.6823 87.8279 35.4719 88.1266 35.2782 88.4362C35.2693 88.3687 35.2693 88.3003 35.2782 88.2328C35.2782 87.8261 35.2782 87.4803 35.2782 87.1753C35.3951 86.784 35.559 86.4085 35.7664 86.0567C35.7664 86.2804 36.1121 86.0567 36.1731 85.955C36.2341 85.8533 36.1731 85.6703 35.9697 85.589C35.7663 85.5076 35.7867 85.5889 35.7053 85.7516C35.624 85.9143 35.7053 85.9753 35.7053 86.016L35.1969 86.7075C35.1792 86.2766 35.1248 85.8479 35.0342 85.4262C35.0342 85.4262 35.1766 85.2432 35.1562 85.2025C35.1359 85.1619 35.1562 84.9381 34.9935 84.9381C34.8308 84.9381 34.7088 84.9381 34.7088 85.1415C34.7088 85.3449 34.7088 85.5279 34.9935 85.4669C34.9935 85.711 34.9935 86.1788 34.9935 86.7482C34.8063 86.5933 34.6093 86.4506 34.4037 86.3211C34.4037 86.3211 34.4037 86.0567 34.4037 86.016C34.4037 85.9753 34.4037 85.894 34.2004 85.8533C33.997 85.8127 33.7936 85.8534 33.7936 86.0567C33.7936 86.2601 33.7936 86.3414 33.7936 86.4024C33.7936 86.4635 34.2004 86.6668 34.3224 86.4024C34.5461 86.6068 34.7503 86.8315 34.9325 87.0736V87.2159C34.9325 87.7854 34.9325 88.2735 34.9325 88.6802L33.997 88.0498C34.0266 87.9021 34.0266 87.75 33.997 87.6024C33.8989 87.508 33.7896 87.4261 33.6716 87.3583C33.5089 87.3583 33.0818 87.46 33.1021 87.6431C33.1225 87.8261 33.1021 88.0498 33.1021 88.1311C33.1021 88.2125 33.7326 88.5379 33.9156 88.1311C34.2545 88.4433 34.5737 88.7761 34.8715 89.1277C34.8795 89.5767 34.9135 90.0249 34.9732 90.47L34.6681 90.3479L33.8953 90.0225L32.7971 89.5345L32.1869 89.2497L31.5768 88.9446L30.3566 88.3142L29.3194 87.7244L28.5872 87.2973L28.3838 87.1753C28.1143 86.7278 27.883 86.2583 27.6924 85.772C28.3225 84.601 28.7879 83.3486 29.0753 82.0502C28.6356 81.4077 28.2545 80.7271 27.9364 80.0165L27.4687 78.9182C27.3263 78.5521 27.1839 78.2268 27.0822 77.9827L26.2484 79.5893L25.0892 82.0705C24.8655 82.5586 25.0891 83.1281 25.5162 83.7789C25.74 84.1043 26.0247 84.4297 26.3094 84.7958C26.5941 85.1618 26.9195 85.5482 27.2246 85.9347L27.4687 86.6262L27.2043 86.4635L26.5128 85.9957C25.9637 85.5889 25.1908 85.1009 24.479 84.5111L23.4418 83.6772L22.547 82.9044L21.9165 82.3756L21.6928 82.1519C21.6262 81.5927 21.7032 81.0257 21.9165 80.5045C22.2476 80.0982 22.6227 79.7298 23.0351 79.4063C23.0351 79.7114 23.4622 79.63 23.6452 79.4063C23.8282 79.1826 23.7876 79.0199 23.5232 78.7962C23.2588 78.5725 23.2791 78.7962 23.0961 78.7962C22.9131 78.7962 23.0961 79.1013 23.0961 79.1826C22.7741 79.3626 22.4618 79.5595 22.1606 79.7724V79.5893L22.4656 78.7352V78.5928C22.7155 78.2684 23.0099 77.9808 23.3401 77.7386C23.3401 77.7386 23.6452 77.7386 23.7672 77.7386C23.8892 77.7386 23.8689 77.4945 23.7672 77.3522C23.6045 77.2098 23.6045 77.3522 23.4825 77.3522C23.4611 77.393 23.45 77.4383 23.45 77.4844C23.45 77.5304 23.4611 77.5758 23.4825 77.6166C23.2588 77.7386 22.913 77.9827 22.7503 78.0844C22.9077 77.6712 23.0168 77.2413 23.0757 76.8031C23.0757 76.8031 23.2995 76.7014 23.2791 76.6404C23.2588 76.5794 23.2791 76.376 23.2791 76.3353C23.2791 76.2946 22.9944 76.3353 22.9334 76.3353C22.8724 76.3353 22.9334 76.7014 23.0757 76.7217C22.966 77.1392 22.8232 77.5472 22.6487 77.942L22.2826 77.3319C22.2826 77.3319 22.4249 77.0878 22.4046 77.0675C22.3717 76.9785 22.3236 76.8959 22.2623 76.8234C22.1958 76.7797 22.1181 76.7564 22.0385 76.7564C21.959 76.7564 21.8812 76.7797 21.8148 76.8234C21.8148 76.9455 21.6725 77.0675 21.8148 77.1489C21.9572 77.2302 22.0996 77.5556 22.3233 77.3319C22.4493 77.6003 22.5513 77.8794 22.6283 78.1657V78.2878C22.6283 78.5115 22.4249 78.7148 22.3436 78.9182C22.2622 79.1216 22.1402 79.4267 22.0385 79.6301L21.8758 79.3859L21.4284 78.7148C21.5107 78.5899 21.5725 78.4525 21.6114 78.3081C21.5538 78.1765 21.4785 78.0533 21.3877 77.942C21.286 77.82 20.8183 77.8403 20.7573 77.942C20.6963 78.0437 20.5336 78.2878 20.6149 78.4098C20.6963 78.5318 21.0623 79.0199 21.3674 78.6945C21.4975 78.9521 21.6129 79.217 21.7131 79.4877C21.7853 79.646 21.8464 79.809 21.8962 79.9758C21.6725 80.6062 21.5504 81.013 21.4894 81.257L20.6963 80.5045L19.9844 79.7521L19.232 78.9589L18.4388 78.0234C17.8693 77.4132 17.3812 76.7421 16.9745 76.254C16.8291 76.0428 16.673 75.8391 16.5067 75.6438L16.344 75.3998C16.2611 74.8821 16.2271 74.3578 16.2423 73.8338C17.0355 73.061 19.0083 71.2713 18.9269 70.9256C18.8456 70.5798 18.8049 70.2341 18.7439 69.8273C18.6829 69.4206 18.7439 68.9934 18.7439 68.5867C18.7439 67.7528 18.7439 66.919 18.7439 66.3699L17.3812 67.5495C16.6491 68.2003 15.7949 68.9935 15.3475 69.4002C14.5136 70.1324 15.3475 71.8204 15.8356 73.7931C15.8356 73.7931 15.8356 73.9762 15.8356 74.1592C15.8356 74.3423 15.8356 74.5253 15.8356 74.5253C15.8356 74.5253 15.5509 74.1389 15.1645 73.5288L14.5137 72.4712C14.2696 72.1051 14.0459 71.678 13.8018 71.2713L13.4358 70.6408C13.3341 70.4374 13.2324 70.2137 13.1307 70.0307L12.5613 68.9324C12.3986 68.607 12.2969 68.3223 12.1952 68.1393C12.1551 68.0343 12.1075 67.9323 12.0528 67.8342C12.2096 67.2924 12.4957 66.7968 12.8867 66.3902C13.356 66.1606 13.8464 65.9767 14.351 65.8412C14.1679 66.0852 14.656 66.2072 14.9001 66.1462C15.1441 66.0852 15.1644 65.8411 14.9001 65.536C14.6357 65.231 14.6967 65.3733 14.473 65.536C14.4073 65.5654 14.3525 65.6145 14.316 65.6764C14.2796 65.7384 14.2633 65.8102 14.2696 65.8818C13.9442 65.8818 13.4764 66.0038 13.1714 66.0445L13.3137 65.9225L14.0459 65.1293C14.3966 64.93 14.773 64.7794 15.1645 64.6819C15.0424 64.8446 15.3678 64.9463 15.5305 64.9056C15.6932 64.8649 15.7339 64.7022 15.5305 64.4989C15.3272 64.2955 15.3882 64.3768 15.2255 64.4989C15.0628 64.6209 15.1035 64.6615 15.0831 64.7225L14.2289 64.8446C14.5222 64.5291 14.7876 64.1889 15.0221 63.8277C15.0221 63.8277 15.2458 63.8277 15.2661 63.8277C15.2865 63.8277 15.4085 63.604 15.2661 63.543C15.1238 63.482 15.0221 63.3803 14.9001 63.543C14.778 63.7057 14.6763 63.8277 14.9001 63.9701C14.638 64.3019 14.3525 64.6145 14.0459 64.9056C14.0181 64.673 13.9774 64.4421 13.9239 64.2141C13.9239 64.2141 14.1476 64.0514 14.1476 64.0107C14.1476 63.97 14.1476 63.8481 14.1476 63.726C14.103 63.6633 14.0388 63.6173 13.9651 63.5952C13.8915 63.5731 13.8125 63.5762 13.7408 63.604C13.7408 63.604 13.5171 63.7667 13.5374 63.8684C13.5578 63.9701 13.5375 64.3565 13.9239 64.2345C13.9534 64.5252 13.9534 64.8182 13.9239 65.109L13.8222 65.2107C13.4154 65.5768 13.0494 65.9225 12.7646 66.2276C12.7646 66.0242 12.6426 65.4954 12.5613 65.109C12.5613 65.109 12.8663 64.8853 12.8663 64.8243C12.8791 64.689 12.8791 64.5528 12.8663 64.4175C12.8663 64.2548 12.3986 64.0717 12.2765 64.2141C12.1545 64.3565 11.9308 64.4378 11.9511 64.6005C11.9715 64.7632 12.1138 65.3123 12.5409 65.1496C12.5813 65.6097 12.5813 66.0725 12.5409 66.5326C12.2314 66.8556 11.9394 67.1951 11.6664 67.5495L11.5444 67.2445C11.4427 67.0614 11.3613 66.797 11.219 66.4716L10.7919 65.353C10.6292 64.9463 10.4868 64.4989 10.3445 64.0514C10.0191 63.1769 9.79537 62.282 9.592 61.6109L9.46994 61.1432C9.46273 61.028 9.46273 60.9125 9.46994 60.7974C9.46396 60.689 9.46396 60.5804 9.46994 60.472C9.595 59.9655 9.75818 59.4692 9.95806 58.9873C11.2385 58.6174 12.4581 58.0624 13.5781 57.34C13.5781 57.0146 13.7205 56.6485 13.8222 56.2621C13.9239 55.8757 14.1069 55.469 14.2493 55.0825C14.3916 54.6961 14.534 54.3097 14.6967 53.9639C14.8594 53.6182 14.9814 53.2929 15.0831 53.0081L13.3544 53.5979C12.4189 53.9029 11.3207 54.3097 10.7715 54.5131C9.73433 54.8792 9.83604 56.7502 9.55131 58.7636L9.38861 59.0891L9.2259 59.4145V59.1094C9.2259 58.906 9.12421 58.6416 9.0632 58.2959C9.00219 57.9501 8.94119 57.5638 8.85984 57.1367C8.77849 56.7096 8.73782 56.2621 8.69714 55.8147C8.55478 54.8995 8.49374 53.9843 8.45307 53.3132C8.41239 52.642 8.45307 52.1743 8.45307 52.1743C8.79167 51.7235 9.23966 51.3665 9.75467 51.137C10.2753 51.0844 10.8 51.0844 11.3207 51.137C11.0563 51.2997 11.4834 51.6048 11.7071 51.6251C11.9308 51.6455 12.0732 51.4421 12.0528 51.1167C12.0325 50.7913 11.9104 50.893 11.6664 50.8726C11.4223 50.8523 11.402 51.0354 11.3613 51.0964L10.2835 50.8523H10.4462L11.28 50.4659H11.4224C11.8281 50.4252 12.2369 50.4252 12.6426 50.4659C12.6426 50.5676 12.8256 50.7303 12.968 50.7303C13.1104 50.7303 13.1917 50.7303 13.1917 50.4659C13.1917 50.2422 13.1917 50.3032 12.9477 50.3032C12.9001 50.3 12.8527 50.312 12.8124 50.3376C12.7722 50.3633 12.7412 50.4011 12.724 50.4456L11.8901 50.2422C12.2842 50.0641 12.6591 49.846 13.0087 49.5914C13.0087 49.5914 13.2324 49.5914 13.2731 49.5914C13.3138 49.5914 13.4968 49.4287 13.4561 49.3473C13.4154 49.266 13.2934 49.1033 13.1511 49.1847C13.0087 49.266 12.8053 49.3473 12.968 49.5304C12.7443 49.6524 12.3172 49.8761 11.8088 50.0998C11.8088 49.9371 11.9308 49.632 11.9715 49.388C12.0122 49.1439 12.2358 49.388 12.2358 49.2863C12.2566 49.1994 12.2566 49.1088 12.2358 49.0219C12.2358 48.8999 12.0121 48.6965 11.8901 48.7372C11.7681 48.7779 11.6257 48.7372 11.6054 48.8999C11.5851 49.0626 11.6054 49.388 11.8291 49.388C11.7289 49.6684 11.6065 49.9405 11.463 50.2015H11.341L10.6902 50.4456L9.95806 50.7506C9.95806 50.7506 9.95806 50.5676 9.95806 50.4456C9.95806 50.3235 10.0801 49.8964 10.1208 49.6524C10.1614 49.4083 10.5275 49.5507 10.5275 49.4897C10.5832 49.3605 10.6175 49.2231 10.6292 49.0829C10.6292 48.9202 10.3241 48.5949 10.1411 48.6762C9.95805 48.7576 9.75469 48.6762 9.71402 48.9202C9.67334 49.1643 9.59199 49.6524 10.0597 49.6524L9.73434 50.4456C9.67614 50.6153 9.6012 50.7788 9.51063 50.9337C9.10147 51.1045 8.70696 51.3086 8.33105 51.5438V50.4456V49.4083C8.33105 49.0829 8.33105 48.7169 8.33105 48.3304C8.33105 47.944 8.33105 47.517 8.33105 47.0899C8.33105 46.6628 8.33106 46.256 8.43274 45.8696C8.53443 45.4832 8.43276 45.1171 8.57512 44.7917C8.71748 44.4663 8.5751 44.2223 8.67678 44.0392C8.77847 43.8562 8.67678 43.7748 8.67678 43.7748C8.98261 43.342 9.33002 42.9402 9.71402 42.5749C11.0293 42.7128 12.3575 42.6649 13.6595 42.4325C13.8425 42.1478 14.0866 41.8427 14.3306 41.5173L14.717 41.0496L15.1441 40.5818L15.9983 39.7276C16.2423 39.4429 16.5067 39.1989 16.7101 38.9955L14.8797 38.8735L12.1748 38.7311C11.6054 38.7311 11.1783 39.1379 10.7512 39.7887C10.5275 40.1141 10.3445 40.5208 10.1208 40.9276C9.89705 41.3343 9.65298 41.7614 9.40893 42.2088L8.85984 42.6969V42.3715C8.9039 42.0834 8.96501 41.7982 9.04287 41.5173C9.04287 41.1513 9.20555 40.7445 9.30724 40.3174C9.40893 39.8903 9.40893 39.87 9.46994 39.6259C9.53096 39.3819 9.59198 39.1786 9.67333 38.9548C9.75468 38.7311 9.91739 38.0193 10.0597 37.5922C10.2021 37.1651 10.3241 36.7584 10.4462 36.4126C10.5682 36.0669 10.6495 35.8025 10.7309 35.5991L10.8529 35.294C11.3464 35.0246 11.8975 34.8781 12.4596 34.867C12.9523 35.0332 13.4289 35.2443 13.8832 35.4974C13.5781 35.4974 13.8832 35.9855 14.0459 36.1075C14.2086 36.2295 14.4527 36.1076 14.5747 35.7618C14.6967 35.4161 14.5747 35.4974 14.3103 35.3958C14.2575 35.3562 14.1933 35.3347 14.1273 35.3347C14.0612 35.3347 13.997 35.3562 13.9442 35.3958L13.029 34.7653H13.2324H14.29C14.6812 34.8821 15.0568 35.046 15.4085 35.2534C15.2051 35.2534 15.4085 35.5787 15.5102 35.6601C15.6119 35.7414 15.7949 35.6601 15.8763 35.4568C15.9576 35.2534 15.8763 35.2737 15.7136 35.2127C15.5509 35.1517 15.4899 35.2127 15.4492 35.2127L14.7577 34.7043C15.1908 34.6972 15.6213 34.6357 16.039 34.5212C16.039 34.5212 16.222 34.6839 16.2627 34.6636C16.3034 34.6432 16.5271 34.6636 16.5271 34.5212C16.5271 34.3788 16.5271 34.2161 16.3237 34.2161C16.1203 34.2161 15.9576 34.2162 15.9983 34.4805C15.7339 34.4805 15.2661 34.4805 14.717 34.4805C14.717 34.3585 15.0017 34.0941 15.1238 33.8907C15.2458 33.6874 15.4085 33.8907 15.4289 33.8907C15.5013 33.8313 15.5573 33.7543 15.5916 33.667C15.5916 33.5654 15.5915 33.2806 15.3882 33.2806C15.1848 33.2806 15.1034 33.2806 15.0424 33.2806C14.9814 33.2806 14.778 33.6874 15.0424 33.8297C14.8395 34.0413 14.622 34.2383 14.3916 34.4195H12.7646C12.7646 34.2568 13.2121 33.8094 13.4154 33.484C13.5562 33.5142 13.7018 33.5142 13.8425 33.484C13.9418 33.3902 14.0243 33.2802 14.0866 33.1586C14.0866 32.9959 13.9849 32.5688 13.8018 32.5688C13.6188 32.5688 13.3951 32.5688 13.3137 32.5688C13.2324 32.5688 12.907 33.179 13.3137 33.362C13.0068 33.706 12.6737 34.0256 12.3172 34.3179C11.8749 34.3247 11.4334 34.3586 10.9953 34.4195L11.1173 34.1145C11.2043 33.8513 11.3062 33.5933 11.4224 33.3416L11.9105 32.2434L12.1952 31.6333L12.5002 31.0028L13.1307 29.8029C13.3341 29.4165 13.5578 29.0504 13.7205 28.7657L14.1476 28.0335C14.1741 27.9581 14.2156 27.889 14.2696 27.8302C14.7171 27.5606 15.1865 27.3293 15.6729 27.1387C16.8439 27.7689 18.0963 28.2342 19.3947 28.5216C20.0334 28.0816 20.7147 27.7068 21.4284 27.403L22.547 26.8946L23.4622 26.5285L21.8352 25.6947L19.3743 24.5355C18.8659 24.3118 18.3168 24.5354 17.666 24.9829C17.3406 25.1862 17.0152 25.471 16.6491 25.7557C16.283 26.0404 15.9169 26.3658 15.5102 26.6709L14.8187 26.9149L14.9814 26.6505L15.4492 25.9591C15.8559 25.41 16.344 24.6371 16.9338 23.9253L17.7677 22.8881L18.5405 21.9933L19.0693 21.3628L19.293 21.1391C19.8522 21.0725 20.4191 21.1495 20.9403 21.3628C21.3516 21.6883 21.7206 22.0641 22.0385 22.4814C21.7335 22.4814 21.8148 22.9084 22.0385 23.0915C22.2623 23.2745 22.425 23.2338 22.6487 22.9694C22.8724 22.7051 22.6487 22.7051 22.547 22.5424C22.4453 22.3797 22.2419 22.5424 22.1606 22.5424C21.988 22.216 21.7908 21.9033 21.5708 21.6069H21.7538L22.608 21.9119H22.7503C23.0748 22.1618 23.3624 22.4562 23.6045 22.7864C23.5028 22.7864 23.6045 23.1118 23.6045 23.2135C23.6045 23.3152 23.8282 23.2135 23.9706 23.2135C24.1333 23.0508 23.9706 23.0508 23.9706 22.9288C23.9298 22.9074 23.8844 22.8962 23.8384 22.8962C23.7924 22.8962 23.747 22.9074 23.7062 22.9288C23.5842 22.7051 23.3401 22.3593 23.2384 22.1966C23.6516 22.3539 24.0816 22.4631 24.5197 22.522C24.5197 22.522 24.6214 22.7457 24.6824 22.7254C24.7434 22.7051 24.9468 22.7254 24.9875 22.7254C25.0281 22.7254 24.9875 22.4407 24.8858 22.3796C24.7841 22.3186 24.5197 22.278 24.4994 22.522C24.083 22.4089 23.6752 22.2662 23.2791 22.0949L23.8893 21.7085C23.8893 21.7085 24.1333 21.8712 24.1536 21.8509C24.2427 21.818 24.3253 21.7699 24.3977 21.7085C24.4414 21.6421 24.4647 21.5644 24.4647 21.4848C24.4647 21.4053 24.4414 21.3275 24.3977 21.2611C24.2757 21.2611 24.1536 21.1187 24.0723 21.2611C23.9909 21.4035 23.6655 21.5458 23.8893 21.7695C23.6222 21.8987 23.3428 22.0009 23.0554 22.0746H22.9334L22.3029 21.7899L21.5708 21.4848L21.8352 21.3221L22.5266 20.8747C22.6446 20.9563 22.7752 21.0181 22.913 21.0577C23.0446 21.0001 23.1678 20.9248 23.2791 20.834C23.4012 20.7323 23.3808 20.2646 23.2791 20.2036C23.1774 20.1425 22.9334 19.9798 22.8114 20.0612C22.6894 20.1425 22.2012 20.5086 22.5266 20.834L21.7335 21.1594L21.2454 21.3425C20.8256 21.1848 20.398 21.049 19.9641 20.9357L20.7166 20.1426L21.4691 19.4307L22.2623 18.6782L23.1978 17.885C23.8079 17.3156 24.4994 16.8275 24.9875 16.4207L25.5772 15.953L25.8213 15.7903C26.3399 15.7141 26.8632 15.6734 27.3873 15.6683C28.1601 16.5021 29.9498 18.4545 30.2956 18.3731C30.6413 18.2918 30.987 18.2308 31.3938 18.1901C31.8005 18.1494 32.2276 18.1901 32.6344 18.1901C33.4682 18.1901 34.3021 18.1901 34.8512 18.1901L33.6716 16.8275L31.8412 14.7938C31.0887 13.9802 29.4007 14.7938 27.4483 15.3022H26.6958C26.6958 15.3022 27.0822 15.0175 27.7127 14.6514L28.7499 13.9803L29.9702 13.2684L30.5803 12.9024L31.2107 12.5973L32.309 12.0278L33.0818 11.6617L33.3869 11.5194C33.9251 11.6845 34.4188 11.9696 34.8308 12.3532C35.057 12.824 35.2408 13.3141 35.3799 13.8175C35.1359 13.6345 35.0139 14.143 35.0749 14.3667C35.1359 14.5904 35.3799 14.631 35.685 14.4683C35.9901 14.3056 35.8477 14.265 35.685 14.0413C35.6557 13.9756 35.6066 13.9208 35.5446 13.8843C35.4827 13.8479 35.4109 13.8316 35.3393 13.8379C35.3064 13.469 35.2521 13.1022 35.1766 12.7396L35.3189 12.882L36.0918 13.6141C36.2911 13.9649 36.4416 14.3413 36.5392 14.7327C36.3765 14.6107 36.2748 14.9361 36.3155 15.0988C36.3562 15.2615 36.5188 15.3022 36.7222 15.2005C36.9256 15.0988 36.8442 15.0581 36.7222 14.9158C36.6002 14.7734 36.5595 14.7734 36.4985 14.753C36.4375 14.7327 36.3968 14.0819 36.3765 13.8989C36.6929 14.1996 37.0406 14.4655 37.4137 14.692C37.4137 14.692 37.4137 14.9158 37.4137 14.9361C37.4137 14.9565 37.6374 15.0785 37.7187 14.9361C37.8001 14.7938 37.8611 14.692 37.7187 14.57C37.5764 14.448 37.434 14.3463 37.312 14.57C36.9681 14.3149 36.6482 14.029 36.3561 13.7159C36.5887 13.6881 36.8196 13.6474 37.0476 13.5938C37.0476 13.5938 37.2103 13.8175 37.251 13.8175C37.3453 13.8324 37.4414 13.8324 37.5357 13.8175C37.5357 13.8175 37.7594 13.5125 37.6577 13.4108C37.556 13.3091 37.4951 13.1871 37.3934 13.2074C37.2917 13.2278 36.9256 13.2074 37.0273 13.5938C36.7371 13.6334 36.4429 13.6334 36.1528 13.5938V13.4921C35.7664 13.065 35.4206 12.7193 35.1359 12.4346C35.3189 12.4346 35.8477 12.3125 36.2341 12.2108C36.2341 12.2108 36.4782 12.5566 36.5188 12.5362C36.6541 12.5498 36.7903 12.5498 36.9256 12.5362C37.0883 12.5362 37.2713 12.0685 37.129 11.9465C36.9866 11.8245 36.9053 11.6008 36.7425 11.6211C36.5798 11.6414 36.0307 11.8041 36.1934 12.2108C35.7333 12.2512 35.2706 12.2512 34.8105 12.2108C34.4875 11.9013 34.148 11.6094 33.7936 11.3363L34.0987 11.2143C34.2817 11.1126 34.5461 11.0313 34.8715 10.8889L35.9901 10.4618C36.3968 10.2991 36.8442 10.1568 37.2917 10.0144C38.1662 9.689 39.061 9.4653 39.7322 9.26192L40.1999 9.1399H40.5457H40.8711C41.3775 9.26496 41.8738 9.4281 42.3557 9.62798C42.7345 10.9052 43.2889 12.1235 44.0031 13.2481L45.0809 13.4921L46.2605 13.9192L47.3994 14.3667L48.3349 14.753L47.7451 13.0244C47.4401 12.0889 47.0333 10.9906 46.83 10.4415C46.4639 9.40426 44.5928 9.50593 42.5794 9.22121L42.254 9.05853L41.9286 8.89586H42.2337L43.0472 8.73312L44.2064 8.52973L45.5284 8.3467C46.4436 8.22468 47.3587 8.1637 48.0299 8.12302C48.701 8.08234 49.1891 8.12302 49.1891 8.12302C49.6282 8.46836 49.9771 8.91494 50.206 9.42459C50.2586 9.94527 50.2586 10.47 50.206 10.9906C50.0433 10.7262 49.7382 11.1533 49.7179 11.377C49.6976 11.6008 49.9009 11.7431 50.2467 11.7228C50.5924 11.7024 50.4704 11.5804 50.4704 11.3363C50.4704 11.0923 50.3077 11.072 50.2467 11.0313C50.1856 10.9906 50.4297 10.2381 50.4907 9.95339V10.1161L50.8771 10.9499V11.0923C50.9279 11.4975 50.9279 11.9074 50.8771 12.3126C50.7754 12.3126 50.6127 12.4956 50.5924 12.6176C50.5721 12.7396 50.5924 12.8617 50.8771 12.8617C51.1212 12.8617 51.0398 12.8617 51.0398 12.6176C51.043 12.57 51.031 12.5226 51.0054 12.4824C50.9798 12.4421 50.942 12.4112 50.8975 12.3939C50.8975 12.1499 51.0602 11.7228 51.1008 11.5601C51.2789 11.9542 51.497 12.329 51.7516 12.6786C51.7516 12.6786 51.7516 12.9023 51.7516 12.943C51.7516 12.9837 51.9143 13.1667 51.9957 13.1261C52.077 13.0854 52.2397 12.9634 52.1584 12.821C52.077 12.6786 51.9957 12.4956 51.8126 12.6176C51.6073 12.2422 51.4239 11.8551 51.2635 11.4584L51.955 11.6211C51.955 11.6211 51.955 11.8855 52.0567 11.8855C52.1436 11.9062 52.2342 11.9062 52.3211 11.8855C52.4431 11.8855 52.6465 11.6617 52.6058 11.5397C52.5651 11.4177 52.6058 11.2753 52.4431 11.255C52.2804 11.2346 51.955 11.255 51.955 11.4787C51.6796 11.3821 51.414 11.2596 51.1618 11.1126V10.9703L50.9178 10.3398L50.6127 9.60763H50.9178L51.711 9.77036C51.711 9.77036 51.711 10.1771 51.8737 10.1771C52.0018 10.2359 52.1397 10.2704 52.2804 10.2788C52.4431 10.2788 52.7685 9.97376 52.6871 9.79072C52.6058 9.60768 52.6872 9.40426 52.4431 9.36358C52.1991 9.32291 51.711 9.24159 51.711 9.70935L50.9178 9.38394C50.7564 9.3214 50.6 9.24658 50.45 9.1602C50.1653 8.57041 49.9619 8.18402 49.8399 7.98064H50.9178H51.9754H53.0329H54.2735L55.4937 8.0823L56.5716 8.22468L57.3241 8.32641H57.6088C58.0313 8.63731 58.426 8.98431 58.7884 9.36358C58.6452 10.6863 58.7 12.0229 58.9511 13.3294C59.2628 13.5273 59.5617 13.7447 59.846 13.9803L60.3137 14.3667L60.7815 14.7938L61.6357 15.6479C61.9204 15.8919 62.1441 16.1563 62.3678 16.3597C62.5915 16.5631 62.3678 15.5259 62.4898 14.5294C62.6119 13.5328 62.5915 12.4956 62.6322 11.8245C62.6729 11.1533 62.2255 10.8279 61.5747 10.4008C61.2073 10.1692 60.827 9.95875 60.4358 9.77036C60.029 9.56699 59.6019 9.30258 59.1545 9.05853L58.6664 8.50944H58.9918L59.846 8.67211L61.0459 8.95687L61.7374 9.11954L62.4085 9.32293C62.8762 9.44496 63.344 9.56699 63.7711 9.70935L64.9507 10.0958L65.7642 10.3805L66.0692 10.5025C66.3386 10.9959 66.4852 11.5471 66.4963 12.1092C66.3301 12.602 66.119 13.0785 65.8659 13.5328C65.8659 13.2481 65.3778 13.5328 65.2557 13.6955C65.1337 13.8582 65.2557 14.1023 65.6015 14.2243C65.9472 14.3463 65.8659 14.2243 65.9675 13.9599C66.0071 13.9071 66.0286 13.8429 66.0286 13.7769C66.0286 13.7109 66.0071 13.6466 65.9675 13.5938C66.1506 13.3498 66.4353 12.943 66.598 12.6786C66.607 12.7461 66.607 12.8145 66.598 12.882C66.598 13.2888 66.598 13.6345 66.598 13.9395C66.49 14.3339 66.3256 14.7107 66.1099 15.0582C66.1099 14.8344 65.7845 15.0582 65.7032 15.0582C65.6218 15.0582 65.7032 15.3429 65.9065 15.4242C66.1099 15.5056 66.0896 15.4242 66.1709 15.2615C66.2523 15.0988 66.1709 15.0378 66.1709 14.9971L66.6794 14.3056C66.6864 14.7387 66.7479 15.1692 66.8624 15.5869C66.8624 15.5869 66.6997 15.77 66.72 15.8106C66.7404 15.8513 66.7201 16.075 66.8828 16.075C67.0454 16.075 67.1675 16.075 67.1675 15.8716C67.1675 15.6683 67.1675 15.4852 66.9031 15.5462C66.9031 15.2818 66.9031 14.8141 66.9031 14.265L67.4929 14.6717C67.4929 14.6717 67.4929 14.9361 67.4929 14.9768C67.4929 15.0175 67.5946 15.0988 67.6962 15.1395C67.7979 15.1801 68.103 15.1395 68.103 14.9361C68.103 14.7328 68.103 14.6514 68.103 14.5904C68.103 14.5294 67.6962 14.326 67.5742 14.5904C67.3457 14.3908 67.141 14.1657 66.9641 13.9192C66.9753 13.8725 66.9753 13.8237 66.9641 13.7769C66.9641 13.2074 66.9641 12.7193 66.9641 12.3126C67.1268 12.4142 67.5742 12.76 67.8996 12.9634C67.8694 13.1041 67.8694 13.2497 67.8996 13.3905C67.9977 13.4848 68.107 13.5667 68.225 13.6345C68.3877 13.6345 68.8148 13.5328 68.8148 13.3498C68.8148 13.1668 68.8148 12.943 68.8148 12.8617C68.8148 12.7803 68.1843 12.4549 68.0013 12.8617C67.6625 12.5495 67.3432 12.2167 67.0455 11.8651C67.0387 11.4228 67.0047 10.9813 66.9438 10.5432L67.2488 10.6449L68.0216 10.9703L69.1199 11.4584L69.73 11.7431L70.3401 12.0482L71.5807 12.6786L72.5976 13.2684L73.3501 13.6955L73.5331 13.8175C73.8026 14.265 74.034 14.7345 74.2246 15.2208C73.5944 16.3918 73.129 17.6443 72.8416 18.9426C73.2813 19.5851 73.6625 20.2658 73.9805 20.9764L74.4686 22.0746C74.5756 22.395 74.7047 22.7077 74.855 23.0102L75.6685 21.3831C76.0956 20.5086 76.5837 19.4714 76.8278 18.9223C77.0718 18.3732 76.8278 17.8647 76.4007 17.2139C76.177 16.8885 75.8923 16.5631 75.6075 16.1971C75.3228 15.831 74.9974 15.4446 74.6923 15.0582L74.4483 14.3667L74.7127 14.5294L75.4041 14.9971C75.9533 15.4039 76.7261 15.892 77.4379 16.4817L78.4751 17.3156L79.37 18.0884L80.0004 18.6172L80.2242 18.8409C80.2851 19.4051 80.2155 19.9757 80.0208 20.5086C79.6777 20.9046 79.2962 21.2657 78.8819 21.5865C78.8819 21.2814 78.4548 21.3628 78.2717 21.5865C78.0887 21.8102 78.1294 21.9729 78.3938 22.1966C78.6581 22.4203 78.6582 22.1966 78.8209 22.0949C78.9836 21.9933 78.8209 21.7899 78.8209 21.7085C79.1429 21.5285 79.4551 21.3316 79.7564 21.1187V21.3017L79.4513 22.156V22.2983C79.201 22.6165 78.9065 22.8973 78.5768 23.1322C78.5768 23.1322 78.2717 23.1322 78.1497 23.1322C78.0277 23.1322 78.048 23.3559 78.1497 23.4982C78.3124 23.6609 78.3124 23.4982 78.4344 23.4982C78.4558 23.4575 78.467 23.4121 78.467 23.366C78.467 23.32 78.4558 23.2746 78.4344 23.2338C78.6581 23.1118 79.0039 22.8677 79.1666 22.7661C79.0198 23.1825 78.9109 23.6113 78.8412 24.0473C78.8412 24.0473 78.6175 24.0474 78.6378 24.2101C78.6582 24.3728 78.6378 24.4744 78.6378 24.5151C78.6378 24.5558 78.9225 24.5151 78.9836 24.4134C79.0446 24.3117 78.9836 24.0474 78.8412 24.027C78.951 23.6096 79.0938 23.2016 79.2683 22.8068C79.3862 23.0168 79.5152 23.2205 79.6547 23.4169C79.6547 23.4169 79.492 23.6406 79.5123 23.6813C79.5327 23.722 79.5123 23.844 79.6547 23.9253C79.7211 23.9691 79.7989 23.9923 79.8784 23.9923C79.9579 23.9923 80.0357 23.9691 80.1021 23.9253C80.1021 23.8033 80.2445 23.6813 80.1021 23.5999C79.9598 23.5186 79.8174 23.1932 79.5937 23.4169C79.4645 23.1498 79.3623 22.8704 79.2886 22.583V22.461C79.2886 22.2373 79.492 22.0339 79.5733 21.8305C79.6547 21.6272 79.7767 21.3221 79.8784 21.1187L80.0411 21.3628L80.4885 22.0543C80.4885 22.0543 80.2852 22.4 80.3258 22.4406C80.3704 22.5742 80.4394 22.6984 80.5292 22.8068C80.6512 22.9288 81.0986 22.9085 81.1597 22.8068C81.2207 22.7051 81.3834 22.461 81.302 22.339C81.2207 22.217 80.875 21.7289 80.5496 22.0543C80.4157 21.7984 80.3001 21.5333 80.2038 21.2611C80.1284 21.1042 80.0671 20.9408 80.0208 20.773C80.1785 20.3533 80.3142 19.9256 80.4275 19.4917L81.2207 20.2442L81.9528 20.9967C82.1562 21.2407 82.4206 21.5052 82.685 21.7899L83.4985 22.7254C84.0476 23.3355 84.5357 24.0067 84.9424 24.5151L85.4102 25.1049L85.5729 25.349C85.6491 25.8676 85.6898 26.3908 85.6949 26.9149C84.8814 27.6878 82.9087 29.4775 82.9901 29.8232C83.0714 30.1689 83.1121 30.5147 83.1731 30.9215C83.2341 31.3282 83.1731 31.7553 83.1731 32.1621C83.1731 32.9959 83.1731 33.8298 83.1731 34.3789L84.5357 33.1993L86.5694 31.3689C87.3829 30.6164 86.5694 28.9283 86.061 26.9556C86.061 26.9556 86.061 26.7726 86.061 26.5895C86.0546 26.4744 86.0546 26.359 86.061 26.2438C86.3012 26.5646 86.5252 26.8972 86.7321 27.2404L87.383 28.2776C87.627 28.6437 87.8507 29.0707 88.0948 29.4978L88.4608 30.108L88.7659 30.7181L89.3353 31.8163C89.498 32.1417 89.5997 32.4264 89.7014 32.6095C89.7415 32.7144 89.7891 32.8164 89.8438 32.9146C89.6951 33.4598 89.4078 33.9572 89.0099 34.3585C88.5461 34.5845 88.0628 34.7682 87.566 34.9076C87.7287 34.6636 87.2406 34.5415 87.0169 34.6026C86.7932 34.6636 86.7322 34.9077 86.8949 35.2127C87.0575 35.5178 87.0982 35.3754 87.3219 35.2127C87.5456 35.05 87.5253 34.9483 87.5456 34.8873L88.6235 34.7043L88.4812 34.8263L87.749 35.6194C87.3983 35.8188 87.0219 35.9693 86.6305 36.0669C86.7525 35.9042 86.4271 35.8025 86.2644 35.8432C86.1017 35.8839 86.061 36.0465 86.2644 36.2499C86.4678 36.4533 86.4068 36.3719 86.5491 36.2499C86.6915 36.1279 86.6915 36.0872 86.7118 36.0262L87.566 35.9042C87.2653 36.2206 86.9994 36.5683 86.7728 36.9414C86.7728 36.9414 86.5491 36.9414 86.5288 36.9414C86.5084 36.9414 86.3864 37.1651 86.5288 37.2261C86.6711 37.2871 86.7728 37.4092 86.8949 37.2261C87.0169 37.0431 87.1186 36.9414 86.8949 36.8194C87.1561 36.4805 87.4416 36.1611 87.749 35.8635C87.749 36.0058 87.749 36.3313 87.871 36.5753C87.9931 36.8194 87.6473 36.7177 87.6473 36.7583C87.6473 36.799 87.6473 36.9211 87.6473 37.0431C87.6473 37.1651 87.9524 37.2668 88.0541 37.1651C88.1558 37.0634 88.2778 37.0024 88.2778 36.9007C88.2778 36.799 88.2778 36.433 87.871 36.5347C87.8415 36.2439 87.8415 35.9509 87.871 35.6601H87.9727C88.3998 35.2737 88.7456 34.928 89.0303 34.6229C89.0303 34.8263 89.1523 35.355 89.254 35.7415C89.254 35.7415 88.9286 35.9855 88.9286 36.0262C88.915 36.1615 88.915 36.2977 88.9286 36.4329C88.9286 36.5956 89.3964 36.7787 89.5184 36.6567C89.6404 36.5347 89.8641 36.4126 89.8438 36.2499C89.8234 36.0872 89.6811 35.5381 89.254 35.7008C89.2136 35.2407 89.2136 34.778 89.254 34.3179C89.5636 33.9949 89.8555 33.6554 90.1285 33.301L90.2505 33.606C90.3522 33.7891 90.4336 34.0535 90.5759 34.3789C90.7183 34.7043 90.8607 35.0907 91.003 35.4974C91.1454 35.9042 91.3081 36.3516 91.4505 36.7991C91.7759 37.6736 91.9996 38.5684 92.2029 39.2395C92.2029 39.4226 92.2029 39.565 92.325 39.7073C92.447 39.8497 92.325 39.9513 92.325 40.053V40.3784C92.1999 40.8849 92.0367 41.3812 91.8369 41.8631C90.5564 42.233 89.3368 42.788 88.2168 43.5104C88.2168 43.8358 88.0744 44.2019 87.9727 44.5883C87.871 44.9747 87.688 45.3815 87.5456 45.7679C87.4159 46.1482 87.2666 46.5216 87.0982 46.8865C86.9558 47.2526 86.8135 47.5576 86.7321 47.8424L88.4405 47.2526C89.376 46.9475 90.4743 46.5407 91.0234 46.3373C92.0606 45.9713 91.9589 44.1002 92.2436 42.0868L92.4063 41.7614L92.569 41.436C92.569 41.436 92.569 41.5377 92.569 41.7411C92.569 41.9445 92.569 42.2088 92.7114 42.5546C92.8537 42.9003 92.8334 43.2867 92.9147 43.7138C92.9961 44.1409 93.0368 44.5883 93.0978 45.0358C93.2198 45.951 93.2808 46.8662 93.3418 47.5373C93.4028 48.2085 93.3418 48.6965 93.3418 48.6965C92.9843 49.1316 92.5322 49.4794 92.0199 49.7134C91.4992 49.766 90.9746 49.766 90.4539 49.7134C90.7183 49.5507 90.2912 49.2456 90.0675 49.2253C89.8438 49.205 89.7014 49.4084 89.7218 49.7541C89.7421 50.0998 89.8641 49.9574 90.1082 49.9778C90.3522 49.9981 90.3726 49.8151 90.4132 49.7541L91.4911 49.9981H91.3284L90.4946 50.3846H90.3726C89.9749 50.4457 89.5703 50.4457 89.1726 50.3846C89.1726 50.2829 88.9896 50.1201 88.8676 50.0998C88.7456 50.0795 88.6235 50.0998 88.6235 50.3846C88.6235 50.6286 88.6235 50.5472 88.8676 50.5472C88.9152 50.5505 88.9626 50.5384 89.0028 50.5128C89.043 50.4872 89.0741 50.4493 89.0913 50.4049C89.3643 50.4865 89.643 50.5477 89.9251 50.588C89.5377 50.7864 89.164 51.0106 88.8066 51.2591C88.8066 51.2591 88.5829 51.2591 88.5422 51.2591C88.5015 51.2591 88.3185 51.4218 88.3592 51.5031C88.3998 51.5845 88.5218 51.7472 88.6642 51.6658C88.8066 51.5845 89.0099 51.5031 88.8472 51.3201C89.2227 51.1147 89.6097 50.9314 90.0065 50.771C90.0065 50.9133 89.8845 51.2184 89.8438 51.4625C89.8031 51.7065 89.5794 51.4625 89.5794 51.4625C89.5586 51.5494 89.5586 51.6399 89.5794 51.7269C89.5794 51.8489 89.8031 52.0522 89.9251 52.0115C90.0472 51.9709 90.2099 52.0116 90.2099 51.8489C90.2099 51.6862 90.2099 51.3607 89.9862 51.3607C90.0827 51.0853 90.2053 50.8198 90.3522 50.5676H90.4946L91.1251 50.3236L91.8572 50.0185C91.8513 50.1201 91.8513 50.2219 91.8572 50.3236C91.8572 50.5676 91.7352 50.8727 91.6945 51.137C91.6538 51.4014 91.2878 51.1371 91.2878 51.2794C91.229 51.4075 91.1945 51.5454 91.1861 51.6861C91.1861 51.8488 91.5114 52.1743 91.6741 52.0929C91.8368 52.0116 92.0809 52.0929 92.1012 51.8489C92.1216 51.6048 92.2233 51.1167 91.7555 51.1167L92.0809 50.3236C92.1435 50.1622 92.2183 50.0058 92.3046 49.8558L93.4842 49.2457V50.3236C93.4842 50.3236 93.4639 50.9743 93.4435 51.5845H93.5452Z" fill="white"/>
<path d="M37.9902 56.0527V57.5371H28.6836V56.2383L33.3418 51.0527C33.9147 50.4147 34.3574 49.8743 34.6699 49.4316C34.9889 48.9824 35.2103 48.582 35.334 48.2305C35.4642 47.8724 35.5293 47.5078 35.5293 47.1367C35.5293 46.668 35.4316 46.2448 35.2363 45.8672C35.0475 45.4831 34.7676 45.1771 34.3965 44.9492C34.0254 44.7214 33.5762 44.6074 33.0488 44.6074C32.4173 44.6074 31.89 44.7311 31.4668 44.9785C31.0501 45.2194 30.7376 45.5579 30.5293 45.9941C30.321 46.4303 30.2168 46.9316 30.2168 47.498H28.4102C28.4102 46.6973 28.5859 45.9648 28.9375 45.3008C29.2891 44.6367 29.8099 44.1094 30.5 43.7188C31.1901 43.3216 32.0397 43.123 33.0488 43.123C33.9473 43.123 34.7155 43.2826 35.3535 43.6016C35.9915 43.9141 36.4798 44.3568 36.8184 44.9297C37.1634 45.4961 37.3359 46.1602 37.3359 46.9219C37.3359 47.3385 37.2643 47.7617 37.1211 48.1914C36.9844 48.6146 36.7923 49.0378 36.5449 49.4609C36.304 49.8841 36.0208 50.3008 35.6953 50.7109C35.3763 51.1211 35.0345 51.5247 34.6699 51.9219L30.8613 56.0527H37.9902ZM48.8496 49.2949V51.4629C48.8496 52.6283 48.7454 53.6113 48.5371 54.4121C48.3288 55.2129 48.0293 55.8574 47.6387 56.3457C47.248 56.834 46.776 57.1888 46.2227 57.4102C45.6758 57.625 45.0573 57.7324 44.3672 57.7324C43.8203 57.7324 43.3158 57.6641 42.8535 57.5273C42.3913 57.3906 41.9746 57.1725 41.6035 56.873C41.2389 56.5671 40.9264 56.1699 40.666 55.6816C40.4056 55.1934 40.207 54.6009 40.0703 53.9043C39.9336 53.2077 39.8652 52.3939 39.8652 51.4629V49.2949C39.8652 48.1296 39.9694 47.153 40.1777 46.3652C40.3926 45.5775 40.6953 44.946 41.0859 44.4707C41.4766 43.9889 41.9453 43.6439 42.4922 43.4355C43.0456 43.2272 43.6641 43.123 44.3477 43.123C44.901 43.123 45.4089 43.1914 45.8711 43.3281C46.3398 43.4583 46.7565 43.6699 47.1211 43.9629C47.4857 44.2493 47.7949 44.6335 48.0488 45.1152C48.3092 45.5905 48.5078 46.1732 48.6445 46.8633C48.7812 47.5534 48.8496 48.3639 48.8496 49.2949ZM47.0332 51.7559V48.9922C47.0332 48.3542 46.9941 47.7943 46.916 47.3125C46.8444 46.8242 46.737 46.4076 46.5938 46.0625C46.4505 45.7174 46.2682 45.4375 46.0469 45.2227C45.832 45.0078 45.5814 44.8516 45.2949 44.7539C45.015 44.6497 44.6992 44.5977 44.3477 44.5977C43.918 44.5977 43.5371 44.679 43.2051 44.8418C42.873 44.998 42.5931 45.2487 42.3652 45.5938C42.1439 45.9388 41.9746 46.3913 41.8574 46.9512C41.7402 47.5111 41.6816 48.1914 41.6816 48.9922V51.7559C41.6816 52.3939 41.7174 52.957 41.7891 53.4453C41.8672 53.9336 41.9811 54.3568 42.1309 54.7148C42.2806 55.0664 42.4629 55.3561 42.6777 55.584C42.8926 55.8118 43.14 55.9811 43.4199 56.0918C43.7064 56.196 44.0221 56.248 44.3672 56.248C44.8099 56.248 45.1973 56.1634 45.5293 55.9941C45.8613 55.8249 46.138 55.5612 46.3594 55.2031C46.5872 54.8385 46.7565 54.373 46.8672 53.8066C46.9779 53.2337 47.0332 52.5501 47.0332 51.7559ZM57.1113 43.2402V57.5371H55.3047V45.4961L51.6621 46.8242V45.1934L56.8281 43.2402H57.1113ZM71.6133 43.3184V44.334L65.7246 57.5371H63.8203L69.6992 44.8027H62.0039V43.3184H71.6133Z" fill="white"/>
</g>
<defs>
<clipPath id="clip0_228_525">
<rect width="100.02" height="100" fill="white" transform="translate(0.492188 0.537109)"/>
</clipPath>
</defs>
</svg>
