<svg width="652" height="635" viewBox="0 0 652 635" fill="none" xmlns="http://www.w3.org/2000/svg">
<path d="M273.349 47.9984C290.017 -3.29772 362.587 -3.29763 379.254 47.9985L417.971 167.157C425.425 190.097 446.802 205.629 470.923 205.629H596.214C650.15 205.629 672.576 274.648 628.94 306.35L527.578 379.994C508.064 394.172 499.898 419.303 507.352 442.244L546.069 561.402C562.736 612.698 504.025 655.354 460.39 623.651L359.028 550.007C339.514 535.829 313.09 535.829 293.575 550.007L192.213 623.651C148.578 655.354 89.8674 612.698 106.535 561.402L145.251 442.244C152.705 419.303 144.54 394.172 125.025 379.994L23.6632 306.35C-19.9719 274.648 2.45366 205.629 56.3896 205.629H181.68C205.801 205.629 227.179 190.097 234.633 167.157L273.349 47.9984Z" fill="white"/>
<mask id="mask0_129_1456" style="mask-type:alpha" maskUnits="userSpaceOnUse" x="0" y="0" width="652" height="626">
<path d="M273.349 39.0092C290.017 -12.287 362.587 -12.2869 379.254 39.0093L417.971 158.168C425.425 181.108 446.802 196.64 470.923 196.64H596.214C650.15 196.64 672.576 265.658 628.94 297.361L527.578 371.005C508.064 385.183 499.898 410.314 507.352 433.254L546.069 552.413C562.736 603.709 504.025 646.365 460.39 614.662L359.028 541.018C339.514 526.84 313.09 526.84 293.575 541.018L192.213 614.662C148.578 646.365 89.8674 603.709 106.535 552.413L145.251 433.254C152.705 410.314 144.54 385.183 125.025 371.005L23.6632 297.361C-19.9719 265.658 2.45366 196.64 56.3896 196.64H181.68C205.801 196.64 227.179 181.108 234.633 158.168L273.349 39.0092Z" fill="white"/>
</mask>
<g mask="url(#mask0_129_1456)">
<g filter="url(#filter0_f_129_1456)">
<ellipse cx="436.369" cy="170.152" rx="248.15" ry="206.701" fill="#FFF500"/>
</g>
<g filter="url(#filter1_f_129_1456)">
<ellipse cx="228.03" cy="270.503" rx="194.702" ry="121.621" fill="#9C4FFE"/>
</g>
<g filter="url(#filter2_f_129_1456)">
<ellipse cx="256.391" cy="463.023" rx="201.247" ry="185.431" fill="#4AE5E8"/>
</g>
<g filter="url(#filter3_f_129_1456)">
<ellipse cx="463.09" cy="413.939" rx="165.797" ry="155.98" fill="#FD2FE8"/>
</g>
</g>
<g clip-path="url(#clip0_129_1456)">
<path fill-rule="evenodd" clip-rule="evenodd" d="M442.738 515.225C446.042 521.237 450.622 523.026 454.765 522.861C461.158 522.577 463.026 515.207 460.86 509.929C457.156 500.972 451.328 498.888 447.451 499.375C441.618 500.045 438.149 506.869 442.738 515.225Z" fill="black"/>
<path fill-rule="evenodd" clip-rule="evenodd" d="M195.804 513.068C197.322 516.458 199.8 519.33 202.931 521.329C205.069 522.627 207.4 523.251 209.621 522.779C210.696 522.553 211.703 522.079 212.563 521.395C213.422 520.712 214.11 519.837 214.573 518.841C215.991 515.982 216.032 511.958 214.637 508.117C212.118 501.183 206.212 496.112 199.994 497.865C197.653 498.526 196.134 500.306 195.317 502.564C194.161 505.781 194.473 510.003 195.804 513.068Z" fill="black"/>
<path fill-rule="evenodd" clip-rule="evenodd" d="M174.614 502.215C174.611 502.306 174.626 502.396 174.657 502.48C174.689 502.565 174.737 502.643 174.799 502.709C174.861 502.775 174.935 502.828 175.018 502.865C175.1 502.903 175.189 502.924 175.279 502.927C175.37 502.93 175.46 502.915 175.544 502.883C175.629 502.851 175.707 502.803 175.773 502.741C175.839 502.679 175.892 502.605 175.929 502.523C175.967 502.441 175.988 502.352 175.991 502.261C176.477 487.641 188.234 476.884 200.867 475.608C201.326 475.563 201.785 475.526 202.244 475.507C203.66 475.443 205.078 475.5 206.484 475.677L207.182 475.778C210.73 476.345 214.101 477.718 217.034 479.794C220.735 482.421 223.851 485.788 226.183 489.681C228.516 493.575 230.015 497.91 230.586 502.413C230.606 502.579 230.686 502.731 230.811 502.842C230.936 502.953 231.098 503.014 231.265 503.014H425.374C425.544 503.014 425.708 502.951 425.834 502.837C425.96 502.724 426.04 502.568 426.058 502.399C426.792 495.772 429.995 485.511 440.11 480.638C458.076 471.974 476.441 484.447 480.952 499.792C480.977 499.879 481.019 499.96 481.076 500.031C481.132 500.101 481.202 500.16 481.281 500.203C481.361 500.247 481.448 500.274 481.538 500.284C481.627 500.294 481.718 500.286 481.805 500.26C481.892 500.235 481.973 500.193 482.043 500.136C482.114 500.08 482.173 500.01 482.216 499.931C482.259 499.851 482.287 499.764 482.297 499.674C482.307 499.585 482.299 499.494 482.273 499.407C477.574 483.345 458.332 470.331 439.531 479.399C429.202 484.378 425.682 494.671 424.782 501.637H231.871C231.207 497.062 229.622 492.668 227.209 488.724C224.797 484.78 221.609 481.367 217.837 478.692C214.792 476.532 211.296 475.091 207.613 474.475L208.435 296.06C208.435 295.877 208.362 295.702 208.233 295.573C208.104 295.444 207.929 295.371 207.746 295.371C207.564 295.371 207.389 295.444 207.26 295.573C207.13 295.702 207.058 295.877 207.058 296.06L206.214 474.287C204.894 474.142 203.565 474.101 202.24 474.163L203.442 297.078C203.442 296.896 203.369 296.721 203.24 296.592C203.111 296.463 202.936 296.39 202.753 296.39C202.571 296.39 202.396 296.463 202.267 296.592C202.138 296.721 202.065 296.896 202.065 297.078L200.863 474.273C187.546 475.54 175.128 486.819 174.614 502.215Z" fill="black"/>
<path fill-rule="evenodd" clip-rule="evenodd" d="M266.646 491.679C265.941 492.986 265.599 494.458 265.655 495.942C265.765 498.113 266.807 500.435 269.207 502.826C269.303 502.922 269.426 502.987 269.559 503.014C269.693 503.04 269.831 503.027 269.957 502.975C270.083 502.923 270.19 502.834 270.266 502.721C270.341 502.608 270.382 502.475 270.382 502.339H361.909C361.913 502.511 361.982 502.675 362.102 502.798C362.231 502.927 362.406 502.999 362.588 502.999C362.771 502.999 362.946 502.927 363.075 502.798C364.65 501.338 365.891 499.555 366.714 497.571C366.898 497.123 367.051 496.663 367.173 496.195C368.247 492.161 367.081 488.049 365.034 484.121C362.065 478.421 357.233 473.153 355.136 469.244C357.105 464.495 358.828 459.649 360.299 454.724C362.933 454.784 368.559 454.219 369.674 451.209C370.101 450.029 369.834 448.455 368.421 446.445C366.998 444.405 365.378 442.51 363.584 440.787C363.612 440.636 363.639 440.48 363.662 440.328C363.692 440.146 363.648 439.959 363.54 439.809C363.432 439.658 363.269 439.557 363.086 439.528C362.904 439.498 362.717 439.542 362.567 439.65C362.416 439.758 362.315 439.921 362.286 440.103C360.721 449.658 357.563 459.799 353.727 469.014C352.91 470.978 352.057 472.906 351.185 474.769C351.147 474.851 351.125 474.939 351.121 475.03C351.117 475.12 351.131 475.21 351.162 475.295C351.192 475.38 351.24 475.458 351.301 475.525C351.362 475.592 351.436 475.646 351.517 475.684C351.599 475.722 351.688 475.744 351.779 475.748C351.869 475.752 351.959 475.738 352.044 475.707C352.129 475.677 352.207 475.629 352.274 475.568C352.341 475.507 352.395 475.433 352.433 475.351C353.121 473.88 353.794 472.375 354.452 470.836C356.747 474.631 361.069 479.514 363.805 484.759C365.732 488.453 366.842 492.34 365.718 496.135C347.784 495.451 329.681 496.25 311.72 495.938C298.219 495.708 284.3 496.855 268.675 490.945C269.419 489.953 270.277 489.052 271.231 488.26C275.678 484.497 282.442 481.96 286.237 481.4C288.683 481.042 291.133 480.734 293.579 480.482H293.671C296.805 480.193 299.953 479.963 303.088 479.734C303.27 479.721 303.44 479.636 303.56 479.498C303.68 479.36 303.741 479.18 303.728 478.997C303.715 478.815 303.63 478.645 303.492 478.525C303.354 478.405 303.174 478.344 302.991 478.357C299.985 478.578 296.975 478.816 293.974 479.069C282.708 457.266 276.572 439.787 271.878 426.612C271.817 426.44 271.69 426.299 271.525 426.22C271.361 426.141 271.171 426.131 270.999 426.192C270.827 426.253 270.686 426.38 270.607 426.544C270.528 426.709 270.518 426.898 270.579 427.071L270.621 427.185C265.972 429.815 264.912 432.692 265.71 435.391C267.087 440.085 274.053 444.252 277.435 445.711C281.862 457.135 286.889 468.317 292.496 479.211C290.33 479.431 288.169 479.706 286.017 480.023C282.052 480.61 274.975 483.258 270.322 487.196C269.188 488.126 268.186 489.207 267.344 490.408C267.084 490.816 266.851 491.241 266.646 491.679Z" fill="black"/>
<path fill-rule="evenodd" clip-rule="evenodd" d="M524.142 434.023C524.144 434.113 524.163 434.202 524.198 434.285C524.234 434.368 524.286 434.443 524.351 434.506C524.416 434.568 524.492 434.618 524.576 434.65C524.66 434.683 524.75 434.699 524.84 434.698C538.694 434.464 552.608 433.821 564.576 433.156C563.901 441.476 563.264 450.548 567.008 458.129C573.671 471.616 590.697 468.633 599.172 459.047C612.43 444.064 618.285 416.686 619.125 397.21C619.424 390.382 618.607 377.551 613.871 369.984C612.228 367.363 610.122 365.363 607.446 364.394C604.771 363.426 601.563 363.477 597.667 365.032C595.471 365.98 593.423 367.24 591.587 368.772C591.501 368.839 591.433 368.926 591.388 369.025C591.344 369.124 591.324 369.233 591.33 369.341C580.201 362.894 571.487 357.727 561.667 347.378C561.607 347.305 561.532 347.245 561.448 347.202C561.364 347.159 561.272 347.134 561.177 347.128C561.083 347.122 560.988 347.136 560.899 347.168C560.81 347.2 560.729 347.25 560.66 347.316C560.592 347.381 560.537 347.459 560.5 347.546C560.463 347.634 560.445 347.727 560.446 347.822C560.447 347.917 560.467 348.01 560.506 348.096C560.545 348.183 560.601 348.26 560.671 348.324C572.643 360.943 582.973 365.941 597.975 374.816C598.053 374.868 598.14 374.904 598.233 374.922C598.325 374.939 598.42 374.937 598.511 374.917C598.603 374.896 598.689 374.857 598.765 374.801C598.841 374.746 598.905 374.676 598.952 374.595C599 374.514 599.031 374.424 599.042 374.331C599.054 374.238 599.047 374.143 599.02 374.053C598.994 373.963 598.95 373.879 598.89 373.806C598.83 373.734 598.756 373.675 598.672 373.632C596.465 372.324 594.359 371.103 592.335 369.933C592.376 369.913 592.414 369.889 592.449 369.86C594.181 368.409 596.113 367.216 598.186 366.317C601.233 365.106 603.821 364.876 606.015 365.399C611.618 375.757 612.549 393.241 611.374 405.732C609.929 421.091 602.761 440.718 593.308 450.677C583.363 461.144 572.9 460.313 567.045 454.6C564.75 447.831 565.384 440.163 565.966 433.064L566.558 433.032C566.741 433.022 566.912 432.939 567.034 432.803C567.156 432.666 567.218 432.487 567.208 432.305C567.197 432.122 567.115 431.951 566.979 431.829C566.842 431.707 566.663 431.645 566.48 431.655H566.081L565.292 431.696L564.695 431.729C557.325 432.142 549.212 432.545 540.833 432.853C541.906 430.21 543.012 427.58 543.866 424.859C548.696 409.359 552.497 393.557 555.242 377.556C548.671 398.105 536.808 422.188 525.551 433.307H524.812C524.721 433.31 524.631 433.33 524.548 433.367C524.465 433.405 524.39 433.458 524.328 433.525C524.265 433.592 524.217 433.67 524.185 433.755C524.153 433.841 524.139 433.932 524.142 434.023Z" fill="white"/>
<path fill-rule="evenodd" clip-rule="evenodd" d="M278.145 173.492C262.276 182.744 247.481 198.323 236.252 215.018C241.396 213.233 246.705 211.218 251.987 208.965C255.415 195.125 266.672 181.174 278.145 173.492Z" fill="black"/>
<path fill-rule="evenodd" clip-rule="evenodd" d="M147.065 107.627C148.166 106.044 149.923 104.873 152.08 104.107C155.178 103.001 159.111 102.698 162.979 103.047C165.37 103.25 167.732 103.712 170.023 104.424C167.66 99.9816 166.811 93.7543 170.707 89.8537C172.845 87.7152 175.723 86.958 178.637 87.1737C177.205 82.8463 177.609 78.2022 181.698 74.866C183.799 73.1497 186.7 72.5715 189.77 72.7046C194.203 72.8836 198.984 74.5081 202.013 75.9582C216.519 82.9105 227.188 102.712 220.553 120.118C237.321 141.764 257.535 161.85 284.243 169.463C284.333 169.485 284.418 169.525 284.493 169.581C284.567 169.636 284.63 169.706 284.676 169.787C284.723 169.867 284.753 169.956 284.764 170.048C284.776 170.14 284.768 170.234 284.743 170.323C284.717 170.412 284.673 170.495 284.615 170.567C284.556 170.639 284.483 170.699 284.401 170.742C284.319 170.785 284.229 170.811 284.136 170.819C284.043 170.826 283.95 170.815 283.862 170.785C251.827 161.653 228.987 134.798 210.301 108.59C210.243 108.517 210.201 108.433 210.177 108.343C210.153 108.253 210.148 108.16 210.161 108.068C210.174 107.975 210.206 107.887 210.255 107.807C210.303 107.728 210.367 107.659 210.443 107.605C210.518 107.551 210.604 107.513 210.695 107.493C210.786 107.473 210.88 107.472 210.972 107.49C211.063 107.507 211.15 107.543 211.227 107.595C211.304 107.647 211.37 107.714 211.421 107.792C214.045 111.463 216.753 115.171 219.557 118.833C225.316 102.313 215.142 83.7778 201.416 77.2018C198.521 75.8251 193.95 74.2511 189.71 74.0813C186.998 73.9666 184.424 74.4163 182.57 75.9169C178.77 79.0145 178.623 83.3602 180.142 87.3573C182.826 87.8615 185.334 89.0537 187.42 90.8174C188.577 91.8178 191.16 94.2086 192.037 96.3241C192.496 97.4393 192.495 98.4993 191.89 99.3483C191.714 99.5929 191.474 99.7844 191.196 99.9017C190.918 100.019 190.614 100.058 190.316 100.014C189.734 99.9326 189.175 99.7343 188.673 99.4309C186.264 98.0909 183.106 94.6216 182.95 94.4472C181.388 92.7107 180.116 90.7334 179.183 88.5917H179.045C176.356 88.2796 173.649 88.8533 171.703 90.8219C168.22 94.3004 169.17 99.8622 171.281 103.813C171.506 104.236 171.74 104.681 172.029 105.14C172.543 105.351 173.029 105.598 173.497 105.81C175.48 106.815 176.999 108.058 177.811 109.439C178.027 109.85 178.082 110.326 177.967 110.775C177.901 111.062 177.731 111.314 177.491 111.483C177.25 111.653 176.956 111.727 176.664 111.693C176.262 111.65 175.876 111.511 175.539 111.289C174.731 110.748 174.001 110.1 173.369 109.361C172.509 108.391 171.741 107.343 171.074 106.232C168.436 105.246 165.675 104.628 162.869 104.396C159.198 104.07 155.481 104.337 152.553 105.387C150.69 106.053 149.153 107.026 148.203 108.393C144.229 114.106 144.701 120.38 147.459 126.166C151.475 134.583 160.308 141.985 167.651 145.284C167.152 142.134 166.853 138.955 166.756 135.766C166.753 135.676 166.768 135.586 166.8 135.501C166.832 135.417 166.881 135.34 166.943 135.274C167.005 135.208 167.079 135.155 167.162 135.118C167.244 135.081 167.333 135.06 167.424 135.057C167.514 135.055 167.604 135.07 167.689 135.102C167.773 135.134 167.851 135.182 167.916 135.244C167.982 135.306 168.035 135.381 168.072 135.463C168.109 135.546 168.13 135.635 168.133 135.725C168.243 139.236 168.595 142.735 169.188 146.197L169.216 146.358C174.782 178.94 199.865 210.012 212.173 221.824C212.246 221.884 212.306 221.959 212.349 222.043C212.392 222.128 212.417 222.22 212.422 222.315C212.428 222.409 212.414 222.504 212.381 222.593C212.348 222.681 212.298 222.763 212.232 222.831C212.166 222.899 212.088 222.953 212 222.99C211.913 223.026 211.819 223.044 211.724 223.043C211.629 223.041 211.536 223.02 211.45 222.981C211.364 222.942 211.286 222.885 211.223 222.815C198.833 210.92 173.667 179.678 167.912 146.899C160.161 143.687 150.534 135.78 146.234 126.758C143.237 120.536 142.778 113.776 147.065 107.627ZM183.974 93.557C185.317 95.0433 186.79 96.407 188.375 97.632C188.909 98.0502 189.507 98.3802 190.146 98.6094C190.412 98.6875 190.642 98.7471 190.779 98.5636C190.877 98.4199 190.944 98.258 190.977 98.0877C191.01 97.9173 191.008 97.742 190.972 97.5723C190.861 97.0442 190.653 96.5415 190.357 96.0901C189.329 94.383 187.434 92.6667 186.521 91.8774C184.869 90.4772 182.92 89.4712 180.821 88.9359C181.664 90.6056 182.724 92.1564 183.974 93.5478V93.557ZM174.337 108.457C174.921 109.17 175.624 109.776 176.416 110.247C176.475 110.274 176.536 110.295 176.599 110.311C176.61 110.255 176.61 110.198 176.599 110.142C175.811 108.972 174.737 108.025 173.479 107.388C173.768 107.76 174.062 108.122 174.36 108.448L174.337 108.457Z" fill="white"/>
<path fill-rule="evenodd" clip-rule="evenodd" d="M561.169 347.851C561.44 341.027 560.454 334.451 556.19 331.867L556.108 331.817C487.929 291.058 428.809 181.844 350.705 163.497C330.811 158.826 304.723 160.4 284.036 170.119C270.751 176.374 255.988 192.743 251.973 208.965C258.301 206.074 263.904 203.431 269.769 200.246C280.521 169.119 313.3 168.66 333.179 182.656C361.819 202.807 396.966 288.91 365.266 315.737C347.309 330.945 316.654 318.068 299.487 295.261C296.033 290.708 293.175 285.731 290.984 280.452C273.229 282.54 254.341 283.077 237.444 280.741C237.632 313.098 242.519 338.944 249.04 370.53C253.317 391.231 257.3 415.961 265.73 435.436C264.904 432.619 266.084 429.617 271.237 426.896C273.928 425.55 276.753 424.493 279.667 423.743C295.683 419.324 341.343 420.15 362.957 440.264C364.99 442.139 366.815 444.229 368.4 446.496C369.813 448.529 370.079 450.08 369.653 451.254C373.737 443.729 376.816 434.445 379.133 425.134C372.961 422.234 358.699 412.656 353.398 408.407C348.897 404.796 343.174 399.766 337.287 393.993C327.429 384.342 317.077 372.553 311.239 361.902C316.563 366.289 321.987 370.401 327.379 374.215C344.861 386.528 363.499 397.112 383.03 405.819C391.17 409.463 399.458 412.788 407.893 415.795C420.072 420.026 439.07 425.024 458.344 429.397C478.458 433.986 498.879 437.85 512.168 439.493C514.348 439.888 516.789 439.493 519.488 438.024C521.431 436.927 523.227 435.586 524.829 434.032C538.977 420.724 554.286 386.307 558.967 363.71C559.765 359.86 560.935 353.775 561.169 347.869V347.851Z" fill="white"/>
<mask id="mask1_129_1456" style="mask-type:luminance" maskUnits="userSpaceOnUse" x="237" y="160" width="325" height="292">
<path d="M561.169 347.851C561.44 341.027 560.454 334.451 556.19 331.868L556.108 331.817C487.929 291.058 428.809 181.844 350.705 163.498C330.811 158.826 304.723 160.4 284.036 170.12C270.751 176.374 255.988 192.743 251.973 208.965C258.301 206.074 263.904 203.431 269.769 200.246C280.521 169.119 313.3 168.66 333.179 182.657C361.819 202.807 396.966 288.91 365.266 315.737C347.309 330.945 316.654 318.069 299.487 295.261C296.033 290.708 293.175 285.731 290.984 280.453C273.229 282.541 254.341 283.078 237.444 280.742C237.632 313.099 242.519 338.944 249.04 370.53C253.317 391.231 257.3 415.961 265.73 435.436C264.904 432.619 266.084 429.618 271.237 426.896C273.928 425.55 276.753 424.493 279.667 423.744C295.683 419.325 341.343 420.151 362.957 440.264C364.99 442.14 366.815 444.229 368.4 446.496C369.813 448.529 370.079 450.08 369.653 451.255C373.737 443.729 376.816 434.445 379.133 425.134C372.961 422.234 358.699 412.657 353.398 408.407C348.897 404.796 343.174 399.766 337.287 393.993C327.429 384.343 317.077 372.554 311.239 361.903C316.563 366.29 321.987 370.401 327.379 374.215C344.861 386.528 363.499 397.113 383.03 405.819C391.17 409.463 399.458 412.788 407.893 415.796C420.072 420.027 439.07 425.024 458.344 429.397C478.458 433.986 498.879 437.85 512.168 439.493C514.348 439.888 516.789 439.493 519.488 438.025C521.431 436.928 523.227 435.586 524.829 434.032C538.977 420.724 554.286 386.307 558.967 363.711C559.765 359.86 560.935 353.775 561.169 347.869V347.851Z" fill="white"/>
</mask>
<g mask="url(#mask1_129_1456)">
<path fill-rule="evenodd" clip-rule="evenodd" d="M544.542 310.648C544.511 310.161 544.287 309.707 543.921 309.384C543.74 309.225 543.529 309.103 543.3 309.024C543.072 308.946 542.83 308.914 542.589 308.93C542.348 308.945 542.112 309.008 541.895 309.114C541.679 309.22 541.485 309.369 541.325 309.55C541.166 309.731 541.043 309.942 540.965 310.171C540.887 310.399 540.855 310.641 540.87 310.882C544.11 361.517 517.008 416.25 476.698 446.762C476.497 446.904 476.327 447.085 476.198 447.294C476.068 447.503 475.982 447.736 475.944 447.979C475.906 448.222 475.918 448.47 475.978 448.708C476.038 448.947 476.145 449.171 476.293 449.367C476.442 449.563 476.628 449.728 476.841 449.851C477.054 449.974 477.289 450.052 477.533 450.083C477.777 450.113 478.025 450.093 478.261 450.026C478.498 449.958 478.718 449.844 478.91 449.69C520.16 418.485 547.846 362.458 544.532 310.644L544.542 310.648Z" fill="black"/>
<path fill-rule="evenodd" clip-rule="evenodd" d="M382.445 440.191C382.632 440.35 382.849 440.471 383.084 440.545C383.318 440.619 383.565 440.645 383.81 440.622C384.055 440.599 384.292 440.527 384.509 440.41C384.725 440.293 384.916 440.134 385.07 439.943C385.223 439.751 385.337 439.53 385.404 439.293C385.47 439.057 385.489 438.809 385.458 438.565C385.427 438.321 385.348 438.086 385.225 437.873C385.101 437.66 384.936 437.475 384.74 437.327C375.277 429.728 365.337 422.064 354.365 416.732C321.494 400.748 276.761 398.986 246.212 421.518C246.018 421.661 245.854 421.841 245.729 422.048C245.605 422.254 245.522 422.483 245.486 422.722C245.45 422.96 245.462 423.203 245.519 423.437C245.577 423.671 245.681 423.892 245.824 424.086C245.967 424.28 246.147 424.444 246.354 424.568C246.56 424.693 246.789 424.775 247.028 424.811C247.266 424.847 247.509 424.836 247.743 424.778C247.977 424.72 248.198 424.616 248.392 424.473C277.871 402.731 321.04 404.608 352.759 420.031C363.483 425.244 373.189 432.761 382.441 440.191H382.445Z" fill="black"/>
</g>
<path fill-rule="evenodd" clip-rule="evenodd" d="M561.169 347.851C561.44 341.027 560.454 334.451 556.19 331.867L556.108 331.817C487.929 291.058 428.809 181.844 350.705 163.497C330.811 158.826 304.723 160.4 284.036 170.119C270.751 176.374 255.988 192.743 251.973 208.965C258.301 206.074 263.904 203.431 269.769 200.246C280.521 169.119 313.3 168.66 333.179 182.656C361.819 202.807 396.966 288.91 365.266 315.737C347.309 330.945 316.654 318.068 299.487 295.261C296.033 290.708 293.175 285.731 290.984 280.452C273.229 282.54 254.341 283.077 237.444 280.741C237.632 313.098 242.519 338.944 249.04 370.53C253.317 391.231 257.3 415.961 265.73 435.436C264.904 432.619 266.084 429.617 271.237 426.896C273.928 425.55 276.753 424.493 279.667 423.743C295.683 419.324 341.343 420.15 362.957 440.264C364.99 442.139 366.815 444.229 368.4 446.496C369.813 448.529 370.079 450.08 369.653 451.254C373.737 443.729 376.816 434.445 379.134 425.134C372.961 422.234 358.699 412.656 353.398 408.407C348.897 404.796 343.174 399.766 337.287 393.993C327.429 384.342 317.077 372.553 311.239 361.902C316.563 366.289 321.987 370.401 327.379 374.215C344.861 386.528 363.499 397.112 383.03 405.819C391.17 409.463 399.458 412.788 407.893 415.795C420.072 420.026 439.07 425.024 458.344 429.397C478.458 433.986 498.879 437.85 512.168 439.493C514.348 439.888 516.789 439.493 519.488 438.024C521.431 436.927 523.227 435.586 524.829 434.032C538.977 420.724 554.286 386.307 558.967 363.71C559.765 359.86 560.935 353.775 561.169 347.869V347.851Z" stroke="black" stroke-width="0.917797" stroke-miterlimit="10"/>
<path fill-rule="evenodd" clip-rule="evenodd" d="M379.154 425.139C380.806 418.503 382.068 411.853 383.031 405.819C363.501 397.112 344.863 386.528 327.381 374.215C321.989 370.401 316.564 366.289 311.241 361.902C317.078 372.553 327.431 384.343 337.307 393.979C343.194 399.752 348.917 404.782 353.419 408.393C358.719 412.643 372.981 422.22 379.154 425.12V425.139Z" fill="black"/>
<path fill-rule="evenodd" clip-rule="evenodd" d="M262.544 298.689C262.515 298.601 262.468 298.52 262.406 298.451C262.344 298.382 262.269 298.325 262.186 298.286C262.102 298.246 262.011 298.224 261.918 298.22C261.825 298.217 261.733 298.232 261.646 298.265C261.559 298.298 261.48 298.349 261.414 298.413C261.347 298.478 261.294 298.555 261.258 298.64C261.222 298.726 261.203 298.818 261.203 298.91C261.204 299.003 261.223 299.095 261.259 299.18C270.745 323.818 299.807 368.57 381.725 407.177C381.807 407.221 381.897 407.247 381.99 407.255C382.083 407.262 382.176 407.251 382.264 407.222C382.352 407.192 382.433 407.145 382.503 407.083C382.572 407.022 382.629 406.947 382.668 406.863C382.708 406.778 382.73 406.687 382.734 406.594C382.737 406.502 382.722 406.409 382.689 406.322C382.655 406.235 382.605 406.156 382.54 406.089C382.476 406.023 382.398 405.97 382.312 405.934C300.908 367.57 271.97 323.171 262.54 298.689H262.544Z" fill="black"/>
<path fill-rule="evenodd" clip-rule="evenodd" d="M168.076 274.253C175.033 290.773 188.199 296.629 197.941 297.657C202.181 298.115 205.784 297.611 207.987 296.702C214.87 293.862 218.541 287.552 217.036 280.37C217.891 279.527 218.617 278.564 219.193 277.511C225.92 279.544 251.178 285.312 291.052 281.182H291.263C293.417 286.216 296.179 290.967 299.486 295.33C317.842 291.718 330.012 282.173 338.135 271.509L338.277 271.463C338.366 271.438 338.449 271.396 338.521 271.338C338.594 271.281 338.654 271.209 338.698 271.128C338.742 271.047 338.769 270.958 338.778 270.866C338.787 270.774 338.777 270.681 338.75 270.593C338.722 270.505 338.677 270.423 338.617 270.353C338.557 270.282 338.483 270.225 338.401 270.184C338.318 270.142 338.228 270.118 338.136 270.112C338.044 270.107 337.951 270.12 337.864 270.15C325.474 274.055 306.806 278.181 290.91 279.833C251.701 283.908 226.737 278.342 219.78 276.281C220.414 274.735 220.68 273.064 220.557 271.398C220.435 269.732 219.927 268.117 219.074 266.681C217.628 264.165 215.41 262.181 212.748 261.024C210.087 259.866 207.123 259.597 204.297 260.256C199.414 261.5 196.56 265.653 195.927 270.178C195.353 274.234 196.574 278.566 199.662 281.329C201.723 283.165 204.614 284.321 208.381 284.206C211.09 284.101 213.695 283.136 215.82 281.453C216.779 287.63 213.438 292.976 207.445 295.449C205.394 296.294 202.025 296.716 198.07 296.303C188.685 295.33 176.043 289.667 169.329 273.753C164.465 262.198 165.745 249.431 171.623 238.633C176.277 230.093 187.712 224.967 200.401 225.591C200.45 225.596 200.499 225.596 200.548 225.591H200.575C205.529 225.863 210.401 226.971 214.985 228.868C215.069 228.908 215.161 228.931 215.255 228.934C215.348 228.938 215.441 228.923 215.529 228.889C215.616 228.855 215.696 228.804 215.763 228.739C215.83 228.674 215.882 228.595 215.918 228.509C215.954 228.422 215.971 228.329 215.97 228.236C215.968 228.142 215.948 228.05 215.909 227.964C215.871 227.879 215.816 227.802 215.747 227.739C215.677 227.676 215.596 227.627 215.508 227.597C212.112 226.195 208.559 225.211 204.926 224.664C226.347 219.86 273.049 206.418 294.998 181.675C295.12 181.538 295.182 181.358 295.172 181.175C295.161 180.992 295.078 180.821 294.941 180.699C294.804 180.578 294.624 180.515 294.442 180.526C294.259 180.537 294.088 180.62 293.966 180.757C270.631 207.056 219.06 220.415 200.433 224.219C187.194 223.59 175.262 229.047 170.407 237.986C164.35 249.105 163.042 262.303 168.076 274.253Z" fill="black"/>
<path fill-rule="evenodd" clip-rule="evenodd" d="M287.029 74.866C286.846 74.894 286.682 74.9934 286.573 75.1423C286.464 75.2912 286.418 75.4774 286.446 75.6599C286.474 75.8425 286.574 76.0065 286.722 76.1157C286.871 76.225 287.058 76.2707 287.24 76.2427C304.426 73.6178 318.138 86.5496 322.97 101.147C325.856 109.866 325.577 119.209 320.891 126.185C317.775 130.82 312.718 134.394 305.38 136.06C289.558 139.653 276.263 127.961 271.169 114.194C266.076 100.427 269.169 84.6268 286.189 79.7212C286.365 79.6701 286.513 79.5512 286.602 79.3907C286.69 79.2302 286.711 79.0412 286.66 78.8653C286.608 78.6895 286.49 78.5411 286.329 78.4529C286.169 78.3647 285.98 78.3438 285.804 78.395C267.875 83.5668 264.534 100.225 269.88 114.671C275.226 129.117 289.154 141.159 305.674 137.405C313.407 135.62 318.748 131.825 322.034 126.937C326.944 119.622 327.302 109.839 324.273 100.697C319.248 85.5079 304.917 72.131 287.029 74.866Z" fill="black"/>
<path fill-rule="evenodd" clip-rule="evenodd" d="M288.43 65.3391C288.356 65.3938 288.293 65.4628 288.246 65.542C288.199 65.6212 288.169 65.709 288.156 65.8003C288.144 65.8916 288.15 65.9844 288.174 66.0733C288.198 66.1622 288.24 66.2454 288.297 66.3179C288.353 66.3904 288.424 66.4507 288.505 66.4953C288.585 66.54 288.674 66.568 288.766 66.5777C288.857 66.5874 288.95 66.5787 289.038 66.5519C289.126 66.5252 289.208 66.4811 289.279 66.4221C298.259 59.3597 307.896 55.0414 319.621 55.3122C319.712 55.3146 319.802 55.2992 319.886 55.2668C319.97 55.2344 320.048 55.1858 320.113 55.1236C320.246 54.9979 320.323 54.8248 320.328 54.6422C320.333 54.4596 320.265 54.2826 320.139 54.1501C320.014 54.0175 319.84 53.9404 319.658 53.9355C307.593 53.6326 297.681 58.0656 288.453 65.3162L288.43 65.3391Z" fill="black"/>
<path fill-rule="evenodd" clip-rule="evenodd" d="M301.612 69.5383C301.438 69.5924 301.292 69.7138 301.207 69.8756C301.121 70.0374 301.104 70.2264 301.158 70.401C301.212 70.5757 301.334 70.7217 301.495 70.8069C301.657 70.8921 301.846 70.9095 302.021 70.8553C309.928 68.414 318.665 67.3448 326.893 68.7215C326.984 68.7362 327.076 68.733 327.165 68.7121C327.254 68.6911 327.339 68.6528 327.413 68.5993C327.487 68.5459 327.55 68.4783 327.599 68.4004C327.647 68.3225 327.679 68.2359 327.694 68.1455C327.709 68.0551 327.706 67.9627 327.685 67.8736C327.664 67.7844 327.625 67.7002 327.572 67.6259C327.518 67.5515 327.451 67.4884 327.373 67.4402C327.295 67.3919 327.208 67.3595 327.118 67.3448C318.684 65.9681 309.735 67.0465 301.612 69.5383Z" fill="black"/>
<path fill-rule="evenodd" clip-rule="evenodd" d="M317.035 76.8436C316.869 76.7688 316.679 76.7632 316.508 76.8282C316.337 76.8932 316.199 77.0234 316.124 77.1901C316.05 77.3569 316.044 77.5465 316.109 77.7173C316.174 77.8882 316.304 78.0262 316.471 78.101C321.978 80.5745 327.553 83.5757 331.821 87.9215C331.952 88.0236 332.115 88.0752 332.281 88.0667C332.446 88.0582 332.603 87.9902 332.723 87.8752C332.842 87.7602 332.916 87.6059 332.931 87.4407C332.946 87.2755 332.9 87.1106 332.803 86.9761C328.416 82.5156 322.707 79.4089 317.035 76.8804V76.8436Z" fill="black"/>
<path fill-rule="evenodd" clip-rule="evenodd" d="M291.105 91.0512C291.091 90.9591 291.059 90.8707 291.01 90.7914C290.961 90.7121 290.897 90.6436 290.821 90.5899C290.745 90.5362 290.659 90.4986 290.567 90.4792C290.476 90.4598 290.382 90.4591 290.291 90.4771C290.2 90.4952 290.113 90.5315 290.036 90.5841C289.959 90.6366 289.894 90.7042 289.844 90.7827C289.794 90.8613 289.76 90.9492 289.745 91.0411C289.73 91.133 289.734 91.227 289.756 91.3174C290.215 93.6119 290.036 95.7549 289.733 98.0311C289.721 98.1215 289.727 98.2133 289.75 98.3015C289.774 98.3896 289.814 98.4722 289.87 98.5447C289.925 98.6171 289.994 98.6779 290.073 98.7237C290.152 98.7694 290.239 98.7991 290.33 98.8112C290.512 98.8355 290.697 98.7864 290.843 98.6745C290.916 98.6191 290.976 98.55 291.022 98.4711C291.068 98.3922 291.098 98.305 291.11 98.2146C291.426 95.7825 291.596 93.488 291.11 91.0512H291.105Z" fill="black"/>
<path fill-rule="evenodd" clip-rule="evenodd" d="M281.258 91.5973C281.258 91.4147 281.185 91.2396 281.056 91.1105C280.927 90.9815 280.752 90.9089 280.569 90.9089C280.387 90.9089 280.212 90.9815 280.083 91.1105C279.954 91.2396 279.881 91.4147 279.881 91.5973C279.881 93.4696 279.697 95.3235 279.56 97.1821C279.546 97.3646 279.606 97.545 279.726 97.6836C279.845 97.8222 280.015 97.9075 280.198 97.9209C280.38 97.9343 280.561 97.8746 280.699 97.755C280.838 97.6354 280.923 97.4656 280.936 97.283C281.074 95.3878 281.262 93.5017 281.258 91.5973Z" fill="black"/>
<path fill-rule="evenodd" clip-rule="evenodd" d="M302.633 103.368C302.617 103.275 302.582 103.186 302.531 103.107C302.479 103.028 302.412 102.961 302.333 102.909C302.255 102.857 302.166 102.821 302.073 102.805C301.98 102.789 301.885 102.792 301.793 102.814C301.702 102.836 301.615 102.877 301.54 102.933C301.465 102.99 301.402 103.062 301.355 103.144C301.309 103.226 301.28 103.317 301.27 103.411C301.26 103.504 301.269 103.599 301.298 103.689C302.16 107.269 302.114 111.491 300.086 114.703C298.142 117.66 295.304 119.919 291.986 121.15C288.774 122.321 285.254 122.284 282.492 119.989C282.35 119.882 282.173 119.834 281.997 119.854C281.82 119.874 281.658 119.962 281.545 120.099C281.432 120.236 281.376 120.411 281.389 120.588C281.402 120.765 281.483 120.931 281.615 121.049C284.148 123.156 287.223 123.642 290.247 123.059C294.666 122.206 298.966 119.039 301.261 115.437C303.482 111.917 303.592 107.278 302.637 103.359L302.633 103.368Z" fill="black"/>
</g>
<defs>
<filter id="filter0_f_129_1456" x="58.8535" y="-165.914" width="755.031" height="672.132" filterUnits="userSpaceOnUse" color-interpolation-filters="sRGB">
<feFlood flood-opacity="0" result="BackgroundImageFix"/>
<feBlend mode="normal" in="SourceGraphic" in2="BackgroundImageFix" result="shape"/>
<feGaussianBlur stdDeviation="64.6826" result="effect1_foregroundBlur_129_1456"/>
</filter>
<filter id="filter1_f_129_1456" x="-96.0371" y="19.5166" width="648.137" height="501.972" filterUnits="userSpaceOnUse" color-interpolation-filters="sRGB">
<feFlood flood-opacity="0" result="BackgroundImageFix"/>
<feBlend mode="normal" in="SourceGraphic" in2="BackgroundImageFix" result="shape"/>
<feGaussianBlur stdDeviation="64.6826" result="effect1_foregroundBlur_129_1456"/>
</filter>
<filter id="filter2_f_129_1456" x="-74.2207" y="148.227" width="661.223" height="629.592" filterUnits="userSpaceOnUse" color-interpolation-filters="sRGB">
<feFlood flood-opacity="0" result="BackgroundImageFix"/>
<feBlend mode="normal" in="SourceGraphic" in2="BackgroundImageFix" result="shape"/>
<feGaussianBlur stdDeviation="64.6826" result="effect1_foregroundBlur_129_1456"/>
</filter>
<filter id="filter3_f_129_1456" x="116.334" y="77.0002" width="693.511" height="673.877" filterUnits="userSpaceOnUse" color-interpolation-filters="sRGB">
<feFlood flood-opacity="0" result="BackgroundImageFix"/>
<feBlend mode="normal" in="SourceGraphic" in2="BackgroundImageFix" result="shape"/>
<feGaussianBlur stdDeviation="90.4793" result="effect1_foregroundBlur_129_1456"/>
</filter>
<clipPath id="clip0_129_1456">
<rect width="475.272" height="468.985" fill="white" transform="matrix(-1 0 0 1 619.184 53.9402)"/>
</clipPath>
</defs>
</svg>
