<svg width="164" height="158" viewBox="0 0 164 158" fill="none" xmlns="http://www.w3.org/2000/svg">
<path d="M65.9442 12.1652C70.9979 -3.38842 93.0021 -3.38841 98.0558 12.1653L105.497 35.0672C107.891 42.4351 114.757 47.4235 122.504 47.4235H146.585C162.939 47.4235 169.738 68.3508 156.508 77.9635L137.026 92.1177C130.759 96.6712 128.136 104.743 130.53 112.11L137.971 135.012C143.025 150.566 125.223 163.5 111.992 153.887L92.5108 139.733C86.2434 135.179 77.7566 135.179 71.4892 139.733L52.0076 153.887C38.7768 163.5 20.975 150.566 26.0287 135.012L33.47 112.11C35.864 104.743 33.2414 96.6712 26.9739 92.1177L7.49236 77.9635C-5.73837 68.3508 1.06135 47.4235 17.4154 47.4235H41.496C49.243 47.4235 56.1089 42.4351 58.5029 35.0672L65.9442 12.1652Z" stroke="white"/>
</svg>
