<svg width="50" height="28" viewBox="0 0 50 28" fill="none" xmlns="http://www.w3.org/2000/svg">
<g clip-path="url(#clip0_129_941)">
<path d="M22.378 27.9424C17.3726 27.459 12.7744 25.6928 9.0213 22.0197C8.38683 21.3844 7.79791 20.7051 7.25893 19.987C6.42913 18.9136 6.44817 18.7233 7.43783 17.7298C9.11397 16.0659 11.0405 14.6749 13.1474 13.6075C17.1313 11.5568 21.5938 10.6167 26.0664 10.8859C28.7842 11.0191 31.3421 11.8756 33.8543 12.8691C36.7091 14.011 39.1376 15.7924 41.4671 17.7146C42.1066 18.2437 42.1104 18.3883 41.646 19.1496C39.9754 21.8472 37.5997 24.0373 34.7755 25.4835C30.9386 27.5047 26.8315 28.2203 22.378 27.9424ZM23.5732 26.8842C26.5156 26.9794 29.2828 25.9174 31.2431 23.1578C32.28 21.7284 32.7347 19.9581 32.5149 18.2059C32.295 16.4537 31.4172 14.8507 30.0593 13.7217C28.5462 12.3927 26.5957 11.6689 24.5819 11.6891C21.3769 11.6891 18.7505 12.8957 16.9691 15.6021C16.0102 17.0213 15.6078 18.744 15.8389 20.4412C16.0699 22.1383 16.9181 23.6908 18.2214 24.8021C19.6602 26.0468 21.3388 26.6901 23.5732 26.8842ZM30.1431 12.5417C35.1827 16.7554 34.0751 23.7021 28.5101 26.7168C32.7809 26.5988 39.7048 22.0235 41.0256 18.4378C37.8663 15.6059 34.3035 13.52 30.1431 12.5417ZM18.6705 12.4732C14.3693 13.5732 10.5629 15.5564 7.51396 18.8451C9.45903 22.3051 15.8652 26.5341 18.7733 26.3399C13.5433 22.6629 13.8935 16.1007 18.6705 12.4618V12.4732Z" fill="white"/>
<path d="M20.9144 1.8842C20.8408 2.29789 20.6077 2.66614 20.2652 2.90963C19.9228 3.15312 19.4984 3.25236 19.0835 3.18599C18.8844 3.17732 18.6891 3.12888 18.5091 3.0435C18.329 2.95813 18.1679 2.83755 18.0352 2.6889C17.9025 2.54024 17.8009 2.36652 17.7365 2.17797C17.672 1.98942 17.646 1.78987 17.6599 1.5911C17.7779 0.80698 18.6572 0.228408 19.5631 0.350213C20.469 0.472018 20.9981 1.12291 20.9144 1.8842Z" fill="white"/>
<path d="M8.6765 6.57323C8.32547 6.56723 7.99091 6.4233 7.74516 6.17256C7.49941 5.92183 7.36224 5.58445 7.36329 5.23337C7.38993 4.41118 8.26541 3.7108 9.16753 3.76028C9.5197 3.76911 9.85476 3.91397 10.1024 4.16449C10.3501 4.415 10.4912 4.7517 10.496 5.10395C10.4731 5.9033 9.57481 6.63032 8.6765 6.57323Z" fill="white"/>
<path d="M2.96145 9.81704C2.93976 10.2344 2.75392 10.6263 2.44446 10.9073C2.135 11.1882 1.72701 11.3354 1.30947 11.3168C1.1271 11.3132 0.947384 11.2724 0.78134 11.1968C0.615296 11.1213 0.466418 11.0127 0.343827 10.8777C0.221235 10.7426 0.127511 10.5839 0.0683998 10.4114C0.00928861 10.2388 -0.0139654 10.056 6.14696e-05 9.87414C0.0363422 9.4575 0.227885 9.06971 0.536702 8.78768C0.84552 8.50566 1.24905 8.35 1.66726 8.35157C1.84989 8.35863 2.0292 8.40266 2.19432 8.48101C2.35945 8.55935 2.50696 8.67038 2.62794 8.80737C2.74893 8.94437 2.84085 9.10448 2.89818 9.27802C2.9555 9.45157 2.97703 9.63494 2.96145 9.81704Z" fill="white"/>
<path d="M38.1928 5.45011C37.2945 5.36256 36.5636 4.63935 36.5865 3.84761C36.5915 3.52924 36.7217 3.22565 36.949 3.00264C37.1763 2.77964 37.4823 2.65517 37.8007 2.65621C38.2321 2.60679 38.6668 2.71528 39.0243 2.9616C39.3819 3.20791 39.6382 3.57539 39.7458 3.99606C39.9171 4.85251 39.1558 5.54146 38.1928 5.45011Z" fill="white"/>
<path d="M29.5078 2.66541C28.6056 2.58547 27.9205 1.90413 27.9585 1.14284C27.9966 0.381562 28.6513 -0.0828197 29.5268 0.000921288C30.4023 0.0846623 31.1597 0.819295 31.0494 1.61483C30.9808 2.31902 30.3528 2.73773 29.5078 2.66541Z" fill="white"/>
<path d="M43.9267 9.78936C43.4941 9.74146 43.0959 9.53065 42.8131 9.19978C42.5303 8.8689 42.3841 8.44277 42.4042 8.00796C42.454 7.69407 42.6214 7.41088 42.8723 7.2158C43.1232 7.02072 43.4389 6.92834 43.7554 6.95739C44.1874 7.00142 44.5867 7.20714 44.8734 7.5333C45.16 7.85945 45.3127 8.28192 45.3008 8.71595C45.2944 8.88181 45.2518 9.04426 45.1762 9.192C45.1005 9.33973 44.9936 9.46919 44.8628 9.57137C44.7319 9.67355 44.5804 9.74599 44.4188 9.78364C44.2571 9.82128 44.0892 9.82324 43.9267 9.78936Z" fill="white"/>
<path d="M47.0136 12.0784C47.0197 11.937 47.0545 11.7984 47.116 11.671C47.1775 11.5435 47.2643 11.43 47.3713 11.3374C47.4782 11.2447 47.6029 11.1749 47.7377 11.1321C47.8726 11.0893 48.0148 11.0746 48.1556 11.0887C48.5689 11.154 48.9434 11.3704 49.2064 11.696C49.4694 12.0216 49.6022 12.4332 49.5791 12.8511C49.5736 12.9927 49.5392 13.1318 49.4779 13.2596C49.4166 13.3875 49.3298 13.5015 49.2228 13.5945C49.1159 13.6876 48.991 13.7578 48.8559 13.8008C48.7208 13.8438 48.5783 13.8587 48.4372 13.8445C48.025 13.7752 47.6525 13.5571 47.3901 13.2317C47.1278 12.9062 46.9939 12.4959 47.0136 12.0784Z" fill="white"/>
<path d="M29.5935 4.94899C29.4374 5.9653 29.2852 6.97781 29.1253 7.99412C29.1111 8.18965 29.0567 8.38014 28.9655 8.55366C28.9121 8.60938 28.8475 8.65313 28.776 8.682C28.7045 8.71087 28.6276 8.72422 28.5506 8.72114C28.4668 8.72114 28.3488 8.55366 28.3222 8.44327C28.2937 8.28084 28.2937 8.11468 28.3222 7.95225C28.5011 6.70755 28.68 5.46286 28.8665 4.21816C28.8774 4.05293 28.9269 3.89256 29.0111 3.74997C29.055 3.68766 29.1116 3.6354 29.1773 3.59668C29.2429 3.55796 29.316 3.53366 29.3918 3.52539C29.4622 3.55491 29.5243 3.60122 29.5728 3.66027C29.6212 3.71931 29.6545 3.78931 29.6696 3.86416C29.6664 4.22686 29.6422 4.58907 29.5973 4.94899H29.5935Z" fill="white"/>
<path d="M5.9477 15.9991C5.69648 16.079 5.49094 16.2122 5.33107 16.1742C5.1712 16.1361 5.01894 15.942 4.90094 15.7935C4.13966 14.7962 3.37838 13.7952 2.61709 12.7903C2.53716 12.6837 2.41916 12.5695 2.41536 12.4553C2.40551 12.2744 2.45206 12.0948 2.54858 11.9414C2.59045 11.8843 2.84929 11.9414 2.98251 12.0061C3.11574 12.0708 3.16902 12.185 3.25276 12.2916C4.04069 13.3155 4.83243 14.3433 5.61274 15.3748C5.73626 15.5763 5.8481 15.7847 5.9477 15.9991Z" fill="white"/>
<path d="M37.6789 6.83338C36.9176 8.14659 36.1906 9.44457 35.4332 10.7273C35.3726 10.7734 35.3013 10.8031 35.226 10.8138C35.1507 10.8244 35.074 10.8156 35.003 10.7882C34.9463 10.7357 34.9009 10.6721 34.8695 10.6014C34.8381 10.5308 34.8213 10.4545 34.8203 10.3771C34.8404 10.2463 34.8941 10.123 34.9764 10.0193C35.5676 8.94593 36.1627 7.87253 36.7616 6.79912C36.809 6.67577 36.8877 6.56689 36.99 6.48319C37.0546 6.443 37.1268 6.41652 37.2021 6.40539C37.2774 6.39426 37.3542 6.39871 37.4277 6.41848C37.5419 6.45274 37.5876 6.65448 37.6789 6.83338Z" fill="white"/>
<path d="M12.3733 11.1188C12.2934 11.2101 12.221 11.3776 12.1297 11.3852C11.9766 11.3944 11.8257 11.3454 11.7072 11.2482C11.6007 11.122 11.5204 10.9757 11.4712 10.8181C11.0487 9.81318 10.6261 8.80829 10.2112 7.8034C10.1327 7.65752 10.086 7.49665 10.0742 7.3314C10.0803 7.2555 10.1032 7.18192 10.1414 7.11605C10.1796 7.05019 10.2321 6.99371 10.295 6.95076C10.413 6.90889 10.5881 7.00406 10.7289 7.06115C10.7784 7.06115 10.8089 7.16392 10.8355 7.22483C11.3227 8.37944 11.8087 9.53658 12.2933 10.6963C12.3339 10.8341 12.3607 10.9756 12.3733 11.1188Z" fill="white"/>
<path d="M19.2852 4.48444L19.6658 4.07715C19.8104 4.23321 20.0464 4.37025 20.0807 4.54534C20.2672 5.85855 20.4271 7.17556 20.5527 8.49639C20.5717 8.67529 20.3738 8.87703 20.2748 9.06355C20.1188 8.92271 19.8523 8.8009 19.8295 8.64484C19.6277 7.29737 19.4717 5.9461 19.2852 4.48444Z" fill="white"/>
<path d="M39.988 13.597C39.6074 13.4219 39.5503 13.1935 39.733 12.9232C40.0413 12.455 40.3572 11.9869 40.6998 11.5415C41.1223 10.9896 41.5525 10.4415 42.0245 9.9352C42.1272 9.82101 42.4051 9.87049 42.6183 9.84766C42.6183 10.0266 42.7096 10.2588 42.6183 10.3729C41.8798 11.3893 41.1147 12.3865 40.3344 13.3762C40.2338 13.4708 40.1163 13.5457 39.988 13.597Z" fill="white"/>
<path d="M43.8191 16.4515C43.7265 16.2962 43.6609 16.1263 43.625 15.9491C43.625 15.8463 43.743 15.7169 43.8382 15.6293C44.5994 14.9365 45.3607 14.2476 46.122 13.5586C46.1715 13.513 46.2286 13.4521 46.2857 13.4482C46.4379 13.4482 46.6854 13.4254 46.7234 13.4977C46.7957 13.6424 46.8262 13.9279 46.7234 14.0116C45.9127 14.7957 45.0752 15.5532 44.234 16.2954C44.1693 16.3868 44.0171 16.3906 43.8191 16.4515Z" fill="white"/>
<path d="M19.295 18.4064L19.2959 18.3991L19.2963 18.3918C19.348 17.5129 19.9053 16.55 20.8891 15.7928C23.0878 14.1058 26.611 14.5284 28.3569 16.6881L28.3568 16.6882L28.3623 16.6946C28.7365 17.127 29.0127 17.6351 29.1722 18.1842C29.3317 18.7333 29.3706 19.3104 29.2863 19.876C29.2019 20.4415 28.9963 20.9822 28.6836 21.4609C28.3708 21.9396 27.9583 22.345 27.4742 22.6494L27.4742 22.6494C26.3638 23.3482 25.0451 23.6394 23.7438 23.4732C22.4436 23.3071 21.2414 22.6947 20.3427 21.7407C19.943 21.2907 19.6431 20.7614 19.4624 20.1873C19.2814 19.6122 19.2244 19.0052 19.295 18.4064Z" fill="#FFF500" stroke="white" stroke-width="0.5"/>
</g>
<defs>
<clipPath id="clip0_129_941">
<rect width="49.5899" height="27.9999" fill="white"/>
</clipPath>
</defs>
</svg>
