<svg width="635" height="391" viewBox="0 0 635 391" fill="none" xmlns="http://www.w3.org/2000/svg">
<g clip-path="url(#clip0_215_901)">
<path fill-rule="evenodd" clip-rule="evenodd" d="M78.4529 190.876C79.6127 183.793 87.5447 179.956 92.0389 178.905C89.3517 176.037 87.8968 171.734 88.9323 168.452C91.4642 160.561 104.465 160.685 111.429 160.753C112.226 160.753 112.982 160.753 113.769 160.805C157.38 111.763 199.137 102.298 260.864 102.013C261.07 102.013 261.267 102.095 261.413 102.241C261.559 102.386 261.641 102.584 261.641 102.79C261.641 102.996 261.559 103.193 261.413 103.339C261.267 103.485 261.07 103.566 260.864 103.566C225.553 103.732 201.524 107.072 180.529 114.734C156.883 123.365 136.261 138.07 115.731 160.939C118.2 161.124 120.644 161.564 123.021 162.254C123.118 162.288 123.206 162.341 123.282 162.409C123.358 162.477 123.42 162.56 123.464 162.652C123.508 162.744 123.533 162.844 123.538 162.946C123.544 163.048 123.529 163.15 123.495 163.246C123.461 163.342 123.409 163.431 123.34 163.506C123.272 163.582 123.19 163.644 123.098 163.688C123.006 163.732 122.906 163.757 122.804 163.763C122.702 163.768 122.6 163.753 122.504 163.719C120.717 163.093 117.072 162.534 113.987 162.368C113.153 162.337 112.288 162.311 111.398 162.306C104.822 162.244 92.5774 162.125 90.3924 168.923C89.4191 171.952 91.1172 176.172 93.8976 178.579L94.8244 178.434C95.5596 178.32 96.3363 178.196 97.1181 178.092C100.323 177.663 102.073 177.849 102.964 178.719C103.186 178.939 103.355 179.208 103.454 179.505C103.554 179.802 103.583 180.118 103.538 180.428C103.498 180.771 103.378 181.101 103.189 181.39C102.999 181.679 102.745 181.92 102.446 182.095C101.11 182.908 98.8215 182.7 95.7149 181.484C94.9089 181.168 94.1509 180.741 93.4627 180.215H93.4213C89.2793 180.795 81.0366 184.585 79.9596 191.119C79.2451 195.51 82.4448 200.247 84.9663 201.583C87.4318 202.934 90.1771 203.694 92.9863 203.804C93.5041 201.169 95.3681 199.885 96.8385 199.579C97.9051 199.357 98.8163 199.621 99.215 200.268C99.5515 200.767 99.7035 201.368 99.6449 201.967C99.5863 202.566 99.3208 203.126 98.894 203.551C97.9982 204.508 96.4036 205.14 94.3895 205.316C94.3895 207.853 95.8081 210.452 97.2164 212.119C103.43 212.145 110.269 205.078 113.981 201.247C114.287 200.931 114.572 200.636 114.846 200.361C120.743 194.345 122.711 192.522 124.994 190.41C127.888 187.728 131.171 184.683 143.416 172.252C150.618 164.936 160.083 155.233 167.683 147.436C171.121 143.91 174.129 140.824 176.278 138.634C177.355 137.531 178.214 136.651 178.81 136.045C179.172 135.683 179.447 135.403 179.669 135.207C180.187 134.766 180.425 134.746 180.813 135.113C180.943 135.232 181.331 135.683 180.757 136.32C148.262 172.18 145.446 176.922 140.781 184.777C138.259 189.027 135.116 194.319 126.377 206.005C123.612 209.696 121.033 213.005 118.491 216.111C118.433 216.182 118.363 216.242 118.284 216.287C115.455 217.932 112.237 218.792 108.964 218.778C104.822 218.778 100.68 217.426 97.7032 214.812C97.2064 214.38 96.7377 213.916 96.3 213.424C94.6432 211.571 92.8828 208.474 92.8621 205.373C89.8499 205.238 86.9084 204.416 84.2621 202.971C81.2902 201.376 77.6297 196.012 78.4529 190.876ZM96.2948 180.039C99.9191 181.442 101.26 181.018 101.669 180.769C101.766 180.718 101.848 180.644 101.91 180.554C101.971 180.464 102.009 180.36 102.021 180.251C102.052 179.962 101.959 179.863 101.913 179.822C101.731 179.646 101.245 179.418 99.9554 179.418C99.0889 179.43 98.2241 179.5 97.3666 179.625C96.8489 179.692 96.3622 179.765 95.8755 179.842C96.0153 179.92 96.1654 179.982 96.3104 180.039H96.2948ZM97.786 202.494C97.9763 202.326 98.0984 202.094 98.1289 201.842C98.1594 201.59 98.0964 201.336 97.9517 201.127C97.8369 201.074 97.7103 201.051 97.584 201.06C97.2716 201.067 96.9636 201.135 96.6779 201.262C96.1656 201.486 95.7121 201.826 95.3528 202.254C94.9936 202.682 94.7382 203.188 94.6069 203.732C96.124 203.556 97.2372 203.095 97.8015 202.494H97.786Z" fill="#20201B"/>
<path fill-rule="evenodd" clip-rule="evenodd" d="M630.078 291.518C625.097 286.744 617.134 286.288 610.29 289.193C602.005 292.724 597.434 297.244 591.619 303.876C554.248 254.524 507.743 213.062 457.453 177.212C443.96 167.598 430.307 157.884 416.11 149.15C409.602 145.142 402.985 141.347 396.213 137.852C404.554 139.328 413.407 137.733 420.236 132.266C414.841 136.584 400.303 140.421 390.093 134.974C368.186 162.487 340.233 189.183 307.122 202.349C280.892 212.777 252.39 215.138 224.519 213C248.527 220.497 279.743 224.856 308.536 215.185C299.112 235.041 282.099 248.114 262.647 248.114C232.969 248.114 208.872 217.049 208.872 178.807C208.872 140.566 232.969 109.505 262.647 109.505C273.68 109.505 283.797 113.647 292.335 121.02C296.598 120.152 300.791 118.972 304.88 117.489C311.775 114.894 318.439 111.725 324.803 108.014C304.383 104.39 282.13 101.283 260.415 102.081C242.076 102.749 224.131 106.223 207.987 114.548C169.947 134.197 150.143 172.097 125.394 205.156C122.837 208.573 120.217 211.943 117.53 215.236C89.7003 249.263 61.5291 269.352 23.2979 286.687C20.0515 285.209 16.3965 284.889 12.9427 285.781C-2.78156 324.276 15.6092 385.107 56.657 387.883C70.7452 388.659 84.1965 385.226 87.1218 375.726C88.9185 369.88 86.7283 361.746 78.263 350.873C139.876 355.015 193.614 336.894 251.375 308.852C256.09 306.564 260.817 304.251 265.556 301.914C285.444 292.041 305.149 281.401 322.582 267.711C345.25 249.911 378.039 224.287 386.52 194.464C386.93 193.14 387.194 191.776 387.307 190.394L387.566 190.172L388.11 189.685C389.368 201.894 387.002 214.325 384.796 226.306C380.136 251.464 368.927 285.693 350.795 306.253C360.908 307.385 371.006 308.7 381.089 310.198C445.027 319.627 502.037 333.042 553.839 371.568C558.043 377.232 560.191 383.093 566.083 386.516C567.637 387.422 572.126 389.296 573.933 389.41C574.849 389.467 575.74 389.498 576.609 389.493C585.929 388.815 593.695 378.195 598.873 370.776C606.903 359.333 611.967 349.776 618.32 336.676C625.201 322.495 632.988 301.614 630.063 291.518H630.078Z" fill="white" stroke="#20201B" stroke-width="1.03551" stroke-miterlimit="10"/>
<mask id="mask0_215_901" style="mask-type:luminance" maskUnits="userSpaceOnUse" x="7" y="101" width="624" height="289">
<path d="M630.07 291.518C625.09 286.744 617.127 286.289 610.282 289.193C601.998 292.724 597.426 297.244 591.611 303.877C554.24 254.524 507.735 213.062 457.445 177.213C443.952 167.598 430.299 157.885 416.102 149.15C409.594 145.143 402.977 141.348 396.205 137.853C404.546 139.329 413.399 137.734 420.229 132.266C414.834 136.584 400.295 140.421 390.085 134.974C368.179 162.488 340.225 189.183 307.114 202.35C280.885 212.778 252.382 215.139 224.511 213C248.52 220.497 279.735 224.857 308.528 215.185C299.105 235.041 282.091 248.114 262.639 248.114C232.961 248.114 208.865 217.049 208.865 178.808C208.865 140.566 232.961 109.506 262.639 109.506C273.672 109.506 283.789 113.648 292.327 121.021C296.59 120.152 300.783 118.972 304.872 117.49C311.767 114.895 318.432 111.725 324.796 108.015C304.375 104.39 282.122 101.284 260.407 102.081C242.068 102.749 224.123 106.223 207.979 114.549C169.94 134.198 150.135 172.097 125.387 205.156C122.829 208.573 120.209 211.944 117.522 215.237C89.6924 249.264 61.5212 269.353 23.2901 286.687C20.0436 285.21 16.3887 284.89 12.9349 285.781C-2.78937 324.277 15.6014 385.108 56.6492 387.883C70.7374 388.66 84.1887 385.227 87.114 375.726C88.9106 369.881 86.7205 361.747 78.2552 350.874C139.868 355.016 193.606 336.894 251.367 308.853C256.082 306.564 260.809 304.251 265.549 301.915C285.436 292.041 305.142 281.401 322.574 267.712C345.242 249.911 378.031 224.287 386.512 194.465C386.923 193.141 387.187 191.776 387.299 190.395L387.558 190.172L388.102 189.686C389.36 201.894 386.994 214.326 384.788 226.307C380.128 251.464 368.919 285.693 350.787 306.253C360.901 307.386 370.999 308.701 381.081 310.199C445.019 319.627 502.029 333.042 553.831 371.569C558.035 377.233 560.184 383.094 566.076 386.516C567.629 387.422 572.118 389.296 573.925 389.41C574.841 389.467 575.732 389.498 576.602 389.493C585.921 388.815 593.688 378.196 598.865 370.776C606.896 359.334 611.959 349.776 618.312 336.677C625.193 322.495 632.98 301.614 630.055 291.518H630.07Z" fill="white"/>
</mask>
<g mask="url(#mask0_215_901)">
<path fill-rule="evenodd" clip-rule="evenodd" d="M539.432 229.506C539.409 229.3 539.305 229.111 539.143 228.982C538.981 228.853 538.774 228.794 538.568 228.817C538.362 228.84 538.174 228.945 538.044 229.107C537.915 229.269 537.856 229.476 537.879 229.682C543.523 279.666 523.014 336.8 477.038 359.639C476.853 359.73 476.712 359.891 476.646 360.086C476.58 360.281 476.594 360.495 476.685 360.679C476.777 360.864 476.938 361.005 477.133 361.071C477.328 361.137 477.541 361.123 477.726 361.031C524.273 337.898 545.133 280.101 539.422 229.521L539.432 229.506Z" fill="#20201B"/>
<path fill-rule="evenodd" clip-rule="evenodd" d="M166.811 349.274C167.008 349.331 167.221 349.308 167.401 349.209C167.582 349.11 167.716 348.943 167.774 348.745C167.831 348.548 167.808 348.335 167.709 348.155C167.61 347.974 167.443 347.84 167.245 347.782C109.355 330.955 72.5529 291.673 67.8983 252.085C67.8742 251.879 67.7693 251.691 67.6067 251.563C67.4441 251.434 67.237 251.375 67.031 251.399C66.825 251.423 66.637 251.528 66.5084 251.691C66.3797 251.854 66.321 252.061 66.345 252.267C71.0566 292.346 108.195 332.239 166.79 349.274H166.811Z" fill="#20201B"/>
</g>
<path fill-rule="evenodd" clip-rule="evenodd" d="M388.129 189.701L387.585 190.187C381.185 221.843 346.33 249.077 322.57 267.742C305.137 281.432 285.431 292.077 265.544 301.945H266.58C294.767 301.469 322.855 303.121 350.819 306.243C368.94 285.683 380.186 251.454 384.82 226.296C387.026 214.315 389.392 201.884 388.134 189.675L388.129 189.701Z" fill="#20201B"/>
<path fill-rule="evenodd" clip-rule="evenodd" d="M87.112 375.752C88.9086 369.906 86.7185 361.772 78.2532 350.899C67.3068 350.155 56.4145 348.758 45.6345 346.716C67.6392 352.862 78.3205 364.925 87.1276 375.762L87.112 375.752Z" fill="#20201B"/>
<path fill-rule="evenodd" clip-rule="evenodd" d="M600.091 316.764C600.212 316.927 600.392 317.036 600.592 317.068C600.793 317.101 600.998 317.053 601.164 316.936C601.329 316.819 601.443 316.642 601.479 316.442C601.516 316.243 601.473 316.036 601.36 315.868C598.381 311.657 595.34 307.503 592.237 303.406C592.177 303.32 592.101 303.248 592.012 303.193C591.923 303.137 591.825 303.101 591.722 303.085C591.618 303.068 591.513 303.073 591.412 303.099C591.311 303.124 591.216 303.17 591.132 303.233C591.049 303.296 590.98 303.375 590.928 303.465C590.876 303.556 590.843 303.656 590.83 303.76C590.818 303.863 590.826 303.968 590.856 304.068C590.885 304.169 590.934 304.262 591 304.343C594.106 308.426 597.137 312.568 600.091 316.769V316.764Z" fill="#20201B"/>
<path fill-rule="evenodd" clip-rule="evenodd" d="M12.9264 285.807C9.07425 286.873 5.60533 289.716 3.91744 295.095C-4.80677 322.863 0.262054 360.597 26.999 379.179C34.0612 384.087 45.5503 387.297 56.6406 387.908C15.5928 385.133 -2.79792 324.302 12.9264 285.807Z" fill="#20201B"/>
<path fill-rule="evenodd" clip-rule="evenodd" d="M630.077 291.518C633.003 301.615 625.216 322.496 618.335 336.677C611.982 349.776 606.918 359.334 598.888 370.777C593.679 378.196 585.944 388.815 576.624 389.493C593.819 389.447 603.03 377.72 612.587 363.129C615.948 358.009 618.956 351.645 621.581 346.105C624.206 340.565 627.25 334.171 629.503 328.502C632.267 321.574 634.483 314.004 634.939 306.352C635.066 303.206 634.64 300.062 633.681 297.063C632.921 294.961 631.694 293.058 630.093 291.498L630.077 291.518Z" fill="#20201B"/>
<path fill-rule="evenodd" clip-rule="evenodd" d="M291.118 38.9349C291.086 38.729 290.973 38.5442 290.805 38.4214C290.636 38.2986 290.426 38.2477 290.22 38.28C290.014 38.3123 289.829 38.425 289.707 38.5935C289.584 38.762 289.533 38.9723 289.565 39.1783C289.774 40.551 289.914 41.9335 289.985 43.3203C289.99 43.4223 290.016 43.5222 290.061 43.6142C290.105 43.7062 290.167 43.7886 290.243 43.8566C290.319 43.9246 290.408 43.977 290.505 44.0107C290.601 44.0444 290.703 44.0588 290.805 44.053C290.907 44.0472 291.007 44.0214 291.099 43.977C291.191 43.9326 291.273 43.8706 291.341 43.7944C291.41 43.7182 291.462 43.6293 291.496 43.5329C291.529 43.4364 291.544 43.3343 291.538 43.2323C291.463 41.7899 291.317 40.3522 291.098 38.9246L291.118 38.9349Z" fill="#20201B"/>
<path fill-rule="evenodd" clip-rule="evenodd" d="M280.274 39.0592C280.247 38.8551 280.141 38.6699 279.978 38.5439C279.815 38.4178 279.609 38.3612 279.404 38.3861C279.201 38.412 279.016 38.5175 278.889 38.6795C278.763 38.8416 278.706 39.047 278.731 39.2508C278.913 40.7109 279.135 42.1606 279.249 43.6258C279.257 43.7278 279.285 43.8273 279.331 43.9185C279.377 44.0098 279.441 44.091 279.519 44.1576C279.596 44.2242 279.686 44.2748 279.784 44.3066C279.881 44.3384 279.983 44.3508 280.085 44.3429C280.187 44.3351 280.287 44.3073 280.378 44.261C280.469 44.2148 280.55 44.151 280.617 44.0734C280.684 43.9957 280.734 43.9057 280.766 43.8085C280.798 43.7113 280.81 43.6088 280.802 43.5068C280.689 42.0156 280.461 40.54 280.285 39.0592H280.274Z" fill="#20201B"/>
<path fill-rule="evenodd" clip-rule="evenodd" d="M289.871 63.6894C290.039 63.5693 290.151 63.3875 290.185 63.1841C290.218 62.9807 290.17 62.7723 290.05 62.6047C289.929 62.4372 289.748 62.3243 289.544 62.2908C289.341 62.2573 289.132 62.306 288.965 62.4261C285.563 64.8648 280.826 64.6059 278.009 61.3285C276.663 59.7752 276.161 58.2737 275.798 56.3425C275.761 56.1399 275.644 55.9607 275.474 55.8442C275.304 55.7276 275.095 55.6834 274.892 55.7212C274.69 55.7589 274.511 55.8756 274.394 56.0455C274.277 56.2155 274.233 56.4247 274.271 56.6272C274.685 58.8432 275.307 60.5467 276.834 62.3226C280.184 66.2213 285.817 66.5733 289.871 63.6687V63.6894Z" fill="#20201B"/>
<path fill-rule="evenodd" clip-rule="evenodd" d="M228.925 51.4599C229.487 51.815 230.095 52.0903 230.732 52.278C235.155 53.5778 239.873 53.4601 244.225 51.9415C244.958 51.6551 245.666 51.3087 246.343 50.9059C250.868 48.488 261.917 39.1891 265.862 35.891C267.871 34.2031 269.549 32.743 270.972 31.459C273.649 29.0462 275.451 27.2393 276.937 25.6705C278.195 24.3398 279.22 23.1852 280.354 21.9737C280.691 21.6112 281.043 21.2436 281.39 20.8709H281.343C282.016 20.0994 283.414 18.5668 284.082 17.8109C284.75 17.055 285.635 16.1852 286.412 15.4137C289.581 12.333 293.101 9.71836 297.575 8.2531C298.963 7.82451 300.409 7.6149 301.862 7.63181C310.073 7.63181 314.169 14.1348 312.999 22.0254C311.808 30.0818 305.942 36.8126 300.205 42.3215C300.971 47.5405 301.018 52.9925 301.116 58.0044C301.24 64.2848 301.116 70.9121 298.455 76.6437C294.831 84.5498 289.808 87.5839 285.19 88.7695C279.965 90.0338 274.484 89.7331 269.429 87.9049C264.062 86.0677 259.361 82.6759 255.926 78.1607C251.808 72.6765 248.852 66.4099 247.238 59.7441C241.165 59.3765 232.653 55.9851 228.925 51.4599ZM257.184 77.1821C260.44 81.456 264.891 84.6671 269.973 86.4086C274.739 88.1377 279.91 88.424 284.838 87.2318C289.109 86.1341 293.702 83.2865 297.078 75.9602C299.625 70.4358 299.713 64.0518 299.599 57.9992C299.485 51.9466 299.449 45.0863 298.046 38.8992C296.658 32.8517 293.904 27.3842 288.39 23.7548C287.328 23.061 286.288 22.4552 283.502 21.8701L282.751 21.72C282.7 21.7769 282.648 21.8339 282.591 21.8857C279.521 25.0388 277.755 27.4308 272.142 32.4997C265.111 41.6847 257.925 50.4814 248.243 56.9792C249.652 64.303 252.71 71.2099 257.184 77.177V77.1821Z" fill="#20201B"/>
<path fill-rule="evenodd" clip-rule="evenodd" d="M243.515 41.6845C243.619 41.5033 244.209 41.6845 242.998 40.3487C240.6 37.7189 238.803 34.5989 237.732 31.2051C236.645 31.9714 235.598 32.7922 234.594 33.6644C236.425 37.39 239.625 40.2636 243.526 41.6845H243.515Z" fill="#20201B"/>
<path fill-rule="evenodd" clip-rule="evenodd" d="M281.376 20.8289C282.05 20.0574 283.447 18.5249 284.115 17.7689C284.783 17.013 285.669 16.1432 286.445 15.3717C285.539 12.6328 284.146 9.42787 282.236 7.22741C271.021 -5.71652 247.443 1.83237 239.195 14.709C236.249 19.3067 236.088 25.6233 237.719 31.2047C238.511 33.8712 240.474 38.0909 243.461 40.8764C239.837 39.639 236.213 37.2521 234.582 33.6641C232.05 35.8526 229.995 38.5384 228.545 41.5547C226.872 45.091 227.11 48.8395 228.928 51.4439C229.639 52.1873 230.389 52.8925 231.175 53.5563C231.74 53.9042 232.347 54.1791 232.982 54.3744C236.715 55.5445 241.266 54.1103 244.611 52.6192C245.329 52.2947 246.033 51.9495 246.723 51.5837C251.279 49.1502 255.157 45.7951 259.071 42.3935C265.435 36.8793 271.839 31.3652 277.545 25.1573C278.85 23.7387 280.134 22.2786 281.376 20.8341V20.8289Z" fill="white" stroke="#20201B" stroke-width="1.03551" stroke-miterlimit="10"/>
<path d="M223.756 212.855C223.792 212.668 223.896 212.501 224.048 212.385C224.2 212.27 224.389 212.214 224.579 212.229C252.331 214.357 280.709 212.011 306.835 201.625C339.537 188.624 367.174 162.358 388.915 135.197C386.294 133.65 384.082 131.499 382.464 128.922C382.353 128.747 382.317 128.536 382.362 128.335C382.407 128.133 382.53 127.958 382.705 127.847C382.879 127.737 383.09 127.7 383.292 127.745C383.493 127.79 383.668 127.914 383.779 128.088C385.419 130.709 387.721 132.852 390.453 134.301C400.378 139.593 414.508 135.854 419.747 131.671C423.004 129.082 425.608 124.692 426.546 120.151C427.467 115.703 426.784 111.08 423.439 107.875C422.413 106.916 421.253 106.11 419.996 105.483C416.258 109.573 410.676 113.342 405.017 111.856C402.392 111.168 401.315 110.013 401.082 108.89C400.849 107.766 401.403 106.575 402.46 105.493C403.933 104.046 405.753 102.999 407.746 102.454C411.709 101.575 415.848 101.964 419.577 103.567L419.851 103.241C427.555 93.8333 429.906 77.5913 420.441 68.5098C416.014 64.2642 410.086 63.1199 404.189 63.85C398.22 64.6653 392.559 66.995 387.745 70.6171C385.097 72.5669 382.762 74.9101 380.823 77.5654C381.138 79.4345 381.521 82.3702 381.164 83.9183C381.004 84.6172 380.729 85.4249 379.989 85.544C379.939 85.5505 379.889 85.5505 379.839 85.544C379.633 85.5374 379.433 85.4752 379.26 85.364C379.086 85.2528 378.947 85.0967 378.855 84.9123C378.094 83.6542 377.856 80.0092 379.145 77.2547C378.705 74.3967 376.479 71.5594 373.724 71.0157C370.618 70.4203 367.832 71.5697 365.404 73.6045C362.421 76.0691 359.978 79.8176 358.155 83.4419C359.191 82.6031 360.226 81.7747 361.262 80.9256C361.339 80.8556 361.431 80.802 361.53 80.7681C361.629 80.7342 361.734 80.7207 361.838 80.7284C361.943 80.736 362.045 80.7648 362.138 80.8129C362.231 80.8609 362.313 80.9273 362.38 81.008C362.446 81.0887 362.496 81.1821 362.526 81.2825C362.556 81.3829 362.565 81.4883 362.553 81.5924C362.541 81.6964 362.508 81.7969 362.456 81.8879C362.404 81.9788 362.334 82.0583 362.251 82.1216C360.117 83.8924 357.896 85.5647 355.836 87.4235C355.74 87.5063 355.627 87.5649 355.504 87.5943C345.874 95.1173 335.933 102.459 325.324 108.584L325.148 108.688C318.745 112.418 312.041 115.605 305.106 118.214C301.13 119.661 297.055 120.82 292.913 121.683C287.533 122.823 281.656 123.703 276.189 124.593C274.522 124.862 272.849 125.142 271.177 125.442C270.979 125.469 270.778 125.419 270.616 125.301C270.454 125.183 270.344 125.007 270.308 124.81C270.273 124.613 270.315 124.41 270.426 124.243C270.536 124.076 270.707 123.959 270.903 123.915C272.585 123.61 274.263 123.33 275.94 123.061C281.382 122.175 287.233 121.295 292.586 120.166C296.658 119.32 300.664 118.181 304.572 116.76C311.427 114.18 318.054 111.029 324.382 107.342L324.553 107.238C335.451 100.968 345.615 93.3984 355.452 85.6942C357.384 81.0913 360.469 75.6807 364.435 72.3982C367.231 70.0838 370.467 68.8205 374.035 69.5039C376.929 70.0579 379.388 72.6777 380.357 75.6134C382.236 73.2782 384.404 71.1906 386.808 69.4003C391.838 65.6083 397.756 63.1697 403.997 62.3174C410.366 61.5356 416.739 62.8352 421.513 67.407C431.547 77.0373 429.217 94.2631 421.052 104.24L421.016 104.282C422.278 104.947 423.445 105.78 424.485 106.757C427.509 109.635 428.627 113.518 428.451 117.516C428.156 123.397 424.941 129.512 420.721 132.888C415.274 137.247 400.761 141.136 390.297 135.994C369.799 161.639 344.057 186.507 313.804 200.367C312.547 205.482 310.781 210.458 308.533 215.221L307.726 215.48C307.756 215.578 307.767 215.681 307.757 215.783C307.747 215.885 307.717 215.984 307.669 216.075C307.621 216.165 307.556 216.245 307.476 216.31C307.397 216.375 307.306 216.424 307.208 216.454C278.685 225.514 247.982 221.17 224.268 213.767C224.084 213.707 223.929 213.58 223.834 213.411C223.739 213.242 223.711 213.044 223.756 212.855ZM408.108 103.966C406.391 104.423 404.82 105.315 403.547 106.555C402.905 107.212 402.444 107.89 402.579 108.553C402.68 108.907 402.906 109.213 403.216 109.413C403.877 109.849 404.612 110.161 405.385 110.334C410.314 111.629 415.119 108.346 418.484 104.784C415.186 103.476 411.571 103.191 408.108 103.966Z" fill="#20201B"/>
</g>
<defs>
<clipPath id="clip0_215_901">
<rect width="634.951" height="390.011" fill="white" transform="matrix(-1 0 0 1 634.953 0)"/>
</clipPath>
</defs>
</svg>
