<svg width="580" height="570" viewBox="0 0 580 570" fill="none" xmlns="http://www.w3.org/2000/svg">
<path d="M226.476 80.7703C243.033 18.9919 336.125 18.9919 352.681 80.7703C362.619 117.851 405.718 137.421 442.661 121.627C504.21 95.314 562.252 163.939 521.349 214.662C496.798 245.108 507.442 289.081 543.572 306.467C603.766 335.433 583.051 421.008 515.489 422.48C474.936 423.364 445.111 458.628 453.221 496.102C466.732 558.535 382.859 596.62 339.514 547.732C313.497 518.389 265.661 518.389 239.644 547.732C196.299 596.62 112.425 558.535 125.937 496.102C134.047 458.628 104.221 423.364 63.6691 422.48C-3.89319 421.008 -24.6082 335.433 35.5858 306.467C71.7156 289.081 82.3602 245.108 57.809 214.662C16.9054 163.939 74.9475 95.314 136.497 121.627C173.44 137.421 216.539 117.851 226.476 80.7703Z" fill="white"/>
<mask id="mask0_129_1703" style="mask-type:alpha" maskUnits="userSpaceOnUse" x="3" y="34" width="574" height="524">
<path d="M227.215 79.7207C243.594 19.3418 335.686 19.3418 352.065 79.7207C361.896 115.961 404.532 135.088 441.078 119.652C501.966 93.9349 559.385 161.005 518.921 210.579C494.633 240.335 505.163 283.312 540.905 300.304C600.452 328.615 579.96 412.25 513.123 413.689C473.007 414.553 443.501 449.018 451.524 485.643C464.891 546.662 381.919 583.884 339.039 536.104C313.302 507.426 265.979 507.426 240.242 536.104C197.362 583.884 114.39 546.662 127.756 485.643C135.779 449.018 106.274 414.553 66.157 413.689C-0.679501 412.25 -21.172 328.615 38.3754 300.304C74.1171 283.312 84.6474 240.335 60.3599 210.58C19.8957 161.005 77.3143 93.9349 138.202 119.652C174.749 135.088 217.385 115.961 227.215 79.7207Z" fill="#D9D9D9"/>
</mask>
<g mask="url(#mask0_129_1703)">
<path d="M638.34 326.644C638.34 432.106 429.727 632.023 304.295 632.023C178.863 632.023 -42.1757 476.76 48.9012 360.823C143.459 240.455 447.457 253.829 513.736 120.087C639.168 120.087 638.34 221.183 638.34 326.644Z" fill="white"/>
<g filter="url(#filter0_f_129_1703)">
<path d="M329.212 260.869C329.212 335.902 263.915 396.729 183.366 396.729C102.817 396.729 37.5195 335.902 37.5195 260.869C37.5195 185.836 102.817 125.009 183.366 125.009C263.915 125.009 329.212 185.836 329.212 260.869Z" fill="#FD0055"/>
</g>
<g filter="url(#filter1_f_129_1703)">
<path fill-rule="evenodd" clip-rule="evenodd" d="M183.366 394.012C262.304 394.012 326.295 334.402 326.295 260.869C326.295 187.336 262.304 127.726 183.366 127.726C104.428 127.726 40.4365 187.336 40.4365 260.869C40.4365 334.402 104.428 394.012 183.366 394.012ZM183.366 396.729C263.915 396.729 329.212 335.902 329.212 260.869C329.212 185.836 263.915 125.009 183.366 125.009C102.817 125.009 37.5195 185.836 37.5195 260.869C37.5195 335.902 102.817 396.729 183.366 396.729Z" fill="#FAE604"/>
</g>
<g filter="url(#filter2_f_129_1703)">
<path d="M495.664 387.377C495.664 469.751 422.796 536.527 332.908 536.527C243.021 536.527 170.152 469.751 170.152 387.377C170.152 305.004 243.021 238.227 332.908 238.227C422.796 238.227 495.664 305.004 495.664 387.377Z" fill="#FAE604"/>
</g>
<g filter="url(#filter3_f_129_1703)">
<path fill-rule="evenodd" clip-rule="evenodd" d="M332.908 534.549C421.656 534.549 493.54 468.627 493.54 387.377C493.54 306.127 421.656 240.205 332.908 240.205C244.161 240.205 172.277 306.127 172.277 387.377C172.277 468.627 244.161 534.549 332.908 534.549ZM332.908 536.527C422.796 536.527 495.664 469.751 495.664 387.377C495.664 305.004 422.796 238.227 332.908 238.227C243.021 238.227 170.152 305.004 170.152 387.377C170.152 469.751 243.021 536.527 332.908 536.527Z" fill="#FAE604"/>
</g>
<g opacity="0.7" filter="url(#filter4_f_129_1703)">
<path d="M430.141 155.529C430.141 222.406 357.273 276.621 267.385 276.621C177.497 276.621 104.629 222.406 104.629 155.529C104.629 88.6515 177.497 34.4365 267.385 34.4365C357.273 34.4365 430.141 88.6515 430.141 155.529Z" fill="#9C4FFE"/>
</g>
<g opacity="0.7" filter="url(#filter5_f_129_1703)">
<path fill-rule="evenodd" clip-rule="evenodd" d="M267.385 274.643C356.57 274.643 428.017 220.922 428.017 155.529C428.017 90.1362 356.57 36.4154 267.385 36.4154C178.2 36.4154 106.753 90.1362 106.753 155.529C106.753 220.922 178.2 274.643 267.385 274.643ZM267.385 276.621C357.273 276.621 430.141 222.406 430.141 155.529C430.141 88.6515 357.273 34.4365 267.385 34.4365C177.497 34.4365 104.629 88.6515 104.629 155.529C104.629 222.406 177.497 276.621 267.385 276.621Z" fill="#FAE604"/>
</g>
<g opacity="0.7" filter="url(#filter6_f_129_1703)">
<path d="M560.587 172.063C560.587 238.908 510.156 293.097 447.946 293.097C385.736 293.097 335.305 238.908 335.305 172.063C335.305 105.218 385.736 51.0298 447.946 51.0298C510.156 51.0298 560.587 105.218 560.587 172.063Z" fill="#4AE5E8"/>
</g>
<g opacity="0.7" filter="url(#filter7_f_129_1703)">
<path fill-rule="evenodd" clip-rule="evenodd" d="M447.946 291.118C508.708 291.118 558.463 238.09 558.463 172.063C558.463 106.036 508.708 53.0086 447.946 53.0086C387.184 53.0086 337.429 106.036 337.429 172.063C337.429 238.09 387.184 291.118 447.946 291.118ZM447.946 293.097C510.156 293.097 560.587 238.908 560.587 172.063C560.587 105.218 510.156 51.0298 447.946 51.0298C385.736 51.0298 335.305 105.218 335.305 172.063C335.305 238.908 385.736 293.097 447.946 293.097Z" fill="#FAE604"/>
</g>
</g>
<g clip-path="url(#clip0_129_1703)">
<path fill-rule="evenodd" clip-rule="evenodd" d="M409.096 457.035C411.034 454.206 413.209 451.545 415.596 449.083C427.938 436.28 445.105 426.466 463.311 421.069C443.901 431.259 423.824 444.926 414.101 464.935L415.024 466.409C415.202 466.31 415.411 466.283 415.609 466.335C415.806 466.386 415.976 466.511 416.084 466.684C416.116 466.732 428.935 486.942 431.936 491.501C432 491.588 432.046 491.687 432.071 491.792C432.096 491.897 432.099 492.007 432.08 492.113C432.062 492.22 432.021 492.321 431.962 492.411C431.903 492.502 431.825 492.579 431.735 492.639C431.645 492.698 431.544 492.739 431.437 492.758C431.331 492.777 431.221 492.774 431.116 492.749C431.011 492.725 430.912 492.679 430.825 492.615C430.738 492.55 430.665 492.469 430.61 492.376C429.295 490.382 426.109 485.399 422.934 480.415C422.038 489.285 418.533 493.754 415.798 497.428C414.059 499.771 412.617 501.754 412.617 504.532C412.617 505.736 412.617 506.876 412.691 507.962C412.765 509.553 412.898 510.99 413.094 512.331C415.395 516.737 420.808 519.589 427.896 519.817C447.676 520.453 491.388 520.511 515.674 520.061C529.114 519.811 536.409 503.435 552.457 504.474C549.721 501.07 545.931 498.807 541.854 496.898C537.422 494.83 532.645 493.187 528.441 491.008C525.154 489.311 520.806 487.795 516.995 485.447C514.536 484.01 512.412 482.065 510.765 479.742C511.076 481.838 511.382 483.925 511.682 486.003C511.71 486.212 511.654 486.424 511.527 486.592C511.4 486.761 511.212 486.873 511.004 486.905C510.901 486.919 510.796 486.914 510.695 486.888C510.594 486.862 510.499 486.817 510.416 486.754C510.332 486.692 510.262 486.613 510.21 486.523C510.157 486.434 510.122 486.334 510.108 486.231C508.987 478.349 507.71 470.379 506.275 462.321C506.238 462.114 506.284 461.901 506.403 461.729C506.522 461.556 506.705 461.437 506.911 461.398C504.26 446.75 501.079 431.89 497.294 417.003C510.018 418.657 519.396 425.077 522.211 433.438C522.471 434.562 522.742 435.68 522.98 436.799C523.918 444.524 519.534 453.451 507.685 461.717C507.751 461.81 507.797 461.917 507.818 462.029C508.524 465.917 509.184 469.805 509.795 473.693C509.903 473.798 509.977 473.933 510.007 474.08C511.067 478.851 514.195 481.868 517.811 484.1C521.58 486.427 525.891 487.922 529.146 489.598C533.334 491.755 538.095 493.399 542.506 495.467C547.055 497.587 551.243 500.158 554.169 504.092C556.714 507.517 558.305 511.981 558.305 518.11C558.305 520.851 557.668 522.807 556.497 524.222C555.325 525.638 553.602 526.529 551.333 527.048C548.529 527.695 544.849 527.785 540.385 527.785H433.881C425.637 527.785 420.155 526.55 416.63 523.512C413.104 520.474 411.445 515.56 411.095 508.042C411.042 506.936 411.016 505.768 411.016 504.538C411.016 501.404 412.542 499.13 414.509 496.484C416.476 493.839 418.941 490.653 420.341 485.563C410.994 485.091 405.995 481.386 404.108 477.054C403.906 476.418 403.699 475.771 403.487 475.124C402.358 469.961 404.776 463.392 409.075 457.056" fill="white"/>
<path fill-rule="evenodd" clip-rule="evenodd" d="M100.369 359.316C101.355 348.347 103.311 333.168 107.049 323.143C108.549 319.119 110.23 314.888 112.88 311.278C117.434 305.075 124.125 302.127 132.263 302.742C139.797 303.315 146.466 303.946 152.16 307.949C155.871 310.562 159.2 314.618 162.053 321.059C164.636 321.017 167.214 320.813 169.772 320.45C169.983 320.418 170.198 320.472 170.369 320.598C170.541 320.725 170.655 320.915 170.686 321.126C170.718 321.337 170.665 321.551 170.538 321.723C170.411 321.894 170.221 322.009 170.01 322.04C167.212 322.433 164.391 322.647 161.565 322.682C158.077 322.767 154.334 322.682 150.315 322.422C150.104 322.409 149.907 322.313 149.767 322.155C149.626 321.997 149.555 321.79 149.567 321.579C149.58 321.368 149.676 321.171 149.834 321.031C149.992 320.89 150.2 320.819 150.41 320.831C153.936 321.038 157.234 321.134 160.34 321.097C157.69 315.344 154.673 311.654 151.264 309.258C145.819 305.436 139.425 304.895 132.226 304.344C108.247 305.87 105.829 354.502 104.801 375.279L104.7 377.209C104.371 383.677 103.682 397.137 108.061 401.289C108.549 401.757 109.136 402.108 109.779 402.317C110.421 402.525 111.103 402.585 111.772 402.492C129.798 400.621 138.397 407.184 141.048 411.775C145.225 406.15 147.601 398.452 149.663 392.249C145.687 389.111 141.265 385.665 138.89 383.974C138.729 383.847 138.623 383.664 138.594 383.461C138.565 383.259 138.615 383.053 138.733 382.886C138.852 382.72 139.031 382.605 139.232 382.567C139.433 382.528 139.641 382.569 139.813 382.68C142.076 384.27 146.174 387.488 150.018 390.505C147.367 369.892 153.607 344.641 165.562 327.183C162.487 332.378 160.505 338.565 159.057 344.148C154.917 360.01 155.744 380.697 158.591 397.694L158.654 398.055L154.758 395.266L151.259 392.493C148.995 399.274 146.355 407.868 141.509 413.779C138.042 418.02 133.991 420.284 129.124 420.761C128.536 420.82 127.932 420.846 127.311 420.846C121.241 420.846 113.766 418.169 109.53 414.336C102.288 407.783 99.2393 400.642 99.022 389.689C98.9 383.56 99.2659 371.441 100.369 359.316Z" fill="black"/>
<path fill-rule="evenodd" clip-rule="evenodd" d="M497.274 416.987C509.998 418.641 519.376 425.061 522.191 433.422C504.134 356.246 456.452 281.865 407.147 232.491C369.574 189.712 320.921 159.064 259.025 151.127C261.983 153.389 264.894 155.715 267.757 158.104C278.948 161.174 287.553 167.748 294.875 177.089C317.799 206.359 309.369 267.285 274.453 284.712C238.264 302.737 213.484 254.058 219.931 229.241C214.841 224.581 210.293 220.695 204.715 215.855C204.715 249.488 203.3 272.677 199.626 288.783C195.681 299.243 188.455 312.317 177.81 316.431C174.914 317.393 172.289 319.028 170.149 321.203C164.285 326.981 161.136 336.206 159.053 344.148C154.912 360.01 155.739 380.697 158.586 397.694C159.696 404.691 161.379 411.585 163.617 418.307C165.69 424.25 169.163 428.189 173.007 430.161L174.597 430.85C200.183 441.841 239.754 447.259 267.195 442.349C300.367 438.559 324.659 416.069 346.719 387.075C366.133 397.281 391.39 424.441 403.547 475.082C402.418 469.918 404.835 463.349 409.135 457.014C411.073 454.184 413.247 451.524 415.634 449.061C433.061 430.978 460.125 418.842 486.146 416.722C489.865 416.407 493.608 416.486 497.311 416.955L497.274 416.987Z" fill="white"/>
<mask id="mask1_129_1703" style="mask-type:luminance" maskUnits="userSpaceOnUse" x="156" y="151" width="367" height="325">
<path d="M497.27 416.986C509.994 418.64 519.372 425.06 522.188 433.421C504.13 356.246 456.448 281.864 407.143 232.491C369.57 189.712 320.917 159.063 259.021 151.127C261.979 153.389 264.89 155.715 267.753 158.104C278.945 161.173 287.549 167.747 294.871 177.089C317.795 206.359 309.365 267.285 274.449 284.711C238.26 302.737 213.48 254.057 219.927 229.241C214.838 224.581 210.289 220.695 204.711 215.854C204.711 249.487 203.296 272.677 199.622 288.783C195.678 299.243 188.451 312.317 177.806 316.431C174.911 317.392 172.285 319.028 170.145 321.202C164.281 326.981 161.132 336.206 159.049 344.148C154.908 360.01 155.735 380.697 158.582 397.694C159.693 404.691 161.375 411.585 163.613 418.306C165.686 424.249 169.159 428.188 173.003 430.161L174.593 430.85C200.179 441.84 239.75 447.258 267.191 442.349C300.363 438.558 324.655 416.069 346.715 387.075C366.129 397.28 391.386 424.44 403.543 475.081C402.414 469.917 404.831 463.349 409.131 457.013C411.069 454.184 413.243 451.523 415.631 449.061C433.057 430.977 460.122 418.842 486.142 416.721C489.861 416.407 493.604 416.485 497.307 416.954L497.27 416.986Z" fill="white"/>
</mask>
<g mask="url(#mask1_129_1703)">
<path fill-rule="evenodd" clip-rule="evenodd" d="M192.934 303.734C193.592 302.835 193.87 301.714 193.708 300.612C193.547 299.511 192.959 298.517 192.07 297.845C191.182 297.173 190.065 296.878 188.961 297.022C187.857 297.167 186.854 297.74 186.169 298.618C172.978 316.055 164.867 355.875 169.066 390.685C171.929 414.442 180.581 435.749 196.443 446.554C197.373 447.146 198.497 447.354 199.577 447.132C200.658 446.91 201.609 446.276 202.229 445.364C202.85 444.453 203.091 443.335 202.902 442.249C202.712 441.162 202.107 440.193 201.215 439.545C187.134 429.949 180.008 410.757 177.485 389.673C173.572 357.216 180.629 319.994 192.928 303.734H192.934Z" fill="white" stroke="black" stroke-width="1.06032" stroke-miterlimit="10"/>
<path fill-rule="evenodd" clip-rule="evenodd" d="M518.425 416.207C519.216 417.007 520.292 417.46 521.417 417.467C522.542 417.473 523.624 417.032 524.424 416.241C525.224 415.451 525.677 414.374 525.684 413.249C525.69 412.124 525.249 411.043 524.458 410.243C511.909 397.556 489.68 393.633 465.881 398.224C431.246 404.904 393.45 429.371 379.465 467.951C379.227 468.482 379.102 469.057 379.097 469.64C379.091 470.222 379.206 470.799 379.434 471.336C379.661 471.872 379.996 472.355 380.419 472.756C380.842 473.157 381.342 473.466 381.89 473.665C382.437 473.864 383.019 473.948 383.601 473.912C384.182 473.876 384.75 473.721 385.268 473.456C385.787 473.191 386.245 472.821 386.615 472.371C386.985 471.921 387.258 471.4 387.417 470.84C400.348 435.171 435.439 412.729 467.471 406.553C488.105 402.571 507.53 405.211 518.409 416.207H518.425Z" fill="white" stroke="black" stroke-width="1.06032" stroke-miterlimit="10"/>
<path fill-rule="evenodd" clip-rule="evenodd" d="M346.044 386.603C347.638 384.503 349.228 382.374 350.815 380.214C368.008 356.596 382.683 331.148 393.509 303.967C399.235 289.6 404.643 275.466 408.916 260.595C408.981 260.4 409.119 260.239 409.3 260.143C409.482 260.048 409.693 260.027 409.89 260.083C410.087 260.14 410.254 260.271 410.357 260.448C410.46 260.625 410.491 260.835 410.443 261.035C406.127 275.959 400.73 290.14 394.988 304.555C389.679 317.818 383.505 330.718 376.507 343.172C370.999 360.275 364.949 377.574 356.827 393.649C353.855 391.343 350.705 389.276 347.406 387.467L347.332 387.563C347.271 387.65 347.192 387.724 347.102 387.781C347.011 387.837 346.91 387.875 346.804 387.891C346.699 387.908 346.591 387.903 346.487 387.877C346.384 387.851 346.286 387.804 346.201 387.74C346.116 387.675 346.045 387.594 345.992 387.501C345.938 387.409 345.904 387.306 345.892 387.2C345.879 387.094 345.888 386.986 345.918 386.884C345.947 386.781 345.998 386.686 346.065 386.603H346.044Z" fill="black"/>
</g>
<path fill-rule="evenodd" clip-rule="evenodd" d="M497.274 416.987C509.998 418.641 519.376 425.061 522.191 433.422C504.134 356.246 456.452 281.865 407.147 232.491C369.574 189.712 320.921 159.064 259.025 151.127C261.983 153.389 264.894 155.715 267.757 158.104C278.948 161.174 287.553 167.748 294.875 177.089C317.799 206.359 309.369 267.285 274.453 284.712C238.264 302.737 213.484 254.058 219.931 229.241C214.841 224.581 210.293 220.695 204.715 215.855C204.715 249.488 203.3 272.677 199.626 288.783C195.681 299.243 188.455 312.317 177.81 316.431C174.914 317.393 172.289 319.028 170.149 321.203C164.285 326.981 161.136 336.206 159.053 344.148C154.912 360.01 155.739 380.697 158.586 397.694C159.696 404.691 161.379 411.585 163.617 418.307C165.69 424.25 169.163 428.189 173.007 430.161L174.597 430.85C200.183 441.841 239.754 447.259 267.195 442.349C300.367 438.559 324.659 416.069 346.719 387.075C366.133 397.281 391.39 424.441 403.547 475.082C402.418 469.918 404.835 463.349 409.135 457.014C411.073 454.184 413.247 451.524 415.634 449.061C433.061 430.978 460.125 418.842 486.146 416.722C489.865 416.407 493.608 416.486 497.311 416.955L497.274 416.987Z" stroke="black" stroke-width="1.06032" stroke-miterlimit="10"/>
<path fill-rule="evenodd" clip-rule="evenodd" d="M107.027 132.407C108.935 129.757 111.416 127.435 114.449 126.178C118.802 124.376 124.252 124.763 129.293 125.86C123.695 120.744 118.764 114.573 116.273 107.32C114.624 102.522 114.878 96.8549 119.591 93.8542C122.195 92.2001 125.37 91.5003 128.387 91.1239C138.757 89.8356 148.215 94.3632 156.841 99.633C157.622 100.11 158.387 100.6 159.136 101.102C158.908 98.4499 159.132 95.7787 159.799 93.2021C160.195 91.7431 160.814 90.3537 161.633 89.0828C164.459 84.7355 168.833 83.7812 173.297 84.656C177.538 85.4724 181.88 87.9589 184.812 90.4877C192.483 97.1359 195.07 108.29 196.322 118.374C219.691 124.254 240.595 136.018 259.543 150.523C265.539 155.517 278.173 164.588 285.707 173.124C285.845 173.283 285.915 173.491 285.901 173.701C285.887 173.911 285.79 174.108 285.632 174.248C285.555 174.317 285.464 174.37 285.365 174.404C285.267 174.438 285.163 174.452 285.059 174.446C284.955 174.44 284.853 174.413 284.76 174.367C284.666 174.321 284.582 174.257 284.514 174.179C277.038 165.696 264.495 156.721 258.536 151.758C239.917 137.513 219.405 125.929 196.507 120.055C196.64 121.237 196.756 122.409 196.868 123.543C196.888 123.754 196.824 123.964 196.689 124.128C196.554 124.292 196.36 124.395 196.149 124.415C195.938 124.436 195.728 124.371 195.564 124.237C195.401 124.102 195.298 123.908 195.277 123.697C195.139 122.218 194.98 120.691 194.8 119.132C194.798 119.12 194.798 119.107 194.8 119.095C193.634 109.229 191.274 98.191 183.751 91.6753C181.011 89.3002 176.971 86.9569 172.984 86.1934C169.177 85.4671 165.403 86.1934 162.974 89.9045C162.248 91.0398 161.697 92.2785 161.342 93.5786C160.625 96.4044 160.456 99.3413 160.843 102.231C162.056 103.104 163.241 104.024 164.401 104.993C168.08 108.089 171.102 111.132 173.207 116.026C173.997 117.855 174.442 119.864 174.23 121.295C174.044 122.52 173.419 123.384 172.305 123.681C171.372 123.936 170.312 123.554 169.273 122.711C167.348 121.12 165.392 117.939 164.358 116.413C161.735 112.418 160.031 107.891 159.369 103.159C158.309 102.395 157.164 101.669 156.024 100.969C147.701 95.8848 138.598 91.4261 128.594 92.6826C125.805 93.0272 122.863 93.6475 120.456 95.1743C116.41 97.7509 116.368 102.66 117.805 106.785C120.556 114.769 126.372 121.364 132.755 126.671C134.272 127.095 135.708 127.551 137.034 128.007C140.093 129.067 143.072 129.884 145.066 132.248C145.903 133.235 145.935 134.899 145.066 135.758C144.835 135.98 144.56 136.151 144.258 136.259C143.957 136.367 143.635 136.409 143.316 136.384C142.696 136.384 141.662 135.854 140.459 135.016C138.025 133.319 134.627 130.271 132.469 128.495L131.981 128.097C126.473 126.565 120.037 125.563 115.096 127.61C112.328 128.755 110.086 130.896 108.347 133.303C100.644 143.949 105.59 156.63 114.083 165.113C122.29 173.325 134.139 181.193 146.423 184.066C151.491 185.323 156.763 185.528 161.914 184.671C161.442 184.379 160.965 184.077 160.488 183.791C160.317 183.677 160.196 183.501 160.151 183.301C160.106 183.1 160.141 182.889 160.248 182.714C160.355 182.538 160.526 182.411 160.725 182.358C160.924 182.306 161.135 182.333 161.315 182.433C162.252 183.002 163.195 183.586 164.146 184.183C166.308 183.631 168.402 182.843 170.391 181.834C170.578 181.751 170.789 181.742 170.982 181.81C171.174 181.877 171.333 182.017 171.426 182.199C171.519 182.381 171.538 182.591 171.479 182.787C171.421 182.983 171.29 183.148 171.112 183.25C169.453 184.091 167.723 184.786 165.943 185.328C178.641 193.498 192.255 204.154 205.255 215.24C208.091 217.657 210.896 220.096 213.658 222.529C215.004 223.724 216.34 224.915 217.666 226.103C219.309 227.534 220.932 228.965 222.437 230.381C240.426 246.991 258.223 264.513 263.329 269.782C263.487 269.923 263.583 270.121 263.595 270.332C263.607 270.543 263.535 270.751 263.395 270.909C263.254 271.067 263.057 271.163 262.845 271.175C262.634 271.188 262.426 271.116 262.268 270.975C242.44 256.131 226.705 245.21 204.772 239.516C204.595 239.472 204.439 239.368 204.33 239.222C204.221 239.076 204.165 238.897 204.173 238.715C204.56 229.485 204.603 228.456 204.608 216.814L204.189 216.448C190.829 205.055 176.817 194.118 163.828 185.89C157.996 187.252 151.974 187.003 146.025 185.614C133.445 182.672 121.309 174.64 112.911 166.237C103.893 157.208 98.8357 143.71 107.027 132.407ZM165.657 115.575C166.5 116.805 167.974 119.244 169.533 120.876C169.945 121.322 170.418 121.708 170.937 122.022C171.215 122.207 171.552 122.281 171.881 122.228C172.364 122.096 172.56 121.672 172.639 121.142C172.82 119.938 172.39 118.268 171.733 116.731C169.734 112.097 166.85 109.224 163.361 106.292C162.646 105.693 161.914 105.11 161.177 104.548C161.929 108.476 163.451 112.217 165.657 115.554V115.575ZM141.339 133.749C141.818 134.1 142.327 134.409 142.86 134.671C143.014 134.752 143.181 134.806 143.353 134.83C143.452 134.844 143.553 134.837 143.648 134.81C143.744 134.782 143.833 134.735 143.91 134.671C144.058 134.47 144.13 134.223 144.113 133.974C144.097 133.724 143.993 133.489 143.82 133.309C142.012 131.188 139.26 130.499 136.488 129.555L135.878 129.348C137.691 130.87 139.722 132.604 141.339 133.728V133.749Z" fill="white"/>
<path fill-rule="evenodd" clip-rule="evenodd" d="M275.381 15.7191C275.515 18.0949 275.893 20.4506 276.51 22.749C277.204 25.2567 278.588 28.9837 280.168 30.6537C281.085 31.6292 282.092 31.9738 283.079 31.5603C283.863 31.2316 284.314 30.4257 284.404 29.3283C284.552 27.4568 283.662 24.6364 283.195 23.592C281.684 20.3503 279.56 17.432 276.939 14.9981C276.812 11.7376 277.167 8.37108 278.397 5.79981C279.59 3.30806 281.626 1.59564 284.892 1.59034C291.354 1.59034 300.128 7.0934 304.147 11.4831C310.011 17.8874 318.371 28.5384 323.281 38.8924C318.684 38.7174 317.03 43.3881 317.269 48.8912C317.438 52.5723 318.287 56.1904 319.771 59.5633C320.534 61.1962 321.43 62.4262 322.31 63.0358C322.811 63.4046 323.43 63.5763 324.049 63.5183C324.705 63.4203 325.299 63.0751 325.709 62.5534C328.153 59.733 329.059 56.1491 328.821 52.1305C328.614 48.6685 327.559 44.8726 325.947 40.9971C329.765 41.496 333.403 42.9152 336.55 45.1324C356.819 58.7999 366.77 75.3515 377.68 96.2609C401.007 140.948 413.514 189.246 411.483 240.019C411.475 240.23 411.551 240.436 411.694 240.591C411.837 240.746 412.036 240.838 412.247 240.846C412.458 240.855 412.663 240.779 412.818 240.636C412.974 240.492 413.065 240.294 413.074 240.083C415.115 189.028 402.55 140.46 379.091 95.524C368.042 74.36 357.948 57.6388 337.441 43.8123C331.27 39.6558 327.188 39.783 325.194 39.2264H325.157C320.259 28.4217 311.442 17.1346 305.303 10.4334C301.062 5.78921 291.715 0.0210692 284.876 0.0263708C280.894 0.0263708 278.397 2.10459 276.95 5.14241C275.81 7.52813 275.359 10.5394 275.312 13.5773C267.137 6.68517 255.245 2.58704 245.845 3.13841C238.996 3.54133 233.466 6.39358 231.436 12.2147C230.184 15.7933 230.259 20.5435 232.268 26.6139C239.16 47.3643 252.366 62.3201 264.327 73.5648C264.398 73.656 264.488 73.7306 264.591 73.7834C264.693 73.8363 264.807 73.866 264.922 73.8707C265.038 73.8754 265.153 73.8548 265.259 73.8104C265.366 73.766 265.462 73.6989 265.54 73.6137C265.618 73.5285 265.677 73.4273 265.712 73.3172C265.747 73.207 265.758 73.0906 265.743 72.9759C265.728 72.8612 265.689 72.7511 265.628 72.6532C265.566 72.5553 265.484 72.472 265.387 72.4091C253.596 61.3181 240.528 46.5797 233.752 26.1102C230.974 17.7284 232.029 12.0769 235.444 8.68918C238.858 5.30146 244.584 4.20933 250.855 4.85082C259.338 5.70968 268.796 9.72299 275.338 15.7456L275.381 15.7191ZM324.044 40.573C325.825 44.6393 327.018 48.6155 327.225 52.2365C327.432 55.8575 326.695 59.0172 324.505 61.5249C324.344 61.7546 324.098 61.911 323.821 61.9596C323.548 61.9481 323.289 61.839 323.09 61.6521C321.902 60.719 320.81 58.4076 320.004 55.6666C318.944 52.1199 318.461 47.8415 319.124 44.6552C319.479 42.9375 320.184 41.5432 321.377 40.8911C322.201 40.491 323.136 40.3844 324.028 40.5889L324.044 40.573ZM277.125 17.4474C279.03 19.4418 280.59 21.7386 281.742 24.2441C282.312 25.6058 282.67 27.0469 282.803 28.5171C282.842 28.919 282.809 29.3247 282.707 29.7153C282.695 29.7935 282.665 29.8678 282.62 29.933C282.575 29.9981 282.516 30.0523 282.448 30.0917C282.341 30.1289 282.226 30.1392 282.114 30.1216C282.002 30.1041 281.897 30.0592 281.806 29.991C281.38 29.6904 281.019 29.3062 280.746 28.8618C279.558 27.1281 278.572 24.3077 278.021 22.3249C277.589 20.7254 277.282 19.0946 277.104 17.4474H277.125ZM303.707 117.393C303.66 117.297 303.594 117.211 303.513 117.141C303.432 117.071 303.338 117.018 303.236 116.985C303.134 116.952 303.027 116.94 302.92 116.95C302.814 116.96 302.71 116.991 302.616 117.042C302.521 117.092 302.438 117.162 302.371 117.245C302.305 117.329 302.255 117.425 302.226 117.528C302.198 117.631 302.19 117.739 302.204 117.845C302.218 117.951 302.253 118.054 302.307 118.146C311.135 134.438 317.412 152.4 324.092 170.976C324.121 171.082 324.171 171.18 324.24 171.265C324.308 171.35 324.394 171.42 324.491 171.471C324.588 171.521 324.694 171.551 324.803 171.559C324.912 171.567 325.021 171.552 325.124 171.515C325.227 171.479 325.322 171.421 325.402 171.347C325.481 171.272 325.545 171.182 325.588 171.081C325.632 170.981 325.654 170.873 325.654 170.764C325.654 170.654 325.631 170.546 325.587 170.446C318.88 151.795 312.571 133.759 303.707 117.404V117.393Z" fill="white"/>
<path fill-rule="evenodd" clip-rule="evenodd" d="M262.337 102.808C264.309 100.502 267.776 99.7704 272.108 100.375C278.21 101.223 286.104 104.674 293.68 109.387C296.368 111.068 297.89 114.53 298.096 118.4C298.399 124.009 295.928 130.361 290.674 132.836C287.663 134.257 284.148 134.284 280.967 133.61C274.563 132.253 268.853 127.492 264.415 121.093C263.008 119.017 261.921 116.74 261.192 114.339C259.946 110.209 259.84 105.724 262.337 102.808ZM265.714 120.182C269.902 126.22 275.257 130.785 281.29 132.046C284.143 132.651 287.297 132.667 289.99 131.394C294.576 129.226 296.691 123.712 296.527 118.792C296.363 118.628 296.193 118.469 295.997 118.31L295.424 117.78C295.218 117.589 295 117.414 294.793 117.25C294.587 117.085 294.401 116.91 294.2 116.746C293.998 116.582 293.765 116.407 293.548 116.216L292.938 115.749L292.265 115.283C292.058 115.14 291.851 114.991 291.639 114.853C291.427 114.716 291.178 114.567 290.945 114.424C290.711 114.281 290.52 114.159 290.303 114.032C290.086 113.904 289.831 113.772 289.593 113.645C289.354 113.517 289.158 113.401 288.935 113.289C288.713 113.178 288.453 113.051 288.209 112.94C287.965 112.828 287.764 112.722 287.536 112.621C287.308 112.521 287.037 112.415 286.783 112.309C286.528 112.203 286.332 112.118 286.099 112.033C285.866 111.948 285.569 111.847 285.33 111.757C285.092 111.667 284.869 111.593 284.636 111.519C284.402 111.444 284.105 111.365 283.84 111.285L283.141 111.084L282.319 110.893C282.08 110.84 281.847 110.776 281.608 110.729C281.37 110.681 281.078 110.628 280.765 110.575L280.055 110.453L279.18 110.342L278.47 110.252L277.537 110.183C277.309 110.183 277.086 110.146 276.858 110.135C276.503 110.135 276.142 110.135 275.798 110.108H275.268C274.738 110.108 274.16 110.108 273.603 110.151C273.364 110.151 273.121 110.177 272.882 110.199H272.638L272.145 110.246L271.853 110.278L271.403 110.331L271.09 110.379L270.661 110.442L270.327 110.501L269.913 110.575L269.574 110.649C269.441 110.681 269.303 110.708 269.171 110.745L268.832 110.829L268.434 110.936L268.095 111.042L267.708 111.163L267.368 111.285L266.997 111.429L266.663 111.566L266.308 111.731C266.197 111.778 266.091 111.831 265.979 111.89L265.635 112.07C265.529 112.123 265.423 112.187 265.322 112.25L264.988 112.446L264.686 112.653L264.373 112.871L264.081 113.099L263.79 113.342C263.694 113.422 263.604 113.507 263.514 113.592C263.424 113.676 263.328 113.767 263.238 113.862L262.984 114.138C262.941 114.18 262.904 114.233 262.862 114.281C263.53 116.372 264.49 118.359 265.714 120.182Z" fill="black"/>
<path fill-rule="evenodd" clip-rule="evenodd" d="M291.946 93.5308C292.079 93.6953 292.271 93.8003 292.482 93.8226C292.692 93.845 292.902 93.7829 293.067 93.6501C293.231 93.5172 293.336 93.3244 293.359 93.1141C293.381 92.9038 293.319 92.6933 293.186 92.5288C290.35 89.0297 286.029 86.5433 281.385 87.1105C281.28 87.1231 281.179 87.1561 281.088 87.2076C280.996 87.2591 280.915 87.3282 280.85 87.4109C280.786 87.4936 280.737 87.5883 280.709 87.6896C280.681 87.7909 280.673 87.8968 280.685 88.0012C280.698 88.1056 280.731 88.2066 280.782 88.2983C280.834 88.39 280.903 88.4706 280.985 88.5356C281.068 88.6005 281.163 88.6486 281.264 88.677C281.365 88.7054 281.471 88.7135 281.576 88.701C285.669 88.2027 289.449 90.4558 291.946 93.5414V93.5308Z" fill="black"/>
<path fill-rule="evenodd" clip-rule="evenodd" d="M271.961 88.3295C272.059 88.3744 272.166 88.3988 272.274 88.4011C272.382 88.4034 272.489 88.3837 272.589 88.343C272.69 88.3024 272.781 88.2417 272.857 88.1648C272.933 88.0878 272.992 87.9962 273.031 87.8954C273.071 87.7947 273.089 87.687 273.085 87.5789C273.082 87.4708 273.056 87.3646 273.01 87.2668C272.964 87.169 272.898 87.0816 272.817 87.01C272.736 86.9384 272.641 86.8841 272.538 86.8504C268.297 85.1963 263.33 85.5992 260 88.8756C259.858 89.025 259.779 89.2237 259.781 89.43C259.782 89.6362 259.864 89.8337 260.009 89.9809C260.153 90.1281 260.349 90.2135 260.555 90.2189C260.761 90.2244 260.961 90.1495 261.114 90.0101C263.992 87.1791 268.292 86.9034 271.961 88.3295Z" fill="black"/>
<path fill-rule="evenodd" clip-rule="evenodd" d="M264.758 72.176C254.924 73.8142 246.41 80.685 244.422 93.4195C241.771 110.538 249.58 129.698 264.96 138.213C277.291 145.036 297.045 143.011 302.071 126.454C302.915 123.647 303.489 120.766 303.784 117.849C305.162 104.558 301.191 89.5069 290.386 79.8262C283.219 73.4113 273.453 70.7234 264.743 72.176H264.758ZM265.018 73.7665C273.283 72.3881 282.545 74.9487 289.337 81.035C299.76 90.3658 303.545 104.892 302.22 117.711C301.933 120.523 301.379 123.302 300.565 126.008C295.842 141.521 277.281 143.233 265.734 136.84C250.889 128.643 243.414 110.173 245.991 93.6846C247.852 81.7613 255.809 75.2986 265.018 73.7665Z" fill="#030303"/>
<path fill-rule="evenodd" clip-rule="evenodd" d="M254.898 72.5519C255.057 72.6792 255.258 72.7409 255.461 72.7243C255.664 72.7077 255.852 72.614 255.988 72.4626C256.124 72.3112 256.197 72.1136 256.191 71.9103C256.186 71.707 256.102 71.5136 255.959 71.3697C251.214 67.0329 245.569 63.7979 239.428 61.8957C239.327 61.8595 239.219 61.8444 239.111 61.8512C239.004 61.858 238.899 61.8866 238.802 61.9354C238.706 61.9841 238.621 62.0519 238.552 62.1346C238.482 62.2173 238.431 62.3133 238.4 62.4166C238.369 62.5199 238.359 62.6284 238.371 62.7356C238.384 62.8427 238.418 62.9463 238.471 63.0399C238.525 63.1335 238.597 63.2152 238.683 63.2801C238.769 63.345 238.868 63.3916 238.972 63.4173C244.881 65.2541 250.311 68.3712 254.877 72.5466L254.898 72.5519Z" fill="black"/>
<path fill-rule="evenodd" clip-rule="evenodd" d="M249.151 76.0995C249.35 76.1311 249.554 76.0856 249.721 75.9723C249.888 75.859 250.006 75.6863 250.051 75.4894C250.095 75.2924 250.063 75.0858 249.961 74.9116C249.859 74.7374 249.694 74.6086 249.5 74.5514C244.909 73.4911 239.958 72.6799 235.239 73.0669C235.028 73.0845 234.833 73.1852 234.696 73.3467C234.56 73.5083 234.493 73.7175 234.51 73.9285C234.528 74.1394 234.628 74.3347 234.79 74.4714C234.951 74.6081 235.161 74.675 235.372 74.6574C239.947 74.2863 244.708 75.0922 249.156 76.1048L249.151 76.0995Z" fill="black"/>
<path fill-rule="evenodd" clip-rule="evenodd" d="M244.005 84.2955C244.106 84.2714 244.202 84.2276 244.287 84.1665C244.372 84.1055 244.444 84.0283 244.498 83.9394C244.553 83.8506 244.59 83.7517 244.607 83.6486C244.624 83.5455 244.62 83.4402 244.596 83.3385C244.572 83.2369 244.528 83.1409 244.467 83.0562C244.406 82.9715 244.329 82.8997 244.24 82.8448C244.151 82.7899 244.052 82.753 243.949 82.7363C243.846 82.7196 243.741 82.7234 243.639 82.7474C239.928 83.6168 236.906 85.6156 234.016 87.9748C233.935 88.0406 233.868 88.1217 233.818 88.2135C233.768 88.3053 233.737 88.4061 233.726 88.5099C233.716 88.6138 233.725 88.7188 233.755 88.8189C233.785 88.919 233.834 89.0123 233.9 89.0934C233.966 89.1745 234.047 89.2419 234.139 89.2916C234.23 89.3414 234.331 89.3726 234.435 89.3834C234.539 89.3942 234.644 89.3845 234.744 89.3548C234.844 89.325 234.937 89.2758 235.018 89.21C237.722 87.0046 240.553 85.1066 244.031 84.2955H244.005Z" fill="black"/>
</g>
<defs>
<filter id="filter0_f_129_1703" x="-150.847" y="-63.3573" width="668.425" height="648.453" filterUnits="userSpaceOnUse" color-interpolation-filters="sRGB">
<feFlood flood-opacity="0" result="BackgroundImageFix"/>
<feBlend mode="normal" in="SourceGraphic" in2="BackgroundImageFix" result="shape"/>
<feGaussianBlur stdDeviation="94.1833" result="effect1_foregroundBlur_129_1703"/>
</filter>
<filter id="filter1_f_129_1703" x="-150.847" y="-63.3573" width="668.425" height="648.453" filterUnits="userSpaceOnUse" color-interpolation-filters="sRGB">
<feFlood flood-opacity="0" result="BackgroundImageFix"/>
<feBlend mode="normal" in="SourceGraphic" in2="BackgroundImageFix" result="shape"/>
<feGaussianBlur stdDeviation="94.1833" result="effect1_foregroundBlur_129_1703"/>
</filter>
<filter id="filter2_f_129_1703" x="32.9724" y="101.047" width="599.872" height="572.661" filterUnits="userSpaceOnUse" color-interpolation-filters="sRGB">
<feFlood flood-opacity="0" result="BackgroundImageFix"/>
<feBlend mode="normal" in="SourceGraphic" in2="BackgroundImageFix" result="shape"/>
<feGaussianBlur stdDeviation="68.59" result="effect1_foregroundBlur_129_1703"/>
</filter>
<filter id="filter3_f_129_1703" x="32.9724" y="101.047" width="599.872" height="572.661" filterUnits="userSpaceOnUse" color-interpolation-filters="sRGB">
<feFlood flood-opacity="0" result="BackgroundImageFix"/>
<feBlend mode="normal" in="SourceGraphic" in2="BackgroundImageFix" result="shape"/>
<feGaussianBlur stdDeviation="68.59" result="effect1_foregroundBlur_129_1703"/>
</filter>
<filter id="filter4_f_129_1703" x="-32.5511" y="-102.743" width="599.872" height="516.545" filterUnits="userSpaceOnUse" color-interpolation-filters="sRGB">
<feFlood flood-opacity="0" result="BackgroundImageFix"/>
<feBlend mode="normal" in="SourceGraphic" in2="BackgroundImageFix" result="shape"/>
<feGaussianBlur stdDeviation="68.59" result="effect1_foregroundBlur_129_1703"/>
</filter>
<filter id="filter5_f_129_1703" x="-32.5511" y="-102.743" width="599.872" height="516.545" filterUnits="userSpaceOnUse" color-interpolation-filters="sRGB">
<feFlood flood-opacity="0" result="BackgroundImageFix"/>
<feBlend mode="normal" in="SourceGraphic" in2="BackgroundImageFix" result="shape"/>
<feGaussianBlur stdDeviation="68.59" result="effect1_foregroundBlur_129_1703"/>
</filter>
<filter id="filter6_f_129_1703" x="254.098" y="-30.1765" width="387.694" height="404.479" filterUnits="userSpaceOnUse" color-interpolation-filters="sRGB">
<feFlood flood-opacity="0" result="BackgroundImageFix"/>
<feBlend mode="normal" in="SourceGraphic" in2="BackgroundImageFix" result="shape"/>
<feGaussianBlur stdDeviation="40.6031" result="effect1_foregroundBlur_129_1703"/>
</filter>
<filter id="filter7_f_129_1703" x="254.098" y="-30.1765" width="387.694" height="404.479" filterUnits="userSpaceOnUse" color-interpolation-filters="sRGB">
<feFlood flood-opacity="0" result="BackgroundImageFix"/>
<feBlend mode="normal" in="SourceGraphic" in2="BackgroundImageFix" result="shape"/>
<feGaussianBlur stdDeviation="40.6031" result="effect1_foregroundBlur_129_1703"/>
</filter>
<clipPath id="clip0_129_1703">
<rect width="459.289" height="527.763" fill="white" transform="matrix(-1 0 0 1 558.289 0)"/>
</clipPath>
</defs>
</svg>
