<svg width="361" height="503" viewBox="0 0 361 503" fill="none" xmlns="http://www.w3.org/2000/svg">
<g clip-path="url(#clip0_215_270)">
<path d="M37.6269 487.428C34.363 489.711 33.9025 494.717 36.603 498.574C37.8309 500.383 39.6541 501.705 41.7555 502.309C42.4031 502.488 43.0717 502.58 43.7436 502.584C45.0578 502.595 46.343 502.198 47.4216 501.447C48.2258 500.867 48.8907 500.116 49.3681 499.247C49.8456 498.378 50.1235 497.413 50.1818 496.424C50.335 494.243 49.7221 492.077 48.4488 490.3C45.7483 486.434 40.894 485.131 37.6269 487.428Z" fill="black"/>
<path d="M139.163 490.287C137.902 488.428 136.047 487.052 133.901 486.387C131.807 485.778 129.775 486.056 128.175 487.176C124.911 489.456 124.53 494.565 127.317 498.561C129.199 501.258 132.055 502.773 134.716 502.773C135.996 502.785 137.249 502.402 138.304 501.676C139.901 500.559 140.866 498.747 141.015 496.573C141.129 494.328 140.476 492.111 139.163 490.287Z" fill="black"/>
<path fill-rule="evenodd" clip-rule="evenodd" d="M13.9515 481.666H167.719C165.757 483.511 163.199 486.487 163.199 486.487H12.9774C12.9774 486.487 7.37421 486.43 4.24956 483.173C1.88703 480.705 0.906221 478.137 0.796875 474.253C2.16204 477.268 4.51464 479.061 6.85398 480.125C9.09381 481.11 11.5082 481.637 13.9549 481.675L13.9515 481.666Z" fill="black"/>
<path fill-rule="evenodd" clip-rule="evenodd" d="M0.792379 474.243C0.792379 474.243 5.15297 476.93 11.9556 476.93H170.627C170.627 476.93 170.004 480.138 167.694 481.665H13.947C11.5003 481.627 9.086 481.1 6.84617 480.115C4.50683 479.051 2.15423 477.258 0.789062 474.243H0.792379Z" fill="white" stroke="black" stroke-width="0.662703" stroke-miterlimit="10"/>
<path fill-rule="evenodd" clip-rule="evenodd" d="M133.81 432.861C132.599 431.092 131.24 429.429 129.748 427.89C122.034 419.888 111.305 413.755 99.9263 410.382C112.057 416.75 124.605 425.293 130.682 437.798L130.106 438.719C129.994 438.657 129.863 438.641 129.74 438.673C129.617 438.705 129.51 438.783 129.443 438.891C129.423 438.921 121.411 451.552 119.536 454.402C119.495 454.456 119.467 454.518 119.451 454.584C119.435 454.65 119.433 454.718 119.445 454.784C119.457 454.851 119.482 454.914 119.519 454.971C119.556 455.027 119.605 455.076 119.661 455.113C119.717 455.15 119.781 455.176 119.847 455.187C119.914 455.199 119.982 455.198 120.048 455.182C120.114 455.167 120.176 455.138 120.23 455.098C120.284 455.058 120.33 455.007 120.364 454.949C121.186 453.703 123.177 450.588 125.162 447.473C125.722 453.017 127.912 455.81 129.622 458.106C130.709 459.571 131.61 460.81 131.61 462.547C131.61 463.299 131.61 464.011 131.564 464.69C131.517 465.684 131.434 466.582 131.312 467.421C129.874 470.174 126.491 471.957 122.061 472.099C109.698 472.497 82.3779 472.533 67.1987 472.252C58.7989 472.096 54.2395 461.861 44.2095 462.51C45.9193 460.383 48.2884 458.968 50.8365 457.775C53.6066 456.483 56.5921 455.456 59.2197 454.094C61.2741 453.033 63.9912 452.086 66.3736 450.618C67.9102 449.72 69.2375 448.504 70.267 447.052C70.0726 448.362 69.8815 449.667 69.6937 450.966C69.6766 451.096 69.7115 451.229 69.7908 451.334C69.8701 451.439 69.9875 451.509 70.1179 451.529C70.1823 451.538 70.2479 451.535 70.311 451.519C70.3741 451.503 70.4334 451.474 70.4854 451.435C70.5375 451.396 70.5813 451.347 70.6143 451.291C70.6473 451.235 70.6689 451.173 70.6779 451.108C71.3781 446.182 72.1767 441.201 73.0735 436.164C73.0968 436.035 73.068 435.902 72.9935 435.794C72.919 435.686 72.8049 435.612 72.6759 435.588C74.3327 426.432 76.3208 417.145 78.6866 407.84C70.7342 408.874 64.8726 412.887 63.1131 418.112C62.9507 418.815 62.7817 419.514 62.6326 420.213C62.0461 425.041 64.7864 430.621 72.1921 435.787C72.1507 435.845 72.1224 435.912 72.1093 435.982C71.6675 438.412 71.2555 440.842 70.8734 443.272C70.806 443.337 70.7598 443.422 70.7408 443.514C70.0781 446.496 68.1231 448.381 65.8633 449.776C63.5074 451.231 60.8135 452.165 58.779 453.212C56.1613 454.561 53.1858 455.588 50.429 456.88C47.586 458.206 44.9683 459.813 43.1392 462.271C41.5487 464.412 40.5547 467.202 40.5547 471.032C40.5547 472.746 40.9523 473.968 41.6846 474.853C42.4169 475.738 43.4938 476.294 44.912 476.619C46.6648 477.023 48.9644 477.08 51.7544 477.08H118.32C123.472 477.08 126.898 476.308 129.102 474.409C131.305 472.51 132.342 469.439 132.561 464.74C132.594 464.049 132.611 463.319 132.611 462.55C132.611 460.592 131.657 459.17 130.427 457.517C129.198 455.863 127.657 453.872 126.782 450.691C132.624 450.396 135.749 448.08 136.928 445.373C137.054 444.975 137.183 444.571 137.316 444.166C138.022 440.939 136.511 436.834 133.824 432.874" fill="black"/>
<path fill-rule="evenodd" clip-rule="evenodd" d="M326.767 371.786C326.151 364.93 324.928 355.444 322.592 349.178C321.654 346.663 320.604 344.019 318.947 341.762C316.101 337.886 311.919 336.043 306.833 336.428C302.124 336.785 297.956 337.18 294.397 339.681C292.078 341.315 289.997 343.85 288.214 347.876C286.6 347.849 284.988 347.722 283.39 347.495C283.258 347.475 283.124 347.508 283.016 347.588C282.909 347.667 282.838 347.785 282.818 347.917C282.798 348.049 282.832 348.183 282.911 348.29C282.99 348.398 283.109 348.469 283.241 348.489C284.99 348.734 286.753 348.868 288.519 348.89C290.699 348.943 293.039 348.89 295.55 348.727C295.682 348.719 295.805 348.66 295.893 348.561C295.981 348.462 296.025 348.332 296.017 348.201C296.01 348.069 295.95 347.945 295.851 347.858C295.752 347.77 295.622 347.725 295.491 347.733C293.287 347.863 291.226 347.922 289.284 347.899C290.941 344.304 292.827 341.998 294.957 340.5C298.36 338.111 302.356 337.773 306.856 337.428C321.843 338.383 323.354 368.777 323.997 381.763L324.06 382.969C324.265 387.012 324.696 395.425 321.959 398.019C321.654 398.312 321.287 398.531 320.886 398.662C320.484 398.792 320.058 398.83 319.64 398.771C308.374 397.602 302.999 401.704 301.342 404.573C298.731 401.058 297.247 396.246 295.958 392.37C298.443 390.408 301.206 388.254 302.691 387.197C302.791 387.118 302.858 387.004 302.876 386.877C302.894 386.75 302.863 386.622 302.789 386.518C302.715 386.414 302.603 386.342 302.477 386.318C302.352 386.294 302.222 386.319 302.114 386.389C300.699 387.383 298.138 389.394 295.736 391.28C297.393 378.397 293.493 362.614 286.021 351.703C287.942 354.95 289.182 358.817 290.086 362.306C292.674 372.22 292.157 385.15 290.378 395.773L290.338 395.998L292.774 394.255L294.96 392.522C296.375 396.76 298.025 402.131 301.054 405.826C303.221 408.477 305.753 409.892 308.794 410.19C309.162 410.226 309.54 410.243 309.928 410.243C313.722 410.243 318.394 408.569 321.041 406.174C325.567 402.078 327.473 397.615 327.609 390.769C327.685 386.939 327.456 379.364 326.767 371.786Z" fill="#030303"/>
<path fill-rule="evenodd" clip-rule="evenodd" d="M78.6985 407.83C70.7461 408.864 64.8845 412.877 63.125 418.102C74.4108 369.867 104.213 323.379 135.028 292.52C158.511 265.783 188.919 246.628 227.605 241.667C225.756 243.081 223.937 244.535 222.147 246.028C215.152 247.947 209.775 252.055 205.199 257.894C190.871 276.188 196.139 314.267 217.962 325.158C240.58 336.424 256.068 305.999 252.038 290.489C255.219 287.576 258.062 285.147 261.548 282.122C261.548 303.143 262.433 317.636 264.729 327.703C267.195 334.241 271.711 342.412 278.364 344.983C280.174 345.584 281.815 346.606 283.152 347.965C286.817 351.577 288.785 357.342 290.088 362.306C292.675 372.22 292.159 385.149 290.379 395.773C289.685 400.146 288.634 404.454 287.235 408.655C285.939 412.37 283.769 414.832 281.366 416.064L280.372 416.495C264.381 423.364 239.649 426.751 222.498 423.682C201.766 421.313 186.583 407.257 172.796 389.136C160.662 395.514 144.876 412.489 137.278 444.14C137.984 440.913 136.473 436.807 133.786 432.847C132.574 431.079 131.215 429.416 129.723 427.877C118.832 416.575 101.916 408.99 85.6536 407.665C83.3289 407.468 80.9899 407.517 78.6753 407.811L78.6985 407.83Z" fill="white"/>
<mask id="mask0_215_270" style="mask-type:luminance" maskUnits="userSpaceOnUse" x="63" y="241" width="229" height="204">
<path d="M78.6985 407.83C70.7461 408.864 64.8845 412.877 63.125 418.102C74.4108 369.867 104.213 323.379 135.028 292.52C158.511 265.783 188.919 246.628 227.605 241.667C225.756 243.081 223.937 244.535 222.147 246.028C215.152 247.946 209.775 252.055 205.199 257.894C190.871 276.187 196.139 314.266 217.962 325.158C240.58 336.424 256.068 305.999 252.038 290.489C255.219 287.576 258.062 285.147 261.548 282.122C261.548 303.143 262.433 317.636 264.729 327.703C267.195 334.24 271.711 342.411 278.364 344.983C280.174 345.584 281.815 346.606 283.152 347.965C286.817 351.577 288.785 357.342 290.088 362.306C292.675 372.22 292.159 385.149 290.379 395.772C289.685 400.145 288.634 404.454 287.235 408.655C285.939 412.37 283.769 414.832 281.366 416.064L280.372 416.495C264.381 423.364 239.649 426.75 222.498 423.682C201.766 421.313 186.583 407.257 172.796 389.135C160.662 395.514 144.876 412.489 137.278 444.14C137.984 440.912 136.473 436.807 133.786 432.847C132.574 431.079 131.215 429.416 129.723 427.877C118.832 416.575 101.916 408.99 85.6536 407.664C83.3289 407.468 80.9899 407.517 78.6753 407.81L78.6985 407.83Z" fill="white"/>
</mask>
<g mask="url(#mask0_215_270)">
<path fill-rule="evenodd" clip-rule="evenodd" d="M268.91 337.047C268.499 336.486 268.325 335.785 268.426 335.096C268.527 334.408 268.895 333.786 269.45 333.366C270.005 332.947 270.703 332.762 271.393 332.852C272.083 332.943 272.71 333.301 273.138 333.85C281.382 344.748 286.452 369.636 283.828 391.392C282.038 406.24 276.631 419.557 266.717 426.31C266.136 426.68 265.433 426.81 264.758 426.671C264.083 426.533 263.488 426.136 263.1 425.567C262.712 424.997 262.562 424.298 262.68 423.619C262.798 422.94 263.177 422.334 263.734 421.929C272.535 415.932 276.989 403.937 278.566 390.759C281.011 370.474 276.601 347.21 268.914 337.047H268.91Z" fill="white" stroke="black" stroke-width="0.662703" stroke-miterlimit="10"/>
<path fill-rule="evenodd" clip-rule="evenodd" d="M65.4741 407.343C64.9797 407.843 64.307 408.126 63.6039 408.13C62.9008 408.134 62.2248 407.859 61.7248 407.365C61.2248 406.87 60.9416 406.198 60.9375 405.495C60.9335 404.791 61.2089 404.116 61.7033 403.615C69.5464 395.686 83.4399 393.234 98.3143 396.104C119.962 400.279 143.584 415.571 152.325 439.683C152.473 440.016 152.551 440.375 152.555 440.739C152.558 441.103 152.486 441.464 152.344 441.799C152.202 442.134 151.992 442.436 151.728 442.687C151.464 442.937 151.151 443.131 150.809 443.255C150.467 443.379 150.103 443.432 149.74 443.409C149.376 443.387 149.022 443.289 148.697 443.124C148.373 442.958 148.087 442.727 147.856 442.446C147.625 442.165 147.454 441.839 147.354 441.489C139.273 419.196 117.341 405.17 97.3203 401.309C84.424 398.821 72.2833 400.471 65.484 407.343H65.4741Z" fill="white" stroke="black" stroke-width="0.662703" stroke-miterlimit="10"/>
<path fill-rule="evenodd" clip-rule="evenodd" d="M173.209 388.84C172.212 387.528 171.218 386.197 170.226 384.848C159.481 370.086 150.309 354.181 143.543 337.193C139.964 328.213 136.584 319.379 133.914 310.085C133.873 309.963 133.787 309.862 133.673 309.803C133.56 309.743 133.428 309.73 133.305 309.765C133.182 309.801 133.077 309.882 133.013 309.993C132.948 310.104 132.929 310.235 132.959 310.36C135.656 319.687 139.03 328.551 142.618 337.56C145.936 345.85 149.795 353.912 154.169 361.696C157.612 372.386 161.393 383.198 166.469 393.244C168.326 391.803 170.295 390.511 172.357 389.381L172.403 389.44C172.442 389.495 172.491 389.541 172.547 389.577C172.604 389.612 172.667 389.635 172.733 389.646C172.799 389.656 172.867 389.653 172.931 389.637C172.996 389.62 173.057 389.591 173.11 389.551C173.164 389.511 173.208 389.46 173.241 389.402C173.275 389.344 173.296 389.28 173.304 389.214C173.312 389.147 173.306 389.08 173.287 389.016C173.269 388.952 173.238 388.892 173.195 388.84H173.209Z" fill="black"/>
</g>
<path fill-rule="evenodd" clip-rule="evenodd" d="M78.6985 407.83C70.7461 408.864 64.8845 412.877 63.125 418.102C74.4108 369.867 104.213 323.379 135.028 292.52C158.511 265.783 188.919 246.628 227.605 241.667C225.756 243.081 223.937 244.535 222.147 246.028C215.152 247.947 209.775 252.055 205.199 257.894C190.871 276.188 196.139 314.267 217.962 325.158C240.58 336.424 256.068 305.999 252.038 290.489C255.219 287.576 258.062 285.147 261.548 282.122C261.548 303.143 262.433 317.636 264.729 327.703C267.195 334.241 271.711 342.412 278.364 344.983C280.174 345.584 281.815 346.606 283.152 347.965C286.817 351.577 288.785 357.342 290.088 362.306C292.675 372.22 292.159 385.149 290.379 395.773C289.685 400.146 288.634 404.454 287.235 408.655C285.939 412.37 283.769 414.832 281.366 416.064L280.372 416.495C264.381 423.364 239.649 426.751 222.498 423.682C201.766 421.313 186.583 407.257 172.796 389.136C160.662 395.514 144.876 412.489 137.278 444.14C137.984 440.913 136.473 436.807 133.786 432.847C132.574 431.079 131.215 429.416 129.723 427.877C118.832 416.575 101.916 408.99 85.6536 407.665C83.3289 407.468 80.9899 407.517 78.6753 407.81L78.6985 407.83Z" stroke="black" stroke-width="0.662703" stroke-miterlimit="10"/>
<path fill-rule="evenodd" clip-rule="evenodd" d="M322.61 229.967C321.417 228.311 319.867 226.859 317.971 226.074C315.251 224.947 311.845 225.189 308.693 225.875C312.193 222.678 315.274 218.821 316.832 214.288C317.862 211.289 317.703 207.747 314.757 205.871C313.13 204.838 311.146 204.4 309.26 204.165C302.779 203.36 296.868 206.189 291.476 209.483C290.988 209.781 290.51 210.087 290.042 210.401C290.185 208.744 290.044 207.074 289.628 205.464C289.38 204.552 288.993 203.684 288.481 202.889C286.715 200.172 283.981 199.576 281.191 200.122C278.54 200.633 275.827 202.187 273.994 203.767C269.2 207.922 267.583 214.894 266.801 221.196C252.195 224.871 239.13 232.224 227.287 241.29C223.539 244.411 215.643 250.08 210.935 255.415C210.848 255.515 210.805 255.644 210.814 255.776C210.822 255.907 210.883 256.03 210.981 256.118C211.03 256.161 211.087 256.194 211.148 256.215C211.21 256.237 211.275 256.245 211.34 256.241C211.405 256.237 211.468 256.221 211.527 256.192C211.585 256.163 211.637 256.123 211.68 256.074C216.352 250.773 224.192 245.163 227.917 242.062C239.554 233.158 252.374 225.918 266.685 222.247C266.602 222.986 266.529 223.718 266.459 224.427C266.447 224.559 266.487 224.69 266.571 224.793C266.655 224.895 266.777 224.959 266.908 224.972C267.04 224.985 267.172 224.945 267.274 224.861C267.376 224.776 267.441 224.655 267.453 224.523C267.54 223.599 267.639 222.644 267.752 221.67C267.753 221.663 267.753 221.655 267.752 221.647C268.481 215.481 269.955 208.582 274.657 204.51C276.37 203.025 278.895 201.561 281.387 201.083C283.766 200.629 286.125 201.083 287.643 203.403C288.097 204.112 288.441 204.887 288.663 205.699C289.111 207.465 289.217 209.301 288.975 211.107C288.217 211.652 287.476 212.228 286.751 212.833C284.452 214.768 282.563 216.67 281.248 219.729C280.754 220.872 280.476 222.128 280.608 223.022C280.724 223.788 281.115 224.328 281.811 224.513C282.394 224.672 283.057 224.434 283.706 223.907C284.909 222.913 286.132 220.925 286.778 219.97C288.418 217.474 289.482 214.645 289.896 211.687C290.559 211.209 291.274 210.756 291.987 210.318C297.189 207.14 302.878 204.354 309.131 205.139C310.874 205.354 312.713 205.742 314.217 206.696C316.745 208.307 316.772 211.375 315.874 213.953C314.154 218.943 310.519 223.065 306.53 226.382C305.582 226.647 304.684 226.932 303.856 227.217C301.944 227.88 300.082 228.39 298.836 229.868C298.312 230.484 298.292 231.525 298.836 232.061C298.98 232.2 299.152 232.307 299.34 232.375C299.529 232.442 299.73 232.469 299.929 232.452C300.317 232.452 300.963 232.121 301.715 231.598C303.236 230.537 305.36 228.632 306.709 227.522L307.014 227.273C310.456 226.316 314.479 225.69 317.567 226.969C319.297 227.684 320.698 229.023 321.785 230.527C326.6 237.181 323.508 245.107 318.2 250.408C313.071 255.541 305.665 260.458 297.988 262.254C294.82 263.039 291.525 263.168 288.305 262.632C288.6 262.45 288.899 262.261 289.197 262.082C289.304 262.011 289.38 261.901 289.407 261.776C289.435 261.65 289.414 261.519 289.347 261.409C289.28 261.299 289.173 261.219 289.049 261.187C288.924 261.154 288.792 261.171 288.68 261.234C288.094 261.589 287.505 261.954 286.91 262.327C285.56 261.982 284.251 261.49 283.007 260.859C282.891 260.807 282.759 260.801 282.638 260.844C282.518 260.886 282.419 260.973 282.361 261.087C282.303 261.201 282.291 261.332 282.327 261.455C282.364 261.577 282.446 261.681 282.557 261.744C283.594 262.269 284.675 262.704 285.787 263.043C277.851 268.149 269.342 274.809 261.217 281.738C259.445 283.249 257.692 284.773 255.966 286.294C255.124 287.04 254.289 287.785 253.461 288.527C252.433 289.422 251.419 290.316 250.478 291.201C239.236 301.582 228.112 312.533 224.921 315.827C224.822 315.915 224.762 316.039 224.755 316.171C224.747 316.303 224.792 316.432 224.88 316.531C224.968 316.63 225.091 316.69 225.223 316.698C225.355 316.706 225.485 316.661 225.584 316.573C237.976 307.295 247.811 300.469 261.519 296.91C261.63 296.883 261.727 296.818 261.795 296.727C261.864 296.636 261.898 296.524 261.893 296.41C261.652 290.641 261.625 289.998 261.622 282.722L261.883 282.493C270.234 275.372 278.991 268.537 287.109 263.394C290.754 264.246 294.518 264.09 298.236 263.222C306.099 261.383 313.684 256.363 318.932 251.111C324.569 245.468 327.73 237.032 322.61 229.967ZM285.966 219.447C285.439 220.216 284.518 221.74 283.544 222.76C283.286 223.039 282.991 223.28 282.666 223.476C282.493 223.592 282.282 223.638 282.076 223.605C281.774 223.522 281.652 223.257 281.602 222.926C281.49 222.174 281.758 221.13 282.169 220.169C283.418 217.273 285.221 215.477 287.401 213.645C287.848 213.27 288.305 212.906 288.766 212.555C288.296 215.01 287.345 217.348 285.966 219.434V219.447ZM301.165 230.806C300.866 231.025 300.547 231.218 300.214 231.382C300.118 231.432 300.014 231.466 299.906 231.482C299.844 231.49 299.782 231.486 299.722 231.469C299.662 231.451 299.606 231.422 299.558 231.382C299.466 231.256 299.421 231.102 299.431 230.946C299.441 230.79 299.506 230.643 299.614 230.531C300.744 229.205 302.464 228.774 304.197 228.185L304.578 228.055C303.445 229.006 302.176 230.09 301.165 230.792V230.806Z" fill="#030303"/>
<path fill-rule="evenodd" clip-rule="evenodd" d="M217.381 157.037C217.297 158.522 217.06 159.994 216.675 161.431C216.241 162.998 215.376 165.328 214.389 166.371C213.815 166.981 213.186 167.197 212.569 166.938C212.079 166.733 211.797 166.229 211.741 165.543C211.648 164.373 212.205 162.611 212.497 161.958C213.441 159.932 214.769 158.108 216.406 156.587C216.486 154.549 216.264 152.445 215.495 150.838C214.75 149.28 213.477 148.21 211.436 148.207C207.397 148.207 201.913 151.646 199.402 154.39C195.737 158.392 190.511 165.049 187.443 171.521C190.316 171.411 191.35 174.331 191.201 177.77C191.094 180.071 190.564 182.332 189.637 184.44C189.159 185.461 188.599 186.229 188.049 186.61C187.736 186.841 187.35 186.948 186.963 186.912C186.553 186.851 186.181 186.635 185.925 186.309C184.398 184.546 183.831 182.306 183.98 179.794C184.11 177.631 184.769 175.258 185.776 172.836C183.391 173.148 181.116 174.035 179.149 175.421C166.482 183.963 160.262 194.308 153.443 207.376C138.864 235.306 131.047 265.492 132.316 297.226C132.321 297.357 132.274 297.486 132.185 297.583C132.095 297.68 131.971 297.737 131.839 297.742C131.707 297.748 131.579 297.7 131.482 297.611C131.385 297.521 131.327 297.397 131.322 297.265C130.046 265.356 137.899 235.001 152.562 206.916C159.467 193.688 165.776 183.237 178.593 174.596C182.45 171.998 185.001 172.077 186.247 171.729H186.27C189.332 164.976 194.842 157.922 198.679 153.734C201.33 150.831 207.172 147.226 211.446 147.229C213.935 147.229 215.495 148.528 216.4 150.427C217.112 151.918 217.394 153.8 217.424 155.699C222.533 151.391 229.965 148.83 235.84 149.174C240.121 149.426 243.577 151.209 244.846 154.847C245.628 157.084 245.582 160.053 244.326 163.847C240.019 176.816 231.765 186.163 224.289 193.191C224.245 193.248 224.189 193.295 224.124 193.328C224.06 193.361 223.989 193.379 223.917 193.382C223.845 193.385 223.773 193.372 223.706 193.345C223.64 193.317 223.58 193.275 223.531 193.222C223.482 193.168 223.445 193.105 223.424 193.036C223.402 192.967 223.395 192.895 223.404 192.823C223.413 192.751 223.438 192.682 223.476 192.621C223.515 192.56 223.566 192.508 223.627 192.469C230.996 185.537 239.164 176.325 243.398 163.532C245.135 158.293 244.475 154.761 242.341 152.644C240.207 150.526 236.629 149.844 232.709 150.245C227.407 150.781 221.496 153.29 217.407 157.054L217.381 157.037ZM186.966 172.571C185.853 175.112 185.107 177.598 184.978 179.861C184.849 182.124 185.309 184.099 186.678 185.666C186.778 185.81 186.932 185.907 187.105 185.938C187.276 185.931 187.438 185.862 187.562 185.746C188.305 185.162 188.987 183.718 189.491 182.005C190.153 179.788 190.455 177.114 190.041 175.122C189.819 174.049 189.378 173.177 188.633 172.77C188.118 172.52 187.533 172.453 186.976 172.581L186.966 172.571ZM216.291 158.117C215.1 159.364 214.125 160.799 213.404 162.365C213.048 163.216 212.825 164.117 212.742 165.036C212.717 165.287 212.738 165.541 212.801 165.785C212.809 165.834 212.828 165.88 212.856 165.921C212.884 165.962 212.921 165.996 212.964 166.02C213.031 166.043 213.102 166.05 213.172 166.039C213.242 166.028 213.308 166 213.365 165.957C213.631 165.769 213.857 165.529 214.027 165.251C214.77 164.168 215.386 162.405 215.731 161.166C216.001 160.166 216.192 159.147 216.304 158.117H216.291ZM199.677 220.584C199.706 220.524 199.747 220.47 199.798 220.426C199.848 220.382 199.907 220.349 199.971 220.329C200.035 220.308 200.102 220.301 200.168 220.307C200.235 220.313 200.3 220.332 200.359 220.364C200.418 220.396 200.47 220.439 200.511 220.491C200.553 220.544 200.584 220.604 200.602 220.668C200.62 220.733 200.625 220.8 200.616 220.866C200.607 220.933 200.585 220.997 200.551 221.054C195.034 231.237 191.111 242.463 186.936 254.074C186.918 254.139 186.887 254.201 186.844 254.254C186.801 254.307 186.747 254.351 186.687 254.383C186.626 254.414 186.56 254.433 186.492 254.438C186.423 254.443 186.355 254.433 186.291 254.41C186.226 254.388 186.167 254.352 186.117 254.305C186.067 254.258 186.028 254.202 186.001 254.139C185.973 254.077 185.96 254.009 185.96 253.941C185.96 253.872 185.974 253.805 186.002 253.742C190.193 242.085 194.136 230.813 199.677 220.591V220.584Z" fill="#030303"/>
<path fill-rule="evenodd" clip-rule="evenodd" d="M225.537 211.468C224.304 210.027 222.137 209.569 219.43 209.947C215.616 210.477 210.682 212.634 205.947 215.58C204.268 216.63 203.317 218.794 203.187 221.213C202.998 224.719 204.543 228.688 207.826 230.236C209.708 231.124 211.905 231.14 213.893 230.719C217.896 229.871 221.465 226.896 224.238 222.896C225.118 221.598 225.797 220.175 226.253 218.675C227.031 216.094 227.098 213.29 225.537 211.468ZM223.426 222.326C220.809 226.1 217.462 228.953 213.691 229.742C211.908 230.12 209.937 230.13 208.254 229.334C205.388 227.979 204.065 224.533 204.168 221.458C204.271 221.355 204.377 221.256 204.499 221.157L204.857 220.825C204.987 220.706 205.122 220.597 205.252 220.494C205.381 220.391 205.497 220.282 205.623 220.179C205.749 220.076 205.894 219.967 206.03 219.848L206.411 219.556L206.832 219.265C206.961 219.175 207.091 219.082 207.223 218.996C207.356 218.91 207.511 218.817 207.657 218.728C207.803 218.638 207.922 218.562 208.058 218.483C208.194 218.403 208.353 218.32 208.502 218.241C208.651 218.161 208.774 218.088 208.913 218.019C209.052 217.949 209.215 217.87 209.367 217.8C209.519 217.73 209.645 217.664 209.788 217.601C209.93 217.538 210.099 217.472 210.258 217.406C210.417 217.34 210.54 217.286 210.686 217.233C210.832 217.18 211.017 217.117 211.166 217.061C211.315 217.005 211.455 216.958 211.6 216.912C211.746 216.866 211.932 216.816 212.097 216.766L212.535 216.64L213.048 216.521C213.197 216.488 213.343 216.448 213.492 216.418C213.641 216.389 213.824 216.355 214.019 216.322L214.463 216.246L215.01 216.176L215.454 216.12L216.037 216.077C216.18 216.077 216.319 216.054 216.461 216.047C216.683 216.047 216.909 216.047 217.124 216.031H217.455C217.787 216.031 218.148 216.031 218.496 216.057C218.645 216.057 218.797 216.074 218.946 216.087H219.099L219.407 216.117L219.589 216.137L219.871 216.17L220.066 216.2L220.335 216.239L220.544 216.276L220.802 216.322L221.014 216.369C221.097 216.389 221.183 216.405 221.266 216.428L221.478 216.481L221.726 216.548L221.939 216.614L222.18 216.69L222.392 216.766L222.624 216.856L222.833 216.942L223.055 217.045C223.125 217.074 223.191 217.108 223.261 217.144L223.476 217.257C223.542 217.29 223.609 217.33 223.671 217.369L223.88 217.492L224.069 217.621L224.265 217.757L224.447 217.899L224.629 218.052C224.689 218.102 224.745 218.155 224.801 218.208C224.858 218.261 224.917 218.317 224.974 218.377L225.133 218.549C225.159 218.575 225.182 218.609 225.209 218.638C224.791 219.945 224.191 221.187 223.426 222.326Z" fill="#030303"/>
<path fill-rule="evenodd" clip-rule="evenodd" d="M207.034 205.669C206.951 205.772 206.831 205.838 206.699 205.852C206.568 205.866 206.436 205.827 206.334 205.744C206.231 205.661 206.165 205.54 206.151 205.409C206.137 205.278 206.176 205.146 206.259 205.043C208.032 202.856 210.732 201.302 213.635 201.657C213.7 201.665 213.763 201.685 213.821 201.717C213.878 201.75 213.928 201.793 213.969 201.844C214.01 201.896 214.04 201.955 214.057 202.019C214.075 202.082 214.08 202.148 214.072 202.213C214.065 202.279 214.044 202.342 214.012 202.399C213.98 202.456 213.936 202.507 213.885 202.547C213.833 202.588 213.774 202.618 213.71 202.636C213.647 202.653 213.581 202.659 213.516 202.651C210.958 202.339 208.595 203.748 207.034 205.676V205.669Z" fill="#030303"/>
<path fill-rule="evenodd" clip-rule="evenodd" d="M219.524 202.419C219.462 202.447 219.396 202.462 219.328 202.464C219.26 202.465 219.193 202.453 219.131 202.427C219.068 202.402 219.011 202.364 218.964 202.316C218.916 202.268 218.879 202.21 218.854 202.148C218.83 202.085 218.818 202.017 218.821 201.95C218.823 201.882 218.839 201.816 218.868 201.755C218.897 201.693 218.938 201.639 218.988 201.594C219.039 201.549 219.098 201.515 219.162 201.494C221.813 200.461 224.918 200.712 226.999 202.76C227.088 202.854 227.137 202.978 227.136 203.107C227.135 203.236 227.084 203.359 226.994 203.451C226.903 203.543 226.781 203.596 226.652 203.6C226.523 203.603 226.398 203.556 226.303 203.469C224.504 201.7 221.817 201.528 219.524 202.419Z" fill="#030303"/>
<path fill-rule="evenodd" clip-rule="evenodd" d="M224.024 192.323C230.171 193.346 235.492 197.641 236.735 205.6C238.392 216.299 233.511 228.274 223.898 233.596C216.191 237.86 203.845 236.594 200.704 226.246C200.176 224.492 199.818 222.691 199.633 220.869C198.772 212.562 201.254 203.154 208.007 197.104C212.486 193.095 218.59 191.415 224.034 192.323H224.024ZM223.862 193.317C218.696 192.455 212.907 194.056 208.663 197.859C202.148 203.691 199.782 212.77 200.611 220.782C200.79 222.54 201.136 224.276 201.645 225.968C204.597 235.663 216.198 236.734 223.414 232.738C232.692 227.615 237.364 216.071 235.754 205.766C234.591 198.313 229.617 194.274 223.862 193.317Z" fill="#030303"/>
<path fill-rule="evenodd" clip-rule="evenodd" d="M230.191 192.558C230.092 192.637 229.966 192.676 229.839 192.666C229.713 192.655 229.595 192.597 229.51 192.502C229.425 192.407 229.38 192.284 229.383 192.157C229.386 192.03 229.438 191.909 229.528 191.819C232.494 189.108 236.022 187.087 239.86 185.898C239.923 185.875 239.991 185.866 240.058 185.87C240.125 185.874 240.191 185.892 240.251 185.922C240.311 185.953 240.365 185.995 240.408 186.047C240.451 186.099 240.483 186.159 240.503 186.223C240.522 186.288 240.528 186.356 240.52 186.423C240.513 186.49 240.491 186.554 240.458 186.613C240.424 186.671 240.379 186.722 240.326 186.763C240.272 186.804 240.21 186.833 240.145 186.849C236.452 187.997 233.058 189.945 230.204 192.555L230.191 192.558Z" fill="#030303"/>
<path fill-rule="evenodd" clip-rule="evenodd" d="M233.778 194.775C233.653 194.794 233.526 194.766 233.421 194.695C233.317 194.624 233.243 194.516 233.215 194.393C233.188 194.27 233.208 194.141 233.271 194.032C233.335 193.923 233.438 193.843 233.559 193.807C236.429 193.144 239.524 192.637 242.473 192.879C242.604 192.89 242.727 192.953 242.812 193.054C242.897 193.155 242.939 193.286 242.928 193.418C242.917 193.55 242.854 193.672 242.753 193.757C242.652 193.842 242.522 193.884 242.39 193.873C239.53 193.641 236.555 194.145 233.775 194.778L233.778 194.775Z" fill="#030303"/>
<path fill-rule="evenodd" clip-rule="evenodd" d="M237 199.897C236.936 199.882 236.877 199.855 236.824 199.817C236.771 199.779 236.726 199.73 236.691 199.675C236.657 199.619 236.634 199.558 236.624 199.493C236.613 199.429 236.615 199.363 236.631 199.299C236.646 199.236 236.673 199.176 236.711 199.123C236.749 199.07 236.798 199.025 236.853 198.991C236.909 198.956 236.97 198.933 237.035 198.923C237.099 198.912 237.165 198.915 237.229 198.93C239.548 199.473 241.437 200.722 243.243 202.197C243.293 202.238 243.335 202.289 243.367 202.346C243.398 202.404 243.417 202.467 243.424 202.531C243.431 202.596 243.425 202.662 243.406 202.725C243.387 202.787 243.357 202.845 243.316 202.896C243.274 202.947 243.224 202.989 243.166 203.02C243.109 203.051 243.046 203.071 242.981 203.077C242.916 203.084 242.851 203.078 242.788 203.059C242.725 203.041 242.667 203.01 242.616 202.969C240.927 201.591 239.157 200.404 236.983 199.897H237Z" fill="#030303"/>
</g>
<path d="M337.11 140.605C337.813 139.717 338.094 138.513 337.943 137.036C340.662 122.803 338.651 107.441 332.081 92.6225C325.983 78.8394 316.235 65.9074 303.892 55.2294L303.883 55.2136C304.525 54.4174 304.919 53.9484 305.527 53.1875C308.704 49.2209 306.9 48.3012 306.754 48.2085C306.056 47.7678 304.998 47.3774 302.277 50.3079C301.642 50.989 301.098 51.7019 300.553 52.4198C286.997 41.5858 271.872 34.3343 256.784 31.5169C240.486 28.4593 225.056 30.8259 212.169 38.3608C211.287 38.5839 210.497 39.0817 209.916 39.7824C208.13 42.0068 209.215 45.8951 211.61 50.2331C213.911 54.4002 217.426 58.995 220.8 62.9987C230.351 74.3179 244.559 87.7604 260.807 100.845C260.919 100.935 261.062 100.977 261.206 100.961C261.349 100.946 261.48 100.874 261.57 100.762C261.66 100.65 261.702 100.506 261.687 100.363C261.671 100.22 261.599 100.089 261.487 99.9985C245.288 86.9574 231.134 73.5677 221.629 62.3016C212.398 51.3543 208.437 43.3935 210.767 40.4563C211.223 39.9189 211.841 39.5431 212.528 39.3847C212.672 39.3465 212.823 39.3128 212.98 39.2838L213.144 39.2593C213.25 39.242 213.36 39.223 213.472 39.2103C213.585 39.1976 213.611 39.1998 213.682 39.1937C213.753 39.1876 213.89 39.1739 214 39.171C214.11 39.1682 214.161 39.1644 214.244 39.1643C214.326 39.1642 214.454 39.1557 214.562 39.1578L214.826 39.1648C214.939 39.1683 215.048 39.1703 215.163 39.177L215.452 39.1992C215.567 39.2058 215.679 39.2142 215.801 39.2254L216.105 39.2599C216.228 39.2743 216.347 39.2872 216.472 39.3048L216.791 39.3516L217.177 39.4151C217.289 39.4316 217.402 39.4561 217.516 39.4757L217.917 39.5516C218.033 39.5744 218.152 39.6035 218.27 39.6294L218.688 39.7208C218.81 39.7481 218.934 39.7786 219.055 39.8109L219.493 39.916L219.877 40.0216C220.028 40.0624 220.177 40.1 220.329 40.144L220.728 40.2619L221.204 40.4124L221.62 40.5459L222.111 40.6876L222.549 40.838L223.049 40.9956L223.505 41.1565L223.912 41.3033L224.235 41.8434L224.588 42.4372L224.729 42.6935C232.127 54.5988 249.054 71.9116 270.111 89.14L270.234 89.2418C270.605 89.5485 270.982 89.8487 271.358 90.1568L272.427 91.024L273.205 91.6474L275.198 93.2388C276.58 94.3364 277.965 95.4198 279.354 96.4891L279.39 96.5183L281.429 98.0804L281.691 98.2784L283.499 99.646L284.04 100.049L285.57 101.191L286.182 101.641L287.634 102.709L288.309 103.183L289.698 104.204L290.379 104.691C290.836 105.019 291.291 105.346 291.746 105.67L292.49 106.196L293.786 107.108L294.539 107.634L295.817 108.521L296.568 109.036L297.834 109.901L298.598 110.417L299.835 111.253L300.59 111.782C300.996 112.053 301.401 112.325 301.808 112.591C302.065 112.764 302.32 112.928 302.578 113.095L303.775 113.88L304.545 114.371C304.937 114.625 305.331 114.882 305.723 115.128L306.504 115.622L307.651 116.347L308.443 116.839L309.553 117.526L310.349 118.012L311.424 118.657L312.216 119.128L313.284 119.776L314.078 120.242L315.112 120.844L315.902 121.295L316.911 121.874L317.694 122.313L318.674 122.854L319.45 123.28C319.769 123.454 320.09 123.632 320.406 123.8L321.18 124.199L322.097 124.687L322.874 125.084L323.76 125.545L324.539 125.94C324.825 126.084 325.112 126.231 325.395 126.368L326.157 126.74L326.984 127.138L327.736 127.491L328.538 127.874L329.289 128.21C329.541 128.323 329.795 128.439 330.044 128.545L330.785 128.863L331.504 129.171C331.751 129.275 331.993 129.368 332.233 129.467L332.924 129.746C333.167 129.843 333.402 129.932 333.642 130.022L334.204 130.241C334.279 130.377 334.352 130.51 334.427 130.646C334.532 130.835 334.637 131.025 334.738 131.209L334.892 131.487L335.256 132.199L335.343 132.357C335.481 132.607 335.591 132.873 335.7 133.122L335.773 133.255C335.879 133.506 335.984 133.758 336.078 133.995L336.14 134.167C336.227 134.392 336.309 134.615 336.382 134.83L336.455 135.075C336.512 135.258 336.564 135.428 336.618 135.616L336.704 135.982L336.787 136.349C336.833 136.588 336.87 136.819 336.895 137.045C337.031 138.27 336.829 139.236 336.294 139.912C333.917 142.912 324.962 140.721 311.729 133.904C298.085 126.875 281.355 115.729 264.627 102.522C264.514 102.432 264.37 102.392 264.227 102.408C264.084 102.425 263.954 102.498 263.864 102.61C263.775 102.723 263.734 102.867 263.751 103.01C263.767 103.153 263.84 103.283 263.953 103.373C280.701 116.639 297.478 127.833 311.198 134.887C329.062 144.094 335.148 143.071 337.11 140.605ZM331.093 93.0607C337.173 106.812 339.308 121.016 337.311 134.313C337.236 134.095 337.15 133.865 337.056 133.628L337.011 133.546C336.784 132.97 336.518 132.369 336.213 131.741L336.127 131.586C335.968 131.298 335.828 130.991 335.667 130.684L335.558 130.488C335.384 130.171 335.209 129.855 335.024 129.52C334.839 129.184 334.612 128.818 334.393 128.46L334.045 127.897L333.772 127.461C330.797 122.82 326.437 117.367 320.965 111.441C322.158 96.7461 318.435 81.2066 310.37 66.5979C308.586 63.3737 306.63 60.2475 304.511 57.2327C316.114 67.572 325.28 79.9293 331.089 93.0625L331.093 93.0607ZM263.014 62.149C254.999 56.6037 247.417 51.8432 240.447 47.9829C257.865 41.5509 278.393 43.5285 298.641 53.5703C285.543 52.8459 273.568 55.7284 263.014 62.149ZM300.22 54.7628L282.732 76.7484C276.443 71.7943 270.124 67.1165 263.972 62.8379C274.686 56.4366 286.866 53.7172 300.223 54.761L300.22 54.7628ZM293.448 85.4884L293.382 85.4296L291.242 83.6388L290.874 83.3303L288.982 81.7736L288.43 81.3189L286.616 79.8431L286.01 79.3518L283.754 77.5462L283.618 77.4402L283.6 77.4086L301 55.5253C304.894 67.9698 305.489 81.3883 302.688 93.5284C299.737 90.8679 296.644 88.1825 293.451 85.4867L293.448 85.4884ZM303.6 94.3582C306.546 82.1136 306.066 68.5528 302.27 55.9475C314.901 73.1086 321.16 92.3431 319.98 110.367C315.227 105.287 309.712 99.8889 303.603 94.3565L303.6 94.3582ZM256.587 32.5877C271.095 35.3123 285.657 42.1646 298.782 52.4273C278.034 42.236 256.986 40.409 239.198 47.2978C235.312 45.151 231.318 43.2054 227.232 41.4688L227.206 41.4585C226.752 41.2716 226.304 41.0893 225.865 40.9147L225.696 40.8472C225.268 40.6705 224.861 40.5237 224.455 40.372L224.446 40.3562C224.139 40.2409 223.84 40.1334 223.54 40.0308L223.296 39.9469C223.055 39.8613 222.815 39.7789 222.579 39.7028L222.402 39.6437C222.118 39.5485 221.838 39.4596 221.564 39.3753L221.361 39.3141L220.714 39.1221L220.498 39.0597C220.235 38.9863 219.973 38.9161 219.718 38.8505L219.617 38.8239C219.391 38.7667 219.172 38.7142 218.955 38.6648L218.743 38.6169C218.529 38.5657 218.318 38.5209 218.114 38.4807L218.011 38.472C217.774 38.425 217.549 38.3841 217.321 38.3448L217.137 38.3184C216.96 38.2884 216.784 38.2616 216.615 38.2394C216.561 38.2319 216.502 38.2229 216.45 38.2186C216.237 38.1917 216.029 38.1662 215.827 38.1502L215.698 38.1425C215.533 38.1266 215.371 38.117 215.208 38.1075L215.043 38.0996L214.92 38.0933C227.112 31.648 241.46 29.746 256.587 32.5877Z" fill="white"/>
<path d="M188.123 195.583L153.711 237.401L148.266 237.401L184.856 192.97" stroke="#030303" stroke-width="0.871197" stroke-linecap="round"/>
<path d="M135.753 263.66L135.753 263.66C134.947 264.641 133.203 266.719 131.356 268.669C130.432 269.643 129.484 270.584 128.617 271.339C127.745 272.098 126.971 272.654 126.391 272.879C124.902 273.432 123.518 273.01 122.526 272.081C121.528 271.147 120.931 269.706 121.037 268.245L121.037 268.244C121.057 267.959 121.159 267.597 121.336 267.172C121.511 266.749 121.756 266.274 122.052 265.764C122.644 264.744 123.435 263.596 124.272 262.466C125.946 260.208 127.794 258.04 128.573 257.148L128.573 257.148C128.807 256.879 129.078 256.564 129.376 256.218C130.339 255.096 131.588 253.642 132.819 252.343C133.625 251.493 134.418 250.714 135.113 250.142C135.461 249.856 135.781 249.624 136.063 249.461C136.342 249.3 136.568 249.216 136.74 249.201C137.115 249.229 137.478 249.346 137.798 249.544L137.933 249.627L138.033 249.504L148.785 236.366C148.831 236.313 148.891 236.275 148.959 236.255C149.027 236.236 149.099 236.237 149.167 236.259C149.234 236.28 149.294 236.321 149.339 236.376C149.383 236.431 149.411 236.498 149.417 236.568L149.434 236.74L149.607 236.731C151.187 236.646 152.756 236.409 154.291 236.025L154.349 236.01L154.387 235.964L154.867 235.377C154.867 235.377 154.867 235.377 154.867 235.377C154.898 235.34 154.935 235.31 154.977 235.287C155.018 235.265 155.064 235.251 155.112 235.247C155.159 235.242 155.207 235.247 155.252 235.26C155.298 235.274 155.34 235.297 155.377 235.327C155.413 235.357 155.444 235.394 155.466 235.436C155.489 235.478 155.503 235.524 155.507 235.571C155.512 235.619 155.507 235.666 155.493 235.712C155.479 235.757 155.457 235.8 155.427 235.836L141.69 252.539L141.596 252.653L141.689 252.768C141.911 253.042 142.09 253.3 142.213 253.531C142.338 253.765 142.399 253.956 142.403 254.1L142.403 254.1C142.406 254.229 142.351 254.439 142.223 254.733C142.098 255.02 141.913 255.364 141.68 255.752C141.215 256.527 140.568 257.461 139.855 258.432C138.43 260.373 136.751 262.447 135.753 263.66ZM135.893 263.775C137.889 261.348 142.622 255.466 142.584 254.095C142.573 253.725 142.282 253.213 141.829 252.654L135.893 263.775ZM145.944 241.088L145.845 241.075L145.782 241.153L138.674 249.845L138.55 249.997L138.712 250.108C139.52 250.663 140.275 251.289 140.97 251.981L141.111 252.121L141.237 251.967L149.72 241.637L149.95 241.357L149.588 241.342L149.568 241.341C148.356 241.29 147.146 241.24 145.944 241.088Z" fill="#030303" stroke="#030303" stroke-width="0.361422"/>
<path d="M278.425 80.2643C278.476 80.2101 278.515 80.1461 278.54 80.0762C278.565 80.0063 278.575 79.9321 278.571 79.858C278.566 79.7839 278.546 79.7117 278.512 79.6457C278.478 79.5797 278.431 79.5213 278.373 79.4743C278.316 79.4272 278.249 79.3925 278.178 79.3722C278.107 79.3519 278.032 79.3464 277.958 79.3562C277.885 79.366 277.814 79.3907 277.75 79.429C277.687 79.4672 277.632 79.5181 277.588 79.5785L250.348 112.69C250.301 112.745 250.264 112.808 250.242 112.877C250.219 112.946 250.211 113.018 250.217 113.091C250.222 113.163 250.243 113.233 250.276 113.297C250.31 113.361 250.356 113.418 250.411 113.464C250.467 113.51 250.532 113.545 250.601 113.565C250.67 113.586 250.743 113.593 250.815 113.585C250.887 113.577 250.957 113.555 251.02 113.52C251.083 113.485 251.139 113.438 251.183 113.381L278.425 80.2643Z" fill="white"/>
<path d="M222.903 153.787L222.903 153.787C222.941 153.742 222.967 153.688 222.978 153.631C222.99 153.574 222.988 153.515 222.971 153.459L222.971 153.459C222.955 153.402 222.924 153.35 222.883 153.307C222.842 153.265 222.791 153.233 222.735 153.214C222.734 153.214 222.734 153.214 222.734 153.214L222.79 153.042C222.529 152.959 222.28 152.866 222.03 152.773L222.903 153.787ZM222.903 153.787L222.902 153.788M222.903 153.787L222.902 153.788M222.902 153.788L219.119 158.391L219.119 158.391L188.388 195.762L188.388 195.762M222.902 153.788L188.388 195.762M188.388 195.762C188.358 195.798 188.321 195.829 188.279 195.851C188.237 195.874 188.191 195.887 188.144 195.892C188.096 195.897 188.048 195.892 188.003 195.878C187.958 195.864 187.915 195.842 187.879 195.812C187.842 195.781 187.811 195.744 187.789 195.702C187.767 195.66 187.753 195.615 187.748 195.567C187.743 195.52 187.748 195.472 187.762 195.427C187.776 195.381 187.798 195.339 187.829 195.302L188.388 195.762ZM213.196 158.163L218.63 151.556L187.829 195.302L217.488 159.237L217.78 158.882L217.325 158.943C216.129 159.101 214.915 159.058 213.734 158.814L213.627 158.792L213.558 158.876L184.869 193.724L184.869 193.725C184.839 193.761 184.802 193.792 184.76 193.814C184.718 193.836 184.672 193.85 184.625 193.855C184.577 193.86 184.529 193.855 184.484 193.841L184.431 194.014L184.484 193.841C184.439 193.827 184.396 193.805 184.359 193.774L184.245 193.914L184.359 193.774C184.323 193.744 184.292 193.707 184.27 193.665C184.248 193.623 184.234 193.577 184.229 193.53C184.224 193.483 184.229 193.435 184.243 193.39C184.257 193.344 184.279 193.302 184.31 193.265L213.196 158.163L213.196 158.163Z" fill="#030303" stroke="#030303" stroke-width="0.361422"/>
<path d="M279.926 84.7521C280.008 84.6408 280.045 84.5021 280.029 84.3645C280.012 84.2269 279.944 84.1009 279.837 84.0123C279.731 83.9236 279.594 83.8792 279.456 83.888C279.318 83.8968 279.188 83.9582 279.094 84.0596L253.502 115.2C253.457 115.255 253.423 115.318 253.402 115.386C253.382 115.454 253.374 115.525 253.381 115.596C253.388 115.666 253.409 115.735 253.442 115.797C253.475 115.86 253.521 115.916 253.575 115.961C253.63 116.006 253.693 116.04 253.761 116.06C253.829 116.081 253.9 116.088 253.971 116.082C254.041 116.075 254.11 116.054 254.173 116.021C254.235 115.988 254.291 115.942 254.336 115.888L279.926 84.7521Z" fill="white"/>
<path d="M253.886 115.651L223.176 153.548L218.82 151.37L250.619 113.038" stroke="white" stroke-width="0.871197" stroke-linecap="round"/>
<defs>
<clipPath id="clip0_215_270">
<rect width="327.578" height="355.557" fill="white" transform="translate(0.046875 147.212)"/>
</clipPath>
</defs>
</svg>
