<?xml version="1.0" encoding="utf-8"?>
<!-- Generator: Adobe Illustrator 26.0.1, SVG Export Plug-In . SVG Version: 6.00 Build 0)  -->
<svg version="1.1" id="Слой_1" xmlns="http://www.w3.org/2000/svg" xmlns:xlink="http://www.w3.org/1999/xlink" x="0px" y="0px"
	 viewBox="0 0 56 55" style="enable-background:new 0 0 56 55;" xml:space="preserve">
<style type="text/css">
	.st0{fill:#20201B;}
</style>
<path class="st0" d="M23.2,3.6c1.8-4.8,8.5-4.8,10.3,0l4.2,11.3c0.6,1.5,1.7,2.7,3.2,3.2l11.3,4.2c4.8,1.8,4.8,8.5,0,10.3L41,36.8
	c-1.5,0.6-2.7,1.7-3.2,3.2l-4.2,11.3c-1.8,4.8-8.5,4.8-10.3,0L19,40.1c-0.6-1.5-1.7-2.7-3.2-3.2L4.5,32.6c-4.8-1.8-4.8-8.5,0-10.3
	l11.3-4.2c1.5-0.6,2.7-1.7,3.2-3.2L23.2,3.6z"/>
</svg>
