<svg width="140" height="123" viewBox="0 0 140 123" fill="none" xmlns="http://www.w3.org/2000/svg">
<path fill-rule="evenodd" clip-rule="evenodd" d="M27.1883 57.9148C36.8645 71.19 48.2496 82.7737 61.401 92.6091C74.5782 102.464 88.7541 110.358 104.78 114.582C73.0609 103.671 48.2132 83.4237 27.1883 57.9148ZM107.287 105.739C105.187 104.259 102.823 103.52 100.291 103.256C100.17 102.354 99.3207 102.439 98.7627 102.184C95.5373 100.708 92.2043 99.4689 89.0955 97.7374C88.8101 97.5786 88.4785 97.206 87.9659 97.7237C92.062 99.7395 95.9703 101.976 100.345 103.197C102.569 104.322 104.883 105.196 107.338 105.69C109.509 106.62 111.781 107.185 114.103 107.565C111.817 107.011 109.765 105.584 107.287 105.739ZM123.189 106.74C102.083 103.142 83.682 93.5259 66.6828 80.7723C67.1583 81.188 67.6148 81.6279 68.1108 82.0171C83.4965 94.092 100.477 102.925 119.641 107.36C125.709 108.765 131.831 109.96 137.801 111.773C138.935 112.118 140.4 111.984 139.325 114.098C138.809 115.111 139.76 116.624 139.871 117.967C139.962 119.057 140.304 119.119 139.286 119.274C138.522 119.392 138.193 120.27 137.33 120.094C137.57 120.716 138.627 120.46 138.456 121.137C138.266 121.882 137.522 121.968 136.775 122.005C130.462 122.323 124.189 121.98 117.924 121.162C104.972 119.472 92.7071 115.586 81.1017 109.653C65.9135 101.888 52.4925 91.7188 40.3905 79.7353C26.0026 65.4874 15.1475 48.8677 6.86296 30.4998C3.87454 23.8751 1.17838 17.14 0.256944 9.84934C0.162302 9.10108 0.0676598 8.34979 0.0252601 7.597C-0.00881102 6.99008 -0.154181 6.18589 0.948209 6.70816C1.32299 6.88502 1.77955 6.78299 1.62585 6.35822C0.98228 4.57373 2.50715 3.65315 3.04926 2.33274C3.68526 0.784065 5.18363 0.506668 6.32918 0.153701C7.70414 -0.270313 8.68084 0.691096 9.23658 2.27907C14.4858 17.2662 22.8825 30.5172 32.3171 43.1439C46.0887 61.573 62.4769 77.2623 81.9595 89.6297C92.8858 96.5658 104.615 101.691 117.125 105.036C119.153 105.579 121.168 106.171 123.189 106.74Z" fill="#FDF9FA"/>
<path fill-rule="evenodd" clip-rule="evenodd" d="M116.777 80.002C118.554 81.1974 120.587 81.7259 122.739 81.7947C120.752 81.1974 118.764 80.5993 116.777 80.002ZM124.773 77.7754C122.13 76.9513 119.717 75.4565 116.903 75.2902C119.451 76.3948 122.015 77.4397 124.773 77.7754ZM130.9 77.8041C123.171 74.4381 115.179 71.7192 107.666 67.8255C114.72 72.8103 122.859 75.1957 130.9 77.8041ZM88.3845 70.9783C98.5191 80.9161 114.587 87.2029 124.195 87.3685C110.969 84.1975 110.095 83.7953 88.3845 70.9783ZM72.1953 35.6008C71.5829 34.9196 71.1049 34.3873 70.2147 33.3961C72.0519 33.9004 72.9847 34.7434 73.9108 35.5864C78.2521 39.5437 82.3657 43.7331 86.38 48.0284C93.3069 55.441 100.751 62.2184 109.575 67.3023C115.185 70.5345 121.224 72.7558 127.205 75.1261C128.901 75.7983 130.703 76.425 132.113 77.5236C132.895 78.133 133.16 79.537 134.23 80.1215C133.767 80.9653 132.98 80.1124 132.555 80.6591C133.211 81.9376 134.875 83.0309 133.185 84.7434C132.953 84.9785 133.672 85.2439 133.954 85.4828C134.594 86.0272 134.856 86.6744 134.559 87.4826C134.258 88.3 133.787 88.7982 132.804 88.9177C131.443 89.084 130.214 88.3937 128.647 88.4005C129.288 89.5074 130.303 89.2012 130.995 89.5649C131.479 89.8197 132.374 89.6919 132.314 90.5727C132.26 91.384 131.591 91.6985 130.892 91.818C130.294 91.92 129.676 91.9745 129.071 91.9495C113.134 91.2872 98.8701 86.0521 86.3919 75.9336C79.9631 70.7212 73.9257 65.118 69.0526 58.3337C66.6634 55.007 65.1391 51.281 64.0503 47.3547C63.6985 46.0853 63.4707 44.8037 64.5566 43.684C64.8023 43.4307 64.8785 42.934 64.8979 42.5423C65.054 39.3003 67.1093 37.0782 69.1019 34.9287C69.9331 34.0312 70.8151 35.7051 72.1953 35.6008Z" fill="#FDF9FA"/>
<path fill-rule="evenodd" clip-rule="evenodd" d="M138.227 111.475C134.199 110.032 129.931 109.688 125.816 107.957C127.556 107.631 136.13 110.013 138.227 111.475Z" fill="#FDF9FA"/>
</svg>
