<svg width="159" height="200" viewBox="0 0 159 200" fill="none" xmlns="http://www.w3.org/2000/svg">
<path d="M156.299 164.675C152.638 168.939 147.758 165.893 144.097 164.066C134.336 159.194 125.184 154.322 116.033 148.84C105.052 142.75 94.6801 135.441 82.4784 129.96C78.2078 142.141 75.7675 153.713 80.6482 165.893C81.2583 167.721 84.3088 170.157 81.2583 171.984C78.818 173.811 76.9878 171.375 75.1575 169.548C74.5474 168.939 73.3272 168.33 72.1071 167.112C69.0566 178.074 69.0566 189.037 64.786 200C61.1255 195.128 62.9558 192.082 63.5659 188.428C67.2264 168.939 68.4465 149.449 67.8364 129.351C67.8364 118.997 59.9053 113.516 49.5339 116.561C40.3826 119.606 31.2313 122.042 22.08 123.26C17.8094 123.869 13.5388 123.26 9.2682 121.433C1.94718 118.388 1.33717 111.079 7.43802 106.207C10.4884 103.771 14.1489 102.553 18.4195 101.944C26.9607 100.726 34.8918 101.335 43.433 103.162C45.8733 103.771 48.9239 104.989 51.3642 105.598C62.3457 108.643 67.2264 104.38 66.6163 93.4173C65.3962 73.3188 62.9558 53.2203 59.9054 33.1218C58.6852 24.5952 57.465 16.0686 56.2448 7.54198C56.2448 5.71484 56.2448 3.27869 58.6851 3.27869C60.5154 3.27869 61.7356 3.88769 62.3457 5.71483C63.5658 8.76005 65.3962 11.1963 66.6163 14.2415C72.7172 29.4676 79.4281 44.0847 87.3592 58.0927C89.1895 61.7469 90.4095 65.4012 94.6801 68.4464C98.9507 62.965 100.781 56.2656 103.831 50.7842C108.712 41.0394 114.203 31.2947 120.914 22.7681C125.184 17.2867 131.285 13.0234 137.996 10.5872C146.537 8.15102 153.858 11.8053 155.689 20.9409C156.909 27.0314 155.689 32.5128 153.248 37.9942C148.368 48.957 141.657 57.4836 132.505 65.4012C125.184 71.4916 117.253 78.1911 109.322 83.6725C105.052 86.7177 104.442 89.1539 107.492 93.4173C115.423 104.38 122.744 115.343 131.285 125.697C139.216 134.832 146.537 143.968 153.858 153.104C156.299 156.758 160.569 160.412 156.299 164.675ZM44.6532 111.689C34.2818 106.816 25.7406 106.816 17.1994 108.034C14.149 108.034 11.7087 109.252 11.7087 112.907C11.7087 116.561 14.7591 117.17 17.8095 117.17C26.3507 117.779 34.2818 115.343 44.6532 111.689ZM87.9693 75.1459C80.6483 59.9198 72.7171 45.3027 64.786 30.0766C64.1759 30.0766 64.176 30.6857 63.5659 30.6857C66.0063 53.2203 68.4465 75.1459 70.8868 97.6805C75.7675 97.6805 78.818 95.8534 81.8685 93.4173C87.9693 90.372 91.0197 80.6273 87.9693 75.1459ZM80.6482 102.553C71.497 106.816 71.4969 106.816 73.9373 116.561C79.428 112.907 80.0381 108.034 80.6482 102.553ZM144.097 154.322C129.455 134.832 113.593 116.561 100.781 95.8534C98.3406 92.1991 94.6802 92.1992 92.8499 96.4625C90.4096 102.553 88.5793 109.252 86.139 115.343C84.3087 119.606 85.5289 122.651 89.7995 125.088C107.492 134.832 124.574 146.404 144.097 154.322ZM98.9508 79.4092C102.611 80.6273 103.831 80.0183 105.052 79.4092C116.033 71.4916 126.405 62.965 135.556 53.2203C141.047 47.7389 144.707 41.0394 146.537 33.7309C147.758 30.0766 148.368 25.8134 147.147 22.1591C145.927 16.0687 142.267 14.2414 136.776 17.8957C132.506 20.3319 128.845 23.3771 126.405 27.0314C114.813 42.8665 106.882 60.5288 98.9508 79.4092Z" fill="#FDF9FA"/>
<path d="M155.571 164.087C151.849 168.421 146.887 165.325 143.166 163.467C133.242 158.514 123.938 153.56 114.634 147.988C103.469 141.796 92.9251 134.365 80.5201 128.793C76.1783 141.176 73.6974 152.941 78.6594 165.325C79.2797 167.183 82.381 169.659 79.2797 171.517C76.7987 173.375 74.9379 170.898 73.0772 169.04C72.4569 168.421 71.2164 167.802 69.9759 166.563C66.8746 177.709 66.8746 188.854 62.5328 200C58.8113 195.046 60.6721 191.95 61.2924 188.235C65.0139 168.421 66.2543 148.607 65.634 128.173C65.634 117.647 57.5708 112.074 47.0265 115.17C37.7227 118.266 28.4189 120.743 19.1151 121.981C14.7733 122.601 10.4315 121.981 6.08971 120.124C-1.35332 117.028 -1.9735 109.597 4.22903 104.644C7.3303 102.167 11.0517 100.929 15.3935 100.31C24.0771 99.0712 32.1404 99.6904 40.8239 101.548C43.3049 102.167 46.4063 103.406 48.8873 104.025C60.0519 107.121 65.0139 102.786 64.3937 91.6409C63.1531 71.2074 60.6721 50.774 57.5708 30.3405C56.3303 21.6718 55.0898 13.0031 53.8493 4.33435C53.8493 2.47676 53.8492 0 56.3303 0C58.191 0 59.4316 0.619157 60.0518 2.47674C61.2923 5.57272 63.1531 8.04955 64.3937 11.1455C70.5962 26.6254 77.4189 41.4861 85.4822 55.7275C87.343 59.4427 88.5834 63.1579 92.9251 66.2538C97.2669 60.6811 99.1277 53.87 102.229 48.2972C107.191 38.3901 112.773 28.483 119.596 19.8142C123.938 14.2415 130.14 9.9071 136.963 7.43032C145.647 4.95354 153.09 8.66869 154.95 17.9566C156.191 24.1486 154.95 29.7213 152.469 35.2941C147.507 46.4396 140.685 55.1083 131.381 63.1579C123.938 69.3498 115.875 76.161 107.811 81.7337C103.47 84.8297 102.849 87.3065 105.951 91.6409C114.014 102.786 121.457 113.932 130.14 124.458C138.204 133.746 145.647 143.034 153.09 152.322C155.571 156.037 159.913 159.752 155.571 164.087ZM42.0645 110.217C31.5202 105.263 22.8367 105.263 14.1531 106.502C11.0519 106.502 8.57088 107.74 8.57088 111.455C8.57088 115.17 11.6721 115.789 14.7734 115.789C23.457 116.409 31.5202 113.932 42.0645 110.217ZM86.1025 73.065C78.6595 57.5852 70.5961 42.7244 62.5328 27.2445C61.9125 27.2445 61.9126 27.8638 61.2924 27.8638C63.7734 50.774 66.2543 73.065 68.7353 95.9752C73.6973 95.9752 76.7987 94.1177 79.9 91.6409C86.1025 88.5449 89.2038 78.6378 86.1025 73.065ZM78.6594 100.929C69.3556 105.263 69.3556 105.263 71.8366 115.17C77.4189 111.455 78.0391 106.502 78.6594 100.929ZM143.166 153.56C128.28 133.746 112.153 115.17 99.1277 94.1176C96.6467 90.4025 92.9252 90.4025 91.0645 94.7369C88.5835 100.929 86.7227 107.74 84.2416 113.932C82.3809 118.266 83.6214 121.362 87.9632 123.839C105.951 133.746 123.318 145.511 143.166 153.56ZM97.267 77.3994C100.989 78.6378 102.229 78.0186 103.47 77.3994C114.634 69.3498 125.178 60.6811 134.482 50.774C140.064 45.2012 143.786 38.3901 145.647 30.9597C146.887 27.2446 147.507 22.9103 146.267 19.1951C145.026 13.0031 141.305 11.1455 135.723 14.8606C131.381 17.3374 127.659 20.4334 125.178 24.1486C113.394 40.2476 105.33 58.2043 97.267 77.3994Z" fill="#F1A5C3"/>
</svg>
