<svg width="57" height="20" viewBox="0 0 57 20" fill="none" xmlns="http://www.w3.org/2000/svg">
<path d="M55.0156 8.7548V10.7578L0.999592 10.7578V8.7548L55.0156 8.7548Z" fill="#030303"/>
<path d="M-0.00587654 9.75572C-0.00587654 10.0121 0.0916214 10.2685 0.287249 10.4641L9.04042 19.2173C9.43168 19.6086 10.0653 19.6086 10.4566 19.2173C10.8478 18.826 10.8478 18.1924 10.4566 17.8012L2.41111 9.75572L10.4566 1.70961C10.8478 1.31835 10.8478 0.684727 10.4566 0.29347C10.0653 -0.097784 9.43168 -0.097784 9.04042 0.29347L0.287249 9.04732C0.0916214 9.24361 -0.00587654 9.49934 -0.00587654 9.75572Z" fill="#030303"/>
<path d="M54.0126 2.7775V16.7338C54.0126 17.2867 54.4613 17.7354 55.0141 17.7354C55.5669 17.7354 56.0156 17.2867 56.0156 16.7338V2.7775C56.0156 2.22467 55.5669 1.77599 55.0141 1.77599C54.4613 1.77599 54.0126 2.22467 54.0126 2.7775Z" fill="#030303"/>
</svg>
