<svg width="26" height="10" viewBox="0 0 26 10" fill="none" xmlns="http://www.w3.org/2000/svg">
<path d="M0.460938 4.5377L0.460938 5.46387L25.4371 5.46387V4.5377L0.460938 4.5377Z" fill="#030303"/>
<path d="M25.903 5.00017C25.903 5.11872 25.858 5.23727 25.7675 5.32773L21.7202 9.37506C21.5393 9.55597 21.2463 9.55597 21.0654 9.37506C20.8845 9.19415 20.8845 8.90117 21.0654 8.72026L24.7855 5.00017L21.0654 1.27977C20.8845 1.09886 20.8845 0.805882 21.0654 0.62497C21.2463 0.44406 21.5393 0.44406 21.7202 0.62497L25.7675 4.67262C25.858 4.76338 25.903 4.88162 25.903 5.00017Z" fill="#030303"/>
<path d="M0.926164 1.77366L0.926164 8.22686C0.926164 8.48248 0.718704 8.68994 0.463082 8.68994C0.207461 8.68994 0 8.48248 0 8.22686L0 1.77366C0 1.51804 0.207461 1.31058 0.463082 1.31058C0.718704 1.31058 0.926164 1.51804 0.926164 1.77366Z" fill="#030303"/>
</svg>
