<svg width="56" height="55" viewBox="0 0 56 55" fill="none" xmlns="http://www.w3.org/2000/svg">
<path d="M23.2436 3.57809C25.009 -1.1927 31.7567 -1.1927 33.522 3.57809L37.7206 14.9246C38.2757 16.4246 39.4582 17.6072 40.9582 18.1622L52.3047 22.3608C57.0755 24.1261 57.0755 30.8739 52.3047 32.6392L40.9582 36.8378C39.4582 37.3928 38.2757 38.5754 37.7206 40.0754L33.522 51.4219C31.7567 56.1927 25.009 56.1927 23.2436 51.4219L19.045 40.0754C18.49 38.5754 17.3074 37.3928 15.8075 36.8378L4.4609 32.6392C-0.309885 30.8739 -0.309885 24.1261 4.4609 22.3608L15.8075 18.1622C17.3074 17.6072 18.49 16.4246 19.045 14.9247L23.2436 3.57809Z" fill="url(#paint0_linear_129_1630)"/>
<defs>
<linearGradient id="paint0_linear_129_1630" x1="28.3828" y1="0" x2="28.3828" y2="55" gradientUnits="userSpaceOnUse">
<stop stop-color="#FD2FE8"/>
<stop offset="1" stop-color="#4AE5E8"/>
</linearGradient>
</defs>
</svg>
