<svg width="20" height="19" viewBox="0 0 20 19" fill="none" xmlns="http://www.w3.org/2000/svg">
<path fill-rule="evenodd" clip-rule="evenodd" d="M14.0584 15.5037C14.5371 15.073 14.3462 14.8412 13.9212 14.4312C13.0067 13.5487 12.1784 12.5677 11.3856 11.5706C10.3057 10.2131 9.30108 8.79577 8.24593 7.41801C7.58059 6.54935 7.28121 5.4787 6.6796 4.59187C6.14483 3.80358 5.98851 2.92707 5.75134 2.05767C5.71375 1.91991 5.74541 1.76265 5.70457 1.6265C5.63695 1.40103 6.10099 1.03977 5.45724 0.940076C4.90135 0.853816 4.52858 0.89951 4.35944 1.4762C4.11207 2.32047 4.3873 3.10674 4.658 3.88613C5.41961 6.08009 6.66555 8.01799 7.93117 9.93727C9.26509 11.9604 10.8051 13.8292 12.5121 15.5456C13.2149 16.2522 13.8937 17.0128 14.8089 17.503C14.5817 16.9018 14.0333 16.564 13.633 16.1112C13.1873 15.6065 12.6952 15.1421 12.216 14.6679C12.0709 14.5242 11.9389 14.3919 12.0385 14.1693C11.9415 14.1474 11.8211 14.1553 11.7594 14.0988C10.6543 13.0923 9.74093 11.9255 8.93411 10.6725C8.86504 10.565 8.98642 10.5092 9.03958 10.4427C8.88463 10.4671 8.73852 10.4585 8.64385 10.3216C8.03004 9.43558 7.35053 8.59054 6.94236 7.57294C7.73509 8.46184 8.17021 9.61164 9.03293 10.4474C9.88531 11.8073 10.9412 13.0029 12.0336 14.1688C12.3166 14.4871 12.5957 14.8087 12.8836 15.1223C13.1316 15.3922 13.121 15.3468 13.5197 15.2008C13.6914 15.1382 13.9174 15.3269 14.06 15.5019L14.0584 15.5037Z" fill="#F1A5C3"/>
<path fill-rule="evenodd" clip-rule="evenodd" d="M1.48499 14.8594C1.47958 15.0729 1.21699 15.2289 1.34781 15.4726C1.47758 15.548 1.52943 15.4122 1.63855 15.3761C1.64924 15.061 1.80583 14.8286 1.99105 14.5711C2.17391 14.317 2.43192 14.1311 2.5814 13.8413C2.72237 13.5685 2.96756 13.3482 3.17342 13.1106C3.38091 12.8708 3.59668 12.6385 3.80787 12.4021C3.97465 12.2161 4.12366 12.0106 4.30884 11.8452C4.75071 11.45 5.14241 11.0078 5.55536 10.5853C5.76976 10.3659 6.0198 10.1845 6.23842 9.96248C6.61369 9.58153 7.06468 9.27541 7.44371 8.89726C7.85183 8.49039 8.33714 8.17672 8.74614 7.78032C9.66819 6.88683 10.7386 6.18232 11.7252 5.37189C11.8854 5.24012 12.0556 5.11913 12.2169 4.98533C12.5708 4.69185 12.9119 4.36067 13.3823 4.26323C13.5634 4.22564 13.5016 4.01728 13.6923 3.95466C13.8583 3.90037 14.0565 3.76813 14.1982 3.61476C14.3421 3.45913 14.5409 3.37269 14.7057 3.24869C14.9039 3.09965 15.1312 2.96997 15.3471 2.8129C15.5449 2.81073 15.7525 2.8125 15.9598 2.80171C15.995 2.79993 16.0272 2.74386 16.0562 2.71691C16.0281 2.61228 15.8513 2.71 15.8823 2.50334C16.0421 2.34279 16.2445 2.17179 16.5377 2.10344C16.5879 2.13045 16.5367 2.21156 16.5664 2.26636C16.5943 2.31762 16.6736 2.35381 16.5768 2.4206C16.4712 2.49356 16.6142 2.51951 16.613 2.58033C16.4909 2.68 16.3495 2.54756 16.2237 2.5993C16.0543 2.72762 16.313 2.80708 16.2456 2.94173C16.1305 3.02915 15.9708 3.05548 15.8136 3.10733L15.79 3.3018C15.5074 3.53476 15.081 3.54493 14.9069 3.91651C14.8239 4.09322 14.5689 4.01497 14.4851 4.23203C14.4264 4.38356 14.2044 4.39021 14.0574 4.44739C13.9586 4.45825 13.9576 4.35517 13.8795 4.32966C13.7367 4.51533 13.9706 4.58456 14.0113 4.71279C13.9153 4.78787 13.8183 4.86383 13.7211 4.93996C13.6886 4.9024 13.6557 4.8646 13.6227 4.82699C13.5108 4.93748 13.3176 4.89721 13.2334 5.03743C13.1853 5.14042 13.2579 5.20101 13.3044 5.26645C13.2422 5.31517 13.1867 5.35864 13.1321 5.40144C13.0996 5.36369 13.0669 5.32572 13.0331 5.28685C12.9273 5.55144 12.9273 5.55144 12.6733 5.76073C12.5459 5.74018 12.7003 5.54128 12.4483 5.54643C12.3039 5.5963 12.3659 5.98854 12.0593 5.95483C12.0896 6.01225 12.1194 6.06803 12.1682 6.15992C11.9566 6.2876 11.7871 6.4751 11.59 6.58853C11.3678 6.71668 11.2399 6.93582 10.9994 7.05686L10.6802 7.0181C10.6537 7.19562 10.434 7.24631 10.3922 7.39637C10.2516 7.90097 9.80835 8.09802 9.43698 8.35343C9.30096 8.44711 9.13669 8.49341 9.06001 8.65662C9.03549 8.70893 9.01193 8.74046 8.94745 8.73244C8.67503 8.69917 8.53012 8.83221 8.47055 9.09109C8.44058 9.22207 8.34557 9.29338 8.20529 9.28045C7.97828 9.25933 7.88829 9.43402 7.77856 9.52679C7.76462 9.7156 7.93398 9.6242 7.96605 9.7463C7.83229 9.75527 7.80047 10.0415 7.58374 9.8601C7.57025 9.84889 7.4395 9.92328 7.43175 9.96943C7.40014 10.1541 7.30942 10.285 7.14937 10.3738C7.16634 10.6347 6.95396 10.7312 6.78779 10.8398C6.56647 10.9843 6.42078 11.2026 6.25021 11.3861C6.03765 11.6145 5.82349 11.8061 5.53734 11.9246C5.45773 11.9575 5.38845 12.0147 5.33288 12.0492C5.33212 12.2695 5.27003 12.3995 5.13142 12.5386C4.67326 12.9988 4.19901 13.4482 3.82993 13.989C3.70115 14.1775 3.50567 14.2233 3.3075 14.2206C3.17782 14.2185 3.12579 14.3075 3.05937 14.3429C3.14078 14.6845 2.73205 14.876 2.85112 15.1778C2.69037 15.2611 2.57288 15.1732 2.43632 15.2068C2.32464 15.4765 2.20534 15.7639 2.08734 16.0487C2.11636 16.1476 2.26312 16.0798 2.28136 16.2305C2.23913 16.3514 2.06508 16.4493 2.14894 16.7209C2.03832 16.5957 2.00535 16.5583 1.97322 16.522C1.87723 16.5498 1.95221 16.7031 1.8269 16.7101C1.67602 16.7137 1.6569 16.559 1.57087 16.4854C1.42023 16.5402 1.27042 16.5945 1.12917 16.6459C1.00863 16.5074 1.09385 16.4427 1.18413 16.3783C1.13171 16.2967 1.10606 16.1877 0.971442 16.1829C0.834427 16.1672 0.930165 16.341 0.817583 16.3703C0.604346 16.0668 0.976204 15.7944 0.826664 15.4957C0.94765 15.4278 1.03889 15.3763 1.12902 15.3259C1.0892 15.2693 1.07005 15.242 1.03489 15.192C1.13251 15.0462 1.23564 14.8903 1.34146 14.7364C1.3462 14.7296 1.37508 14.7396 1.3926 14.7417C1.46573 14.7476 1.49652 14.7869 1.48499 14.8594" fill="#F1A5C3"/>
</svg>
