<svg width="14" height="18" viewBox="0 0 14 18" fill="none" xmlns="http://www.w3.org/2000/svg">
<path d="M7.13895 8.77528C8.10171 6.72224 9.15019 4.86454 10.2946 3.14392C10.6304 2.60237 11.0245 2.0711 11.4665 1.60836C11.9771 1.09764 12.426 0.936487 12.8133 1.12493C13.3069 1.39218 13.2727 1.92683 13.2488 2.40322C13.0982 3.93863 12.8208 5.51178 12.3789 6.99582C11.6835 9.57661 10.8716 12.1369 9.83697 14.5977C9.52862 15.3243 9.16202 16.0407 8.64116 16.6097C7.89414 17.4392 6.92082 17.5078 6.17014 16.6546C5.61142 16.0755 5.06299 15.4381 4.64135 14.763C2.62913 11.5245 1.13437 8.07696 0.537507 4.30711C0.390016 3.44004 0.300795 2.58324 0.465172 1.65101C0.701463 0.310941 1.48283 -0.0318802 2.62419 0.649976C3.27199 1.06458 3.7827 1.57516 4.21461 2.192C4.94474 3.1618 5.46927 4.27557 5.92526 5.43733C6.27498 6.52029 6.63498 7.54498 7.13895 8.77528ZM12.3405 1.76247C11.871 2.04014 11.6243 2.41716 11.3879 2.73592C10.0378 4.60052 8.91051 6.56448 7.94775 8.61751C7.65995 9.2276 7.25562 9.81713 7.60872 10.5402C7.64644 10.667 7.61561 10.8418 7.48881 10.8795C7.29347 10.9652 7.1975 10.8282 7.10152 10.6911C7.01581 10.4957 6.9301 10.3004 6.8444 10.1051C6.36097 8.75824 5.809 7.4594 5.32558 6.11257C4.90731 5.07761 4.48905 4.04266 3.87545 3.09341C3.44354 2.47657 3.01163 1.85972 2.43236 1.39713C2.21985 1.23951 2.01761 1.02363 1.69547 1.14705C1.43159 1.28075 1.38023 1.57207 1.38713 1.87366C1.39065 2.53511 1.40444 3.13831 1.46623 3.81003C1.91912 7.37427 3.32815 10.6265 5.0696 13.697C5.57695 14.5675 6.14255 15.4482 6.85551 16.1747C7.25999 16.6064 7.43479 16.6373 7.87683 16.1745C8.31888 15.7118 8.66495 15.112 8.88422 14.5499C10.4945 10.8688 11.7072 7.05761 12.4058 3.09565C12.4194 2.67753 12.5599 2.22168 12.3405 1.76247Z" fill="#F1A5C3"/>
</svg>
