<svg width="27" height="41" viewBox="0 0 27 41" fill="none" xmlns="http://www.w3.org/2000/svg">
<path d="M1.7041 27.8439C2.52807 25.9213 3.21471 24.4107 3.90135 22.9001C6.6479 16.8577 8.84512 10.5407 8.84512 3.81164C8.84512 2.85034 8.43315 1.20241 9.66909 0.927753C11.1797 0.653098 11.317 2.43835 11.5917 3.53696C13.1023 7.93144 15.0249 12.1886 18.1834 15.8964C20.518 18.643 20.6553 18.643 24.2258 17.407C24.7751 17.1324 25.4617 16.8577 26.2857 17.5444C21.0673 22.0762 18.458 27.8439 16.8101 34.0237C16.3981 35.3969 16.1235 36.7702 15.8488 38.1435C15.5742 38.9674 15.4368 39.9287 14.3382 40.066C13.3769 40.2034 12.8276 39.5167 12.2783 38.6928C10.905 36.3582 9.25711 34.161 7.33453 32.2384C5.82393 30.4531 4.17599 28.6679 1.7041 27.8439ZM4.86264 27.9812C6.92255 29.3545 8.7078 31.1398 10.3557 33.0623C11.317 34.161 12.4156 35.2596 13.6516 36.7702C15.1622 30.5905 17.2221 24.96 20.7926 20.1536C15.9861 16.9951 13.3769 12.4632 10.7677 7.65679C9.53177 14.1112 7.05987 20.0163 4.176 25.6467C3.62669 26.608 3.76402 27.2946 4.86264 27.9812Z" fill="#FDF9FA"/>
<path d="M0.887695 27.0285C1.71166 25.1059 2.3983 23.5953 3.08494 22.0847C5.83149 16.0423 8.02871 9.72525 8.02871 2.99621C8.02871 2.03492 7.61674 0.386978 8.85269 0.112323C10.3633 -0.162331 10.5006 1.62292 10.7753 2.72153C12.2859 7.11601 14.2084 11.3732 17.367 15.081C19.7015 17.8275 19.8389 17.8276 23.4094 16.5916C23.9587 16.317 24.6453 16.0423 25.4693 16.7289C20.2508 21.2607 17.6416 27.0285 15.9937 33.2082C15.5817 34.5815 15.3071 35.9548 15.0324 37.328C14.7578 38.152 14.6204 39.1133 13.5218 39.2506C12.5605 39.3879 12.0112 38.7013 11.4619 37.8773C10.0886 35.5428 8.44071 33.3455 6.51813 31.423C5.00752 29.6377 3.35959 27.8525 0.887695 27.0285ZM4.04623 27.1658C6.10614 28.5391 7.8914 30.3243 9.53932 32.2469C10.5006 33.3455 11.5992 34.4442 12.8352 35.9548C14.3458 29.775 16.4057 24.1446 19.9762 19.3382C15.1697 16.1796 12.5605 11.6478 9.95131 6.84136C8.71536 13.2957 6.24347 19.2008 3.35959 24.8312C2.81028 25.7925 2.94761 26.4792 4.04623 27.1658Z" fill="#F1A5C3"/>
</svg>
