<?xml version="1.0" encoding="utf-8"?>
<!-- Generator: Adobe Illustrator 28.0.0, SVG Export Plug-In . SVG Version: 6.00 Build 0)  -->
<svg version="1.1" id="Слой_1" xmlns="http://www.w3.org/2000/svg" xmlns:xlink="http://www.w3.org/1999/xlink" x="0px" y="0px"
	 viewBox="0 0 7.3 10.3" style="enable-background:new 0 0 7.3 10.3;" xml:space="preserve">
<style type="text/css">
	.st0{fill:#F1A5C3;}
</style>
<path class="st0" d="M1.5,7.6c0-0.5,0.1-0.8,0.1-1.2c0.1-1.5,0.1-3-0.4-4.5c-0.1-0.2-0.3-0.5,0-0.7c0.3-0.2,0.5,0.2,0.6,0.4
	c0.7,0.8,1.4,1.6,2.3,2.1c0.7,0.4,0.7,0.4,1.4-0.1c0.1-0.1,0.2-0.2,0.4-0.1C5.2,4.9,5,6.4,5.2,7.8c0,0.3,0.1,0.6,0.1,1
	c0,0.2,0.1,0.4-0.2,0.5c-0.2,0.1-0.4,0-0.5-0.1c-0.5-0.4-1-0.7-1.5-1C2.6,7.9,2.1,7.6,1.5,7.6z M2.2,7.4c0.5,0.1,1.1,0.4,1.6,0.7
	c0.3,0.2,0.6,0.3,1,0.5C4.6,7.2,4.6,5.8,5,4.5C3.7,4.2,2.8,3.4,1.9,2.6C2.1,4.1,2,5.5,1.8,7C1.8,7.2,1.9,7.3,2.2,7.4z"/>
</svg>
