<svg width="150" height="89" viewBox="0 0 150 89" fill="none" xmlns="http://www.w3.org/2000/svg">
<path fill-rule="evenodd" clip-rule="evenodd" d="M125.289 9.80913C125.247 9.67026 125.207 9.53076 125.166 9.3919C122.092 10.1796 119.019 10.9667 115.944 11.7545C115.994 11.9183 116.043 12.0828 116.092 12.2479C119.158 11.4352 122.223 10.6218 125.289 9.80913ZM20.7385 76.2287C19.1467 75.3693 17.2201 74.8849 17.6938 72.7482C17.996 71.3896 18.2505 69.9594 18.9185 68.7461C20.9813 64.9968 22.894 61.1156 25.4941 57.6959C28.9468 53.1556 33.849 50.1704 40.0131 49.9464C45.8945 49.732 51.8007 50.0168 57.6945 50.1557C65.79 50.3457 73.9195 51.001 81.4487 47.1755C86.2796 44.7208 90.3824 41.7368 92.9749 37.0264C95.9055 31.6996 99.0028 26.4228 102.474 21.3873C107.311 14.3686 114.139 9.79569 123.267 8.60031C124.191 8.47937 125.365 8.11717 126.014 8.48513C127.11 9.10777 128.024 10.1425 128.705 11.1792C128.943 11.5408 128.461 12.7227 127.965 12.9953C126.903 13.5796 125.585 13.7491 124.432 14.2144C123.516 14.583 122.688 15.1378 121.823 15.6139C121.664 15.7015 121.502 15.9031 121.361 15.889C118.282 15.5697 116.889 18.0686 114.753 19.2973C109.817 22.1379 106.863 26.547 104.186 31.1307C101.658 35.4598 99.2517 39.8503 96.6752 44.1538C95.9408 45.3812 94.9609 46.5734 93.8151 47.4833C90.4889 50.1275 87.0845 52.4754 82.8421 54.0925C74.6151 57.2281 66.3522 56.3386 57.9607 55.8804C52.764 55.5963 47.5043 55.3314 42.3401 55.7588C35.7852 56.3008 31.244 60.1353 27.6129 65.007C26.6572 66.2888 25.2057 67.2525 24.239 68.5285C23.5986 69.3745 23.4666 70.5372 23.0178 71.5233C22.3173 73.0668 21.5421 74.5809 20.7385 76.2287Z" fill="#FDF9FA"/>
<path fill-rule="evenodd" clip-rule="evenodd" d="M19.3202 37.1882C19.4121 37.3413 19.5047 37.4951 19.5959 37.6483C21.1537 36.8517 22.7123 36.0552 24.2708 35.2586C24.1672 35.085 24.0636 34.9113 23.9599 34.7376C22.4138 35.5547 20.8663 36.3711 19.3202 37.1882ZM65.0387 37.16C65.0794 37.301 65.1202 37.442 65.161 37.5829C67.0594 37.1062 68.9571 36.63 70.8556 36.1532C70.8148 36.0142 70.7747 35.8758 70.7347 35.7367C68.8362 36.2115 66.9378 36.6858 65.0387 37.16ZM105.872 0.713771C105.522 0.988049 105.172 1.26297 104.632 1.6872H106.364C107.597 3.78337 106.817 5.31689 105.13 6.66521C103.66 7.83986 102.299 9.17792 100.123 9.11448C99.8985 9.10807 99.5241 9.1933 99.4619 9.33108C98.635 11.1549 97.1863 11.0786 95.6215 10.4231C95.531 11.2876 95.6498 12.1674 95.3099 12.8518C94.9445 13.5888 94.1728 14.1643 93.5379 14.7737C89.8647 18.297 88.4319 22.8553 86.5901 27.2719C84.8962 31.3329 82.5349 35.092 78.3346 37.4682C77.7854 37.7784 77.0718 37.8393 76.0286 38.1276C75.3516 39.1536 74.3533 40.4231 72.2048 40.6109C70.955 40.7205 69.8041 41.7336 68.5495 41.8714C65.0953 42.2501 61.5707 42.7814 58.1476 42.4949C54.9731 42.229 51.8132 41.1857 48.7901 40.1309C42.2147 37.8373 35.4921 37.4868 28.7509 38.8569C25.0072 39.6182 21.5365 41.2742 18.9886 44.1983C18.2177 45.0833 17.1648 45.7517 16.2812 46.5572C11.978 50.4791 8.58873 54.9887 6.21155 60.1403C5.47856 61.7302 4.78012 63.3343 4.04991 64.9261C3.70518 65.6746 3.31347 66.0463 2.35182 65.4452C-0.0149999 63.9655 -0.372855 62.9978 0.304169 60.2736C3.02124 49.3352 10.1804 41.376 19.9068 35.1907C24.2162 32.4498 29.2711 31.891 34.3108 32.0211C37.7104 32.1096 41.1287 32.71 44.4655 33.39C47.577 34.0237 50.5753 35.1183 53.6516 35.9148C57.3904 36.8825 61.1223 36.2391 64.8314 35.6572C74.1875 34.1891 79.9767 29.0361 82.8306 20.754C85.9947 11.5702 92.3525 4.92598 101.78 0.871417C102.948 0.369643 104.339 0.315172 105.626 0.0537109C105.708 0.273517 105.79 0.493324 105.872 0.713771Z" fill="#FDF9FA"/>
<path fill-rule="evenodd" clip-rule="evenodd" d="M122.727 39.3899C122.002 40.1221 121.266 40.8447 120.558 41.5896C120.254 41.9096 119.699 42.4866 119.78 42.5878C120.883 43.9631 119.723 45.1107 118.921 45.6361C116.863 46.9854 117.537 48.9008 117.252 50.6031C117.082 51.6152 115.715 53.2018 114.712 53.3761C114.63 52.9142 114.55 52.4632 114.471 52.0122C114.031 52.2119 113.513 52.3341 113.168 52.6286C112.573 53.1362 112.085 53.7514 111.394 54.4906C112.114 54.621 112.606 54.7101 113.124 54.8029C113.223 55.3837 113.32 55.9429 113.415 56.4957C111.534 57.1388 109.638 57.448 108.197 58.9423C107.413 59.7553 106.328 60.1357 106.948 61.478C107.001 61.5918 106.252 62.2337 106.13 62.1752C103.197 60.7655 101.603 63.277 100.711 64.5919C99.9746 65.6752 99.116 66.256 98.168 66.6695C97.4408 66.9863 96.3393 66.5544 95.4008 66.4831C95.1669 66.4653 94.9241 66.5537 94.5622 66.6129C94.6049 67.1301 94.6434 67.5983 94.6798 68.055C92.9998 68.716 92.9998 68.716 89.1862 67.7369C88.8477 69.6861 87.1374 70.3426 84.9234 69.2821C84.7982 69.6702 84.6799 70.0391 84.6634 70.09C82.3744 70.0436 79.9809 67.9138 78.0112 71.0347C76.2781 69.2662 74.4804 70.0252 72.5141 70.9507C71.5922 71.3839 70.3456 71.3165 69.2455 71.3235C64.7529 71.3515 60.3353 71.6289 55.9652 72.835C53.8241 73.426 52.0099 74.6295 49.9906 75.176C45.6295 76.3567 43.6288 79.935 40.5713 82.4013C39.1369 83.5584 38.4062 85.4528 37.3226 86.9929C36.6615 87.9319 36.3773 89.4141 34.4585 88.5356C32.9732 87.8562 32.4131 86.9866 33.1011 85.318C36.2982 77.5666 41.4685 71.5449 49.99 68.1549C56.4062 65.604 63.0914 65.5709 69.8316 65.4017C74.188 65.2923 78.5382 65.0079 82.8938 64.8272C83.5674 64.7999 84.7156 64.2337 84.4102 65.7102L84.4177 65.6816L83.5757 65.9774C83.5688 66.0683 83.5626 66.1593 83.5557 66.2503C83.9774 66.2859 84.4088 66.389 84.8175 66.3393C85.2984 66.2815 85.7648 65.9615 86.2292 65.9774C89.9802 66.104 93.1408 64.4239 96.2801 62.9614C99.6155 61.4073 102.727 59.427 105.866 57.5345C106.822 56.9588 107.55 56.0587 108.383 55.3068L108.328 55.3494C108.943 54.8977 109.558 54.4454 110.561 53.7081C109.428 53.6426 108.852 53.6095 107.941 53.5574C109.174 52.168 110.201 50.848 111.417 49.6985C112.223 48.9364 112.779 49.2691 113.353 50.6229C114.271 50.5637 115.156 50.5071 116.216 50.4384C115.707 49.8029 115.278 49.266 114.974 48.8887C114.169 48.8277 113.172 48.9708 113.008 48.6928C112.706 48.1813 112.78 47.4027 112.905 46.7704C113.082 45.8785 113.379 44.9911 113.76 44.1546C113.989 43.652 114.475 43.25 115.029 42.5814C114.667 41.2016 115.293 39.7811 117.944 36.629C118.305 36.7951 118.687 36.9694 119.159 37.1856C118.923 35.0514 119.158 34.7079 120.289 34.795V36.9814L120.25 36.9325C120.647 37.6831 121.042 38.4331 121.483 39.2709C121.589 39.2442 121.979 39.1437 122.371 39.0425C122.489 39.1583 122.608 39.2741 122.727 39.3899Z" fill="#FDF9FA"/>
<path fill-rule="evenodd" clip-rule="evenodd" d="M123.413 38.0782C123.297 37.9638 123.18 37.8494 123.063 37.7349C123.31 35.3067 123.201 35.1986 120.974 35.6494L121.012 35.6978C121.819 34.9854 122.627 34.2724 123.533 33.4708C122.962 33.1313 122.416 32.8068 121.581 32.3107C122.294 31.926 122.804 31.6367 123.33 31.3764C123.504 31.2903 123.806 31.3437 123.908 31.2268C127.885 26.6791 133.161 23.9315 138.995 22.0691C141.694 21.2078 144.542 20.7494 147.327 20.1301C147.725 20.0414 148.156 20.0779 148.571 20.0565L148.746 20.601C145.252 21.5529 141.758 22.5049 138.265 23.4568C138.31 23.6146 138.355 23.7724 138.4 23.9309C142.026 23.0016 145.652 22.0717 149.244 21.1512C150.506 23.7347 150.311 24.0522 147.716 25.0865C144.311 26.4446 140.961 27.9215 137.575 29.3198C136.901 29.5977 136.262 30.0378 135.455 29.2695C135.126 28.9583 134.166 29.2186 133.317 29.2186V28.0523C132.511 28.5257 131.819 28.9319 130.711 29.5833C131.692 29.692 132.172 29.7448 132.633 29.7964C132.633 29.9674 132.68 30.102 132.627 30.1642C132.04 30.8527 131.162 31.1884 131.237 32.4704C131.289 33.3488 130.038 33.3193 129.48 32.4925C128.976 33.0105 128.47 33.5318 127.713 34.3102C127.848 35.9166 126.598 36.8566 124.269 36.219C124.356 36.7421 124.562 37.2256 124.45 37.6331C124.391 37.8494 123.777 37.9342 123.413 38.0782Z" fill="#FDF9FA"/>
<path fill-rule="evenodd" clip-rule="evenodd" d="M100.303 59.1619C97.7188 60.2402 95.1331 61.318 92.5481 62.3963C92.422 62.2346 92.2965 62.073 92.1704 61.9113C92.5247 61.6984 92.8555 61.4541 93.2355 61.2773C95.0355 60.4403 96.8349 59.6016 98.6687 58.8129C99.0634 58.6436 99.5981 58.6815 100.069 58.6239C100.147 58.803 100.225 58.9827 100.303 59.1619Z" fill="#FDF9FA"/>
<path fill-rule="evenodd" clip-rule="evenodd" d="M84.0377 64.9113C85.2789 62.658 87.5525 63.0779 89.4595 62.3963C89.3691 63.6132 87.7482 64.3144 84.0514 64.8686C84.0455 64.8798 84.0377 64.9113 84.0377 64.9113Z" fill="#FDF9FA"/>
<path fill-rule="evenodd" clip-rule="evenodd" d="M108.436 54.7204C107.72 54.8186 106.958 54.8254 106.304 55.0409C105.662 55.2525 105.13 55.6762 104.369 56.1089C104.547 54.8068 106.193 53.4144 107.258 53.6129C107.718 53.6981 108.008 54.3594 108.377 54.7588C108.379 54.7582 108.436 54.7204 108.436 54.7204Z" fill="#FDF9FA"/>
</svg>
