<svg width="12" height="18" viewBox="0 0 12 18" fill="none" xmlns="http://www.w3.org/2000/svg">
<path d="M5.81797 17.25H6.18464C6.87209 17.25 7.21581 17.25 7.45677 17.0749C7.53459 17.0184 7.60303 16.95 7.65957 16.8721C7.83464 16.6312 7.83464 16.2875 7.83464 15.6V10.375H8.98047C9.62418 10.375 9.94604 10.375 10.1772 10.2205C10.2773 10.1536 10.3633 10.0677 10.4301 9.96761C10.5846 9.7364 10.5846 9.41455 10.5846 8.77083C10.5846 8.12712 10.5846 7.80527 10.4301 7.57406C10.3633 7.47397 10.2773 7.38803 10.1772 7.32115C9.94604 7.16667 9.62418 7.16667 8.98047 7.16667H7.83464V5.33333C7.83464 4.90622 7.83464 4.69266 7.90441 4.52421C7.99745 4.2996 8.1759 4.12115 8.40051 4.02811C8.56897 3.95833 8.78252 3.95833 9.20964 3.95833C9.63675 3.95833 9.85031 3.95833 10.0188 3.88856C10.2434 3.79552 10.4218 3.61707 10.5149 3.39246C10.5846 3.224 10.5846 3.01045 10.5846 2.58333V2.17593C10.5846 1.70094 10.5846 1.46345 10.4988 1.27927C10.4077 1.08395 10.2507 0.926963 10.0554 0.835885C9.87119 0.75 9.6337 0.75 9.15871 0.75C7.49626 0.75 6.66503 0.75 6.0204 1.0506C5.33679 1.36937 4.78734 1.91882 4.46856 2.60243C4.16797 3.24706 4.16797 4.07829 4.16797 5.74074V7.16667H3.02214C2.37842 7.16667 2.05657 7.16667 1.82536 7.32115C1.72527 7.38803 1.63933 7.47397 1.57246 7.57406C1.41797 7.80527 1.41797 8.12712 1.41797 8.77083C1.41797 9.41455 1.41797 9.7364 1.57246 9.96761C1.63933 10.0677 1.72527 10.1536 1.82536 10.2205C2.05657 10.375 2.37842 10.375 3.02214 10.375H4.16797V15.6C4.16797 16.2875 4.16797 16.6312 4.34304 16.8721C4.39958 16.95 4.46801 17.0184 4.54583 17.0749C4.78679 17.25 5.13052 17.25 5.81797 17.25Z" stroke="white" stroke-width="0.916667" stroke-linejoin="round"/>
</svg>
