<svg width="63" height="81" viewBox="0 0 63 81" fill="none" xmlns="http://www.w3.org/2000/svg">
<path d="M39.0001 40.967C41.7878 30.6524 45.1331 21.1741 49.0359 12.2534C50.151 9.46567 51.5449 6.67796 53.2175 4.16901C55.1689 1.38129 57.1203 0.266165 59.0717 0.823709C61.5806 1.66003 61.8594 4.16898 62.1382 6.39915C62.6957 13.6472 62.6957 21.1742 61.8594 28.4222C60.7443 40.967 59.0717 53.5117 56.284 65.7777C55.4476 69.4017 54.3326 73.0257 52.3812 76.0922C49.5934 80.5526 45.1331 81.6677 40.9515 78.3225C37.885 76.0923 34.8186 73.5833 32.3096 70.7956C20.3224 57.4145 10.5653 42.6396 4.71108 25.6345C3.31722 21.7317 2.20215 17.8288 2.20215 13.3685C2.20215 6.9567 5.54747 4.72656 11.4017 6.95673C14.747 8.3506 17.5346 10.302 20.0436 12.811C24.2251 16.7138 27.5705 21.4529 30.637 26.4708C33.1459 31.2099 35.6549 35.6703 39.0001 40.967ZM57.3991 4.16901C55.4477 5.84164 54.6113 7.79303 53.775 9.46567C49.0359 19.2227 45.4119 29.2586 42.6241 39.5731C41.7878 42.6396 40.3939 45.7061 42.6241 48.7726C42.9029 49.3301 42.9029 50.1665 42.3453 50.4452C41.509 51.0028 40.9515 50.4452 40.394 49.8877C39.8364 49.0513 39.2789 48.215 38.7213 47.3787C35.3761 41.5245 31.752 35.949 28.4067 30.0948C25.619 25.6344 22.8313 21.1742 19.2073 17.2713C16.6983 14.7624 14.1894 12.2534 11.1229 10.5807C10.0078 10.0232 8.89267 9.18693 7.4988 10.0232C6.38372 10.8596 6.38375 12.2534 6.66252 13.6473C7.22007 16.7137 7.77764 19.5015 8.61396 22.568C13.6319 38.7368 22.8313 52.6754 33.4247 65.4989C36.4912 69.123 39.8364 72.747 43.7392 75.5347C45.9694 77.2074 46.8057 77.2073 48.4784 74.6984C50.151 72.1894 51.2661 69.1229 51.8237 66.3352C56.284 47.9362 58.793 29.2586 58.793 10.302C58.5142 8.35063 58.793 6.12042 57.3991 4.16901Z" fill="#FDF9FA"/>
<path d="M37.4474 40.5503C40.2351 30.2357 43.5804 20.7574 47.4832 11.8366C48.5983 9.04892 49.9922 6.26122 51.6648 3.75226C53.6162 0.964541 55.5675 -0.150583 57.5189 0.406962C60.0279 1.24328 60.3067 3.75223 60.5855 5.98241C61.143 13.2305 61.143 20.7574 60.3067 28.0055C59.1916 40.5503 57.5189 53.095 54.7312 65.361C53.8949 68.985 52.7798 72.609 50.8284 75.6755C48.0407 80.1359 43.5803 81.251 39.3987 77.9057C36.3323 75.6756 33.2658 73.1666 30.7569 70.3788C18.7697 56.9978 9.01257 42.2229 3.15835 25.2178C1.76449 21.315 0.649414 17.4121 0.649414 12.9517C0.649414 6.53995 3.99473 4.30981 9.84895 6.53999C13.1942 7.93385 15.9819 9.88527 18.4908 12.3942C22.6724 16.297 26.0177 21.0362 29.0842 26.0541C31.5932 30.7932 34.1021 35.2536 37.4474 40.5503ZM55.8464 3.75226C53.895 5.4249 53.0586 7.37629 52.2223 9.04892C47.4832 18.806 43.8591 28.8418 41.0714 39.1564C40.2351 42.2229 38.8412 45.2893 41.0714 48.3558C41.3502 48.9134 41.3502 49.7497 40.7926 50.0285C39.9563 50.586 39.3988 50.0285 38.8413 49.4709C38.2837 48.6346 37.7261 47.7983 37.1686 46.962C33.8233 41.1078 30.1993 35.5323 26.854 29.6781C24.0663 25.2177 21.2786 20.7574 17.6545 16.8546C15.1456 14.3456 12.6367 11.8366 9.57016 10.164C8.45507 9.60645 7.33993 8.77018 5.94607 9.6065C4.83098 10.4428 4.83102 11.8366 5.10979 13.2305C5.66733 16.297 6.22491 19.0848 7.06123 22.1513C12.0791 38.3201 21.2786 52.2587 31.8719 65.0822C34.9384 68.7062 38.2837 72.3303 42.1865 75.118C44.4166 76.7906 45.253 76.7906 46.9256 74.2816C48.5983 71.7727 49.7134 68.7062 50.2709 65.9185C54.7313 47.5195 57.2402 28.8418 57.2402 9.88529C56.9615 7.93388 57.2402 5.70367 55.8464 3.75226Z" fill="#F1A5C3"/>
</svg>
