<svg width="14" height="21" viewBox="0 0 14 21" fill="none" xmlns="http://www.w3.org/2000/svg">
<path d="M1.2959 13.964C1.70788 13.0027 2.0512 12.2474 2.39452 11.4921C3.7678 8.47085 4.86641 5.31233 4.86641 1.94781C4.86641 1.46716 4.66042 0.643196 5.27839 0.505869C6.03369 0.368541 6.10235 1.26117 6.23968 1.81047C6.99498 4.00771 7.95628 6.13629 9.53554 7.99021C10.7028 9.36348 10.7715 9.36348 12.5567 8.74551C12.8314 8.60818 13.1747 8.47086 13.5867 8.81418C10.9775 11.0801 9.67287 13.964 8.8489 17.0538C8.64291 17.7405 8.50559 18.4271 8.36826 19.1137C8.23093 19.5257 8.16226 20.0064 7.61296 20.075C7.13231 20.1437 6.85765 19.8004 6.583 19.3884C5.89636 18.2211 5.07241 17.1225 4.11111 16.1612C3.35581 15.2686 2.53184 14.3759 1.2959 13.964ZM2.87517 14.0326C3.90512 14.7192 4.79775 15.6119 5.62171 16.5732C6.10236 17.1225 6.65166 17.6718 7.26964 18.4271C8.02494 15.3372 9.05489 12.522 10.8401 10.1188C8.43692 8.53952 7.13232 6.27361 5.82771 3.87039C5.20973 7.09758 3.97378 10.0501 2.53185 12.8653C2.25719 13.346 2.32586 13.6893 2.87517 14.0326Z" fill="#FDF9FA"/>
<path d="M0.887695 13.5562C1.29968 12.5949 1.643 11.8396 1.98632 11.0843C3.35959 8.06314 4.4582 4.90462 4.4582 1.5401C4.4582 1.05945 4.25222 0.235481 4.87019 0.0981539C5.62549 -0.0391735 5.69415 0.85345 5.83148 1.40276C6.58678 3.6 7.54807 5.72857 9.12734 7.58249C10.2946 8.95576 10.3633 8.95577 12.1485 8.3378C12.4232 8.20047 12.7665 8.06315 13.1785 8.40646C10.5693 10.6724 9.26466 13.5562 8.4407 16.6461C8.23471 17.3327 8.09738 18.0194 7.96006 18.706C7.82273 19.118 7.75406 19.5986 7.20475 19.6673C6.72411 19.736 6.44945 19.3926 6.1748 18.9807C5.48816 17.8134 4.6642 16.7148 3.70291 15.7535C2.94761 14.8608 2.12364 13.9682 0.887695 13.5562ZM2.46696 13.6249C3.49692 14.3115 4.38955 15.2042 5.21351 16.1655C5.69416 16.7148 6.24346 17.2641 6.86143 18.0194C7.61673 14.9295 8.64669 12.1143 10.4319 9.71107C8.02871 8.1318 6.72411 5.8659 5.4195 3.46267C4.80153 6.68986 3.56558 9.6424 2.12364 12.4576C1.84899 12.9383 1.91765 13.2816 2.46696 13.6249Z" fill="#F1A5C3"/>
</svg>
