<svg width="121" height="122" viewBox="0 0 121 122" fill="none" xmlns="http://www.w3.org/2000/svg">
<path d="M45.2352 17.0887C49.8769 2.80277 70.0874 2.80279 74.7292 17.0887L78.259 27.9525C80.3348 34.3414 86.2884 38.6669 93.006 38.6669H104.429C119.45 38.6669 125.695 57.8886 113.543 66.7178L104.302 73.4319C98.8671 77.3805 96.593 84.3794 98.6688 90.7683L102.199 101.632C106.84 115.918 90.4897 127.798 78.3375 118.968L69.0963 112.254C63.6617 108.306 56.3027 108.306 50.868 112.254L41.6269 118.968C29.4747 127.798 13.124 115.918 17.7657 101.632L21.2955 90.7683C23.3714 84.3794 21.0973 77.3805 15.6626 73.4319L6.42149 66.7178C-5.73072 57.8886 0.514703 38.6669 15.5357 38.6669H26.9583C33.6759 38.6669 39.6295 34.3414 41.7054 27.9525L45.2352 17.0887Z" fill="white"/>
<path d="M45.2899 10.7145C49.9316 -3.57149 70.1421 -3.57148 74.7839 10.7145L78.3137 21.5782C80.3895 27.9671 86.3431 32.2927 93.0607 32.2927H104.483C119.504 32.2927 125.75 51.5143 113.598 60.3435L104.356 67.0577C98.9218 71.0062 96.6477 78.0052 98.7235 84.394L102.253 95.2578C106.895 109.544 90.5444 121.423 78.3922 112.594L69.151 105.88C63.7164 101.931 56.3573 101.931 50.9227 105.88L41.6816 112.594C29.5294 121.423 13.1787 109.544 17.8204 95.2578L21.3502 84.394C23.426 78.0052 21.152 71.0062 15.7173 67.0577L6.47618 60.3435C-5.67603 51.5143 0.56939 32.2927 15.5903 32.2927H27.013C33.7306 32.2927 39.6842 27.9671 41.76 21.5782L45.2899 10.7145Z" fill="url(#paint0_linear_129_1318)"/>
<defs>
<linearGradient id="paint0_linear_129_1318" x1="60.0369" y1="0" x2="60.0369" y2="115.626" gradientUnits="userSpaceOnUse">
<stop stop-color="#FD2FE8"/>
<stop offset="1" stop-color="#FFF500"/>
</linearGradient>
</defs>
</svg>
