<svg width="119" height="122" viewBox="0 0 119 122" fill="none" xmlns="http://www.w3.org/2000/svg">
<path d="M46.2512 16.0356C49.6324 2.65478 68.6438 2.65479 72.025 16.0356C74.0544 24.0671 82.8562 28.3059 90.4007 24.885C102.97 19.1857 114.824 34.0496 106.47 45.0359C101.457 51.6302 103.63 61.1545 111.009 64.9203C123.302 71.1942 119.071 89.7291 105.274 90.048C96.992 90.2395 90.901 97.8774 92.5572 105.994C95.3166 119.517 78.1879 127.766 69.3359 117.177C64.0227 110.821 54.2535 110.821 48.9403 117.177C40.0883 127.766 22.9596 119.517 25.719 105.994C27.3752 97.8774 21.2842 90.2395 13.0026 90.048C-0.795071 89.7291 -5.02551 71.1942 7.26737 64.9203C14.6458 61.1545 16.8197 51.6302 11.8058 45.0359C3.45244 34.0496 15.3059 19.1857 27.8755 24.885C35.42 28.3059 44.2218 24.0671 46.2512 16.0356Z" fill="white"/>
<path d="M46.2512 10.0356C49.6324 -3.34522 68.6438 -3.34521 72.025 10.0356C74.0544 18.0671 82.8562 22.3059 90.4007 18.885C102.97 13.1857 114.824 28.0496 106.47 39.0359C101.457 45.6302 103.63 55.1545 111.009 58.9203C123.302 65.1942 119.071 83.7291 105.274 84.048C96.992 84.2395 90.901 91.8774 92.5572 99.9941C95.3166 113.517 78.1879 121.766 69.3359 111.177C64.0227 104.821 54.2535 104.821 48.9403 111.177C40.0883 121.766 22.9596 113.517 25.719 99.9941C27.3752 91.8774 21.2842 84.2395 13.0026 84.048C-0.795071 83.7291 -5.02551 65.1942 7.26737 58.9203C14.6458 55.1545 16.8197 45.6302 11.8058 39.0359C3.45244 28.0496 15.3059 13.1857 27.8755 18.885C35.42 22.3059 44.2218 18.0671 46.2512 10.0356Z" fill="url(#paint0_linear_129_1370)"/>
<defs>
<linearGradient id="paint0_linear_129_1370" x1="59.1381" y1="0" x2="59.1381" y2="116" gradientUnits="userSpaceOnUse">
<stop offset="0.266544" stop-color="#FFF500"/>
<stop offset="0.869792" stop-color="#4AE5E8"/>
</linearGradient>
</defs>
</svg>
