<svg width="105" height="122" viewBox="0 0 105 122" fill="none" xmlns="http://www.w3.org/2000/svg">
<path d="M39.946 14.4726C43.5348 1.8975 61.3562 1.89749 64.945 14.4726L66.7242 20.7068C68.6493 27.4525 75.5796 31.4537 82.3841 29.7481L88.6728 28.1718C101.358 24.9922 110.268 40.4259 101.172 49.8214L96.6628 54.4794C91.7834 59.5194 91.7834 67.5218 96.6628 72.5618L101.172 77.2198C110.268 86.6153 101.358 102.049 88.6728 98.8694L82.3841 97.2931C75.5796 95.5875 68.6493 99.5887 66.7242 106.334L64.945 112.569C61.3562 125.144 43.5348 125.144 39.946 112.569L38.1669 106.334C36.2417 99.5887 29.3114 95.5875 22.5069 97.2931L16.2182 98.8694C3.53349 102.049 -5.37722 86.6153 3.71877 77.2198L8.22825 72.5618C13.1076 67.5218 13.1076 59.5194 8.22825 54.4794L3.71877 49.8214C-5.37721 40.4259 3.53348 24.9922 16.2182 28.1718L22.5069 29.7481C29.3114 31.4537 36.2417 27.4525 38.1668 20.7069L39.946 14.4726Z" fill="white"/>
<path d="M39.946 9.43131C43.5348 -3.14376 61.3562 -3.14377 64.945 9.4313L66.7242 15.6656C68.6493 22.4112 75.5796 26.4124 82.3841 24.7068L88.6728 23.1305C101.358 19.9509 110.268 35.3846 101.172 44.7801L96.6628 49.4381C91.7834 54.4781 91.7834 62.4806 96.6628 67.5206L101.172 72.1785C110.268 81.574 101.358 97.0078 88.6728 93.8282L82.3841 92.2519C75.5796 90.5462 68.6493 94.5474 66.7242 101.293L64.945 107.527C61.3562 120.102 43.5348 120.102 39.946 107.527L38.1669 101.293C36.2417 94.5475 29.3114 90.5462 22.5069 92.2519L16.2182 93.8282C3.53349 97.0078 -5.37722 81.574 3.71877 72.1785L8.22825 67.5206C13.1076 62.4806 13.1076 54.4781 8.22825 49.4381L3.71877 44.7801C-5.37721 35.3846 3.53348 19.9509 16.2182 23.1305L22.5069 24.7068C29.3114 26.4124 36.2417 22.4112 38.1668 15.6656L39.946 9.43131Z" fill="url(#paint0_linear_129_1346)"/>
<defs>
<linearGradient id="paint0_linear_129_1346" x1="52.4455" y1="0" x2="52.4455" y2="116.959" gradientUnits="userSpaceOnUse">
<stop stop-color="#FD2FE8"/>
<stop offset="0.668668" stop-color="#B4E3AB"/>
<stop offset="1" stop-color="#AAFFA7"/>
</linearGradient>
</defs>
</svg>
