<svg width="113" height="120" viewBox="0 0 113 120" fill="none" xmlns="http://www.w3.org/2000/svg">
<path d="M45.849 14.0258C49.4687 4.24368 63.3044 4.24368 66.9241 14.0258L75.533 37.291C76.671 40.3665 79.0958 42.7913 82.1713 43.9293L105.437 52.5382C115.219 56.1579 115.219 69.9936 105.437 73.6133L82.1713 82.2222C79.0958 83.3602 76.671 85.785 75.533 88.8605L66.9241 112.126C63.3044 121.908 49.4687 121.908 45.849 112.126L37.2401 88.8605C36.1021 85.785 33.6773 83.3602 30.6018 82.2222L7.33659 73.6133C-2.44553 69.9936 -2.44553 56.1579 7.33659 52.5382L30.6018 43.9293C33.6773 42.7913 36.1021 40.3665 37.2401 37.291L45.849 14.0258Z" fill="white"/>
<path d="M45.849 7.87443C49.4687 -1.90769 63.3044 -1.90769 66.9241 7.87443L75.533 31.1396C76.671 34.2151 79.0958 36.6399 82.1713 37.7779L105.437 46.3868C115.219 50.0066 115.219 63.8422 105.437 67.4619L82.1713 76.0708C79.0958 77.2089 76.671 79.6337 75.533 82.7091L66.9241 105.974C63.3044 115.756 49.4687 115.756 45.849 105.974L37.2401 82.7091C36.1021 79.6337 33.6773 77.2089 30.6018 76.0708L7.33659 67.4619C-2.44553 63.8422 -2.44553 50.0066 7.33659 46.3868L30.6018 37.7779C33.6773 36.6399 36.1021 34.2151 37.2401 31.1396L45.849 7.87443Z" fill="url(#paint0_linear_129_1294)"/>
<defs>
<linearGradient id="paint0_linear_129_1294" x1="56.3866" y1="0.537842" x2="56.3866" y2="113.311" gradientUnits="userSpaceOnUse">
<stop stop-color="#FD2FE8"/>
<stop offset="1" stop-color="#4AE5E8"/>
</linearGradient>
</defs>
</svg>
