<svg width="32" height="50" viewBox="0 0 32 50" fill="none" xmlns="http://www.w3.org/2000/svg">
<path d="M1.8877 34.7007C2.89704 32.2975 3.73817 30.4092 4.57928 28.521C7.94376 20.9681 10.6353 13.0719 10.6353 4.66073C10.6353 3.45914 10.1307 1.39924 11.6447 1.05593C13.4951 0.712617 13.6633 2.94415 13.9998 4.3174C15.8503 9.81042 18.2054 15.1318 22.0745 19.7665C24.9343 23.1996 25.1025 23.1997 29.4764 21.6547C30.1493 21.3114 30.9904 20.9681 31.9997 21.8264C25.6072 27.4911 22.411 34.7007 20.3923 42.4252C19.8876 44.1418 19.5512 45.8584 19.2147 47.5749C18.8783 48.6049 18.7101 49.8065 17.3643 49.9781C16.1867 50.1498 15.5138 49.2915 14.8409 48.2615C13.1587 45.3434 11.14 42.5969 8.78487 40.1937C6.93441 37.9621 4.91572 35.7306 1.8877 34.7007ZM5.75684 34.8723C8.2802 36.5889 10.4671 38.8204 12.4858 41.2236C13.6634 42.5969 15.0091 43.9701 16.5231 45.8584C18.3736 38.1338 20.897 31.0959 25.2708 25.0879C19.3829 21.1398 16.1867 15.4751 12.9905 9.4671C11.4765 17.535 8.44842 24.9162 4.91573 31.9542C4.24283 33.1557 4.41106 34.014 5.75684 34.8723Z" fill="#FDF9FA"/>
<path d="M0.887695 33.6802C1.89704 31.277 2.73817 29.3887 3.57928 27.5005C6.94376 19.9476 9.63532 12.0514 9.63532 3.64023C9.63532 2.43863 9.13066 0.378737 10.6447 0.0354233C12.4951 -0.30789 12.6633 1.92364 12.9998 3.29689C14.8503 8.78991 17.2054 14.1113 21.0745 18.746C23.9343 22.1791 24.1025 22.1792 28.4764 20.6342C29.1493 20.2909 29.9904 19.9476 30.9997 20.8059C24.6072 26.4706 21.411 33.6802 19.3923 41.4047C18.8876 43.1213 18.5512 44.8379 18.2147 46.5544C17.8783 47.5844 17.7101 48.786 16.3643 48.9576C15.1867 49.1293 14.5138 48.271 13.8409 47.241C12.1587 44.3229 10.14 41.5764 7.78488 39.1732C5.93442 36.9416 3.91572 34.7101 0.887695 33.6802ZM4.75684 33.8518C7.2802 35.5684 9.46711 37.7999 11.4858 40.2031C12.6634 41.5764 14.0091 42.9496 15.5231 44.8379C17.3736 37.1133 19.897 30.0754 24.2708 24.0674C18.3829 20.1193 15.1867 14.4546 11.9905 8.4466C10.4765 16.5145 7.44842 23.8957 3.91573 30.9336C3.24283 32.1352 3.41106 32.9935 4.75684 33.8518Z" fill="#F1A5C3"/>
</svg>
