<?xml version="1.0" encoding="utf-8"?>
<!-- Generator: Adobe Illustrator 28.0.0, SVG Export Plug-In . SVG Version: 6.00 Build 0)  -->
<svg version="1.1" id="Слой_1" xmlns="http://www.w3.org/2000/svg" xmlns:xlink="http://www.w3.org/1999/xlink" x="0px" y="0px"
	 viewBox="0 0 46 61.1" style="enable-background:new 0 0 46 61.1;" xml:space="preserve">
<style type="text/css">
	.st0{fill:#FDF9FA;}
	.st1{fill:#F1A4C2;}
</style>
<g>
	<path class="st0" d="M5.6,35.6c2-1.8,3.5-3.2,5.1-4.6c6.3-5.5,12.1-11.7,15.7-19.5c0.5-1.1,0.9-3.2,2.4-2.9c1.9,0.5,1.1,2.6,0.8,4
		c-0.6,5.9-0.5,11.8,1.2,17.7c1.3,4.4,1.4,4.5,6.2,4.9c0.8,0,1.7,0,2.3,1.2c-8.4,2.5-14.4,7.8-19.5,14.1c-1.2,1.4-2.2,2.8-3.3,4.3
		c-0.7,0.8-1.4,1.9-2.7,1.4c-1.2-0.3-1.5-1.4-1.7-2.7c-0.4-3.4-1.1-6.8-2.3-10C8.9,40.8,8,37.9,5.6,35.6z M9.1,37.4
		c1.7,2.7,2.8,5.7,3.7,8.7c0.6,1.8,1.2,3.6,1.9,6c4.9-6.3,10.3-11.8,16.9-15.5C27.7,30.5,27,24,26.5,17c-4.8,6.8-10.7,12.4-17,17.4
		C8.4,35.2,8.2,36.1,9.1,37.4z"/>
	<path class="st1" d="M5,34.3c2-1.8,3.5-3.2,5.1-4.6c6.3-5.5,12.1-11.7,15.7-19.5c0.5-1.1,0.9-3.2,2.4-2.9c1.9,0.5,1.1,2.6,0.9,4
		c-0.6,5.9-0.6,11.8,1.2,17.7c1.3,4.4,1.4,4.5,6.2,4.9c0.8,0,1.7,0,2.3,1.2c-8.4,2.5-14.4,7.8-19.5,14.1c-1.2,1.4-2.2,2.8-3.3,4.3
		c-0.7,0.8-1.4,1.9-2.7,1.4c-1.2-0.3-1.5-1.4-1.7-2.7c-0.4-3.4-1.1-6.8-2.3-10C8.4,39.5,7.4,36.5,5,34.3z M8.6,36.1
		c1.7,2.7,2.8,5.7,3.7,8.7c0.6,1.8,1.2,3.6,1.9,6c4.9-6.3,10.3-11.8,16.9-15.5c-3.9-6.2-4.6-12.7-5.1-19.7C21.2,22.5,15.3,28,9,33
		C7.9,33.9,7.7,34.7,8.6,36.1z"/>
</g>
</svg>
