<svg width="80" height="10" viewBox="0 0 80 10" fill="none" xmlns="http://www.w3.org/2000/svg">
<g clip-path="url(#clip0_476_949)">
<path fill-rule="evenodd" clip-rule="evenodd" d="M62.0237 0.280095C62.945 0.95583 63.8039 1.67439 64.7478 2.25435C65.7442 2.867 66.8046 3.37282 67.9235 3.75987C68.8476 4.07987 69.7399 4.48367 70.7401 4.50292C71.4379 4.98213 72.2661 4.85336 73.0371 4.97389C73.3531 5.023 73.6966 4.87301 74.0181 4.90526C74.365 4.94012 74.6946 4.80523 75.0029 4.82112C76.144 4.87925 77.2303 4.47675 78.3606 4.49507C78.4437 4.49635 78.5281 4.40129 78.6441 4.33175C78.9247 4.56813 79.1922 4.79361 79.5245 5.07347C79.1889 5.26526 78.9485 5.40255 78.5611 5.62363L79.608 5.74765C79.4587 6.00664 79.3667 6.16579 79.2422 6.38182C79.2727 6.44691 79.3275 6.5651 79.4207 6.76409C79.228 7.12302 79.0827 7.6331 78.7527 7.95202C78.2931 8.3953 77.7129 8.727 77.148 9.04145C76.9071 9.17596 76.5631 9.22238 76.2866 9.17756C75.6721 9.07909 75.073 9.41321 74.4588 9.20074C74.3691 9.16949 74.2263 9.29034 74.0902 9.34855C74.0629 9.2274 74.0347 9.10109 74.0057 8.97195L70.0897 8.50805C70.452 8.76461 70.8672 8.75115 71.2656 8.80845C71.7172 8.87246 72.1725 8.91511 72.6253 8.97264C73.0274 9.02379 73.429 9.08265 73.8071 9.32396C73.0177 9.23044 72.227 9.14106 71.4379 9.04212C70.5003 8.92483 69.5305 8.9189 68.7298 8.29986C67.7856 8.2024 66.978 7.74015 66.1246 7.3791C65.6873 7.19421 65.3815 6.94356 65.1095 6.59535C65.0541 6.63899 64.9995 6.68272 64.8977 6.76367C64.3121 6.35224 63.7469 5.8646 63.1013 5.53284C62.6552 5.3041 62.5324 4.77316 62.0456 4.62247C61.8668 4.56745 61.7193 4.41338 61.4649 4.24198C61.1728 4.10619 60.6427 4.37573 60.3297 3.9102C60.2744 3.95346 60.2194 3.99715 60.1314 4.0665C60.0549 4.00995 59.9694 3.94612 59.8796 3.87945C59.8166 3.99456 59.7545 4.10823 59.6855 4.23393L59.3389 4.19287C59.4366 4.06786 59.5019 3.98374 59.5683 3.899C59.5128 3.86518 59.4435 3.79004 59.4045 3.80371C59.1276 3.9005 58.8553 4.01183 58.5846 4.12569C58.3421 4.22772 58.1032 4.33874 57.8066 4.47093C57.7411 4.41647 57.6408 4.33337 57.5249 4.23715C57.4541 4.34901 57.3732 4.47641 57.2903 4.60823C57.2411 4.55064 57.1969 4.4995 57.1481 4.44234C56.9129 4.59077 56.6768 4.86283 56.4387 4.86537C55.7858 4.87168 55.2647 5.26215 54.6521 5.37519C54.3418 5.43222 54.0521 5.66331 53.7791 5.85277C52.8729 6.48208 51.905 6.97216 50.846 7.26543C50.7593 7.16293 50.6924 7.08418 50.6245 7.00375C50.4892 7.11108 50.3521 7.22054 50.1755 7.36111L49.2778 7.25478C49.1225 7.45274 48.9807 7.63479 48.8212 7.83772L48.4543 7.79426C48.3162 7.93161 48.2073 8.13857 48.0595 8.17049C47.3754 8.31827 46.719 8.71176 45.9748 8.18075C45.6579 7.95487 45.1131 8.04715 44.6494 8.16695C45.0659 8.24197 45.4819 8.31733 45.8983 8.39273L45.8786 8.51336L44.4736 8.34692C44.4445 8.21779 44.4163 8.09147 44.3684 7.87838C43.8205 8.29212 43.3383 8.04976 42.8738 7.77876C42.2209 7.39671 41.5914 7.0081 41.0446 6.44638C40.3379 5.72056 39.5796 5.02015 38.6723 4.52235C38.586 4.47516 38.519 4.39406 38.376 4.27088L37.151 4.12576C37.118 4.05959 37.0879 4.0245 37.0956 4.0083C37.1095 3.97959 37.1498 3.96529 37.1741 3.94054C37.2153 3.89795 37.2531 3.85184 37.3256 3.76859L36.5765 3.67985C36.5433 3.52336 36.5165 3.39761 36.4836 3.24194C36.405 3.21901 36.3113 3.19234 36.0622 3.12003C36.1681 3.31703 36.2162 3.4064 36.2696 3.50495C36.2089 3.5573 36.1338 3.62273 36.0206 3.72139C36.2491 3.79556 36.4545 3.86192 36.6598 3.92904C35.2631 3.98578 33.8872 4.37538 32.5226 3.97985C32.1857 4.6622 31.634 4.77662 30.9561 4.67103C29.9699 5.38464 28.981 6.13763 27.9534 6.8331C26.8822 7.55767 25.6947 8.12173 24.4204 8.26147C23.3464 8.37902 22.1936 8.64327 21.1583 7.97464C21.0783 7.92315 20.9525 7.94055 20.8476 7.93278C19.7796 7.8588 18.9183 7.28511 18.0566 6.74057C17.696 6.513 17.4408 6.12087 17.0855 5.88109C16.598 5.5521 16.0417 5.35661 15.4863 5.14372C14.4924 4.7633 13.4611 4.76332 12.4464 4.60693C11.5094 4.46245 10.5713 4.5066 9.63983 4.68967C9.5414 4.70914 9.41903 4.69425 9.33045 4.65029C9.24413 4.60699 9.1873 4.5053 9.09727 4.40786C9.04071 4.52724 8.98671 4.64148 8.89326 4.83899C8.73532 4.75646 8.58069 4.67549 8.40769 4.58534C8.38095 4.65339 8.34491 4.74407 8.28412 4.89914C7.40684 5.04155 6.61619 5.77327 5.598 5.48571L5.25166 5.75833C5.30893 5.83983 5.36621 5.92133 5.44512 6.03381C4.9038 6.34599 4.30377 6.58545 3.84417 6.9863C3.35588 7.41256 2.89874 7.85185 2.21836 8.20787C2.15199 8.31481 2.01502 8.53479 1.85215 8.79608C1.69516 8.86309 1.48326 8.95357 1.2931 9.03455C1.15959 9.65889 1.15959 9.65889 0.800082 10L0 8.98488L0.216719 7.15548C0.265777 7.12899 0.582785 7.05797 0.60917 6.92723C0.717854 6.39413 1.29248 6.29682 1.49793 5.87324C1.71582 5.42351 2.15383 5.19171 2.51131 4.8776C2.99791 4.4492 3.47846 4.01269 3.94271 3.55945C4.98896 2.5393 7.01521 1.5936 8.78173 1.40166C9.19918 1.35655 9.60367 1.20405 10.0199 1.13623C10.4128 1.07225 10.8002 1.37227 11.23 1.08501C11.4075 0.966718 11.7711 1.12615 11.8091 1.13065C12.1054 1.32959 12.2518 1.42787 12.4237 1.54319C12.2642 1.71693 12.1762 1.81312 12.0497 1.95146L13.3287 2.10298C13.0021 1.94365 12.8858 1.88707 12.6952 1.79406C13.3401 1.26105 13.9434 0.869809 14.7438 1.43823C14.8203 1.49243 14.9368 1.49806 15.0367 1.51146C16.329 1.68322 17.405 2.25783 18.3802 3.12557C18.7752 3.47668 19.3159 3.78707 19.8995 3.77526C20.4718 3.76367 20.9312 4.09361 21.4626 4.18342C23.076 4.45589 24.5562 4.02065 25.9593 3.27976C26.7028 2.88685 27.4368 2.45585 28.1123 1.95721C29.2858 1.09106 30.6247 0.642979 32.014 0.356543C33.0128 0.150706 34.0531 0.156805 35.0644 0.0326144C36.1242 -0.0971133 37.1197 0.201767 38.1462 0.205846C38.8117 0.208414 39.2945 0.567589 39.7514 0.932251C40.7605 1.73631 41.7044 2.62137 42.7052 3.43651C43.166 3.81136 43.7586 3.97263 44.3241 4.1229C45.3598 4.39775 46.4059 4.23604 47.4226 4.00742C48.2433 3.82367 49.0378 3.51931 49.8399 3.25592C51.1854 2.81408 52.4414 2.17446 53.7194 1.57012C55.0064 0.961417 56.3683 0.46353 57.8417 0.416653C58.2917 0.40225 58.7407 0.26476 59.1843 0.160092C60.154 -0.0694284 61.094 0.22444 62.0237 0.280095Z" fill="#FDF9FA"/>
</g>
<defs>
<clipPath id="clip0_476_949">
<rect width="79.608" height="10" fill="white"/>
</clipPath>
</defs>
</svg>
