<svg width="47" height="26" viewBox="0 0 47 26" fill="none" xmlns="http://www.w3.org/2000/svg">
<path d="M20.8462 12.9993C20.8462 20.1681 26.6784 26 33.8477 26C41.0169 26 46.8477 20.1681 46.8477 12.9993C46.8477 5.83051 41.0154 4.3869e-05 33.8477 4.3869e-05C26.6784 -0.00141144 20.8462 5.83051 20.8462 12.9993ZM45.7566 12.9993C45.7566 19.5658 40.4131 24.909 33.8477 24.909C27.2822 24.909 21.9373 19.5658 21.9373 12.9993C21.9373 6.43275 27.2807 1.09107 33.8477 1.09107C40.4146 1.09107 45.7566 6.43275 45.7566 12.9993Z" fill="white"/>
<path d="M25.7318 12.9994C25.7318 17.4755 29.3746 21.1167 33.851 21.1167C38.3274 21.1167 41.9688 17.4755 41.9688 12.9994C41.9688 8.5233 38.3274 4.88219 33.851 4.88219C29.3746 4.88219 25.7318 8.5233 25.7318 12.9994ZM38.1236 12.9994C38.1236 12.9994 33.7593 12.9994 33.851 12.9994L38.1236 12.9994Z" fill="#FFF500"/>
<path fill-rule="evenodd" clip-rule="evenodd" d="M25.0037 12.9993C25.0037 17.8774 28.9723 21.844 33.8502 21.844C38.7283 21.844 42.6953 17.8772 42.6953 12.9993C42.6953 8.12146 38.7283 4.15474 33.8502 4.15474C28.9723 4.15474 25.0037 8.12129 25.0037 12.9993ZM33.8502 21.1166C29.3738 21.1166 25.731 17.4755 25.731 12.9993C25.731 8.52322 29.3738 4.88211 33.8502 4.88211C38.3266 4.88211 41.9679 8.52322 41.9679 12.9993C41.9679 17.4755 38.3266 21.1166 33.8502 21.1166Z" fill="#FFF500"/>
<path d="M30.3275 12.9994C30.3275 14.9429 31.903 16.5198 33.8481 16.5198C35.7917 16.5198 37.3672 14.9443 37.3672 12.9994C37.3672 11.0544 35.7917 9.47901 33.8481 9.47901C31.903 9.47901 30.3275 11.0559 30.3275 12.9994Z" fill="white"/>
<path fill-rule="evenodd" clip-rule="evenodd" d="M29.5993 12.9993C29.5993 15.3443 31.5003 17.2471 33.8473 17.2471C36.1928 17.2471 38.0938 15.3458 38.0938 12.9993C38.0938 10.6528 36.1927 8.75156 33.8473 8.75156C31.5003 8.75156 29.5993 10.6542 29.5993 12.9993ZM33.8473 16.5197C31.9022 16.5197 30.3266 14.9428 30.3266 12.9993C30.3266 11.0558 31.9022 9.47893 33.8473 9.47893C35.7909 9.47893 37.3664 11.0544 37.3664 12.9993C37.3664 14.9442 35.7909 16.5197 33.8473 16.5197Z" fill="white"/>
<path d="M0.00378084 12.9993C0.00378084 12.1461 0.695513 11.4544 1.54879 11.4544C2.40206 11.4544 3.09375 12.1461 3.09375 12.9993C3.09375 13.8525 2.40206 14.5442 1.54879 14.5442C0.695513 14.5442 0.00378084 13.8525 0.00378084 12.9993Z" fill="white"/>
<path d="M1.00159 12.9994C1.00159 13.3005 1.246 13.5449 1.54714 13.5449L21.392 13.5449C21.6931 13.5449 21.9375 13.3005 21.9375 12.9994C21.9375 12.6983 21.6931 12.4539 21.392 12.4539L1.54714 12.4539C1.246 12.4539 1.00159 12.6983 1.00159 12.9994Z" fill="white"/>
<path d="M14.2292 6.86781L14.2292 19.1295C14.2292 19.4307 14.4736 19.675 14.7748 19.675C15.0759 19.675 15.3203 19.4307 15.3203 19.1295L15.3203 6.86781C15.3203 6.56668 15.0759 6.32229 14.7748 6.32229C14.4736 6.32229 14.2292 6.56668 14.2292 6.86781Z" fill="white"/>
<path d="M10.3308 9.01345L10.3308 16.9838C10.3308 17.2849 10.5752 17.5293 10.8763 17.5293C11.1775 17.5293 11.4219 17.2849 11.4219 16.9838L11.4219 9.01345C11.4219 8.71233 11.1775 8.46794 10.8763 8.46794C10.5752 8.46794 10.3308 8.71233 10.3308 9.01345Z" fill="white"/>
<path d="M6.27219 10.8117L6.27219 15.1874C6.27219 15.4885 6.51659 15.7329 6.81773 15.7329C7.11888 15.7329 7.36328 15.4885 7.36328 15.1874L7.36328 10.8117C7.36328 10.5105 7.11888 10.2661 6.81773 10.2661C6.51659 10.2661 6.27219 10.5105 6.27219 10.8117Z" fill="white"/>
</svg>
