<svg width="120" height="12" viewBox="0 0 120 12" fill="none" xmlns="http://www.w3.org/2000/svg">
<path fill-rule="evenodd" clip-rule="evenodd" d="M93.4937 0.336115C94.8823 1.147 96.1771 2.00926 97.5998 2.70522C99.1018 3.4404 100.7 4.04738 102.387 4.51184C103.78 4.89584 105.125 5.3804 106.633 5.4035C107.684 5.97855 108.933 5.82404 110.095 5.96867C110.571 6.0276 111.089 5.84761 111.574 5.88631C112.097 5.92815 112.594 5.76627 113.058 5.78534C114.778 5.8551 116.416 5.3721 118.12 5.39408C118.245 5.39563 118.372 5.28154 118.547 5.1981C118.97 5.48176 119.373 5.75234 119.874 6.08816C119.368 6.31831 119.006 6.48306 118.422 6.74835L120 6.89718C119.775 7.20796 119.636 7.39895 119.449 7.65818C119.494 7.73629 119.577 7.87811 119.718 8.11691C119.427 8.54762 119.208 9.15972 118.711 9.54243C118.018 10.0744 117.143 10.4724 116.292 10.8497C115.929 11.0112 115.41 11.0669 114.993 11.0131C114.067 10.8949 113.164 11.2959 112.238 11.0409C112.103 11.0034 111.888 11.1484 111.683 11.2183C111.641 11.0729 111.599 10.9213 111.555 10.7663L105.652 10.2097C106.198 10.5175 106.824 10.5014 107.425 10.5701C108.105 10.647 108.792 10.6981 109.474 10.7672C110.08 10.8285 110.686 10.8992 111.256 11.1888C110.066 11.0765 108.874 10.9693 107.684 10.8505C106.271 10.7098 104.809 10.7027 103.602 9.95983C102.179 9.84288 100.962 9.28818 99.6752 8.85492C99.016 8.63305 98.5551 8.33228 98.1451 7.91442C98.0616 7.96679 97.9793 8.01927 97.8258 8.1164C96.9432 7.62268 96.0911 7.03752 95.1179 6.63941C94.4455 6.36492 94.2605 5.72779 93.5266 5.54697C93.2572 5.48093 93.0348 5.29605 92.6513 5.09037C92.2109 4.92743 91.412 5.25088 90.9402 4.69224C90.8568 4.74415 90.7739 4.79657 90.6413 4.8798C90.5258 4.81194 90.397 4.73535 90.2617 4.65534C90.1666 4.79347 90.073 4.92988 89.969 5.08071L89.4467 5.03145C89.5939 4.88143 89.6922 4.78049 89.7924 4.6788C89.7087 4.63822 89.6042 4.54804 89.5455 4.56445C89.1281 4.68059 88.7176 4.81419 88.3095 4.95082C87.944 5.07326 87.584 5.20648 87.1368 5.36512C87.038 5.29976 86.8869 5.20005 86.7122 5.08458C86.6055 5.21881 86.4836 5.37169 86.3585 5.52988C86.2844 5.46077 86.2178 5.39939 86.1441 5.33081C85.7897 5.50892 85.4338 5.83539 85.0749 5.83844C84.0906 5.84602 83.3053 6.31458 82.3817 6.45023C81.914 6.51866 81.4774 6.79597 81.0658 7.02333C79.6998 7.7785 78.2408 8.36659 76.6445 8.71852C76.5138 8.59552 76.4129 8.50101 76.3106 8.4045C76.1066 8.5333 75.8999 8.66465 75.6338 8.83334L74.2807 8.70573C74.0465 8.94329 73.8327 9.16175 73.5923 9.40526L73.0393 9.35311C72.8312 9.51794 72.6669 9.76629 72.4442 9.80459C71.413 9.98192 70.4235 10.4541 69.3017 9.8169C68.8241 9.54584 68.0028 9.65658 67.3039 9.80034C67.9316 9.89036 68.5587 9.98079 69.1864 10.0713L69.1567 10.216L67.0389 10.0163C66.9951 9.86134 66.9525 9.70976 66.8803 9.45405C66.0544 9.95055 65.3274 9.65971 64.6273 9.33451C63.6432 8.87606 62.6943 8.40971 61.8701 7.73566C60.8048 6.86468 59.6617 6.02418 58.294 5.42682C58.164 5.3702 58.0629 5.27287 57.8474 5.12506L56.0009 4.95092C55.9511 4.87151 55.9057 4.8294 55.9174 4.80996C55.9384 4.77551 55.999 4.75835 56.0357 4.72865C56.0979 4.67754 56.1548 4.6222 56.2641 4.52231L55.1349 4.41581C55.0848 4.22804 55.0445 4.07714 54.9949 3.89033C54.8764 3.86281 54.7351 3.83081 54.3597 3.74404C54.5192 3.98043 54.5918 4.08768 54.6722 4.20594C54.5807 4.26876 54.4676 4.34728 54.2968 4.46567C54.6414 4.55467 54.951 4.6343 55.2605 4.71485C53.155 4.78294 51.0811 5.25046 49.0241 4.77582C48.5163 5.59464 47.6846 5.73195 46.6628 5.60523C45.1762 6.46157 43.6856 7.36515 42.1365 8.19972C40.5219 9.0692 38.7317 9.74608 36.8109 9.91376C35.192 10.0548 33.4543 10.3719 31.8936 9.56957C31.7732 9.50778 31.5836 9.52865 31.4254 9.51934C29.8155 9.43056 28.5171 8.74214 27.2183 8.08869C26.6746 7.81561 26.2901 7.34505 25.7545 7.05731C25.0196 6.66252 24.181 6.42794 23.3439 6.17246C21.8456 5.71595 20.2911 5.71599 18.7616 5.52832C17.3491 5.35494 15.9351 5.40792 14.5309 5.6276C14.3826 5.65097 14.1981 5.6331 14.0646 5.58035C13.9345 5.52839 13.8488 5.40636 13.7131 5.28943C13.6278 5.43269 13.5464 5.56978 13.4056 5.80679C13.1675 5.70776 12.9344 5.61059 12.6736 5.50241C12.6333 5.58406 12.579 5.69288 12.4874 5.87897C11.165 6.04986 9.97315 6.92792 8.43834 6.58285L7.91627 6.91C8.00261 7.0078 8.08895 7.1056 8.20789 7.24057C7.39191 7.61518 6.48744 7.90253 5.79465 8.38357C5.05861 8.89507 4.36952 9.42222 3.34392 9.84945C3.24388 9.97777 3.03741 10.2418 2.7919 10.5553C2.55526 10.6357 2.23584 10.7443 1.94919 10.8415C1.74796 11.5907 1.74796 11.5907 1.20603 12L0 10.7819L0.32668 8.58658C0.400628 8.55479 0.878482 8.46957 0.918254 8.31268C1.08208 7.67296 1.94827 7.55618 2.25796 7.04789C2.5864 6.50822 3.24665 6.23006 3.78551 5.85312C4.519 5.33904 5.24338 4.81522 5.94318 4.27135C7.52028 3.04716 10.5746 1.91232 13.2374 1.68199C13.8667 1.62786 14.4764 1.44487 15.1039 1.36348C15.696 1.2867 16.2801 1.64672 16.928 1.30201C17.1955 1.16006 17.7436 1.35138 17.8009 1.35678C18.2475 1.59551 18.4682 1.71344 18.7274 1.85183C18.4869 2.06031 18.3542 2.17574 18.1635 2.34175L20.0916 2.52358C19.5991 2.33237 19.4238 2.26448 19.1366 2.15287C20.1087 1.51326 21.018 1.04377 22.2246 1.72588C22.3399 1.79092 22.5155 1.79767 22.6662 1.81375C24.6141 2.01987 26.2361 2.70939 27.706 3.75069C28.3015 4.17202 29.1166 4.54449 29.9962 4.53031C30.8588 4.5164 31.5513 4.91233 32.3524 5.0201C34.7845 5.34706 37.0156 4.82478 39.1306 3.93572C40.2514 3.46422 41.3578 2.94702 42.376 2.34865C44.145 1.30927 46.1632 0.771575 48.2574 0.427851C49.763 0.180847 51.3311 0.188166 52.8555 0.0391373C54.4531 -0.116536 55.9537 0.24212 57.501 0.247015C58.5042 0.250097 59.2319 0.681106 59.9206 1.1187C61.4418 2.08358 62.8646 3.14565 64.3733 4.12382C65.0677 4.57363 65.9611 4.76715 66.8135 4.94748C68.3747 5.2773 69.9516 5.08325 71.4841 4.8089C72.7212 4.58841 73.9189 4.22317 75.1279 3.9071C77.1561 3.37689 79.0495 2.60935 80.9758 1.88415C82.9159 1.1537 84.9687 0.556236 87.1898 0.499983C87.8681 0.4827 88.5449 0.317713 89.2136 0.192111C90.6753 -0.0833141 92.0922 0.269328 93.4937 0.336115Z" fill="#F1A5C3"/>
</svg>
