<svg width="100" height="18" viewBox="0 0 100 18" fill="none" xmlns="http://www.w3.org/2000/svg">
<path fill-rule="evenodd" clip-rule="evenodd" d="M6.6506 10.436C6.84988 10.6063 6.99196 10.8047 7.06882 10.7822C8.38879 10.3939 9.69379 9.95659 11.0156 9.57495C12.1794 9.23843 13.2904 8.75858 14.4394 8.38509C15.058 8.18341 15.6982 8.04719 16.3227 7.85991C16.7845 7.72079 17.248 7.39225 17.6903 7.42541C18.3158 7.47188 18.6229 6.94706 19.1851 6.86116C20.0898 6.72378 20.9508 6.30875 21.8356 6.02986C23.2644 5.57943 24.7005 5.15274 26.1281 4.69937C26.9565 4.43671 27.8288 4.2742 28.539 3.67393C28.1883 3.6508 27.8421 3.67725 27.5197 3.77844C26.5577 4.08026 25.6079 4.42059 24.6477 4.72834C24.1822 4.87752 23.701 4.9763 23.2322 5.1163C22.7294 5.26672 22.2326 5.43726 21.733 5.59924C21.2335 5.76121 20.7388 5.94103 20.2335 6.08119C19.1823 6.37312 18.1294 6.65607 17.138 7.12552C16.9936 7.19421 16.8343 7.232 16.6814 7.28346C15.8789 7.55388 14.9887 7.56156 14.2688 8.08532C14.1737 8.15419 14.0462 8.2374 13.9435 8.22656C13.03 8.1274 12.211 8.53949 11.4282 8.84615C10.6177 9.1641 9.64262 9.14873 8.99755 9.86471C8.53962 9.67485 8.20053 10.1661 7.85309 10.1245C7.39907 10.0706 7.12056 10.2713 6.6506 10.436ZM19.3355 10.774C20.1865 10.6402 21.0332 10.4426 21.8894 10.3839C25.1004 10.165 28.3144 9.97858 31.5285 9.80733C33.0154 9.72757 34.4914 9.42327 35.9956 9.61987C36.4576 9.68051 36.9443 9.57893 37.4157 9.5187C37.882 9.45853 38.3162 9.7977 38.8438 9.45503C39.151 9.25515 39.7249 9.48653 40.1784 9.48608C40.9339 9.48592 41.7039 9.49069 42.4427 9.44933C44.305 9.34556 46.1832 9.64849 48.0308 9.24555C48.1144 9.22686 48.2248 9.19357 48.286 9.2296C48.8209 9.5484 49.3697 9.24961 49.9095 9.2785C50.4486 9.30745 50.9897 9.33928 51.5295 9.33376C52.6297 9.32278 53.737 9.20462 54.8287 9.29283C55.552 9.35088 56.2589 9.25532 56.9677 9.2929C58.6737 9.38291 60.3756 9.47561 62.0874 9.46226C62.7531 9.45733 63.4529 9.36266 64.089 9.4876C65.2799 9.72191 66.4746 9.60331 67.6638 9.70785C69.3181 9.8532 70.9925 9.77225 72.646 9.92307C74.2036 10.0652 75.7632 10.1427 77.3205 10.264C78.7108 10.3733 80.0987 10.5068 81.4881 10.6298C82.672 10.7347 83.8561 10.8437 85.0407 10.9405C85.2261 10.9557 85.4152 10.9152 85.6171 10.8994C85.5814 10.7743 85.5751 10.7032 85.5583 10.7002C84.9172 10.6016 84.2745 10.4303 83.634 10.438C83.0123 10.4448 82.4506 9.87778 81.8091 10.2776C80.5012 10.1655 79.1935 10.0473 77.8851 9.94169C76.4911 9.82991 75.0979 9.70932 73.7019 9.63145C72.5387 9.56604 71.3592 9.65005 70.2093 9.49958C68.567 9.28445 66.9191 9.28605 65.2746 9.19357C63.8965 9.11599 62.508 9.2103 61.1311 9.1225C59.4674 9.01669 57.8072 8.93084 56.1402 8.97308C55.3425 8.99342 54.5312 9.06611 53.7471 8.95919C52.6628 8.811 51.584 8.94852 50.5034 8.87799C49.6653 8.82321 48.8192 8.89863 47.9798 8.85779C47.8335 8.85103 47.7003 8.55441 47.4981 8.31718C47.368 8.71475 46.9508 8.95902 46.6331 8.77572C45.9839 8.4011 45.3315 8.70025 44.69 8.60509C44.4363 8.56727 44.1392 8.84464 43.8795 8.81674C42.7559 8.69627 41.6339 8.61919 40.5091 8.73738C40.1456 8.77532 39.791 8.98667 39.4345 8.97986C38.8279 8.96835 38.1541 8.64593 37.6349 8.82362C37.0089 9.03836 36.3695 8.78916 35.7807 9.08197C35.6423 9.15086 35.3985 8.97256 35.2032 8.97269C34.9863 8.97316 34.663 9.15877 34.5718 9.07077C34.2213 8.73178 33.7955 8.8097 33.4888 8.94002C33.0839 9.11213 32.6177 9.30321 32.2892 9.15517C31.7743 8.92288 31.4574 9.41742 30.9982 9.30528C30.4398 9.16852 29.8485 9.27458 29.2747 9.26793C28.6596 9.26046 28.0453 9.5033 27.4243 9.56209C25.8742 9.70922 24.3204 9.81379 22.7683 9.93543C22.1217 9.9861 21.4733 10.0227 20.8289 10.0921C20.2764 10.1513 19.7505 10.3039 19.3355 10.774ZM26.3979 3.28597C25.9918 2.62843 25.4736 2.56545 25.004 2.60529C24.58 2.64156 24.1824 3.00272 23.7311 2.6821C23.3786 3.15616 22.8779 2.66192 22.5022 2.86278C22.0381 3.11139 21.6998 2.6132 21.275 2.71263C21.1844 3.07201 21.1844 3.07201 20.0939 3.15073C19.3863 3.20247 19.3863 3.20247 18.7889 2.88149C18.604 3.03264 18.4172 3.18529 18.207 3.35732C18.1828 3.17835 18.1662 3.05649 18.1211 2.72259C17.9565 3.08068 17.8681 3.27422 17.7524 3.52522C17.4644 3.29472 16.9401 3.33783 16.7595 2.79488C16.742 2.74362 16.2934 2.83648 15.9724 2.8694C16.0896 2.33314 16.1957 1.84365 16.3144 1.29681C17.1156 0.979595 17.9748 0.735105 18.8932 0.65638C19.8159 0.576978 20.7272 0.35641 21.65 0.282064C22.4862 0.213829 23.3317 0.246101 24.1735 0.258408C24.9751 0.269482 25.7722 -0.0568576 26.5768 0.225276C27.9527 -0.371156 29.3535 0.439912 30.7587 0.140146C31.4918 -0.0161795 32.2974 0.204804 33.0198 0.493042C33.3207 0.612531 33.5709 0.860168 33.8443 1.04998L34.3425 2.57662C34.3594 2.65425 34.3783 2.73173 34.3939 2.81014C34.6225 3.9611 34.6381 3.98889 33.6914 4.51963C33.1005 4.85073 32.4543 5.08259 31.8204 5.36442C31.5956 5.19172 31.3651 5.01408 31.056 4.7768C31.0474 4.96103 31.0756 5.07962 31.0323 5.15894C30.7383 5.69623 30.3968 6.17852 29.6698 6.08163C29.2545 6.70738 28.469 6.50979 27.9179 6.87051C27.3877 7.21778 26.7747 7.43859 26.1968 7.71198C26.0511 7.78077 25.8996 7.83785 25.7375 7.90522C25.8205 8.37854 26.1827 8.38458 26.5924 8.35044C28.1 8.22453 29.6094 8.11399 31.1176 7.99174C32.3703 7.89019 33.6208 7.88194 34.8749 7.98747C35.132 8.00882 35.401 7.83691 35.6669 7.82822C36.5937 7.79675 37.5219 7.7871 38.4493 7.78933C39.3343 7.79151 40.2048 7.49417 41.1093 7.74148C41.4624 7.83798 41.8891 7.63447 42.2641 7.69147C42.5865 7.74044 42.8534 7.66755 43.1538 7.63389C43.8492 7.55543 44.5787 7.56811 45.2646 7.70061C45.6113 7.76725 46.0682 7.3029 46.3147 7.8778C46.7125 7.79466 47.107 7.67499 47.5088 7.63541C48.8043 7.50722 50.0981 7.57352 51.3944 7.67945C52.1878 7.74482 52.9903 7.68969 53.7889 7.68818C55.3854 7.68588 56.9832 7.6521 58.5795 7.68896C60.6962 7.737 62.8125 7.82658 64.9277 7.92333C66.7429 8.00715 68.5645 8.05571 70.3698 8.24558C73.0244 8.52547 75.6943 8.54433 78.3507 8.85207C80.419 9.09152 82.5016 9.31499 84.5753 9.45515C86.7474 9.60177 88.8897 9.95386 91.054 10.1264C92.4598 10.2389 93.8449 10.5916 95.2472 10.7713C96.4532 10.9264 97.6385 11.201 98.8459 11.3385C98.995 11.3552 99.1396 11.4137 99.2919 11.4544C99.1543 12.1698 98.6309 12.1042 98.1836 12.1156C97.7657 12.1257 97.3465 12.0685 96.6257 12.0214C97.5389 12.5953 98.289 12.5166 98.9854 12.5899C99.3713 12.6306 99.6346 12.6885 99.7893 13.138C99.6091 13.2149 99.4311 13.2913 99.2353 13.3755C99.4647 13.6936 99.7172 14.0433 100 14.4358C99.7166 14.5748 99.4614 14.6208 99.4141 14.7449C99.3611 14.8861 99.4944 15.0977 99.5513 15.294C99.2506 15.4394 98.7936 15.2309 98.5775 15.6682C98.546 15.7321 98.2838 15.7621 98.2772 15.7458C98.0236 15.1373 97.5689 15.7719 97.1999 15.5805C96.9805 15.4668 96.5508 15.1765 96.1945 15.5692C96.1485 15.6194 95.7549 15.2605 95.572 15.3032C95.3451 15.3571 95.1725 15.6095 94.9434 15.3072C94.8948 15.2425 94.7662 15.1483 94.7501 15.1621C94.0264 15.7445 93.463 14.9883 92.8198 14.9442C92.4849 14.9209 92.1217 14.6736 91.8085 15.013C91.4082 14.577 90.935 15.4756 90.5916 14.9775C90.2608 14.4976 89.6893 15.339 89.4039 14.7065C89.3843 14.6634 88.9053 14.841 88.635 14.8929C88.3112 14.9547 88.0685 14.2435 87.6849 14.7868C87.3505 14.6531 86.9721 14.5788 86.691 14.3717C86.2577 14.0528 85.9381 14.0819 85.6009 14.4808C85.5336 14.5603 85.3654 14.6231 85.2692 14.5979C85 14.5255 84.7476 14.3317 84.4833 14.3217C84.2152 14.311 83.7577 14.5996 83.7 14.5221C83.2545 13.9223 82.7707 14.6466 82.2941 14.4083C82.2171 14.2267 82.124 14.0069 81.9907 13.6934C81.0526 14.2697 79.9855 13.7719 79.0192 14.1659C78.7498 14.2761 78.4513 14.2475 78.2023 13.9771C77.6943 13.4271 77.1404 13.3174 76.5461 13.889C76.4419 13.9896 76.1701 14.0821 76.0992 14.0252C75.3998 13.4632 74.6307 14.2321 73.8917 13.8702C73.5236 13.6902 72.9638 14.0985 72.5837 13.6198C72.5587 13.5884 72.3818 13.6869 72.2721 13.7114C72.0702 13.7572 71.8273 13.7375 71.6694 13.8447C71.222 14.147 71.0921 13.3632 70.6453 13.5952C70.3626 13.7423 70.0039 13.7812 69.6766 13.7943C69.311 13.8091 68.938 13.6919 68.5759 13.721C68.1731 13.7529 67.8719 13.5899 67.5192 13.4606C67.2326 13.3559 66.6874 13.791 66.4852 13.6527C65.9435 13.2811 65.4819 13.6345 64.9922 13.6195C64.4524 13.6038 63.9127 13.5756 63.3723 13.5656C63.0029 13.5585 62.6114 13.7251 62.2937 13.3647C62.2537 13.3192 62.0316 13.4699 61.8948 13.4682C61.3659 13.4617 60.8145 13.8272 60.3019 13.3659C60.2358 13.3063 60.0347 13.4091 59.8948 13.4154C58.6735 13.4699 57.4525 13.5197 56.2316 13.5709C55.8156 13.0281 55.3379 13.508 54.8928 13.4993C54.0084 13.4812 53.1235 13.5097 52.2389 13.5116C52.164 13.5121 52.0852 13.4666 52.0149 13.4303C50.9535 12.8818 50.9538 12.8814 49.8477 12.955C49.5731 12.6158 49.3544 12.146 48.9939 11.9711C48.7458 11.8505 48.3001 12.1392 47.9703 12.4306C48.354 12.4869 48.7387 12.5435 49.4409 12.6467C48.9177 12.9023 48.529 12.7691 48.4093 12.9209C48.1524 13.2471 47.9722 12.9491 47.76 12.9549C46.228 12.9974 44.6977 13.0819 43.1662 13.1098C42.7679 13.1167 42.3196 13.6091 41.9569 13.0331C41.3224 13.2074 40.5596 12.8396 40.036 13.4867C40.0114 13.517 39.9713 13.5566 39.9392 13.556C39.0636 13.5393 38.1887 13.5181 37.3131 13.4976C37.02 13.0944 36.6102 13.273 36.2447 13.3017C34.7167 13.4214 33.1858 13.5036 31.6756 13.8193C31.2131 13.9167 30.6554 14.1284 30.2345 13.6097C30.1852 13.5494 29.9752 13.5733 29.8658 13.6194C29.5729 13.7446 29.3012 13.998 29.0068 14.0211C28.7123 14.0442 28.3789 13.7254 28.1014 13.7755C27.384 13.904 26.6722 14.1092 25.9888 14.3663C25.3516 14.6058 24.3676 14.6185 23.7045 14.2645L23.1877 14.8692C22.2713 14.9734 21.3293 14.9224 20.398 15.0734C19.4623 15.225 18.5005 15.3267 17.5575 15.2848C16.8488 15.253 16.1916 15.1645 15.5933 15.6426C15.5095 15.7099 15.3408 15.6671 15.2121 15.6816C13.4749 15.8785 11.7363 16.066 10.0012 16.2772C8.87313 16.4146 7.76331 16.6814 6.62242 16.7327C6.48155 16.7393 6.34677 16.8839 6.21747 16.9605L5.59795 16.431C5.41596 16.507 5.20259 16.5487 5.0524 16.6688C4.61279 17.0184 4.19711 17.1438 3.60001 16.9864C2.86647 16.7932 2.84472 16.8816 2.63429 16.1686C2.60033 16.0538 2.54656 15.9447 2.50104 15.8332C2.34543 15.4492 1.6966 15.8503 1.64124 15.2817C1.59933 14.8504 1.29266 14.8123 0.915159 14.7532C0.539363 14.6942 0.504038 14.4932 0.417502 13.6689C0.614671 13.4894 0.77283 13.3461 0.930989 13.2028C0.804295 13.1233 0.685849 13.0027 0.549117 12.9759C0.385649 12.9438 0.206197 12.992 0.0284499 13.0059C0.0206615 12.9367 -0.0178563 12.8499 0.00993643 12.7999C0.249732 12.3721 0.417562 11.8484 0.774434 11.5582C1.09131 11.3002 1.63975 11.349 2.05351 11.182C3.50907 10.5948 4.96033 10.0002 6.46811 9.55409C7.28498 9.31225 8.04105 8.8889 8.91169 8.79502C9.16564 8.76736 9.38731 8.43989 9.64167 8.4132C9.89128 8.38622 10.1669 8.65616 10.3711 8.2737C10.4158 8.18989 10.576 8.15405 10.6907 8.12381C11.7092 7.85468 12.6903 7.45217 13.7005 7.18404C14.4912 6.97427 15.2515 6.69974 16.0177 6.43521C17.0115 6.09243 18.0776 5.96974 19.0118 5.44639C19.0457 5.4272 19.0971 5.43295 19.1395 5.43537C19.4951 5.45576 19.8498 5.47857 20.2052 5.50066C20.2866 5.0158 20.6747 4.99516 21.0485 4.90783C21.3988 4.82606 21.7237 4.61433 22.0751 4.56047C23.1334 4.39856 24.1032 3.95071 25.1246 3.67461C25.5122 3.57033 25.8925 3.44099 26.3979 3.28597Z" fill="#F1A5C3"/>
</svg>
