<svg width="100" height="17" viewBox="0 0 100 17" fill="none" xmlns="http://www.w3.org/2000/svg">
<path fill-rule="evenodd" clip-rule="evenodd" d="M43.4681 10.1039C44.6947 10.3745 45.7557 10.1744 46.6709 9.63683C45.6035 9.79245 44.536 9.94808 43.4681 10.1039ZM68.5698 1.49765C68.706 1.37541 68.6076 1.26749 68.3635 1.17087C67.7816 0.941234 64.61 1.03322 64.0456 1.31214C63.9504 1.35906 63.8631 1.46401 63.8743 1.5363C63.8972 1.67969 64.0543 1.72523 64.2906 1.68967C65.466 1.51378 66.6648 1.63442 67.8525 1.61247C68.0886 1.60783 68.325 1.67275 68.5698 1.49765ZM90.0143 8.23613C89.447 8.48846 88.9251 8.53531 88.4248 8.27122C88.1824 8.14322 88.0306 8.09241 87.6842 8.18903C86.4816 8.52342 85.2726 8.40102 84.0841 8.09061C83.845 8.02833 83.486 7.85966 83.3535 8.10993C83.2439 8.31738 83.4899 8.46763 83.8699 8.56543C85.4221 8.96557 87.0659 8.85162 88.6634 8.91827C89.0219 8.93331 90.0357 8.9476 90.0143 8.23613ZM25.4573 2.5973C21.6626 1.9391 16.1868 2.65854 14.2247 4.07143C16.05 3.66383 17.8667 3.26511 19.7776 3.02404C21.6586 2.78686 23.5876 2.83552 25.4573 2.5973ZM73.8087 4.30903C73.1579 4.55088 72.5747 4.70407 72.1304 4.95653C71.884 5.0966 71.7302 5.23418 71.4459 5.08825C70.3997 4.55081 69.1191 4.89577 67.9848 4.67824C66.6246 4.41712 65.5683 4.77982 64.3887 5.24166C62.4218 6.01154 61.228 7.25973 59.4641 8.1501C58.5311 8.6209 57.6601 9.22497 56.8911 9.83652C55.4677 10.9698 53.5046 11.6108 51.6287 12.3484C50.3334 12.8575 49.3091 13.584 47.6493 13.7744C45.1006 14.0673 42.748 13.7742 40.407 13.1908C39.7272 13.0208 39.6212 12.6887 39.8409 12.1729C39.1425 12.7064 38.7606 12.5535 38.1038 12.2171C36.6703 11.4821 35.1408 10.8449 34.7273 9.59061C34.7017 9.51242 34.5805 9.4169 34.4657 9.38374C32.3538 8.77514 31.3134 7.51434 30.0693 6.39415C29.6563 6.02222 29.423 5.77978 28.5721 5.73861C27.7639 5.69943 26.7647 5.66109 26.1667 5.06252C25.7352 4.63055 25.3586 5.23492 24.8064 5.21321C19.3439 5.00066 15.0192 6.53941 11.0208 8.74755C9.29434 9.7005 7.67824 10.7332 6.15625 11.7794C4.77182 12.7313 3.65432 13.9392 2.886 15.2041C2.66762 15.5637 2.509 15.9285 1.86971 16.0347C1.12023 16.1587 1.08961 15.6348 0.777017 15.4216C-0.365287 14.6429 -0.0928655 13.8866 0.601237 12.9205C1.28998 11.9634 1.73684 10.9137 2.73775 10.0629C5.27598 7.9048 7.62052 5.63228 11.3101 4.13984C15.5577 2.42206 19.9988 1.30124 25.2146 1.70121C26.662 1.81222 28.2158 1.80634 29.2508 2.39515C30.8526 3.30623 32.5933 4.15645 33.7684 5.36335C34.9543 6.58072 36.4572 7.63628 38.4759 8.32515C42.4759 9.69079 46.1666 8.95726 49.5548 7.49944C53.0083 6.01358 55.6626 3.91905 58.795 2.18821C62.9636 -0.115366 67.3703 -0.601175 72.0904 0.958105C73.9016 1.55665 75.5155 2.4183 76.7248 3.54791C78.2209 4.94495 79.806 6.27064 82.3165 7.07017C84.4967 7.76474 87.8346 7.75676 89.6696 6.7437C91.7092 5.61732 93.6623 4.42707 95.6591 3.269C96.373 2.85513 97.19 2.52893 98.0757 2.29427C98.6676 2.138 99.3434 2.2393 99.6028 2.60389C99.8951 3.0146 99.2909 3.09108 98.7931 3.13182C98.4222 3.1621 98.3092 3.3072 98.3884 3.52344C98.4724 3.75059 98.6544 3.79919 99.0264 3.72303C100.037 3.51653 100.162 3.80748 99.8014 4.33298C99.5279 4.73203 100.208 5.01984 99.933 5.55389C99.4467 6.49855 98.5814 7.15242 97.5527 7.79597C97.449 7.86071 97.3712 7.95002 97.251 7.99484C96.5115 8.26843 94.5406 9.35688 93.9913 9.92358C93.6314 10.2947 92.8669 10.3373 92.591 10.7629C92.4989 10.905 92.1555 10.8352 92.0659 10.6438C92.0122 10.5284 92.0069 10.3595 91.7508 10.523C90.02 11.6278 89.475 11.8436 88.178 11.9194C86.8799 11.9949 85.6239 11.6475 84.3074 11.7654C83.8823 11.8033 83.7597 11.4658 83.7103 11.2106C83.6752 11.0306 83.7163 10.8094 83.3037 10.7943C82.997 10.7832 82.6108 10.8904 82.5999 11.0473C82.5551 11.7067 82.0857 11.4616 81.6198 11.2635C80.6118 10.8357 79.3328 10.5317 78.6629 9.94613C77.4584 8.89337 76.0253 7.9849 74.7452 6.98644C74.2721 6.61723 73.8568 6.19963 74.1862 5.63793C74.4376 5.2095 73.8912 4.8277 73.8087 4.30903Z" fill="#F1A5C3"/>
</svg>
