<svg width="100" height="15" viewBox="0 0 100 15" fill="none" xmlns="http://www.w3.org/2000/svg">
<path fill-rule="evenodd" clip-rule="evenodd" d="M12.1542 13.3121C11.2085 12.5966 11.2085 12.5966 9.9261 13.3527C10.7243 13.3382 11.3855 13.3261 12.1542 13.3121ZM2.87424 6.64329C2.4273 6.86637 2.00778 7.01858 2.20869 7.38274C2.41182 7.7511 2.87842 7.93214 3.87671 8.03614C2.92629 7.6184 3.13089 7.13253 2.87424 6.64329ZM71.0086 6.14824C69.7609 6.08756 68.674 6.40243 67.5513 6.6195C68.6752 6.38993 70.096 7.25873 71.0086 6.14824ZM62.1024 9.18199C62.1076 9.23088 62.1134 9.27945 62.1192 9.32836C63.5306 9.2917 64.9423 9.25845 66.352 9.21184C66.4397 9.20886 66.5922 9.0963 66.5826 9.0431C66.5506 8.8687 66.3191 8.7601 66.0839 8.78144C64.7537 8.90279 63.4292 9.04619 62.1024 9.18199ZM67.6058 10.7966C65.6125 10.966 63.5876 10.9464 61.5843 11.0574C63.6651 11.4216 65.6343 11.0997 67.6058 10.7966ZM12.632 9.40892C11.7502 9.43334 10.8644 9.43851 9.98986 9.49663C9.75254 9.51242 9.29927 9.22677 9.24177 9.64498C9.1997 9.95326 9.48514 10.0434 9.87305 10.1515C11.1122 10.4954 11.7951 9.87045 12.632 9.40892ZM50.3648 4.21691C51.3652 4.90486 52.6559 4.56691 53.8369 4.63851C54.1126 4.65508 54.2653 4.53505 54.2988 4.36902C54.3248 4.23758 54.1982 4.08278 54.0125 4.12045C52.8064 4.36757 51.5126 3.58937 50.3648 4.21691ZM65.2502 6.95671C64.8496 6.85952 60.5493 6.67972 60.1429 6.74056C59.9571 6.76803 59.7332 6.7917 59.7748 6.94862C59.8031 7.05757 59.9041 7.19363 60.0388 7.25339C60.9982 7.67672 64.2273 7.48445 65.2502 6.95671ZM34.4222 12.2443C34.9766 12.4479 35.7207 12.178 36.1468 12.6725C35.3986 12.9517 34.6176 12.9623 33.8362 12.8475C33.4117 12.7853 33.02 12.7219 32.5854 12.7914C31.5535 12.9567 30.7905 12.9173 30.8761 11.9879C30.9153 11.5635 28.5938 10.6315 27.8062 10.6832C26.8258 10.747 25.6232 10.6501 24.9039 10.8646C22.9733 11.4398 20.662 11.6001 19.1837 12.7304C18.8982 12.9491 18.5199 12.8946 18.1729 12.9611C16.8933 13.2062 15.3357 12.9922 14.4692 13.9526C14.1296 14.3281 14.069 13.5221 13.397 13.6882C12.6415 13.8752 11.7221 13.8262 10.872 13.8272C8.79087 13.8287 7.66687 13.4153 7.42672 12.1338C7.2705 11.2991 6.72977 11.572 6.0517 11.6444C6.34725 11.257 6.9869 10.8977 5.76956 10.7731C4.97436 10.6916 5.00022 10.1007 4.64071 9.76004C4.38867 9.52118 4.94851 9.66352 5.15642 9.62537C5.51754 9.55966 5.93876 9.48741 6.04398 9.18465C5.60763 9.12558 5.80811 8.55214 5.03849 8.70542C4.5544 8.80173 4.0601 8.59164 3.5921 8.32217C3.9428 9.06738 2.96727 9.48185 2.80613 10.0999C2.68563 10.5599 2.34386 11.0113 2.49999 11.5005C2.60701 11.8343 2.20791 11.9659 2.06906 11.7754C1.65811 11.2114 0.50002 11.0404 0.388935 10.337C0.345238 10.061 0.582137 10.0333 0.828605 9.96672C1.08155 9.89843 1.78471 10.0823 1.5501 9.805C1.09294 9.26699 1.36916 8.76977 1.31634 8.25746C0.305227 8.78346 0.647511 7.81243 0.0927485 7.75328C-0.0379917 7.73927 -0.120354 7.12475 0.489714 7.1618C2.06884 7.25706 2.00046 6.44451 1.96897 5.91842C1.91935 5.09705 2.58886 4.74998 3.5157 4.43036C4.021 4.63562 3.21786 5.22033 4.14345 5.30877C4.89384 5.38041 4.85726 4.89584 5.215 4.69163C5.40901 4.57999 5.68407 4.43579 5.48198 4.22448C5.28222 4.01637 4.9451 4.12215 4.69953 4.15244C3.38919 4.31327 3.57759 3.52304 3.84903 3.35655C4.71873 2.82342 5.14948 2.04146 6.21642 1.63951C7.34832 1.21362 8.07508 1.45251 8.22803 2.28842C8.24386 2.37459 8.31119 2.47244 8.40225 2.53727C10.3659 3.94474 9.77543 5.57935 9.48266 7.16174C9.23278 8.51405 9.30163 8.5746 11.4195 8.36316C13.8865 8.11694 16.121 7.45283 18.4116 6.89444C21.0488 6.25085 23.6461 5.53097 26.4463 5.20934C28.6684 4.95437 30.6324 5.29108 31.9734 6.59658C32.6749 7.27891 33.4967 7.3956 34.6654 7.1702C38.5578 6.41914 42.1533 5.24119 45.7891 4.12527C47.5787 3.57629 49.4723 3.18188 51.3461 2.84382C53.5409 2.44801 55.7367 2.91848 57.2155 4.13779C58.5934 5.27439 60.2513 5.61427 62.3453 5.53539C68.211 5.31287 73.8522 4.40511 79.4832 3.47401C85.2927 2.51369 91.0198 1.37822 96.7101 0.171405C97.0213 0.105312 97.3563 0.053112 97.6831 0.0534686C98.2084 0.0532198 98.8812 0.0784397 99.0141 0.443946C99.12 0.73524 98.4307 0.765524 98.1051 0.920872C97.7945 1.06855 97.0581 1.02589 97.2508 1.38824C97.455 1.77263 98.0646 1.50518 98.5046 1.51653C99.1035 1.53258 100.531 1.10836 99.4085 2.15769C99.3547 2.20808 99.3841 2.33373 99.446 2.39492C100.619 3.55252 99.8711 4.46479 97.7494 4.87754C96.2779 5.16406 94.8068 5.5607 93.4395 6.00453C90.7636 6.87164 87.9185 7.45551 85.1533 8.16C80.3221 9.39145 75.3815 10.4541 70.3041 11.2359C67.3403 11.6923 64.3321 11.8645 61.2735 11.6336C60.784 11.5967 60.3274 11.5671 59.8967 11.7853C60.2444 12.0525 60.6898 12.1913 61.1821 12.282C60.3835 12.137 59.5094 12.1095 58.9747 11.5734C58.7502 11.3489 58.3918 11.3489 58.0161 11.288C57.5089 11.2057 56.5922 11.1123 57.1428 10.478C57.1837 10.4306 57.1856 10.3682 57.2052 10.3125C56.0067 10.4435 56.5062 9.52805 55.8267 9.37163C54.9629 9.17309 54.3008 8.83141 53.7232 8.37918C53.2913 8.0417 52.6353 8.0174 52.0412 8.04342C51.519 8.06626 50.8222 8.54232 50.7985 7.72442C50.7978 7.71078 50.4477 7.66326 50.2846 7.68927C49.9858 7.73667 49.9658 7.92621 50.0684 8.06169C50.3624 8.44865 50.2202 8.79049 49.6327 8.86241C48.7005 8.97716 48.0817 9.58801 47.0704 9.48703C46.544 9.43454 46.8642 8.99378 46.4509 8.7732C46.0757 9.23268 44.7916 9.24306 45.1699 10.0398C45.1834 10.0687 45.0395 10.1685 44.9869 10.1625C44.0714 10.057 43.9354 10.357 43.6654 10.8767C43.378 11.43 42.1654 11.392 41.3265 11.57C41.1954 11.5974 40.9677 11.6335 40.9612 11.679C40.7795 12.9148 39.2642 12.017 38.4787 12.2893C38.2391 12.3723 38.0521 12.1958 37.8871 12.0035C37.2219 11.2287 36.5697 11.1863 35.6851 11.7482C35.3514 11.9602 34.8687 12.0739 34.4222 12.2443Z" fill="#F1A5C3"/>
</svg>
