<svg width="443" height="379" viewBox="0 0 443 379" fill="none" xmlns="http://www.w3.org/2000/svg">
<path d="M203.677 102.673C220.524 97.3794 242.975 95.4483 259.723 101.519C250.009 110.82 240.886 120.719 232.406 131.158L230.353 132.722L229.651 132.076C222.926 121.404 213.638 111.608 203.648 102.673H203.677Z" fill="white"/>
<path fill-rule="evenodd" clip-rule="evenodd" d="M204.587 102.884C214.339 111.668 223.401 121.293 230.015 131.772L230.38 132.108L232.075 130.818C240.396 120.577 249.336 110.856 258.845 101.709C242.562 96.0827 221.043 97.8645 204.587 102.884ZM203.603 102.202C220.499 96.9073 243.026 94.9664 259.882 101.077L260.595 101.335L260.048 101.86C250.348 111.147 241.238 121.032 232.771 131.455L232.735 131.499L230.323 133.336L229.285 132.381L229.251 132.328C222.559 121.707 213.306 111.944 203.333 103.025L202.414 102.202H203.603Z" fill="black"/>
<path d="M408.62 131.563C408.53 131.541 408.436 131.537 408.344 131.55C408.253 131.564 408.164 131.596 408.085 131.645C408.006 131.693 407.937 131.756 407.882 131.831C407.828 131.906 407.789 131.991 407.767 132.081C403.345 150.45 401.173 167.692 401.216 186.484C396.063 188.933 390.854 191.194 385.48 193.163C385.387 193.188 385.299 193.233 385.224 193.294C385.148 193.355 385.086 193.431 385.041 193.517C384.996 193.603 384.969 193.698 384.963 193.794C384.956 193.891 384.969 193.989 385.002 194.08C385.034 194.172 385.085 194.255 385.151 194.326C385.218 194.397 385.298 194.454 385.387 194.492C385.476 194.531 385.572 194.551 385.669 194.55C385.766 194.55 385.862 194.53 385.951 194.491C391.504 192.466 396.887 190.111 402.21 187.572L402.257 187.544L402.318 187.506L402.374 187.459L402.417 187.417L402.464 187.36C402.478 187.344 402.491 187.327 402.502 187.308C402.514 187.289 402.525 187.269 402.534 187.247L402.563 187.186V187.12V187.054C402.563 187.054 402.563 187.002 402.563 186.974V186.932C402.497 168.092 404.649 150.803 409.076 132.416C409.124 132.242 409.103 132.057 409.018 131.898C408.933 131.74 408.791 131.62 408.62 131.563Z" fill="black"/>
<path d="M55.8235 179.556C55.5283 177.455 55.2144 175.356 54.8815 173.259C54.8635 173.137 54.814 173.022 54.738 172.926C54.662 172.829 54.5622 172.754 54.4482 172.708C54.3349 172.661 54.211 172.645 54.0893 172.661C53.9677 172.678 53.8526 172.726 53.7559 172.802L53.5628 172.943C49.4229 176.009 43.7476 178.642 37.5872 180.356C37.4565 180.391 37.3387 180.463 37.2483 180.563C37.1579 180.663 37.0989 180.788 37.0785 180.922L37.055 181.049C37.0279 181.227 37.0692 181.408 37.1706 181.557C37.272 181.705 37.4259 181.81 37.6013 181.849C43.5545 183.149 49.5171 184.539 55.3337 185.971C55.39 185.977 55.4469 185.977 55.5032 185.971C55.6765 185.973 55.8446 185.911 55.9742 185.796C56.06 185.723 56.127 185.631 56.1696 185.527C56.2122 185.423 56.2292 185.31 56.2191 185.198C56.0495 183.262 55.9177 181.374 55.8235 179.593C55.8282 179.598 55.8282 179.575 55.8235 179.556Z" fill="black"/>
<path d="M40.3594 181.007C45.087 179.538 49.5742 177.385 53.6787 174.616C53.9267 176.321 54.1732 178.025 54.4181 179.726C54.4982 181.21 54.6065 182.769 54.7384 184.365C50.0098 183.212 45.1869 182.081 40.3594 181.007Z" fill="black"/>
<path d="M392.733 71.5565C392.916 71.5146 393.075 71.4018 393.175 71.2428C393.274 71.0838 393.307 70.8917 393.265 70.7087C393.223 70.5257 393.11 70.3668 392.951 70.267C392.792 70.1672 392.6 70.1347 392.417 70.1765C373.724 74.4765 354.343 81.8568 336.955 89.8729C336.792 89.9561 336.668 90.0989 336.609 90.2715C336.549 90.4441 336.559 90.633 336.636 90.7986C336.712 90.9643 336.85 91.0938 337.02 91.16C337.191 91.2262 337.38 91.2241 337.548 91.1539C354.852 83.1802 374.134 75.8283 392.733 71.5565Z" fill="black"/>
<path d="M369.531 92.0623C358.758 95.0151 348.175 98.62 337.839 102.857C337.665 102.928 337.527 103.064 337.454 103.237C337.381 103.41 337.38 103.604 337.45 103.778C337.521 103.952 337.658 104.09 337.83 104.163C338.003 104.236 338.198 104.237 338.371 104.166C348.663 99.9501 359.201 96.3625 369.927 93.4234C370.102 93.3692 370.25 93.2487 370.338 93.0875C370.426 92.9263 370.448 92.7371 370.399 92.56C370.35 92.3829 370.234 92.2319 370.075 92.139C369.917 92.0461 369.728 92.0186 369.55 92.0623H369.531Z" fill="black"/>
<path d="M365.825 106.305C356.792 107.906 348.267 110.944 340.011 114.938C339.851 115.024 339.731 115.169 339.675 115.341C339.619 115.514 339.632 115.702 339.711 115.866C339.789 116.029 339.928 116.156 340.098 116.22C340.268 116.284 340.456 116.28 340.623 116.209C348.766 112.272 357.169 109.276 366.056 107.694C366.243 107.662 366.41 107.556 366.52 107.4C366.629 107.245 366.673 107.052 366.64 106.865C366.608 106.678 366.502 106.511 366.347 106.401C366.191 106.292 365.999 106.249 365.811 106.281L365.825 106.305Z" fill="black"/>
<path d="M207.039 139.066C207.14 138.909 207.175 138.719 207.137 138.536C207.098 138.353 206.988 138.194 206.832 138.091C189.099 126.618 171.037 116.525 151.511 108.453C151.337 108.381 151.142 108.381 150.968 108.453C150.795 108.525 150.657 108.663 150.585 108.837C150.513 109.01 150.513 109.205 150.585 109.379C150.657 109.552 150.795 109.69 150.969 109.762C170.401 117.797 188.402 127.852 206.073 139.278C206.23 139.377 206.419 139.411 206.6 139.371C206.781 139.331 206.939 139.222 207.039 139.066Z" fill="black"/>
<path d="M112.228 71.4196C93.276 60.5871 70.6407 57.2902 49.588 52.8395C49.4043 52.8007 49.2129 52.8365 49.0556 52.939C48.8984 53.0414 48.7883 53.2022 48.7496 53.3858C48.7109 53.5694 48.7467 53.7609 48.8492 53.9181C48.9516 54.0753 49.1123 54.1854 49.296 54.2241C70.1839 58.6372 92.6778 61.9058 111.508 72.6488C111.588 72.6946 111.677 72.724 111.769 72.7354C111.861 72.7468 111.955 72.74 112.044 72.7153C112.134 72.6905 112.217 72.6485 112.291 72.5914C112.364 72.5344 112.425 72.4634 112.471 72.3827C112.517 72.302 112.546 72.2131 112.557 72.121C112.569 72.0289 112.562 71.9355 112.537 71.846C112.512 71.7566 112.47 71.6729 112.413 71.5997C112.356 71.5266 112.285 71.4654 112.205 71.4196H112.228Z" fill="black"/>
<path d="M51.593 71.9139C51.5009 71.8924 51.4054 71.8897 51.3122 71.9059C51.219 71.9221 51.13 71.9568 51.0505 72.008C50.971 72.0592 50.9026 72.1259 50.8493 72.204C50.796 72.2822 50.759 72.3702 50.7404 72.463C50.7218 72.5557 50.722 72.6512 50.741 72.7439C50.76 72.8365 50.7974 72.9244 50.851 73.0024C50.9046 73.0803 50.9733 73.1467 51.053 73.1975C51.1327 73.2484 51.2219 73.2828 51.3151 73.2985C59.7598 74.9941 67.969 77.3678 76.2346 79.7509C76.325 79.7813 76.4206 79.793 76.5156 79.7854C76.6107 79.7778 76.7032 79.751 76.7876 79.7067C76.872 79.6624 76.9466 79.6015 77.0069 79.5276C77.0671 79.4537 77.1118 79.3684 77.1382 79.2768C77.1646 79.1852 77.1722 79.0892 77.1605 78.9946C77.1488 78.9 77.1181 78.8087 77.0702 78.7263C77.0223 78.6438 76.9582 78.5719 76.8818 78.5149C76.8054 78.4579 76.7182 78.417 76.6255 78.3945C68.3316 76.002 60.0753 73.6188 51.593 71.9139Z" fill="black"/>
<path d="M442.03 46.8062C441.875 46.7154 441.692 46.6868 441.517 46.7261C441.342 46.7655 441.188 46.8699 441.088 47.0181C434.907 46.7902 428.717 46.99 422.564 47.6163C423.195 44.7009 423.869 41.5972 424.523 38.4557C424.582 38.346 424.608 38.2218 424.599 38.0978C425.395 34.3064 426.172 30.482 426.831 26.9309C426.975 26.8916 427.103 26.8082 427.196 26.6925C427.29 26.5767 427.345 26.4344 427.354 26.2856C427.358 26.1666 427.333 26.0484 427.28 25.9415C427.228 25.8347 427.149 25.7426 427.052 25.6734C427.074 25.486 427.02 25.2979 426.902 25.1504C426.785 25.0028 426.613 24.9081 426.426 24.8868C426.239 24.8656 426.051 24.9196 425.903 25.0371C425.756 25.1546 425.661 25.3259 425.64 25.5132C407.653 24.9433 388.851 29.9781 371.854 34.7962C316.537 50.4798 266.712 87.4752 230.56 131.677C218.263 112.564 197.021 95.5478 179.473 82.0119C137.65 49.7687 98.1159 27.4489 46.9252 14.9209H46.8027H46.6567H46.5908H46.5248L46.4542 14.9539L46.4024 14.9821C46.3802 14.9935 46.3596 15.0077 46.3412 15.0245L46.294 15.0622L46.247 15.114L46.2046 15.1658L46.1669 15.227L46.1339 15.2836C46.1209 15.3126 46.1099 15.3425 46.101 15.373V15.4107V15.5096C46.101 15.5096 46.101 15.5379 46.101 15.552C46.101 15.5661 46.101 15.552 46.101 15.585C46.0986 15.6211 46.0986 15.6572 46.101 15.6933C46.5719 18.4532 46.9063 20.8411 47.2784 23.2808C47.4951 24.7173 47.7494 26.182 48.0272 27.741C46.6143 27.3218 45.2014 26.9073 43.8261 26.4976C35.0565 23.9543 26.9509 21.8773 19.7402 20.3277C19.6089 20.299 19.4722 20.3084 19.346 20.3546C19.2198 20.4009 19.1095 20.4822 19.0279 20.589C18.9463 20.6958 18.8969 20.8237 18.8854 20.9576C18.8739 21.0915 18.9009 21.2259 18.9631 21.3451C27.7516 38.2626 34.5054 63.6437 37.9247 92.8161C37.9428 92.978 38.0166 93.1285 38.1334 93.242C38.2503 93.3554 38.403 93.4246 38.5653 93.4378C40.322 93.5838 41.669 94.149 42.5639 95.1192C45.2579 98.0393 47.349 105.697 42.0694 114.806C41.7868 115.277 41.1274 116.252 40.1384 117.632C40.0443 117.76 39.9977 117.916 40.0065 118.075C40.0442 118.899 40.0818 119.723 40.1148 120.543C40.1199 120.671 40.1601 120.796 40.2311 120.904C40.3021 121.012 40.4012 121.098 40.5176 121.153C40.634 121.208 40.7634 121.231 40.8916 121.218C41.0198 121.205 41.1421 121.157 41.2452 121.08C44.0844 118.943 47.1388 117.109 50.3586 115.607C50.4069 115.626 50.4576 115.639 50.5093 115.644C50.6728 115.669 50.8396 115.635 50.9808 115.549C51.1219 115.463 51.2284 115.33 51.2817 115.174C55.9585 113.125 60.5836 112.023 64.4691 112.14C65.2655 112.163 66.0597 112.234 66.8476 112.352C66.9404 112.366 67.035 112.362 67.126 112.339C67.2171 112.316 67.3027 112.276 67.3782 112.22C67.4536 112.165 67.5173 112.095 67.5657 112.014C67.6141 111.934 67.6461 111.845 67.66 111.752C67.6739 111.659 67.6694 111.564 67.6468 111.473C67.6241 111.382 67.5838 111.297 67.528 111.221C67.4723 111.146 67.4022 111.082 67.3218 111.034C67.2414 110.985 67.1523 110.953 67.0595 110.939C66.2157 110.812 65.3647 110.736 64.5115 110.713C60.2727 110.586 55.7466 111.759 51.5125 113.539C52.5143 106.877 52.9163 100.139 52.7135 93.4049C62.6417 95.0015 72.2403 97.7944 81.7164 101.237C81.8053 101.276 81.9013 101.297 81.9984 101.297C82.0955 101.297 82.1916 101.277 82.2808 101.239C82.3699 101.2 82.4501 101.144 82.5164 101.073C82.5827 101.002 82.6337 100.918 82.6661 100.826C82.6986 100.735 82.7118 100.638 82.705 100.541C82.6982 100.444 82.6715 100.35 82.6266 100.263C82.5817 100.177 82.5195 100.101 82.4439 100.041C82.3683 99.9795 82.281 99.9348 82.1874 99.9091C72.358 96.3391 62.4063 93.4614 52.0871 91.8742C52.0371 91.8672 51.9864 91.8672 51.9364 91.8742H51.8092L51.6868 91.9213L51.6397 91.9448L51.569 91.9919C51.4595 92.077 51.3789 92.1938 51.3382 92.3263C51.3282 92.3603 51.3203 92.3949 51.3147 92.4299V92.5053C51.3124 92.5256 51.3124 92.5462 51.3147 92.5665C51.5716 99.8341 51.1157 107.109 49.9536 114.288C46.9637 115.669 44.107 117.321 41.4194 119.224L41.377 118.31C42.319 116.968 42.9454 116.068 43.2374 115.56C46.3411 110.205 48.9833 100.097 43.5482 94.2008C42.3919 93.019 40.8524 92.2876 39.2058 92.1379C35.8195 63.785 29.3152 39.0068 20.8376 22.0704C27.6433 23.5728 35.2166 25.5321 43.3693 27.9011C45.1401 28.4144 46.9205 28.942 48.6725 29.4695C65.4723 34.5607 83.0022 40.853 96.7595 46.7402C132.437 62.0601 166.059 81.7807 196.843 105.443C207.284 113.45 217.5 121.979 227.225 130.81C225.723 142.288 224.776 153.996 223.863 165.323L223.66 167.82C223.189 173.584 222.685 179.726 222.087 185.849C221.663 190.135 221.192 194.618 220.636 199.564C219.732 207.636 218.753 215.836 217.778 223.767L217.09 229.457C216.054 238.043 214.862 248.107 213.845 257.979C212.295 256.42 209.027 253.477 205.815 250.627C204.034 233.672 202.212 217.781 199.414 202.625C200.139 203.237 200.865 203.865 201.59 204.509C201.66 204.57 201.742 204.617 201.83 204.646C201.918 204.676 202.011 204.687 202.104 204.681C202.197 204.674 202.287 204.649 202.37 204.608C202.454 204.566 202.528 204.509 202.589 204.438C202.679 204.335 202.737 204.206 202.756 204.07C202.774 203.933 202.752 203.795 202.692 203.671C205.019 188.293 207.006 171.606 208.674 156.168C208.676 156.15 208.676 156.133 208.674 156.116C208.676 156.091 208.676 156.065 208.674 156.04V155.974C208.676 155.953 208.676 155.93 208.674 155.909L208.65 155.843L208.622 155.777L208.593 155.725L208.551 155.664L208.509 155.616L208.457 155.565L208.396 155.518C208.396 155.518 208.396 155.518 208.353 155.489C197.817 149.174 187.734 143.112 176.991 137.875C174.108 132.793 170.901 127.73 167.322 122.667C168.625 124.598 169.857 126.581 171.019 128.615C172.589 131.381 174.036 134.207 175.361 137.093C171.593 135.298 167.727 133.603 163.728 132.039C163.641 132.006 163.549 131.989 163.456 131.991C163.363 131.993 163.272 132.014 163.187 132.051C163.015 132.126 162.88 132.267 162.812 132.442C162.744 132.617 162.748 132.812 162.824 132.983C162.899 133.155 163.04 133.29 163.215 133.358C167.717 135.115 172.041 137.046 176.265 139.104C176.689 140.071 177.102 141.044 177.504 142.024C177.711 142.533 177.914 143.041 178.116 143.555C184.442 159.53 188.949 177.032 192.17 195.183C189.04 192.93 185.785 190.855 182.421 188.967C182.258 188.875 182.064 188.852 181.883 188.902C181.703 188.953 181.55 189.074 181.458 189.237C181.366 189.401 181.343 189.594 181.394 189.775C181.445 189.956 181.565 190.109 181.729 190.201C185.466 192.296 189.067 194.626 192.51 197.176C195.089 212.712 196.868 228.371 197.841 244.09C197.726 244.126 197.623 244.192 197.544 244.283C197.42 244.423 197.357 244.607 197.367 244.794C197.378 244.981 197.462 245.156 197.601 245.282C198.105 245.752 198.877 246.402 199.81 247.222C203.785 250.712 211.179 257.207 213.181 259.321C213.247 259.391 213.327 259.447 213.415 259.485C213.503 259.523 213.598 259.542 213.694 259.543H214.471C214.646 259.542 214.815 259.477 214.944 259.36C215.074 259.242 215.156 259.081 215.173 258.907C216.2 248.8 217.429 238.433 218.493 229.626L219.181 223.937C220.123 216.001 221.136 207.801 222.04 199.719C222.596 194.769 223.071 190.299 223.491 185.985C224.093 179.863 224.602 173.702 225.068 167.933L225.271 165.436C226.18 154.199 227.122 142.585 228.601 131.21C229.006 131.823 229.404 132.436 229.797 133.052C228.756 144.186 227.734 155.56 226.665 167.815C225.789 177.894 224.908 188.284 223.976 199.582C223.217 208.79 222.421 218.568 221.55 229.485C220.768 239.25 219.994 249.016 219.228 258.785V258.846C219.226 258.868 219.226 258.89 219.228 258.912C219.226 258.938 219.226 258.965 219.228 258.992C219.226 259.01 219.226 259.029 219.228 259.048C219.235 259.074 219.244 259.1 219.256 259.124C219.263 259.141 219.271 259.159 219.28 259.175C219.295 259.202 219.312 259.228 219.332 259.251C219.331 259.263 219.331 259.276 219.332 259.288C219.356 259.316 219.383 259.341 219.412 259.364C219.482 259.42 219.562 259.463 219.647 259.491H219.704H219.789H219.977C220.053 259.491 220.128 259.477 220.198 259.449H220.236C220.297 259.424 220.354 259.39 220.406 259.35C222.365 257.725 233.923 249.421 236.16 247.74C238.538 246.181 240.907 244.712 243.192 243.388C243.354 243.294 243.473 243.14 243.521 242.959C243.57 242.778 243.544 242.585 243.451 242.423C243.357 242.26 243.203 242.142 243.022 242.093C242.84 242.045 242.648 242.07 242.485 242.164C240.356 243.398 238.157 244.759 235.943 246.2C239.665 226.692 245.525 207.653 253.417 189.428C253.525 189.476 253.643 189.496 253.761 189.485C253.879 189.475 253.992 189.434 254.09 189.367C275.576 174.842 299.549 163.534 323.743 154.632C323.84 154.609 323.93 154.566 324.009 154.506C324.088 154.445 324.153 154.369 324.2 154.282C324.247 154.195 324.276 154.099 324.284 154C324.291 153.901 324.278 153.802 324.245 153.708C324.212 153.615 324.159 153.529 324.091 153.458C324.022 153.386 323.939 153.329 323.848 153.291C323.756 153.254 323.657 153.236 323.558 153.239C323.459 153.242 323.361 153.266 323.272 153.309C299.318 162.121 275.59 173.292 254.25 187.577C258.519 177.94 263.531 168.649 269.241 159.789L270.405 159.149C286.512 150.407 305.728 142.41 313.236 141.327C313.39 141.304 313.532 141.231 313.641 141.118C313.749 141.006 313.817 140.86 313.834 140.705C314.832 131.611 316.146 123.246 317.974 114.373C319.222 108.321 320.734 101.882 322.872 93.4944C322.905 93.367 322.902 93.2327 322.863 93.107C322.824 92.9812 322.75 92.869 322.651 92.7832C322.556 92.6968 322.441 92.6373 322.315 92.6108C322.19 92.5843 322.061 92.5918 321.939 92.6325C302.055 99.4711 270.654 116.916 247.284 134.112C247.209 134.168 247.146 134.238 247.098 134.319C247.051 134.4 247.019 134.49 247.007 134.583C245 149.395 243.597 163.256 242.721 176.971C242.714 177.067 242.728 177.164 242.76 177.254C242.792 177.345 242.843 177.429 242.909 177.499C242.974 177.57 243.054 177.626 243.142 177.665C243.231 177.704 243.326 177.724 243.422 177.724C243.522 177.724 243.62 177.703 243.711 177.662C243.802 177.622 243.883 177.562 243.95 177.489C247.765 173.25 254.971 167.98 264.819 162.271C258.009 172.148 251.953 182.523 246.7 193.309C246.585 193.251 246.456 193.225 246.327 193.235C246.199 193.245 246.075 193.29 245.97 193.365C244.818 194.207 243.675 195.059 242.542 195.923C242.464 195.977 242.398 196.047 242.348 196.128C242.298 196.208 242.264 196.298 242.25 196.392C242.235 196.486 242.239 196.581 242.262 196.673C242.286 196.766 242.327 196.852 242.384 196.928C242.442 197.003 242.514 197.067 242.596 197.114C242.678 197.161 242.769 197.191 242.864 197.203C242.958 197.214 243.053 197.206 243.145 197.18C243.236 197.153 243.321 197.109 243.394 197.049C244.171 196.46 244.953 195.88 245.749 195.301C236.329 215.007 229.566 235.415 226.368 253.194C224.197 254.776 222.129 256.293 220.787 257.315C221.512 248.081 222.244 238.848 222.982 229.617C223.853 218.699 224.649 208.922 225.407 199.719C226.349 188.415 227.221 178.054 228.097 167.956C229.161 155.739 230.183 144.407 231.219 133.292C277.771 97.7332 313.815 77.1561 370.563 60.4363C392.699 53.918 416.917 47.6257 440.301 48.4264C435.356 56.904 431.093 65.5841 426.775 74.3961C426.728 74.4799 426.699 74.5722 426.69 74.6674C426.68 74.7626 426.69 74.8587 426.719 74.95C426.748 75.0413 426.795 75.1257 426.857 75.1983C426.919 75.2709 426.996 75.3301 427.082 75.3722C427.168 75.4144 427.261 75.4386 427.357 75.4435C427.452 75.4484 427.548 75.4339 427.638 75.4007C427.727 75.3676 427.809 75.3166 427.879 75.2508C427.948 75.1849 428.004 75.1057 428.042 75.0178C432.572 65.7725 437.037 56.692 442.298 47.7952C442.348 47.7133 442.381 47.6221 442.394 47.5272C442.407 47.4323 442.401 47.3356 442.376 47.243C442.351 47.1505 442.307 47.0641 442.248 46.989C442.188 46.9139 442.114 46.8517 442.03 46.8062ZM197.728 104.336C150.701 62.471 103.815 40.5751 48.5736 22.7156C48.2722 20.7234 47.9896 18.7405 47.6316 16.5552C98.1112 29.0832 137.24 51.2334 178.602 83.1328C194.78 95.6043 214.132 111.052 226.641 128.347C217.34 120.015 207.633 111.938 197.728 104.336ZM178.182 140.032C188.073 144.972 197.46 150.601 207.223 156.45C205.598 171.432 203.676 187.535 201.439 202.498C200.629 201.804 199.818 201.121 199.004 200.449C194.94 179.278 188.864 159.483 178.182 140.032ZM244.247 175.101C245.123 162.163 246.47 149.042 248.354 135.068C271.116 118.357 301.405 101.454 321.153 94.3986C319.175 102.193 317.748 108.302 316.561 114.062C314.762 122.803 313.452 131.06 312.463 139.989C304.57 141.351 286.738 148.754 270.89 157.246C273.831 152.882 277.022 148.691 280.446 144.694C283.407 141.016 286.574 137.508 289.932 134.187C293.577 130.581 297.457 127.221 301.546 124.127C288.787 132.75 277.027 145.18 266.722 159.53L265.394 160.284C258.597 164.169 249.649 169.76 244.247 175.101ZM296.012 88.681C295.965 88.7152 295.923 88.7547 295.885 88.7987C275.553 99.683 256.242 112.607 234.916 128.676C270.588 86.425 318.85 51.2993 372.259 36.1573C389.049 31.3957 407.62 26.3987 425.399 26.9167C424.764 30.2984 424.033 33.9155 423.28 37.5138C371.307 45.0589 332.334 63.1916 296.012 88.681Z" fill="black"/>
<path d="M235.734 247.198C243.382 206.543 260.225 168.13 280.448 144.694C283.41 141.016 286.577 137.508 289.934 134.186C298.291 125.88 307.901 118.94 318.414 113.619C334.724 105.424 358.447 104.637 372.478 117.858L372.643 118.013C377.159 122.332 380.465 127.602 382.924 133.273C383.593 134.824 384.204 136.394 384.756 137.983C389.084 150.482 389.96 163.326 388.722 176.132C387.356 191.392 383.668 210.113 378.831 229.569C376.415 239.257 373.716 249.129 370.872 258.841C370.131 261.352 369.383 263.864 368.63 266.376C361.231 290.829 353.149 313.705 346.753 329.459C346.753 329.511 346.71 329.567 346.687 329.619C349.042 321.895 345.849 315.221 343.724 311.929C343.24 311.165 342.703 310.435 342.118 309.744L341.878 309.476C332.021 298.332 315.32 293.095 301.138 291.536C288.831 290.266 276.396 291.246 264.44 294.428C262.349 294.974 260.272 295.586 258.223 296.255C252.91 297.988 246.943 299.943 240.731 304.177C239.19 305.239 237.793 306.494 236.572 307.912C235.359 309.238 234.38 310.761 233.675 312.414C233.239 313.467 232.962 314.578 232.851 315.711C232.785 316.406 232.793 317.105 232.875 317.798C230.751 301.262 230.897 283.798 232.875 266.381C233.157 263.869 233.471 261.357 233.817 258.845C234.372 254.955 235.016 251.076 235.748 247.207L235.734 247.198Z" fill="white"/>
<mask id="mask0_221_3268" style="mask-type:luminance" maskUnits="userSpaceOnUse" x="231" y="107" width="159" height="223">
<path d="M235.741 247.198C243.39 206.543 260.232 168.13 280.456 144.694C283.418 141.016 286.585 137.508 289.942 134.186C298.298 125.88 307.909 118.94 318.422 113.619C334.732 105.424 358.455 104.637 372.486 117.858L372.65 118.013C377.167 122.332 380.473 127.602 382.932 133.273C383.601 134.824 384.211 136.394 384.764 137.983C389.092 150.482 389.968 163.326 388.73 176.132C387.364 191.392 383.676 210.113 378.839 229.569C376.423 239.257 373.724 249.129 370.879 258.841C370.138 261.352 369.391 263.864 368.638 266.376C361.239 290.829 353.157 313.705 346.761 329.459C346.761 329.511 346.718 329.567 346.695 329.619C349.05 321.895 345.856 315.221 343.732 311.929C343.247 311.165 342.711 310.435 342.126 309.744L341.886 309.476C332.028 298.332 315.327 293.095 301.146 291.536C288.839 290.266 276.404 291.246 264.448 294.428C262.356 294.974 260.279 295.586 258.231 296.255C252.918 297.988 246.951 299.943 240.739 304.177C239.198 305.239 237.801 306.494 236.58 307.912C235.367 309.238 234.387 310.761 233.683 312.414C233.247 313.467 232.969 314.578 232.859 315.711C232.793 316.406 232.801 317.105 232.883 317.798C230.758 301.262 230.904 283.798 232.883 266.381C233.165 263.869 233.479 261.357 233.825 258.845C234.38 254.955 235.024 251.076 235.756 247.207L235.741 247.198Z" fill="white"/>
</mask>
<g mask="url(#mask0_221_3268)">
<path d="M228.465 300.037C228.101 300.406 227.666 300.695 227.185 300.888C226.705 301.08 226.19 301.172 225.672 301.157C225.155 301.141 224.646 301.02 224.178 300.799C223.709 300.578 223.291 300.264 222.95 299.874C222.609 299.485 222.352 299.03 222.194 298.536C222.037 298.043 221.983 297.523 222.035 297.008C222.088 296.493 222.246 295.994 222.5 295.543C222.753 295.092 223.097 294.698 223.51 294.386C251.406 270.036 294.157 268.246 326.655 279.606C348.791 287.349 366.071 301.234 371.256 317.789C371.404 318.261 371.458 318.757 371.413 319.25C371.369 319.743 371.229 320.222 370.999 320.661C370.77 321.099 370.456 321.488 370.077 321.806C369.697 322.123 369.258 322.362 368.786 322.51C368.314 322.658 367.817 322.711 367.324 322.667C366.832 322.623 366.352 322.482 365.914 322.253C365.475 322.023 365.086 321.71 364.769 321.33C364.452 320.951 364.212 320.512 364.065 320.04C359.473 305.383 343.78 293.576 324.173 286.723C294.03 276.187 254.331 277.482 228.46 300.061L228.465 300.037Z" fill="white"/>
<path fill-rule="evenodd" clip-rule="evenodd" d="M326.494 280.051C294.099 268.727 251.543 270.537 223.814 294.74L223.802 294.751L223.789 294.761C223.428 295.034 223.127 295.379 222.904 295.774C222.682 296.169 222.544 296.605 222.498 297.056C222.452 297.506 222.499 297.962 222.637 298.393C222.775 298.825 223 299.223 223.299 299.564C223.597 299.904 223.963 300.18 224.373 300.373C224.783 300.566 225.228 300.672 225.68 300.686C226.133 300.699 226.584 300.619 227.004 300.451C227.425 300.282 227.806 300.029 228.124 299.706L229.23 298.586L229.184 298.816C255.238 276.947 294.48 275.847 324.322 286.278C343.981 293.149 359.85 305.029 364.508 319.899L364.509 319.899C364.638 320.312 364.847 320.696 365.125 321.028C365.403 321.36 365.743 321.635 366.127 321.835C366.51 322.036 366.93 322.159 367.361 322.198C367.792 322.237 368.227 322.19 368.64 322.061C369.053 321.931 369.437 321.722 369.769 321.444C370.101 321.166 370.376 320.826 370.576 320.442C370.777 320.059 370.9 319.639 370.939 319.208C370.977 318.777 370.931 318.342 370.801 317.929C365.68 301.578 348.564 287.771 326.494 280.051ZM227.759 301.138C227.628 301.207 227.493 301.27 227.355 301.325C226.814 301.542 226.235 301.645 225.653 301.627C225.07 301.61 224.498 301.473 223.971 301.225C223.444 300.977 222.974 300.623 222.59 300.185C222.207 299.747 221.917 299.234 221.74 298.68C221.563 298.125 221.502 297.539 221.561 296.96C221.62 296.381 221.798 295.82 222.083 295.312C222.366 294.809 222.749 294.37 223.207 294.02C251.271 269.535 294.208 267.767 326.805 279.162L326.805 279.162C349.006 286.927 366.451 300.889 371.7 317.648L371.261 317.785L371.7 317.648C371.867 318.179 371.927 318.738 371.877 319.292C371.827 319.847 371.669 320.386 371.411 320.879C371.153 321.372 370.8 321.81 370.373 322.167C369.946 322.524 369.453 322.793 368.921 322.959C368.39 323.126 367.831 323.186 367.277 323.136C366.722 323.086 366.183 322.928 365.69 322.67C365.197 322.412 364.759 322.059 364.402 321.632C364.045 321.205 363.776 320.712 363.61 320.18L364.053 320.042L363.61 320.181C363.61 320.18 363.61 320.18 363.61 320.18C359.084 305.736 343.567 294.002 324.012 287.167C293.968 276.666 254.466 277.985 228.764 300.416L227.721 301.326L227.759 301.138Z" fill="black"/>
</g>
<path fill-rule="evenodd" clip-rule="evenodd" d="M346.282 108.177C336.64 107.749 326.712 109.977 318.629 114.038C308.16 119.337 298.59 126.248 290.268 134.52L290.267 134.521C286.923 137.829 283.768 141.324 280.817 144.989L280.812 144.995L280.807 145.001C260.703 168.298 243.921 206.493 236.256 246.979L236.271 246.988L236.213 247.294C235.483 251.155 234.84 255.027 234.285 258.91C233.941 261.418 233.627 263.925 233.345 266.433C231.544 282.291 231.265 298.182 232.838 313.368C232.953 312.984 233.089 312.605 233.243 312.233L233.244 312.229C233.968 310.529 234.975 308.963 236.222 307.598C237.468 306.153 238.894 304.872 240.466 303.789L240.468 303.787C246.741 299.511 252.766 297.54 258.079 295.807C260.136 295.135 262.222 294.52 264.322 293.972C276.333 290.776 288.825 289.791 301.189 291.067L301.192 291.067C315.418 292.631 332.26 297.89 342.232 309.162C342.233 309.162 342.233 309.163 342.233 309.163L342.472 309.429L342.476 309.434L342.48 309.439C343.078 310.146 343.627 310.893 344.123 311.674C345.848 314.349 348.295 319.26 347.958 325.18C354.056 309.702 361.405 288.634 368.181 266.24C368.934 263.729 369.681 261.218 370.422 258.707C373.265 249.001 375.962 239.136 378.376 229.455C383.211 210.009 386.892 191.314 388.255 176.089L388.255 176.086C389.489 163.331 388.615 150.558 384.313 138.136C383.764 136.558 383.158 134.999 382.494 133.459C380.054 127.832 376.781 122.619 372.32 118.354C372.32 118.353 372.32 118.353 372.319 118.353L372.157 118.2C365.244 111.686 355.924 108.605 346.282 108.177ZM347.212 329.585C347.207 329.607 347.202 329.626 347.196 329.643C347.182 329.688 347.164 329.725 347.152 329.749C347.142 329.769 347.131 329.789 347.125 329.8L347.123 329.804C347.118 329.813 347.117 329.816 347.117 329.816L347.118 329.813L346.239 329.481C348.534 321.953 345.425 315.43 343.331 312.184L343.329 312.181C342.857 311.437 342.334 310.726 341.765 310.052C341.764 310.051 341.762 310.049 341.761 310.047L341.529 309.789L341.528 309.787C331.785 298.773 315.226 293.558 301.091 292.004C288.841 290.74 276.464 291.716 264.563 294.882L264.561 294.883C262.479 295.427 260.411 296.036 258.371 296.702C253.059 298.435 247.15 300.373 241 304.564C239.493 305.603 238.126 306.832 236.931 308.219L236.926 308.224L236.922 308.229C235.745 309.516 234.795 310.992 234.112 312.596C233.694 313.604 233.428 314.669 233.322 315.755C233.26 316.417 233.267 317.082 233.345 317.742L232.41 317.857C230.28 301.278 230.427 283.775 232.409 266.327C232.692 263.811 233.006 261.296 233.352 258.78L233.353 258.778C233.895 254.983 234.52 251.199 235.229 247.425L235.215 247.416L235.273 247.11C242.932 206.402 259.798 167.908 280.089 144.392C283.06 140.702 286.237 137.183 289.605 133.851C297.996 125.51 307.647 118.541 318.204 113.198L318.205 113.197C326.431 109.064 336.519 106.801 346.324 107.236C356.129 107.671 365.686 110.808 372.803 117.514L372.968 117.67L372.97 117.672C377.543 122.044 380.881 127.371 383.358 133.085L383.359 133.086C384.032 134.647 384.647 136.228 385.203 137.827C389.558 150.404 390.436 163.319 389.193 176.175C387.824 191.47 384.13 210.217 379.291 229.682C376.873 239.377 374.172 249.255 371.326 258.972L371.326 258.973C370.584 261.486 369.837 263.998 369.083 266.511L369.083 266.512C361.688 290.95 353.611 313.817 347.212 329.585ZM344.123 311.674C344.124 311.675 344.124 311.676 344.124 311.676L343.728 311.928L344.122 311.673C344.123 311.674 344.123 311.674 344.123 311.674Z" fill="black"/>
<path d="M346.68 329.615C344.17 335.663 337.105 337.81 330.361 337.773L316.518 367.609C316.462 367.732 316.372 367.836 316.259 367.908C316.145 367.981 316.013 368.02 315.878 368.019C315.775 368.02 315.674 367.998 315.581 367.953C315.497 367.914 315.421 367.859 315.357 367.79C315.294 367.722 315.245 367.641 315.213 367.554C315.181 367.466 315.167 367.373 315.171 367.28C315.175 367.187 315.198 367.096 315.237 367.011L338.202 317.464C331.34 307.781 307 293.18 264.414 294.424C276.37 291.242 288.806 290.263 301.113 291.532C315.294 293.091 331.995 298.328 341.852 309.472L342.093 309.74C342.677 310.431 343.214 311.161 343.699 311.925C345.832 315.218 349.035 321.891 346.68 329.615Z" fill="black"/>
<path d="M240.728 304.544C240.728 304.422 240.728 304.295 240.728 304.172C239.203 305.254 237.808 306.507 236.569 307.907C235.356 309.234 234.377 310.756 233.672 312.41C233.236 313.462 232.959 314.573 232.848 315.707C232.33 321.5 236.508 324.773 241.547 326.511L243.996 361.17C244.008 361.349 244.087 361.516 244.217 361.638C244.348 361.76 244.519 361.829 244.698 361.83H244.75C244.843 361.824 244.933 361.799 245.016 361.758C245.099 361.717 245.174 361.66 245.235 361.59C245.295 361.519 245.342 361.438 245.371 361.35C245.4 361.262 245.412 361.169 245.405 361.076L241.439 305.194C241.424 305.017 241.342 304.851 241.21 304.731C241.078 304.61 240.906 304.544 240.728 304.544Z" fill="black"/>
<path d="M315.626 377.978L243.96 377.983C243.806 376.06 243.709 374.104 243.71 372.157C252.231 366.437 265.301 363.487 278.774 363.322C292.246 363.157 306.038 365.778 315.978 371.122C316.095 373.413 315.977 375.711 315.626 377.978Z" stroke="white" stroke-width="0.842013"/>
<path d="M315.81 367.062C316.11 368.311 316.303 369.582 316.385 370.863C296.312 359.937 260.513 360.2 243.289 371.932C243.289 367.029 243.948 362.164 245.842 357.973C250.98 346.594 264.841 345.294 275.773 345.421C289.525 345.586 306.777 347.055 313.63 361.1C314.564 363.005 315.295 365.004 315.81 367.062Z" fill="white"/>
<path fill-rule="evenodd" clip-rule="evenodd" d="M258.779 347.831C253.39 349.536 248.771 352.635 246.273 358.167L246.273 358.167C244.53 362.027 243.846 366.489 243.77 371.051C252.494 365.438 265.489 362.593 278.765 362.43C292.088 362.267 305.782 364.805 315.846 370.042C315.746 369.077 315.582 368.119 315.355 367.175C314.848 365.149 314.128 363.183 313.209 361.307L313.209 361.307C309.856 354.436 303.959 350.624 297.151 348.505C290.332 346.384 282.64 345.975 275.769 345.892C270.316 345.829 264.179 346.123 258.779 347.831ZM258.495 346.933C264.043 345.178 270.302 344.887 275.78 344.95L275.78 344.95C282.662 345.033 290.472 345.441 297.431 347.606C304.4 349.775 310.555 353.72 314.055 360.894C315.004 362.829 315.746 364.858 316.27 366.948L316.271 366.953C316.577 368.227 316.773 369.525 316.857 370.833L316.912 371.685L316.162 371.277C306.217 365.864 292.336 363.206 278.776 363.372C265.212 363.538 252.061 366.529 243.556 372.322L242.82 372.823V371.933C242.82 366.993 243.484 362.054 245.415 357.779C248.055 351.932 252.936 348.691 258.495 346.933Z" fill="black"/>
<path d="M193.906 319.762C193.906 320.03 193.906 320.303 193.868 320.567C193.289 332.742 192.314 343.989 190.882 354.949C190.86 355.119 190.778 355.275 190.649 355.388C190.521 355.502 190.356 355.565 190.185 355.566H190.091C189.999 355.554 189.91 355.524 189.829 355.478C189.749 355.432 189.678 355.37 189.622 355.297C189.565 355.223 189.524 355.139 189.5 355.049C189.476 354.96 189.47 354.866 189.483 354.774C190.896 343.852 191.88 332.638 192.455 320.506C192.761 314.068 192.954 307.281 193.03 300.329V298.535C193.031 298.348 193.106 298.17 193.238 298.038C193.37 297.907 193.549 297.833 193.736 297.833C193.923 297.835 194.101 297.912 194.231 298.045C194.362 298.178 194.434 298.358 194.433 298.544C194.433 298.737 194.433 298.93 194.433 299.119C200.344 304.215 201.488 311.633 193.906 319.762Z" fill="black"/>
<path d="M176.959 291.974C176.959 291.974 120.211 286.167 95.6449 309.334C94.199 310.7 94.7548 313.055 95.871 315.674C87.8643 325.701 87.9538 337.08 106.143 337.113L106.27 337.395C107.466 340.127 108.664 342.852 109.864 345.572L110.745 347.578C112.628 351.854 114.512 356.129 116.396 360.403C116.452 360.528 116.542 360.635 116.656 360.71C116.771 360.785 116.905 360.826 117.041 360.827C117.139 360.827 117.236 360.806 117.324 360.765C117.411 360.729 117.489 360.675 117.555 360.607C117.621 360.54 117.672 360.46 117.706 360.372C117.74 360.284 117.757 360.19 117.754 360.096C117.752 360.002 117.73 359.909 117.691 359.823C115.808 355.547 113.924 351.27 112.04 346.994L111.159 344.988C109.963 342.272 108.763 339.546 107.561 336.811C105.959 333.161 104.066 328.828 102.074 324.222C128.901 292.478 176.959 291.974 176.959 291.974Z" fill="black"/>
<path d="M198.908 266.372C199.346 280.463 199.379 294.282 199.177 307.441C198.977 305.598 198.33 303.831 197.293 302.293C196.32 300.857 195.125 299.585 193.751 298.526C190.214 295.737 185.198 293.712 179.438 292.742C156.214 288.833 128.572 293.868 107.995 305.458C103.889 307.775 100.193 310.752 97.0543 314.27C96.7576 314.609 96.4656 314.949 96.183 315.292C92.2692 320.068 90.1639 325.183 90.974 329.271C84.8513 313.828 77.6311 290.74 71.2588 266.372C70.6025 263.86 69.9573 261.348 69.3231 258.836C64.0481 237.854 59.5455 216.415 57.0446 198.485C56.3947 193.822 54.5202 175.459 54.2188 173.363C55.4719 172.436 56.6356 171.394 57.6946 170.25C58.1656 169.736 58.6365 169.19 59.0557 168.625C62.5315 164.24 64.7922 158.616 63.5583 153.285L64.0858 153.068C72.408 149.71 79.9766 141.981 81.3001 132.854C81.5452 131.611 81.6916 130.352 81.7381 129.086C82.0536 119.841 75.6389 113.04 66.9587 111.73C78.6673 98.4866 97.1014 90.1361 115.102 90.4422C121.295 90.6309 127.415 91.8304 133.221 93.9934C134.015 94.3074 134.8 94.6481 135.576 95.0154C150.84 102.108 162.709 114.076 170.998 128.601C173.447 132.923 175.613 137.399 177.483 142C177.691 142.509 177.893 143.018 178.096 143.531C190.063 173.768 195.597 209.468 197.877 244.707C198.191 249.417 198.442 254.126 198.63 258.836C198.734 261.348 198.825 263.86 198.904 266.372H198.908Z" fill="white"/>
<mask id="mask1_221_3268" style="mask-type:luminance" maskUnits="userSpaceOnUse" x="54" y="90" width="146" height="240">
<path d="M198.916 266.372C199.354 280.464 199.387 294.283 199.185 307.442C198.985 305.598 198.338 303.831 197.301 302.294C196.328 300.857 195.133 299.585 193.759 298.526C190.222 295.738 185.206 293.713 179.446 292.742C156.222 288.833 128.58 293.868 108.003 305.459C103.897 307.776 100.201 310.753 97.0621 314.271C96.7654 314.61 96.4734 314.949 96.1908 315.293C92.277 320.069 90.1717 325.183 90.9818 329.272C84.8591 313.828 77.6389 290.741 71.2666 266.372C70.6104 263.86 69.9651 261.348 69.3309 258.837C64.0559 237.854 59.5533 216.416 57.0524 198.485C56.4025 193.823 54.528 175.459 54.2266 173.363C55.4797 172.436 56.6434 171.394 57.7024 170.25C58.1734 169.737 58.6444 169.19 59.0635 168.625C62.5394 164.24 64.8001 158.617 63.5661 153.285L64.0936 153.069C72.4158 149.711 79.9844 141.982 81.3079 132.854C81.553 131.612 81.6994 130.352 81.7459 129.087C82.0614 119.841 75.6467 113.04 66.9665 111.731C78.6751 98.487 97.1092 90.1366 115.11 90.4427C121.303 90.6314 127.423 91.8309 133.229 93.9939C134.023 94.3079 134.808 94.6486 135.584 95.0159C150.848 102.109 162.717 114.076 171.006 128.601C173.455 132.923 175.621 137.399 177.491 142.001C177.698 142.509 177.901 143.018 178.104 143.531C190.071 173.768 195.605 209.469 197.885 244.707C198.199 249.417 198.45 254.127 198.638 258.837C198.742 261.348 198.833 263.86 198.911 266.372H198.916Z" fill="white"/>
</mask>
<g mask="url(#mask1_221_3268)">
<path d="M84.3051 314.261C83.8961 315.17 83.144 315.879 82.2133 316.234C81.2826 316.59 80.249 316.562 79.3387 316.157C78.4284 315.753 77.7154 315.004 77.3557 314.075C76.996 313.146 77.0189 312.112 77.4194 311.2C83.0947 298.427 98.7971 287.849 118.201 281.476C146.578 272.16 182.617 271.694 204.202 284.396C205.047 284.911 205.655 285.737 205.896 286.697C206.136 287.656 205.99 288.671 205.489 289.524C204.988 290.376 204.171 290.997 203.216 291.253C202.261 291.509 201.243 291.379 200.383 290.891C180.352 279.117 146.884 279.988 120.552 288.635C103.483 294.24 89.2975 303.024 84.2863 314.261H84.3051Z" fill="white"/>
<path fill-rule="evenodd" clip-rule="evenodd" d="M163.734 275.15C148.532 274.845 132.481 277.282 118.343 281.924C98.9806 288.282 83.4385 298.802 77.8447 311.39C77.4946 312.188 77.4747 313.092 77.7893 313.905C78.1041 314.717 78.7279 315.373 79.5245 315.727C80.321 316.081 81.2254 316.105 82.0397 315.794C82.7523 315.522 83.3452 315.013 83.722 314.357L83.8505 314.069C86.4038 308.344 91.2773 303.277 97.6266 298.947C103.979 294.614 111.835 291 120.399 288.188C133.613 283.848 148.615 281.46 162.83 281.634C177.038 281.808 190.502 284.541 200.613 290.483C201.365 290.909 202.254 291.022 203.088 290.798C203.924 290.574 204.639 290.031 205.077 289.285C205.516 288.539 205.644 287.65 205.433 286.811C205.223 285.973 204.692 285.251 203.955 284.8C193.256 278.506 178.94 275.456 163.734 275.15ZM85.0186 313.79H85.0281L84.729 314.454C84.2689 315.476 83.4228 316.274 82.3757 316.674C81.3287 317.074 80.1659 317.043 79.1418 316.587C78.1177 316.132 77.3156 315.29 76.9109 314.245C76.5063 313.199 76.532 312.037 76.9825 311.01L76.9834 311.008H76.9834C82.7406 298.051 98.603 287.415 118.049 281.029L118.049 281.029C132.288 276.354 148.444 273.901 163.753 274.208C179.055 274.516 193.549 277.584 204.436 283.99L204.442 283.994C205.392 284.573 206.076 285.503 206.347 286.582C206.618 287.661 206.453 288.803 205.889 289.762C205.325 290.721 204.407 291.42 203.332 291.708C202.257 291.996 201.113 291.85 200.145 291.301L200.138 291.297C190.219 285.466 176.934 282.748 162.819 282.576C148.71 282.403 133.811 284.775 120.693 289.083C112.189 291.875 104.418 295.455 98.1574 299.725C92.1459 303.825 87.5516 308.544 85.0186 313.79Z" fill="black"/>
</g>
<path d="M190.183 354.864C193.357 359.234 195.308 364.372 195.835 369.747C195.91 370.486 195.962 371.273 195.985 372.102C175.766 359.15 128.871 361.095 112.227 371.16C112.65 369.181 113.269 367.248 114.073 365.39C114.881 363.543 115.881 361.784 117.054 360.144C126.992 346.278 145.845 343.994 161.547 343.74C171.942 343.57 183.684 346.019 190.202 354.888L190.183 354.864Z" fill="white"/>
<path fill-rule="evenodd" clip-rule="evenodd" d="M189.804 355.139C183.421 346.482 171.896 344.041 161.556 344.21L161.556 344.21C153.719 344.337 145.131 344.97 137.273 347.288C129.42 349.605 122.327 353.596 117.438 360.417C116.284 362.031 115.301 363.76 114.506 365.578C113.857 367.077 113.331 368.626 112.932 370.209C117.103 367.91 122.837 366.076 129.402 364.777C136.487 363.375 144.571 362.591 152.763 362.528C168.722 362.405 185.189 365.021 195.479 371.231C195.452 370.734 195.414 370.255 195.367 369.794L195.367 369.792C194.848 364.5 192.928 359.442 189.803 355.14L189.804 355.139ZM190.581 354.609L190.582 354.608C183.925 345.55 171.98 343.098 161.541 343.268C153.675 343.395 144.986 344.031 137.007 346.385C129.023 348.74 121.721 352.825 116.672 359.869L116.672 359.869C115.48 361.536 114.464 363.323 113.642 365.201L113.642 365.203C112.825 367.089 112.197 369.051 111.767 371.061L111.539 372.126L112.471 371.562C116.565 369.087 122.557 367.091 129.585 365.701C136.606 364.312 144.63 363.532 152.77 363.47C169.075 363.345 185.74 366.097 195.733 372.498L196.483 372.978L196.457 372.088C196.434 371.248 196.381 370.45 196.305 369.699C195.77 364.25 193.795 359.042 190.581 354.609Z" fill="black"/>
<path d="M111.764 377.982C111.928 375.772 112.202 373.571 112.586 371.388C116.682 368.961 122.607 367.003 129.536 365.634C136.56 364.245 144.588 363.466 152.731 363.404C168.937 363.279 185.509 365.994 195.534 372.314C195.588 374.206 195.484 376.099 195.221 377.973L111.764 377.982Z" stroke="white" stroke-width="0.842013"/>
<path d="M67.0468 111.029C66.2027 110.903 65.3518 110.827 64.4988 110.803C56.8642 110.572 47.4164 114.707 40.3658 120.005L39.9278 120.34C40.3988 119.713 40.8368 119.092 41.256 118.508C42.1697 117.231 42.9232 116.153 43.2576 115.559C45.264 112.102 46.8512 107.185 46.7005 102.607C46.5969 99.4708 45.6785 96.4848 43.5685 94.2052C42.3298 92.8582 40.573 92.2318 38.6514 92.0717C35.8632 91.8456 32.7265 92.6086 30.5271 93.3339C21.2252 96.4094 12.6298 104.166 7.74107 112.54C2.48024 121.593 0.417349 132.703 0.39851 143.338C0.391228 148.916 0.930731 154.481 2.00927 159.954C2.40489 161.923 2.85703 163.811 3.36097 165.606C3.60588 166.466 3.86021 167.301 4.12396 168.111C5.67348 172.821 7.58095 176.589 9.59203 178.911C11.6031 181.233 14.7257 182.679 18.5406 183.333C24.0699 184.275 31.0216 183.635 37.7283 181.803L37.9921 181.732C44.1148 180.027 50.0303 177.357 54.434 174.093L54.6365 173.942C55.9211 172.987 57.116 171.916 58.2065 170.744C58.6775 170.212 59.1485 169.647 59.6194 169.067C59.8125 168.813 60.0009 168.554 60.1846 168.295C63.3826 163.736 65.1064 158.061 64.3669 153.742C73.113 150.209 80.1588 142.278 81.991 133.019C82.2445 131.734 82.3942 130.432 82.4384 129.124C82.7539 119.483 76.0802 112.394 67.0468 111.029ZM81.0113 129.048C80.9688 130.281 80.8254 131.508 80.5827 132.717C78.8589 141.449 72.237 148.928 64.0137 152.324C63.7706 151.567 63.42 150.848 62.9728 150.191C61.0889 147.431 57.1845 146.314 52.8185 147.04C51.5295 147.256 50.2666 147.606 49.0507 148.085C47.7508 148.594 45.8621 149.931 45.0144 151.448C44.355 152.635 44.2749 153.911 45.2828 155.065C45.9614 155.784 46.8442 156.277 47.812 156.478C49.446 156.803 51.1238 156.842 52.7714 156.596C55.4346 156.2 58.0697 155.634 60.6603 154.9C61.4453 154.706 62.2208 154.476 62.9869 154.213C63.5615 158.178 61.9037 163.303 58.993 167.447C58.8188 167.692 58.6445 167.918 58.4608 168.173C58.0464 168.719 57.6036 169.251 57.1468 169.75C56.1146 170.86 54.9827 171.872 53.7652 172.774L53.5721 172.92C49.2956 176.09 43.5496 178.675 37.5965 180.333L37.3374 180.404C30.8473 182.175 24.117 182.839 18.7667 181.906C15.3191 181.303 12.4509 180.051 10.6517 177.955C8.73014 175.722 6.931 172.115 5.47097 167.631C5.2135 166.84 4.96544 166.023 4.72681 165.182C4.23228 163.439 3.78485 161.588 3.40336 159.657C2.34053 154.276 1.80891 148.804 1.81616 143.319C1.81616 132.929 3.82724 122.073 8.97034 113.228C13.6801 105.123 21.9835 97.6245 30.9745 94.6527C33.028 93.9745 35.9433 93.2397 38.5384 93.4564C40.0926 93.5835 41.5291 94.0498 42.537 95.1378C44.4209 97.1724 45.1981 99.8476 45.2923 102.631C45.4383 106.945 43.9264 111.58 42.0425 114.825C41.7222 115.38 40.9922 116.435 40.1115 117.651C37.9732 120.627 34.959 124.626 34.521 125.233C34.4231 125.354 34.3596 125.499 34.3373 125.652C34.3234 125.782 34.3456 125.913 34.4015 126.031C34.4573 126.149 34.5447 126.249 34.6539 126.32C34.7632 126.391 34.8899 126.431 35.0202 126.434C35.1505 126.438 35.2793 126.405 35.3923 126.34C35.4596 126.3 35.5201 126.249 35.5712 126.189C37.2882 124.316 39.1808 122.611 41.223 121.098C48.0192 115.993 57.1091 111.956 64.4658 112.178C65.2622 112.2 66.0565 112.271 66.8442 112.39C75.1523 113.685 81.3127 120.199 81.0113 129.048ZM62.6761 152.847C61.9037 153.12 61.1187 153.356 60.3212 153.553C57.7865 154.273 55.208 154.828 52.6018 155.216C51.3357 155.395 50.0516 155.408 48.7822 155.254C47.866 155.181 47.0042 154.789 46.3473 154.147C46.1105 153.873 45.9722 153.527 45.9543 153.165C45.9364 152.803 46.0399 152.446 46.2483 152.15C47.0447 150.925 48.1944 149.97 49.5452 149.413C50.6672 148.982 51.8303 148.667 53.0163 148.471C56.7841 147.85 60.1422 148.665 61.7765 151.029C62.1649 151.587 62.4681 152.2 62.6761 152.847Z" fill="#030303"/>
<path d="M440.635 91.3281C439.425 86.9998 436.608 82.8505 434.187 79.8927C432.373 77.7542 430.217 75.9318 427.806 74.5C427.208 74.1468 426.619 73.8312 426.058 73.558C419.681 70.5202 412.631 69.1779 405.608 70.2989C401.487 70.9535 397.277 72.8139 394.71 76.2285C391.601 80.3684 392.826 85.2148 396.721 88.262C395.982 88.733 395.256 89.204 394.545 89.7173C393.057 90.7535 391.63 91.8791 390.236 93.0142C386.868 95.793 383.171 99.4384 380.788 103.559C378.339 107.798 377.284 112.532 379.285 117.364C379.848 118.693 380.577 119.945 381.457 121.089C386.637 127.881 395.162 130.448 402.971 128.625C404.609 130.393 406.604 131.791 408.825 132.727C410.962 133.636 413.253 134.129 415.574 134.183C419.516 134.281 423.364 133.189 426.911 131.54C438.087 126.36 441.794 114.797 441.921 103.282C441.968 99.3018 441.714 95.2043 440.635 91.3281ZM403.465 127.057C402.117 125.426 401.178 123.497 400.725 121.43C400.272 119.364 400.319 117.219 400.861 115.174C401.661 112.418 403.358 110.007 405.684 108.326C407.954 106.696 410.714 105.971 413.295 107.464C413.756 107.73 414.187 108.046 414.581 108.406C416.384 110.031 416.733 112.235 416.286 114.477C415.57 118.047 412.88 121.72 410.394 123.633H410.365C408.305 125.204 405.963 126.366 403.465 127.057ZM440.508 103.291C440.385 114.255 436.966 125.323 426.317 130.273C422.964 131.832 419.333 132.878 415.607 132.784C413.465 132.737 411.352 132.281 409.381 131.441C407.576 130.678 405.929 129.584 404.525 128.215C406.946 127.454 409.214 126.274 411.227 124.73C413.945 122.644 416.879 118.607 417.647 114.731C418.193 111.99 417.708 109.32 415.504 107.332C415.034 106.912 414.521 106.544 413.973 106.235C411.482 104.822 408.849 105.019 406.494 106.178C404.798 107.075 403.3 108.306 402.093 109.797C400.885 111.288 399.992 113.008 399.467 114.853C398.898 117 398.825 119.248 399.251 121.427C399.678 123.606 400.594 125.66 401.93 127.433C398.355 128.177 394.642 127.901 391.217 126.635C387.791 125.369 384.791 123.165 382.559 120.274C381.752 119.228 381.082 118.082 380.566 116.865C378.744 112.466 379.756 108.166 381.979 104.308C384.278 100.333 387.862 96.8291 391.107 94.1493C392.473 93.0189 393.867 91.9121 395.322 90.8995C396.179 90.3014 397.046 89.722 397.936 89.171C401.876 91.7155 406.643 92.648 411.251 91.7755C413.323 91.4137 415.268 90.5285 416.902 89.204C417.816 88.408 418.593 87.094 417.844 85.8789C417.401 85.2057 416.757 84.6898 416.003 84.4047C414.995 84.027 413.936 83.8001 412.862 83.7312C408.599 83.3544 404.252 84.3717 400.409 86.1897C399.57 86.5853 398.756 87.0233 397.95 87.4943L397.541 87.1835C394.272 84.626 393.165 80.5898 395.774 77.1045C398.129 73.9772 401.996 72.3194 405.769 71.7165C412.504 70.6427 419.267 71.9426 425.385 74.8532C425.908 75.1076 426.459 75.3996 427.014 75.734C429.286 77.0802 431.319 78.7943 433.029 80.8064C435.346 83.6323 438.054 87.5885 439.208 91.7284C440.32 95.4539 440.555 99.4195 440.508 103.291ZM399.344 88.3421C399.914 88.0265 400.494 87.7251 401.082 87.4472C404.699 85.7376 408.788 84.7626 412.8 85.1206C413.731 85.173 414.649 85.3651 415.523 85.6905C415.997 85.8589 416.407 86.1719 416.695 86.5853C416.752 86.6902 416.782 86.8075 416.782 86.9268C416.782 87.0461 416.752 87.1634 416.695 87.2683C416.528 87.5975 416.294 87.888 416.008 88.1207C414.554 89.2857 412.828 90.0606 410.992 90.372C406.992 91.1272 402.853 90.406 399.344 88.3421Z" fill="#030303"/>
<path d="M251.176 24.4482C239.807 10.3989 219.786 16.3191 209.989 28.7671C199.665 41.8885 199.891 63.3275 209.716 76.6704C212.457 80.3911 215.518 82.4493 219.169 84.2484C228.07 88.6474 241.201 86.6033 247.941 78.8369C251.869 74.3155 253.837 69.7799 255.321 64.6604C259.141 51.4871 260.44 35.8977 251.176 24.4482ZM253.964 64.2695C252.552 69.1959 250.668 73.5619 246.9 77.9279C240.556 85.2328 228.192 87.1402 219.814 83.0003C216.371 81.3001 213.465 79.3691 210.865 75.8509C201.398 62.9884 201.158 42.3124 211.115 29.6572C220.388 17.8827 239.326 12.052 250.093 25.3572C259.065 36.4158 257.652 51.5201 253.964 64.2695Z" fill="black"/>
<path d="M231.761 38.5174C231.781 38.3301 231.874 38.1583 232.021 38.04C232.168 37.9216 232.355 37.8663 232.543 37.8863C232.73 37.9063 232.902 37.9999 233.02 38.1465C233.138 38.2932 233.194 38.4808 233.174 38.6682C233.023 40.0434 232.938 41.4375 232.905 42.8175C232.902 43.0049 232.823 43.1831 232.688 43.3129C232.553 43.4427 232.372 43.5136 232.185 43.5098C231.997 43.5061 231.819 43.428 231.689 43.2929C231.559 43.1578 231.489 42.9766 231.492 42.7892C231.521 41.3763 231.61 39.9351 231.761 38.5174Z" fill="black"/>
<path d="M240.708 38.1918C240.708 38.0045 240.782 37.8248 240.915 37.6923C241.047 37.5598 241.227 37.4854 241.414 37.4854C241.602 37.4854 241.782 37.5598 241.914 37.6923C242.047 37.8248 242.121 38.0045 242.121 38.1918C242.182 39.6644 242.163 41.1391 242.064 42.6096C242.047 42.797 241.956 42.9697 241.811 43.0898C241.666 43.21 241.479 43.2676 241.292 43.2501C241.105 43.2326 240.932 43.1414 240.812 42.9966C240.692 42.8517 240.634 42.6651 240.652 42.4777C240.743 41.0588 240.758 39.636 240.699 38.2154L240.708 38.1918Z" fill="black"/>
<path d="M223.748 47.6773C223.753 47.5846 223.777 47.4937 223.817 47.41C223.858 47.3263 223.914 47.2514 223.983 47.1895C224.053 47.1276 224.133 47.08 224.221 47.0493C224.309 47.0187 224.402 47.0056 224.495 47.0109C224.587 47.0162 224.678 47.0396 224.762 47.08C224.846 47.1204 224.921 47.1768 224.982 47.2461C225.044 47.3154 225.092 47.3963 225.123 47.484C225.153 47.5717 225.166 47.6646 225.161 47.7574C224.69 55.9854 228.679 60.2525 233.21 61.2604C235.65 61.802 238.094 62.0846 240.609 61.1662C244.688 59.6732 247.603 55.0435 248.696 48.5722C248.705 48.4755 248.734 48.3818 248.781 48.2969C248.828 48.212 248.892 48.1376 248.969 48.0786C249.046 48.0195 249.135 47.977 249.229 47.9536C249.323 47.9303 249.421 47.9266 249.517 47.9428C249.613 47.959 249.704 47.9948 249.786 48.0479C249.867 48.101 249.936 48.1703 249.99 48.2515C250.043 48.3327 250.079 48.4239 250.095 48.5196C250.112 48.6153 250.108 48.7134 250.085 48.8077C248.894 55.8724 245.559 60.86 241.09 62.4943C238.311 63.5069 235.603 63.2385 232.904 62.6403C227.846 61.5147 223.221 56.8567 223.753 47.6773H223.748Z" fill="black"/>
<path d="M222.629 15.3635C222.637 15.4563 222.627 15.5498 222.599 15.6387C222.572 15.7276 222.526 15.8102 222.467 15.8817C222.407 15.9532 222.334 16.0122 222.251 16.0554C222.169 16.0986 222.079 16.1252 221.986 16.1335C221.893 16.1419 221.8 16.1319 221.711 16.1041C221.622 16.0763 221.539 16.0313 221.468 15.9716C221.396 15.9119 221.337 15.8387 221.294 15.7562C221.251 15.6736 221.224 15.5834 221.216 15.4907C220.748 10.5725 220.558 5.63199 220.646 0.692481C220.65 0.505114 220.728 0.326907 220.863 0.197068C220.998 0.0672291 221.179 -0.00360588 221.367 0.00014146C221.554 0.0038888 221.732 0.0819082 221.862 0.217047C221.992 0.352185 222.063 0.533372 222.059 0.720739C221.972 5.60829 222.159 10.4968 222.619 15.3635H222.629Z" fill="black"/>
<path d="M227.786 12.5843C227.762 12.7717 227.664 12.9417 227.514 13.057C227.364 13.1722 227.175 13.2233 226.988 13.199C226.8 13.1746 226.63 13.0768 226.515 12.9271C226.4 12.7774 226.349 12.588 226.373 12.4006C226.813 8.93077 227.506 5.49763 228.445 2.12859C228.497 1.94809 228.617 1.79534 228.781 1.70392C228.945 1.6125 229.139 1.58991 229.319 1.64112C229.5 1.69234 229.652 1.81316 229.744 1.97701C229.835 2.14085 229.858 2.3343 229.807 2.51479C228.886 5.81746 228.207 9.18291 227.777 12.5843H227.786Z" fill="black"/>
<path d="M233.989 10.757C233.905 10.925 233.759 11.0531 233.582 11.1132C233.404 11.1733 233.21 11.1603 233.042 11.0773C232.874 10.9942 232.746 10.8478 232.686 10.6703C232.626 10.4927 232.639 10.2986 232.722 10.1306C233.739 8.06771 234.747 6.0378 235.953 4.08323C236.001 4.00327 236.065 3.93369 236.14 3.87852C236.215 3.82334 236.301 3.78367 236.392 3.76181C236.483 3.73994 236.577 3.73631 236.669 3.75113C236.761 3.76594 236.85 3.79892 236.929 3.84813C237.009 3.89734 237.078 3.9618 237.132 4.03781C237.186 4.11382 237.225 4.19987 237.246 4.29094C237.267 4.38201 237.269 4.47632 237.253 4.5684C237.238 4.66048 237.204 4.7485 237.154 4.82737C235.971 6.74426 234.982 8.7365 233.989 10.757Z" fill="black"/>
</svg>
