<svg width="28" height="31" viewBox="0 0 28 31" fill="none" xmlns="http://www.w3.org/2000/svg">
<path d="M1.71417 21.8858C1.63825 21.8858 1.56461 21.8453 1.52636 21.7739C1.46928 21.6701 1.50809 21.5399 1.61198 21.4834L5.9531 19.1225C6.05756 19.0671 6.18713 19.1048 6.24307 19.2081C6.30016 19.312 6.26134 19.4421 6.15745 19.4986L1.81634 21.8596C1.7838 21.8773 1.74842 21.8858 1.71417 21.8858Z" fill="#20201B"/>
<path d="M6.75335 27.6197C6.70997 27.6197 6.66659 27.6066 6.62834 27.5798C6.53244 27.5107 6.51018 27.3771 6.57925 27.2812L9.45849 23.2644C9.52756 23.1679 9.66169 23.1468 9.75702 23.2153C9.85291 23.2843 9.87518 23.4179 9.80611 23.5138L6.92689 27.5307C6.88522 27.5889 6.81956 27.6197 6.75335 27.6197Z" fill="#20201B"/>
<path d="M13.8779 30.8557C13.8631 30.8557 13.8477 30.854 13.8328 30.8511C13.7169 30.826 13.6439 30.7118 13.669 30.5965L14.7148 25.7662C14.7399 25.6509 14.8546 25.5796 14.9688 25.6024C15.0846 25.6275 15.1577 25.7417 15.1326 25.857L14.0868 30.6873C14.0652 30.7866 13.9767 30.8557 13.8779 30.8557Z" fill="#20201B"/>
<path d="M22.5358 30.1685C22.4462 30.1685 22.3623 30.1114 22.3332 30.0218L20.7765 25.3313C20.7394 25.2188 20.7999 25.0978 20.9118 25.0607C21.0231 25.0225 21.1453 25.0841 21.1824 25.1966L22.739 29.887C22.7761 29.9995 22.7156 30.1205 22.6037 30.1576C22.5809 30.165 22.5581 30.1685 22.5358 30.1685Z" fill="#20201B"/>
<path d="M3.15924 17.5572C3.05649 17.5572 2.96629 17.4841 2.94859 17.3797C2.92804 17.2632 3.00626 17.1525 3.12271 17.1319L5.32494 16.7472C5.44653 16.7284 5.55269 16.806 5.57267 16.9213C5.59322 17.0377 5.51502 17.1485 5.39858 17.169L3.19634 17.5538C3.18378 17.5561 3.17065 17.5572 3.15924 17.5572Z" fill="#20201B"/>
<path d="M5.98722 23.2592C5.92843 23.2592 5.8702 23.2352 5.82853 23.1884C5.74918 23.1005 5.75661 22.9652 5.84394 22.8859L7.50619 21.3903C7.5941 21.3115 7.73052 21.3184 7.80815 21.4063C7.8875 21.4942 7.88007 21.6295 7.79274 21.7088L6.13051 23.2044C6.08941 23.2409 6.0386 23.2592 5.98722 23.2592Z" fill="#20201B"/>
<path d="M11.2372 27.3995C11.2086 27.3995 11.179 27.3938 11.1516 27.3818C11.0437 27.3344 10.994 27.2082 11.0414 27.0998L11.9353 25.0505C11.9827 24.9427 12.1094 24.8919 12.2173 24.9398C12.3252 24.9872 12.3748 25.1133 12.3275 25.2218L11.4335 27.271C11.3987 27.3515 11.32 27.3995 11.2372 27.3995Z" fill="#20201B"/>
<path d="M18.1811 28.5906C18.0704 28.5906 17.9762 28.505 17.9676 28.3925L17.7975 26.1629C17.7884 26.0447 17.8769 25.942 17.995 25.9334C18.1212 25.9249 18.2159 26.0133 18.2245 26.1309L18.3946 28.3606C18.4037 28.4782 18.3153 28.5815 18.1971 28.59C18.192 28.59 18.1863 28.5906 18.1811 28.5906Z" fill="#20201B"/>
<path d="M10.0969 4.30682C10.0341 4.30682 9.97077 4.27885 9.9291 4.22519L6.86664 0.346451C6.79301 0.253407 6.80899 0.119263 6.90147 0.0456268C6.99337 -0.0262969 7.12864 -0.0120262 7.2017 0.081018L10.2642 3.95976C10.3378 4.05281 10.3218 4.18695 10.2294 4.26059C10.1905 4.29141 10.1437 4.30682 10.0969 4.30682Z" fill="#20201B"/>
<path d="M6.30065 8.72262C6.26583 8.72262 6.23158 8.71462 6.19904 8.69693L1.84709 6.35484C1.74263 6.2989 1.70382 6.16932 1.76034 6.06486C1.81628 5.95983 1.94642 5.92159 2.05031 5.9781L6.40226 8.32019C6.50672 8.37613 6.54554 8.5057 6.48903 8.61016C6.45022 8.68209 6.37657 8.72262 6.30065 8.72262Z" fill="#20201B"/>
<path d="M0.214222 14.8841C0.100057 14.8841 0.00530046 14.7939 0.000163055 14.6786C-0.00440353 14.5605 0.0875081 14.4611 0.205668 14.456L5.14386 14.2585C5.26944 14.2482 5.36133 14.3458 5.36647 14.4634C5.37104 14.5816 5.27914 14.6809 5.16098 14.686L0.222792 14.8835C0.219368 14.8841 0.217076 14.8841 0.214222 14.8841Z" fill="#20201B"/>
<path d="M12.4096 2.90772C12.3303 2.90772 12.2543 2.8632 12.2172 2.78728L11.2406 0.776271C11.1886 0.670097 11.2326 0.541663 11.3393 0.490288C11.4443 0.440056 11.5739 0.482297 11.6253 0.589612L12.602 2.60062C12.6539 2.70679 12.61 2.83523 12.5032 2.8866C12.473 2.90087 12.441 2.90772 12.4096 2.90772Z" fill="#20201B"/>
<path d="M7.7252 6.21968C7.67668 6.21968 7.62873 6.20369 7.58877 6.17002L5.8666 4.74353C5.77584 4.66818 5.76271 4.53347 5.83806 4.44213C5.91341 4.35023 6.04869 4.33882 6.13945 4.41417L7.86162 5.84065C7.95238 5.916 7.96552 6.05072 7.89017 6.14205C7.84793 6.19342 7.78628 6.21968 7.7252 6.21968Z" fill="#20201B"/>
<path d="M5.12186 11.5933C5.10816 11.5933 5.09274 11.5921 5.07847 11.5887L2.88937 11.1349C2.77349 11.1109 2.69927 10.9973 2.72325 10.882C2.74722 10.7667 2.85684 10.6896 2.97614 10.7159L5.16524 11.1697C5.28112 11.1937 5.35531 11.3073 5.33134 11.4226C5.31022 11.5236 5.22176 11.5933 5.12186 11.5933Z" fill="#20201B"/>
<path d="M17.2339 24.7555C11.2979 24.7555 6.46875 19.9263 6.46875 13.9903C6.46875 8.05432 11.2979 3.22516 17.2339 3.22516C23.1699 3.22516 27.9991 8.05432 27.9991 13.9903C27.9991 19.9263 23.1699 24.7555 17.2339 24.7555ZM17.2339 3.65328C11.5342 3.65328 6.89687 8.29064 6.89687 13.9903C6.89687 19.69 11.5342 24.3273 17.2339 24.3273C22.9336 24.3273 27.5709 19.69 27.5709 13.9903C27.5709 8.29064 22.9336 3.65328 17.2339 3.65328Z" fill="#20201B"/>
<path d="M16.802 7.18311C16.2215 7.18311 15.75 6.71104 15.75 6.13052C15.75 5.54999 16.2215 5.07849 16.802 5.07849C17.3825 5.07849 17.8546 5.55056 17.8546 6.13052C17.8546 6.71104 17.3825 7.18311 16.802 7.18311ZM16.802 5.50661C16.4578 5.50661 16.1781 5.78631 16.1781 6.13052C16.1781 6.47472 16.4578 6.755 16.802 6.755C17.1462 6.755 17.4265 6.47472 17.4265 6.13052C17.4265 5.78631 17.1468 5.50661 16.802 5.50661Z" fill="#20201B"/>
<path d="M19.2401 16.6011C18.6596 16.6011 18.1875 16.1291 18.1875 15.5491C18.1875 14.9686 18.6596 14.4971 19.2401 14.4971C19.8206 14.4971 20.2927 14.9691 20.2927 15.5491C20.2921 16.1296 19.8201 16.6011 19.2401 16.6011ZM19.2401 14.9252C18.8959 14.9252 18.6156 15.2049 18.6156 15.5491C18.6156 15.8933 18.8953 16.173 19.2401 16.173C19.5849 16.173 19.8646 15.8933 19.8646 15.5491C19.864 15.2049 19.5843 14.9252 19.2401 14.9252Z" fill="#20201B"/>
<path d="M22.6917 11.7143C21.6682 11.7143 20.8359 10.8815 20.8359 9.85803C20.8359 8.83454 21.6682 8.00171 22.6917 8.00171C23.7152 8.00171 24.548 8.83454 24.548 9.85803C24.548 10.8815 23.7152 11.7143 22.6917 11.7143ZM22.6917 8.4304C21.9045 8.4304 21.2641 9.07086 21.2641 9.8586C21.2641 10.6463 21.9045 11.2868 22.6917 11.2868C23.4794 11.2868 24.1199 10.6463 24.1199 9.8586C24.1199 9.07086 23.4788 8.4304 22.6917 8.4304Z" fill="#20201B"/>
<path d="M14.4003 13.6763C13.9556 13.6763 13.5938 13.3144 13.5938 12.8691C13.5938 12.4245 13.9556 12.0626 14.4003 12.0626C14.845 12.0626 15.2069 12.4245 15.2069 12.8691C15.2069 13.3138 14.845 13.6763 14.4003 13.6763ZM14.4003 12.4907C14.192 12.4907 14.0219 12.6602 14.0219 12.8691C14.0219 13.0781 14.192 13.2482 14.4003 13.2482C14.6087 13.2482 14.7788 13.0781 14.7788 12.8691C14.7788 12.6602 14.6087 12.4907 14.4003 12.4907Z" fill="#20201B"/>
<path d="M22.1034 20.8909C21.6588 20.8909 21.2969 20.529 21.2969 20.0843C21.2969 19.6396 21.6588 19.2777 22.1034 19.2777C22.5481 19.2777 22.91 19.6396 22.91 20.0843C22.9106 20.529 22.5487 20.8909 22.1034 20.8909ZM22.1034 19.7058C21.8951 19.7058 21.725 19.8754 21.725 20.0843C21.725 20.2932 21.8951 20.4627 22.1034 20.4627C22.3118 20.4627 22.4819 20.2932 22.4819 20.0843C22.4825 19.8754 22.3124 19.7058 22.1034 19.7058Z" fill="#20201B"/>
<path d="M22.5087 22.8945C20.999 23.7634 19.2473 24.2611 17.3796 24.2611C11.6844 24.2611 7.0625 19.6398 7.0625 13.9441C7.0625 9.11849 10.376 5.06905 14.8476 3.94145C12.5729 5.91989 11.1354 8.83734 11.1354 12.0917C11.1354 18.0677 15.9812 22.9088 21.9524 22.9088C22.139 22.9088 22.3244 22.904 22.5087 22.8945Z" fill="#FAE604" stroke="#20201B" stroke-width="0.5"/>
</svg>
