<svg width="281" height="348" viewBox="0 0 281 348" fill="none" xmlns="http://www.w3.org/2000/svg">
<g clip-path="url(#clip0_215_586)">
<path fill-rule="evenodd" clip-rule="evenodd" d="M250.662 225.533C250.926 224.047 251.174 222.563 251.408 221.083C256.817 187.042 245.709 137.321 210.856 128.34C205.748 127.034 200.505 126.327 195.234 126.233C175.896 125.835 157.043 133.218 141.287 142.426C144.105 144.61 146.661 147.114 148.902 149.887C152.616 154.478 155.718 159.752 159.987 163.864C161.631 165.484 163.471 166.89 165.465 168.051C166.759 168.786 168.129 169.378 169.552 169.816C170.626 168.47 171.963 167.357 173.48 166.542C174.997 165.727 176.663 165.228 178.378 165.075C178.679 165.043 178.986 165.02 179.299 165.006C182.944 164.846 186.571 166.502 189.762 168.961C194 172.229 197.463 176.918 199.154 180.66C204.477 192.425 205.26 205.369 200.459 217.757C199.648 219.818 198.542 221.751 197.177 223.496C193.257 228.549 187.271 232.231 181.294 231.964C180.824 231.942 180.356 231.896 179.89 231.826L179.715 231.798C173.293 230.724 169.293 225.026 166.912 219.677C155.827 214.486 147.083 205.209 141.407 193.532C130.586 193.532 123.094 185.13 122.001 176.41C121.639 173.526 123.068 170.766 124.038 169.859C123.619 169.572 123.243 169.285 122.936 169.055C120.067 166.866 117.269 163.417 116.807 159.755C112.17 163.638 108.362 167.216 105.578 170.025C80.1485 195.753 55.3443 222.713 38.592 263.724C43.671 259.784 52.1017 258.186 60.6357 259.994C86.2118 265.446 120.801 293.521 125.461 324.877C125.685 326.31 125.485 327.778 124.887 329.1C135.023 309.051 149.657 291.26 165.922 275.854C175.509 300.543 191.77 322.159 220.847 315.622C226.23 314.378 231.355 312.207 235.993 309.206C242.544 305.002 248.269 300.21 253.127 294.078C262.246 282.56 268.949 270.066 275.856 257.236C276.333 256.349 276.812 255.457 277.291 254.567C277.504 250.14 276.552 245.734 274.53 241.789C270.028 232.977 260.59 227.123 250.059 228.779C250.264 227.7 250.462 226.622 250.653 225.545L250.662 225.533Z" fill="white"/>
<mask id="mask0_215_586" style="mask-type:luminance" maskUnits="userSpaceOnUse" x="38" y="126" width="240" height="204">
<path d="M250.662 225.533C250.926 224.047 251.174 222.563 251.408 221.083C256.817 187.042 245.709 137.321 210.856 128.34C205.748 127.034 200.505 126.327 195.234 126.233C175.896 125.835 157.043 133.218 141.287 142.426C144.105 144.61 146.661 147.114 148.902 149.887C152.616 154.478 155.718 159.752 159.987 163.864C161.631 165.484 163.471 166.89 165.465 168.051C166.759 168.786 168.129 169.378 169.552 169.816C170.626 168.47 171.963 167.357 173.48 166.542C174.997 165.727 176.663 165.228 178.378 165.075C178.679 165.043 178.986 165.02 179.299 165.006C182.944 164.846 186.571 166.502 189.762 168.961C194 172.229 197.463 176.918 199.154 180.66C204.477 192.425 205.26 205.369 200.459 217.757C199.648 219.818 198.542 221.751 197.177 223.496C193.257 228.549 187.271 232.231 181.294 231.964C180.824 231.942 180.356 231.896 179.89 231.826L179.715 231.798C173.293 230.724 169.293 225.026 166.912 219.677C155.827 214.486 147.083 205.209 141.407 193.532C130.586 193.532 123.094 185.13 122.001 176.41C121.639 173.526 123.068 170.766 124.038 169.859C123.619 169.572 123.243 169.285 122.936 169.055C120.067 166.866 117.269 163.417 116.807 159.755C112.17 163.638 108.362 167.216 105.578 170.025C80.1485 195.753 55.3443 222.713 38.592 263.724C43.671 259.784 52.1017 258.186 60.6357 259.994C86.2118 265.446 120.801 293.521 125.461 324.877C125.685 326.31 125.485 327.778 124.887 329.1C135.023 309.051 149.657 291.26 165.922 275.854C175.509 300.543 191.77 322.159 220.847 315.622C226.23 314.378 231.355 312.207 235.993 309.206C242.544 305.002 248.269 300.21 253.127 294.078C262.246 282.56 268.949 270.066 275.856 257.236C276.333 256.349 276.812 255.457 277.291 254.567C277.504 250.14 276.552 245.734 274.53 241.789C270.028 232.977 260.59 227.123 250.059 228.779C250.264 227.7 250.462 226.622 250.653 225.545L250.662 225.533Z" fill="white"/>
</mask>
<g mask="url(#mask0_215_586)">
<path fill-rule="evenodd" clip-rule="evenodd" d="M258.438 229.017C255.684 228.408 252.84 228.323 250.056 228.768C248.908 234.811 247.513 240.877 245.878 246.883C245.878 246.883 252.477 237.181 258.438 229.017Z" fill="#20201B"/>
<path fill-rule="evenodd" clip-rule="evenodd" d="M158.893 282.763C161.189 280.41 163.526 278.109 165.906 275.859C161.763 265.213 158.856 253.996 156.689 244.223C156.748 257.099 157.483 269.964 158.893 282.763Z" fill="#20201B"/>
<path fill-rule="evenodd" clip-rule="evenodd" d="M36.7415 248.386C36.3092 248.815 36.065 249.398 36.0625 250.007C36.0601 250.615 36.2997 251.2 36.7285 251.633C37.1574 252.065 37.7404 252.309 38.3493 252.312C38.9582 252.314 39.5431 252.074 39.9754 251.646C43.3729 248.277 49.5252 246.767 56.5383 246.612C67.6348 246.351 80.8978 249.617 89.9052 255.692C114.93 272.579 131.14 296.227 139.043 325.091C139.208 325.673 139.597 326.167 140.124 326.464C140.651 326.761 141.275 326.838 141.858 326.678C142.442 326.518 142.939 326.134 143.241 325.609C143.543 325.085 143.625 324.462 143.471 323.877C135.27 293.942 118.437 269.405 92.4735 251.895C82.74 245.318 68.4239 241.74 56.4178 242.021C48.0388 242.219 40.7932 244.36 36.73 248.386H36.7415Z" fill="#20201B"/>
<path fill-rule="evenodd" clip-rule="evenodd" d="M251.805 232.693C251.196 232.706 250.617 232.959 250.195 233.399C249.774 233.838 249.544 234.427 249.556 235.036C249.569 235.645 249.823 236.224 250.262 236.645C250.702 237.067 251.29 237.297 251.899 237.284C262.077 237.075 270.646 246.955 270.979 267.064C270.989 267.673 271.241 268.253 271.679 268.676C272.116 269.099 272.704 269.331 273.313 269.321C273.922 269.311 274.502 269.059 274.925 268.621C275.348 268.184 275.58 267.596 275.57 266.987C275.177 243.264 263.805 232.449 251.805 232.693Z" fill="#20201B"/>
<path fill-rule="evenodd" clip-rule="evenodd" d="M235.185 275.97C235.138 276.075 235.135 276.194 235.177 276.301C235.218 276.407 235.3 276.494 235.404 276.54C235.509 276.586 235.628 276.589 235.735 276.548C235.841 276.507 235.928 276.425 235.974 276.32C242.608 261.399 247.386 245.043 250.477 228.847C250.498 228.735 250.474 228.618 250.41 228.524C250.346 228.429 250.247 228.364 250.135 228.342C250.023 228.32 249.907 228.344 249.812 228.408C249.717 228.472 249.652 228.571 249.63 228.683C246.557 244.813 241.785 261.1 235.185 275.97Z" fill="#20201B"/>
<path fill-rule="evenodd" clip-rule="evenodd" d="M165.503 276.022C165.524 276.075 165.554 276.123 165.594 276.164C165.633 276.205 165.68 276.238 165.731 276.26C165.783 276.283 165.839 276.296 165.896 276.297C165.952 276.298 166.008 276.288 166.061 276.267C166.114 276.247 166.162 276.216 166.203 276.177C166.244 276.138 166.277 276.091 166.299 276.039C166.322 275.987 166.335 275.932 166.336 275.875C166.337 275.818 166.327 275.762 166.307 275.709C161.646 263.735 158.559 251.031 156.318 240.495C154.986 234.207 154.335 227.785 153.242 221.455C153.232 221.399 153.211 221.345 153.181 221.296C153.15 221.247 153.111 221.205 153.064 221.172C153.017 221.139 152.964 221.115 152.908 221.103C152.852 221.09 152.795 221.088 152.738 221.098C152.681 221.108 152.627 221.128 152.579 221.159C152.53 221.189 152.488 221.229 152.455 221.276C152.422 221.322 152.398 221.375 152.385 221.431C152.373 221.487 152.371 221.545 152.381 221.602C153.477 227.943 154.131 234.374 155.465 240.675C157.712 251.25 160.826 263.993 165.503 276.022Z" fill="#20201B"/>
</g>
<path fill-rule="evenodd" clip-rule="evenodd" d="M250.662 225.533C250.926 224.047 251.174 222.563 251.408 221.083C256.817 187.042 245.709 137.321 210.856 128.34C205.748 127.034 200.505 126.327 195.234 126.233C175.896 125.835 157.043 133.218 141.287 142.426C144.105 144.61 146.661 147.114 148.902 149.887C152.616 154.478 155.718 159.752 159.987 163.864C161.631 165.484 163.471 166.89 165.465 168.051C166.759 168.786 168.129 169.378 169.552 169.816C170.626 168.47 171.963 167.357 173.48 166.542C174.997 165.727 176.663 165.228 178.378 165.075C178.679 165.043 178.986 165.02 179.299 165.006C182.944 164.846 186.571 166.502 189.762 168.961C194 172.229 197.463 176.918 199.154 180.66C204.477 192.425 205.26 205.369 200.459 217.757C199.648 219.818 198.542 221.751 197.177 223.496C193.257 228.549 187.271 232.231 181.294 231.964C180.824 231.942 180.356 231.896 179.89 231.826L179.715 231.798C173.293 230.724 169.293 225.026 166.912 219.677C155.827 214.486 147.083 205.209 141.407 193.532C130.586 193.532 123.094 185.13 122.001 176.41C121.639 173.526 123.068 170.766 124.038 169.859C123.619 169.572 123.243 169.285 122.936 169.055C120.067 166.866 117.269 163.417 116.807 159.755C112.17 163.638 108.362 167.216 105.578 170.025C80.1485 195.753 55.3443 222.713 38.592 263.724C43.671 259.784 52.1017 258.186 60.6357 259.994C86.2118 265.446 120.801 293.521 125.461 324.877C125.685 326.31 125.485 327.778 124.887 329.1C135.023 309.051 149.657 291.26 165.922 275.854C175.509 300.543 191.77 322.159 220.847 315.622C226.23 314.378 231.355 312.207 235.993 309.206C242.544 305.002 248.269 300.21 253.127 294.078C262.246 282.56 268.949 270.066 275.856 257.236C276.333 256.349 276.812 255.457 277.291 254.567C277.504 250.14 276.552 245.734 274.53 241.789C270.028 232.977 260.59 227.123 250.059 228.779C250.264 227.7 250.462 226.622 250.653 225.545L250.662 225.533Z" stroke="#20201B" stroke-width="0.573906" stroke-miterlimit="10"/>
<path fill-rule="evenodd" clip-rule="evenodd" d="M278.781 228.675L275.88 237.634C275.441 238.994 274.999 240.366 274.537 241.778C276.559 245.722 277.511 250.128 277.297 254.556C276.815 255.445 276.336 256.338 275.862 257.224C277.442 257.236 279.008 256.936 280.471 256.341C281.934 255.746 283.265 254.869 284.388 253.758C286.683 243.643 284.144 235.35 278.784 228.675H278.781Z" fill="#20201B"/>
<path fill-rule="evenodd" clip-rule="evenodd" d="M280.192 225.6C280.212 225.545 280.221 225.487 280.218 225.43C280.215 225.372 280.201 225.315 280.176 225.263C280.15 225.211 280.115 225.165 280.071 225.127C280.028 225.088 279.977 225.06 279.922 225.042C279.867 225.024 279.809 225.017 279.751 225.022C279.693 225.027 279.637 225.044 279.586 225.071C279.535 225.098 279.49 225.135 279.454 225.18C279.417 225.225 279.39 225.277 279.374 225.333C277.897 229.829 275.598 237.144 274.132 241.646C274.101 241.753 274.113 241.868 274.166 241.966C274.218 242.064 274.306 242.139 274.412 242.173C274.518 242.208 274.633 242.2 274.733 242.151C274.834 242.103 274.911 242.017 274.95 241.913C276.416 237.413 278.714 230.099 280.192 225.6Z" fill="#20201B"/>
<path fill-rule="evenodd" clip-rule="evenodd" d="M261.31 206.497C261.339 206.447 261.358 206.391 261.364 206.333C261.371 206.275 261.366 206.216 261.349 206.16C261.333 206.105 261.305 206.053 261.267 206.008C261.23 205.963 261.184 205.926 261.132 205.9C261.08 205.873 261.023 205.858 260.965 205.854C260.907 205.85 260.849 205.858 260.794 205.877C260.739 205.897 260.688 205.927 260.645 205.967C260.602 206.006 260.568 206.054 260.544 206.107C257.218 212.615 254.068 219.02 250.306 225.313C250.248 225.411 250.231 225.528 250.259 225.639C250.287 225.75 250.357 225.845 250.455 225.904C250.503 225.933 250.557 225.952 250.613 225.96C250.668 225.969 250.725 225.966 250.78 225.952C250.835 225.938 250.886 225.913 250.931 225.88C250.976 225.846 251.014 225.803 251.043 225.755C254.817 219.459 257.976 213.025 261.31 206.497Z" fill="#20201B"/>
<path fill-rule="evenodd" clip-rule="evenodd" d="M275.858 256.797C275.744 256.797 275.634 256.842 275.553 256.923C275.473 257.004 275.427 257.113 275.427 257.228C275.427 257.342 275.473 257.451 275.553 257.532C275.634 257.613 275.744 257.658 275.858 257.658C284.466 257.575 289.462 250.091 290.099 240.335C290.578 233.009 290.865 211.949 279.562 198.93C271.467 189.596 259.134 194.393 256.529 202.79C256.495 202.899 256.506 203.017 256.559 203.118C256.612 203.219 256.704 203.295 256.813 203.329C256.922 203.363 257.04 203.352 257.141 203.299C257.242 203.246 257.318 203.154 257.352 203.045C259.788 195.188 271.338 190.761 278.911 199.493C290.03 212.314 289.72 233.066 289.241 240.274C288.639 249.526 284.007 256.717 275.849 256.794L275.858 256.797Z" fill="#20201B"/>
<path fill-rule="evenodd" clip-rule="evenodd" d="M275.768 256.771C275.654 256.751 275.536 256.777 275.441 256.843C275.346 256.91 275.281 257.011 275.261 257.125C275.241 257.24 275.267 257.357 275.334 257.452C275.4 257.547 275.501 257.612 275.616 257.632C285.415 259.379 291.728 250.604 293.392 241.999C294.46 236.501 293.998 231.017 293.392 225.499C292.721 219.223 291.214 211.866 288.531 205.794C286.735 201.702 284.388 198.187 281.418 195.963C279.55 194.557 277.383 193.231 275.136 192.56C273.275 192.006 271.339 191.748 269.397 191.796C263.331 191.928 259.543 195.36 257.523 199.943C255.529 204.457 255.268 210.098 256.232 214.735C256.243 214.791 256.266 214.843 256.298 214.89C256.329 214.937 256.37 214.977 256.417 215.008C256.465 215.039 256.518 215.06 256.573 215.071C256.629 215.082 256.686 215.081 256.741 215.07C256.797 215.058 256.849 215.036 256.896 215.004C256.943 214.972 256.983 214.931 257.014 214.884C257.045 214.837 257.066 214.784 257.077 214.728C257.088 214.673 257.087 214.616 257.076 214.56C256.146 210.087 256.387 204.643 258.309 200.29C260.201 196.003 263.739 192.781 269.417 192.657C271.262 192.613 273.101 192.858 274.87 193.383C277.022 194.029 279.091 195.306 280.896 196.649C283.765 198.804 286.006 202.201 287.751 206.15C290.399 212.141 291.883 219.401 292.546 225.596C293.12 231.029 293.593 236.429 292.546 241.838C290.956 250.008 285.085 258.444 275.768 256.777V256.771Z" fill="#20201B"/>
<path fill-rule="evenodd" clip-rule="evenodd" d="M279.789 225.468C278.311 229.965 276.013 237.279 274.544 241.778L279.789 225.468Z" fill="#20201B"/>
<path fill-rule="evenodd" clip-rule="evenodd" d="M211.965 114.342C218.384 108.755 219.182 97.4263 214.835 88.4361C213.618 85.9281 211.606 83.1389 209.096 81.3283C207.374 80.0944 205.42 79.3196 203.316 79.3454C201.213 79.3712 199.193 80.2063 197.374 81.225C195.978 82.0362 194.731 83.0794 193.686 84.3097C189.689 88.8636 183.755 99.3977 188.782 109.504C190.619 113.194 193.873 115.269 196.292 116.293C200.484 118.073 207.437 118.302 211.985 114.342H211.965ZM211.391 113.694C207.104 117.424 200.55 117.177 196.599 115.501C194.323 114.537 191.253 112.595 189.525 109.12C184.684 99.3919 190.455 89.2625 194.306 84.8779C195.287 83.7201 196.458 82.7381 197.77 81.9739C199.463 81.0155 201.325 80.2378 203.302 80.2063C205.219 80.1747 206.998 80.9007 208.565 82.0284C210.972 83.7501 212.883 86.4188 214.043 88.812C218.224 97.4407 217.552 108.325 211.391 113.694Z" fill="#20201B"/>
<path fill-rule="evenodd" clip-rule="evenodd" d="M203.913 74.8687C203.859 74.8875 203.81 74.9167 203.768 74.9546C203.725 74.9925 203.691 75.0383 203.667 75.0895C203.642 75.1407 203.628 75.1962 203.625 75.2528C203.622 75.3094 203.63 75.3661 203.649 75.4197C203.667 75.4732 203.697 75.5224 203.735 75.5647C203.772 75.6069 203.818 75.6412 203.869 75.6658C203.921 75.6903 203.976 75.7045 204.033 75.7075C204.089 75.7106 204.146 75.7025 204.2 75.6837C208.2 74.3264 212.461 73.1355 216.645 74.2489C216.755 74.2786 216.873 74.2632 216.972 74.2062C217.071 74.1491 217.143 74.0551 217.173 73.9447C217.202 73.8344 217.187 73.7167 217.13 73.6177C217.073 73.5187 216.979 73.4464 216.869 73.4167C212.518 72.2546 208.082 73.4512 203.924 74.8515L203.913 74.8687Z" fill="#20201B"/>
<path fill-rule="evenodd" clip-rule="evenodd" d="M209.808 78.1865C209.694 78.1933 209.587 78.2452 209.511 78.3308C209.436 78.4164 209.397 78.5286 209.404 78.6427C209.41 78.7569 209.462 78.8636 209.548 78.9395C209.633 79.0154 209.746 79.0542 209.86 79.0473C213.671 78.8149 217.349 79.7389 220.377 82.1206C220.467 82.187 220.579 82.2157 220.69 82.2006C220.801 82.1855 220.902 82.1278 220.971 82.0397C221.04 81.9516 221.072 81.84 221.06 81.7287C221.048 81.6174 220.994 81.515 220.908 81.4434C217.714 78.9297 213.831 77.9426 209.808 78.1865Z" fill="#20201B"/>
<path fill-rule="evenodd" clip-rule="evenodd" d="M212.735 85.3428C212.683 85.3201 212.627 85.308 212.571 85.3069C212.514 85.3058 212.458 85.3159 212.405 85.3366C212.353 85.3572 212.305 85.388 212.264 85.4273C212.223 85.4665 212.191 85.5133 212.168 85.5651C212.145 85.617 212.133 85.6727 212.132 85.7292C212.131 85.7858 212.141 85.8419 212.162 85.8946C212.182 85.9472 212.213 85.9952 212.252 86.0359C212.292 86.0767 212.339 86.1093 212.39 86.1319C214.934 87.2456 217.097 89.0789 218.611 91.4061C218.674 91.4989 218.771 91.5636 218.881 91.5864C218.99 91.6092 219.105 91.5883 219.199 91.5281C219.294 91.4679 219.361 91.3732 219.387 91.2642C219.413 91.1551 219.395 91.0403 219.337 90.9441C217.731 88.4735 215.436 86.5266 212.738 85.3428H212.735Z" fill="#20201B"/>
<path fill-rule="evenodd" clip-rule="evenodd" d="M205.116 92.1983C205.128 92.1429 205.128 92.0857 205.117 92.0302C205.107 91.9746 205.085 91.9217 205.054 91.8744C205.023 91.8271 204.983 91.7863 204.936 91.7545C204.89 91.7227 204.837 91.7004 204.782 91.6889C204.726 91.6774 204.669 91.677 204.614 91.6875C204.558 91.6981 204.505 91.7195 204.458 91.7506C204.411 91.7816 204.37 91.8217 204.338 91.8685C204.306 91.9152 204.284 91.9678 204.272 92.0232C203.908 93.7679 203.572 95.5556 203.05 97.263C203.033 97.3171 203.028 97.3739 203.033 97.4302C203.038 97.4865 203.055 97.5412 203.081 97.5911C203.108 97.6411 203.144 97.6853 203.187 97.7214C203.231 97.7574 203.281 97.7844 203.335 97.801C203.39 97.8176 203.446 97.8234 203.503 97.818C203.559 97.8126 203.614 97.7962 203.664 97.7697C203.714 97.7432 203.758 97.7071 203.794 97.6635C203.83 97.6199 203.857 97.5696 203.874 97.5155C204.401 95.7938 204.734 93.9688 205.116 92.1983Z" fill="#20201B"/>
<path fill-rule="evenodd" clip-rule="evenodd" d="M198.9 90.1151C198.919 90.0058 198.894 89.8936 198.832 89.8019C198.77 89.7102 198.675 89.6461 198.566 89.6228C198.458 89.5995 198.345 89.6189 198.25 89.6769C198.156 89.7349 198.088 89.8271 198.059 89.9343C197.712 91.5613 197.25 93.151 196.849 94.7637C196.821 94.8744 196.838 94.9917 196.897 95.0896C196.955 95.1875 197.051 95.2582 197.161 95.2859C197.272 95.3137 197.389 95.2964 197.487 95.2377C197.585 95.1791 197.656 95.0839 197.684 94.9732C198.088 93.3519 198.544 91.7507 198.9 90.1151Z" fill="#20201B"/>
<path fill-rule="evenodd" clip-rule="evenodd" d="M205.235 109.877C205.264 109.926 205.301 109.969 205.346 110.003C205.391 110.037 205.442 110.063 205.497 110.077C205.551 110.092 205.608 110.096 205.664 110.088C205.721 110.081 205.775 110.063 205.824 110.034C205.873 110.006 205.916 109.969 205.95 109.924C205.984 109.879 206.01 109.828 206.024 109.773C206.039 109.718 206.043 109.661 206.035 109.605C206.028 109.549 206.01 109.495 205.981 109.446C203.749 105.598 199.703 103.274 195.502 102.149C195.392 102.12 195.274 102.135 195.175 102.193C195.077 102.25 195.005 102.344 194.975 102.455C194.946 102.565 194.962 102.682 195.019 102.781C195.076 102.88 195.171 102.952 195.281 102.981C199.264 104.046 203.121 106.229 205.235 109.868V109.877Z" fill="#20201B"/>
<path d="M134.608 114.525C134.068 111.134 133.531 107.489 133.13 104.227C131.612 91.8877 131.176 81.3996 138.786 70.8254C145.156 61.97 158.04 59.4993 167.914 62.9858L167.989 63.0145C169.008 63.3715 170.008 63.7844 170.982 64.2513C173.983 65.7119 176.721 67.7636 178.42 70.6733C181.542 75.9819 179.61 83.1443 174.795 86.7168C174.543 86.9034 174.282 87.0841 174.015 87.2563C174.055 87.3367 174.092 87.4227 174.127 87.506C174.738 88.9235 175.019 90.6969 174.514 92.189C174.009 93.6812 172.921 94.7716 171.558 95.5177C170.949 95.8472 170.305 96.1098 169.639 96.3011C169.898 99.0313 170.394 101.734 171.119 104.379L171.214 104.686C172.459 105.182 173.559 105.911 174.15 106.858C174.724 107.75 174.818 108.838 174.178 110.095C174.104 110.241 174.026 110.382 173.946 110.528C173.983 110.583 174.018 110.637 174.055 110.689C174.121 110.781 174.148 110.896 174.13 111.009C174.112 111.121 174.05 111.222 173.957 111.289C173.885 111.343 173.796 111.372 173.705 111.372C173.636 111.371 173.569 111.355 173.508 111.323C173.447 111.292 173.395 111.247 173.355 111.191C172.066 109.403 171.059 107.254 170.293 104.62C169.562 101.967 169.061 99.2554 168.795 96.5163C167.711 96.7484 166.598 96.8247 165.492 96.743C165.527 97.6486 165.351 98.55 164.978 99.3758C164.604 100.202 164.043 100.929 163.34 101.501C160.907 103.461 158.215 103.205 155.879 102.011C155.802 101.948 155.75 101.86 155.731 101.762C155.711 101.664 155.727 101.562 155.774 101.474C155.822 101.387 155.898 101.318 155.991 101.28C156.083 101.243 156.186 101.239 156.281 101.268C158.321 102.313 160.677 102.568 162.804 100.852C163.424 100.348 163.915 99.7018 164.232 98.968C164.55 98.2341 164.686 97.4344 164.629 96.6368C163.274 96.3039 161.317 95.1848 160.442 94.1087C159.92 93.4717 159.779 92.8261 160.072 92.3153C160.425 91.7069 161.05 91.5176 161.793 91.6811C162.654 91.8762 163.713 92.6223 164.39 93.5434C164.903 94.239 165.252 95.0414 165.412 95.8907C166.634 96.0057 167.867 95.9086 169.056 95.6038C169.786 95.42 170.491 95.1463 171.154 94.7888C172.327 94.1432 173.283 93.2077 173.711 91.9365C174.138 90.6653 173.88 89.1014 173.349 87.8704C173.326 87.8187 173.303 87.77 173.283 87.7183C171.326 88.7829 169.122 89.2564 166.893 88.5476C166.108 88.3099 165.384 87.908 164.767 87.3688C164.15 86.8295 163.655 86.1651 163.314 85.4198C162.847 84.3007 162.976 83.2935 163.495 82.5905C164.014 81.8874 164.93 81.4656 166.135 81.5746C166.802 81.6409 167.459 81.7893 168.089 82.0165C169.233 82.4222 170.3 83.0178 171.246 83.7784C172.196 84.5396 173.001 85.466 173.622 86.5131C173.849 86.3639 174.073 86.2089 174.293 86.0482C178.77 82.7253 180.606 76.0709 177.685 71.1267C176.064 68.3662 173.464 66.4293 170.614 65.0433C169.669 64.5872 168.7 64.1829 167.71 63.8323L167.636 63.8065C158.1 60.4377 145.647 62.785 139.491 71.3362C132.031 81.7181 132.501 92.0226 133.993 104.129C135.058 112.795 137.084 124.138 137.534 126.302C137.55 126.359 137.555 126.418 137.547 126.477C137.539 126.535 137.519 126.592 137.488 126.642C137.457 126.692 137.417 126.736 137.369 126.77C137.32 126.804 137.266 126.828 137.208 126.84C137.15 126.852 137.09 126.852 137.033 126.84C136.975 126.828 136.92 126.804 136.872 126.77C136.824 126.736 136.783 126.693 136.752 126.642C136.722 126.592 136.702 126.536 136.694 126.477L136.676 126.391C134.823 126.391 133.288 126.222 132.211 125.863C130.814 125.395 129.988 124.715 129.597 123.88C128.355 121.26 131.46 117.263 134.608 114.525ZM163.682 94.0399C163.131 93.2909 162.296 92.6654 161.587 92.5075C161.263 92.4358 160.967 92.4616 160.812 92.7314C160.782 92.8026 160.769 92.8803 160.776 92.9574C160.783 93.0345 160.809 93.1087 160.852 93.1733C161.021 93.4788 161.243 93.7511 161.509 93.9767C162.375 94.7376 163.381 95.3224 164.471 95.6985C164.315 95.1008 164.047 94.538 163.682 94.0399ZM170.698 84.4356C169.827 83.7358 168.844 83.1877 167.791 82.8143C167.228 82.6098 166.642 82.4768 166.046 82.4183C165.205 82.3408 164.54 82.5933 164.178 83.0869C163.816 83.5804 163.771 84.2892 164.098 85.0726C164.388 85.7041 164.81 86.2663 165.335 86.7216C165.86 87.1769 166.476 87.5148 167.142 87.7126C169.151 88.3496 171.119 87.8991 172.881 86.9407C172.311 85.9803 171.571 85.1314 170.698 84.4356Z" fill="#20201B"/>
<path d="M146.544 89.6274C147.118 90.2415 150.481 96.3995 153.718 99.4383C153.801 99.5175 153.849 99.6263 153.851 99.741C153.854 99.8556 153.811 99.9666 153.732 100.05C153.653 100.133 153.544 100.181 153.429 100.183C153.315 100.186 153.204 100.143 153.121 100.064C149.867 97.0136 146.478 90.8297 145.904 90.2128C145.827 90.1287 145.786 90.0178 145.791 89.9039C145.795 89.7901 145.844 89.6825 145.927 89.6045C145.968 89.5643 146.017 89.533 146.071 89.5123C146.125 89.4917 146.183 89.4822 146.24 89.4843C146.298 89.4864 146.355 89.5002 146.407 89.5248C146.459 89.5494 146.506 89.5843 146.544 89.6274Z" fill="#20201B"/>
<path fill-rule="evenodd" clip-rule="evenodd" d="M111.467 306.457L100.276 317.097C100.221 320.73 100.25 322.943 100.256 325.132C114.784 336.266 122.658 333.893 124.876 329.101C125.474 327.778 125.674 326.31 125.45 324.877C124.248 316.796 121.06 308.931 116.554 301.616C109.381 289.983 98.8638 279.739 87.6898 272.215C99.2684 282.258 106.589 292.439 111.47 306.451L111.467 306.457ZM38.5807 263.718C44.3138 264.71 49.8813 266.494 55.1236 269.018L60.6245 259.999C52.0905 258.18 43.6598 259.778 38.5807 263.73V263.718Z" fill="#20201B"/>
<path fill-rule="evenodd" clip-rule="evenodd" d="M86.734 329.396C86.6883 329.433 86.6507 329.48 86.6238 329.532C86.5968 329.585 86.581 329.643 86.5773 329.702C86.5736 329.761 86.5821 329.82 86.6023 329.876C86.6225 329.931 86.654 329.982 86.6947 330.025C86.7355 330.068 86.7846 330.102 86.8391 330.125C86.8935 330.148 86.9522 330.16 87.0113 330.159C87.0705 330.158 87.1289 330.146 87.1829 330.121C87.2369 330.097 87.2853 330.062 87.3251 330.018L100.577 317.418C100.618 317.379 100.651 317.333 100.674 317.281C100.697 317.229 100.709 317.173 100.711 317.117C100.712 317.06 100.703 317.004 100.682 316.951C100.662 316.898 100.631 316.85 100.592 316.809C100.553 316.767 100.507 316.734 100.455 316.711C100.403 316.688 100.347 316.676 100.291 316.674C100.234 316.673 100.178 316.683 100.125 316.703C100.072 316.723 100.024 316.754 99.9826 316.793L86.734 329.396Z" fill="#20201B"/>
<path fill-rule="evenodd" clip-rule="evenodd" d="M85.1953 344.1C75.7259 346.108 69.4904 338.036 65.1488 329.692C55.708 311.548 50.1698 295.085 37.5525 278.508C31.3916 270.413 17.2879 261.078 12.777 265.354C7.54584 270.312 10.3006 281.039 19.4285 298.856C30.68 320.813 53.774 344.768 73.9295 345.342C77.7243 345.449 81.5156 345.03 85.1953 344.097V344.1Z" fill="#20201B"/>
<mask id="mask1_215_586" style="mask-type:luminance" maskUnits="userSpaceOnUse" x="10" y="264" width="76" height="82">
<path d="M85.1953 344.1C75.7259 346.108 69.4904 338.036 65.1488 329.692C55.708 311.548 50.1698 295.085 37.5525 278.508C31.3916 270.413 17.2879 261.078 12.777 265.354C7.54584 270.312 10.3006 281.039 19.4285 298.856C30.68 320.813 53.774 344.768 73.9295 345.342C77.7243 345.449 81.5156 345.03 85.1953 344.097V344.1Z" fill="white"/>
</mask>
<g mask="url(#mask1_215_586)">
<path d="M2.37447 273.05C16.8426 269.655 31.1903 270.467 44.9382 276.034M1.67716 284.462C20.8169 280.444 38.2063 282.898 56.4565 289.151M6.74763 296.683C23.4512 292.006 42.5335 295.148 58.4422 301.527M13.6402 309.424C33.044 305.145 53.4463 310.572 71.0136 318.698M22.9805 321.82C40.3498 321.218 58.8296 325.493 74.5804 332.785M42.4962 337.875C53.937 337.35 64.8011 339.264 75.7168 342.538C81.539 344.283 87.3298 346.157 92.5781 349.27" stroke="white" stroke-width="1.43476" stroke-linecap="round" stroke-linejoin="round"/>
</g>
<path fill-rule="evenodd" clip-rule="evenodd" d="M85.0973 343.68C80.5061 344.656 76.7155 343.178 73.5331 340.455C70.2848 337.677 67.6764 333.614 65.5329 329.493C56.0807 311.326 50.5281 294.844 37.8965 278.247C33.5348 272.507 25.2304 266.174 19.0781 264.367C16.2918 263.549 13.9302 263.669 12.4782 265.041C10.3002 267.104 9.42213 270.123 9.79803 274.198C10.3404 280.103 13.5284 288.296 19.0437 299.054C25.8215 312.282 36.8806 326.225 49.0159 335.393C57.151 341.54 65.7739 345.537 73.9148 345.775C77.7463 345.884 81.5743 345.461 85.2896 344.518C86.0696 344.351 86.8367 344.128 87.5852 343.853C87.619 343.841 87.6509 343.825 87.6799 343.804C92.1076 342.294 96.0848 339.832 98.4349 336.131C99.8929 333.809 100.667 331.124 100.667 328.383C100.687 327.204 100.688 326.168 100.688 325.129C100.687 325.015 100.641 324.905 100.56 324.824C100.478 324.744 100.369 324.699 100.254 324.699C100.198 324.698 100.142 324.709 100.089 324.731C100.037 324.752 99.9898 324.784 99.95 324.824C99.9102 324.864 99.8788 324.912 99.8576 324.964C99.8364 325.016 99.8259 325.072 99.8266 325.129C99.8266 326.165 99.8266 327.195 99.8066 328.369C99.8054 330.948 99.0785 333.475 97.7089 335.66C95.0575 339.838 90.2252 342.338 85.083 343.672L85.0973 343.68ZM79.9925 344.636C77.987 344.881 75.966 344.977 73.9464 344.923C65.9633 344.691 57.5183 340.742 49.5554 334.716C37.5206 325.623 26.5532 311.789 19.8299 298.669C14.3778 288.052 11.2213 279.963 10.6761 274.126C10.3289 270.373 11.0836 267.578 13.0894 265.675C14.352 264.479 16.4209 264.487 18.8485 265.202C24.8746 266.966 32.9638 273.176 37.2135 278.777C49.8136 295.332 55.3403 311.777 64.761 329.898C66.9562 334.119 69.6392 338.271 72.965 341.118C75.0425 342.894 77.3668 344.165 79.9838 344.645L79.9925 344.636Z" fill="#20201B"/>
<path fill-rule="evenodd" clip-rule="evenodd" d="M66.416 276.829C66.5032 276.903 66.6161 276.939 66.7299 276.93C66.8437 276.921 66.9491 276.866 67.0229 276.779C67.0968 276.692 67.1329 276.579 67.1235 276.465C67.1141 276.352 67.0599 276.246 66.9727 276.172C63.4221 273.177 59.5066 270.643 55.3196 268.631C55.2687 268.607 55.2135 268.592 55.157 268.589C55.1006 268.585 55.044 268.593 54.9906 268.612C54.9372 268.63 54.8879 268.659 54.8456 268.697C54.8034 268.734 54.7689 268.78 54.7442 268.831C54.7196 268.881 54.7051 268.937 54.7018 268.993C54.6985 269.05 54.7063 269.106 54.7248 269.16C54.7433 269.213 54.7722 269.262 54.8097 269.305C54.8473 269.347 54.8928 269.381 54.9437 269.406C59.0677 271.386 62.9244 273.88 66.4218 276.829H66.416ZM38.5156 264.14C38.5721 264.15 38.63 264.149 38.686 264.136C38.742 264.124 38.7949 264.1 38.8418 264.067C38.9365 264 39.0008 263.899 39.0206 263.785C39.0404 263.67 39.0141 263.553 38.9473 263.458C38.8806 263.364 38.779 263.299 38.6648 263.28C32.9915 262.269 27.204 262.064 21.4735 262.671C18.9655 262.944 16.482 263.407 14.0443 264.057C13.9339 264.087 13.8399 264.159 13.7828 264.258C13.7258 264.357 13.7104 264.475 13.7401 264.585C13.7698 264.696 13.8421 264.79 13.9411 264.847C14.0401 264.904 14.1577 264.919 14.2681 264.889C16.6633 264.25 19.1037 263.795 21.5682 263.526C27.2174 262.929 32.9227 263.131 38.5156 264.126V264.14Z" fill="#20201B"/>
<path fill-rule="evenodd" clip-rule="evenodd" d="M98.4182 336.174C98.4866 336.086 98.5177 335.974 98.505 335.862C98.4923 335.751 98.4367 335.649 98.3501 335.578C98.2635 335.507 98.1526 335.473 98.041 335.482C97.9294 335.492 97.8259 335.544 97.7524 335.629C92.527 342.002 84.2657 342.137 79.0775 338.148C71.6397 332.409 68.6325 322.779 64.2622 311.729C57.843 295.493 50.6175 281.062 41.7909 272.129C35.8395 266.103 29.1649 262.602 21.5205 262.66C21.4064 262.66 21.2969 262.705 21.2161 262.786C21.1354 262.866 21.0901 262.976 21.0901 263.09C21.0901 263.204 21.1354 263.314 21.2161 263.394C21.2969 263.475 21.4064 263.521 21.5205 263.521C28.9325 263.457 35.4004 266.895 41.1739 272.726C49.9317 281.576 57.0855 295.909 63.4558 312.021C67.8921 323.238 70.997 332.992 78.5467 338.808C84.0504 343.05 92.8542 342.929 98.4124 336.151L98.4182 336.174Z" fill="#20201B"/>
<path fill-rule="evenodd" clip-rule="evenodd" d="M195.236 126.233C186.415 122.629 179.783 114.181 174.153 106.866C174.727 107.759 174.822 108.846 174.182 110.103C174.036 110.39 173.878 110.677 173.708 110.95C167.84 120.588 147.699 126.213 137.11 126.379C135.059 126.414 133.38 126.241 132.206 125.854C130.809 125.386 129.983 124.706 129.592 123.871C131.027 128.577 132.387 133.473 134.62 138.245C135.916 138.853 137.168 139.551 138.367 140.334C139.372 140.985 140.353 141.682 141.303 142.417C157.045 133.209 175.898 125.825 195.25 126.224L195.236 126.233Z" fill="white" stroke="#20201B" stroke-width="0.573906" stroke-miterlimit="10"/>
<path fill-rule="evenodd" clip-rule="evenodd" d="M135.497 138.675C136.482 139.177 137.44 139.73 138.367 140.334C139.371 140.985 140.352 141.683 141.302 142.417C156.138 133.74 173.739 126.681 191.906 126.233C174.907 124.052 151.793 131.599 135.497 138.678V138.675Z" fill="#20201B" stroke="#20201B" stroke-width="0.286953" stroke-miterlimit="10"/>
<path fill-rule="evenodd" clip-rule="evenodd" d="M179.641 165.003C183.167 164.957 186.668 166.579 189.756 168.96C183.561 170.536 175.598 171.678 169.566 169.821C171.64 167.226 174.647 165.544 177.945 165.135C177.932 165.04 177.952 164.943 178.001 164.861C178.05 164.778 178.125 164.714 178.215 164.679C188.221 160.736 197.004 149.261 199.062 139.166C199.085 139.054 199.151 138.956 199.246 138.893C199.341 138.83 199.458 138.808 199.57 138.83C199.682 138.853 199.78 138.92 199.843 139.015C199.906 139.11 199.928 139.226 199.905 139.338C197.871 149.304 189.429 160.579 179.641 165.003Z" fill="#20201B"/>
<path fill-rule="evenodd" clip-rule="evenodd" d="M117.284 154.831C117.963 153.528 119.008 152.451 120.291 151.732C118.819 149.411 117.674 146.567 117.562 143.936C117.441 141.066 118.538 138.435 121.731 136.971C122.745 136.514 123.817 136.2 124.917 136.039C128.234 135.528 131.691 136.412 134.796 137.855C137.165 139.067 139.413 140.5 141.511 142.137C141.599 142.21 141.654 142.315 141.665 142.428C141.675 142.542 141.64 142.656 141.567 142.744C141.494 142.831 141.389 142.887 141.275 142.897C141.161 142.908 141.048 142.873 140.96 142.799C138.922 141.208 136.737 139.814 134.435 138.636C131.482 137.264 128.202 136.403 125.049 136.891C124.027 137.04 123.032 137.33 122.09 137.752C119.272 139.04 118.317 141.359 118.423 143.898C118.529 146.438 119.654 149.144 121.074 151.359C122.014 150.988 123.021 150.815 124.031 150.852C125.04 150.888 126.032 151.133 126.942 151.572C127.553 151.86 128.125 152.222 128.647 152.651C129.6 153.515 130.296 154.626 130.656 155.862C130.891 156.837 130.716 157.744 129.838 158.289C129.08 158.763 128.062 158.682 127.003 158.243C125.568 157.669 124.067 156.438 123.112 155.443C122.991 155.313 122.859 155.17 122.721 155.012C122.058 154.246 121.264 153.184 120.753 152.45C119.59 153.089 118.642 154.059 118.03 155.236C117.293 156.599 117.006 158.16 117.212 159.695C117.659 163.248 120.397 166.582 123.175 168.708C123.407 168.886 123.68 169.09 123.981 169.302C125.155 168.278 126.46 167.647 128.179 168.312C130.044 169.033 130.242 171.211 128.604 171.704C127.756 171.923 126.859 171.85 126.059 171.495C125.363 171.203 124.7 170.841 124.079 170.413C122.786 172.107 122.192 174.232 122.42 176.35C123.465 184.692 130.501 192.732 140.713 193.079C139.927 191.421 139.202 189.718 138.538 187.972C138.498 187.865 138.502 187.746 138.549 187.642C138.596 187.538 138.682 187.457 138.789 187.416C138.896 187.376 139.015 187.38 139.119 187.427C139.223 187.474 139.304 187.561 139.345 187.667C140.079 189.613 140.893 191.503 141.786 193.338C147.419 204.922 156.088 214.13 167.084 219.281C167.136 219.305 167.183 219.338 167.221 219.38C167.26 219.422 167.29 219.471 167.31 219.524C167.329 219.577 167.338 219.634 167.335 219.691C167.332 219.748 167.318 219.804 167.294 219.855C174.7 223.224 183.136 224.811 192.394 224.085C199.395 215.246 202.724 203.424 202.813 192.198C204.452 200.775 203.633 209.64 200.451 217.772C199.64 219.833 198.534 221.766 197.168 223.511C193.82 227.829 188.962 231.141 183.888 231.85C197.088 232.685 208.09 227.009 219.275 219.485C224.937 215.674 230.693 211.737 234.556 205.972C234.587 205.925 234.628 205.885 234.675 205.854C234.722 205.823 234.775 205.801 234.831 205.79C234.886 205.779 234.943 205.78 234.999 205.791C235.054 205.802 235.107 205.824 235.154 205.856C235.201 205.888 235.241 205.928 235.272 205.975C235.303 206.023 235.325 206.075 235.336 206.131C235.347 206.187 235.346 206.244 235.335 206.299C235.324 206.355 235.302 206.407 235.27 206.454C231.347 212.302 225.514 216.325 219.754 220.196C207.289 228.564 195.019 234.647 179.811 232.246C179.698 232.227 179.597 232.165 179.531 232.072C179.464 231.98 179.437 231.865 179.455 231.752C173.337 230.604 169.449 225.232 167.079 220.07C167.022 220.096 166.96 220.109 166.898 220.109C166.835 220.109 166.774 220.096 166.717 220.07C155.621 214.873 146.851 205.619 141.127 193.957C130.222 193.82 122.67 185.3 121.562 176.453C121.326 174.125 121.975 171.792 123.378 169.919C123.114 169.73 122.873 169.546 122.664 169.389C119.714 167.13 116.845 163.569 116.368 159.799C116.143 158.088 116.463 156.349 117.284 154.831ZM123.387 154.447C123.513 154.593 123.634 154.734 123.749 154.846C124.632 155.77 126.027 156.903 127.347 157.448C128.113 157.767 128.848 157.902 129.396 157.557C129.944 157.213 129.97 156.656 129.832 156.062C129.524 155.006 128.928 154.056 128.11 153.319C127.644 152.934 127.131 152.61 126.584 152.352C125.808 151.978 124.966 151.762 124.106 151.717C123.247 151.672 122.386 151.799 121.576 152.091C122.061 152.794 122.782 153.75 123.387 154.447ZM126.386 170.691C127.006 170.976 127.705 171.043 128.369 170.881C129.25 170.614 128.882 169.5 127.884 169.113C126.601 168.619 125.62 169.073 124.727 169.805C125.249 170.154 125.805 170.452 126.386 170.691Z" fill="#20201B"/>
<path d="M118.513 15.2052C118.86 14.3759 119.589 13.7188 120.674 13.2568C129.523 5.90502 140.973 1.40847 153.794 0.289353C165.714 -0.760895 178.443 1.05265 190.601 5.53485H190.616C190.923 4.78304 191.098 4.32965 191.393 3.61514C192.931 -0.11525 194.263 0.785782 194.383 0.851781C194.957 1.16743 195.634 1.75281 194.641 4.76869C194.412 5.47172 194.125 6.12311 193.835 6.77736C206.567 12.0429 217.411 19.7735 225.159 29.1798C233.538 39.335 237.814 50.9681 237.521 62.8164C237.705 63.5157 237.661 64.2552 237.397 64.9284C236.537 67.0231 233.417 67.7606 229.483 67.7606C225.704 67.7606 221.162 67.0805 217.084 66.2713C205.551 63.9757 190.756 59.2582 175.427 52.9854C175.321 52.942 175.237 52.8584 175.193 52.7529C175.149 52.6474 175.148 52.5288 175.192 52.423C175.235 52.3172 175.319 52.233 175.424 52.1888C175.53 52.1447 175.648 52.1443 175.754 52.1877C191.035 58.4432 205.772 63.1435 217.251 65.4277C228.402 67.643 235.455 67.3417 236.603 64.5955C236.801 64.0719 236.825 63.4983 236.671 62.9599C236.643 62.8451 236.608 62.7274 236.568 62.6069L236.522 62.4835C236.494 62.4032 236.465 62.32 236.43 62.2368C236.396 62.1535 236.385 62.1363 236.362 62.0847C236.339 62.033 236.296 61.9326 236.255 61.8551C236.215 61.7776 236.198 61.7403 236.166 61.6829C236.135 61.6255 236.092 61.5337 236.049 61.4591L235.943 61.2783C235.897 61.2009 235.854 61.1262 235.805 61.0488L235.679 60.8565C235.63 60.779 235.581 60.7044 235.527 60.6241L235.386 60.4261C235.329 60.3457 235.274 60.2683 235.214 60.1879L235.059 59.9842L234.867 59.7403C234.812 59.6685 234.752 59.5997 234.694 59.5279L234.488 59.2783C234.428 59.2065 234.362 59.1348 234.298 59.0631L234.075 58.8077C234.009 58.7331 233.94 58.6585 233.871 58.5867L233.63 58.3227L233.409 58.096C233.323 58.0071 233.24 57.9181 233.151 57.8292L232.915 57.5967L232.628 57.3241L232.376 57.0859L232.089 56.799L231.816 56.5522L231.515 56.2653L231.228 56.0099L230.97 55.7832L230.47 55.766L229.922 55.7487H229.69C218.576 55.1748 200.048 50.0527 179.993 42.0267L179.875 41.9807C179.519 41.8401 179.166 41.6938 178.807 41.5503L177.794 41.14L177.063 40.8387L175.192 40.0639C173.899 39.5244 172.614 38.9773 171.338 38.4225L171.304 38.4082L169.436 37.5904L169.197 37.4842L167.553 36.7525L167.065 36.5315L165.685 35.906L165.137 35.6534L163.837 35.0537L163.249 34.7668L162.006 34.1928L161.407 33.9059C161.003 33.7146 160.601 33.5233 160.201 33.332L159.55 33.0163L158.419 32.4654L157.765 32.144L156.658 31.5959L156.012 31.2717L154.924 30.7236L154.273 30.3907L153.217 29.8512L152.56 29.5299C152.215 29.3519 151.871 29.174 151.53 28.9933C151.312 28.8813 151.099 28.7666 150.884 28.6518L149.88 28.1209L149.243 27.7737C148.916 27.5987 148.586 27.4236 148.264 27.2457L147.621 26.8928L146.677 26.3734L146.032 26.0118L145.128 25.5039L144.485 25.1366L143.624 24.6373L142.993 24.2671L142.132 23.7736L141.504 23.4005L140.689 22.9127L140.072 22.5368L139.283 22.0576L138.677 21.6817L137.925 21.2082L137.331 20.8323C137.087 20.6774 136.841 20.5224 136.602 20.3675L136.028 19.9829L135.337 19.5324L134.763 19.145L134.103 18.706L133.529 18.3157C133.32 18.1723 133.107 18.0288 132.904 17.8853L132.353 17.4979L131.759 17.0761L131.225 16.6887L130.651 16.2784L130.129 15.8852C129.954 15.7532 129.776 15.6212 129.606 15.4893L129.101 15.0961L128.611 14.7145C128.444 14.5825 128.286 14.4505 128.126 14.3214L127.667 13.9483C127.506 13.8163 127.354 13.6872 127.199 13.5552L126.832 13.2481C126.708 13.2481 126.588 13.2481 126.464 13.2481C126.292 13.2481 126.12 13.2481 125.954 13.2481H125.701L125.067 13.2682H124.923C124.697 13.2682 124.47 13.2941 124.255 13.3141H124.134C123.919 13.3371 123.704 13.3601 123.503 13.3859L123.36 13.4088C123.17 13.4347 122.984 13.4634 122.806 13.4949L122.608 13.538C122.458 13.5695 122.321 13.5982 122.169 13.6327L121.882 13.713L121.595 13.7962C121.411 13.8565 121.236 13.9196 121.07 13.9885C120.166 14.3644 119.572 14.8752 119.308 15.5065C118.134 18.31 123.093 23.6932 132.909 30.2759C143.03 37.0624 157.197 44.4141 172.796 50.9739C172.901 51.018 172.985 51.1022 173.028 51.2079C173.071 51.3137 173.071 51.4323 173.027 51.5377C172.983 51.6431 172.898 51.7267 172.793 51.77C172.687 51.8133 172.568 51.8129 172.463 51.7687C156.815 45.2176 142.597 37.8515 132.43 31.022C119.176 22.138 117.552 17.5151 118.513 15.2052ZM153.868 1.14447C141.977 2.19472 131.285 6.16041 122.809 12.6513C122.989 12.6197 123.182 12.591 123.382 12.5652H123.457C123.945 12.5021 124.464 12.4562 125.018 12.4275H125.159C125.42 12.4275 125.687 12.4074 125.962 12.4016H126.14C126.427 12.4016 126.714 12.4016 127.018 12.4016C127.322 12.4016 127.664 12.4189 127.997 12.4332L128.522 12.459L128.929 12.482C133.297 12.7689 138.76 13.7073 144.979 15.2367C154.735 8.76881 166.965 5.39425 180.214 5.39425C183.139 5.39735 186.063 5.55731 188.971 5.87346C177.332 1.77577 165.226 0.145877 153.868 1.14734V1.14447ZM201.477 36.6032C208.407 40.0467 214.625 43.4901 219.982 46.8532C217.77 32.2789 208.519 18.7691 193.769 8.54786C199.299 17.3745 201.89 26.8038 201.477 36.6032ZM192.334 7.90795L183.763 28.4997C189.62 30.9704 195.296 33.5673 200.63 36.2015C200.969 26.2988 198.185 16.7891 192.334 7.90508V7.90795ZM173.576 24.4049L173.642 24.4278L175.708 25.2284L176.064 25.3662L177.872 26.0836L178.4 26.293L180.122 26.9875L180.696 27.2199L182.816 28.0951L182.942 28.1496H182.971L191.505 7.6583C181.361 9.72723 171.806 14.462 164.443 21.0676C167.424 22.0978 170.477 23.2169 173.576 24.402V24.4049ZM163.516 20.752C170.896 14.0057 180.506 9.13611 190.725 6.93805C173.949 4.74286 158.178 7.77309 146.103 15.5093C151.458 16.8638 157.326 18.6256 163.516 20.7491V20.752ZM224.49 29.7279C217.03 20.6888 206.679 13.1965 194.509 8.01126C209.554 18.5223 218.9 32.451 220.938 47.4587C223.921 49.336 226.806 51.3655 229.581 53.5392L229.598 53.5536C229.902 53.7975 230.201 54.0385 230.491 54.2767L230.602 54.3685C230.889 54.5981 231.148 54.8248 231.409 55.0486H231.423C231.621 55.2179 231.811 55.3843 231.997 55.5536L232.149 55.6914C232.301 55.8262 232.45 55.9611 232.594 56.096L232.703 56.1964C232.878 56.3571 233.047 56.5178 233.211 56.6756L233.331 56.7933L233.713 57.1692L233.839 57.2954C233.991 57.4504 234.141 57.6053 234.284 57.7574L234.341 57.8177C234.468 57.9525 234.588 58.0845 234.706 58.2165L234.821 58.3457C234.938 58.4748 235.05 58.6039 235.156 58.7302L235.202 58.7991C235.326 58.9454 235.44 59.086 235.555 59.2295L235.644 59.3471C235.733 59.4591 235.819 59.571 235.9 59.68C235.925 59.7144 235.954 59.7517 235.977 59.7862C236.078 59.9239 236.175 60.0588 236.264 60.1936L236.319 60.2797C236.393 60.3888 236.462 60.4978 236.531 60.6069L236.6 60.7188L236.651 60.802C236.453 49.8547 232.27 39.1514 224.49 29.7279Z" fill="#20201B"/>
<path d="M110.109 202.331C111.031 200.012 113.303 194.465 114.27 193.966C114.531 193.831 114.999 193.837 115.562 193.937L121.9 177.98C121.921 177.927 121.952 177.879 121.992 177.839C122.031 177.798 122.078 177.766 122.13 177.743C122.182 177.721 122.238 177.709 122.295 177.708C122.351 177.707 122.407 177.718 122.46 177.739C122.512 177.76 122.56 177.791 122.601 177.83C122.641 177.87 122.674 177.917 122.696 177.969C122.719 178.021 122.731 178.076 122.731 178.133C122.732 178.19 122.722 178.246 122.701 178.298L122.477 178.858C122.797 180.064 123.231 181.236 123.774 182.359C123.852 182.325 123.937 182.315 124.02 182.33C124.103 182.345 124.18 182.384 124.241 182.442C124.302 182.5 124.345 182.575 124.364 182.657C124.383 182.739 124.377 182.825 124.348 182.904L119.341 195.421C119.624 195.581 119.864 195.807 120.041 196.081C120.615 197.315 118.477 202.681 117.659 204.925C117.016 206.695 114.46 213.407 112.781 214.492C110.758 215.809 107.676 215.066 107.286 212.449C107.005 210.383 109.363 204.207 110.109 202.331ZM121.906 186.723C121.332 185.937 120.827 185.105 120.325 184.278L116.399 194.138C117.155 194.358 117.889 194.646 118.592 194.999L121.906 186.723Z" fill="#20201B"/>
<path d="M182.973 32.8481C182.991 32.792 183.02 32.7403 183.059 32.6961C183.098 32.6519 183.146 32.6162 183.199 32.5912C183.253 32.5661 183.311 32.5523 183.369 32.5506C183.428 32.5489 183.487 32.5593 183.542 32.5811C183.596 32.603 183.646 32.6358 183.688 32.6776C183.729 32.7195 183.762 32.7694 183.783 32.8242C183.804 32.8791 183.814 32.9378 183.812 32.9967C183.81 33.0556 183.796 33.1134 183.77 33.1666L171.208 64.806C171.188 64.86 171.158 64.9095 171.118 64.9515C171.079 64.9936 171.032 65.0274 170.98 65.051C170.927 65.0746 170.871 65.0874 170.813 65.0888C170.756 65.0901 170.699 65.0799 170.645 65.0589C170.592 65.0378 170.543 65.0062 170.502 64.9661C170.461 64.9259 170.428 64.8779 170.406 64.8249C170.384 64.7719 170.373 64.715 170.373 64.6576C170.373 64.6001 170.385 64.5433 170.407 64.4904L182.973 32.8481Z" fill="#20201B"/>
<path d="M151.289 103.988L153.036 99.5922C153.062 99.527 153.103 99.469 153.156 99.4235C153.209 99.3779 153.272 99.3462 153.341 99.3311C153.409 99.3157 153.481 99.3173 153.549 99.3358C153.617 99.3543 153.679 99.3891 153.731 99.4372C153.889 99.5864 154.049 99.7242 154.21 99.8619C154.847 100.407 155.544 100.879 156.288 101.268C156.383 101.317 156.457 101.399 156.495 101.499C156.533 101.6 156.533 101.71 156.494 101.81L153.986 108.123L140.672 141.671C140.651 141.724 140.62 141.771 140.58 141.812C140.541 141.853 140.494 141.885 140.442 141.907C140.39 141.93 140.334 141.942 140.277 141.942C140.221 141.943 140.165 141.933 140.112 141.912C140.059 141.891 140.012 141.86 139.971 141.821C139.93 141.781 139.898 141.734 139.876 141.682C139.853 141.63 139.841 141.574 139.84 141.518C139.84 141.461 139.85 141.405 139.871 141.352L153.085 108.04C152.452 107.3 151.947 106.459 151.593 105.552L137.905 140.007C137.884 140.059 137.853 140.107 137.814 140.148C137.774 140.188 137.727 140.221 137.675 140.243C137.624 140.265 137.568 140.277 137.511 140.278C137.455 140.279 137.398 140.269 137.346 140.248C137.293 140.227 137.245 140.196 137.205 140.156C137.164 140.117 137.132 140.07 137.109 140.018C137.087 139.966 137.075 139.91 137.074 139.853C137.073 139.797 137.084 139.741 137.105 139.688L151.289 103.988Z" fill="#20201B"/>
<path d="M179.28 33.5218C179.325 33.4217 179.407 33.3429 179.509 33.3015C179.611 33.2602 179.725 33.2595 179.828 33.2995C179.93 33.3396 180.013 33.4173 180.06 33.5168C180.107 33.6163 180.114 33.73 180.08 33.8346L168.255 63.5715C168.234 63.6239 168.203 63.6716 168.164 63.7121C168.125 63.7526 168.078 63.7849 168.026 63.8073C167.975 63.8297 167.919 63.8417 167.863 63.8426C167.806 63.8435 167.75 63.8333 167.698 63.8125C167.646 63.7918 167.598 63.761 167.557 63.7218C167.517 63.6826 167.485 63.6358 167.462 63.5841C167.44 63.5324 167.428 63.4768 167.427 63.4205C167.426 63.3642 167.436 63.3082 167.457 63.2558L179.28 33.5218Z" fill="#20201B"/>
</g>
<defs>
<clipPath id="clip0_215_586">
<rect width="293.059" height="349.988" fill="white" transform="matrix(-1 0 0 1 294.031 0)"/>
</clipPath>
</defs>
</svg>
