<svg width="81" height="94" viewBox="0 0 81 94" fill="none" xmlns="http://www.w3.org/2000/svg">
<path d="M48.0668 45.4152C48.0899 34.7342 48.8678 24.7164 50.3283 15.0928C50.6837 12.1124 51.3084 9.05999 52.2743 6.20458C53.4373 3.00787 55.033 1.42623 57.0616 1.45971C59.7006 1.61811 60.6189 3.96862 61.4651 6.04995C63.8788 12.9044 65.8262 20.1724 66.894 27.3876C69.063 39.7893 70.6936 52.3352 71.1754 64.9005C71.3055 68.6163 71.1664 72.4041 70.0755 75.87C68.5378 80.8982 64.5193 83.129 59.6161 80.9807C56.0781 79.6207 52.468 77.9914 49.3241 75.9487C34.2871 66.1294 21.0429 54.3873 10.9903 39.4818C8.63464 36.0739 6.54813 32.5938 5.39409 28.2869C3.73517 22.0957 6.3884 19.0767 12.6182 19.7155C16.2091 20.1959 19.4057 21.3589 22.4775 23.1324C27.525 25.8191 31.9814 29.5296 36.2407 33.5815C39.8895 37.5084 43.4662 41.1662 48.0668 45.4152ZM56.3121 5.12267C54.8606 7.24266 54.5578 9.34331 54.1831 11.1748C52.1314 21.8223 51.2286 32.4506 51.2055 43.1316C51.1914 46.309 50.6388 49.6306 53.5857 52.0146C53.9991 52.4809 54.2155 53.2884 53.7493 53.7019C53.086 54.4566 52.4034 54.0625 51.7208 53.6683C50.966 53.005 50.2113 52.3418 49.4565 51.6785C44.7117 46.8912 39.7697 42.4452 35.0249 37.6579C31.179 34.0722 27.3332 30.4866 22.824 27.6557C19.7522 25.8822 16.6805 24.1087 13.2867 23.287C12.0657 23.0371 10.7726 22.5181 9.64303 23.6863C8.78268 24.7824 9.14334 26.1282 9.77316 27.402C11.1049 30.2188 12.3646 32.7664 13.9655 35.511C22.9942 49.8253 35.4836 60.9042 49.0303 70.5458C52.929 73.2517 57.0968 75.8856 61.5866 77.5676C64.1729 78.6057 64.9804 78.3893 65.9464 75.5339C66.9123 72.6785 67.1957 69.4289 67.0128 66.5929C66.5593 47.6728 64.1494 28.9885 59.2448 10.6841C58.4707 8.87193 58.1629 6.64632 56.3121 5.12267Z" fill="#FDF9FA"/>
<path d="M46.4984 45.3761C46.5216 34.6951 47.2994 24.6773 48.7599 15.0537C49.1154 12.0734 49.74 9.02092 50.706 6.16552C51.869 2.96881 53.4647 1.38717 55.4932 1.42065C58.1322 1.57905 59.0506 3.92956 59.8968 6.01089C62.3104 12.8654 64.2579 20.1334 65.3256 27.3485C67.4946 39.7502 69.1252 52.2962 69.607 64.8615C69.7371 68.5772 69.5981 72.365 68.5072 75.8309C66.9694 80.8591 62.951 83.0899 58.0477 80.9417C54.5097 79.5816 50.8996 77.9523 47.7557 75.9096C32.7187 66.0903 19.4746 54.3482 9.42197 39.4427C7.06628 36.0348 4.97977 32.5547 3.82573 28.2478C2.16681 22.0566 4.82004 19.0376 11.0499 19.6764C14.6407 20.1568 17.8374 21.3198 20.9091 23.0933C25.9567 25.78 30.4131 29.4905 34.6724 33.5424C38.3212 37.4694 41.8978 41.1272 46.4984 45.3761ZM54.7437 5.08361C53.2922 7.2036 52.9895 9.30425 52.6147 11.1357C50.563 21.7833 49.6603 32.4115 49.6371 43.0926C49.623 46.2699 49.0705 49.5916 52.0173 51.9755C52.4308 52.4418 52.6471 53.2494 52.1809 53.6628C51.5176 54.4175 50.835 54.0234 50.1524 53.6293C49.3977 52.966 48.6429 52.3027 47.8882 51.6394C43.1433 46.8521 38.2013 42.4061 33.4565 37.6188C29.6106 34.0331 25.7648 30.4476 21.2557 27.6167C18.1839 25.8432 15.1121 24.0696 11.7183 23.2479C10.4973 22.998 9.2042 22.4791 8.07467 23.6472C7.21432 24.7433 7.57498 26.0892 8.2048 27.363C9.53656 30.1797 10.7962 32.7273 12.3972 35.4719C21.4258 49.7862 33.9152 60.8651 47.462 70.5067C51.3606 73.2127 55.5284 75.8465 60.0183 77.5286C62.6045 78.5666 63.4121 78.3502 64.378 75.4948C65.344 72.6394 65.6273 69.3899 65.4444 66.5538C64.9909 47.6337 62.5811 28.9494 57.6764 10.645C56.9023 8.83287 56.5945 6.60725 54.7437 5.08361Z" fill="#F1A5C3"/>
</svg>
