<svg width="180" height="263" viewBox="0 0 180 263" fill="none" xmlns="http://www.w3.org/2000/svg">
<path fill-rule="evenodd" clip-rule="evenodd" d="M11.4545 17.8296C12.9744 26.8334 15.103 35.7196 18.016 44.4348C15.8286 35.5655 13.6415 26.6975 11.4545 17.8296ZM14.5271 7.17454C15.1134 14.1517 24.8821 49.0602 28.0879 55.9336C23.6256 39.5117 18.1995 23.58 14.5271 7.17454ZM14.6106 55.6667C11.8884 45.7268 9.24028 35.8587 7.63459 25.8112C7.0273 22.0101 6.52686 18.2093 5.93953 14.4092C5.80706 13.5479 5.82419 12.1923 5.00055 12.0748C4.01169 11.9334 4.56162 13.3712 4.52326 14.1697C4.51303 14.3874 4.56844 14.6281 4.59756 14.8587C6.36253 28.7974 9.97709 42.3737 14.6106 55.6667ZM68.1813 139.818C70.4128 141.865 71.5358 145.1 73.07 147.838C78.0045 156.644 83.1817 165.167 88.8899 173.135C90.6587 175.605 92.3069 178.073 92.7258 181.474C92.8274 182.3 93.143 184.61 94.186 182.398C94.6251 181.469 95.0194 182.394 95.3843 182.853C98.8139 187.166 102.469 191.222 105.553 195.93C106.867 197.935 108.415 198.747 109.668 200.342C113.465 205.177 117.94 208.511 122.002 212.751C124.455 215.312 127.295 217.098 130.065 219.313C129.696 220.263 128.795 218.878 128.607 219.694C128.441 220.413 128.897 221.336 129.311 221.472C130.977 222.019 132.569 224.446 134.322 223.14C135.093 222.564 136.052 223.436 136.224 224.287C136.514 225.721 136.486 226.796 137.63 225.49C137.729 225.375 137.938 225.43 138.098 225.407C138.96 229.997 141.361 227.25 142.94 228.404C147.074 231.427 151.435 233.302 155.624 236.272C158.641 238.409 162.181 239.714 165.602 240.727C168.001 241.438 170.586 242.392 172.94 244.033C174.261 244.954 175.549 245.829 176.895 246.045C178.721 246.339 179.119 248.219 179.762 249.967C180.559 252.133 179.151 251.679 178.507 252.127C177.34 252.939 177.963 254.963 177.758 256.276C176.877 261.899 173.362 262.332 170.04 262.69C164.674 263.267 159.088 261.464 153.562 259.735C136.02 254.245 119.497 243.725 103.974 228.897C89.4428 215.017 76.6518 198.353 65.0886 179.912C60.2503 172.196 55.9816 163.948 51.484 155.916C47.8123 149.359 44.1962 142.807 40.8942 135.967C35.5168 124.825 30.3592 113.553 25.6639 101.97C17.8661 82.7359 10.5321 63.3138 5.22049 43.0701C2.42793 32.4225 0.733467 21.6943 0.0637905 10.9593C-0.0512307 9.12312 -0.0346866 7.31113 0.315012 5.62449C0.570754 4.39449 0.612416 2.71169 1.78571 2.73903C2.87433 2.76515 3.9629 3.65435 4.62011 5.86614C4.65071 2.36986 4.59859 -0.890481 8.10299 1.49081C8.62537 1.84653 8.74989 1.34326 9.0468 1.00228C10.5876 -0.760766 12.0505 -0.187608 13.4965 2.64066C13.7567 1.97126 13.0109 0.477933 14.065 0.543715C14.7878 0.587648 15.0125 1.65469 15.1962 2.42421C17.1879 10.7745 19.5681 19.0235 21.9076 27.2869C26.1126 42.1461 30.7872 56.7982 36.1175 71.2718C41.0167 84.5732 46.3209 97.6226 51.9103 110.53C54.1082 115.606 56.6755 120.46 59.3624 125.267C40.8463 86.0825 26.4951 45.2071 16.4201 2.54903C17.7863 3.52695 17.8693 5.26833 18.2606 6.68568C27.8459 41.4067 38.8552 75.5276 53.3238 108.268C57.6003 117.945 62.3393 127.261 67.0129 136.636C67.5387 137.692 67.9866 138.741 68.2691 139.898C66.9899 141.262 66.7962 138.716 66.552 138.292C64.3957 134.547 62.4355 130.622 60.0849 126.114C61.0349 130.843 73.9611 154.521 76.3324 156.018C74.332 153.553 72.873 150.56 71.3643 147.654C70.0905 145.201 68.1055 143.034 68.1813 139.818Z" fill="#F1A5C3"/>
<path fill-rule="evenodd" clip-rule="evenodd" d="M83.6554 123.437C83.9981 119.899 81.0735 117.803 80.8381 114.618C80.8002 114.094 80.2034 113.656 79.787 113.842C79.3028 114.061 78.9715 114.86 79.3712 115.394C81.1369 117.747 81.4344 121.286 83.6554 123.437ZM80.8404 101.246C77.4379 91.3605 73.7343 81.6134 70.8497 71.5394C72.8437 81.9651 76.2121 91.8589 80.8404 101.246ZM72.0091 52.3034C74.9908 72.7644 81.9155 91.7942 90.7533 110.13C82.2784 91.6624 76.4502 72.2351 72.0091 52.3034ZM78.0977 109.753C76.8837 106.427 75.476 103.156 74.5057 99.7627C73.4 95.8934 71.7583 92.2734 70.753 88.2684C69.9866 85.2143 68.6493 81.7144 67.6253 78.4591C64.1052 67.2705 62.3511 55.7842 60.4046 44.3548C60.077 42.4315 60.0169 40.4741 59.9848 38.5681C59.9751 37.9699 60.4671 37.4578 59.9271 36.7681C59.7688 36.5639 59.4266 36.4331 59.2459 36.5015C58.5625 36.7595 58.6871 37.665 58.7563 38.45C59.0544 41.842 59.937 45.5001 59.5677 48.5728C58.9753 53.5076 61.2142 57.9925 61.8359 62.6741C62.281 66.0304 64.101 69.4207 64.0449 72.488C63.9601 77.098 65.9458 80.8092 67.1419 84.9171C68.2867 88.8507 70.7693 92.2063 71.6397 95.8478C72.9331 101.257 74.9709 105.729 78.0977 109.753ZM59.0909 31.4636C59.2394 29.6608 59.3299 28.1571 59.4965 26.6894C59.6031 25.751 59.5487 24.5659 60.558 24.5542C61.4528 24.5417 61.6845 25.6107 62.0758 26.4176C62.3383 26.9604 62.661 27.3805 63.1371 27.4525C62.8329 23.7895 63.1353 23.6333 65.8373 24.6011C66.4934 24.8358 67.6772 26.6457 68.3165 24.4175C68.6227 23.3526 69.2893 25.0579 69.5442 25.8015C71.0782 30.2751 71.7476 34.8984 72.3211 39.4521C73.1225 45.8175 74.2983 52.1626 75.4701 58.4872C78.1497 72.9493 83.0576 86.706 88.5916 100.25C91.9957 108.583 96.0089 116.38 100.711 123.72C95.8006 112.917 89.8491 102.746 86.1164 90.4708C87.795 91.6192 88.0575 93.2588 88.5382 94.5085C93.4074 107.161 99.2957 119.043 106.167 130.205C106.469 130.694 107.256 131.198 106.669 131.847C105.154 133.523 106.998 135.149 107.607 136.064C108.503 137.409 109.546 139.972 111.496 138.208C110.352 143.049 114.406 143.807 115.16 147.134C116.226 145.911 114.66 144.838 115.095 143.555C116.811 145.748 118.426 148.003 120.187 149.997C121.297 151.256 118.878 151.281 120.342 152.871C122.351 155.056 123.878 158.143 125.87 160.374C126.794 161.409 126.352 162.601 127.291 163.582C127.737 161.115 128.421 161.289 129.816 163.465C132.006 166.878 134.602 169.669 137.609 171.653C139.642 172.992 141.297 175.474 143.413 176.703C144.031 177.061 143.943 177.84 144.029 178.535C144.402 181.539 145.408 182.544 147.492 182.061C149.433 181.612 151.316 181.321 153.355 183.521C153.926 184.138 154.134 184.502 154.345 185.356C154.872 187.493 157.459 188.363 158.687 187.165C160.29 185.597 162.723 186.128 164.393 187.103C167.158 188.716 169.15 187.272 171.448 187.159C172.63 187.101 173.111 187.631 173.733 188.91C175.002 191.526 173.034 191.654 172.462 192.592C171.969 193.397 170.859 193.23 171.747 195.135C172.183 196.072 171.579 196.77 171.014 197.216C169.541 198.381 168.355 200.598 165.967 198.483C165.931 198.452 164.413 197.377 164.887 199.483C165.04 200.164 164.072 200.915 163.278 200.847C159.604 200.539 156.157 201.845 152.35 200.681C151.471 200.412 150.607 200.807 150.697 198.915C150.717 198.482 150.755 197.827 150.319 197.787C149.955 197.754 149.319 198.201 149.352 198.442C149.698 200.966 148.29 200.309 147.574 199.621C145.572 197.694 143.411 198.46 141.458 197.069C138.362 194.865 135.037 193.67 132.29 189.832C131.296 188.445 129.026 188.189 127.331 186.929C122.711 183.496 118.635 178.858 114.384 174.647C111.068 171.36 108.024 167.455 104.897 163.752C97.636 155.152 91.3018 145.496 85.3663 135.335C77.9916 122.711 72.017 109.046 66.8479 95.0334C61.2491 79.8567 56.9608 64.203 55.1499 48.1516C54.4447 41.9017 54.1162 35.7172 55.3439 30.0073C55.573 28.9444 55.3965 27.1517 56.5964 27.3429C57.6512 27.5112 58.05 29.029 58.3913 30.3122C58.4665 30.5984 58.7048 30.843 59.0909 31.4636Z" fill="#F1A5C3"/>
<path fill-rule="evenodd" clip-rule="evenodd" d="M88.3799 30.7638C89.1871 31.2399 89.5234 31.9667 89.8875 32.6761C90.3198 33.5184 90.3976 35.1735 91.3984 34.8629C92.4357 34.5392 91.5727 33.1689 91.4031 32.2278C91.3416 31.8849 91.1812 31.5435 91.1401 31.2029C90.9586 29.698 91.2101 28.9176 92.4613 30.0746C92.7251 30.3199 93.2515 31.0499 93.2016 30.5686C92.7529 26.2882 95.1365 29.4604 96.1356 29.0788C98.2155 28.2812 98.6511 31.2701 99.7589 32.6508C102.845 36.4941 104.682 41.7784 108.195 45.2242C109.571 46.5747 109.342 48.5536 108.457 49.995C111.903 51.38 113.249 55.7378 115.18 59.1176C119.064 65.9155 122.131 73.8271 126.67 79.5632C131.275 85.3818 134.134 92.3661 138.026 98.5617L140.302 105.394C140.796 106.292 141.244 107.243 141.792 108.077C144.772 112.61 147.635 117.24 149.663 122.584C150.084 123.695 151.274 124.97 149.076 124.864C148.223 124.822 147.657 127.929 147.149 129.739C146.909 130.592 146.77 131.654 146 131.326C143.345 130.198 140.596 130.69 138.082 127.295C131.623 118.57 125.572 109.464 119.987 99.7198C115.563 92.0001 111.37 84.1107 107.191 76.1962C103.827 69.8263 100.71 63.308 97.7994 56.5831C94.8996 49.8834 91.4805 43.4944 88.8347 36.5971C88.0492 34.548 87.847 32.7991 88.3799 30.7638Z" fill="#F1A5C3"/>
<path fill-rule="evenodd" clip-rule="evenodd" d="M71.2428 27.2584C73.9492 36.0008 75.1056 44.8556 76.3429 53.7047L75.7275 53.7473C74.2325 44.9172 72.7375 36.0872 71.2428 27.2584Z" fill="#F1A5C3"/>
<path fill-rule="evenodd" clip-rule="evenodd" d="M76.9989 56.7494C78.6018 63.136 80.205 69.5238 81.8078 75.9104C78.8572 69.8007 77.7357 63.2806 76.9989 56.7494Z" fill="#F1A5C3"/>
</svg>
