<svg width="75" height="77" viewBox="0 0 75 77" fill="none" xmlns="http://www.w3.org/2000/svg">
<path d="M58.4943 3.12546C-0.283817 61.9028 10.4593 51.1599 9.12801 52.491C9.03279 52.5862 8.95976 52.7027 8.91508 52.8297C0.277449 77.386 3.25728 68.9147 2.61249 70.7476C2.35742 71.4639 3.05889 72.1539 3.76381 71.8989C7.46055 70.6006 -5.28813 75.0781 21.6863 65.6045C21.8145 65.5598 21.9308 65.4858 22.0262 65.3905C28.9598 58.4569 59.357 28.0593 71.3925 16.0237C74.93 12.4861 74.957 6.68999 71.3925 3.12531C67.8359 -0.431119 62.0508 -0.431119 58.4943 3.12546ZM11.3666 67.3128L7.28046 62.9228L9.68913 56.0738L18.4433 64.8281L11.3666 67.3128ZM6.60403 64.8464L9.50723 67.9657L4.94347 69.5681L6.60403 64.8464ZM20.8948 63.9675L20.3338 64.1639L10.3536 54.1835L10.5512 53.6237L55.4917 8.68137L65.8353 19.0263L20.8948 63.9675ZM70.1152 14.7465L67.1126 17.7492L56.7689 7.40422L59.7716 4.40276C62.6236 1.55066 67.2633 1.55306 70.1152 4.40276C72.9673 7.25471 72.9673 11.8944 70.1152 14.7465ZM37.0201 76.9387H1.23534C0.736749 76.9387 0.332031 76.5341 0.332031 76.0354C0.332031 75.5367 0.736599 75.1321 1.23534 75.1321H37.0201C37.5188 75.1321 37.9234 75.5367 37.9234 76.0354C37.9234 76.5341 37.5188 76.9387 37.0201 76.9387Z" fill="white"/>
</svg>
