<svg width="73" height="69" viewBox="0 0 73 69" fill="none" xmlns="http://www.w3.org/2000/svg">
<path d="M67.5116 0.968506H5.48441C2.62814 0.968506 0.304688 3.29139 0.304688 6.14766V53.1542C0.304688 56.0105 2.628 58.3345 5.48441 58.3345H27.1757V65.7691H22.5835C21.9589 65.7691 21.4524 66.275 21.4524 66.9002C21.4524 67.5254 21.9589 68.0313 22.5835 68.0313H50.4122C51.0368 68.0313 51.5433 67.5254 51.5433 66.9002C51.5433 66.275 51.0368 65.7691 50.4122 65.7691H45.82V58.3345H67.5116C70.3679 58.3345 72.6913 56.0107 72.6913 53.1542C72.6913 43.7311 72.6913 22.4412 72.6913 6.14766C72.6913 3.29139 70.3679 0.968506 67.5116 0.968506ZM5.48441 3.23065H67.5116C69.1203 3.23065 70.4292 4.53952 70.4292 6.14766V44.3622H2.56683V6.14766C2.56683 4.53952 3.8757 3.23065 5.48441 3.23065ZM43.5582 65.7691H29.4378V58.3345H43.5582V65.7691ZM70.4292 53.1542C70.4292 54.7635 69.1203 56.0724 67.5116 56.0724C54.3893 56.0724 18.7831 56.0724 5.48441 56.0724C3.8757 56.0724 2.56683 54.7635 2.56683 53.1542V46.6243H70.4292V53.1542ZM29.5964 51.7471V50.9497C29.5964 50.3245 30.1028 49.8186 30.7274 49.8186C31.3521 49.8186 31.8585 50.3245 31.8585 50.9497V51.7471C31.8585 52.3723 31.3521 52.8782 30.7274 52.8782C30.1028 52.8782 29.5964 52.3723 29.5964 51.7471ZM35.3669 51.7471V50.9497C35.3669 50.3245 35.8734 49.8186 36.498 49.8186C37.1226 49.8186 37.6291 50.3245 37.6291 50.9497V51.7471C37.6291 52.3723 37.1226 52.8782 36.498 52.8782C35.8734 52.8782 35.3669 52.3723 35.3669 51.7471ZM41.1376 51.7471V50.9497C41.1376 50.3245 41.6441 49.8186 42.2687 49.8186C42.8933 49.8186 43.3998 50.3245 43.3998 50.9497V51.7471C43.3998 52.3723 42.8933 52.8782 42.2687 52.8782C41.6441 52.8782 41.1376 52.3723 41.1376 51.7471ZM30.8307 37.1342C34.8837 37.1342 38.4904 35.2779 40.9149 32.3951C42.3195 33.1843 43.9359 33.6394 45.6584 33.6394C51.0186 33.6394 55.3799 29.2777 55.3799 23.9173C55.3799 18.5537 51.0187 14.1908 45.6584 14.1908C43.94 14.1908 42.3272 14.6433 40.9251 15.4292C38.4999 12.5447 34.8836 10.696 30.8305 10.696C23.5439 10.696 17.616 16.6284 17.616 23.9195C17.6161 31.2062 23.5441 37.1342 30.8307 37.1342ZM53.1179 23.9173C53.1179 28.0305 49.7717 31.3773 45.6585 31.3773C41.9304 31.3773 38.8413 28.6242 38.2943 25.0461H45.6585C46.2831 25.0461 46.7896 24.5402 46.7896 23.915C46.7896 23.2898 46.2831 22.784 45.6585 22.784H38.2949C38.8434 19.2057 41.9317 16.4528 45.6585 16.4528C49.7717 16.4529 53.1179 19.8019 53.1179 23.9173ZM30.8307 12.9582C34.1335 12.9582 37.0945 14.4333 39.1038 16.7553C37.426 18.2939 36.2866 20.4062 36.0091 22.7841H30.8305C30.2059 22.7841 29.6994 23.29 29.6994 23.9152C29.6994 24.5404 30.2059 25.0462 30.8305 25.0462H36.0084C36.2843 27.4179 37.4189 29.5259 39.0901 31.0635C37.0811 33.3848 34.1342 34.8722 30.8305 34.8722C24.7915 34.8722 19.878 29.9592 19.878 23.9196C19.8781 17.8756 24.7916 12.9582 30.8307 12.9582Z" fill="white"/>
</svg>
