<svg width="62" height="83" viewBox="0 0 62 83" fill="none" xmlns="http://www.w3.org/2000/svg">
<path d="M60.6962 0.00130781L10.8419 0C5.12834 0 0.480469 4.64785 0.480469 10.3608C0.480469 16.075 5.12834 20.7228 10.8419 20.7228H27.5255C31.8086 20.7228 35.2932 24.208 35.2932 28.4911V31.1956L21.5142 49.809C21.252 50.1636 21.1874 50.6271 21.3432 51.0387L27.0432 66.1093C24.9517 66.1431 23.2593 67.849 23.2593 69.949V73.7952C23.2593 75.6695 24.6074 77.2296 26.3836 77.5686V81.699C26.3836 82.4159 26.9642 82.9959 27.6805 82.9959L45.4987 82.9972C45.8425 82.9972 46.1724 82.8604 46.4156 82.6173C46.6589 82.3742 46.7956 82.0448 46.7956 81.7003V77.5702C48.5719 77.2312 49.9198 75.6713 49.9198 73.7968V69.9507C49.9198 67.8505 48.2275 66.1444 46.1356 66.1107L51.8366 51.0403C51.9924 50.6287 51.9278 50.1639 51.6656 49.8107L37.8866 31.206V28.4915C37.8866 22.7773 33.2387 18.1294 27.5251 18.1294H10.8419C6.55878 18.1294 3.07423 14.6442 3.07423 10.3611C3.07423 6.07795 6.55878 2.59407 10.8419 2.59407L60.6962 2.59538C61.4124 2.59538 61.9931 2.01536 61.9931 1.29851C61.9931 0.581655 61.4124 0.00130781 60.6962 0.00130781ZM44.202 80.4038L28.9773 80.4025V77.6418C29.1266 77.6418 41.1593 77.6427 44.202 77.643V80.4038ZM47.3264 69.9507V73.7968C47.3264 74.487 46.7647 75.0494 46.0745 75.0494C45.824 75.0494 26.1622 75.0481 27.105 75.0481C26.4148 75.0481 25.8531 74.4857 25.8531 73.7955V69.9494C25.8531 69.2592 26.4148 68.6968 27.105 68.6968C38.1717 68.6976 24.987 68.6966 46.0745 68.6981C46.7647 68.6981 47.3264 69.2605 47.3264 69.9507ZM49.1601 50.7843L43.365 66.1044L29.8142 66.1034L24.02 50.783L35.2933 35.5544V53.3488C35.2933 54.0657 35.874 54.6457 36.5902 54.6457C37.3064 54.6457 37.8871 54.0657 37.8871 53.3488V35.5637L49.1601 50.7843Z" fill="white"/>
</svg>
