<svg width="74" height="85" viewBox="0 0 74 85" fill="none" xmlns="http://www.w3.org/2000/svg">
<path d="M31.5935 45.6042V63.8351C31.5935 75.4173 41.0161 84.84 52.5981 84.84C64.1808 84.84 73.6034 75.4173 73.6034 63.8351V45.6042C73.6034 34.4679 64.8877 25.3542 53.923 24.6651V18.2326C53.923 8.20699 45.7663 0.0495605 35.7402 0.0495605C25.714 0.0495605 17.5574 8.20682 17.5574 18.2326V41.6103C17.5574 50.5608 10.2753 57.8436 1.32487 57.8436C0.593212 57.8436 0 58.4362 0 59.1685C0 59.9009 0.593212 60.4934 1.32487 60.4934C11.7366 60.4934 20.2069 52.0229 20.2069 41.6105V18.2326C20.2069 9.66766 27.1753 2.69917 35.7402 2.69917C44.305 2.69917 51.2734 9.66766 51.2734 18.2326V24.6651C40.3093 25.3542 31.5935 34.4679 31.5935 45.6042ZM70.9536 45.6042V63.8351C70.9536 73.9566 62.7193 82.1903 52.5981 82.1903C42.4774 82.1903 34.2433 73.9566 34.2433 63.8351V45.6042C34.2433 35.4827 42.4776 27.2478 52.5981 27.2478C62.7195 27.2478 70.9536 35.4827 70.9536 45.6042ZM52.5981 35.2744C53.3298 35.2744 53.923 35.867 53.923 36.5993V45.8694C53.923 46.6017 53.3298 47.1943 52.5981 47.1943C51.8665 47.1943 51.2732 46.6017 51.2732 45.8694V36.5993C51.2732 35.867 51.8665 35.2744 52.5981 35.2744Z" fill="white"/>
</svg>
