<svg width="95" height="120" viewBox="0 0 95 120" fill="none" xmlns="http://www.w3.org/2000/svg">
<path d="M93.8435 98.8051C91.6472 101.363 88.7188 99.5359 86.5225 98.4396C80.6657 95.5162 75.1749 92.5928 69.6841 89.304C63.0952 85.6497 56.8723 81.2646 49.5513 77.9758C46.9889 85.2843 45.5248 92.2274 48.4532 99.5359C48.8192 100.632 50.6495 102.094 48.8193 103.19C47.3551 104.286 46.2569 102.825 45.1588 101.729C44.7927 101.363 44.0606 100.998 43.3285 100.267C41.4982 106.844 41.4982 113.422 38.9358 120C36.7395 117.076 37.8378 115.249 38.2038 113.057C40.4001 101.363 41.1322 89.6694 40.7661 77.6103C40.7661 71.3981 36.0074 68.1093 29.7846 69.9364C24.2938 71.7635 18.803 73.2252 13.3123 73.9561C10.7499 74.3215 8.18754 73.9561 5.62518 72.8598C1.23257 71.0326 0.866562 66.6475 4.52707 63.7241C6.35733 62.2624 8.55359 61.5316 11.1159 61.1661C16.2407 60.4353 20.9993 60.8007 26.1241 61.897C27.5883 62.2624 29.4186 62.9933 30.8828 63.3587C37.4717 65.1858 40.4001 62.6279 40.0341 56.0502C39.302 43.9911 37.8377 31.932 36.0075 19.8729C35.2754 14.7569 34.5433 9.64099 33.8112 4.52502C33.8112 3.42874 33.8111 1.96704 35.2753 1.96704C36.3735 1.96704 37.1056 2.33245 37.4717 3.42873C38.2038 5.25586 39.302 6.7176 40.0341 8.54473C43.6946 17.6804 47.7211 26.4506 52.4798 34.8554C53.5779 37.048 54.31 39.2405 56.8723 41.0677C59.4347 37.7788 60.5328 33.7592 62.3631 30.4703C65.2915 24.6235 68.586 18.7767 72.6126 13.6607C75.1749 10.3718 78.8354 7.81385 82.862 6.35215C87.9867 4.89044 92.3793 7.08299 93.4774 12.5644C94.2095 16.2187 93.4774 19.5075 92.0132 22.7963C89.0848 29.374 85.0583 34.49 79.5675 39.2405C75.1749 42.8948 70.4163 46.9145 65.6576 50.2033C63.0953 52.0305 62.7292 53.4922 64.5594 56.0502C69.3181 62.6279 73.7107 69.2056 78.8354 75.4178C83.594 80.8992 87.9867 86.3806 92.3793 91.862C93.8435 94.0546 96.4059 96.2471 93.8435 98.8051ZM26.8562 67.013C20.6333 64.0896 15.5086 64.0895 10.3839 64.8204C8.55366 64.8204 7.08947 65.5513 7.08947 67.7438C7.08947 69.9364 8.91973 70.3018 10.75 70.3018C15.8747 70.6672 20.6333 69.2055 26.8562 67.013ZM52.8459 45.0874C48.4532 35.9517 43.6945 27.1815 38.9358 18.0458C38.5698 18.0458 38.5699 18.4112 38.2038 18.4112C39.668 31.932 41.1322 45.0874 42.5964 58.6082C45.5248 58.6082 47.3551 57.5119 49.1853 56.0502C52.8459 54.223 54.6761 48.3762 52.8459 45.0874ZM48.4532 61.5316C42.9624 64.0896 42.9624 64.0896 44.4266 69.9364C47.7211 67.7438 48.0871 64.8204 48.4532 61.5316ZM86.5225 92.5928C77.7373 80.8992 68.2199 69.9364 60.5328 57.5119C59.0686 55.3193 56.8724 55.3193 55.7742 57.8773C54.31 61.5316 53.2118 65.5512 51.7476 69.2055C50.6495 71.7635 51.3816 73.5906 53.944 75.0524C64.5594 80.8992 74.8088 87.8423 86.5225 92.5928ZM59.4347 47.6454C61.631 48.3762 62.3631 48.0108 63.0952 47.6454C69.6842 42.8948 75.907 37.7788 81.3978 31.932C84.6922 28.6432 86.8885 24.6235 87.9867 20.2384C88.7188 18.0458 89.0848 15.4878 88.3527 13.2953C87.6206 9.64102 85.4244 8.5447 82.1299 10.7373C79.5676 12.199 77.3712 14.0261 75.907 16.2187C68.9521 25.7197 64.1934 36.3171 59.4347 47.6454Z" fill="#FDF9FA"/>
<path d="M91.8767 96.838C89.6804 99.396 86.752 97.5689 84.5557 96.4726C78.6989 93.5492 73.2081 90.6258 67.7173 87.3369C61.1284 83.6827 54.9055 79.2976 47.5845 76.0087C45.0222 83.3173 43.558 90.2604 46.4864 97.5689C46.8525 98.6652 48.6827 100.127 46.8525 101.223C45.3883 102.319 44.2901 100.858 43.192 99.7615C42.8259 99.396 42.0938 99.0306 41.3617 98.2997C39.5315 104.877 39.5314 111.455 36.9691 118.033C34.7727 115.109 35.871 113.282 36.237 111.09C38.4333 99.396 39.1654 87.7024 38.7993 75.6433C38.7993 69.431 34.0406 66.1422 27.8178 67.9694C22.327 69.7965 16.8362 71.2582 11.3455 71.989C8.78312 72.3544 6.22074 71.989 3.65838 70.8927C-0.734229 69.0656 -1.10024 64.6805 2.56028 61.7571C4.39053 60.2954 6.58679 59.5645 9.14915 59.1991C14.2739 58.4682 19.0325 58.8337 24.1573 59.9299C25.6215 60.2954 27.4518 61.0262 28.916 61.3917C35.5049 63.2188 38.4333 60.6608 38.0673 54.0831C37.3352 42.0241 35.8709 29.965 34.0407 17.9059C33.3086 12.7899 32.5765 7.67395 31.8444 2.55797C31.8444 1.4617 31.8443 0 33.3085 0C34.4067 0 35.1388 0.365404 35.5049 1.46168C36.237 3.28882 37.3352 4.75056 38.0673 6.57769C41.7278 15.7134 45.7543 24.4836 50.513 32.8884C51.6111 35.081 52.3432 37.2735 54.9055 39.1006C57.4679 35.8118 58.566 31.7921 60.3963 28.5033C63.3247 22.6565 66.6192 16.8096 70.6458 11.6936C73.2081 8.4048 76.8686 5.84681 80.8952 4.38511C86.0199 2.9234 90.4125 5.11595 91.5106 10.5973C92.2427 14.2516 91.5107 17.5405 90.0464 20.8293C87.118 27.407 83.0915 32.523 77.6007 37.2735C73.2081 40.9278 68.4495 44.9475 63.6908 48.2363C61.1285 50.0634 60.7624 51.5252 62.5926 54.0831C67.3513 60.6608 71.7439 67.2385 76.8686 73.4508C81.6273 78.9322 86.0199 84.4136 90.4125 89.895C91.8767 92.0875 94.4391 94.2801 91.8767 96.838ZM24.8894 65.0459C18.6665 62.1225 13.5418 62.1225 8.41711 62.8534C6.58686 62.8534 5.12268 63.5842 5.12268 65.7768C5.12268 67.9693 6.95293 68.3348 8.78319 68.3348C13.9079 68.7002 18.6665 67.2385 24.8894 65.0459ZM50.8791 43.1203C46.4864 33.9847 41.7277 25.2144 36.9691 16.0787C36.603 16.0787 36.6031 16.4442 36.237 16.4442C37.7012 29.965 39.1654 43.1203 40.6296 56.6411C43.558 56.6411 45.3883 55.5448 47.2185 54.0831C50.8791 52.256 52.7093 46.4092 50.8791 43.1203ZM46.4864 59.5645C40.9956 62.1225 40.9956 62.1225 42.4598 67.9694C45.7543 65.7768 46.1203 62.8534 46.4864 59.5645ZM84.5557 90.6258C75.7705 78.9321 66.2531 67.9693 58.566 55.5448C57.1018 53.3523 54.9056 53.3523 53.8074 55.9103C52.3432 59.5645 51.245 63.5842 49.7808 67.2385C48.6827 69.7965 49.4148 71.6236 51.9772 73.0853C62.5926 78.9321 72.8421 85.8753 84.5557 90.6258ZM57.4679 45.6783C59.6642 46.4092 60.3963 46.0437 61.1284 45.6783C67.7174 40.9278 73.9402 35.8118 79.431 29.965C82.7255 26.6761 84.9217 22.6564 86.0199 18.2713C86.752 16.0788 87.118 13.5208 86.3859 11.3282C85.6538 7.67398 83.4576 6.57766 80.1631 8.77022C77.6008 10.2319 75.4044 12.0591 73.9402 14.2516C66.9853 23.7527 62.2266 34.3501 57.4679 45.6783Z" fill="#F1A5C3"/>
</svg>
