<?xml version="1.0" encoding="utf-8"?>
<!-- Generator: Adobe Illustrator 28.0.0, SVG Export Plug-In . SVG Version: 6.00 Build 0)  -->
<svg version="1.1" id="Слой_1" xmlns="http://www.w3.org/2000/svg" xmlns:xlink="http://www.w3.org/1999/xlink" x="0px" y="0px"
	 viewBox="0 0 117.5 121.6" style="enable-background:new 0 0 117.5 121.6;" xml:space="preserve">
<style type="text/css">
	.st0{fill:#FDF9FA;}
	.st1{fill:#F1A5C3;}
	.st2{fill:#F1A4C2;}
</style>
<path class="st0" d="M8.5,95c1.9-1.4,3.4-2.5,5-3.6c6.2-4.4,11.9-9.4,15.8-16c0.5-0.9,1.1-2.8,2.5-2.4c1.6,0.6,0.8,2.4,0.4,3.7
	c-1,5.2-1.5,10.5-0.5,16c0.7,4,0.9,4.1,5.1,4.9c0.7,0,1.5,0.2,2,1.3c-7.7,1.5-13.6,5.7-18.7,10.9c-1.2,1.1-2.2,2.3-3.3,3.5
	c-0.7,0.7-1.4,1.5-2.6,1c-1-0.4-1.2-1.4-1.3-2.5c0-3.1-0.4-6.2-1.2-9.2C11.1,99.9,10.5,97.2,8.5,95z M11.5,96.9
	c1.3,2.5,2,5.3,2.5,8.1c0.3,1.6,0.8,3.3,1.1,5.5c5-5.2,10.3-9.6,16.5-12.3c-2.9-5.9-2.9-11.8-2.8-18c-4.9,5.7-10.7,10.1-16.8,14
	C11.1,94.9,10.8,95.6,11.5,96.9z"/>
<path class="st1" d="M8.2,93.7c1.9-1.4,3.4-2.5,5-3.6c6.2-4.4,11.9-9.4,15.8-16c0.5-0.9,1.1-2.8,2.5-2.4c1.6,0.6,0.8,2.4,0.4,3.7
	c-1,5.2-1.5,10.5-0.5,16c0.7,4,0.9,4.1,5.1,4.9c0.7,0,1.5,0.2,2,1.3c-7.7,1.5-13.6,5.7-18.7,10.9c-1.2,1.1-2.2,2.3-3.3,3.5
	c-0.7,0.7-1.4,1.5-2.6,1c-1-0.4-1.2-1.4-1.3-2.5c0-3.1-0.4-6.2-1.2-9.2C10.7,98.6,10.1,95.9,8.2,93.7z M11.2,95.6
	c1.3,2.5,2,5.3,2.5,8.1c0.3,1.6,0.8,3.3,1.1,5.5c5-5.2,10.3-9.6,16.5-12.3c-2.9-5.9-2.9-11.8-2.8-18C23.7,84.6,17.9,89,11.9,93
	C10.8,93.6,10.5,94.3,11.2,95.6z"/>
<g>
	<path class="st0" d="M51,78.3c1.7-4.6,3.1-8.2,4.6-11.7c5.8-14.3,10.2-29.3,9.5-45c-0.1-2.2-1.2-6,1.6-6.8c3.5-0.8,4,3.4,4.7,5.9
		c4,10.1,8.9,19.8,16.7,28.1c5.7,6.2,6.1,6.1,14.2,2.9c1.3-0.7,2.8-1.4,4.8,0.1C95.4,62.8,90,76.5,86.8,91.1
		c-0.8,3.2-1.3,6.4-1.8,9.7c-0.6,2-0.8,4.2-3.3,4.6c-2.2,0.4-3.6-1.1-4.9-3c-3.4-5.3-7.5-10.2-12.2-14.5C60.9,84,56.8,80,51,78.3z
		 M58.3,78.3c4.9,3,9.3,7,13.3,11.2c2.4,2.4,5,4.9,8.1,8.3c2.8-14.5,7-27.9,14.9-39.4c-11.5-6.9-18.1-17.1-24.7-28.1
		c-2.2,15.2-7.3,29.2-13.4,42.7C55.3,75.2,55.7,76.8,58.3,78.3z"/>
	<path class="st2" d="M49,76.5c1.7-4.6,3.1-8.2,4.6-11.7c5.8-14.3,10.2-29.3,9.5-45c-0.1-2.2-1.2-6,1.6-6.8c3.5-0.8,4,3.4,4.8,5.8
		c4,10.1,8.9,19.8,16.7,28.1c5.7,6.2,6.1,6.1,14.2,2.9c1.3-0.7,2.8-1.4,4.8,0.1C93.5,61,88.1,74.7,84.8,89.3
		C84,92.5,83.5,95.7,83,99c-0.6,2-0.8,4.2-3.3,4.6c-2.2,0.4-3.6-1.1-4.9-3c-3.4-5.3-7.5-10.2-12.2-14.5C58.9,82.1,54.8,78.1,49,76.5
		z M56.3,76.4c4.9,3,9.3,7,13.3,11.2c2.4,2.4,5,4.9,8.1,8.3c2.8-14.5,7-27.9,14.9-39.4c-11.5-6.9-18.1-17.1-24.7-28.1
		c-2.2,15.2-7.3,29.2-13.4,42.7C53.4,73.4,53.7,75,56.3,76.4z"/>
</g>
</svg>
