<svg width="19" height="29" viewBox="0 0 19 29" fill="none" xmlns="http://www.w3.org/2000/svg">
<path d="M0.913086 19.847C1.49582 18.4873 1.98144 17.419 2.46705 16.3506C4.40949 12.0772 5.96344 7.60962 5.96344 2.85063C5.96344 2.17078 5.67208 1.0053 6.54618 0.811058C7.61452 0.616813 7.71164 1.8794 7.90588 2.65637C8.97423 5.76429 10.3339 8.77508 12.5678 11.3974C14.2188 13.3398 14.3159 13.3398 16.8411 12.4657C17.2296 12.2715 17.7152 12.0772 18.298 12.5629C14.6073 15.7679 12.762 19.847 11.5965 24.2175C11.3052 25.1887 11.1109 26.16 10.9167 27.1312C10.7224 27.7139 10.6253 28.3938 9.84833 28.4909C9.16847 28.588 8.77998 28.1024 8.39149 27.5197C7.42027 25.8686 6.25481 24.3146 4.8951 22.9549C3.82676 21.6923 2.66129 20.4298 0.913086 19.847ZM3.1469 19.9441C4.60373 20.9154 5.86632 22.1779 7.03179 23.5377C7.71165 24.3146 8.48862 25.0916 9.36272 26.16C10.4311 21.7895 11.8879 17.8074 14.4131 14.4082C11.0138 12.1744 9.16848 8.96932 7.32316 5.57004C6.44906 10.1348 4.70086 14.311 2.66129 18.2931C2.2728 18.9729 2.36992 19.4585 3.1469 19.9441Z" fill="#FDF9FA"/>
<path d="M0.335937 19.2708C0.918671 17.9111 1.40429 16.8428 1.8899 15.7744C3.83234 11.5011 5.38629 7.03345 5.38629 2.27446C5.38629 1.5946 5.09493 0.42913 5.96903 0.234886C7.03737 0.0406415 7.13449 1.30322 7.32873 2.0802C8.39708 5.18811 9.75679 8.1989 11.9906 10.8212C13.6417 12.7636 13.7388 12.7637 16.264 11.8896C16.6525 11.6953 17.1381 11.5011 17.7208 11.9867C14.0302 15.1917 12.1848 19.2709 11.0194 23.6414C10.728 24.6126 10.5338 25.5838 10.3395 26.555C10.1453 27.1378 10.0482 27.8176 9.27118 27.9147C8.59132 28.0118 8.20283 27.5262 7.81435 26.9435C6.84312 25.2924 5.67767 23.7385 4.31795 22.3788C3.24961 21.1162 2.08414 19.8536 0.335937 19.2708ZM2.56975 19.368C4.02659 20.3392 5.28917 21.6018 6.45464 22.9615C7.1345 23.7385 7.91147 24.5154 8.78557 25.5838C9.85391 21.2133 11.3107 17.2313 13.8359 13.832C10.4366 11.5982 8.59133 8.39315 6.74601 4.99387C5.87191 9.55861 4.12371 13.7349 2.08414 17.7169C1.69565 18.3967 1.79277 18.8824 2.56975 19.368Z" fill="#F1A5C3"/>
</svg>
