<svg width="420" height="35" viewBox="0 0 420 35" fill="none" xmlns="http://www.w3.org/2000/svg">
<path fill-rule="evenodd" clip-rule="evenodd" d="M49.0041 22.0723C45.5726 22.23 42.3287 22.4854 39.1359 22.9077C36.8332 23.2131 34.1393 23.3714 31.3288 23.4221C28.2444 23.4771 25.2297 23.8619 22.0258 23.9225C20.047 23.9596 17.7913 24.4259 16.4768 23.6162C15.1386 23.6221 13.8005 23.6279 12.1181 23.6355C11.8514 23.2609 11.5782 22.8986 11.3476 22.5353C11.2985 22.458 11.4531 22.3063 11.4165 22.3042C8.44383 22.124 8.69215 21.093 5.91672 20.8276C4.40744 20.6834 3.11794 19.9639 3.89535 19.6792C5.46616 19.1038 4.46535 18.6103 3.89212 18.0538C4.95183 17.2063 7.17151 16.6048 9.90699 16.087C12.6072 15.5755 14.9836 14.9339 17.7578 14.4574C23.3866 13.4898 29.1718 12.589 34.9198 11.6723C40.852 10.7262 46.9153 9.85129 53.1206 9.03611C58.7851 8.29142 64.381 7.50708 70.0444 6.75894C73.4949 6.30305 76.9187 5.83118 80.3409 5.35909C80.4879 5.33894 80.486 5.24328 80.7007 5.04885C79.2982 5.11764 77.9688 5.29526 76.994 5.20245C75.7118 5.08109 74.7646 4.92434 73.8278 5.29977C72.1768 4.824 70.1659 5.62441 68.5021 5.19117C67.2778 5.44174 65.6153 5.48782 64.415 5.42669C63.0044 5.3556 61.9678 5.20167 60.7351 5.54091C60.3873 5.63692 58.9425 5.61893 58.6004 5.51294C57.105 5.04898 55.8175 5.70803 54.5426 5.53073C53.0009 5.316 51.8342 5.37217 50.8883 5.76109C48.7268 5.57733 46.6887 5.86995 44.5673 5.88777C42.7397 5.90256 40.6487 5.91442 39.2018 6.15599C38.2746 6.31136 37.7349 6.33705 36.8392 6.29475C33.9154 6.15784 31.14 6.48506 28.2252 6.49967C25.2864 6.51406 22.3668 6.76042 19.4299 6.8946C15.7388 7.06364 12.0428 7.22704 8.34347 7.38502C6.12291 7.47988 4.72813 7.06793 3.77109 6.66853C3.04515 6.36546 2.95088 6.01451 1.11762 6.0663C0.87382 6.07282 0.482677 5.71131 0 5.42411C1.06326 5.39282 1.98883 5.36604 2.9184 5.3393C2.90956 5.27222 2.90315 5.20495 2.89273 5.13765C2.09748 5.1062 1.30381 5.07499 0.393718 5.0388C0.469375 4.96325 0.447651 4.80493 0.728236 4.73801C1.40104 4.5783 2.15004 4.40616 2.98259 4.33671C7.64801 3.94683 12.2906 3.52291 17.0429 3.22907C25.0406 2.73439 33.0872 2.28304 41.1704 1.90118C46.7002 1.63947 52.2655 1.41257 57.8145 1.18767C62.8081 0.985076 67.8948 0.83722 72.9112 0.668666C79.3442 0.452564 85.7749 0.296972 92.2249 0.171076C96.3253 0.0909997 100.436 0.0551818 104.543 0.00188239C107.26 -0.0329179 109.279 0.422631 111.524 0.720061C112.602 1.1667 112.572 1.70626 114.472 2.12472C116.635 2.60188 117.555 5.01056 116.443 5.7835C115.619 6.35581 113.5 6.70734 111.85 7.13246C108.962 7.87738 105.778 8.49349 102.013 8.88026C101.607 8.9223 101.014 9.00974 100.962 9.09542C100.544 9.80707 97.4892 9.62692 96.3886 10.0952C93.4022 10.1179 91.0748 10.5995 88.5011 10.9108C88.0604 10.9641 87.3023 10.9485 87.1393 11.0299C85.0156 12.0972 80.6461 12.2306 77.2594 12.7676C76.2031 12.9353 74.9923 13.0404 74.0175 13.2343C73.3458 13.3673 72.9613 13.6032 72.4497 13.7931C73.0253 13.9037 73.3222 14.0058 73.5266 13.9935C77.8781 13.7353 82.181 13.3954 86.5715 13.2125C92.2889 12.975 97.8219 12.4934 103.658 12.3977C106.447 12.3515 109.127 12.0262 112.005 11.9257C117.312 11.7409 122.491 11.2618 127.802 11.1199C136.928 10.877 145.745 10.09 154.975 10.0751C158.42 9.55644 162.46 9.77285 166.065 9.43108C167.036 9.3386 168.189 9.39067 169.25 9.35784C170.791 9.3104 172.328 9.25473 173.857 9.18757C180.02 8.91764 186.176 8.63688 192.34 8.3704C194.942 8.25847 197.575 8.19444 200.169 8.06972C207.491 7.71793 214.886 7.52042 222.253 7.26232C226.086 7.12822 229.823 6.8239 233.75 6.9548C237.807 6.3991 242.329 6.52767 246.631 6.34007C251.833 6.1136 257.066 5.93956 262.291 5.75165C269.04 5.50881 275.79 5.27116 282.543 5.03892C286.83 4.89189 291.123 4.75332 295.418 4.62058C300.625 4.45965 305.848 4.34712 311.051 4.15814C318.96 3.87136 326.937 3.71965 334.889 3.52138C344.816 3.27353 354.743 3.02287 364.679 2.79988C370.154 2.67702 375.644 2.59697 381.13 2.51687C387.665 2.42151 394.203 2.31239 400.746 2.27354C405.462 2.24583 410.173 2.29173 414.89 2.14404C416.042 2.1082 417.368 2.47663 419.111 2.73182C418.262 2.85648 417.766 2.97134 417.203 3.00457C415.508 3.10505 413.783 3.1738 411.758 3.26987C414.04 4.10017 418.295 3.27513 420 4.05817C418.777 4.15494 417.458 4.25899 416.139 4.36304C416.162 4.45459 416.183 4.54591 416.205 4.63746C417.256 4.69976 418.306 4.76183 419.701 4.84441C419.045 5.29876 418.404 5.74269 417.52 6.35278C415.984 6.42505 413.571 6.72425 411.588 6.58419C409.183 6.41406 407.095 7.02007 404.777 6.60521C404.174 6.49717 403.399 7.15224 402.116 6.77862C400.742 6.37743 400.23 7.25406 398.953 6.91755C397.762 6.60339 396.653 7.09395 396.312 7.03967C394.155 6.6987 392.379 7.19134 390.391 7.16239C388.272 7.13176 386.097 7.18182 384.001 7.27959C382.131 7.36657 380.385 7.41466 378.545 7.23632C377.896 7.17309 376.614 7.19864 376.34 7.31044C375.427 7.68437 374.645 7.49321 373.557 7.41398C372.775 7.35702 371.699 7.61072 370.875 7.56629C369.916 7.51413 369.105 7.31537 368.615 7.70796C365.596 7.32307 362.65 8.31322 359.587 7.74481C359.289 7.68964 358.597 7.70679 358.254 7.763C354.248 8.42042 349.681 8.22164 345.358 8.38814C339.06 8.63051 332.763 8.87699 326.461 9.1079C321.405 9.2931 316.35 9.4867 311.271 9.62042C308.573 9.69137 305.838 10.1265 303.092 9.63838C302.903 9.60471 302.394 9.63328 302.194 9.68137C298.199 10.6446 293.19 9.84124 288.867 10.2346C288.143 10.3007 287.236 10.2497 286.583 10.3405C280.763 11.1507 274.186 10.952 268.053 11.3584C263.551 11.6565 258.845 11.7302 254.245 11.9269C248.536 12.1705 242.844 12.4425 237.14 12.6907C236.565 12.7157 235.941 12.6692 235.347 12.6438C230.497 12.4348 225.88 12.8921 221.14 13.0079C220.096 13.0338 218.904 13.1598 218.131 13.3448C216.369 13.7667 214.024 13.7643 212.378 13.632C210.626 13.49 209.315 13.5739 207.786 13.6619C204.775 13.8353 201.593 13.8469 198.965 14.3634C193.981 14.4431 189.107 14.7672 184.246 15.0096C180.243 15.2097 176.01 15.1985 172.153 15.6919C169.62 16.0152 166.668 15.9443 163.966 15.8388C162.839 15.795 161.833 15.7178 160.793 15.8413C159.67 15.9741 158.626 16.2424 157.498 16.2625C156.261 16.2841 155.359 16.4059 154.271 16.5186C151.215 16.8354 148.003 17.1042 144.729 16.6519C144.468 16.6158 144.127 16.5895 143.848 16.6013C141.839 16.6876 139.779 16.7332 137.85 16.8937C135.606 17.0795 133.065 17.0873 131.259 17.5882C131.063 17.6428 130.655 17.6478 130.337 17.6655C127.71 17.811 125.087 17.9654 122.449 18.094C119.807 18.2225 117.391 18.5288 114.576 18.5784C112.002 18.6232 109.353 18.7825 106.716 18.8592C105.204 18.8817 103.238 18.7502 102.265 18.9564C99.3198 19.5806 95.3251 19.026 92.5683 19.6881C89.2038 19.4577 86.2832 20.0607 83.0356 20.0573C82.1297 20.0563 81.0101 19.9796 80.3555 20.0921C76.8264 20.7004 72.363 20.4 68.8497 20.9854C65.9951 20.7671 63.6292 21.1329 61.0596 21.3767C59.1289 21.5601 56.8571 21.483 54.7385 21.5215C53.3947 22.1329 50.825 21.8214 49.0041 22.0723Z" fill="#F1A5C3"/>
<path fill-rule="evenodd" clip-rule="evenodd" d="M412.39 19.0513C413.93 19.171 415.471 19.2907 417.724 19.4655C416.476 19.5881 416.054 19.6299 415.496 19.6848C415.918 19.8068 416.315 19.9219 416.728 20.0411C416.338 20.4581 415.957 20.9599 413.994 20.9247C412.99 20.9066 412.069 20.5497 410.735 20.4548C411.125 20.6018 411.516 20.7489 411.954 20.9133C409.024 21.2283 406.472 20.9765 404.091 20.4964C403.467 20.7416 403.029 20.9133 402.412 21.1552C401.422 20.4554 398.928 20.7766 396.942 20.4328C396.911 20.7386 396.89 20.935 396.871 21.1318C395.962 21.1512 394.886 21.2183 393.852 21.1859C392.374 21.1396 390.342 21.5865 389.506 20.8727C389.466 20.8393 389.061 20.8124 388.853 20.8225C388.374 20.8451 387.897 20.9337 387.448 20.9217C385.801 20.8768 384.087 20.6912 382.551 20.7706C381.19 20.8411 380.098 21.2295 378.756 21.4074C377.978 21.5105 376.934 21.5119 376.029 21.4927C375.065 21.4728 371.427 21.4358 370.529 21.63C369.55 21.8409 369.117 21.63 368.429 21.5918C367.549 21.543 366.616 21.4745 365.757 21.5098C365.105 21.5366 364.535 21.712 363.972 21.8137C363.594 21.5342 363.227 21.2612 362.584 20.7844C361.845 21.2634 360.112 21.0968 359.951 21.6444C359.854 21.9696 356.365 21.9747 355.091 21.5613C354.221 21.2782 353.779 21.5513 353.178 21.5126C352.644 22.3384 350.232 22.0457 348.411 22.0767C347.51 22.0923 344.679 22.1658 344.191 22.2205C343.764 22.267 343.297 22.287 342.888 22.3158C342.693 22.1886 342.576 22.058 342.309 21.9575C342.154 21.8998 341.751 21.8902 341.274 21.8389C341.229 22.0302 341.186 22.2054 341.147 22.3685C340.848 22.429 340.62 22.5156 340.365 22.5205C338.392 22.5589 336.383 22.5323 334.442 22.6189C329.79 22.826 325.174 23.0881 320.537 23.321C314.782 23.6095 309.002 23.8533 303.345 24.2805C300.699 24.4808 298.967 24.6523 297.083 25.2415C295.898 24.7692 294.003 24.5055 293.374 23.8988C292.82 23.3631 290.75 23.6001 289.034 23.5369C290.011 22.6082 292.932 22.8433 294.928 22.6356C294.742 22.4675 294.558 22.2997 294.39 22.1452C293.209 22.1855 292.035 22.2248 290.578 22.2741C290.806 22.047 290.778 21.8747 291.062 21.8224C294.272 21.2294 298.009 21.0128 301.73 20.7966C302.784 20.7359 303.901 20.7497 304.943 20.6803C313.294 20.1233 321.807 19.8664 330.323 19.5659C338.273 19.2858 346.272 19.1849 354.205 18.9016C356.501 18.8199 358.877 19.0818 361.081 18.758C367.613 19.0635 374.034 18.2777 380.592 18.683C380.721 19.1152 379.715 19.0118 378.495 18.9423C377.769 18.9011 377.492 19.1896 376.229 19.1851C370.905 19.1677 365.571 19.3145 360.243 19.4094C359.889 19.4158 359.551 19.4862 358.332 19.6291C359.794 19.6934 360.372 19.6937 360.876 19.745C362.683 19.9317 364.378 19.5559 366.363 19.7429C367.945 19.8917 370.026 19.7489 371.802 19.6389C375.596 19.4038 379.41 19.5806 383.21 19.536C385.777 19.5061 388.3 19.3124 390.958 19.4614C391.99 19.5192 393.278 19.2413 394.449 19.1162C396.386 19.1009 398.328 19.104 400.258 19.0642C402.028 19.0284 403.663 19.2254 405.642 18.996C407.585 18.7706 410.082 19.1772 412.39 19.0513Z" fill="#F1A5C3"/>
<path fill-rule="evenodd" clip-rule="evenodd" d="M170.761 24.0478C172.597 23.9997 174.919 24.1193 176.149 23.8619C177.879 23.5 179.601 23.5744 181.345 23.5091C183.156 23.4414 185.004 23.4537 186.824 23.4055C188.674 23.3566 190.577 23.3359 192.339 23.1975C196.133 22.8999 200.006 22.7722 203.914 22.6871C204.806 22.6669 205.721 22.7258 206.621 22.7138C207.517 22.7014 208.628 22.7242 209.257 22.5953C212.378 21.9558 216.034 22.0815 219.533 22.0417C221.548 22.0187 222.301 22.2923 223.01 22.9875C221.3 23.4664 218.362 23.2376 216.657 23.7757C216.393 23.8587 214.972 23.6787 214.09 23.618C212.739 23.5262 212.363 24.233 210.888 23.9289C209.589 23.6609 209.032 23.9577 208.117 24.0638C207.834 24.0969 207.085 23.8425 206.399 23.6856C205.468 23.8591 204.278 24.0796 203.102 24.2983L201.67 24.0887C200.025 24.2651 198.314 24.6269 197.211 24.5236C195.553 24.3681 194.582 25.0887 193.084 24.637C192.897 24.5812 192.205 24.5994 191.844 24.6419C191.154 24.7235 190.423 24.9673 189.909 24.932C187.899 24.7952 186.173 25.2306 184.38 25.1248C180.961 24.9231 177.7 25.2735 174.347 25.2306C173.675 25.2216 172.671 25.3526 172.339 25.5024C171.297 25.9688 170.168 25.9297 168.342 25.8361C166.954 25.765 164.998 26.0061 163.799 26.2724C162.196 26.6271 160.907 25.8775 159.442 26.305C158.71 26.5191 157.423 26.8246 156.857 26.2133C156.232 26.2628 155.239 26.2637 155.042 26.3698C154.007 26.9353 152.901 26.3962 151.822 26.4153C150.899 26.4738 152.64 26.8771 150.774 26.9148C147.958 26.9713 145.209 27.2762 142.4 27.3172C141.376 27.3323 140.826 27.3521 140.109 27.5251C139.683 27.6277 138.581 27.7142 138.328 27.6509C136.2 27.1185 134.083 27.4483 131.932 27.5901C131.852 27.5954 131.577 27.3879 131.331 27.2427C130.166 27.3956 129.915 28.0699 127.783 27.7496C127.486 27.705 126.799 27.7843 126.412 27.8543C122.727 28.5171 122.741 28.5295 118.512 28.6631C117.748 28.6873 116.753 29.3623 116.122 28.6219C116.114 28.6126 114.9 28.6119 114.646 28.6948C112.491 29.3984 109.227 29.3306 106.427 29.5813C104.302 29.1519 102.454 29.6527 100.473 29.7059C99.1723 29.7408 97.9868 29.6462 97.0637 30.1124C96.4171 30.4393 94.5175 30.3548 93.2445 29.9744C94.338 29.8104 95.411 29.6496 96.7892 29.4429C96.1207 29.362 95.8717 29.3037 95.7087 29.3176C94.8387 29.3915 94.0009 29.3911 93.8923 29.1065C93.8561 29.0097 94.6554 28.7967 95.0724 28.7963C97.7961 28.7954 99.8437 28.3814 102.019 28.0392C103.653 28.324 103.653 28.324 103.541 28.774C103.607 28.8056 103.733 28.8652 103.733 28.8652C105.162 28.6666 107.35 29.1304 108.469 28.3739C107.3 28.3507 106.378 28.4876 104.736 28.5707C105.581 28.3293 105.949 28.149 106.502 28.0836C107.357 27.9825 108.332 27.9405 109.274 27.9089C111.091 27.8477 112.781 27.6515 113.953 27.3138C114.926 27.0342 115.638 26.8735 117.143 26.9425C117.921 26.9781 118.828 26.8116 119.678 26.7365C121.418 27.1413 123.306 26.5351 125.069 26.7938C126.209 26.1695 128.566 26.4357 130.103 26.4446C132.2 26.4567 133.481 26.0083 135.575 26.0402C137.993 26.0777 140.488 25.9036 142.902 25.7619C147.398 25.4969 151.855 25.1856 156.338 24.9045C156.911 24.8683 157.558 24.9197 158.137 24.8866C159.693 24.7986 161.217 24.6648 162.781 24.59C164.038 24.5296 165.407 24.3797 166.421 24.3675C168.072 24.3476 169.429 24.2777 170.761 24.0478Z" fill="#F1A5C3"/>
<path fill-rule="evenodd" clip-rule="evenodd" d="M83.0236 29.4446C84.4207 29.784 85.741 29.4619 87.1043 29.4175C88.2429 29.3803 89.4082 29.0109 90.8442 29.5001C89.7913 29.5011 88.9076 29.5023 87.2829 29.5045C88.2911 29.9542 88.7643 30.1665 89.1862 30.3549C86.9233 30.687 84.1055 30.5059 83.6721 31.5849C83.1145 31.1475 82.9672 31.03 82.7345 30.8479C80.9909 31.6403 78.561 31.8333 75.4591 31.416C75.6333 31.5736 75.7249 31.6572 75.9296 31.845C72.6483 32.1048 69.3102 32.3331 66.0666 32.6357C62.9375 32.927 59.4785 32.9645 56.6701 33.5363C56.2269 33.6271 54.9783 33.4328 53.9418 33.3584C54.0305 33.4947 54.1004 33.6042 54.1745 33.7175C52.8776 33.9959 51.071 33.9238 49.6482 34.2753C48.0249 34.6763 47.1651 34.4704 46.2368 33.7539C46.0593 33.6161 44.8565 33.5744 43.8419 33.4549C44.1327 33.3769 44.5165 33.1957 45.0739 33.1391C46.1319 33.032 47.2828 32.9927 47.6185 32.6339C49.3259 32.4722 51.7599 32.6876 52.4045 31.9673C52.4224 31.9464 52.7257 31.9206 52.8475 31.933C55.7471 32.2237 57.869 31.5546 60.5416 31.4673C63.5621 31.3684 66.3996 30.8978 69.3647 30.628C73.896 30.2157 78.4685 29.8375 83.0236 29.4446Z" fill="#F1A5C3"/>
<path fill-rule="evenodd" clip-rule="evenodd" d="M170.761 24.0478C169.429 24.2777 168.072 24.3476 166.421 24.3675C165.407 24.3797 164.038 24.5296 162.781 24.59C161.217 24.6648 159.693 24.7986 158.137 24.8866C157.558 24.9197 156.911 24.8683 156.338 24.9045C151.855 25.1856 147.398 25.4969 142.902 25.7619C140.488 25.9036 137.993 26.0777 135.575 26.0402C133.481 26.0083 132.2 26.4567 130.103 26.4446C128.566 26.4357 126.209 26.1695 125.069 26.7938C123.306 26.5351 121.418 27.1413 119.678 26.7365C121.06 26.0544 123.915 26.0069 126.003 25.9963C129.544 25.9779 132.635 25.5423 136.136 25.4859C140.212 25.4202 144.189 24.9911 148.249 24.7723C154.866 24.416 161.507 24.0894 168.161 23.7884C168.95 23.7525 169.889 23.9553 170.761 24.0478Z" fill="#F1A5C3"/>
<path fill-rule="evenodd" clip-rule="evenodd" d="M83.0236 29.4446C78.4685 29.8375 73.896 30.2157 69.3647 30.628C66.3996 30.8978 63.5621 31.3684 60.5416 31.4673C57.869 31.5546 55.7471 32.2237 52.8475 31.933C52.7257 31.9206 52.4224 31.9464 52.4045 31.9673C51.7599 32.6876 49.3259 32.4722 47.6185 32.6339C46.1273 32.7002 44.6377 32.7666 42.9602 32.8412C43.1795 32.6979 43.2571 32.5097 43.532 32.4858C51.2526 31.8119 58.3938 30.6841 66.4607 30.3103C67.8901 30.2444 68.1986 29.6958 70.1731 29.9054C71.0564 29.999 72.5541 29.6087 73.849 29.5044C75.1821 29.3964 76.6275 29.392 77.9835 29.2988C79.2433 29.2119 80.436 29.0554 81.6828 28.9517C83.0373 28.8392 84.4111 28.7393 85.7968 28.6577C87.2618 28.5711 88.7503 28.5133 90.8715 28.4121C88.5636 29.1849 85.1369 28.964 83.0236 29.4446Z" fill="#F1A5C3"/>
<path fill-rule="evenodd" clip-rule="evenodd" d="M49.0041 22.0723C50.825 21.8214 53.3947 22.1329 54.7385 21.5215C56.8571 21.483 59.1289 21.5601 61.0596 21.3767C63.6292 21.1329 65.9951 20.7671 68.8497 20.9854C72.363 20.4 76.8264 20.7004 80.3555 20.0921C81.0101 19.9796 82.1297 20.0563 83.0356 20.0573C86.2832 20.0607 89.2038 19.4577 92.5683 19.6881C95.3251 19.026 99.3198 19.5806 102.265 18.9564C103.238 18.7502 105.204 18.8817 106.716 18.8592C106.177 18.9984 105.708 19.2247 105.081 19.2623C102.644 19.4094 100.433 19.749 97.7222 19.6943C95.2664 19.6445 93.0582 20.0855 90.3691 20.1035C86.8108 20.1276 83.2808 20.4857 79.7428 20.7041C75.8895 20.942 72.0743 21.2437 68.1814 21.4106C62.4282 21.6577 56.7391 21.9607 51.0636 22.3738L49.0041 22.0723Z" fill="#F1A5C3"/>
<path fill-rule="evenodd" clip-rule="evenodd" d="M412.39 19.0513C410.082 19.1772 407.585 18.7706 405.642 18.996C403.663 19.2254 402.028 19.0284 400.258 19.0642C398.328 19.104 396.386 19.1009 394.449 19.1162C391.768 18.8579 389.056 19.1478 386.353 19.0889C384.872 19.0567 383.361 19.1206 381.101 19.1516C381.914 18.8661 382.226 18.6409 382.7 18.6127C384.338 18.5142 386.031 18.4419 387.708 18.4358C394.466 18.4109 401.227 18.4161 407.987 18.4052C409.496 18.4028 411.01 18.3493 412.508 18.3745C413.488 18.3909 414.446 18.5064 415.84 18.6086C414.284 18.8084 413.337 18.9302 412.39 19.0513Z" fill="#F1A5C3"/>
</svg>
