<svg width="246" height="24" viewBox="0 0 246 24" fill="none" xmlns="http://www.w3.org/2000/svg">
<path fill-rule="evenodd" clip-rule="evenodd" d="M137.905 11.4331C137.663 11.7139 137.353 11.2636 137.206 11.5616C137.066 11.844 136.526 11.8206 136.221 11.967C136.068 12.0399 136.111 12.1069 136.274 12.1285C136.883 12.1795 137.278 11.7919 137.877 11.9093C138.029 12.0144 138.153 12.1001 138.284 12.1911C138.876 11.9183 138.695 11.4695 139.265 11.2352C140.417 11.1339 140.6 11.586 140.952 11.9461C140.99 11.9847 141.172 11.9867 141.289 12.0057C141.559 11.76 140.854 11.6067 141.012 11.4319C141.651 10.9098 141.887 11.5755 142.671 11.4337C142.553 11.4386 142.312 11.2176 142.703 11.2677C143.111 11.3725 142.945 11.7158 143.496 11.7632C144.465 11.3444 145.466 11.2879 147.408 11.5417C147.461 11.4704 147.513 11.399 147.565 11.3279C148.001 11.3202 147.926 11.6571 148.378 11.6379C148.858 11.6261 148.803 11.3745 149.047 11.256C151.448 11.401 151.448 11.401 152.631 11.1597C153.247 11.3107 154.048 11.5072 154.849 11.7037C155.622 11.7065 155.58 11.308 155.962 11.1789C156.792 11.3507 157.671 11.497 158.468 11.2838C159.049 11.1283 159.584 11.1932 160.142 11.1692C161.455 11.1116 162.771 11.0684 164.082 10.998C164.307 10.9861 164.665 10.9422 164.571 10.685C163.83 10.6408 163.095 10.5976 162.289 10.6521C160.572 10.7673 158.828 10.8766 157.106 10.8452C155.368 10.8142 153.639 11.0822 151.886 10.8427C151.506 10.7907 150.92 10.8499 150.442 10.8749C147.817 11.0118 145.179 10.9646 142.536 10.9185C141.1 10.8935 139.606 10.7059 138.177 10.9928C138.053 11.0175 137.958 11.0798 137.85 11.1253C137.875 11.2649 137.9 11.4052 137.905 11.4331ZM147.761 16.2257C147.838 16.0573 147.879 15.9659 147.932 15.8479C147.071 15.905 146.437 16.0757 146.046 16.5044L145.739 16.1642C145.598 16.1524 145.404 16.1051 145.331 16.1346C144.705 16.3869 143.931 16.3713 143.258 16.3371C142.47 16.297 141.712 16.0522 140.962 16.3867C140.909 16.41 140.801 16.4388 140.762 16.4272C139.251 15.9807 137.495 16.3275 135.935 16.0397C135.423 15.9456 135.898 15.8119 135.826 15.6241C134.249 15.9176 132.721 16.3965 130.743 15.9955C130.731 15.985 130.544 15.8303 130.364 15.68C130.171 15.6034 130.107 15.6275 130.05 15.7342C129.882 16.0436 129.389 16.1679 128.859 16.0746C127.279 15.7966 125.643 15.9234 124.042 15.8859C121.091 15.8165 118.183 15.5802 115.254 15.4389C112.304 15.2966 109.38 15.0993 106.46 14.8515C102.609 14.5251 98.7489 14.2431 94.9097 13.8678C92.4254 13.6257 89.9141 13.3829 87.3852 13.2154C84.976 13.0565 82.6256 12.6816 80.2325 12.4418C77.4242 12.161 74.6884 11.7248 71.8405 11.516C70.4186 11.4114 69.0804 11.0517 67.6243 10.9052C62.2205 10.3619 57.1496 9.27933 52.0069 8.3178C51.0779 8.14372 50.1198 7.99074 49.5794 7.37651C50.8815 7.31501 52.0308 7.27661 53.1806 7.49999C54.8651 7.82713 56.5604 8.14017 58.2513 8.45933C59.0962 8.61881 59.9216 8.85951 60.7919 8.91514C61.6641 8.9708 62.4113 9.18722 63.2693 9.2494C64.1167 9.31083 64.9199 9.4865 65.7838 9.57133C67.2784 9.71723 68.7291 10.011 70.2019 10.2336C72.0841 10.5179 74.0333 10.57 75.9077 10.8557C77.8235 11.147 79.8233 11.2945 81.7784 11.5235C82.4079 11.5973 82.9518 11.7982 83.6833 11.6072C83.968 11.5326 84.5266 11.6802 84.9204 11.771C86.3268 12.0963 87.8479 12.1344 89.3376 12.2528C90.8731 12.3744 92.4127 12.4835 93.9477 12.6066C98.3509 12.9601 102.769 13.276 107.15 13.6903C109.932 13.9528 112.776 13.9237 115.534 14.2443C116.512 14.0389 117.245 14.557 118.268 14.457C119.046 14.3816 119.907 14.3467 120.787 14.5075C121.419 14.6229 122.094 14.7915 122.832 14.7781C123.595 14.7644 124.364 14.7597 125.124 14.7892C125.896 14.8187 126.685 14.8545 127.424 14.9625C128.198 15.076 128.988 14.9766 129.717 15.0653C130.131 15.1158 130.642 14.8826 130.908 15.1415C131.158 15.3844 131.446 15.3631 131.79 15.245C132.448 15.0189 133.17 15.1432 133.856 15.1272C134.124 15.2621 134.043 15.5059 134.529 15.6045C135.41 14.9983 136.918 15.368 138.031 15.0544C138.806 15.6314 139.841 15.0743 140.716 15.2132C141.621 15.3565 142.5 15.0941 143.429 15.1951C144.938 15.3585 146.483 15.2484 148.013 15.2557C149.475 15.2629 150.944 15.2774 152.393 15.3614C153.001 15.3964 153.203 15.3082 153.379 14.9823C154.636 15.5766 156.459 14.6746 157.698 15.4925C157.841 15.3817 157.963 15.1874 158.121 15.1797C159.573 15.1065 161.003 14.913 162.485 14.9982C163.676 15.0665 164.909 15.0863 165.996 14.8198C166.538 14.6875 167.084 14.7512 167.457 14.7842C169.835 14.9959 172.051 14.5883 174.318 14.4089C176.112 14.267 177.915 14.198 179.715 14.0991C181.934 13.9769 184.17 13.9297 186.36 13.6494C187.7 13.4782 189.131 13.4977 190.498 13.3676C191.47 13.2748 192.54 13.3279 193.388 12.9992C194.022 12.7537 194.793 13.0209 195.503 12.8109C195.762 12.7343 196.586 12.8715 196.879 12.674C197.247 12.4261 197.99 12.9527 198.088 12.4705C199.099 12.4047 200.136 12.2355 201.117 12.2968C202.754 12.3993 204.148 11.9936 205.674 11.8809C208.126 11.6991 210.372 11.033 212.909 10.9793C213.701 10.5441 215.214 10.9491 215.884 10.3052C216.045 10.1515 216.638 10.3451 217.105 10.275C219.601 9.90192 222.187 9.66172 224.493 9.01925C224.996 8.87911 225.821 9.14479 226.023 8.68884C226.844 8.91631 227.419 8.57146 228.078 8.44943C228.712 8.33241 229.33 8.03229 229.923 8.05268C231.404 8.10383 232.02 7.37108 233.27 7.23428C234.317 7.12007 235.155 6.6377 236.372 6.76922C236.549 6.78806 236.897 6.70933 236.964 6.63082C237.412 6.1062 238.449 6.01418 239.302 5.86488C240.797 5.60339 241.756 4.92732 243.225 4.66068C243.401 4.62858 243.43 4.38761 243.587 4.15524C242.213 4.45509 240.782 4.54894 239.801 5.16318C239.545 5.32337 239.055 5.39402 238.657 5.48767C236.269 6.04755 233.852 6.57704 231.496 7.17055C230.431 7.4389 229.208 7.31385 228.168 7.65969C227.236 7.96999 226.156 8.31756 225.109 8.3459C223.95 8.37736 223.08 8.79846 222.018 8.76979C220.868 8.73808 220.127 9.17908 219.131 9.27087C216.997 9.46776 215.037 9.98504 212.938 10.1825C211.199 10.3459 209.517 10.6278 207.773 10.7418C207.368 10.7682 207.494 11.1714 206.867 10.9584C206.49 10.8303 206.058 11.0805 205.656 11.1616C205.286 11.2357 204.962 10.998 204.61 11.1475C204.212 11.3154 203.729 11.1353 203.371 11.2002C202.354 11.3853 201.343 11.5494 200.286 11.6864C198.227 11.9537 196.134 12.1022 194.066 12.3241C193.068 12.0085 192.41 12.7127 191.353 12.5321C190.57 12.3987 189.702 12.6821 188.879 12.7646C186.143 13.0404 183.371 13.2495 180.595 13.3949C178.646 13.4969 176.693 13.4827 174.775 13.7799C173.959 13.9062 172.962 13.8565 172.088 13.8451C169.558 13.8119 167.095 14.0623 164.609 14.1855C163.415 14.2445 162.242 14.1766 161.063 14.1973C159.121 14.2328 157.211 14.4718 155.231 14.3484C153.936 14.2678 152.577 14.6092 151.273 14.2683C150.342 14.7756 149.202 14.2666 148.144 14.4334C147.109 14.5963 145.951 14.3836 144.823 14.4634C143.802 14.5356 142.74 14.4798 141.699 14.4476C140.656 14.4156 139.617 14.3428 138.574 14.2881L138.136 13.8021C137.733 14.0013 137.492 14.2907 136.926 14.3081C136.529 14.3092 136.514 14.1105 136.286 14.0304C136.146 14.0357 135.989 14.0206 135.873 14.0494C134.475 14.3932 132.901 14.4013 131.526 14.2663C129.08 14.0264 126.629 14.1298 124.189 14.021C121.329 13.8938 118.475 13.7086 115.615 13.6124C112.244 13.4993 108.947 13.1304 105.578 13.0137C103.256 12.9328 100.959 12.6579 98.6562 12.4557C95.7162 12.1973 92.7952 11.8702 89.8394 11.675C87.4321 11.5161 85.0977 11.1943 82.7173 10.9807C80.3211 10.7656 77.9118 10.5583 75.5551 10.2107C73.497 9.9068 71.3533 9.75494 69.2536 9.51985C66.9383 9.26055 64.6653 8.91799 62.3435 8.66853C60.7952 8.50235 59.2076 8.28663 57.6913 8.00581C55.0797 7.52172 52.4755 7.02573 49.8729 6.52939C49.5434 6.46657 49.1164 6.46296 48.9785 6.20313C49.2332 5.8131 49.9246 5.83463 50.618 5.94113C50.4375 5.38912 49.3759 5.57617 49.0741 5.22838C48.9511 5.03759 49.2927 4.8911 49.3428 4.70668C49.8799 4.9937 50.0437 4.46962 50.4395 4.5738C50.8638 4.68523 51.3201 4.42102 51.6996 4.63203C52.1646 4.4933 51.4819 4.29791 51.9743 4.07059C53.0719 4.2008 54.3193 4.33172 55.5477 4.49895C56.3845 4.61319 57.1541 4.8082 58.0728 4.81656C58.831 4.82345 59.5229 5.23472 60.3862 4.91967C60.5436 4.86225 60.7096 5.02917 60.8672 5.07793C61.9591 5.4155 63.7161 5.55485 65.3844 5.51433C66.2973 5.49215 67.2317 5.59755 68.0896 5.68886C69.633 5.85251 71.1508 6.08262 72.7257 6.18951C72.9813 6.2067 73.2271 6.29777 73.4718 6.3937C74.5376 6.81218 75.7555 6.9689 77.1177 6.8158C77.8203 6.7368 78.1265 6.82627 79.1887 7.04325C79.7018 7.14739 80.3015 7.18011 80.8445 7.23478C83.0754 7.46011 85.3477 7.55387 87.5593 7.79803C88.8981 7.94556 90.2915 7.56995 91.5453 7.98623C92.3788 7.65318 93.0801 8.03361 93.848 8.08446C95.7261 8.20899 97.5931 8.53383 99.4859 8.37317C100.162 8.31551 100.264 8.92649 100.931 8.57308C102.724 8.76305 104.577 8.66821 106.359 8.84126C107.043 8.90757 107.785 9.15847 108.423 9.06915C109.636 8.89976 110.776 9.49239 111.943 9.09088C112.963 9.55086 114.118 9.29364 115.255 9.29544C116.134 9.29691 116.914 9.59582 117.959 9.43441C118.836 9.29888 119.889 9.43864 120.861 9.48025C121.837 9.52153 122.786 9.72659 123.789 9.59886C124.441 10.0784 125.454 9.84973 126.278 9.8713C127.166 9.89472 128.107 10.0427 128.976 9.84746C129.653 9.69548 130.072 10.3454 130.852 9.94057C131.333 9.69088 132.077 9.91926 132.702 9.90864C133.304 9.89837 134.006 9.76261 134.428 10.1803C134.548 10.2993 135.063 10.3425 135.411 10.3683C136.793 10.4709 138.296 10.1372 139.563 10.6669C140.3 10.4419 141.185 10.6798 141.83 10.5609C143.928 10.1744 146.025 10.4404 148.089 10.481C149.617 10.5111 151.188 10.1768 152.686 10.5608C153.669 10.2082 154.791 10.5684 155.798 10.4096C156.976 10.2236 158.174 10.5089 159.339 10.3444C160.505 10.1801 161.701 10.3238 162.877 10.2451C163.074 10.232 163.298 10.3176 163.608 10.3761C165.188 9.68635 167.454 10.3512 169.462 9.70419C168.487 9.68678 167.821 9.6749 166.796 9.65681C168.644 9.16372 170.386 9.42382 171.993 9.23041C173.578 9.0402 175.304 9.0982 176.965 9.01905C178.625 8.94042 180.323 8.97201 181.944 8.80534C183.6 8.63514 185.283 8.6522 186.934 8.47439C188.567 8.29835 190.248 8.23832 191.994 8.12137C192.142 8.2547 192.317 8.41313 192.492 8.57137C193.892 8.75961 195.066 8.20656 196.431 8.25646C196.627 8.26342 196.871 8.10828 197.039 8.13055C198.571 8.33478 199.927 7.85385 201.402 7.86149C202.926 7.8694 204.227 7.39147 205.742 7.3498C207.502 7.30129 209.154 6.93616 210.915 6.85591C211.827 6.81454 212.583 6.38413 213.602 6.53441C214.706 6.12504 216.075 6.11449 217.322 5.94756C218.443 5.79705 219.573 5.69011 220.607 5.41125C221.841 5.72987 222.678 4.84045 223.934 5.12581C224.116 5.16671 224.478 5.02189 224.741 4.94788C226.412 4.47747 228.3 4.35808 230.098 4.09299C230.621 4.01558 230.771 3.67072 231.388 3.65188C233.84 3.57662 235.754 2.77686 237.968 2.38066C238.9 2.21411 239.578 1.91633 240.117 1.51147C239.993 1.48059 239.87 1.45065 239.727 1.41549C239.5 0.776972 240.277 0.444075 241.308 0.363043C242.164 0.296285 242.492 0.730776 242.734 1.11285C243.593 1.13276 244.546 1.08984 244.754 1.67841C244.871 2.01191 245.418 2.14012 245.858 2.32719C245.809 2.64805 245.548 3.00903 245.756 3.2757C246.22 3.87038 245.671 4.32842 245.093 4.72395C244.482 5.14108 243.64 5.477 242.799 5.80936C240.477 6.72684 237.716 7.17841 235.131 7.81457C232.562 8.44685 229.937 9.02125 227.353 9.63805C226.427 9.85881 225.374 9.74441 224.436 10.0321C223.603 10.2873 222.722 10.663 221.575 10.4736C220.215 10.9583 218.469 10.8432 217.031 11.261C215.207 11.791 213.098 11.9357 211.064 12.1533C210.61 12.2017 210.133 12.3257 209.762 12.3184C209.165 12.3062 208.715 12.4309 208.334 12.5658C207.555 12.8413 206.645 12.707 205.813 12.8347C204.962 12.9653 204.015 13.0042 203.347 13.217C202.883 13.1144 202.94 12.8757 202.368 12.9184C201.934 13.4393 200.923 13.4795 199.809 13.5431C197.633 13.6675 195.489 13.9071 193.392 14.2516C192.739 14.3587 192.018 14.3644 191.323 14.3958C189.557 14.4753 187.791 14.5496 185.986 14.9615C185.72 14.887 185.33 14.7775 185.093 14.7102C184.653 14.7876 184.927 15.0043 184.419 15.0117C183.517 15.0245 182.575 14.9864 181.723 15.2129C181.598 15.2456 181.451 15.2637 181.311 15.2712C180.868 15.2936 180.291 14.7945 179.989 15.3611C179.365 15.06 178.794 15.5301 178.102 15.384C177.642 15.2864 176.956 15.4239 176.481 15.4815C175.904 15.551 175.344 15.4694 174.797 15.5616C173.727 15.7432 172.478 15.3854 171.574 15.8323C171.123 15.8269 171.119 15.6224 170.876 15.5487C170.266 15.7807 168.157 15.9279 166.843 15.8272C166.847 15.7123 166.852 15.5953 166.855 15.4771C166.7 15.4855 166.5 15.4659 166.433 15.5048C165.974 15.7723 165.655 16.1639 164.716 15.9417C163.239 16.2296 161.638 16.1834 160.154 16.1555C158.853 16.1305 157.645 16.2425 156.41 16.33C155.229 16.4137 154.037 16.1124 152.88 16.3859C151.24 16.0796 149.508 16.4828 147.761 16.2257Z" fill="#F1A5C3"/>
<path fill-rule="evenodd" clip-rule="evenodd" d="M80.8225 22.8278C81.61 22.596 82.7623 22.9038 83.3559 22.3864C83.3402 22.0616 82.7316 22.1197 82.3569 21.9593C81.1887 22.2963 79.9953 22.2706 78.6471 22.2205C77.3165 22.1708 76.0659 21.9053 74.6801 21.9576C73.3748 22.0065 72.0279 21.8036 70.7059 21.6928C69.3725 21.5814 68.0477 21.4463 66.7183 21.3243C65.6706 21.2273 64.5922 21.185 63.5783 21.0307C61.1579 20.6628 58.6782 20.4409 56.2229 20.1574C54.9481 20.0102 53.7317 19.7543 52.4379 19.6023C50.2175 19.3412 48.1002 18.8557 45.8816 18.5846C43.4939 18.2923 41.2725 17.752 38.9209 17.4462C33.6198 16.7567 28.6743 15.5792 23.531 14.6765C22.6952 14.5302 21.8763 14.3531 21.0309 14.2071C19.1758 13.8865 17.2124 13.6321 15.8098 12.8744C15.2694 12.5827 14.6504 12.9328 13.9978 12.6518C13.4305 12.407 12.5084 12.1911 11.6354 12.1033C10.7492 12.0139 9.99189 11.7449 9.17427 11.5814C8.19095 11.3844 7.21307 11.1117 6.16141 10.8914C5.71258 10.5288 5.25603 10.1436 4.75482 9.77341C4.66989 9.7105 4.39441 9.71457 4.23172 9.69146C3.91441 9.86187 4.66345 10.0774 3.84375 10.2543C2.90437 10.1413 1.83188 9.96137 0.930035 9.4978C0.916098 9.37448 1.32502 9.37722 1.45787 9.26038C1.58173 9.15071 1.53656 8.96352 1.99499 9.06653C2.49535 9.17871 2.27085 8.88545 2.4943 8.81865C3.12855 8.93108 2.9627 9.342 3.4312 9.51565C4.27484 9.68281 3.98693 9.1156 4.62616 9.08737C5.20041 9.20083 5.65208 9.4657 6.1907 9.69694L6.94972 9.52026C8.42611 9.77803 9.41362 10.5533 11.1514 10.4537C11.9783 10.4067 12.2627 10.966 13.2379 10.8748C13.9191 10.8114 14.4381 11.2135 14.9736 11.42C15.2333 11.5901 14.8611 11.7086 14.9427 11.8818C15.9353 11.9348 15.6654 11.4248 16.0404 11.2045C16.5273 11.2967 17.0193 11.3896 17.5124 11.4827C17.4486 11.5853 17.3847 11.6889 17.3216 11.7923C17.9723 11.8736 18.2568 12.2758 18.954 12.2724C19.4352 12.2444 19.4935 12.0419 19.6274 11.8819C19.943 11.9415 20.2247 11.9946 20.5019 12.047C20.4373 12.1498 20.3723 12.2531 20.3064 12.3595C21.5033 12.255 21.5033 12.255 22.8298 12.4867C23.0393 12.7451 21.9724 12.6853 22.5531 13.1447C23.0562 13.3546 24.3427 12.796 24.9037 13.3999C25.0446 13.2789 25.1809 13.1608 25.4058 12.9666C26.3415 13.2126 27.4004 13.313 28.2517 13.5481C29.2127 13.8131 30.2937 13.8008 31.2696 14.1076L31.8405 14.7406C32.5443 14.5884 33.2183 14.9364 33.8566 14.8437C36.0029 14.5316 37.7068 15.1263 39.4625 15.5223C40.106 15.6672 40.6404 15.9179 41.4042 15.8746C41.6489 15.8606 41.8159 15.8683 41.9305 15.9964C42.417 16.5368 43.2233 16.6535 44.2965 16.4702C44.839 16.3772 45.3099 16.4718 45.5756 16.7453C46.005 17.1881 46.8402 17.1563 47.4218 17.2537C48.1387 17.0656 47.4291 16.8566 47.8012 16.6591C48.1319 16.8958 49.2427 16.6303 49.0668 17.2357C49.0562 17.2733 49.6179 17.4303 49.8028 17.3924C50.5442 17.2415 51.2216 17.2607 51.9011 17.4555C52.8111 17.1287 53.6351 17.4112 54.4 17.5949C55.4182 17.8397 56.5361 17.8612 57.5828 17.9682C58.8862 18.1018 60.0598 18.2799 61.128 18.6738C61.425 18.7834 61.7874 18.8464 62.0365 18.9099C62.8384 18.6618 63.4491 18.6292 64.2633 18.7274C66.9563 19.0517 69.6461 19.4178 72.4331 19.4864C73.4051 19.5106 74.0073 19.8194 74.439 20.1882C74.7206 20.4298 75.16 20.425 75.4364 20.5076C76.4958 19.9704 78.1026 20.5078 78.9336 19.9462C79.5944 20.1486 79.537 20.4649 79.9635 20.6788C81.1923 20.5794 82.5022 20.4741 83.7998 20.3693C84.0942 20.2038 83.5209 20.0097 84.0277 19.8054C84.5609 19.7464 85.3044 19.9567 86.104 19.4943C85.8959 19.8403 85.8335 19.9435 85.7731 20.0439C86.0881 20.1895 86.4778 19.8776 86.7828 20.1008C87.1321 20.3752 86.6128 20.5857 86.5374 20.8277C87.0722 21.0437 87.6034 21.2586 88.1051 21.461C87.8708 21.8403 87.4458 21.7563 87.0104 21.6627C86.8309 21.8519 86.4922 22.0227 86.7748 22.2765C87.0234 22.5471 87.4412 22.1736 87.7987 22.3481C87.1715 23.0854 85.3532 22.7077 84.6015 23.3219C84.085 23.1756 83.6947 23.0655 83.3107 22.9563C83.1938 23.0939 83.1372 23.1602 83.034 23.2817C82.2867 23.2667 81.4905 23.2529 80.6959 23.2319C80.6605 23.2309 80.6322 23.1663 80.6009 23.1316C80.4595 22.9899 80.5336 22.8886 80.8225 22.8278Z" fill="#F1A5C3"/>
<path fill-rule="evenodd" clip-rule="evenodd" d="M80.8225 22.8278C80.5336 22.8886 80.4595 22.9899 80.6009 23.1316C79.1859 23.5316 77.6706 23.2862 76.2397 23.2331C73.8601 23.1453 71.4993 22.9031 69.1333 22.7337C67.3851 22.609 65.6262 22.3273 63.8634 22.1422C61.47 21.891 59.152 21.4914 56.7326 21.285C55.3038 21.1626 53.9386 20.8508 52.5389 20.6408C50.5676 20.3444 48.5074 20.1874 46.6054 19.752C45.6217 19.5264 44.6202 19.2981 43.4611 19.2954C42.9589 19.294 42.3706 19.175 41.9573 18.8892C41.754 18.7485 41.0392 18.8623 40.534 18.778C35.5242 17.9357 30.529 17.0761 25.5915 16.1273C22.5373 15.5407 19.5991 14.8185 16.5708 14.2C14.1645 13.7087 11.771 13.1448 9.48767 12.5136C8.60917 12.2705 7.42375 12.1861 6.78961 11.724C7.02519 11.4428 7.38453 11.4238 7.72955 11.5412C9.93585 12.2947 12.3625 12.8066 14.871 13.2237C15.7146 13.3636 16.2822 13.7258 17.1579 13.8508C17.9045 13.9579 18.6795 14.051 19.29 14.386C19.6547 14.5857 20.393 14.7178 20.9399 14.699C21.8482 14.6677 22.4711 14.9611 23.2331 15.0489C24.029 15.1399 24.6402 15.3579 25.3331 15.5112C26.3373 15.7334 27.5858 15.6598 28.4347 16.1251C29.4951 15.9217 30.0969 16.5355 30.9267 16.523C31.9098 16.508 32.5067 16.8573 33.3354 16.9716C34.1164 17.0794 34.9555 17.1317 35.7138 17.3252C36.5139 17.5298 37.3937 17.6543 38.2375 17.8136C39.0824 17.9731 39.9229 18.1377 40.7734 18.2904C41.5899 18.4375 42.4737 18.502 43.2719 18.6289C45.0258 18.908 46.8566 19.0325 48.5731 19.4002C50.4271 19.7974 52.4265 19.9777 54.3957 20.2062C56.359 20.4343 58.389 20.6274 60.2489 20.9918C61.6472 21.2658 63.2008 21.1273 64.4712 21.5559C65.52 21.3608 66.3686 21.7915 67.3968 21.8154C68.1616 21.8337 69.1507 21.894 69.9398 22.2083C70.3289 22.3635 71.4166 22.1108 71.7166 22.271C72.2924 22.5776 72.6874 22.3684 73.202 22.3724C73.5965 22.3752 74.047 22.3424 74.4572 22.404C76.4405 22.7027 78.4707 22.7327 80.5176 22.6904C80.6158 22.6884 80.721 22.7798 80.8225 22.8278Z" fill="#F1A5C3"/>
</svg>
