<svg width="301" height="29" viewBox="0 0 301 29" fill="none" xmlns="http://www.w3.org/2000/svg">
<path fill-rule="evenodd" clip-rule="evenodd" d="M217.288 18.2485C217.261 18.454 217.236 18.659 217.21 18.8647C220.516 19.3462 223.806 19.2809 227.074 18.4129C223.812 18.3586 220.55 18.3035 217.288 18.2485ZM107.713 18.8764C104.305 18.6805 100.833 18.6202 97.4568 19.352C100.905 19.7883 104.297 19.6217 107.713 18.8764ZM152.242 22.797C155.923 23.7142 161.585 23.5048 165.296 22.5256C160.821 22.6186 156.531 22.7077 152.242 22.797ZM176.935 14.4819C179.44 13.8007 182.634 14.0116 184.78 12.7581C182.093 13.2109 178.467 12.1651 176.935 14.4819ZM29.9593 15.3094C33.74 16.1467 36.4313 16.2407 39.3312 14.5041C35.9981 14.7655 33.311 14.4668 29.9593 15.3094ZM200.063 12.8441C198.326 11.2926 191.374 11.4418 188.091 13.1192C191.976 12.3608 195.95 12.9717 200.063 12.8441ZM173.794 13.7028C165.415 14.6381 157.042 15.0722 148.252 14.8995C151.79 16.958 169.01 16.1005 173.794 13.7028ZM120.127 10.4077C111.852 9.31969 103.808 11.5787 95.558 10.9778C94.6805 10.9145 93.5902 11.1823 93.6303 11.7236C93.6803 12.4034 94.89 12.5028 95.8835 12.4901C100.075 12.4386 104.287 12.0795 108.419 12.0885C112.754 12.0988 116.265 11.0876 120.066 10.3486C124.684 11.0912 129.192 10.4343 133.891 10.1474C131.591 8.21227 125.282 8.40094 120.127 10.4077ZM222.196 28.8438C214.576 29.0215 208.784 27.2991 205.041 23.4188C204.112 22.4548 202.796 21.5307 200.8 21.6156C195.608 21.8354 190.544 20.878 185.25 21.4892C177.117 22.4284 169.211 24.0337 160.858 24.3351C157.696 24.4496 154.53 24.5259 151.307 24.6206C150.647 25.461 152.775 25.0881 152.825 25.675C152.43 25.7047 152 25.8186 151.724 25.744C147.031 24.4775 141.28 23.9573 139.006 20.8366C138.151 19.6617 136.247 19.1324 135.358 18.0185C135.044 17.6265 132.34 17.6703 130.82 17.822C122.272 18.6751 113.773 19.6907 105.212 20.5003C102.236 20.7812 99.1355 20.6677 96.0931 20.661C94.7982 20.6572 93.7591 20.5536 93.008 19.5817C92.4319 18.8395 91.3389 17.2809 88.637 18.2897C87.5494 17.0446 84.0308 17.6321 83.4672 15.6967C82.8296 13.5041 79.9249 13.446 76.2298 13.6656C71.1248 13.9688 67.7919 16.3458 62.9148 16.6448C61.9103 16.7064 61.1775 17.1188 60.5744 17.6039C60.1499 17.944 59.4954 18.5141 59.0724 18.4782C55.0611 18.1395 54.4029 20.5545 51.7909 21.3113C47.6305 22.5148 43.5135 23.8134 38.6676 23.8769C37.1592 23.8962 37.1964 23.9303 36.0009 24.8883C35.7952 25.0544 35.1318 25.082 34.6757 25.088C31.5451 25.1315 30.4579 24.548 28.1065 22.1975C27.6565 21.7473 25.9827 21.7089 24.8851 21.4633C21.0858 20.6105 21.1415 18.0793 18.5975 16.6746C18.128 16.4157 17.6623 15.6136 17.1827 16.0277C15.1739 17.7662 10.75 17.0836 8.90418 18.9315C8.31698 19.5174 7.22325 19.9516 6.28029 20.3988C5.24638 20.8894 3.98313 21.4899 2.7056 21.1813C1.61901 20.9196 1.88093 20.0339 2.15063 19.4365C2.69159 18.2346 -0.528228 18.0306 0.322793 16.5216C1.29769 14.7925 3.01868 13.4075 5.09815 12.3197C10.211 9.64455 13.3869 6.22068 17.0088 2.9666C18.049 2.03258 18.9014 1.39389 21.0227 1.62791C23.0119 1.84748 23.7674 2.41021 24.6727 3.53844C26.4561 5.7574 26.9114 8.04412 27.3981 10.3657C27.6695 11.6595 28.9751 12.3104 31.0065 12.3779C35.8621 12.5418 40.5969 12.3946 44.5517 10.3812C51.8184 6.67998 60.8985 5.12651 69.7969 3.31024C71.8957 2.88191 73.9494 2.13528 76.0194 1.53129C78.4034 0.834867 80.9344 0.701123 83.4718 1.02057C86.1589 1.35856 87.3218 2.42897 87.9236 4.00075C89.5696 8.29766 92.2876 9.25828 99.9453 8.69446C108.152 8.09029 116.348 7.31945 124.592 7.05495C128.399 6.93358 132.168 6.23667 136.125 6.74827C139.476 7.18137 142.363 7.84654 143.508 9.7709C144.749 11.8539 147.408 12.3235 150.695 12.3531C159.581 12.4326 168.375 11.9459 177.05 10.8539C183.664 10.0213 190.335 9.35168 197.082 9.19543C202.153 9.07684 207.003 9.81426 209.927 12.531C212.368 14.8011 215.928 15.4504 220.267 15.4868C231.171 15.5782 241.83 14.4635 252.486 13.3781C264.923 12.1128 277.15 10.2012 289.72 9.33381C292.701 9.12831 295.724 8.77222 298.536 9.96724C296.89 11.18 294.768 10.9475 292.905 10.9813C288.848 11.0548 284.881 11.3984 280.986 12.0232C280.491 12.1023 279.542 12.1925 279.832 12.6502C280.155 13.1564 280.751 12.8364 281.478 12.7648C286.411 12.2715 291.251 11.0476 296.415 11.9339C297.695 12.1538 299.769 11.9786 298.301 13.4158C297.773 13.9321 299.037 14.0118 299.453 14.2985C299.856 14.5779 300.47 15.0624 300.021 15.1736C298.269 15.6071 297.726 17.0292 296.163 17.1636C289.982 17.6965 283.865 18.6129 278.183 19.8683C271.821 21.2741 264.544 21.377 259.045 24.0536C254.733 23.2879 252.18 26.3714 247.504 25.6254C244.47 25.1411 241.444 26.7735 238.638 27.5111C233.177 28.9467 227.718 28.8651 222.124 28.8425C225.292 27.797 229.083 28.4264 232.333 27.5567C227.653 27.8961 222.97 27.6688 218.21 27.7781C219.21 28.7255 221.6 27.5984 222.196 28.8438Z" fill="#FDF9FA"/>
</svg>
