<svg width="120" height="28" viewBox="0 0 120 28" fill="none" xmlns="http://www.w3.org/2000/svg">
<path fill-rule="evenodd" clip-rule="evenodd" d="M15.3208 27.0628C14.0976 26.065 14.0976 26.065 12.6412 27.3087C13.6012 27.2208 14.3963 27.1477 15.3208 27.0628ZM3.3597 17.8009C2.84738 18.1736 2.35978 18.4374 2.64447 18.9685C2.93234 19.5058 3.51568 19.7394 4.73056 19.813C3.53661 19.2635 3.72619 18.5156 3.3597 17.8009ZM85.3871 11.4012C83.8768 11.4135 82.6042 11.9773 81.2771 12.397C82.6042 11.9584 84.4176 13.1474 85.3871 11.4012ZM75.0125 16.7044C75.0246 16.7775 75.0372 16.8501 75.0499 16.9232C76.7461 16.7509 78.4428 16.5837 80.1358 16.3966C80.241 16.3849 80.4116 16.2029 80.3939 16.1237C80.3349 15.864 80.0432 15.7198 79.7623 15.7714C78.174 16.0644 76.5951 16.39 75.0125 16.7044ZM81.8319 18.6761C79.4504 19.0963 77.0086 19.2348 74.608 19.5681C77.1576 19.9434 79.4922 19.2957 81.8319 18.6761ZM15.4393 21.1513C14.3798 21.2612 13.3133 21.3425 12.2665 21.5025C11.9824 21.546 11.4029 21.1539 11.3826 21.7878C11.368 22.255 11.7224 22.367 12.2024 22.4973C13.7356 22.9119 14.4851 21.9151 15.4393 21.1513ZM60.2901 10.2091C61.576 11.1609 63.0914 10.5454 64.5225 10.5552C64.8567 10.5572 65.0266 10.364 65.0475 10.1114C65.0634 9.91155 64.8928 9.68918 64.6734 9.76126C63.2493 10.2331 61.5995 9.1698 60.2901 10.2091ZM78.5443 13.0953C78.0503 12.9823 72.8484 13.0687 72.3659 13.194C72.1453 13.2507 71.8783 13.3049 71.9468 13.5375C71.9937 13.699 72.1313 13.8953 72.3006 13.9741C73.506 14.5313 77.3738 13.9741 78.5443 13.0953ZM42.0232 23.6081C42.715 23.8683 43.5799 23.4006 44.1512 24.1091C43.2825 24.5912 42.3428 24.672 41.3879 24.5641C40.8692 24.5058 40.3899 24.4429 39.8744 24.5835C38.6506 24.9178 37.7268 24.9219 37.7211 23.5166C37.7186 22.8751 34.8126 21.6656 33.8698 21.8087C32.6961 21.9861 31.2359 21.9401 30.3944 22.3225C28.1359 23.3479 25.3701 23.7809 23.7215 25.6039C23.4032 25.9566 22.941 25.906 22.5307 26.0348C21.0179 26.5097 19.1163 26.317 18.1848 27.8337C17.8196 28.4267 17.6522 27.2193 16.8622 27.525C15.9738 27.869 14.8604 27.8716 13.8364 27.9436C11.3293 28.1185 9.92674 27.5899 9.48733 25.6821C9.20137 24.4394 8.58188 24.8948 7.77345 25.06C8.08414 24.4527 8.81268 23.8591 7.3315 23.7728C6.36392 23.716 6.32587 22.825 5.85286 22.3424C5.52124 22.004 6.21237 22.1717 6.45839 22.097C6.88575 21.9682 7.38476 21.8246 7.47607 21.3604C6.94345 21.3077 7.11782 20.4285 6.20857 20.7229C5.63664 20.908 5.01652 20.633 4.42113 20.2664C4.93092 21.3584 3.80418 22.0628 3.68244 23.006C3.59114 23.7078 3.23226 24.4153 3.47764 25.1382C3.64567 25.6315 3.18026 25.8625 2.99068 25.5875C2.42953 24.7732 1.01429 24.6121 0.798069 23.5632C0.713104 23.1516 0.995264 23.0903 1.2844 22.9697C1.58114 22.8459 2.44982 23.0642 2.13468 22.6665C1.52091 21.8951 1.79546 21.1242 1.67181 20.3579C0.515275 21.2331 0.813921 19.744 0.138639 19.701C-0.020512 19.6908 -0.19171 18.7732 0.547613 18.7783C2.46123 18.7906 2.28369 17.5739 2.18414 16.7852C2.02816 15.5537 2.79411 14.976 3.8733 14.4183C4.5061 14.6851 3.60699 15.6314 4.73246 15.6876C5.64488 15.7331 5.54407 15.0072 5.95114 14.6703C6.17179 14.4863 6.48629 14.2465 6.21808 13.9454C5.95304 13.6489 5.55928 13.836 5.26698 13.902C3.70717 14.2527 3.84159 13.0483 4.14912 12.7753C5.13446 11.9011 5.56182 10.6891 6.80015 9.9959C8.11394 9.2613 9.01749 9.56035 9.29965 10.8051C9.32882 10.9334 9.42139 11.075 9.53869 11.165C12.0693 13.1193 11.5493 15.6273 11.3819 18.032C11.2393 20.087 11.3293 20.1724 13.8561 19.6785C16.7994 19.1034 19.4137 17.919 22.1078 16.8889C25.2097 15.7019 28.2545 14.4035 31.5903 13.6873C34.2375 13.1193 36.6432 13.4629 38.4116 15.3155C39.3367 16.2837 40.3404 16.391 41.7221 15.955C46.3235 14.5021 50.5172 12.4318 54.7667 10.4514C56.8585 9.47703 59.0936 8.72659 61.3116 8.06254C63.9094 7.285 66.6099 7.81051 68.5343 9.52201C70.3274 11.1175 72.3647 11.4912 74.8781 11.1988C81.9188 10.3773 88.6088 8.54358 95.2837 6.67565C102.17 4.74893 108.937 2.5656 115.651 0.277973C116.018 0.152729 116.416 0.0463993 116.81 0.0198169C117.442 -0.0241464 118.256 -0.0420384 118.459 0.496767C118.621 0.926176 117.794 1.02893 117.42 1.28964C117.063 1.53757 116.17 1.5345 116.445 2.0636C116.736 2.6249 117.439 2.17197 117.971 2.15255C118.694 2.12699 120.364 1.37041 119.135 3.04203C119.076 3.12229 119.126 3.30888 119.208 3.39579C120.757 5.03981 119.962 6.47424 117.454 7.2712C115.715 7.82432 113.989 8.54307 112.394 9.32418C109.272 10.8506 105.913 11.965 102.664 13.2543C96.9874 15.5077 91.1597 17.5162 85.1341 19.1137C81.617 20.0461 78.0129 20.5547 74.3011 20.4612C73.707 20.4464 73.1534 20.4397 72.6601 20.8037C73.1103 21.1769 73.6632 21.3486 74.2669 21.4442C73.2879 21.2924 72.2315 21.3236 71.5245 20.5614C71.2278 20.2424 70.796 20.2721 70.3363 20.2117C69.7155 20.1299 68.6002 20.0655 69.1892 19.0656C69.233 18.991 69.2279 18.8969 69.245 18.8116C67.8165 19.108 68.3111 17.6895 67.4741 17.5105C66.4101 17.2836 65.5725 16.8245 64.8237 16.1922C64.2638 15.7203 63.4706 15.7382 62.7579 15.8267C62.1314 15.9044 61.3477 16.6783 61.2234 15.4499C61.2209 15.4294 60.7936 15.387 60.6002 15.4397C60.2457 15.5358 60.2438 15.8226 60.3833 16.0178C60.7828 16.5756 60.6515 17.1016 59.9521 17.2585C58.8425 17.5085 58.1685 18.4788 56.9384 18.4108C56.298 18.3755 56.6322 17.6859 56.1084 17.3884C55.7102 18.1107 54.1644 18.2329 54.7135 19.3999C54.7331 19.4424 54.5714 19.6044 54.5074 19.5998C53.3921 19.517 53.2634 19.9796 52.999 20.7838C52.7174 21.64 51.2521 21.6835 50.2623 22.0209C50.1076 22.073 49.8375 22.1461 49.835 22.2151C49.7608 24.0892 47.83 22.8643 46.9157 23.3393C46.6367 23.4839 46.3907 23.2339 46.1694 22.9584C45.2773 21.8481 44.4866 21.8384 43.4867 22.757C43.1094 23.1036 42.5413 23.3147 42.0232 23.6081Z" fill="#F1A5C3"/>
</svg>
