<svg width="226" height="13" viewBox="0 0 226 13" fill="none" xmlns="http://www.w3.org/2000/svg">
<path fill-rule="evenodd" clip-rule="evenodd" d="M175.774 0.747736C178.377 1.55862 180.803 2.42089 183.469 3.11684C186.284 3.85202 189.279 4.459 192.44 4.92346C195.05 5.30746 197.571 5.79202 200.396 5.81513C202.367 6.39017 204.706 6.23566 206.884 6.38029C207.777 6.43922 208.747 6.25923 209.655 6.29793C210.635 6.33977 211.566 6.17789 212.437 6.19696C215.66 6.26672 218.729 5.78372 221.922 5.8057C222.156 5.80725 222.395 5.69316 222.723 5.60972C223.515 5.89338 224.271 6.16396 225.209 6.49978C224.261 6.72993 223.582 6.89468 222.488 7.15997L225.445 7.3088C225.023 7.61958 224.763 7.81057 224.412 8.0698C224.498 8.14791 224.653 8.28974 224.916 8.52853C224.372 8.95924 223.961 9.57135 223.029 9.95405C221.731 10.486 220.092 10.884 218.496 11.2614C217.816 11.4228 216.844 11.4785 216.063 11.4247C214.327 11.3065 212.635 11.7075 210.9 11.4525C210.647 11.415 210.243 11.56 209.859 11.6299C209.782 11.4845 209.702 11.3329 209.62 11.178L198.559 10.6213C199.582 10.9292 200.755 10.913 201.88 10.9818C203.156 11.0586 204.442 11.1098 205.721 11.1788C206.857 11.2402 207.991 11.3108 209.059 11.6004C206.829 11.4882 204.596 11.3809 202.367 11.2622C199.718 11.1214 196.979 11.1143 194.717 10.3715C192.05 10.2545 189.769 9.69981 187.358 9.26654C186.123 9.04467 185.259 8.7439 184.491 8.32604C184.334 8.37841 184.18 8.43089 183.893 8.52802C182.239 8.03431 180.642 7.44915 178.818 7.05103C177.558 6.77654 177.211 6.13941 175.836 5.95859C175.331 5.89256 174.915 5.70768 174.196 5.50199C173.371 5.33905 171.873 5.6625 170.989 5.10386C170.833 5.15577 170.678 5.2082 170.429 5.29142C170.213 5.22356 169.972 5.14697 169.718 5.06696C169.54 5.2051 169.364 5.3415 169.169 5.49233L168.191 5.44307C168.467 5.29305 168.651 5.19211 168.839 5.09042C168.682 5.04984 168.486 4.95966 168.376 4.97607C167.594 5.09222 166.824 5.22581 166.06 5.36245C165.375 5.48488 164.7 5.6181 163.862 5.77674C163.677 5.71138 163.394 5.61167 163.067 5.4962C162.866 5.63043 162.638 5.78331 162.404 5.9415C162.265 5.87239 162.14 5.81102 162.002 5.74243C161.338 5.92054 160.671 6.24702 159.998 6.25006C158.154 6.25764 156.682 6.7262 154.951 6.86185C154.075 6.93029 153.257 7.20759 152.485 7.43495C149.926 8.19012 147.192 8.77821 144.2 9.13014C143.955 9.00714 143.766 8.91264 143.575 8.81612C143.192 8.94492 142.805 9.07627 142.306 9.24496L139.771 9.11735C139.332 9.35491 138.931 9.57337 138.481 9.81688L137.444 9.76473C137.054 9.92956 136.747 10.1779 136.329 10.2162C134.397 10.3935 132.543 10.8657 130.44 10.2285C129.545 9.95746 128.006 10.0682 126.697 10.212C127.873 10.302 129.048 10.3924 130.224 10.4829L130.169 10.6277L126.2 10.4279C126.118 10.273 126.038 10.1214 125.903 9.86567C124.355 10.3622 122.993 10.0713 121.681 9.74613C119.837 9.28768 118.059 8.82134 116.514 8.14728C114.518 7.2763 112.376 6.4358 109.813 5.83844C109.569 5.78182 109.38 5.68449 108.976 5.53668L105.516 5.36254C105.422 5.28313 105.337 5.24103 105.359 5.22158C105.399 5.18713 105.512 5.16997 105.581 5.14027C105.697 5.08916 105.804 5.03382 106.009 4.93393L103.893 4.82744C103.799 4.63966 103.724 4.48876 103.631 4.30195C103.408 4.27443 103.144 4.24243 102.44 4.15566C102.739 4.39205 102.875 4.4993 103.026 4.61756C102.854 4.68038 102.642 4.7589 102.322 4.87729C102.968 4.96629 103.548 5.04592 104.128 5.12647C100.183 5.19456 96.2963 5.66208 92.4418 5.18744C91.4901 6.00626 89.9316 6.14357 88.0169 6.01685C85.2311 6.87319 82.4377 7.77677 79.5349 8.61134C76.5092 9.48082 73.1546 10.1577 69.5551 10.3254C66.5215 10.4664 63.265 10.7835 60.3405 9.98119C60.1148 9.9194 59.7594 9.94028 59.4631 9.93096C56.4462 9.84218 54.0132 9.15376 51.5792 8.50031C50.5605 8.22723 49.8398 7.75667 48.8362 7.46893C47.459 7.07414 45.8877 6.83956 44.3189 6.58409C41.5112 6.12758 38.5982 6.12761 35.732 5.93994C33.0851 5.76656 30.4354 5.81954 27.8041 6.03922C27.5261 6.06259 27.1804 6.04472 26.9302 5.99197C26.6864 5.94001 26.5258 5.81798 26.2715 5.70105C26.1118 5.84431 25.9592 5.9814 25.6953 6.21841C25.2491 6.11938 24.8123 6.02221 24.3237 5.91403C24.2481 5.99569 24.1463 6.1045 23.9746 6.29059C21.4965 6.46148 19.2632 7.33955 16.387 6.99447L15.4087 7.32162C15.5705 7.41942 15.7323 7.51722 15.9552 7.65219C14.4261 8.0268 12.7312 8.31416 11.433 8.79519C10.0537 9.30669 8.76237 9.83384 6.84048 10.2611C6.653 10.3894 6.2661 10.6534 5.80603 10.9669C5.36259 11.0473 4.76401 11.1559 4.22686 11.2531C3.84976 12.0023 3.84976 12.0023 2.83423 12.4116L0.574219 11.1935L1.18639 8.9982C1.32497 8.96641 2.22043 8.88119 2.29496 8.7243C2.60196 8.08458 4.22513 7.9678 4.80546 7.45951C5.42094 6.91984 6.6582 6.64168 7.66799 6.26474C9.0425 5.75066 10.3999 5.22685 11.7113 4.68297C14.6667 3.45878 20.3903 2.32394 25.3802 2.09361C26.5594 2.03948 27.702 1.85649 28.8778 1.7751C29.9874 1.69832 31.0819 2.05834 32.296 1.71363C32.7972 1.57168 33.8244 1.763 33.9318 1.76841C34.7688 2.00713 35.1822 2.12506 35.6679 2.26345C35.2174 2.47193 34.9686 2.58737 34.6112 2.75337L38.2243 2.9352C37.3015 2.744 36.9731 2.6761 36.4348 2.56449C38.2565 1.92488 39.9604 1.45539 42.2215 2.1375C42.4375 2.20254 42.7665 2.20929 43.0489 2.22537C46.6992 2.43149 49.7387 3.12101 52.4932 4.16231C53.6091 4.58364 55.1365 4.95611 56.7849 4.94193C58.4014 4.92802 59.6991 5.32395 61.2003 5.43172C65.7578 5.75868 69.9387 5.2364 73.9021 4.34734C76.0023 3.87585 78.0757 3.35864 79.9838 2.76027C83.2987 1.72089 87.0806 1.1832 91.0051 0.839473C93.8264 0.592468 96.7649 0.599787 99.6216 0.450758C102.615 0.295085 105.427 0.653741 108.327 0.658636C110.207 0.661718 111.57 1.09273 112.861 1.53032C115.712 2.4952 118.378 3.55727 121.205 4.53544C122.506 4.98525 124.18 5.17878 125.778 5.3591C128.703 5.68892 131.658 5.49487 134.53 5.22052C136.848 5.00003 139.093 4.63479 141.358 4.31873C145.159 3.78851 148.707 3.02097 152.317 2.29577C155.952 1.56532 159.799 0.967857 163.961 0.911604C165.232 0.894322 166.501 0.729334 167.754 0.603732C170.493 0.328307 173.148 0.680949 175.774 0.747736Z" fill="#F1A5C3"/>
</svg>
