<svg width="50" height="8" viewBox="0 0 50 8" fill="none" xmlns="http://www.w3.org/2000/svg">
<path fill-rule="evenodd" clip-rule="evenodd" d="M46.3745 3.13858C47.2616 3.23229 48.0864 3.30802 48.9022 3.41268C49.1292 3.44178 49.5462 3.44333 49.4987 3.64842C49.4464 3.87404 49.0299 3.84548 48.7559 3.82913C47.2792 3.74205 45.8054 3.63047 44.3293 3.54042C39.8718 3.26855 35.4028 3.17762 30.9279 3.14634C25.029 3.10511 19.1519 3.3865 13.2678 3.57899C10.1588 3.6808 7.05453 3.88343 3.93475 3.80754C3.08585 3.78676 2.25838 3.69042 1.4504 3.52293C0.0844216 3.23975 -0.360858 2.56017 0.303784 1.74113C0.65576 1.30724 0.96136 0.844293 1.66779 0.583707C2.0551 0.440869 2.39757 0.34303 2.67775 0.690471C2.91526 0.985154 3.3669 1.01419 3.82883 1.10575C5.48724 1.43507 7.20331 1.25344 8.75979 1.08257C10.7469 0.864165 12.7593 0.73296 14.7445 0.576335C17.0707 0.392726 19.4337 0.289403 21.7901 0.210539C24.7124 0.112648 27.6361 0.203465 30.5575 0.0782949C31.4212 0.0408216 32.3934 0.00167143 33.2301 0.324511C33.252 0.332926 33.2981 0.333703 33.3153 0.324401C34.1862 -0.146208 35.1753 0.6885 36.0548 0.219931C36.1475 0.170728 36.3752 0.15314 36.4673 0.192935C37.6379 0.698735 39.0309 0.356856 40.2679 0.627448C40.7127 0.724647 41.2353 0.788301 41.6986 0.572614C41.7821 0.533776 41.9525 0.512081 42.0318 0.541477C43.1023 0.939434 44.419 0.641835 45.478 1.06574C45.5477 1.0937 45.6642 1.11747 45.7287 1.09857C46.8386 0.776415 47.6345 1.65835 48.7622 1.42577C49.1245 1.35111 49.7869 2.21718 49.4931 2.46839C49.1887 2.72885 49.3232 2.75901 49.6506 2.83671C49.8415 2.88223 50.0761 2.93318 49.9761 3.11045C49.8674 3.30243 49.6203 3.24684 49.3833 3.2226C48.5507 3.13724 47.7153 3.06189 46.8799 2.98806C46.7143 2.9734 46.5251 2.94466 46.3745 3.13858Z" fill="#F1A5C3"/>
<path fill-rule="evenodd" clip-rule="evenodd" d="M35.489 7.51333C34.7086 7.20678 34.7071 6.86996 35.4176 6.23869C35.8665 5.8399 36.4287 5.64408 37.2647 5.64627C39.3823 5.65167 41.4919 5.45261 43.6155 5.47855C44.3394 5.48737 44.3467 5.62114 44.3293 6.08398C44.295 7.00227 43.3063 7.10541 42.332 7.2411C40.5972 7.4831 38.8584 7.7242 37.0652 7.67212C36.4831 7.65538 35.9071 7.62112 35.489 7.51333Z" fill="#F1A5C3"/>
</svg>
