<svg width="240" height="23" viewBox="0 0 240 23" fill="none" xmlns="http://www.w3.org/2000/svg">
<path fill-rule="evenodd" clip-rule="evenodd" d="M173.687 13.9675C173.666 14.132 173.645 14.2959 173.625 14.4605C176.27 14.8457 178.902 14.7935 181.516 14.0991C178.906 14.0556 176.297 14.0116 173.687 13.9675ZM86.0277 14.4699C83.3007 14.3132 80.5232 14.2649 77.8224 14.8503C80.5808 15.1994 83.2945 15.0661 86.0277 14.4699ZM121.651 17.6063C124.596 18.3401 129.125 18.1726 132.094 17.3892C128.514 17.4636 125.082 17.5349 121.651 17.6063ZM141.405 10.9543C143.409 10.4093 145.964 10.578 147.681 9.57524C145.531 9.93746 142.631 9.10083 141.405 10.9543ZM23.8245 11.6163C26.849 12.2861 29.0021 12.3613 31.322 10.972C28.6555 11.1811 26.5058 10.9422 23.8245 11.6163ZM159.907 9.64406C158.518 8.40279 152.957 8.52218 150.33 9.86408C153.438 9.25737 156.617 9.74613 159.907 9.64406ZM138.892 10.331C132.189 11.0792 125.491 11.4265 118.459 11.2883C121.289 12.9352 135.065 12.2492 138.892 10.331ZM95.959 7.69493C89.3383 6.8245 82.9037 8.6317 76.3034 8.15099C75.6014 8.10031 74.7292 8.31455 74.7613 8.74762C74.8012 9.29148 75.7691 9.37097 76.5638 9.36083C79.9173 9.31961 83.2868 9.03234 86.5918 9.03954C90.0606 9.0478 92.8694 8.23882 95.9098 7.64763C99.6039 8.24172 103.21 7.71621 106.97 7.48664C105.13 5.93856 100.083 6.0895 95.959 7.69493ZM177.614 22.4438C171.518 22.586 166.884 21.208 163.89 18.1038C163.147 17.3326 162.094 16.5933 160.497 16.6613C156.344 16.8371 152.293 16.0712 148.057 16.5601C141.551 17.3114 135.226 18.5957 128.543 18.8368C126.014 18.9284 123.481 18.9895 120.902 19.0652C120.374 19.7375 122.077 19.4392 122.117 19.9087C121.801 19.9325 121.457 20.0236 121.236 19.9639C117.482 18.9508 112.881 18.5346 111.062 16.038C110.378 15.0981 108.854 14.6747 108.143 13.7835C107.892 13.4699 105.729 13.505 104.513 13.6263C97.6749 14.3089 90.8754 15.1213 84.0263 15.769C81.6457 15.9937 79.1654 15.9029 76.7315 15.8975C75.6956 15.8945 74.8643 15.8116 74.2635 15.0341C73.8025 14.4404 72.9282 13.1934 70.7666 14.0005C69.8966 13.0044 67.0817 13.4744 66.6308 11.9261C66.1207 10.172 63.7969 10.1256 60.8409 10.3012C56.7569 10.5438 54.0906 12.4454 50.1888 12.6846C49.3853 12.7339 48.799 13.0638 48.3165 13.4519C47.9769 13.7239 47.4534 14.18 47.1149 14.1513C43.9059 13.8804 43.3793 15.8123 41.2898 16.4178C37.9614 17.3806 34.6679 18.4195 30.7911 18.4703C29.5844 18.4857 29.6142 18.513 28.6578 19.2794C28.4932 19.4123 27.9625 19.4343 27.5976 19.4391C25.0931 19.4739 24.2234 19.0072 22.3422 17.1268C21.9822 16.7666 20.6432 16.7359 19.7651 16.5394C16.7257 15.8572 16.7703 13.8322 14.7351 12.7084C14.3594 12.5013 13.9869 11.8596 13.6032 12.1909C11.9962 13.5817 8.45703 13.0356 6.98038 14.5139C6.51061 14.9827 5.63563 15.33 4.88127 15.6878C4.05414 16.0802 3.04353 16.5606 2.02151 16.3138C1.15224 16.1044 1.36178 15.3959 1.57753 14.9179C2.0103 13.9564 -0.565551 13.7932 0.115266 12.586C0.895182 11.2028 2.27198 10.0948 3.93555 9.22448C8.02582 7.08439 10.5666 4.34529 13.4641 1.74203C14.2962 0.994817 14.9781 0.483862 16.6752 0.671078C18.2666 0.846733 18.8709 1.29692 19.5952 2.1995C21.0219 3.97467 21.3862 5.80404 21.7755 7.6613C21.9926 8.69636 23.0371 9.21707 24.6622 9.27104C28.5467 9.40223 32.3345 9.28444 35.4984 7.67374C41.3117 4.71273 48.5759 3.46996 55.6945 2.01694C57.3736 1.67428 59.0165 1.07698 60.6725 0.59378C62.5798 0.0366435 64.6046 -0.0703513 66.6344 0.185206C68.7842 0.455599 69.7145 1.31193 70.1959 2.56935C71.5127 6.00687 73.6871 6.77537 79.8133 6.32432C86.3785 5.84098 92.9354 5.22431 99.5307 5.01271C102.576 4.91562 105.591 4.35808 108.757 4.76736C111.438 5.11385 113.748 5.64598 114.663 7.18547C115.656 8.85184 117.784 9.22755 120.413 9.25126C127.521 9.31479 134.557 8.92545 141.497 8.05187C146.788 7.38582 152.125 6.85009 157.522 6.7251C161.58 6.63022 165.46 7.22016 167.798 9.39359C169.752 11.2096 172.6 11.7291 176.071 11.7582C184.794 11.8313 193.321 10.9395 201.845 10.0712C211.795 9.05896 221.577 7.52974 231.633 6.8358C234.018 6.6714 236.436 6.38653 238.686 7.34254C237.369 8.31272 235.672 8.12671 234.181 8.15375C230.935 8.21257 227.762 8.48748 224.646 8.98732C224.25 9.0506 223.49 9.12276 223.723 9.48887C223.981 9.8939 224.458 9.63785 225.039 9.58055C228.986 9.18595 232.858 8.20679 236.989 8.91587C238.013 9.09177 239.672 8.95163 238.498 10.1014C238.075 10.5145 239.086 10.5782 239.419 10.8076C239.742 11.0311 240.233 11.4186 239.874 11.5076C238.472 11.8544 238.038 12.9921 236.787 13.0996C231.843 13.526 226.949 14.2591 222.403 15.2634C217.314 16.388 211.492 16.4704 207.093 18.6116C203.644 17.9991 201.601 20.4659 197.86 19.8691C195.433 19.4816 193.012 20.7875 190.767 21.3777C186.399 22.5261 182.031 22.4608 177.556 22.4428C180.091 21.6063 183.123 22.1099 185.723 21.4141C181.98 21.6857 178.233 21.5038 174.425 21.5912C175.225 22.3492 177.137 21.4474 177.614 22.4438Z" fill="#FDF9FA"/>
</svg>
