<svg width="180" height="18" viewBox="0 0 180 18" fill="none" xmlns="http://www.w3.org/2000/svg">
<path fill-rule="evenodd" clip-rule="evenodd" d="M100.635 9.34358C100.457 9.13722 100.229 9.46808 100.121 9.24919C100.019 9.04167 99.6217 9.05888 99.3974 8.95134C99.2853 8.89778 99.3171 8.84849 99.437 8.83262C99.8842 8.79521 100.175 9.07998 100.614 8.99368C100.726 8.91651 100.817 8.8535 100.913 8.78667C101.349 8.98707 101.215 9.31685 101.634 9.48895C102.48 9.56338 102.615 9.23123 102.873 8.96666C102.902 8.93828 103.035 8.9368 103.121 8.92289C103.319 9.10337 102.802 9.21599 102.917 9.34446C103.387 9.72801 103.56 9.23892 104.136 9.34314C104.05 9.33953 103.872 9.50191 104.16 9.46505C104.459 9.38809 104.338 9.13588 104.742 9.10101C105.455 9.40872 106.19 9.45026 107.617 9.26381C107.655 9.31616 107.694 9.36864 107.732 9.42087C108.052 9.42652 107.998 9.17896 108.33 9.1931C108.682 9.20179 108.642 9.38664 108.821 9.47371C110.585 9.36716 110.585 9.36716 111.454 9.54445C111.906 9.43351 112.495 9.28914 113.083 9.14478C113.652 9.14269 113.621 9.4355 113.901 9.53033C114.511 9.40411 115.157 9.29658 115.743 9.45323C116.169 9.56749 116.562 9.51983 116.972 9.53747C117.937 9.57975 118.904 9.6115 119.867 9.6632C120.033 9.67193 120.295 9.70425 120.227 9.8932C119.682 9.92567 119.142 9.95737 118.55 9.91734C117.288 9.8327 116.007 9.75239 114.742 9.7755C113.465 9.79825 112.195 9.60138 110.906 9.7773C110.627 9.81553 110.197 9.77202 109.845 9.75366C107.917 9.65305 105.979 9.68779 104.038 9.72161C102.982 9.73998 101.885 9.87781 100.835 9.66705C100.744 9.64888 100.674 9.60315 100.595 9.56973C100.613 9.46711 100.631 9.36408 100.635 9.34358ZM107.876 5.82249C107.932 5.94619 107.963 6.01332 108.001 6.10004C107.369 6.05808 106.903 5.93264 106.616 5.61771L106.391 5.86763C106.287 5.87633 106.144 5.91109 106.09 5.88938C105.631 5.70404 105.062 5.71553 104.568 5.74063C103.989 5.7701 103.432 5.94995 102.881 5.70421C102.842 5.68707 102.763 5.66593 102.734 5.67444C101.624 6.00246 100.334 5.74767 99.1875 5.95909C98.8111 6.02827 99.1601 6.12648 99.1072 6.26449C97.9489 6.04883 96.8266 5.69698 95.3731 5.99159C95.3641 5.99934 95.2269 6.11298 95.0946 6.22337C94.9529 6.27966 94.9061 6.26197 94.8639 6.18359C94.7402 5.95627 94.3784 5.86492 93.9892 5.93349C92.8283 6.13772 91.6263 6.04459 90.4498 6.0721C88.2821 6.12308 86.1455 6.29668 83.9936 6.40054C81.8257 6.5051 79.6781 6.65003 77.5325 6.83206C74.7035 7.07188 71.8671 7.2791 69.0465 7.5548C67.2213 7.73268 65.3763 7.91104 63.5184 8.03413C61.7483 8.15086 60.0215 8.4263 58.2633 8.60247C56.2001 8.80876 54.1901 9.12927 52.0977 9.28263C51.0531 9.3595 50.0699 9.62375 49.0001 9.73142C45.03 10.1305 41.3044 10.9259 37.5261 11.6323C36.8436 11.7602 36.1397 11.8726 35.7427 12.3239C36.6993 12.3691 37.5436 12.3973 38.3884 12.2332C39.626 11.9928 40.8716 11.7629 42.1138 11.5284C42.7346 11.4112 43.341 11.2344 43.9804 11.1935C44.6212 11.1526 45.1701 10.9936 45.8006 10.9479C46.4231 10.9028 47.0132 10.7737 47.6479 10.7114C48.746 10.6042 49.8118 10.3884 50.8939 10.2248C52.2767 10.0159 53.7088 9.97767 55.0859 9.76778C56.4934 9.55376 57.9627 9.4454 59.3991 9.27714C59.8615 9.2229 60.2612 9.07532 60.7986 9.21568C61.0077 9.27047 61.4182 9.16204 61.7075 9.09533C62.7407 8.85631 63.8582 8.8283 64.9528 8.74133C66.0809 8.65198 67.212 8.57183 68.3397 8.48138C71.5748 8.22171 74.8204 7.98961 78.0397 7.6852C80.0835 7.49236 82.1725 7.5137 84.1993 7.27822C84.9177 7.42913 85.4561 7.04845 86.2075 7.12189C86.7795 7.17731 87.4117 7.20297 88.0587 7.08479C88.5226 7.00002 89.0185 6.87617 89.5607 6.88599C90.1215 6.89605 90.6862 6.89954 91.2449 6.87788C91.8122 6.8562 92.3917 6.8299 92.9343 6.75053C93.5032 6.66711 94.084 6.74019 94.6191 6.67503C94.9231 6.63789 95.299 6.80921 95.4939 6.61905C95.6776 6.44054 95.8893 6.45621 96.1424 6.54296C96.6258 6.70911 97.1565 6.6178 97.6603 6.62952C97.8572 6.53045 97.7976 6.35131 98.1542 6.27888C98.802 6.72425 99.9095 6.4526 100.727 6.68298C101.297 6.25909 102.057 6.66842 102.7 6.56633C103.365 6.4611 104.011 6.65385 104.694 6.57965C105.802 6.45958 106.937 6.54048 108.061 6.53513C109.135 6.52983 110.215 6.51919 111.279 6.45744C111.726 6.43178 111.875 6.49658 112.003 6.73596C112.927 6.29934 114.267 6.96207 115.177 6.36111C115.282 6.44255 115.371 6.58527 115.488 6.59099C116.554 6.64477 117.605 6.78689 118.694 6.72432C119.569 6.67414 120.474 6.65959 121.273 6.85536C121.672 6.95257 122.073 6.90575 122.346 6.88155C124.094 6.726 125.722 7.02549 127.387 7.15727C128.705 7.26151 130.03 7.31221 131.352 7.38489C132.983 7.47462 134.625 7.50934 136.234 7.71527C137.219 7.841 138.27 7.82671 139.274 7.92229C139.989 7.99044 140.775 7.95146 141.398 8.19292C141.864 8.37332 142.43 8.17702 142.952 8.33133C143.142 8.38754 143.748 8.28679 143.963 8.4319C144.233 8.61402 144.779 8.22714 144.851 8.58139C145.594 8.62972 146.356 8.75407 147.076 8.70903C148.279 8.63371 149.303 8.93176 150.424 9.01456C152.226 9.14813 153.876 9.63748 155.74 9.67693C156.322 9.99669 157.433 9.69917 157.926 10.1722C158.044 10.2852 158.479 10.1429 158.823 10.1944C160.657 10.4685 162.556 10.645 164.25 11.117C164.62 11.22 165.226 11.0248 165.375 11.3597C165.978 11.1926 166.4 11.446 166.884 11.5356C167.35 11.6216 167.804 11.8421 168.24 11.8271C169.328 11.7896 169.781 12.3279 170.699 12.4284C171.468 12.5123 172.084 12.8667 172.978 12.7701C173.108 12.7562 173.364 12.8141 173.413 12.8718C173.742 13.2572 174.504 13.3248 175.131 13.4345C176.229 13.6266 176.934 14.1233 178.013 14.3192C178.142 14.3428 178.164 14.5198 178.279 14.6906C177.27 14.4703 176.218 14.4013 175.497 13.95C175.309 13.8323 174.949 13.7804 174.656 13.7116C172.902 13.3003 171.126 12.9113 169.396 12.4752C168.613 12.2781 167.714 12.3699 166.951 12.1159C166.266 11.8879 165.472 11.6325 164.703 11.6117C163.852 11.5886 163.212 11.2792 162.432 11.3003C161.588 11.3236 161.043 10.9996 160.311 10.9321C158.744 10.7875 157.303 10.4074 155.761 10.2623C154.484 10.1424 153.248 9.93521 151.967 9.85146C151.669 9.83203 151.761 9.53582 151.301 9.69233C151.024 9.78643 150.707 9.60263 150.411 9.54299C150.14 9.4886 149.901 9.66322 149.642 9.55338C149.35 9.43003 148.996 9.56235 148.733 9.5147C147.985 9.37866 147.242 9.25812 146.466 9.1575C144.953 8.96109 143.416 8.85194 141.896 8.68892C141.163 8.92083 140.68 8.40345 139.903 8.53616C139.328 8.63417 138.69 8.42595 138.085 8.3653C136.075 8.16271 134.038 8.00904 131.999 7.90221C130.567 7.82727 129.132 7.83771 127.723 7.61934C127.124 7.52658 126.391 7.56312 125.749 7.57145C123.89 7.59584 122.08 7.41187 120.254 7.32138C119.377 7.27801 118.515 7.32796 117.649 7.31269C116.222 7.28667 114.819 7.11101 113.364 7.20172C112.413 7.26096 111.414 7.01011 110.456 7.26053C109.772 6.88786 108.935 7.26182 108.158 7.13927C107.397 7.0196 106.546 7.17581 105.717 7.11724C104.967 7.0642 104.187 7.10516 103.423 7.12886C102.656 7.15232 101.893 7.20582 101.127 7.24598L100.805 7.60305C100.508 7.45671 100.331 7.24412 99.916 7.23128C99.624 7.23053 99.6126 7.37651 99.4454 7.43532C99.3426 7.43143 99.2271 7.44254 99.1419 7.42137C98.1152 7.16879 96.9582 7.16283 95.9481 7.26201C94.1511 7.4383 92.3505 7.36228 90.5581 7.44226C88.4563 7.53573 86.3596 7.67177 84.259 7.74244C81.7817 7.82556 79.3594 8.09659 76.8845 8.18229C75.1789 8.24172 73.4909 8.44373 71.7991 8.59225C69.639 8.78213 67.493 9.02243 65.3214 9.16584C63.5528 9.28255 61.8377 9.51899 60.0889 9.67595C58.3284 9.83393 56.5583 9.98629 54.8268 10.2417C53.3148 10.4649 51.7398 10.5765 50.1971 10.7492C48.4962 10.9397 46.8262 11.1914 45.1204 11.3747C43.9828 11.4968 42.8164 11.6553 41.7024 11.8616C39.7837 12.2172 37.8704 12.5816 35.9583 12.9463C35.7162 12.9924 35.4025 12.9951 35.3012 13.186C35.4883 13.4725 35.9962 13.4567 36.5057 13.3785C36.3731 13.784 35.5932 13.6466 35.3714 13.9021C35.281 14.0423 35.532 14.1499 35.5688 14.2854C35.9634 14.0745 36.0838 14.4596 36.3746 14.383C36.6862 14.3012 37.0216 14.4953 37.3003 14.3403C37.642 14.4422 37.1404 14.5857 37.5021 14.7528C38.3086 14.6571 39.225 14.5609 40.1275 14.438C40.7423 14.3541 41.3078 14.2108 41.9827 14.2047C42.5397 14.1996 43.0481 13.8975 43.6824 14.1289C43.798 14.1711 43.9199 14.0485 44.0357 14.0127C44.838 13.7647 46.1288 13.6623 47.3545 13.692C48.0252 13.7083 48.7117 13.6309 49.342 13.5638C50.4759 13.4436 51.591 13.2745 52.7481 13.196C52.9358 13.1834 53.1164 13.1165 53.2962 13.046C54.0793 12.7385 54.9741 12.6234 55.9749 12.7359C56.491 12.7939 56.716 12.7282 57.4964 12.5688C57.8734 12.4922 58.314 12.4682 58.7129 12.428C60.352 12.2625 62.0214 12.1936 63.6462 12.0142C64.6298 11.9058 65.6535 12.1818 66.5747 11.876C67.1871 12.1206 67.7024 11.8411 68.2665 11.8038C69.6463 11.7123 71.018 11.4736 72.4086 11.5917C72.9055 11.634 72.9803 11.1852 73.4703 11.4448C74.788 11.3052 76.1488 11.3749 77.4585 11.2478C77.9608 11.1991 78.5058 11.0147 78.9744 11.0803C79.8662 11.2048 80.7031 10.7694 81.5607 11.0644C82.3105 10.7264 83.1588 10.9154 83.9944 10.9141C84.64 10.913 85.2128 10.6934 85.9803 10.812C86.6254 10.9116 87.3987 10.8089 88.1131 10.7783C88.8298 10.748 89.5269 10.5973 90.2639 10.6912C90.7433 10.3388 91.487 10.5068 92.0925 10.491C92.7447 10.4738 93.4366 10.3651 94.0748 10.5085C94.572 10.6202 94.8797 10.1427 95.4532 10.4401C95.8068 10.6236 96.353 10.4558 96.8123 10.4636C97.2544 10.4711 97.7703 10.5709 98.0805 10.264C98.1687 10.1766 98.5468 10.1448 98.8023 10.1259C99.8183 10.0505 100.923 10.2956 101.853 9.90652C102.394 10.0718 103.044 9.89699 103.519 9.98433C105.06 10.2683 106.601 10.0729 108.117 10.0431C109.24 10.0209 110.394 10.2666 111.494 9.98444C112.217 10.2435 113.041 9.97885 113.781 10.0956C114.647 10.2322 115.526 10.0226 116.382 10.1434C117.239 10.2642 118.118 10.1585 118.982 10.2164C119.127 10.226 119.291 10.1631 119.519 10.1201C120.68 10.6269 122.344 10.1384 123.819 10.6138C123.103 10.6266 122.614 10.6353 121.861 10.6486C123.219 11.0109 124.499 10.8198 125.679 10.9619C126.844 11.1016 128.111 11.059 129.332 11.1171C130.551 11.1749 131.799 11.1517 132.99 11.2742C134.206 11.3992 135.443 11.3867 136.656 11.5173C137.856 11.6466 139.091 11.6907 140.374 11.7767C140.482 11.6787 140.611 11.5623 140.74 11.4461C141.768 11.3078 142.63 11.7141 143.633 11.6774C143.778 11.6723 143.957 11.7863 144.08 11.7699C145.206 11.6199 146.202 11.9732 147.286 11.9676C148.405 11.9618 149.361 12.3129 150.474 12.3435C151.767 12.3792 152.981 12.6474 154.275 12.7064C154.945 12.7368 155.5 13.053 156.249 12.9426C157.06 13.2434 158.066 13.2511 158.982 13.3738C159.806 13.4843 160.636 13.5629 161.395 13.7678C162.302 13.5337 162.917 14.1871 163.84 13.9775C163.974 13.9474 164.24 14.0538 164.432 14.1082C165.661 14.4538 167.048 14.5415 168.369 14.7363C168.753 14.7932 168.863 15.0465 169.316 15.0604C171.118 15.1157 172.524 15.7032 174.151 15.9943C174.835 16.1167 175.334 16.3355 175.729 16.6329C175.639 16.6556 175.548 16.6776 175.443 16.7034C175.276 17.1726 175.847 17.4171 176.604 17.4767C177.233 17.5257 177.475 17.2065 177.652 16.9258C178.283 16.9112 178.983 16.9427 179.136 16.5103C179.222 16.2652 179.624 16.1711 179.947 16.0336C179.911 15.7979 179.72 15.5327 179.872 15.3367C180.213 14.8998 179.81 14.5633 179.385 14.2727C178.936 13.9663 178.318 13.7195 177.7 13.4753C175.994 12.8012 173.965 12.4695 172.067 12.0021C170.179 11.5375 168.251 11.1155 166.352 10.6624C165.671 10.5002 164.898 10.5842 164.209 10.3729C163.597 10.1854 162.949 9.90938 162.106 10.0485C161.107 9.69242 159.825 9.77699 158.768 9.46997C157.428 9.08061 155.879 8.97429 154.385 8.81442C154.051 8.7789 153.7 8.68777 153.428 8.69317C152.989 8.70212 152.659 8.61051 152.379 8.51139C151.806 8.30894 151.138 8.40761 150.527 8.3138C149.902 8.21788 149.206 8.18931 148.715 8.03295C148.374 8.10829 148.416 8.28372 147.995 8.25233C147.676 7.86962 146.934 7.84006 146.115 7.79333C144.517 7.70194 142.941 7.52594 141.401 7.27285C140.921 7.19416 140.391 7.18992 139.881 7.16685C138.583 7.1085 137.286 7.05388 135.96 6.75126C135.765 6.80599 135.478 6.88646 135.303 6.93586C134.981 6.87904 135.182 6.71983 134.808 6.71441C134.145 6.70502 133.454 6.73299 132.827 6.56654C132.736 6.54257 132.628 6.52926 132.525 6.52371C132.199 6.50725 131.776 6.87394 131.553 6.45767C131.095 6.67888 130.676 6.33353 130.168 6.44088C129.83 6.51258 129.326 6.41153 128.976 6.36925C128.553 6.31817 128.141 6.37815 127.739 6.3104C126.953 6.17696 126.035 6.4398 125.372 6.11151C125.04 6.11544 125.037 6.26571 124.858 6.31987C124.41 6.14938 122.861 6.04127 121.896 6.11524C121.898 6.19969 121.902 6.28564 121.904 6.37243C121.79 6.36626 121.644 6.38066 121.594 6.35212C121.257 6.15555 121.023 5.86788 120.333 6.03111C119.248 5.81957 118.071 5.85357 116.981 5.87406C116.025 5.89238 115.138 5.8101 114.23 5.74584C113.363 5.68435 112.487 5.90574 111.637 5.70478C110.432 5.92978 109.16 5.63354 107.876 5.82249Z" fill="#F1A5C3"/>
<path fill-rule="evenodd" clip-rule="evenodd" d="M58.6967 0.971939C59.2753 1.14225 60.1219 0.916113 60.558 1.29625C60.5465 1.53487 60.0993 1.49221 59.8241 1.61003C58.9658 1.36241 58.089 1.38129 57.0985 1.41815C56.121 1.45464 55.2021 1.64972 54.184 1.61126C53.225 1.57537 52.2354 1.72445 51.2642 1.80584C50.2845 1.88766 49.3112 1.98689 48.3345 2.07653C47.5648 2.14781 46.7725 2.1789 46.0276 2.29227C44.2493 2.56253 42.4275 2.72558 40.6236 2.93388C39.687 3.04201 38.7933 3.23002 37.8428 3.34171C36.2115 3.53349 34.6559 3.89019 33.0259 4.08941C31.2716 4.30417 29.6396 4.70112 27.9119 4.92577C24.0172 5.43237 20.3838 6.29741 16.6051 6.96063C15.991 7.06816 15.3893 7.19825 14.7682 7.30549C13.4053 7.54109 11.9628 7.72796 10.9324 8.28461C10.5353 8.49897 10.0805 8.24176 9.60108 8.44816C9.18428 8.62807 8.5068 8.78667 7.86542 8.85118C7.21432 8.91682 6.65794 9.11447 6.05724 9.23461C5.33481 9.37935 4.61636 9.57966 3.84371 9.74157C3.51396 10.0079 3.17854 10.2909 2.8103 10.5629C2.7479 10.6091 2.54551 10.6062 2.42598 10.6231C2.19286 10.4979 2.74317 10.3396 2.14094 10.2096C1.45079 10.2926 0.662836 10.4248 0.000255468 10.7654C-0.0099842 10.856 0.29045 10.854 0.388052 10.9398C0.479052 11.0204 0.445864 11.1579 0.782673 11.0823C1.15028 10.9998 0.985346 11.2153 1.14951 11.2644C1.61549 11.1818 1.49364 10.8799 1.83784 10.7523C2.45766 10.6295 2.24614 11.0462 2.71577 11.067C3.13767 10.9836 3.46951 10.789 3.86524 10.6191L4.42288 10.7489C5.50758 10.5595 6.23309 9.98993 7.50984 10.0631C8.11736 10.0976 8.32628 9.68676 9.04278 9.75376C9.54322 9.80034 9.92457 9.50493 10.318 9.35317C10.5088 9.22824 10.2353 9.14116 10.2953 9.01394C11.0245 8.97497 10.8262 9.34963 11.1017 9.51151C11.4595 9.44376 11.821 9.37552 12.1833 9.30713C12.1364 9.23174 12.0894 9.15565 12.043 9.07969C12.5211 9.01993 12.7302 8.72447 13.2423 8.72694C13.5959 8.74747 13.6387 8.89625 13.7371 9.01383C13.969 8.97007 14.1759 8.93101 14.3796 8.89256C14.3321 8.81703 14.2844 8.7411 14.2359 8.66297C15.1153 8.73972 15.1153 8.73972 16.0899 8.5695C16.2438 8.37963 15.46 8.42355 15.8866 8.08608C16.2562 7.93183 17.2014 8.34224 17.6136 7.89857C17.7171 7.98749 17.8172 8.07426 17.9825 8.21691C18.6699 8.03619 19.4479 7.96242 20.0733 7.78967C20.7794 7.59495 21.5735 7.60401 22.2906 7.3786L22.71 6.91355C23.2271 7.02542 23.7222 6.76973 24.1912 6.83784C25.7681 7.06711 27.0199 6.6302 28.3098 6.33925C28.7826 6.23278 29.1752 6.04859 29.7363 6.08045C29.9161 6.09074 30.0388 6.08503 30.123 5.99094C30.4805 5.59391 31.0729 5.50816 31.8613 5.64281C32.2599 5.71117 32.6058 5.64168 32.8011 5.44075C33.1166 5.11541 33.7302 5.13878 34.1575 5.06719C34.6841 5.2054 34.1629 5.35896 34.4362 5.50403C34.6792 5.33016 35.4953 5.52521 35.3661 5.08041C35.3582 5.0528 35.7709 4.93743 35.9068 4.96532C36.4515 5.07616 36.9492 5.06203 37.4483 4.91894C38.1169 5.15907 38.7224 4.95146 39.2843 4.81653C40.0324 4.63669 40.8537 4.62084 41.6227 4.54226C42.5803 4.44412 43.4425 4.31325 44.2273 4.02385C44.4456 3.94332 44.7118 3.89702 44.8948 3.85037C45.484 4.03265 45.9326 4.05665 46.5308 3.98446C48.5093 3.74623 50.4855 3.47724 52.5331 3.42682C53.2472 3.40909 53.6897 3.18221 54.0069 2.91124C54.2138 2.73371 54.5366 2.73725 54.7396 2.67658C55.518 3.07124 56.6984 2.67642 57.309 3.08903C57.7945 2.94037 57.7523 2.70792 58.0657 2.55078C58.9685 2.62381 59.9308 2.7012 60.8841 2.77819C61.1004 2.89981 60.6792 3.04239 61.0516 3.19252C61.4433 3.23586 61.9896 3.08132 62.577 3.42101C62.4241 3.16687 62.3783 3.09104 62.334 3.01725C62.5654 2.91026 62.8517 3.13946 63.0758 2.97544C63.3324 2.77386 62.9508 2.6192 62.8954 2.44137C63.2884 2.28272 63.6787 2.1248 64.0473 1.97609C63.8751 1.69743 63.5629 1.75915 63.243 1.82791C63.1111 1.68895 62.8622 1.56348 63.0699 1.37696C63.2525 1.17818 63.5595 1.45258 63.8221 1.32434C63.3613 0.78269 62.0255 1.06021 61.4732 0.608915C61.0937 0.716394 60.8069 0.797281 60.5248 0.877537C60.4389 0.776442 60.3974 0.727736 60.3215 0.638479C59.7725 0.649485 59.1875 0.65959 58.6037 0.675062C58.5777 0.675787 58.557 0.723225 58.5339 0.748749C58.43 0.852846 58.4845 0.927286 58.6967 0.971939Z" fill="#F1A5C3"/>
<path fill-rule="evenodd" clip-rule="evenodd" d="M58.6967 0.971939C58.4845 0.927286 58.43 0.852846 58.5339 0.748749C57.4944 0.454836 56.3811 0.635187 55.3298 0.674198C53.5815 0.738644 51.8471 0.916611 50.1088 1.04108C48.8243 1.13272 47.5321 1.33963 46.237 1.47563C44.4786 1.66022 42.7756 1.95375 40.9981 2.1054C39.9483 2.19533 38.9453 2.42444 37.917 2.57875C36.4687 2.79651 34.9551 2.91185 33.5576 3.23171C32.835 3.39744 32.0991 3.5652 31.2476 3.56721C30.8786 3.5682 30.4464 3.65561 30.1427 3.86559C29.9934 3.96896 29.4682 3.88539 29.097 3.94731C25.4164 4.56617 21.7464 5.1977 18.1189 5.89475C15.875 6.32575 13.7163 6.85633 11.4914 7.31075C9.72356 7.67167 7.96502 8.08599 6.2875 8.54972C5.64207 8.72834 4.77114 8.79033 4.30525 9.12986C4.47833 9.33644 4.74233 9.35038 4.99582 9.26413C6.61677 8.71053 8.39962 8.33444 10.2426 8.028C10.8624 7.92521 11.2794 7.65914 11.9227 7.56726C12.4713 7.48862 13.0407 7.42024 13.4892 7.17406C13.7571 7.02737 14.2996 6.93033 14.7014 6.9441C15.3687 6.96708 15.8263 6.75154 16.3862 6.68705C16.9709 6.62021 17.42 6.46003 17.9291 6.34742C18.6668 6.18419 19.5841 6.23819 20.2077 5.89635C20.9868 6.0458 21.429 5.59486 22.0386 5.60406C22.7609 5.61506 23.1994 5.35842 23.8083 5.27445C24.3821 5.19523 24.9986 5.15683 25.5557 5.01467C26.1435 4.86438 26.7899 4.77286 27.4098 4.65585C28.0305 4.53868 28.648 4.4177 29.2729 4.30557C29.8728 4.19746 30.5221 4.15007 31.1086 4.05682C32.3971 3.85177 33.7422 3.76033 35.0033 3.49017C36.3654 3.19839 37.8344 3.06587 39.2811 2.89798C40.7236 2.73044 42.215 2.58857 43.5814 2.32087C44.6088 2.1195 45.7502 2.22127 46.6836 1.90638C47.4541 2.04977 48.0775 1.73333 48.8329 1.71573C49.3949 1.70229 50.1216 1.65798 50.7013 1.42707C50.9871 1.31306 51.7863 1.49875 52.0067 1.38104C52.4297 1.15574 52.7199 1.30949 53.098 1.30655C53.3878 1.30444 53.7188 1.32854 54.0202 1.2833C55.4773 1.06387 56.9689 1.04183 58.4728 1.07286C58.5449 1.07438 58.6222 1.00719 58.6967 0.971939Z" fill="#F1A5C3"/>
</svg>
