<svg width="160" height="16" viewBox="0 0 160 16" fill="none" xmlns="http://www.w3.org/2000/svg">
<path fill-rule="evenodd" clip-rule="evenodd" d="M89.4532 8.27638C89.295 8.09295 89.0927 8.38704 88.9968 8.19247C88.9055 8.00801 88.5526 8.02331 88.3532 7.92772C88.2536 7.88011 88.2819 7.8363 88.3884 7.82219C88.786 7.78894 89.044 8.04206 89.4351 7.96536C89.5343 7.89676 89.6151 7.84075 89.7008 7.78135C90.0876 7.95948 89.9693 8.25262 90.3414 8.4056C91.0935 8.47176 91.2131 8.17652 91.443 7.94134C91.4682 7.91612 91.5869 7.9148 91.6634 7.90244C91.8394 8.06286 91.3791 8.16297 91.4822 8.27716C91.8997 8.6181 92.0537 8.18334 92.5658 8.27598C92.4885 8.27278 92.331 8.41712 92.5868 8.38435C92.8528 8.31594 92.745 8.09176 93.1043 8.06076C93.7376 8.33428 94.3914 8.37121 95.6596 8.20547C95.6936 8.25201 95.7282 8.29866 95.7617 8.34508C96.0464 8.3501 95.9978 8.13005 96.2929 8.14262C96.606 8.15034 96.5706 8.31466 96.7294 8.39205C98.2976 8.29734 98.2976 8.29734 99.0706 8.45493C99.4724 8.35631 99.9955 8.22799 100.519 8.09967C101.024 8.09781 100.996 8.35808 101.246 8.44238C101.788 8.33018 102.362 8.2346 102.882 8.37385C103.262 8.47541 103.611 8.43305 103.975 8.44873C104.833 8.48631 105.692 8.51453 106.548 8.56049C106.696 8.56825 106.929 8.59698 106.868 8.76493C106.384 8.79379 105.904 8.82197 105.378 8.78639C104.256 8.71115 103.118 8.63977 101.993 8.66031C100.858 8.68053 99.7286 8.50553 98.5834 8.6619C98.3354 8.69589 97.9528 8.65721 97.6404 8.64089C95.9265 8.55147 94.2033 8.58235 92.4779 8.6124C91.5398 8.62874 90.5641 8.75125 89.6309 8.56391C89.5499 8.54776 89.488 8.50711 89.4174 8.4774C89.4338 8.38618 89.4499 8.2946 89.4532 8.27638ZM95.8901 5.14652C95.94 5.25648 95.9669 5.31614 96.0013 5.39323C95.4394 5.35594 95.0251 5.24443 94.7699 4.9645L94.5695 5.18664C94.477 5.19438 94.3506 5.22528 94.3027 5.20598C93.8943 5.04123 93.3886 5.05144 92.9493 5.07376C92.4345 5.09996 91.9394 5.25982 91.4494 5.04138C91.415 5.02615 91.3447 5.00736 91.3189 5.01492C90.332 5.3065 89.1854 5.08001 88.1667 5.26795C87.8321 5.32944 88.1424 5.41673 88.0953 5.53941C87.0657 5.34772 86.0681 5.03496 84.7761 5.29683C84.7681 5.30372 84.6461 5.40474 84.5285 5.50286C84.4026 5.55289 84.361 5.53717 84.3235 5.4675C84.2136 5.26544 83.8919 5.18424 83.546 5.24519C82.5141 5.42673 81.4456 5.34394 80.3998 5.3684C78.473 5.41371 76.5738 5.56802 74.6609 5.66035C72.7339 5.75328 70.825 5.88211 68.9178 6.04392C66.4031 6.25709 63.8819 6.44129 61.3747 6.68636C59.7523 6.84447 58.1123 7.00301 56.4608 7.11242C54.8874 7.21618 53.3524 7.46102 51.7896 7.61761C49.9556 7.80098 48.169 8.08588 46.3091 8.2222C45.3805 8.29053 44.5066 8.52542 43.5556 8.62112C40.0267 8.97589 36.715 9.6829 33.3566 10.3108C32.7499 10.4245 32.1241 10.5244 31.7713 10.9256C32.6216 10.9657 33.3721 10.9908 34.1231 10.8449C35.2231 10.6313 36.3303 10.4268 37.4345 10.2184C37.9863 10.1143 38.5253 9.95707 39.0937 9.92074C39.6633 9.88439 40.1512 9.74306 40.7116 9.70245C41.265 9.66234 41.7895 9.54761 42.3537 9.49221C43.3298 9.39693 44.2772 9.20507 45.239 9.05972C46.4682 8.87404 47.7412 8.84002 48.9652 8.65344C50.2164 8.46321 51.5224 8.36689 52.7992 8.21732C53.2102 8.16911 53.5655 8.03792 54.0432 8.16269C54.2291 8.21139 54.5939 8.11501 54.8511 8.05571C55.7695 7.84325 56.7629 7.81835 57.7358 7.74104C58.7385 7.66162 59.744 7.59038 60.7464 7.50998C63.622 7.27916 66.507 7.07285 69.3686 6.80226C71.1853 6.63085 73.0423 6.64982 74.8439 6.4405C75.4824 6.57464 75.961 6.23626 76.6289 6.30154C77.1373 6.3508 77.6993 6.37361 78.2744 6.26857C78.6868 6.19321 79.1275 6.08313 79.6096 6.09186C80.108 6.10079 80.61 6.1039 81.1065 6.08464C81.6108 6.06538 82.126 6.042 82.6083 5.97144C83.114 5.8973 83.6302 5.96225 84.1058 5.90434C84.3761 5.87132 84.7102 6.02361 84.8835 5.85457C85.0468 5.6959 85.2349 5.70983 85.4599 5.78694C85.8896 5.93463 86.3613 5.85346 86.8091 5.86388C86.9842 5.77582 86.9312 5.61658 87.2482 5.5522C87.824 5.94808 88.8084 5.70662 89.5352 5.9114C90.0419 5.53461 90.7173 5.89846 91.2891 5.80771C91.88 5.71417 92.454 5.88551 93.061 5.81955C94.0462 5.71282 95.055 5.78473 96.0545 5.77998C97.0089 5.77527 97.9687 5.76581 98.9149 5.71092C99.3119 5.68811 99.4441 5.74571 99.5585 5.95849C100.379 5.57038 101.57 6.15948 102.379 5.62529C102.472 5.69768 102.552 5.82455 102.656 5.82963C103.604 5.87743 104.538 6.00377 105.505 5.94815C106.283 5.90354 107.088 5.89061 107.798 6.06463C108.153 6.15104 108.509 6.10941 108.752 6.08791C110.306 5.94964 111.753 6.21585 113.233 6.33299C114.405 6.42565 115.582 6.47072 116.758 6.53532C118.207 6.61508 119.667 6.64594 121.097 6.82899C121.973 6.94076 122.907 6.92805 123.799 7.01301C124.434 7.07359 125.133 7.03894 125.687 7.25357C126.101 7.41393 126.605 7.23943 127.068 7.3766C127.238 7.42657 127.776 7.33701 127.967 7.466C128.207 7.62788 128.692 7.28399 128.757 7.59888C129.417 7.64183 130.094 7.75237 130.735 7.71234C131.804 7.64539 132.714 7.91032 133.71 7.98391C135.312 8.10265 136.779 8.53762 138.435 8.57269C138.953 8.85693 139.941 8.59245 140.378 9.01293C140.483 9.11335 140.87 8.98688 141.176 9.03265C142.806 9.27631 144.495 9.43318 146 9.85275C146.329 9.94427 146.868 9.77076 147 10.0685C147.536 9.91998 147.911 10.1452 148.342 10.2249C148.755 10.3013 149.159 10.4973 149.547 10.484C150.514 10.4506 150.916 10.9291 151.733 11.0184C152.416 11.093 152.963 11.4081 153.758 11.3222C153.874 11.3099 154.101 11.3613 154.145 11.4125C154.438 11.7552 155.114 11.8152 155.672 11.9127C156.648 12.0835 157.275 12.525 158.234 12.6992C158.349 12.7201 158.368 12.8775 158.47 13.0292C157.573 12.8334 156.638 12.7721 155.997 12.371C155.83 12.2664 155.51 12.2203 155.25 12.1591C153.691 11.7935 152.112 11.4477 150.574 11.0601C149.878 10.8848 149.08 10.9665 148.401 10.7406C147.792 10.538 147.086 10.311 146.403 10.2925C145.646 10.2719 145.078 9.99694 144.384 10.0157C143.633 10.0364 143.149 9.74837 142.499 9.68843C141.105 9.55985 139.825 9.22203 138.455 9.09305C137.319 8.9864 136.221 8.80228 135.082 8.72783C134.817 8.71056 134.899 8.44726 134.49 8.58638C134.244 8.67003 133.962 8.50665 133.699 8.45363C133.457 8.40528 133.246 8.5605 133.015 8.46287C132.756 8.35323 132.441 8.47084 132.207 8.42849C131.542 8.30756 130.882 8.20041 130.192 8.11097C128.847 7.93639 127.48 7.83937 126.13 7.69446C125.478 7.9006 125.049 7.44071 124.358 7.55867C123.847 7.64579 123.28 7.46071 122.742 7.4068C120.955 7.22672 119.145 7.09012 117.332 6.99516C116.06 6.92855 114.784 6.93782 113.532 6.74372C112.999 6.66126 112.348 6.69374 111.777 6.70115C110.124 6.72283 108.516 6.55931 106.893 6.47887C106.113 6.44031 105.347 6.48472 104.577 6.47114C103.309 6.44802 102.061 6.29187 100.768 6.37251C99.9227 6.42516 99.0347 6.20218 98.1831 6.42478C97.5751 6.09352 96.8312 6.42593 96.1402 6.31699C95.4642 6.21061 94.7078 6.34947 93.9709 6.29741C93.3044 6.25027 92.6106 6.28667 91.9313 6.30774C91.2498 6.32859 90.5715 6.37615 89.8903 6.41185L89.604 6.72924C89.3407 6.59916 89.1833 6.4102 88.8142 6.39878C88.5547 6.39811 88.5446 6.52788 88.3959 6.58015C88.3046 6.57669 88.2018 6.58657 88.1262 6.56775C87.2135 6.34323 86.185 6.33793 85.2872 6.4261C83.6899 6.5828 82.0893 6.51522 80.4961 6.58631C78.6279 6.6694 76.7641 6.79033 74.8969 6.85315C72.6949 6.92703 70.5417 7.16794 68.3418 7.24412C66.8257 7.29695 65.3252 7.47652 63.8214 7.60853C61.9014 7.77731 59.9938 7.99091 58.0635 8.11839C56.4913 8.22213 54.9669 8.4323 53.4123 8.57182C51.8474 8.71225 50.274 8.84767 48.735 9.07466C47.3909 9.27313 45.9909 9.3723 44.6197 9.52583C43.1077 9.69517 41.6233 9.91888 40.107 10.0818C39.0958 10.1903 38.059 10.3312 37.0688 10.5146C35.3633 10.8307 33.6626 11.1546 31.9629 11.4788C31.7478 11.5198 31.4689 11.5222 31.3788 11.6919C31.5451 11.9466 31.9967 11.9325 32.4495 11.863C32.3316 12.2235 31.6384 12.1013 31.4412 12.3284C31.3609 12.453 31.584 12.5487 31.6167 12.6691C31.9675 12.4817 32.0745 12.8239 32.333 12.7559C32.61 12.6831 32.9081 12.8557 33.1559 12.7179C33.4595 12.8085 33.0137 12.9361 33.3352 13.0845C34.0521 12.9995 34.8667 12.914 35.6689 12.8048C36.2154 12.7302 36.718 12.6028 37.3179 12.5974C37.8131 12.5929 38.2649 12.3243 38.8288 12.53C38.9315 12.5675 39.0399 12.4585 39.1429 12.4267C39.856 12.2062 41.0033 12.1152 42.0929 12.1417C42.6891 12.1562 43.2993 12.0873 43.8596 12.0277C44.8675 11.9208 45.8587 11.7706 46.8872 11.7007C47.0541 11.6895 47.2146 11.63 47.3744 11.5674C48.0705 11.2941 48.8658 11.1918 49.7555 11.2917C50.2143 11.3433 50.4142 11.2849 51.1079 11.1432C51.443 11.0752 51.8346 11.0538 52.1893 11.0181C53.6462 10.871 55.1302 10.8097 56.5744 10.6503C57.4487 10.5539 58.3587 10.7992 59.1775 10.5274C59.7218 10.7449 60.1799 10.4964 60.6813 10.4632C61.9079 10.3819 63.1271 10.1698 64.3632 10.2747C64.8049 10.3123 64.8714 9.91333 65.307 10.1441C66.4782 10.0201 67.6878 10.082 68.852 9.96899C69.2985 9.92569 69.7829 9.76183 70.1994 9.82017C70.9922 9.93078 71.7361 9.54376 72.4984 9.80597C73.1649 9.50558 73.9189 9.67356 74.6617 9.67238C75.2355 9.67142 75.7447 9.47622 76.427 9.58163C77.0003 9.67014 77.6878 9.57886 78.3227 9.55169C78.9598 9.52473 79.5794 9.39082 80.2346 9.47423C80.6608 9.16106 81.3218 9.3104 81.86 9.29631C82.4397 9.28102 83.0548 9.18436 83.6221 9.31188C84.064 9.41114 84.3376 8.98671 84.8473 9.25108C85.1616 9.41414 85.6471 9.26499 86.0553 9.27193C86.4483 9.27864 86.907 9.36729 87.1827 9.09451C87.2611 9.01682 87.5971 8.98856 87.8243 8.97175C88.7274 8.90473 89.7089 9.12265 90.5363 8.77677C91.0172 8.9237 91.595 8.76829 92.0167 8.84593C93.3864 9.09838 94.7562 8.92463 96.1043 8.89814C97.1019 8.87845 98.1282 9.09683 99.1062 8.84603C99.7482 9.07633 100.481 8.84106 101.139 8.9448C101.908 9.06625 102.69 8.87995 103.451 8.98732C104.213 9.09466 104.994 9.00079 105.762 9.05219C105.89 9.06077 106.036 9.00486 106.239 8.96663C107.271 9.4171 108.75 8.98288 110.062 9.40545C109.425 9.41682 108.99 9.42457 108.321 9.43639C109.528 9.75841 110.666 9.58854 111.715 9.71485C112.75 9.83907 113.877 9.80119 114.962 9.85288C116.046 9.90423 117.155 9.8836 118.213 9.99245C119.295 10.1036 120.394 10.0925 121.472 10.2086C122.539 10.3235 123.636 10.3627 124.777 10.4391C124.873 10.352 124.987 10.2486 125.102 10.1452C126.016 10.0223 126.783 10.3835 127.674 10.3509C127.802 10.3464 127.962 10.4477 128.072 10.4331C129.072 10.2998 129.957 10.6138 130.921 10.6088C131.916 10.6037 132.766 10.9158 133.755 10.943C134.904 10.9747 135.983 11.2131 137.134 11.2655C137.729 11.2926 138.223 11.5736 138.888 11.4755C139.609 11.7429 140.503 11.7497 141.318 11.8588C142.05 11.957 142.788 12.0269 143.462 12.209C144.269 12.0009 144.815 12.5818 145.636 12.3954C145.754 12.3687 145.991 12.4633 146.162 12.5116C147.254 12.8188 148.487 12.8968 149.661 13.0699C150.003 13.1205 150.1 13.3457 150.503 13.358C152.105 13.4071 153.355 13.9294 154.801 14.1882C155.409 14.2969 155.852 14.4914 156.204 14.7558C156.123 14.776 156.043 14.7955 155.95 14.8185C155.801 15.2355 156.308 15.4529 156.982 15.5058C157.541 15.5494 157.755 15.2656 157.913 15.0161C158.474 15.0031 159.096 15.0311 159.232 14.6468C159.309 14.429 159.665 14.3452 159.953 14.2231C159.921 14.0135 159.751 13.7778 159.887 13.6036C160.189 13.2153 159.831 12.9161 159.453 12.6578C159.054 12.3854 158.505 12.1661 157.956 11.949C156.439 11.3498 154.636 11.0549 152.948 10.6395C151.27 10.2266 149.556 9.85145 147.868 9.44864C147.263 9.30447 146.576 9.37918 145.963 9.19132C145.419 9.02462 144.844 8.77931 144.095 8.90295C143.207 8.58646 142.066 8.66163 141.127 8.38873C139.936 8.04263 138.559 7.94812 137.231 7.80602C136.934 7.77444 136.623 7.69343 136.38 7.69824C135.991 7.70619 135.696 7.62476 135.448 7.53665C134.939 7.3567 134.345 7.4444 133.801 7.36102C133.246 7.27575 132.627 7.25036 132.191 7.11137C131.888 7.17834 131.925 7.33428 131.551 7.30638C131.268 6.96619 130.608 6.93992 129.88 6.89838C128.459 6.81714 127.059 6.6607 125.69 6.43573C125.263 6.36578 124.792 6.36202 124.339 6.34151C123.185 6.28964 122.032 6.24109 120.853 5.97209C120.68 6.02074 120.425 6.09228 120.27 6.13618C119.983 6.08567 120.161 5.94416 119.83 5.93934C119.24 5.93099 118.625 5.95585 118.069 5.8079C117.988 5.78659 117.891 5.77476 117.8 5.76983C117.511 5.7552 117.134 6.08114 116.936 5.71112C116.529 5.90776 116.156 5.60078 115.705 5.69621C115.404 5.75993 114.956 5.67011 114.646 5.63253C114.269 5.58712 113.903 5.64044 113.546 5.58022C112.847 5.4616 112.032 5.69524 111.441 5.40343C111.147 5.40693 111.144 5.54049 110.985 5.58864C110.587 5.43709 109.21 5.34099 108.352 5.40674C108.354 5.48181 108.357 5.55821 108.359 5.63536C108.258 5.62987 108.128 5.64267 108.084 5.6173C107.784 5.44257 107.576 5.18686 106.963 5.33196C105.998 5.14393 104.952 5.17414 103.983 5.19236C103.133 5.20864 102.345 5.1355 101.538 5.07839C100.767 5.02373 99.9884 5.22052 99.2327 5.04189C98.1621 5.24189 97.0309 4.97857 95.8901 5.14652Z" fill="#F1A5C3"/>
<path fill-rule="evenodd" clip-rule="evenodd" d="M52.1749 0.834921C52.6892 0.986306 53.4417 0.785296 53.8293 1.12319C53.8191 1.33531 53.4216 1.29738 53.1769 1.40212C52.4141 1.18201 51.6347 1.19879 50.7542 1.23155C49.8853 1.26399 49.0686 1.43739 48.1636 1.4032C47.3111 1.3713 46.4315 1.50382 45.5682 1.57617C44.6973 1.64889 43.8322 1.7371 42.964 1.81678C42.2798 1.88014 41.5755 1.90777 40.9134 2.00855C39.3327 2.24878 37.7133 2.39371 36.1099 2.57886C35.2773 2.67498 34.4829 2.84211 33.638 2.94138C32.188 3.11186 30.8052 3.42892 29.3563 3.60601C27.797 3.7969 26.3464 4.14975 24.8106 4.34944C21.3486 4.79975 18.1189 5.56867 14.7601 6.1582C14.2142 6.25378 13.6794 6.36942 13.1273 6.46474C11.9159 6.67417 10.6336 6.84027 9.71765 7.33507C9.36468 7.52562 8.96045 7.29698 8.53429 7.48045C8.16381 7.64037 7.5616 7.78135 6.99148 7.83869C6.41273 7.89704 5.91817 8.07273 5.38421 8.17952C4.74205 8.30818 4.10343 8.48623 3.41664 8.63014C3.12352 8.8669 2.82536 9.11847 2.49804 9.36024C2.44258 9.40133 2.26268 9.39867 2.15643 9.41376C1.9492 9.30247 2.43837 9.16173 1.90306 9.04617C1.28959 9.11997 0.589187 9.23749 0.000227082 9.54023C-0.00887484 9.62077 0.258178 9.61897 0.344936 9.69528C0.425824 9.7669 0.396324 9.88915 0.69571 9.82188C1.02247 9.74861 0.875863 9.94013 1.02179 9.98376C1.43599 9.91033 1.32768 9.64198 1.63364 9.52857C2.18459 9.41941 1.99657 9.78983 2.41402 9.80826C2.78904 9.73417 3.08401 9.56119 3.43576 9.41018L3.93145 9.52556C4.89562 9.35722 5.54053 8.85091 6.67541 8.91598C7.21543 8.94665 7.40114 8.58142 8.03803 8.64098C8.48287 8.68238 8.82184 8.4198 9.17153 8.2849C9.34116 8.17386 9.09804 8.09645 9.15134 7.98336C9.79956 7.94872 9.62329 8.28176 9.86821 8.42565C10.1862 8.36542 10.5075 8.30477 10.8296 8.24398C10.7879 8.17696 10.7461 8.10933 10.7049 8.04181C11.1299 7.98869 11.3157 7.72605 11.771 7.72825C12.0852 7.74651 12.1233 7.87875 12.2108 7.98327C12.4169 7.94437 12.6008 7.90965 12.7819 7.87547C12.7397 7.80834 12.6972 7.74084 12.6542 7.67139C13.4359 7.73961 13.4359 7.73961 14.3021 7.5883C14.4389 7.41953 13.7422 7.45857 14.1214 7.1586C14.4499 7.02149 15.2901 7.3863 15.6565 6.99193C15.7485 7.07097 15.8375 7.14809 15.9844 7.2749C16.5955 7.11426 17.287 7.04868 17.843 6.89512C18.4706 6.72205 19.1765 6.7301 19.8138 6.52973L20.1867 6.11635C20.6463 6.21579 21.0864 5.98852 21.5033 6.04905C22.905 6.25285 24.0177 5.86448 25.1643 5.60586C25.5845 5.51122 25.9335 5.3475 26.4323 5.37582C26.5921 5.38496 26.7012 5.37989 26.776 5.29625C27.0937 4.94334 27.6203 4.86712 28.3212 4.98681C28.6755 5.04757 28.983 4.9858 29.1565 4.8072C29.437 4.51801 29.9824 4.53878 30.3622 4.47515C30.8304 4.598 30.367 4.73449 30.6099 4.86345C30.8259 4.70889 31.5514 4.88228 31.4365 4.4869C31.4295 4.46235 31.7964 4.3598 31.9171 4.38459C32.4013 4.48311 32.8437 4.47056 33.2874 4.34336C33.8817 4.55681 34.4199 4.37227 34.9194 4.25234C35.5843 4.09248 36.3144 4.07839 36.9979 4.00854C37.8492 3.9213 38.6156 3.80497 39.3132 3.54773C39.5072 3.47614 39.7438 3.435 39.9065 3.39353C40.4302 3.55555 40.829 3.57688 41.3607 3.51272C43.1194 3.30095 44.876 3.06186 46.6961 3.01703C47.3309 3.00128 47.7241 2.79961 48.0061 2.55875C48.19 2.40094 48.477 2.40408 48.6574 2.35016C49.3493 2.70096 50.3986 2.35002 50.9413 2.71678C51.3729 2.58464 51.3354 2.37801 51.6139 2.23833C52.4164 2.30325 53.2718 2.37204 54.1192 2.44048C54.3115 2.54859 53.9371 2.67532 54.2681 2.80877C54.6163 2.8473 55.1018 2.70993 55.624 3.01188C55.4881 2.78597 55.4474 2.71856 55.408 2.65298C55.6137 2.55787 55.8682 2.76161 56.0674 2.61581C56.2955 2.43663 55.9563 2.29915 55.9071 2.14108C56.2563 2.00006 56.6033 1.85968 56.9309 1.7275C56.7778 1.4798 56.5003 1.53466 56.216 1.59578C56.0988 1.47226 55.8775 1.36073 56.0621 1.19494C56.2244 1.01824 56.4973 1.26216 56.7308 1.14817C56.3212 0.666698 55.1337 0.913387 54.6428 0.512233C54.3055 0.60777 54.0506 0.679669 53.7998 0.751007C53.7235 0.661146 53.6866 0.617851 53.6192 0.538511C53.1311 0.548294 52.6112 0.557277 52.0922 0.571029C52.0691 0.571675 52.0506 0.613841 52.0302 0.636529C51.9378 0.72906 51.9862 0.795229 52.1749 0.834921Z" fill="#F1A5C3"/>
<path fill-rule="evenodd" clip-rule="evenodd" d="M52.1749 0.834921C51.9862 0.795229 51.9378 0.72906 52.0302 0.636529C51.1061 0.375274 50.1165 0.535585 49.182 0.570262C47.628 0.627547 46.0863 0.78574 44.5412 0.896377C43.3994 0.977832 42.2508 1.16175 41.0996 1.28264C39.5365 1.44673 38.0227 1.70764 36.4427 1.84245C35.5096 1.92238 34.6181 2.12604 33.704 2.2632C32.4166 2.45676 31.0712 2.55928 29.829 2.84361C29.1866 2.99093 28.5326 3.14004 27.7756 3.14183C27.4476 3.14271 27.0634 3.2204 26.7935 3.40706C26.6608 3.49894 26.1939 3.42466 25.864 3.47969C22.5924 4.0298 19.3302 4.59115 16.1057 5.21076C14.1111 5.59386 12.1923 6.06549 10.2146 6.46942C8.64317 6.79023 7.08001 7.15852 5.58889 7.57073C5.01517 7.7295 4.24102 7.7846 3.82689 8.0864C3.98074 8.27003 4.2154 8.28242 4.44073 8.20576C5.88157 7.71367 7.46633 7.37937 9.10451 7.10698C9.65544 7.0156 10.0261 6.7791 10.598 6.69743C11.0856 6.62752 11.5917 6.56674 11.9904 6.34792C12.2286 6.21753 12.7107 6.13127 13.0679 6.14351C13.6611 6.16394 14.0678 5.97234 14.5655 5.91502C15.0852 5.8556 15.4844 5.71323 15.9369 5.61312C16.5927 5.46803 17.4081 5.51604 17.9624 5.21218C18.655 5.34502 19.048 4.94418 19.5899 4.95237C20.2319 4.96213 20.6217 4.73401 21.1629 4.65938C21.673 4.58896 22.221 4.55482 22.7162 4.42846C23.2387 4.29487 23.8132 4.21352 24.3643 4.1095C24.916 4.00535 25.4649 3.89782 26.0204 3.79815C26.5536 3.70205 27.1308 3.65992 27.6521 3.57704C28.7975 3.39477 29.9931 3.31349 31.1141 3.07335C32.3248 2.81398 33.6306 2.69619 34.9166 2.54696C36.1987 2.39804 37.5245 2.27192 38.7391 2.03397C39.6523 1.85498 40.6669 1.94544 41.4965 1.66554C42.1814 1.79299 42.7356 1.51172 43.4071 1.49606C43.9065 1.48412 44.5525 1.44473 45.0678 1.23948C45.3219 1.13814 46.0323 1.3032 46.2282 1.19857C46.6042 0.998298 46.8622 1.13497 47.1982 1.13235C47.4559 1.13048 47.7501 1.1519 48.0179 1.11168C49.3132 0.916639 50.6391 0.897045 51.9758 0.924631C52.0399 0.925978 52.1086 0.866255 52.1749 0.834921Z" fill="#F1A5C3"/>
</svg>
