<svg width="246" height="24" viewBox="0 0 246 24" fill="none" xmlns="http://www.w3.org/2000/svg">
<path fill-rule="evenodd" clip-rule="evenodd" d="M137.664 11.8444C137.421 12.1253 137.112 11.675 136.965 11.9729C136.825 12.2554 136.285 12.232 135.979 12.3783C135.827 12.4512 135.87 12.5183 136.033 12.5399C136.642 12.5908 137.037 12.2032 137.636 12.3207C137.788 12.4257 137.912 12.5115 138.043 12.6025C138.635 12.3297 138.454 11.8808 139.024 11.6466C140.175 11.5453 140.359 11.9974 140.711 12.3575C140.749 12.3961 140.931 12.3981 141.048 12.4171C141.318 12.1714 140.613 12.0181 140.771 11.8433C141.41 11.3212 141.646 11.9869 142.43 11.8451C142.311 11.85 142.07 11.6289 142.462 11.6791C142.869 11.7839 142.704 12.1272 143.254 12.1746C144.224 11.7558 145.225 11.6992 147.167 11.953C147.219 11.8818 147.272 11.8103 147.324 11.7393C147.759 11.7316 147.685 12.0685 148.137 12.0493C148.616 12.0374 148.562 11.7858 148.805 11.6673C151.207 11.8124 151.207 11.8124 152.39 11.571C153.006 11.7221 153.807 11.9185 154.608 12.115C155.381 12.1179 155.339 11.7193 155.721 11.5903C156.551 11.7621 157.43 11.9084 158.227 11.6952C158.808 11.5397 159.343 11.6045 159.9 11.5805C161.213 11.523 162.53 11.4798 163.841 11.4094C164.066 11.3975 164.424 11.3535 164.33 11.0963C163.589 11.0522 162.854 11.009 162.048 11.0635C160.331 11.1787 158.587 11.288 156.865 11.2566C155.127 11.2256 153.398 11.4936 151.644 11.2541C151.265 11.2021 150.679 11.2613 150.2 11.2863C147.576 11.4232 144.937 11.3759 142.295 11.3299C140.859 11.3049 139.365 11.1173 137.936 11.4042C137.812 11.4289 137.717 11.4911 137.609 11.5366C137.634 11.6763 137.659 11.8165 137.664 11.8444ZM147.52 16.637C147.597 16.4687 147.638 16.3773 147.691 16.2593C146.83 16.3164 146.196 16.4871 145.805 16.9158L145.498 16.5756C145.356 16.5638 145.163 16.5164 145.089 16.546C144.464 16.7983 143.69 16.7826 143.017 16.7485C142.229 16.7083 141.471 16.4635 140.72 16.798C140.668 16.8214 140.56 16.8501 140.52 16.8386C139.009 16.3921 137.254 16.7389 135.694 16.4511C135.181 16.3569 135.656 16.2233 135.584 16.0354C134.008 16.329 132.48 16.8079 130.502 16.4069C130.49 16.3963 130.303 16.2416 130.123 16.0914C129.93 16.0148 129.866 16.0389 129.809 16.1455C129.64 16.4549 129.148 16.5793 128.618 16.486C127.038 16.208 125.402 16.3347 123.801 16.2973C120.85 16.2279 117.942 15.9916 115.013 15.8502C112.062 15.7079 109.139 15.5107 106.219 15.2629C102.368 14.9365 98.5076 14.6544 94.6684 14.2792C92.1841 14.0371 89.6729 13.7943 87.144 13.6268C84.7348 13.4679 82.3844 13.093 79.9913 12.8532C77.183 12.5724 74.4472 12.1361 71.5993 11.9274C70.1774 11.8228 68.8391 11.4631 67.383 11.3166C61.9793 10.7733 56.9084 9.69071 51.7657 8.72918C50.8367 8.55509 49.8786 8.40212 49.3382 7.78789C50.6403 7.72639 51.7896 7.68799 52.9394 7.91137C54.6238 8.2385 56.3192 8.55154 58.0101 8.87071C58.855 9.03019 59.6804 9.27089 60.5507 9.32652C61.4229 9.38217 62.1701 9.59859 63.0281 9.66077C63.8755 9.7222 64.6786 9.89787 65.5426 9.98271C67.0372 10.1286 68.4879 10.4224 69.9607 10.645C71.8429 10.9293 73.7921 10.9814 75.6665 11.2671C77.5823 11.5584 79.5821 11.7059 81.5372 11.9349C82.1666 12.0087 82.7106 12.2096 83.4421 12.0185C83.7267 11.944 84.2854 12.0915 84.6792 12.1823C86.0856 12.5077 87.6066 12.5458 89.0964 12.6642C90.6319 12.7858 92.1715 12.8949 93.7064 13.018C98.1097 13.3714 102.527 13.6874 106.909 14.1017C109.691 14.3642 112.534 14.3351 115.293 14.6556C116.271 14.4502 117.004 14.9684 118.026 14.8684C118.805 14.793 119.665 14.7581 120.546 14.9189C121.178 15.0343 121.853 15.2029 122.591 15.1895C123.354 15.1758 124.122 15.1711 124.883 15.2005C125.655 15.23 126.444 15.2658 127.182 15.3739C127.957 15.4874 128.747 15.388 129.476 15.4766C129.889 15.5272 130.401 15.294 130.666 15.5528C130.916 15.7958 131.204 15.7745 131.549 15.6564C132.207 15.4303 132.929 15.5545 133.615 15.5386C133.883 15.6734 133.802 15.9173 134.287 16.0158C135.169 15.4097 136.676 15.7794 137.789 15.4658C138.565 16.0428 139.599 15.4856 140.475 15.6246C141.38 15.7678 142.259 15.5055 143.188 15.6065C144.697 15.7699 146.241 15.6598 147.772 15.6671C149.233 15.6743 150.703 15.6888 152.152 15.7728C152.76 15.8077 152.962 15.7195 153.137 15.3937C154.395 15.988 156.218 15.086 157.457 15.9039C157.599 15.7931 157.722 15.5988 157.88 15.591C159.332 15.5178 160.762 15.3244 162.244 15.4096C163.435 15.4779 164.667 15.4977 165.754 15.2312C166.297 15.0989 166.843 15.1626 167.215 15.1955C169.594 15.4073 171.81 14.9996 174.077 14.8203C175.871 14.6784 177.674 14.6094 179.474 14.5104C181.693 14.3883 183.928 14.3411 186.119 14.0608C187.459 13.8896 188.89 13.9091 190.256 13.779C191.228 13.6862 192.298 13.7393 193.147 13.4106C193.781 13.1651 194.552 13.4323 195.262 13.2222C195.521 13.1457 196.345 13.2829 196.638 13.0853C197.006 12.8375 197.748 13.364 197.847 12.8819C198.858 12.8161 199.895 12.6468 200.876 12.7081C202.513 12.8107 203.907 12.405 205.433 12.2923C207.885 12.1105 210.131 11.4444 212.667 11.3907C213.46 10.9555 214.973 11.3605 215.643 10.7166C215.803 10.5628 216.396 10.7565 216.864 10.6864C219.36 10.3133 221.946 10.0731 224.251 9.43063C224.754 9.29049 225.58 9.55617 225.782 9.10022C226.603 9.32768 227.177 8.98283 227.837 8.86081C228.47 8.74379 229.089 8.44367 229.682 8.46406C231.163 8.5152 231.779 7.78246 233.029 7.64565C234.076 7.53144 234.913 7.04908 236.13 7.1806C236.308 7.19944 236.656 7.12071 236.723 7.0422C237.171 6.51758 238.207 6.42556 239.061 6.27626C240.556 6.01476 241.515 5.33869 242.984 5.07206C243.16 5.03995 243.189 4.79899 243.346 4.56662C241.972 4.86647 240.541 4.96032 239.559 5.57456C239.304 5.73475 238.814 5.80539 238.415 5.89905C236.028 6.45893 233.61 6.98841 231.255 7.58193C230.189 7.85027 228.966 7.72523 227.927 8.07107C226.995 8.38137 225.915 8.72894 224.868 8.75727C223.709 8.78873 222.838 9.20984 221.777 9.18116C220.627 9.14946 219.886 9.59046 218.89 9.68224C216.756 9.87914 214.796 10.3964 212.697 10.5939C210.958 10.7572 209.276 11.0392 207.532 11.1532C207.127 11.1796 207.252 11.5828 206.626 11.3698C206.249 11.2417 205.817 11.4918 205.415 11.573C205.045 11.6471 204.721 11.4094 204.368 11.5589C203.971 11.7268 203.488 11.5467 203.13 11.6115C202.112 11.7967 201.102 11.9608 200.045 12.0977C197.986 12.3651 195.893 12.5136 193.824 12.7355C192.827 12.4199 192.169 13.1241 191.111 12.9434C190.329 12.81 189.461 13.0934 188.638 13.176C185.901 13.4517 183.129 13.6609 180.354 13.8063C178.405 13.9083 176.452 13.8941 174.534 14.1913C173.718 14.3176 172.721 14.2679 171.847 14.2565C169.316 14.2233 166.853 14.4737 164.368 14.5969C163.173 14.6559 162.001 14.5879 160.822 14.6087C158.88 14.6441 156.97 14.8832 154.99 14.7598C153.695 14.6791 152.335 15.0206 151.031 14.6797C150.1 15.187 148.961 14.6779 147.903 14.8448C146.868 15.0077 145.71 14.795 144.581 14.8747C143.561 14.9469 142.498 14.8912 141.458 14.8589C140.415 14.827 139.376 14.7542 138.333 14.6995L137.895 14.2135C137.491 14.4127 137.25 14.702 136.685 14.7195C136.288 14.7205 136.272 14.5218 136.045 14.4418C135.905 14.4471 135.748 14.432 135.632 14.4608C134.234 14.8046 132.659 14.8127 131.285 14.6777C128.839 14.4377 126.388 14.5412 123.948 14.4324C121.087 14.3051 118.233 14.12 115.374 14.0238C112.002 13.9106 108.705 13.5417 105.337 13.4251C103.015 13.3442 100.718 13.0692 98.415 12.8671C95.4749 12.6087 92.5539 12.2816 89.5982 12.0864C87.1908 11.9275 84.8565 11.6057 82.4761 11.3921C80.0799 11.177 77.6705 10.9697 75.3139 10.6221C73.2558 10.3182 71.112 10.1663 69.0123 9.93123C66.6971 9.67193 64.4241 9.32936 62.1023 9.07991C60.554 8.91373 58.9664 8.69801 57.4501 8.41719C54.8385 7.9331 52.2343 7.43711 49.6317 6.94077C49.3022 6.87795 48.8752 6.87433 48.7373 6.61451C48.992 6.22448 49.6834 6.24601 50.3768 6.35251C50.1963 5.80049 49.1347 5.98754 48.8329 5.63976C48.7099 5.44897 49.0515 5.30248 49.1016 5.11806C49.6387 5.40507 49.8025 4.881 50.1983 4.98517C50.6225 5.09661 51.0789 4.8324 51.4584 5.0434C51.9234 4.90468 51.2407 4.70929 51.7331 4.48197C52.8307 4.61218 54.0781 4.74309 55.3064 4.91033C56.1433 5.02457 56.9129 5.21958 57.8316 5.22793C58.5898 5.23483 59.2817 5.6461 60.145 5.33104C60.3024 5.27363 60.4684 5.44055 60.626 5.48931C61.7179 5.82688 63.4748 5.96622 65.1432 5.92571C66.0561 5.90352 66.9904 6.00893 67.8484 6.10023C69.3918 6.26389 70.9096 6.494 72.4845 6.60088C72.74 6.61808 72.9858 6.70914 73.2306 6.80507C74.2964 7.22356 75.5143 7.38027 76.8765 7.22717C77.5791 7.14817 77.8853 7.23765 78.9475 7.45463C79.4606 7.55876 80.0602 7.59149 80.6033 7.64616C82.8342 7.87149 85.1065 7.96525 87.3181 8.20941C88.6568 8.35694 90.0502 7.98132 91.3041 8.39761C92.1375 8.06456 92.8389 8.44499 93.6067 8.49584C95.4849 8.62036 97.3518 8.9452 99.2446 8.78454C99.921 8.72689 100.023 9.33786 100.69 8.98446C102.483 9.17442 104.335 9.07958 106.118 9.25264C106.802 9.31894 107.544 9.56985 108.181 9.48052C109.395 9.31114 110.534 9.90377 111.702 9.50226C112.722 9.96224 113.877 9.70502 115.014 9.70682C115.893 9.70829 116.673 10.0072 117.717 9.84579C118.595 9.71025 119.648 9.85002 120.62 9.89162C121.596 9.93291 122.544 10.138 123.548 10.0102C124.2 10.4898 125.212 10.2611 126.037 10.2827C126.924 10.3061 127.866 10.4541 128.735 10.2588C129.411 10.1069 129.83 10.7568 130.611 10.3519C131.092 10.1023 131.836 10.3306 132.461 10.32C133.062 10.3097 133.765 10.174 134.187 10.5917C134.307 10.7106 134.822 10.7539 135.169 10.7797C136.552 10.8823 138.055 10.5486 139.322 11.0782C140.059 10.8532 140.943 11.0912 141.589 10.9723C143.686 10.5858 145.784 10.8518 147.848 10.8924C149.376 10.9225 150.947 10.5881 152.445 10.9722C153.428 10.6195 154.549 10.9798 155.557 10.8209C156.735 10.635 157.933 10.9202 159.097 10.7558C160.264 10.5914 161.46 10.7352 162.636 10.6565C162.833 10.6434 163.057 10.729 163.367 10.7875C164.947 10.0977 167.213 10.7626 169.22 10.1156C168.245 10.0982 167.58 10.0863 166.554 10.0682C168.403 9.57509 170.145 9.8352 171.752 9.64179C173.337 9.45158 175.062 9.50958 176.724 9.43043C178.384 9.3518 180.081 9.38339 181.702 9.21672C183.358 9.04652 185.041 9.06357 186.692 8.88577C188.326 8.70973 190.007 8.6497 191.753 8.53274C191.901 8.66608 192.075 8.8245 192.251 8.98275C193.651 9.17099 194.824 8.61794 196.19 8.66784C196.386 8.6748 196.63 8.51966 196.798 8.54192C198.33 8.74616 199.685 8.26522 201.161 8.27286C202.685 8.28078 203.986 7.80284 205.5 7.76117C207.261 7.71267 208.913 7.34753 210.674 7.26729C211.586 7.22592 212.342 6.7955 213.361 6.94578C214.465 6.53641 215.834 6.52587 217.081 6.35893C218.202 6.20843 219.332 6.10149 220.365 5.82263C221.6 6.14124 222.437 5.25183 223.693 5.53718C223.875 5.57809 224.237 5.43327 224.499 5.35925C226.171 4.88885 228.059 4.76945 229.857 4.50436C230.38 4.42696 230.53 4.0821 231.147 4.06326C233.599 3.988 235.513 3.18823 237.727 2.79204C238.659 2.62548 239.337 2.3277 239.876 1.92285C239.752 1.89197 239.629 1.86203 239.486 1.82687C239.259 1.18835 240.036 0.855452 241.067 0.77442C241.923 0.707662 242.251 1.14215 242.493 1.52423C243.352 1.54414 244.304 1.50122 244.512 2.08978C244.63 2.42329 245.176 2.55149 245.617 2.73856C245.568 3.05943 245.307 3.42041 245.515 3.68708C245.979 4.28176 245.43 4.7398 244.852 5.13533C244.24 5.55246 243.399 5.88837 242.558 6.22074C240.236 7.13822 237.474 7.58979 234.89 8.22595C232.321 8.85823 229.696 9.43262 227.112 10.0494C226.185 10.2702 225.133 10.1558 224.195 10.4434C223.362 10.6987 222.481 11.0743 221.333 10.885C219.974 11.3696 218.228 11.2545 216.79 11.6724C214.965 12.2024 212.857 12.3471 210.823 12.5647C210.369 12.613 209.892 12.7371 209.521 12.7297C208.924 12.7175 208.474 12.8422 208.093 12.9772C207.314 13.2527 206.404 13.1184 205.572 13.2461C204.721 13.3767 203.774 13.4155 203.106 13.6284C202.642 13.5258 202.699 13.287 202.127 13.3298C201.693 13.8507 200.682 13.8909 199.568 13.9545C197.392 14.0789 195.248 14.3185 193.151 14.6629C192.498 14.77 191.777 14.7758 191.082 14.8072C189.316 14.8866 187.55 14.961 185.745 15.3729C185.479 15.2984 185.089 15.1889 184.851 15.1216C184.412 15.199 184.686 15.4157 184.178 15.423C183.275 15.4358 182.334 15.3978 181.481 15.6243C181.357 15.6569 181.21 15.6751 181.07 15.6826C180.627 15.705 180.05 15.2059 179.747 15.7725C179.124 15.4714 178.553 15.9415 177.861 15.7953C177.401 15.6978 176.715 15.8353 176.24 15.8928C175.663 15.9624 175.103 15.8807 174.556 15.9729C173.486 16.1546 172.237 15.7968 171.333 16.2437C170.882 16.2383 170.877 16.0338 170.635 15.96C170.025 16.1921 167.916 16.3393 166.602 16.2386C166.606 16.1236 166.61 16.0066 166.614 15.8885C166.459 15.8969 166.259 15.8773 166.191 15.9162C165.733 16.1837 165.414 16.5753 164.475 16.3531C162.998 16.641 161.397 16.5947 159.913 16.5669C158.611 16.5419 157.404 16.6539 156.169 16.7414C154.988 16.8251 153.796 16.5237 152.638 16.7973C150.999 16.491 149.267 16.8942 147.52 16.637Z" fill="#F1A5C3"/>
<path fill-rule="evenodd" clip-rule="evenodd" d="M80.5812 23.2392C81.3687 23.0074 82.5211 23.3152 83.1146 22.7978C83.099 22.473 82.4904 22.531 82.1157 22.3707C80.9475 22.7077 79.7541 22.682 78.4059 22.6318C77.0753 22.5822 75.8247 22.3166 74.4389 22.369C73.1336 22.4179 71.7867 22.2149 70.4647 22.1041C69.1313 21.9928 67.8065 21.8577 66.4771 21.7357C65.4294 21.6387 64.351 21.5964 63.3371 21.4421C60.9167 21.0742 58.437 20.8523 55.9817 20.5688C54.7069 20.4216 53.4904 20.1657 52.1967 20.0137C49.9763 19.7526 47.859 19.2671 45.6404 18.996C43.2526 18.7036 41.0313 18.1634 38.6797 17.8576C33.3786 17.168 28.4331 15.9906 23.2898 15.0879C22.454 14.9415 21.6351 14.7645 20.7897 14.6185C18.9346 14.2978 16.9712 14.0435 15.5686 13.2858C15.0281 12.9941 14.4092 13.3442 13.7566 13.0632C13.1893 12.8183 12.2672 12.6025 11.3942 12.5147C10.508 12.4253 9.75068 12.1563 8.93305 11.9928C7.94974 11.7958 6.97186 11.5231 5.9202 11.3027C5.47137 10.9402 5.01482 10.555 4.51361 10.1848C4.42867 10.1219 4.1532 10.1259 3.99051 10.1028C3.6732 10.2732 4.42224 10.4888 3.60253 10.6657C2.66316 10.5527 1.59067 10.3727 0.688824 9.90918C0.674887 9.78585 1.08381 9.7886 1.21666 9.67176C1.34052 9.56209 1.29535 9.3749 1.75378 9.4779C2.25414 9.59009 2.02964 9.29682 2.25309 9.23003C2.88734 9.34246 2.72148 9.75338 3.18999 9.92703C4.03363 10.0942 3.74572 9.52698 4.38495 9.49875C4.9592 9.61221 5.41087 9.87708 5.94949 10.1083L6.70851 9.93163C8.1849 10.1894 9.17241 10.9647 10.9102 10.8651C11.7371 10.8181 12.0215 11.3773 12.9967 11.2861C13.6779 11.2228 14.1969 11.6248 14.7324 11.8314C14.9921 12.0014 14.6198 12.12 14.7015 12.2931C15.6941 12.3462 15.4241 11.8362 15.7992 11.6159C16.2861 11.7081 16.7781 11.801 17.2712 11.8941C17.2074 11.9967 17.1435 12.1002 17.0804 12.2036C17.7311 12.285 18.0156 12.6871 18.7127 12.6838C19.194 12.6558 19.2523 12.4533 19.3862 12.2933C19.7018 12.3528 19.9834 12.406 20.2607 12.4583C20.1961 12.5611 20.1311 12.6645 20.0652 12.7708C21.2621 12.6664 21.2621 12.6664 22.5886 12.8981C22.7981 13.1565 21.7312 13.0967 22.3119 13.5561C22.815 13.766 24.1015 13.2074 24.6625 13.8113C24.8034 13.6902 24.9397 13.5721 25.1646 13.378C26.1003 13.624 27.1592 13.7244 28.0105 13.9595C28.9715 14.2245 30.0525 14.2122 31.0284 14.519L31.5993 15.152C32.3031 14.9997 32.977 15.3477 33.6154 15.255C35.7617 14.943 37.4656 15.5377 39.2213 15.9337C39.8648 16.0786 40.3992 16.3293 41.1629 16.2859C41.4076 16.2719 41.5747 16.2797 41.6893 16.4078C42.1758 16.9482 42.9821 17.0649 44.0552 16.8816C44.5978 16.7886 45.0687 16.8831 45.3344 17.1566C45.7638 17.5995 46.599 17.5677 47.1806 17.6651C47.8975 17.477 47.1879 17.268 47.5599 17.0705C47.8907 17.3072 49.0015 17.0417 48.8256 17.6471C48.8149 17.6847 49.3767 17.8417 49.5616 17.8038C50.303 17.6529 50.9804 17.6721 51.6598 17.8669C52.5698 17.54 53.3939 17.8226 54.1588 18.0063C55.177 18.251 56.2949 18.2726 57.3415 18.3796C58.645 18.5132 59.8186 18.6913 60.8867 19.0852C61.1838 19.1948 61.5462 19.2578 61.7953 19.3213C62.5972 19.0732 63.2079 19.0406 64.0221 19.1388C66.7151 19.4631 69.4049 19.8292 72.1919 19.8978C73.1638 19.9219 73.7661 20.2308 74.1978 20.5996C74.4794 20.8412 74.9188 20.8364 75.1951 20.919C76.2546 20.3818 77.8614 20.9192 78.6924 20.3576C79.3532 20.5599 79.2957 20.8763 79.7223 21.0902C80.9511 20.9908 82.261 20.8855 83.5585 20.7807C83.853 20.6151 83.2797 20.4211 83.7864 20.2167C84.3197 20.1577 85.0632 20.3681 85.8628 19.9057C85.6547 20.2516 85.5923 20.3549 85.5319 20.4553C85.8469 20.6009 86.2366 20.2889 86.5416 20.5122C86.8909 20.7866 86.3715 20.9971 86.2962 21.2391C86.831 21.4551 87.3622 21.67 87.8639 21.8724C87.6295 22.2517 87.2046 22.1677 86.7692 22.0741C86.5897 22.2633 86.2509 22.434 86.5336 22.6879C86.7821 22.9585 87.2 22.585 87.5574 22.7595C86.9303 23.4968 85.112 23.119 84.3603 23.7333C83.8438 23.587 83.4535 23.4769 83.0695 23.3677C82.9526 23.5053 82.896 23.5716 82.7928 23.6931C82.0455 23.6781 81.2493 23.6643 80.4547 23.6433C80.4192 23.6423 80.391 23.5777 80.3597 23.543C80.2183 23.4013 80.2924 23.3 80.5812 23.2392Z" fill="#F1A5C3"/>
<path fill-rule="evenodd" clip-rule="evenodd" d="M80.5812 23.2392C80.2924 23.3 80.2183 23.4013 80.3597 23.543C78.9447 23.943 77.4294 23.6975 75.9985 23.6444C73.6189 23.5567 71.2581 23.3145 68.8921 23.1451C67.1438 23.0203 65.385 22.7387 63.6222 22.5536C61.2288 22.3024 58.9108 21.9028 56.4914 21.6964C55.0625 21.574 53.6974 21.2622 52.2977 21.0521C50.3264 20.7557 48.2662 20.5988 46.3641 20.1634C45.3805 19.9378 44.379 19.7095 43.2199 19.7067C42.7177 19.7054 42.1293 19.5864 41.7161 19.3006C41.5128 19.1599 40.7979 19.2736 40.2928 19.1894C35.283 18.347 30.2878 17.4875 25.3503 16.5387C22.2961 15.9521 19.3579 15.2299 16.3295 14.6114C13.9233 14.1201 11.5297 13.5562 9.24646 12.925C8.36795 12.6819 7.18253 12.5975 6.5484 12.1353C6.78398 11.8542 7.14331 11.8352 7.48834 11.9526C9.69463 12.7061 12.1213 13.218 14.6298 13.6351C15.4734 13.775 16.041 14.1372 16.9166 14.2622C17.6633 14.3693 18.4383 14.4623 19.0488 14.7974C19.4134 14.9971 20.1518 15.1291 20.6987 15.1104C21.607 15.0791 22.2299 15.3725 22.9919 15.4603C23.7877 15.5513 24.399 15.7693 25.0919 15.9226C26.0961 16.1447 27.3446 16.0712 28.1935 16.5365C29.2539 16.3331 29.8557 16.9469 30.6855 16.9343C31.6685 16.9194 32.2655 17.2687 33.0942 17.383C33.8752 17.4908 34.7143 17.5431 35.4726 17.7366C36.2727 17.9411 37.1525 18.0657 37.9963 18.225C38.8412 18.3845 39.6816 18.5491 40.5322 18.7017C41.3487 18.8489 42.2325 18.9134 43.0307 19.0403C44.7846 19.3194 46.6154 19.4439 48.3319 19.8116C50.1858 20.2087 52.1853 20.3891 54.1545 20.6176C56.1178 20.8457 58.1478 21.0388 60.0077 21.4031C61.406 21.6772 62.9596 21.5387 64.23 21.9673C65.2788 21.7721 66.1273 22.2028 67.1555 22.2268C67.9204 22.2451 68.9095 22.3054 69.6985 22.6197C70.0876 22.7749 71.1754 22.5221 71.4754 22.6823C72.0511 22.989 72.4462 22.7797 72.9608 22.7837C73.3553 22.7866 73.8058 22.7538 74.2159 22.8154C76.1993 23.1141 78.2295 23.1441 80.2764 23.1018C80.3746 23.0998 80.4798 23.1912 80.5812 23.2392Z" fill="#F1A5C3"/>
</svg>
