<svg width="273" height="20" viewBox="0 0 273 20" fill="none" xmlns="http://www.w3.org/2000/svg">
<path fill-rule="evenodd" clip-rule="evenodd" d="M197.287 12.1368C197.262 12.2754 197.239 12.4136 197.216 12.5523C200.22 12.8769 203.21 12.8329 206.18 12.2476C203.215 12.211 200.251 12.1739 197.287 12.1368ZM97.7167 12.5601C94.6191 12.4281 91.4642 12.3874 88.3965 12.8808C91.5297 13.1749 94.612 13.0627 97.7167 12.5601ZM138.18 15.2034C141.525 15.8218 146.669 15.6806 150.042 15.0204C145.976 15.0831 142.077 15.1432 138.18 15.2034ZM160.618 9.59737C162.894 9.13812 165.797 9.28027 167.747 8.43518C165.305 8.74044 162.011 8.03537 160.618 9.59737ZM27.0616 10.1553C30.4971 10.7198 32.9427 10.7832 35.5778 9.61231C32.549 9.78854 30.1073 9.58717 27.0616 10.1553ZM181.635 8.49318C180.057 7.4471 173.739 7.54771 170.756 8.6786C174.286 8.16729 177.898 8.5792 181.635 8.49318ZM157.764 9.07206C150.15 9.70268 142.542 9.99536 134.554 9.87889C137.77 11.2668 153.416 10.6887 157.764 9.07206ZM108.997 6.85054C101.477 6.11699 94.1682 7.64001 86.6711 7.23488C85.8737 7.19218 84.883 7.37273 84.9195 7.7377C84.9648 8.19604 86.0641 8.26303 86.9669 8.25448C90.776 8.21975 94.6033 7.97765 98.3574 7.98371C102.298 7.99068 105.488 7.30891 108.941 6.81068C113.137 7.31135 117.234 6.86848 121.504 6.67501C119.414 5.37036 113.682 5.49756 108.997 6.85054ZM201.747 19.2801C194.823 19.4 189.559 18.2387 186.158 15.6226C185.314 14.9727 184.119 14.3497 182.304 14.4069C177.587 14.5551 172.985 13.9096 168.175 14.3217C160.784 14.9549 153.599 16.0372 146.009 16.2404C143.136 16.3176 140.259 16.369 137.33 16.4329C136.73 16.9995 138.664 16.7481 138.71 17.1437C138.351 17.1638 137.96 17.2406 137.709 17.1903C133.445 16.3364 128.218 15.9857 126.152 13.8817C125.375 13.0896 123.645 12.7327 122.837 11.9817C122.552 11.7175 120.095 11.747 118.714 11.8492C110.946 12.4245 103.223 13.1091 95.4433 13.655C92.7393 13.8443 89.9219 13.7678 87.1574 13.7633C85.9807 13.7607 85.0364 13.6909 84.354 13.0356C83.8304 12.5353 82.8372 11.4844 80.382 12.1646C79.3937 11.3251 76.1963 11.7212 75.6842 10.4164C75.1049 8.93809 72.4653 8.89895 69.1076 9.04702C64.4687 9.25142 61.4401 10.854 57.0082 11.0556C56.0955 11.0971 55.4296 11.3752 54.8815 11.7022C54.4958 11.9315 53.9011 12.3159 53.5167 12.2917C49.8716 12.0633 49.2735 13.6915 46.9 14.2017C43.1194 15.0131 39.3783 15.8887 34.9749 15.9315C33.6042 15.9445 33.638 15.9675 32.5516 16.6134C32.3647 16.7254 31.7619 16.7439 31.3474 16.748C28.5026 16.7773 27.5147 16.384 25.3779 14.7992C24.9691 14.4957 23.448 14.4698 22.4507 14.3042C18.9983 13.7293 19.0489 12.0227 16.7372 11.0757C16.3105 10.9011 15.8873 10.3603 15.4516 10.6396C13.6261 11.8117 9.60613 11.3514 7.92883 12.5973C7.39524 12.9923 6.40137 13.285 5.5445 13.5865C4.60499 13.9173 3.45707 14.3221 2.29618 14.1141C1.3088 13.9376 1.54681 13.3405 1.79188 12.9377C2.28345 12.1274 -0.642395 11.9899 0.130927 10.9725C1.01681 9.80677 2.58068 8.87301 4.4703 8.13958C9.11633 6.33601 12.0023 4.02763 15.2935 1.83373C16.2387 1.20401 17.0133 0.7734 18.9409 0.931176C20.7486 1.07921 21.435 1.4586 22.2577 2.21926C23.8782 3.71529 24.292 5.25699 24.7342 6.8222C24.9809 7.6945 26.1673 8.13333 28.0132 8.17881C32.4255 8.28937 36.728 8.19011 40.3217 6.83268C46.925 4.33729 55.1761 3.28994 63.262 2.06541C65.1692 1.77662 67.0354 1.27325 68.9164 0.866033C71.0828 0.396505 73.3827 0.306335 75.6884 0.521706C78.1302 0.74958 79.1869 1.47125 79.7337 2.53095C81.2295 5.42793 83.6993 6.07558 90.6579 5.69546C98.1151 5.28812 105.563 4.76842 113.054 4.5901C116.514 4.50827 119.938 4.03841 123.535 4.38333C126.579 4.67533 129.203 5.12379 130.243 6.4212C131.371 7.82553 133.787 8.14216 136.774 8.16214C144.848 8.21568 152.84 7.88757 160.723 7.15135C166.733 6.59004 172.795 6.13855 178.926 6.03321C183.534 5.95326 187.941 6.45043 190.598 8.28209C192.816 9.81256 196.052 10.2503 199.994 10.2749C209.903 10.3365 219.588 9.58494 229.271 8.85318C240.573 8.00008 251.683 6.71133 263.106 6.12651C265.815 5.98796 268.562 5.74788 271.117 6.55356C269.622 7.37118 267.694 7.21443 266 7.23722C262.313 7.28678 258.709 7.51847 255.17 7.93971C254.72 7.99303 253.857 8.05385 254.121 8.36239C254.414 8.70373 254.956 8.48794 255.616 8.43965C260.099 8.1071 264.497 7.28191 269.19 7.87949C270.353 8.02773 272.238 7.90963 270.904 8.87857C270.423 9.22671 271.572 9.28044 271.95 9.47374C272.317 9.6621 272.875 9.98871 272.467 10.0637C270.875 10.356 270.381 11.3148 268.961 11.4054C263.344 11.7647 257.786 12.3825 252.622 13.2288C246.841 14.1767 240.229 14.2461 235.232 16.0506C231.314 15.5344 228.994 17.6133 224.744 17.1103C221.987 16.7838 219.238 17.8844 216.688 18.3817C211.726 19.3496 206.764 19.2945 201.681 19.2793C204.56 18.5744 208.005 18.9988 210.958 18.4124C206.706 18.6413 202.45 18.488 198.125 18.5617C199.034 19.2004 201.205 18.4405 201.747 19.2801Z" fill="#F1A5C3"/>
</svg>
