<svg width="246" height="23" viewBox="0 0 246 23" fill="none" xmlns="http://www.w3.org/2000/svg">
<path fill-rule="evenodd" clip-rule="evenodd" d="M137.557 11.9231C137.315 11.6423 137.005 12.0926 136.858 11.7946C136.719 11.5122 136.178 11.5356 135.873 11.3892C135.72 11.3163 135.764 11.2493 135.927 11.2277C136.536 11.1767 136.931 11.5643 137.529 11.4469C137.681 11.3418 137.805 11.2561 137.936 11.1651C138.529 11.4379 138.348 11.8867 138.917 12.121C140.069 12.2223 140.252 11.7702 140.604 11.4101C140.643 11.3715 140.825 11.3695 140.942 11.3505C141.211 11.5962 140.506 11.7495 140.664 11.9243C141.303 12.4464 141.539 11.7807 142.323 11.9225C142.205 11.9176 141.964 12.1386 142.356 12.0885C142.763 11.9837 142.598 11.6404 143.148 11.593C144.118 12.0118 145.119 12.0683 147.061 11.8146C147.113 11.8858 147.166 11.9572 147.217 12.0283C147.653 12.036 147.579 11.6991 148.031 11.7183C148.51 11.7301 148.456 11.9817 148.699 12.1002C151.1 11.9552 151.1 11.9552 152.284 12.1965C152.899 12.0455 153.7 11.849 154.501 11.6525C155.275 11.6497 155.233 12.0482 155.615 12.1773C156.444 12.0055 157.324 11.8592 158.121 12.0724C158.701 12.2279 159.236 12.163 159.794 12.187C161.107 12.2446 162.424 12.2878 163.734 12.3582C163.96 12.3701 164.317 12.414 164.224 12.6712C163.483 12.7154 162.747 12.7586 161.942 12.7041C160.224 12.5889 158.481 12.4796 156.758 12.511C155.02 12.542 153.291 12.274 151.538 12.5135C151.158 12.5655 150.572 12.5063 150.094 12.4813C147.47 12.3444 144.831 12.3916 142.189 12.4377C140.752 12.4627 139.258 12.6503 137.829 12.3634C137.705 12.3387 137.611 12.2764 137.502 12.2309C137.527 12.0913 137.552 11.951 137.557 11.9231ZM147.414 7.13054C147.49 7.2989 147.531 7.39027 147.584 7.50831C146.724 7.4512 146.089 7.28045 145.698 6.85181L145.392 7.19197C145.25 7.20382 145.056 7.25113 144.983 7.22158C144.358 6.96931 143.583 6.98494 142.911 7.01912C142.122 7.05923 141.364 7.30403 140.614 6.96954C140.561 6.94621 140.454 6.91744 140.414 6.92902C138.903 7.37549 137.147 7.02869 135.587 7.31647C135.075 7.41063 135.55 7.5443 135.478 7.73214C133.901 7.43861 132.374 6.95971 130.395 7.3607C130.383 7.37124 130.196 7.52593 130.016 7.67618C129.824 7.75279 129.76 7.72871 129.702 7.62203C129.534 7.31263 129.042 7.18828 128.512 7.28162C126.932 7.5596 125.296 7.43284 123.694 7.47028C120.744 7.53967 117.836 7.77596 114.907 7.91733C111.956 8.05964 109.033 8.25691 106.112 8.50467C102.262 8.83109 98.4012 9.11314 94.562 9.48841C92.0777 9.73052 89.5664 9.97329 87.0376 10.1408C84.6283 10.2997 82.278 10.6746 79.8849 10.9144C77.0765 11.1952 74.3408 11.6314 71.4928 11.8402C70.0709 11.9448 68.7327 12.3045 67.2766 12.451C61.8729 12.9943 56.8019 14.0769 51.6593 15.0384C50.7303 15.2125 49.7721 15.3655 49.2318 15.9797C50.5339 16.0412 51.6831 16.0796 52.833 15.8562C54.5174 15.5291 56.2128 15.216 57.9036 14.8969C58.7485 14.7374 59.5739 14.4967 60.4443 14.4411C61.3165 14.3854 62.0636 14.169 62.9217 14.1068C63.7691 14.0454 64.5722 13.8697 65.4361 13.7849C66.9307 13.639 68.3814 13.3452 69.8542 13.1226C71.7365 12.8383 73.6857 12.7862 75.5601 12.5005C77.4759 12.2092 79.4756 12.0617 81.4308 11.8327C82.0602 11.7589 82.6042 11.558 83.3357 11.749C83.6203 11.8236 84.179 11.676 84.5727 11.5852C85.9791 11.2599 87.5002 11.2218 88.99 11.1034C90.5254 10.9818 92.065 10.8727 93.6 10.7496C98.0033 10.3961 102.421 10.0802 106.803 9.66589C109.585 9.40342 112.428 9.43246 115.187 9.11194C116.164 9.31735 116.897 8.7992 117.92 8.89916C118.699 8.97459 119.559 9.00952 120.44 8.84867C121.071 8.73328 121.746 8.56471 122.484 8.57808C123.247 8.59176 124.016 8.59652 124.776 8.56704C125.549 8.53753 126.337 8.50173 127.076 8.3937C127.85 8.28016 128.641 8.37963 129.369 8.29094C129.783 8.24038 130.295 8.47357 130.56 8.21474C130.81 7.97177 131.098 7.9931 131.443 8.11117C132.101 8.33732 132.823 8.21303 133.509 8.229C133.777 8.09414 133.695 7.85032 134.181 7.75173C135.063 8.35793 136.57 7.98819 137.683 8.30175C138.459 7.7248 139.493 8.28194 140.368 8.14298C141.273 7.99975 142.152 8.26211 143.082 8.16112C144.59 7.99769 146.135 8.1078 147.666 8.10052C149.127 8.09331 150.597 8.07881 152.045 7.99478C152.653 7.95984 152.856 8.04805 153.031 8.37387C154.288 7.77957 156.111 8.68162 157.35 7.86365C157.493 7.9745 157.615 8.16876 157.774 8.17655C159.225 8.24974 160.656 8.44319 162.137 8.35803C163.328 8.28972 164.561 8.26992 165.648 8.53639C166.191 8.6687 166.736 8.60496 167.109 8.57203C169.488 8.36031 171.703 8.76794 173.97 8.94732C175.764 9.0892 177.567 9.15821 179.367 9.25714C181.587 9.37927 183.822 9.42652 186.012 9.70682C187.353 9.87796 188.783 9.8585 190.15 9.9886C191.122 10.0814 192.192 10.0283 193.04 10.357C193.674 10.6025 194.446 10.3353 195.155 10.5453C195.415 10.6219 196.238 10.4847 196.531 10.6822C196.9 10.9301 197.642 10.4035 197.741 10.8857C198.752 10.9515 199.788 11.1207 200.769 11.0594C202.407 10.9569 203.8 11.3626 205.326 11.4753C207.778 11.6571 210.024 12.3232 212.561 12.3769C213.353 12.8121 214.866 12.4071 215.537 13.051C215.697 13.2047 216.29 13.0111 216.758 13.0812C219.254 13.4543 221.839 13.6945 224.145 14.337C224.648 14.4771 225.473 14.2114 225.676 14.6674C226.496 14.4399 227.071 14.7847 227.73 14.9068C228.364 15.0238 228.982 15.3239 229.575 15.3035C231.056 15.2524 231.672 15.9851 232.923 16.1219C233.969 16.2361 234.807 16.7185 236.024 16.587C236.201 16.5681 236.549 16.6469 236.617 16.7254C237.065 17.25 238.101 17.342 238.955 17.4913C240.449 17.7528 241.409 18.4289 242.878 18.6955C243.053 18.7276 243.082 18.9686 243.239 19.201C241.866 18.9011 240.435 18.8073 239.453 18.193C239.197 18.0328 238.707 17.9622 238.309 17.8685C235.921 17.3086 233.504 16.7792 231.149 16.1857C230.083 15.9173 228.86 16.0424 227.821 15.6965C226.889 15.3862 225.808 15.0386 224.762 15.0103C223.602 14.9788 222.732 14.5577 221.67 14.5864C220.521 14.6181 219.779 14.1771 218.784 14.0853C216.65 13.8884 214.689 13.3712 212.591 13.1737C210.851 13.0103 209.17 12.7284 207.426 12.6144C207.02 12.588 207.146 12.1848 206.519 12.3978C206.143 12.5259 205.711 12.2757 205.308 12.1946C204.939 12.1205 204.614 12.3582 204.262 12.2087C203.864 12.0408 203.382 12.2209 203.024 12.156C202.006 11.9709 200.995 11.8068 199.939 11.6698C197.879 11.4025 195.786 11.254 193.718 11.0321C192.72 11.3477 192.063 10.6435 191.005 10.8241C190.223 10.9575 189.354 10.6741 188.531 10.5916C185.795 10.3158 183.023 10.1067 180.247 9.96127C178.299 9.85926 176.345 9.87347 174.428 9.57625C173.611 9.44999 172.614 9.49972 171.74 9.51106C169.21 9.54426 166.747 9.29386 164.261 9.1707C163.067 9.11166 161.894 9.17964 160.716 9.15886C158.774 9.12345 156.863 8.88436 154.883 9.00782C153.589 9.08845 152.229 8.74702 150.925 9.08787C149.994 8.58062 148.855 9.08963 147.797 8.92281C146.762 8.75993 145.603 8.97255 144.475 8.89283C143.454 8.82064 142.392 8.87639 141.352 8.90865C140.308 8.94058 139.27 9.0134 138.227 9.06807L137.788 9.55407C137.385 9.35489 137.144 9.06554 136.579 9.04806C136.181 9.04703 136.166 9.24573 135.938 9.32577C135.798 9.32048 135.641 9.3356 135.525 9.30679C134.128 8.963 132.553 8.95488 131.178 9.08988C128.732 9.32983 126.281 9.22636 123.842 9.33522C120.981 9.46244 118.127 9.64761 115.268 9.7438C111.896 9.85693 108.599 10.2258 105.23 10.3425C102.909 10.4234 100.611 10.6983 98.3085 10.9005C95.3685 11.1589 92.4475 11.486 89.4918 11.6812C87.0844 11.8401 84.7501 12.1619 82.3696 12.3755C79.9734 12.5906 77.5641 12.7979 75.2075 13.1455C73.1493 13.4494 71.0056 13.6013 68.9059 13.8364C66.5907 14.0957 64.3177 14.4382 61.9959 14.6877C60.4475 14.8539 58.8599 15.0696 57.3437 15.3504C54.732 15.8345 52.1279 16.3305 49.5252 16.8268C49.1958 16.8896 48.7688 16.8932 48.6308 17.1531C48.8855 17.5431 49.5769 17.5216 50.2704 17.4151C50.0898 17.9671 49.0283 17.78 48.7264 18.1278C48.6034 18.3186 48.945 18.4651 48.9951 18.6495C49.5322 18.3625 49.696 18.8866 50.0919 18.7824C50.5161 18.671 50.9725 18.9352 51.3519 18.7242C51.8169 18.8629 51.1342 19.0583 51.6266 19.2856C52.7243 19.1554 53.9717 19.0245 55.2 18.8573C56.0368 18.743 56.8065 18.548 57.7251 18.5396C58.4833 18.5327 59.1752 18.1215 60.0386 18.4365C60.1959 18.4939 60.3619 18.327 60.5196 18.2783C61.6115 17.9407 63.3684 17.8014 65.0368 17.8419C65.9497 17.8641 66.884 17.7586 67.742 17.6673C69.2853 17.5037 70.8031 17.2736 72.378 17.1667C72.6336 17.1495 72.8794 17.0584 73.1241 16.9625C74.1899 16.544 75.4078 16.3873 76.7701 16.5404C77.4726 16.6194 77.7788 16.5299 78.8411 16.313C79.3542 16.2088 79.9538 16.1761 80.4969 16.1214C82.7278 15.8961 85.0001 15.8023 87.2116 15.5582C88.5504 15.4106 89.9438 15.7863 91.1976 15.37C92.0311 15.703 92.7325 15.3226 93.5003 15.2717C95.3784 15.1472 97.2454 14.8224 99.1382 14.983C99.8145 15.0407 99.9164 14.4297 100.583 14.7831C102.377 14.5932 104.229 14.688 106.012 14.5149C106.695 14.4486 107.437 14.1977 108.075 14.2871C109.289 14.4564 110.428 13.8638 111.595 14.2653C112.616 13.8053 113.77 14.0626 114.908 14.0608C115.786 14.0593 116.566 13.7604 117.611 13.9218C118.489 14.0573 119.541 13.9176 120.514 13.876C121.489 13.8347 122.438 13.6296 123.441 13.7573C124.094 13.2778 125.106 13.5065 125.93 13.4849C126.818 13.4615 127.76 13.3135 128.628 13.5087C129.305 13.6607 129.724 13.0108 130.504 13.4156C130.986 13.6653 131.729 13.4369 132.354 13.4476C132.956 13.4578 133.658 13.5936 134.081 13.1759C134.201 13.0569 134.715 13.0137 135.063 12.9879C136.446 12.8853 137.949 13.219 139.216 12.6894C139.952 12.9143 140.837 12.6764 141.483 12.7953C143.58 13.1818 145.678 12.9158 147.742 12.8752C149.269 12.8451 150.841 13.1794 152.338 12.7954C153.321 13.148 154.443 12.7878 155.451 12.9466C156.629 13.1326 157.826 12.8473 158.991 13.0118C160.158 13.1761 161.354 13.0324 162.529 13.1111C162.727 13.1242 162.95 13.0386 163.26 12.9801C164.841 13.6699 167.106 13.005 169.114 13.652C168.139 13.6694 167.474 13.6813 166.448 13.6994C168.296 14.1925 170.039 13.9324 171.645 14.1258C173.231 14.316 174.956 14.258 176.618 14.3372C178.277 14.4158 179.975 14.3842 181.596 14.5509C183.252 14.7211 184.935 14.704 186.586 14.8818C188.219 15.0578 189.9 15.1179 191.647 15.2348C191.794 15.1015 191.969 14.9431 192.145 14.7848C193.545 14.5966 194.718 15.1496 196.083 15.0997C196.279 15.0928 196.523 15.2479 196.692 15.2257C198.223 15.0214 199.579 15.5024 201.054 15.4947C202.578 15.4868 203.879 15.9647 205.394 16.0064C207.154 16.0549 208.806 16.42 210.568 16.5003C211.48 16.5417 212.235 16.9721 213.255 16.8218C214.359 17.2312 215.728 17.2417 216.975 17.4086C218.095 17.5592 219.226 17.6661 220.259 17.9449C221.494 17.6263 222.33 18.5157 223.587 18.2304C223.768 18.1895 224.13 18.3343 224.393 18.4083C226.064 18.8787 227.953 18.9981 229.75 19.2632C230.273 19.3406 230.423 19.6855 231.04 19.7043C233.493 19.7796 235.407 20.5793 237.621 20.9755C238.552 21.1421 239.23 21.4399 239.769 21.8447C239.646 21.8756 239.522 21.9056 239.38 21.9407C239.152 22.5792 239.929 22.9121 240.96 22.9932C241.816 23.0599 242.145 22.6254 242.387 22.2434C243.246 22.2234 244.198 22.2664 244.406 21.6778C244.523 21.3443 245.07 21.2161 245.51 21.029C245.462 20.7082 245.201 20.3472 245.408 20.0805C245.872 19.4858 245.323 19.0278 244.745 18.6322C244.134 18.2151 243.292 17.8792 242.452 17.5468C240.129 16.6294 237.368 16.1778 234.784 15.5416C232.214 14.9093 229.59 14.335 227.005 13.7182C226.079 13.4974 225.026 13.6118 224.088 13.3241C223.256 13.0689 222.374 12.6932 221.227 12.8826C219.867 12.3979 218.121 12.513 216.683 12.0952C214.859 11.5652 212.751 11.4205 210.717 11.2029C210.263 11.1545 209.785 11.0305 209.414 11.0378C208.818 11.05 208.367 10.9253 207.986 10.7904C207.207 10.5149 206.298 10.6492 205.465 10.5215C204.615 10.3909 203.668 10.352 203 10.1392C202.535 10.2418 202.593 10.4805 202.02 10.4378C201.586 9.9169 200.576 9.87667 199.461 9.81306C197.286 9.68867 195.141 9.44912 193.044 9.10464C192.391 8.99753 191.67 8.99176 190.976 8.96036C189.21 8.88094 187.443 8.8066 185.638 8.39469C185.373 8.46918 184.982 8.57872 184.745 8.64596C184.306 8.56861 184.579 8.35192 184.071 8.34453C183.169 8.33175 182.227 8.36982 181.375 8.14326C181.251 8.11065 181.103 8.09252 180.964 8.08497C180.52 8.06257 179.944 8.56167 179.641 7.99508C179.017 8.29618 178.447 7.82611 177.755 7.97224C177.295 8.06982 176.609 7.93228 176.133 7.87473C175.557 7.8052 174.997 7.88685 174.45 7.79464C173.38 7.613 172.13 7.97076 171.227 7.52392C170.775 7.52928 170.771 7.7338 170.528 7.80753C169.918 7.57547 167.81 7.42831 166.496 7.529C166.499 7.64394 166.504 7.76093 166.507 7.87907C166.352 7.87066 166.153 7.89027 166.085 7.85141C165.626 7.58386 165.307 7.19231 164.369 7.41448C162.891 7.12656 161.29 7.17283 159.807 7.20072C158.505 7.22566 157.297 7.11367 156.062 7.0262C154.881 6.94251 153.689 7.24385 152.532 6.97032C150.893 7.27657 149.161 6.87336 147.414 7.13054Z" fill="#F1A5C3"/>
<path fill-rule="evenodd" clip-rule="evenodd" d="M80.4748 0.528396C81.2623 0.760204 82.4146 0.452409 83.0082 0.969814C82.9926 1.29461 82.3839 1.23654 82.0092 1.39691C80.8411 1.05987 79.6477 1.08557 78.2994 1.13574C76.9689 1.18541 75.7183 1.45093 74.3325 1.39858C73.0272 1.34973 71.6803 1.55264 70.3583 1.66343C69.0248 1.77479 67.7 1.90986 66.3707 2.03186C65.3229 2.12889 64.2446 2.1712 63.2306 2.32552C60.8103 2.69337 58.3305 2.91529 55.8753 3.19881C54.6005 3.34599 53.384 3.6019 52.0903 3.75391C49.8699 4.01495 47.7525 4.50046 45.5339 4.77162C43.1462 5.06393 40.9249 5.60423 38.5732 5.91C33.2721 6.59954 28.3266 7.77695 23.1834 8.67967C22.3476 8.82603 21.5286 9.0031 20.6832 9.14906C18.8282 9.46974 16.8648 9.72409 15.4622 10.4818C14.9217 10.7735 14.3027 10.4234 13.6502 10.7044C13.0829 10.9492 12.1607 11.1651 11.2877 11.2529C10.4015 11.3423 9.64423 11.6113 8.82661 11.7748C7.8433 11.9718 6.86541 12.2445 5.81375 12.4648C5.36493 12.8274 4.90837 13.2126 4.40716 13.5828C4.32223 13.6457 4.04675 13.6416 3.88406 13.6647C3.56675 13.4943 4.31579 13.2788 3.49609 13.1019C2.55672 13.2149 1.48422 13.3948 0.582379 13.8584C0.568442 13.9817 0.977366 13.979 1.11021 14.0958C1.23407 14.2055 1.1889 14.3927 1.64734 14.2897C2.1477 14.1775 1.9232 14.4708 2.14665 14.5375C2.78089 14.4251 2.61504 14.0142 3.08354 13.8406C3.92718 13.6734 3.63928 14.2406 4.2785 14.2688C4.85275 14.1554 5.30442 13.8905 5.84305 13.6593L6.60207 13.8359C8.07846 13.5782 9.06596 12.8029 10.8038 12.9025C11.6307 12.9495 11.915 12.3902 12.8903 12.4814C13.5714 12.5448 14.0905 12.1427 14.6259 11.9362C14.8857 11.7661 14.5134 11.6476 14.595 11.4744C15.5876 11.4214 15.3177 11.9314 15.6927 12.1517C16.1796 12.0595 16.6717 11.9666 17.1648 11.8735C17.101 11.7709 17.0371 11.6673 16.9739 11.5639C17.6247 11.4826 17.9092 11.0804 18.6063 11.0838C19.0876 11.1118 19.1459 11.3143 19.2798 11.4743C19.5954 11.4147 19.877 11.3616 20.1542 11.3092C20.0897 11.2064 20.0247 11.1031 19.9587 10.9967C21.1557 11.1012 21.1557 11.1012 22.4822 10.8695C22.6916 10.6111 21.6248 10.6709 22.2054 10.2115C22.7085 10.0016 23.995 10.5602 24.5561 9.95632C24.697 10.0773 24.8332 10.1954 25.0582 10.3896C25.9938 10.1436 27.0528 10.0432 27.9041 9.80808C28.8651 9.54306 29.946 9.55538 30.922 9.24857L31.4929 8.61558C32.1966 8.76785 32.8706 8.41984 33.509 8.51254C35.6553 8.8246 37.3592 8.22991 39.1148 7.8339C39.7584 7.68899 40.2927 7.43828 41.0565 7.48165C41.3012 7.49565 41.4682 7.48788 41.5828 7.35981C42.0693 6.81942 42.8757 6.7027 43.9488 6.88597C44.4914 6.97901 44.9622 6.88444 45.228 6.61094C45.6574 6.16813 46.4925 6.19992 47.0741 6.10249C47.791 6.29061 47.0815 6.49962 47.4535 6.69707C47.7843 6.46041 48.8951 6.72591 48.7192 6.12048C48.7085 6.0829 49.2702 5.92587 49.4551 5.96383C50.1965 6.11469 50.874 6.09547 51.5534 5.9007C52.4634 6.22754 53.2875 5.94497 54.0523 5.76131C55.0706 5.51653 56.1884 5.49496 57.2351 5.38799C58.5385 5.25442 59.7121 5.07629 60.7803 4.68238C61.0774 4.57277 61.4397 4.50976 61.6889 4.44626C62.4908 4.69436 63.1014 4.72703 63.9157 4.62877C66.6086 4.30451 69.2984 3.93839 72.0854 3.86975C73.0574 3.84563 73.6596 3.53682 74.0914 3.168C74.373 2.92637 74.8124 2.93118 75.0887 2.84861C76.1482 3.38577 77.7549 2.84839 78.5859 3.40999C79.2467 3.20765 79.1893 2.89126 79.6159 2.67737C80.8447 2.77678 82.1545 2.88211 83.4521 2.98691C83.7465 3.15245 83.1732 3.34651 83.68 3.55085C84.2133 3.60985 84.9567 3.3995 85.7563 3.86186C85.5482 3.51594 85.4858 3.41272 85.4255 3.31229C85.7405 3.16667 86.1301 3.47863 86.4352 3.25538C86.7845 2.98101 86.2651 2.7705 86.1897 2.52845C86.7246 2.31251 87.2558 2.09757 87.7575 1.89516C87.5231 1.51586 87.0982 1.59987 86.6628 1.69346C86.4833 1.50433 86.1445 1.33354 86.4271 1.07968C86.6757 0.809108 87.0935 1.1826 87.451 1.00805C86.8239 0.270806 85.0056 0.648547 84.2539 0.0342809C83.7373 0.180571 83.347 0.290667 82.963 0.399903C82.8462 0.262303 82.7896 0.196007 82.6864 0.0745193C81.9391 0.0894984 81.1429 0.103254 80.3482 0.124313C80.3128 0.125301 80.2846 0.189867 80.2532 0.224609C80.1118 0.366296 80.1859 0.467618 80.4748 0.528396Z" fill="#F1A5C3"/>
<path fill-rule="evenodd" clip-rule="evenodd" d="M80.4748 0.528396C80.1859 0.467618 80.1118 0.366296 80.2532 0.224609C78.8382 -0.175438 77.3229 0.0700382 75.892 0.123137C73.5124 0.210855 71.1517 0.453087 68.7857 0.622501C67.0374 0.747229 65.2785 1.02886 63.5158 1.21397C61.1223 1.46522 58.8043 1.86475 56.3849 2.07117C54.9561 2.19357 53.591 2.50542 52.1913 2.71545C50.22 3.01183 48.1598 3.16882 46.2577 3.6042C45.2741 3.82978 44.2725 4.05811 43.1134 4.06085C42.6112 4.0622 42.0229 4.18116 41.6096 4.46698C41.4064 4.60767 40.6915 4.49393 40.1863 4.5782C35.1766 5.42055 30.1813 6.28012 25.2438 7.22889C22.1897 7.81553 19.2515 8.53771 16.2231 9.15622C13.8169 9.64747 11.4233 10.2114 9.14001 10.8426C8.26151 11.0857 7.07609 11.1701 6.44195 11.6322C6.67754 11.9134 7.03687 11.9324 7.38189 11.815C9.58819 11.0615 12.0148 10.5496 14.5233 10.1325C15.3669 9.99257 15.9345 9.63042 16.8102 9.50536C17.5569 9.39832 18.3319 9.30525 18.9423 8.97018C19.307 8.77051 20.0454 8.63843 20.5922 8.65717C21.5005 8.68845 22.1234 8.39507 22.8854 8.3073C23.6813 8.21632 24.2926 7.9983 24.9855 7.84502C25.9897 7.62284 27.2382 7.69635 28.087 7.23107C29.1474 7.43449 29.7492 6.8207 30.579 6.83323C31.5621 6.84819 32.159 6.49888 32.9877 6.38459C33.7687 6.27677 34.6079 6.2245 35.3662 6.031C36.1662 5.82644 37.046 5.70188 37.8898 5.5426C38.7347 5.38312 39.5752 5.21846 40.4257 5.06583C41.2422 4.91868 42.126 4.85418 42.9243 4.72726C44.6781 4.44816 46.5089 4.3237 48.2254 3.95599C50.0794 3.55884 52.0788 3.37847 54.048 3.14995C56.0113 2.92192 58.0414 2.72881 59.9012 2.36444C61.2996 2.09036 62.8532 2.22887 64.1236 1.80028C65.1723 1.99544 66.0209 1.56474 67.0491 1.54077C67.8139 1.52248 68.8031 1.46217 69.5921 1.14788C69.9812 0.992703 71.069 1.24544 71.369 1.08523C71.9447 0.778567 72.3397 0.987844 72.8543 0.983838C73.2488 0.980968 73.6993 1.01377 74.1095 0.952191C76.0929 0.653528 78.1231 0.623524 80.17 0.665765C80.2681 0.667827 80.3733 0.576376 80.4748 0.528396Z" fill="#F1A5C3"/>
</svg>
