<svg width="331" height="22" viewBox="0 0 331 22" fill="none" xmlns="http://www.w3.org/2000/svg">
<path fill-rule="evenodd" clip-rule="evenodd" d="M21.2625 14.2288C21.9707 14.4018 22.4982 14.6125 22.7454 14.5792C26.9915 14.0059 31.1737 13.3785 35.4279 12.8125C39.1731 12.3136 42.7021 11.6575 46.3879 11.1182C48.3719 10.8271 50.4467 10.6081 52.4543 10.3328C53.9389 10.1285 55.3736 9.70924 56.8442 9.70229C58.924 9.69198 59.7844 9.06584 61.6161 8.91179C64.5641 8.66485 67.2862 8.10743 70.1271 7.702C74.7144 7.04723 79.3327 6.41864 83.9151 5.76067C86.5743 5.37933 89.408 5.10715 91.5776 4.35484C90.4124 4.36394 89.2767 4.42881 88.2415 4.57605C85.1525 5.01524 82.1149 5.49691 79.0337 5.94265C77.5401 6.15872 75.9796 6.31924 74.472 6.52524C72.8554 6.74649 71.2643 6.98994 69.6619 7.22396C68.0594 7.45798 66.478 7.71175 64.8501 7.92161C61.4636 8.35858 58.0689 8.78554 54.932 9.41782C54.4751 9.51027 53.9599 9.56918 53.47 9.64294C50.8987 10.0305 47.9605 10.1289 45.7364 10.7954C45.4423 10.8831 45.0458 10.9903 44.7032 10.9883C41.6569 10.9679 39.0725 11.5178 36.5769 11.9444C33.9928 12.3866 30.7677 12.4674 28.847 13.3444C27.2787 13.1752 26.3028 13.7665 25.143 13.7543C23.6275 13.739 22.7665 13.9946 21.2625 14.2288ZM63.2611 13.3343C66.0326 13.0967 68.7712 12.7873 71.5821 12.6346C82.1242 12.0628 92.6854 11.5276 103.252 11.0096C108.14 10.7694 112.926 10.2756 117.952 10.347C119.496 10.3692 121.073 10.205 122.613 10.0892C124.136 9.97398 125.669 10.3149 127.311 9.87313C128.267 9.61549 130.231 9.82009 131.729 9.7739C134.224 9.69761 136.769 9.62545 139.197 9.50411C145.318 9.19882 151.611 9.35317 157.595 8.71007C157.866 8.68045 158.221 8.63157 158.434 8.66627C160.294 8.97395 162.019 8.57979 163.811 8.55818C165.6 8.5367 167.396 8.5183 169.178 8.45766C172.808 8.33438 176.431 8.08882 180.063 8.07888C182.469 8.07185 184.776 7.89227 187.129 7.86348C192.79 7.7937 198.439 7.72739 204.089 7.53981C206.286 7.46715 208.57 7.28929 210.708 7.36691C214.71 7.51267 218.622 7.25782 222.58 7.25657C228.087 7.25476 233.594 6.99428 239.1 6.99876C244.287 7.00305 249.461 6.93386 254.64 6.91448C259.265 6.89844 263.888 6.91004 268.514 6.90948C272.455 6.90926 276.398 6.91356 280.339 6.90401C280.956 6.90253 281.569 6.83757 282.231 6.79929C282.076 6.66104 282.035 6.58109 281.979 6.5793C279.832 6.5321 277.659 6.40255 275.545 6.47579C273.494 6.54622 271.472 5.9597 269.47 6.4778C265.117 6.48242 260.763 6.48011 256.411 6.49209C251.774 6.50575 247.136 6.50934 242.502 6.56165C238.641 6.60465 234.77 6.81875 230.927 6.76395C225.439 6.6854 219.997 6.85322 214.538 6.91401C209.963 6.96484 205.404 7.21169 200.831 7.25082C195.304 7.29842 189.795 7.3683 184.302 7.58413C181.672 7.68757 179.014 7.85173 176.393 7.80945C172.768 7.75063 169.245 8.01527 165.655 8.04414C162.87 8.06644 160.098 8.23721 157.313 8.27544C156.828 8.28252 156.301 7.95954 155.564 7.71086C155.25 8.17486 153.944 8.49391 152.841 8.31803C150.586 7.95858 148.519 8.36356 146.372 8.32027C145.523 8.30293 144.623 8.64744 143.757 8.64195C140.011 8.61852 136.282 8.64412 132.601 8.89148C131.412 8.97112 130.303 9.24654 129.123 9.27472C127.116 9.32278 124.796 9.025 123.133 9.27882C121.128 9.58542 118.943 9.36722 117.084 9.75862C116.647 9.85067 115.79 9.67303 115.145 9.69285C114.428 9.71523 113.415 9.9583 113.088 9.86768C111.831 9.51855 110.447 9.64981 109.472 9.8285C108.185 10.0645 106.702 10.3281 105.573 10.1933C103.804 9.98177 102.903 10.5746 101.353 10.4937C99.4683 10.3948 97.5463 10.5747 95.6489 10.6249C93.6152 10.6784 91.6573 11.0157 89.6233 11.1449C84.5464 11.4679 79.4448 11.7431 74.3537 12.0374C72.2328 12.16 70.102 12.2668 67.9936 12.4105C66.1862 12.5332 64.4938 12.7592 63.2611 13.3343ZM84.3917 4.13054C82.8572 3.42573 81.1272 3.40651 79.5876 3.499C78.1977 3.58284 76.9906 4.03249 75.4059 3.71434C74.3803 4.28748 72.5815 3.7774 71.3996 4.04304C69.9397 4.37174 68.6759 3.84083 67.302 3.99638C67.1081 4.41309 67.1081 4.41309 63.5293 4.61221C61.2072 4.74218 61.2072 4.74218 59.1396 4.43834C58.5733 4.62838 58.0011 4.82032 57.3572 5.0366C57.2249 4.83606 57.1342 4.69954 56.8874 4.3254C56.4487 4.7481 56.2134 4.97649 55.9051 5.2728C54.8862 5.0404 53.1668 5.14213 52.4111 4.54455C52.3382 4.48817 50.8837 4.63868 49.833 4.70835C50.0629 4.08837 50.2696 3.52255 50.5015 2.89041C53.0548 2.44995 55.821 2.08612 58.8314 1.90432C61.856 1.72131 64.8014 1.37936 67.8277 1.20209C70.5697 1.04046 73.3717 0.991892 76.156 0.921043C78.807 0.852852 81.3441 0.402451 84.0846 0.641365C88.4542 -0.173656 93.3192 0.605065 97.8727 0.123542C100.248 -0.127602 102.974 0.0418657 105.445 0.295982C106.474 0.401182 107.373 0.656823 108.332 0.84455L110.425 2.52573C110.504 2.61208 110.589 2.69804 110.663 2.7854C111.756 4.06768 111.816 4.09761 108.845 4.79491C106.99 5.22994 104.923 5.55798 102.912 5.94146C102.119 5.76825 101.306 5.59001 100.215 5.35205C100.241 5.56184 100.369 5.6935 100.249 5.78783C99.4354 6.42678 98.449 7.00815 96.0192 6.97151C94.8311 7.72301 92.1786 7.57805 90.4641 8.04266C88.8146 8.48991 86.8545 8.80209 85.026 9.17036C84.5647 9.26306 84.0813 9.34305 83.5657 9.43578C83.9787 9.96422 85.1768 9.93457 86.52 9.85459C91.4626 9.55993 96.416 9.28251 101.362 8.99193C105.47 8.75057 109.598 8.61523 113.771 8.60857C114.627 8.60689 115.465 8.38483 116.34 8.34819C119.393 8.21913 122.456 8.11469 125.52 8.02378C128.443 7.93711 131.232 7.51219 134.292 7.70156C135.486 7.77543 136.836 7.50164 138.092 7.5285C139.171 7.55156 140.031 7.44201 141.013 7.37358C143.287 7.21455 145.701 7.15543 148.005 7.23661C149.17 7.27725 150.543 6.7046 151.526 7.33177C152.815 7.19741 154.083 7.02196 155.399 6.93658C159.64 6.6607 163.933 6.60555 168.246 6.5951C170.886 6.58932 173.52 6.44595 176.158 6.36379C181.431 6.20035 186.698 6.00108 191.982 5.88208C198.988 5.72332 206.004 5.61172 213.019 5.50836C219.04 5.42056 225.071 5.29214 231.089 5.32561C239.94 5.37561 248.764 5.12804 257.629 5.20945C264.531 5.27264 271.476 5.31629 278.366 5.26634C285.584 5.21381 292.763 5.39731 299.963 5.37495C304.639 5.36095 309.318 5.62143 314.003 5.68387C318.032 5.73838 322.027 5.93036 326.056 5.96471C326.553 5.96859 327.048 6.02038 327.563 6.05119C327.318 6.87633 325.57 6.85466 324.096 6.91267C322.719 6.96629 321.317 6.9436 318.923 6.96278C322.108 7.52169 324.562 7.35689 326.884 7.36986C328.17 7.37707 329.057 7.4163 329.7 7.91048C329.127 8.01583 328.562 8.12037 327.94 8.23558C328.791 8.57323 329.727 8.94439 330.777 9.36108C329.881 9.54722 329.052 9.62508 328.932 9.77066C328.798 9.93609 329.301 10.1626 329.546 10.3795C328.596 10.5747 327.025 10.3843 326.439 10.9021C326.354 10.9777 325.497 11.0381 325.47 11.0203C324.454 10.3558 323.139 11.1213 321.864 10.9414C321.105 10.8345 319.601 10.5486 318.539 11.0298C318.402 11.0914 316.997 10.724 316.405 10.7908C315.671 10.8748 315.176 11.1785 314.33 10.8587C314.15 10.7903 313.698 10.6964 313.649 10.7136C311.429 11.4471 309.347 10.6462 307.209 10.661C306.096 10.6682 304.824 10.4245 303.889 10.8409C302.439 10.3868 301.139 11.4535 299.859 10.9231C298.625 10.4122 296.985 11.4241 295.856 10.7355C295.779 10.6886 294.249 10.9383 293.371 11.0244C292.32 11.1271 291.309 10.345 290.202 10.9998C289.058 10.8818 287.786 10.8357 286.797 10.6292C285.272 10.311 284.225 10.3762 283.228 10.8627C283.029 10.9596 282.492 11.0478 282.167 11.0289C281.257 10.9739 280.366 10.7795 279.49 10.7948C278.602 10.8097 277.175 11.1831 276.962 11.101C275.314 10.4657 273.929 11.3358 272.284 11.1135C271.977 10.9153 271.605 10.6755 271.073 10.3333C268.143 11.0814 264.472 10.6244 261.396 11.1685C260.539 11.3206 259.544 11.3183 258.643 11.0368C256.803 10.4642 254.941 10.3955 253.146 11.1036C252.831 11.2282 251.961 11.3605 251.71 11.3032C249.235 10.7362 246.92 11.6857 244.373 11.3498C243.104 11.1827 241.375 11.7022 239.979 11.1975C239.887 11.1644 239.332 11.294 238.976 11.3328C238.323 11.4051 237.515 11.4071 237.025 11.5446C235.636 11.9325 234.977 11.0567 233.569 11.3649C232.678 11.5601 231.505 11.6404 230.428 11.6883C229.224 11.7419 227.958 11.6466 226.771 11.716C225.45 11.7928 224.407 11.6383 223.204 11.5272C222.227 11.4373 220.553 11.9857 219.845 11.8492C217.947 11.4823 216.526 11.9296 214.903 11.962C213.116 11.9985 211.325 12.0209 209.537 12.064C208.315 12.0931 207.071 12.3216 205.915 11.9448C205.77 11.8973 205.081 12.0905 204.628 12.1023C202.879 12.1483 201.165 12.6183 199.337 12.1468C199.101 12.0859 198.467 12.2228 198.006 12.2439C193.988 12.4288 189.97 12.6083 185.952 12.7893C184.419 12.2157 182.982 12.808 181.509 12.843C178.582 12.9116 175.668 13.0331 172.747 13.1243C172.499 13.1324 172.226 13.0888 171.983 13.0546C168.316 12.5395 168.317 12.5391 164.685 12.7339C163.679 12.3769 162.818 11.8661 161.576 11.7041C160.721 11.5923 159.334 11.9646 158.33 12.3283C159.614 12.3536 160.901 12.379 163.251 12.4253C161.598 12.7679 160.275 12.656 159.924 12.8402C159.171 13.236 158.488 12.9162 157.789 12.9442C152.741 13.1466 147.711 13.3966 142.661 13.5826C141.347 13.6305 140.011 14.2341 138.644 13.6175C136.599 13.879 133.972 13.5388 132.432 14.3254C132.36 14.3622 132.239 14.4111 132.133 14.4138C129.236 14.483 126.34 14.5471 123.442 14.6121C122.355 14.1843 121.054 14.4281 119.855 14.4974C114.843 14.7872 109.81 15.0346 104.915 15.5448C103.416 15.7018 101.636 15.9981 100.093 15.4522C99.9127 15.3889 99.226 15.4371 98.878 15.5004C97.9474 15.6718 97.1244 15.9866 96.1585 16.0425C95.1927 16.0983 93.9979 15.7704 93.096 15.8552C90.764 16.0731 88.4732 16.3776 86.2913 16.738C84.2569 17.0739 81.0105 17.1874 78.7162 16.8527L77.1866 17.5906C74.1903 17.8011 71.0636 17.8381 68.0318 18.1031C64.9858 18.3693 61.8387 18.5815 58.7115 18.6291C56.3611 18.6644 54.1645 18.6302 52.3287 19.2327C52.0716 19.3175 51.5018 19.2859 51.0807 19.3153C45.4004 19.7136 39.7127 20.1014 34.0436 20.5158C30.3578 20.7852 26.7702 21.1996 23.0168 21.3727C22.5535 21.3944 22.1507 21.5719 21.7461 21.6718L19.5444 21.1338C18.9656 21.2383 18.2731 21.3071 17.8122 21.4584C16.4627 21.8992 15.1265 22.0832 13.108 21.9649C10.6284 21.8197 10.5825 21.9222 9.67825 21.1347C9.53239 21.008 9.32275 20.8896 9.13969 20.7677C8.51302 20.348 6.48758 20.8682 6.13788 20.2289C5.87292 19.744 4.84878 19.7317 3.58452 19.7026C2.32593 19.6736 2.15027 19.4492 1.62258 18.523C2.22119 18.2997 2.70155 18.1212 3.18191 17.9427C2.74011 17.8653 2.31348 17.7405 1.854 17.7239C1.30464 17.704 0.726028 17.7767 0.143001 17.8104C0.0969605 17.7327 -0.0557155 17.6382 0.0213886 17.5786C0.687948 17.0693 1.08865 16.4585 2.1823 16.0934C3.15326 15.7689 4.97912 15.769 6.29678 15.5379C10.9323 14.7253 15.5515 13.9048 20.4009 13.2469C23.0282 12.8904 25.4013 12.3341 28.2496 12.1399C29.0803 12.083 29.7164 11.6892 30.5487 11.6334C31.3653 11.5776 32.3548 11.856 32.917 11.4017C33.0402 11.3021 33.5587 11.2453 33.9288 11.1995C37.2141 10.7917 40.3366 10.2363 43.5947 9.83047C46.1449 9.51293 48.5757 9.12498 51.0288 8.7478C54.2111 8.25893 57.6965 8.01238 60.6286 7.32474C60.735 7.29956 60.9065 7.30091 61.0472 7.29938C62.2276 7.28669 63.406 7.27682 64.5863 7.26608C64.7131 6.70798 65.989 6.64549 67.198 6.50879C68.3309 6.38076 69.342 6.10791 70.487 6.01143C73.9352 5.7212 77.007 5.11559 80.2997 4.69957C81.5495 4.54226 82.7676 4.35727 84.3917 4.13054Z" fill="#F1A5C3"/>
</svg>
