<svg width="97" height="40" viewBox="0 0 97 40" fill="none" xmlns="http://www.w3.org/2000/svg">
<path fill-rule="evenodd" clip-rule="evenodd" d="M42.0997 22.8383C43.3833 23.115 44.3784 22.5977 45.1402 21.5154C44.1268 21.9562 43.1134 22.397 42.0997 22.8383ZM64.6181 3.85211C64.7203 3.61744 64.5944 3.445 64.3276 3.31542C63.6919 3.00769 60.5829 3.67191 60.0992 4.24765C60.0175 4.34455 59.9591 4.54131 59.9894 4.66551C60.05 4.91176 60.2173 4.96615 60.4413 4.86664C61.5559 4.37336 62.7723 4.39312 63.9399 4.16617C64.1719 4.12057 64.4227 4.19615 64.6181 3.85211ZM87.5908 12.1878C87.0972 12.7176 86.5939 12.8822 86.0297 12.5015C85.7563 12.3169 85.5929 12.2525 85.2762 12.4759C84.1768 13.2497 82.9498 13.2285 81.6934 12.8764C81.4407 12.8059 81.0412 12.569 80.9766 13.0262C80.9234 13.4051 81.2063 13.6279 81.6076 13.7379C83.2472 14.1886 84.841 13.7289 86.4369 13.5912C86.7952 13.5604 87.8005 13.4242 87.5908 12.1878ZM22.3158 12.6184C18.3923 12.0743 13.173 14.1981 11.6091 16.972C13.3044 15.9717 14.9935 14.9882 16.8175 14.2645C18.613 13.5523 20.5317 13.3306 22.3158 12.6184ZM70.5392 7.91902C69.9604 8.44388 69.4248 8.80351 69.0527 9.31405C68.8464 9.59731 68.731 9.86148 68.4114 9.65234C67.2353 8.88201 66.0615 9.68662 64.8833 9.48776C63.4702 9.24883 62.5227 10.0487 61.4798 11.041C59.7405 12.6952 58.892 15.06 57.3853 16.8919C56.5884 17.8606 55.8879 19.0517 55.2903 20.2396C54.1844 22.4407 52.4149 23.8695 50.757 25.4531C49.6123 26.5461 48.7928 27.9748 47.2035 28.5703C44.7631 29.4857 42.3611 29.3487 39.8937 28.704C39.177 28.5159 38.9842 27.954 39.0646 27.0201C38.5159 28.0608 38.0982 27.8551 37.3601 27.3732C35.749 26.32 34.069 25.4526 33.3279 23.3326C33.2819 23.2004 33.1369 23.0532 33.0147 23.0136C30.7669 22.2886 29.4048 20.2567 27.8787 18.5023C27.3722 17.9197 27.0774 17.5343 26.2258 17.5978C25.4169 17.6579 24.4195 17.7499 23.6701 16.8018C23.1293 16.1175 22.9175 17.2306 22.3662 17.2805C16.913 17.778 13.0482 21.1467 9.68317 25.63C8.23012 27.565 6.9072 29.6214 5.68083 31.6863C4.56539 33.5652 3.7815 35.8478 3.35772 38.1741C3.23728 38.8355 3.17727 39.4964 2.57382 39.7831C1.86623 40.1183 1.69712 39.2102 1.33175 38.8882C-0.0032096 37.7127 0.0654655 36.3515 0.495119 34.5575C0.921903 32.7803 1.08513 30.88 1.84849 29.2384C3.78413 25.0742 5.49808 20.7414 8.74769 17.5543C12.4888 13.8859 16.5794 11.2271 21.8385 11.0954C23.2979 11.0589 24.8314 10.8018 26.01 11.6634C27.8341 12.9966 29.7792 14.2017 31.26 16.1182C32.7544 18.0512 34.519 19.6519 36.696 20.5317C41.0099 22.276 44.4617 20.4113 47.4228 17.3325C50.4409 14.1944 52.5081 10.1226 55.144 6.6086C58.6518 1.93191 62.8767 0.385137 67.9534 2.35248C69.9014 3.10776 71.7243 4.35291 73.2184 6.12931C75.0669 8.32618 76.9843 10.3846 79.6766 11.379C82.0146 12.243 85.3102 11.6987 86.8546 9.64175C88.5712 7.35478 90.1853 4.97024 91.851 2.63486C92.4466 1.80019 93.1674 1.10192 93.9802 0.552266C94.5236 0.185887 95.218 0.255062 95.571 0.849203C95.9687 1.51848 95.3919 1.74776 94.911 1.89785C94.5525 2.00955 94.4794 2.28036 94.615 2.64462C94.7582 3.02711 94.9509 3.08289 95.2982 2.89107C96.242 2.37062 96.4425 2.85781 96.2255 3.83087C96.0611 4.56973 96.8098 4.96315 96.6791 5.93761C96.4491 7.66109 95.7675 8.93805 94.9218 10.223C94.8365 10.3523 94.7834 10.5203 94.6765 10.6175C94.0184 11.2118 92.3597 13.4217 91.9673 14.4966C91.71 15.2005 90.966 15.3961 90.8062 16.1816C90.7529 16.4439 90.3951 16.3769 90.2559 16.0575C90.1723 15.865 90.1223 15.5716 89.9126 15.8971C88.4955 18.0975 88.0142 18.5601 86.7529 18.8982C85.4904 19.2361 84.1575 18.8303 82.8881 19.245C82.4781 19.3785 82.2675 18.8097 82.1511 18.3729C82.0686 18.0649 82.0507 17.6729 81.639 17.712C81.333 17.7414 80.9799 17.9897 81.0107 18.2648C81.1412 19.4209 80.6126 19.0685 80.0997 18.7972C78.9904 18.2119 77.6463 17.8853 76.8292 16.9714C75.3602 15.3281 73.7035 13.9727 72.1741 12.4361C71.6089 11.8678 71.0879 11.2061 71.2644 10.1749C71.3992 9.38831 70.7581 8.80978 70.5392 7.91902Z" fill="#F1A5C3"/>
</svg>
