<svg width="22" height="22" viewBox="0 0 22 22" fill="none" xmlns="http://www.w3.org/2000/svg">
<path d="M3.36254 6.18266C3.36254 5.55345 3.52072 4.95999 3.79094 4.45234C5.21319 6.34535 7.26938 7.65057 9.6107 7.98425C9.60192 7.87867 9.59744 7.77189 9.59744 7.66407C9.59744 5.54278 11.3303 3.82313 13.4679 3.82313C14.1303 3.82313 14.7539 3.98827 15.299 4.27933C15.3667 4.31549 15.4333 4.35359 15.4985 4.39356C15.9256 4.65528 16.1392 4.78614 16.2872 4.80438C16.347 4.81175 16.3736 4.81217 16.4337 4.8067C16.5822 4.79316 16.7454 4.70013 17.0718 4.51407L17.5297 4.25304C18.4638 3.72063 18.9308 3.45442 19.1589 3.58689C19.2283 3.62719 19.2858 3.685 19.3259 3.75453C19.4575 3.98309 19.1895 4.44909 18.6534 5.38109L17.6026 7.20813C17.5423 7.3131 17.5121 7.36558 17.4966 7.4214C17.4913 7.44052 17.4876 7.45811 17.4847 7.47775C17.4764 7.53506 17.4832 7.599 17.4969 7.72686V7.72687C18.203 14.3215 13.6687 18.3333 8.73734 18.3333C6.40994 18.3333 4.29844 17.416 2.75 15.9257C2.98934 15.9581 3.22895 15.9711 3.47458 15.9711C4.9641 15.9711 6.33499 15.4206 7.42247 14.4982C6.03182 14.4696 4.85865 13.4757 4.45661 12.1029C4.65434 12.1458 4.85206 12.1673 5.05638 12.1673C5.34637 12.1673 5.62977 12.1244 5.89341 12.0457C4.43684 11.724 3.34277 10.3369 3.34277 8.66374V8.62084C3.77117 8.87824 4.25889 9.03554 4.77956 9.04984C3.92276 8.43493 3.36254 7.37672 3.36254 6.18266Z" stroke="white" stroke-width="0.916667" stroke-linecap="round" stroke-linejoin="round"/>
</svg>
