<svg id="Слой_1" data-name="Слой 1" xmlns="http://www.w3.org/2000/svg" viewBox="0 0 50 50"><path d="M21.47,49.2a1.7,1.7,0,0,1-1.14-.45c-.46-.23-.69-.69-.92-.91l-.68-1.37c-.23-.46-.23-.91-.45-1.37a13.9,13.9,0,0,1-.46-4.33,13.52,13.52,0,0,1,.91-4.33A8.69,8.69,0,0,1,20.78,33a30.4,30.4,0,0,0,2.51-3.19c.91-.91,1.59-2,2.51-3a25.92,25.92,0,0,0,2.05-3.19c.45-.91.91-1.6,1.36-2.51a12.73,12.73,0,0,0,.92-2.73,19.81,19.81,0,0,0,.45-5.24c-.23-1.83-.45-3.42-.68-5.24a20.48,20.48,0,0,1-.23,5.24A14.63,14.63,0,0,1,28.07,18a22.26,22.26,0,0,1-3.41,5.47c-1.37,1.6-3,3.19-4.56,4.79a25.32,25.32,0,0,0-3.88,4.56,14.8,14.8,0,0,0-2.5,5.47,9.18,9.18,0,0,0-.23,4.32,11,11,0,0,0,1.14,4.11.82.82,0,0,1,.23.68.49.49,0,0,1-.46.46c-.23,0-.45.22-.68,0-.23,0-.46-.23-.69-.46A19.57,19.57,0,0,1,8.7,40.09a26.69,26.69,0,0,1-1.82-8.21,30.82,30.82,0,0,1,.68-9.11,39.06,39.06,0,0,1,3-8.66A22.39,22.39,0,0,1,13,10.23a47.2,47.2,0,0,1,3.19-3.64,22.81,22.81,0,0,1,3.65-3A17.32,17.32,0,0,1,24,1.57,9.26,9.26,0,0,1,27.39.89a8.62,8.62,0,0,1,3.42.23,16,16,0,0,1,4.1,1.82A10.55,10.55,0,0,1,38.1,6.13,31.69,31.69,0,0,1,41.52,13a29.74,29.74,0,0,1,1.6,7.52,33.24,33.24,0,0,1-.46,8.2,50.74,50.74,0,0,1-1.37,5.7A20.92,20.92,0,0,1,39,39.63a23,23,0,0,1-3.64,4.56,22.82,22.82,0,0,1-4.79,3.42A14.67,14.67,0,0,1,26.48,49,17.39,17.39,0,0,0,21.47,49.2ZM39.24,21.63v.45c0,.23.23.23.46.23h.45c.23,0,.23-.23.46-.45V21.4a21.81,21.81,0,0,0-.23-3.87c-.23-1.37-.45-2.51-.68-3.88a19.76,19.76,0,0,0-1.6-3.87c-.68-1.14-1.37-2.51-2.05-3.65-.23-.23-.23-.45-.45-.68s-.46-.23-.69-.46-.23-.23-.45,0L34,5.45c-.23.23-.23.23-.23.45s0,.23.23.46c.46.23.68.46.68.68a5.16,5.16,0,0,1,.69,1.14A7.1,7.1,0,0,1,36.28,10c.23.68.68,1.36.91,2.05a9.07,9.07,0,0,1,.46,1.36,11.76,11.76,0,0,1,.45,1.83c.23.68.23,1.59.46,2.5a9.32,9.32,0,0,1,.23,2.51A1.69,1.69,0,0,1,39.24,21.63Zm0,3.65c.23.22.46.45.69.22a.69.69,0,0,1,.45-.22c0-.23.23-.46,0-.69a.48.48,0,0,0-.45-.45h-.69c-.23,0-.23.22-.45.22v.46Z"/></svg>