<svg id="Слой_1" data-name="Слой 1" xmlns="http://www.w3.org/2000/svg" viewBox="0 0 50 50"><defs><style>.cls-1{fill:#fff;}</style></defs><path d="M26.27,46.47c-5.9-.3-11.51-1.8-16.21-5.8a15.17,15.17,0,0,1-5.4-14.21c.4-2.4.3-4.2-1.6-6.1A10.05,10.05,0,0,1,1,15.66c-.9-4.8,2.9-8.61,7.8-8.3A11.22,11.22,0,0,0,13,6.55a35.52,35.52,0,0,1,21-2.4c3.2.6,6.1,2.1,9.61,2.4,4.4.4,7,5.91,4.8,10.41a11.34,11.34,0,0,0-.6,9c2.1,6.4-.6,11-5.61,14.81A26.81,26.81,0,0,1,26.27,46.47Zm-1.4-29.31c-.5-.4-1-.8-1.4-1.1-5.1-4.2-11.11-2.2-12.51,4.3-1.8,8.4,5.2,16.71,13.71,16.31a15.28,15.28,0,0,0,14.8-14.11c.4-3.6-.7-6.1-3.4-7.5-3.6-1.9-6.6-1.7-9.5.8A10.92,10.92,0,0,1,24.87,17.16Z"/><path class="cls-1" d="M24.87,17.16c.6-.5,1.2-.8,1.7-1.3,2.9-2.5,5.9-2.8,9.5-.8,2.7,1.4,3.8,3.9,3.4,7.5a15.36,15.36,0,0,1-14.8,14.11c-8.51.5-15.51-7.91-13.71-16.31,1.4-6.5,7.41-8.5,12.51-4.3A8.54,8.54,0,0,0,24.87,17.16Z"/><path d="M18.87,26.56a1.42,1.42,0,0,1-1.1.1,21,21,0,0,1-2.71-2.5,2.57,2.57,0,0,1-.5-1.2,1.71,1.71,0,0,1,.7-2,1.84,1.84,0,0,1,2,.3,5.55,5.55,0,0,1,.91.7,5.74,5.74,0,0,0,.4-.7c.5-1.2,1.4-1.7,2.3-1.4a2.34,2.34,0,0,1,1.6,2.7,4.61,4.61,0,0,1-.9,1.7C20.67,25.06,19.77,25.86,18.87,26.56Z"/><path d="M34.17,19.66c-.8-.1-1.6.5-2,1.6a6.13,6.13,0,0,1-.4.6,4.35,4.35,0,0,1-.7-.6,2,2,0,0,0-2.2-.5,2.12,2.12,0,0,0-.6,2.4,2,2,0,0,0,.4.8,34.46,34.46,0,0,0,2.8,2.6c.2.2.8.1,1,0a40,40,0,0,0,3.1-2.7,2.79,2.79,0,0,0,.6-1.8A2.67,2.67,0,0,0,34.17,19.66Z"/></svg>