<svg id="Слой_1" data-name="Слой 1" xmlns="http://www.w3.org/2000/svg" viewBox="0 0 50 50"><path d="M3.37,23.34h0l.48.09Zm0,0h0l.48.09Zm0,0h0l.48.09Zm0,0h0l.48.09Zm0,0h0l.48.09Z"/><path d="M24,9.62a28.87,28.87,0,0,1-.66,6.23,27.84,27.84,0,0,1-1.86,5.64,27.89,27.89,0,0,1-5.58,1.85A30.08,30.08,0,0,1,9.61,24a29.48,29.48,0,0,1-5.77-.57h0l-.46-.1.46-.11-.48.1a25.7,25.7,0,0,1,20-20h0v0A29.06,29.06,0,0,1,24,9.62Z"/><path d="M3.83,23.44l-.48-.09h0Z"/><path d="M23.33,3.34a29.8,29.8,0,0,0-6.26-.66A28.6,28.6,0,0,0,5.2,5.2,28.57,28.57,0,0,0,2.68,17.07a29.15,29.15,0,0,0,.67,6.26h0a25.7,25.7,0,0,1,20-20h0Z"/><path d="M26.65,3.36v0h0l-.09.47C26.58,3.67,26.62,3.52,26.65,3.36Zm0,0v0h0l-.09.47C26.58,3.67,26.62,3.52,26.65,3.36Zm0,0v0h0l-.09.47C26.58,3.67,26.62,3.52,26.65,3.36Zm0,0v0h0l-.09.47C26.58,3.67,26.62,3.52,26.65,3.36Zm0,0v0h0l-.09.47C26.58,3.67,26.62,3.52,26.65,3.36Z"/><path d="M40.38,24a29.54,29.54,0,0,1-6.24-.66,27.84,27.84,0,0,1-5.64-1.86,28.2,28.2,0,0,1-1.85-5.59A30.08,30.08,0,0,1,26,9.61a29.4,29.4,0,0,1,.57-5.77h0c0-.16.07-.31.1-.47,0,.16.07.31.11.47,0-.16-.06-.32-.1-.48a25.73,25.73,0,0,1,20,20h0s0,0,0,0A29.7,29.7,0,0,1,40.38,24Z"/><path d="M26.55,3.82l.09-.47h0v0C26.62,3.52,26.58,3.67,26.55,3.82Z"/><path d="M46.66,23.34a29.82,29.82,0,0,0,.66-6.27A28.6,28.6,0,0,0,44.8,5.2,28.6,28.6,0,0,0,32.93,2.68a29.82,29.82,0,0,0-6.27.66h0a25.67,25.67,0,0,1,20,20Z"/><path d="M46.63,26.66h0l-.48-.09Zm0,0h0l-.48-.09Zm0,0h0l-.48-.09Zm0,0h0l-.48-.09Zm0,0h0l-.48-.09Z"/><path d="M26,40.38a28.87,28.87,0,0,1,.66-6.23,27.84,27.84,0,0,1,1.86-5.64,27.89,27.89,0,0,1,5.58-1.85A30.08,30.08,0,0,1,40.39,26a29.48,29.48,0,0,1,5.77.57h0l.46.1-.46.11.48-.1a25.7,25.7,0,0,1-20,20h0v0A29.06,29.06,0,0,1,26,40.38Z"/><path d="M46.17,26.56l.48.09h0Z"/><path d="M26.67,46.66a29.8,29.8,0,0,0,6.26.66A28.6,28.6,0,0,0,44.8,44.8a28.57,28.57,0,0,0,2.52-11.87,29.15,29.15,0,0,0-.67-6.26h0a25.7,25.7,0,0,1-20,20h0Z"/><path d="M23.35,46.64v0h0l.09-.47C23.42,46.33,23.38,46.48,23.35,46.64Zm0,0v0h0l.09-.47C23.42,46.33,23.38,46.48,23.35,46.64Zm0,0v0h0l.09-.47C23.42,46.33,23.38,46.48,23.35,46.64Zm0,0v0h0l.09-.47C23.42,46.33,23.38,46.48,23.35,46.64Zm0,0v0h0l.09-.47C23.42,46.33,23.38,46.48,23.35,46.64Z"/><path d="M9.62,26a29.54,29.54,0,0,1,6.24.66,27.84,27.84,0,0,1,5.64,1.86,28.2,28.2,0,0,1,1.85,5.59A30.08,30.08,0,0,1,24,40.39a29.4,29.4,0,0,1-.57,5.77h0c0,.16-.07.31-.1.47,0-.16-.07-.31-.11-.47,0,.16.06.32.1.48a25.73,25.73,0,0,1-20-20h0s0,0,0,0A29.7,29.7,0,0,1,9.62,26Z"/><path d="M23.45,46.18l-.09.47h0v0C23.38,46.48,23.42,46.33,23.45,46.18Z"/><path d="M3.34,26.66a29.82,29.82,0,0,0-.66,6.27A28.6,28.6,0,0,0,5.2,44.8a28.6,28.6,0,0,0,11.87,2.52,29.82,29.82,0,0,0,6.27-.66h0a25.67,25.67,0,0,1-20-20Z"/></svg>