<svg id="Слой_1" data-name="Слой 1" xmlns="http://www.w3.org/2000/svg" viewBox="0 0 50 50"><defs><style>.cls-1{fill:#ec6928;}</style></defs><path class="cls-1" d="M13.43,18.27c0-2.07,0-4.14,0-6.21,0-.59.07-1.16.8-1.19s.9.55.9,1.19c0,3.8,0,7.6,0,11.4,0,.69.15,1,.85,1.22,1.28.35,2.53.83,3.8,1.24.61.2,1.13.49.86,1.22s-.79.6-1.37.4C17.61,27,16,26.42,14.32,25.91a1.12,1.12,0,0,1-.9-1.26C13.44,22.52,13.43,20.4,13.43,18.27Z"/><path class="cls-1" d="M33.93,25a1.82,1.82,0,0,1,1.76-1.84A1.88,1.88,0,0,1,37.58,25a1.84,1.84,0,0,1-1.79,1.83A1.78,1.78,0,0,1,33.93,25Z"/><path class="cls-1" d="M16.08,46.45a1.84,1.84,0,0,1-1.82,1.86,1.88,1.88,0,0,1-1.84-1.87,1.84,1.84,0,0,1,1.8-1.79A1.79,1.79,0,0,1,16.08,46.45Z"/><path class="cls-1" d="M14.25,1.69a1.83,1.83,0,0,1,.07,3.66,1.86,1.86,0,0,1-1.9-1.8A1.84,1.84,0,0,1,14.25,1.69Z"/><path class="cls-1" d="M32.85,37.55a1.83,1.83,0,0,1,0-3.65,1.83,1.83,0,1,1,0,3.65Z"/><path class="cls-1" d="M26.83,43.55a1.83,1.83,0,1,1-1.89-1.79A1.82,1.82,0,0,1,26.83,43.55Z"/><path class="cls-1" d="M26.83,6.43a1.83,1.83,0,0,1-3.66-.08,1.83,1.83,0,0,1,3.66.08Z"/><path class="cls-1" d="M34.69,14.29a1.86,1.86,0,0,1-1.82,1.8A1.83,1.83,0,0,1,31,14.22a1.83,1.83,0,1,1,3.65.07Z"/></svg>