<svg id="Слой_1" data-name="Слой 1" xmlns="http://www.w3.org/2000/svg" viewBox="0 0 50 50"><defs><style>.cls-1{fill:#616160;}</style></defs><path class="cls-1" d="M25.85,1.74A19.24,19.24,0,0,1,34,3.45,20,20,0,0,1,40.65,8a22.3,22.3,0,0,1,4.55,6.69,19.7,19.7,0,0,1,1.71,8.11v6.82a17.82,17.82,0,0,1-1.43,7.26,18.92,18.92,0,0,1-4,6,19.23,19.23,0,0,1-6,4,18,18,0,0,1-7.26,1.42H7.93a4.22,4.22,0,0,1-3.41-1.42,4.63,4.63,0,0,1-1.43-3.42V25.64A4.66,4.66,0,0,1,4,22.94a4.61,4.61,0,0,1,2-1.71,3.07,3.07,0,0,0,1.28-1,7.11,7.11,0,0,0,.28-1.7v-12a4.66,4.66,0,0,1,.86-2.7,4.07,4.07,0,0,1,2.13-1.71,4.31,4.31,0,0,1,1.85-.43ZM30.12,12a1.12,1.12,0,0,0-.28-.71,1.25,1.25,0,0,0-.86-.42c-.71,0-1,.28-1,1v7.83c0,.71.28,1,1,1a2.07,2.07,0,0,0,.86-.28c.28-.15.28-.43.28-.71Z"/></svg>