<svg id="Слой_1" data-name="Слой 1" xmlns="http://www.w3.org/2000/svg" viewBox="0 0 50 50"><path d="M23,26.34a3.29,3.29,0,0,1,1.69,1.4,4.3,4.3,0,0,1,.7,2.26V44.21A4.21,4.21,0,0,1,24.23,47a4.21,4.21,0,0,1-2.82,1.12H4.1A4.21,4.21,0,0,1,1.28,47,4,4,0,0,1,.16,44.21V30a4.3,4.3,0,0,1,.7-2.26,3.29,3.29,0,0,1,1.69-1.4,2,2,0,0,0,1-.85,1.68,1.68,0,0,0,.28-1.12V14.65a4.19,4.19,0,0,1,1.12-2.81,3.88,3.88,0,0,1,2.68-1.13h10a4.22,4.22,0,0,1,2.82,1.13,3.93,3.93,0,0,1,1.12,2.81v9.72a2.64,2.64,0,0,0,.28,1.12A3.08,3.08,0,0,0,23,26.34Z"/><path d="M27,23.8a3.29,3.29,0,0,1-1.69-1.4,4.3,4.3,0,0,1-.7-2.26V5.79A4.21,4.21,0,0,1,25.77,3a4.21,4.21,0,0,1,2.82-1.12H45.9A4.21,4.21,0,0,1,48.72,3a4,4,0,0,1,1.12,2.82V20a4.3,4.3,0,0,1-.7,2.26,3.29,3.29,0,0,1-1.69,1.4,2,2,0,0,0-1,.85,1.68,1.68,0,0,0-.28,1.12v9.72a4.19,4.19,0,0,1-1.12,2.81,3.88,3.88,0,0,1-2.68,1.13H32.25a4.22,4.22,0,0,1-2.82-1.13,3.93,3.93,0,0,1-1.12-2.81V25.63A2.64,2.64,0,0,0,28,24.51,2.65,2.65,0,0,0,27,23.8Z"/></svg>