<svg id="Слой_1" data-name="Слой 1" xmlns="http://www.w3.org/2000/svg" xmlns:xlink="http://www.w3.org/1999/xlink" viewBox="0 0 50 50"><defs><style>.cls-1{fill:#bcc4d6;}.cls-2{fill:url(#Безымянный_градиент_7);}.cls-3{fill:url(#Безымянный_градиент_6);}.cls-4{fill:url(#Безымянный_градиент_50);}</style><linearGradient id="Безымянный_градиент_7" x1="-912.28" y1="343.41" x2="-941.06" y2="308.95" gradientTransform="translate(-953.59 81.54) rotate(-163.74)" gradientUnits="userSpaceOnUse"><stop offset="0" stop-color="#a4d5ca"/><stop offset="1" stop-color="#7fba28"/></linearGradient><linearGradient id="Безымянный_градиент_6" x1="-923.85" y1="343.37" x2="-913.53" y2="307.29" gradientTransform="translate(-953.59 81.54) rotate(-163.74)" gradientUnits="userSpaceOnUse"><stop offset="0.02" stop-color="#71c3ba"/><stop offset="1" stop-color="#9bd6f7"/></linearGradient><linearGradient id="Безымянный_градиент_50" x1="-923.85" y1="343.37" x2="-913.53" y2="307.29" gradientTransform="translate(-953.59 81.54) rotate(-163.74)" gradientUnits="userSpaceOnUse"><stop offset="0" stop-color="#a4d5ca"/><stop offset="0.01" stop-color="#a4d5c9"/><stop offset="0.18" stop-color="#99cd98"/><stop offset="0.36" stop-color="#8fc670"/><stop offset="0.53" stop-color="#88c150"/><stop offset="0.7" stop-color="#83bd3a"/><stop offset="0.86" stop-color="#80bb2d"/><stop offset="1" stop-color="#7fba28"/></linearGradient></defs><path class="cls-1" d="M3.14,3.48A1.56,1.56,0,0,1,5.07,2.4c10.59,2.4,18.17,7.94,20,14.92a13.3,13.3,0,0,1-1.57,10.47c-.12.12-.24.24-.36.24s-.24.12-.48.12a.44.44,0,0,1-.36-.12c-.12-.12-.24-.24-.24-.36L15.18,14.43a2.13,2.13,0,0,0-1-.84,1.72,1.72,0,0,0-1.33.12,2.13,2.13,0,0,0-.84,1A2.54,2.54,0,0,0,12.17,16l7.1,13.72a14.53,14.53,0,0,1,1.45,9,.68.68,0,0,1-.13.48l14.09-8.06a1.62,1.62,0,0,0,.6-2.29A1.77,1.77,0,0,0,33,28.15l-5.05,3c-.12.12-.24.12-.49.12a.72.72,0,0,1-.48-.12c-.12-.12-.24-.24-.24-.36v-.48A9.64,9.64,0,0,1,29.62,25c4-3.61,10.71-4.21,18.29-1.56a1.89,1.89,0,0,1,1,.72,1.42,1.42,0,0,1,.12,1.2c-1.69,7.83-5.9,13.24-11.08,14.69a9.46,9.46,0,0,1-5.17,0,9.34,9.34,0,0,1-3.37-1.81l-9.87,5.66-.72,2.52a1.79,1.79,0,0,1-2.05,1.21,1.52,1.52,0,0,1-1.08-.85c-.12-.24-.24-.36-.24-.6v-.72l1.81-5.9a11.87,11.87,0,0,0-.13-7.1A14.06,14.06,0,0,1,11.21,32a12.46,12.46,0,0,1-5.9-3.61C.38,23.1-.47,13.83,3.14,3.48Z"/><path class="cls-2" d="M3.14,3.48A1.56,1.56,0,0,1,5.07,2.4c10.59,2.4,18.17,7.94,20,14.92a13.3,13.3,0,0,1-1.57,10.47c-.12.12-.24.24-.36.24s-.24.12-.48.12a.44.44,0,0,1-.36-.12c-.12-.12-.24-.24-.24-.36L15.18,14.43a2.13,2.13,0,0,0-1-.84,1.72,1.72,0,0,0-1.33.12,2.13,2.13,0,0,0-.84,1A2.54,2.54,0,0,0,12.17,16l7.1,13.72a14.53,14.53,0,0,1,1.45,9,.68.68,0,0,1-.13.48l14.09-8.06a1.62,1.62,0,0,0,.6-2.29A1.77,1.77,0,0,0,33,28.15l-5.05,3c-.12.12-.24.12-.49.12a.72.72,0,0,1-.48-.12c-.12-.12-.24-.24-.24-.36v-.48A9.64,9.64,0,0,1,29.62,25c4-3.61,10.71-4.21,18.29-1.56a1.89,1.89,0,0,1,1,.72,1.42,1.42,0,0,1,.12,1.2c-1.69,7.83-5.9,13.24-11.08,14.69a9.46,9.46,0,0,1-5.17,0,9.34,9.34,0,0,1-3.37-1.81l-9.87,5.66-.72,2.52a1.79,1.79,0,0,1-2.05,1.21,1.52,1.52,0,0,1-1.08-.85c-.12-.24-.24-.36-.24-.6v-.72l1.81-5.9a11.87,11.87,0,0,0-.13-7.1A14.06,14.06,0,0,1,11.21,32a12.46,12.46,0,0,1-5.9-3.61C.38,23.1-.47,13.83,3.14,3.48Z"/><path class="cls-3" d="M3.14,3.48A1.56,1.56,0,0,1,5.07,2.4c10.59,2.4,18.17,7.94,20,14.92a13.3,13.3,0,0,1-1.57,10.47c-.12.12-.24.24-.36.24s-.24.12-.48.12a.44.44,0,0,1-.36-.12c-.12-.12-.24-.24-.24-.36L15.18,14.43a2.13,2.13,0,0,0-1-.84,1.72,1.72,0,0,0-1.33.12,2.13,2.13,0,0,0-.84,1A2.54,2.54,0,0,0,12.17,16l7.1,13.72a14.53,14.53,0,0,1,1.45,9,.68.68,0,0,1-.13.48l14.09-8.06a1.62,1.62,0,0,0,.6-2.29A1.77,1.77,0,0,0,33,28.15l-5.05,3c-.12.12-.24.12-.49.12a.72.72,0,0,1-.48-.12c-.12-.12-.24-.24-.24-.36v-.48A9.64,9.64,0,0,1,29.62,25c4-3.61,10.71-4.21,18.29-1.56a1.89,1.89,0,0,1,1,.72,1.42,1.42,0,0,1,.12,1.2c-1.69,7.83-5.9,13.24-11.08,14.69a9.46,9.46,0,0,1-5.17,0,9.34,9.34,0,0,1-3.37-1.81l-9.87,5.66-.72,2.52a1.79,1.79,0,0,1-2.05,1.21,1.52,1.52,0,0,1-1.08-.85c-.12-.24-.24-.36-.24-.6v-.72l1.81-5.9a11.87,11.87,0,0,0-.13-7.1A14.06,14.06,0,0,1,11.21,32a12.46,12.46,0,0,1-5.9-3.61C.38,23.1-.47,13.83,3.14,3.48Z"/><path class="cls-1" d="M3.14,3.48A1.56,1.56,0,0,1,5.07,2.4c10.59,2.4,18.17,7.94,20,14.92a13.3,13.3,0,0,1-1.57,10.47c-.12.12-.24.24-.36.24s-.24.12-.48.12a.44.44,0,0,1-.36-.12c-.12-.12-.24-.24-.24-.36L15.18,14.43a2.13,2.13,0,0,0-1-.84,1.72,1.72,0,0,0-1.33.12,2.13,2.13,0,0,0-.84,1A2.54,2.54,0,0,0,12.17,16l7.1,13.72a14.53,14.53,0,0,1,1.45,9,.68.68,0,0,1-.13.48l14.09-8.06a1.62,1.62,0,0,0,.6-2.29A1.77,1.77,0,0,0,33,28.15l-5.05,3c-.12.12-.24.12-.49.12a.72.72,0,0,1-.48-.12c-.12-.12-.24-.24-.24-.36v-.48A9.64,9.64,0,0,1,29.62,25c4-3.61,10.71-4.21,18.29-1.56a1.89,1.89,0,0,1,1,.72,1.42,1.42,0,0,1,.12,1.2c-1.69,7.83-5.9,13.24-11.08,14.69a9.46,9.46,0,0,1-5.17,0,9.34,9.34,0,0,1-3.37-1.81l-9.87,5.66-.72,2.52a1.79,1.79,0,0,1-2.05,1.21,1.52,1.52,0,0,1-1.08-.85c-.12-.24-.24-.36-.24-.6v-.72l1.81-5.9a11.87,11.87,0,0,0-.13-7.1A14.06,14.06,0,0,1,11.21,32a12.46,12.46,0,0,1-5.9-3.61C.38,23.1-.47,13.83,3.14,3.48Z"/><path class="cls-2" d="M3.14,3.48A1.56,1.56,0,0,1,5.07,2.4c10.59,2.4,18.17,7.94,20,14.92a13.3,13.3,0,0,1-1.57,10.47c-.12.12-.24.24-.36.24s-.24.12-.48.12a.44.44,0,0,1-.36-.12c-.12-.12-.24-.24-.24-.36L15.18,14.43a2.13,2.13,0,0,0-1-.84,1.72,1.72,0,0,0-1.33.12,2.13,2.13,0,0,0-.84,1A2.54,2.54,0,0,0,12.17,16l7.1,13.72a14.53,14.53,0,0,1,1.45,9,.68.68,0,0,1-.13.48l14.09-8.06a1.62,1.62,0,0,0,.6-2.29A1.77,1.77,0,0,0,33,28.15l-5.05,3c-.12.12-.24.12-.49.12a.72.72,0,0,1-.48-.12c-.12-.12-.24-.24-.24-.36v-.48A9.64,9.64,0,0,1,29.62,25c4-3.61,10.71-4.21,18.29-1.56a1.89,1.89,0,0,1,1,.72,1.42,1.42,0,0,1,.12,1.2c-1.69,7.83-5.9,13.24-11.08,14.69a9.46,9.46,0,0,1-5.17,0,9.34,9.34,0,0,1-3.37-1.81l-9.87,5.66-.72,2.52a1.79,1.79,0,0,1-2.05,1.21,1.52,1.52,0,0,1-1.08-.85c-.12-.24-.24-.36-.24-.6v-.72l1.81-5.9a11.87,11.87,0,0,0-.13-7.1A14.06,14.06,0,0,1,11.21,32a12.46,12.46,0,0,1-5.9-3.61C.38,23.1-.47,13.83,3.14,3.48Z"/><path class="cls-4" d="M3.14,3.48A1.56,1.56,0,0,1,5.07,2.4c10.59,2.4,18.17,7.94,20,14.92a13.3,13.3,0,0,1-1.57,10.47c-.12.12-.24.24-.36.24s-.24.12-.48.12a.44.44,0,0,1-.36-.12c-.12-.12-.24-.24-.24-.36L15.18,14.43a2.13,2.13,0,0,0-1-.84,1.72,1.72,0,0,0-1.33.12,2.13,2.13,0,0,0-.84,1A2.54,2.54,0,0,0,12.17,16l7.1,13.72a14.53,14.53,0,0,1,1.45,9,.68.68,0,0,1-.13.48l14.09-8.06a1.62,1.62,0,0,0,.6-2.29A1.77,1.77,0,0,0,33,28.15l-5.05,3c-.12.12-.24.12-.49.12a.72.72,0,0,1-.48-.12c-.12-.12-.24-.24-.24-.36v-.48A9.64,9.64,0,0,1,29.62,25c4-3.61,10.71-4.21,18.29-1.56a1.89,1.89,0,0,1,1,.72,1.42,1.42,0,0,1,.12,1.2c-1.69,7.83-5.9,13.24-11.08,14.69a9.46,9.46,0,0,1-5.17,0,9.34,9.34,0,0,1-3.37-1.81l-9.87,5.66-.72,2.52a1.79,1.79,0,0,1-2.05,1.21,1.52,1.52,0,0,1-1.08-.85c-.12-.24-.24-.36-.24-.6v-.72l1.81-5.9a11.87,11.87,0,0,0-.13-7.1A14.06,14.06,0,0,1,11.21,32a12.46,12.46,0,0,1-5.9-3.61C.38,23.1-.47,13.83,3.14,3.48Z"/></svg>