<svg id="Слой_1" data-name="Слой 1" xmlns="http://www.w3.org/2000/svg" viewBox="0 0 50 50"><path d="M18.31,16H33.18c.3,0,1.12.08,2.44.23a15.8,15.8,0,0,1,9.65,5,15.14,15.14,0,0,1,3.54,10.41v9.15a5.74,5.74,0,0,1-2.74,5,10.35,10.35,0,0,1-10.53,0,5.74,5.74,0,0,1-2.74-5V31.64a.85.85,0,0,1,.3.3H17.93A15,15,0,0,1,6.68,27.46,15.26,15.26,0,0,1,2.29,16.35V10.27A5.72,5.72,0,0,1,5,5.25,9.58,9.58,0,0,1,10.3,3.8a9.66,9.66,0,0,1,5.26,1.44,5.7,5.7,0,0,1,2.75,5Zm-16,23.27a7.71,7.71,0,0,1,2.37-5.65,7.7,7.7,0,0,1,5.64-2.36,7.72,7.72,0,0,1,5.64,2.36,7.91,7.91,0,0,1,0,11.29,7.68,7.68,0,0,1-5.64,2.36,7.66,7.66,0,0,1-5.64-2.36A7.7,7.7,0,0,1,2.29,39.27Zm34.32-7.69v9.2q0,2.69,4.2,2.68T45,40.79V31.64a11.4,11.4,0,0,0-3.35-8.58,11.71,11.71,0,0,0-8.47-3.24H17.93a3.4,3.4,0,0,1-3.44-3.43V10.28q0-2.67-4.19-2.67T6.1,10.27v6.08c0,.26.05.87.16,1.83q1.67,9.95,11.67,10H33.18a3.3,3.3,0,0,1,2.44,1A3.33,3.33,0,0,1,36.61,31.58ZM6.1,39.27a4.17,4.17,0,0,0,4.2,4.19,4,4,0,0,0,3-1.22,4.24,4.24,0,0,0,0-6,4,4,0,0,0-3-1.22,4.17,4.17,0,0,0-4.2,4.2Z"/></svg>