<svg id="Слой_1" data-name="Слой 1" xmlns="http://www.w3.org/2000/svg" viewBox="0 0 50 50"><defs><style>.cls-1{fill:#616160;}</style></defs><path class="cls-1" d="M9.54,33.91V39a.94.94,0,0,1-1,1H5.33a.14.14,0,0,0-.1.05.15.15,0,0,0,0,.08v1.13H1.72V32.91H8.54A1,1,0,0,1,9.54,33.91Zm-4.33,1.3V37.5a.14.14,0,0,0,0,.09.13.13,0,0,0,.08,0h.76a.13.13,0,0,0,.08,0,.16.16,0,0,0,0-.1V35.21a.14.14,0,0,0,0-.09.13.13,0,0,0-.08,0H5.33a.13.13,0,0,0-.08,0A.14.14,0,0,0,5.21,35.21Z"/><path class="cls-1" d="M18.31,32.91v7.33a1,1,0,0,1-1,1H11.49a1,1,0,0,1-1-1V32.91h3.34v6a.17.17,0,0,0,0,.09.15.15,0,0,0,.08,0h.77a.15.15,0,0,0,.08,0,.14.14,0,0,0,0-.09v-6Z"/><path class="cls-1" d="M19.26,41.24V38.31l1.56-2.47H19.29V32.91h6.09v2.93l-1.53,2.47h1.53v2.93Z"/><path class="cls-1" d="M26.33,41.24V38.31l1.56-2.47H26.36V32.91h6.09v2.93l-1.54,2.47h1.54v2.93Z"/><path class="cls-1" d="M39.48,39.06v2.18H33.4V32.91h3.48v6a.11.11,0,0,0,.12.12Z"/><path class="cls-1" d="M48.27,32.91v2.18H44.05a.13.13,0,0,0-.08,0,.14.14,0,0,0,0,.09v.64a.14.14,0,0,0,.12.12h2.69v2.18H44.05a.13.13,0,0,0-.08,0,.14.14,0,0,0,0,.09v.67A.14.14,0,0,0,44,39a.13.13,0,0,0,.08,0h4.22v2.18H41.45a1,1,0,0,1-1-1V33.91a1,1,0,0,1,1-1Z"/><path class="cls-1" d="M23.67,8.76V32.11H14.29V24.27a.42.42,0,0,0-.1-.23.34.34,0,0,0-.26-.14H11.86a.36.36,0,0,0-.27.14.42.42,0,0,0-.1.23v7.84H1.75V8.76h9.77v7.87a.39.39,0,0,0,.1.24.4.4,0,0,0,.24.09H14a.4.4,0,0,0,.24-.09.45.45,0,0,0,.1-.27V8.76Z"/><path class="cls-1" d="M36.07,25.47v6.64H26.33V8.76H45.45a2.74,2.74,0,0,1,2.8,2.8V22.67a2.66,2.66,0,0,1-2.8,2.8h-.4l3.17,6.64H38.84Zm0-10.27v6.44a.34.34,0,0,0,.33.33h2.14a.36.36,0,0,0,.23-.1.43.43,0,0,0,.1-.27V15.2a.37.37,0,0,0-.1-.24.36.36,0,0,0-.23-.1H36.44a.36.36,0,0,0-.23.1A.37.37,0,0,0,36.11,15.2Z"/></svg>