<svg id="Слой_1" data-name="Слой 1" xmlns="http://www.w3.org/2000/svg" viewBox="0 0 50 50"><defs><style>.cls-1{fill:#616160;}</style></defs><path class="cls-1" d="M6.68,3.79A.45.45,0,0,1,7,4s.08,0,.08.07,0,.08.15.08a.44.44,0,0,0,.08-.31,1.76,1.76,0,0,0,0-.31,1.06,1.06,0,0,1,0-.31c0-.1,0-.15.08-.15a1.65,1.65,0,0,1,.31-.39,1.91,1.91,0,0,1,1.16.08c.2,0,.35.13.46.39a1.15,1.15,0,0,1,.11.31,1.88,1.88,0,0,0,.12.3c.1.26.18.39.23.39a1,1,0,0,0,.74.46,1,1,0,0,0,.88-.23,4,4,0,0,0,.62-.54A6.64,6.64,0,0,1,15.79,2a.92.92,0,0,1,.08.46c.16,0,.25,0,.27-.16a.35.35,0,0,1,.2-.23.7.7,0,0,1,.61.23.48.48,0,0,0,.62.16.76.76,0,0,1,.47,0,6.07,6.07,0,0,0,.54.31,2.29,2.29,0,0,1,.54.38q-.24,0,0,.24V3.17a4.9,4.9,0,0,1,.69.54,3.13,3.13,0,0,0,.54.55,1.43,1.43,0,0,0,1.86.15,1.45,1.45,0,0,0,.31-.23A4.88,4.88,0,0,1,25,2.4c.05.05.09.08.11.08s.07,0,.12.08a.22.22,0,0,0,.15-.08c.05-.21.24-.31.54-.31a.93.93,0,0,1,.39-.08.61.61,0,0,1,.43.47,1.13,1.13,0,0,0,.19.54,9.84,9.84,0,0,0,.31-1A.21.21,0,0,1,27.38,2c.41,0,.84.11,1.28.19a7,7,0,0,1,1.27.35,5.07,5.07,0,0,1,.7.34.87.87,0,0,1,.38.58h.31a2.48,2.48,0,0,1,.62.85,9.3,9.3,0,0,1,.69,2.86.25.25,0,0,1-.15.23c-.15.11-.15.23,0,.39a.88.88,0,0,1,.31.77V9l-.31.16c-.1.05-.15.11-.15.19s.05.14.15.2.31.2.31.46a.3.3,0,0,1,0,.23.47.47,0,0,0,0,.23V30.06a2.75,2.75,0,0,1-.08.77,1.82,1.82,0,0,0,0,.42,1.56,1.56,0,0,1,0,.35v7.73a.21.21,0,0,1-.16.07c-.15.11-.23.21-.23.31s.11.16.31.16c0,.05,0,.07.08.07v7.5a2.31,2.31,0,0,1-.08.69,3.46,3.46,0,0,1-.15.5c-.05.13-.21.22-.47.28a.66.66,0,0,1-.54.3H27.61a6.64,6.64,0,0,1-1.15-.15q-.39-.15-.39-.39c-.05-.2-.11-.4-.16-.58a2.15,2.15,0,0,1-.07-.58v-3c0-.26,0-.53,0-.81a1.72,1.72,0,0,1,.11-.81.67.67,0,0,0,0-.23.47.47,0,0,1,0-.23V15.77a2.49,2.49,0,0,1,0-.47,3.55,3.55,0,0,0,0-.46v-.23a1.52,1.52,0,0,1-.11-.74c0-.23,0-.47,0-.73a3.85,3.85,0,0,1,.07-.85.77.77,0,0,0,0-.7c-.05-.05,0-.15.08-.31s.16-.28,0-.38a.66.66,0,0,1-.08-.7.19.19,0,0,0,0-.31c-.1-.25-.22-.52-.34-.81a2.36,2.36,0,0,0-1.82-1.27h-.46a.61.61,0,0,1-.12-.16A1.19,1.19,0,0,0,23,7.42v.39a2.54,2.54,0,0,0-.62.15,1.08,1.08,0,0,1-.23-.31L22,7.81a5.19,5.19,0,0,0-.11.54.59.59,0,0,1-.35.39.22.22,0,0,0-.08.15.21.21,0,0,1-.07.15,1.33,1.33,0,0,0-.16.62,1.27,1.27,0,0,1-.11.54,1,1,0,0,0-.12.47,4.68,4.68,0,0,1-.93-.39c0,.1,0,.17,0,.19a.21.21,0,0,0,0,.12l-.24.23c.06.16.13.18.24.08a1.25,1.25,0,0,1,.46-.16,1.36,1.36,0,0,0,.54-.07.76.76,0,0,1,.15.54v10c0,.26,0,.49,0,.7a4.75,4.75,0,0,0,0,.69.19.19,0,0,1-.2-.15.18.18,0,0,0-.19-.16c-.1.11-.13.19-.08.27s.21.27.47.58V39.33l-.47.46c.05.1.12.14.2.12s.16,0,.27.11a2.62,2.62,0,0,1,.07.62,1.87,1.87,0,0,1-.15.69v.16a1.29,1.29,0,0,1,.15.69v5.1a6.12,6.12,0,0,1,0,.66.92.92,0,0,1-.27.5v.08c.05.26,0,.41-.16.46l-.46.16a4.37,4.37,0,0,1-.93.07H19c-.1-.15-.31-.18-.62-.07a.73.73,0,0,1-.07-.31s0,0,.11,0,.12,0,.12-.08a.46.46,0,0,0-.08-.31s-.05-.13-.15-.23a3.38,3.38,0,0,1,.15-.54,1.24,1.24,0,0,1-.31-.23c-.1.1-.15.18-.15.23a.22.22,0,0,1-.08.15c-.1.16-.21.24-.31.24a.33.33,0,0,0,0,.42.24.24,0,0,1,0,.35s0-.08,0-.08,0,0,0-.08l-.07.08a.22.22,0,0,0,.15.08v.31c-.1,0-.17,0-.19,0a.38.38,0,0,1-.19,0H15.72a2,2,0,0,1-.7-.07q-.69-.31-.69-.78a3.9,3.9,0,0,1-.16-.92V35.31a3,3,0,0,1,0-.5,3.08,3.08,0,0,0,0-.51c0-.1,0-.16,0-.19a.12.12,0,0,1,0-.11,5,5,0,0,0,0-.7,1.17,1.17,0,0,1,.12-.62v-.15c-.05-.47-.09-.88-.12-1.24a3.32,3.32,0,0,1,.12-1.08.85.85,0,0,1,.62-.23,3,3,0,0,0,0,.5.74.74,0,0,1-.12.5.49.49,0,0,1,0,.31.3.3,0,0,0,.12.31.36.36,0,0,0,.3-.39,1.21,1.21,0,0,1,.39-1,.22.22,0,0,0,.08-.15.23.23,0,0,1,.07-.16.14.14,0,0,1,.16-.15.31.31,0,0,1,.15.31c0,.15.11.2.31.15a.31.31,0,0,0,0-.39,3.65,3.65,0,0,0-.27-.3.7.7,0,0,1,0-.27.79.79,0,0,0,0-.28c-.11-.51-.44-.72-1-.61h-.54l-.54-.54V24.65a2.07,2.07,0,0,1,.08-.62.26.26,0,0,0,0-.27.5.5,0,0,1-.08-.27V18.7a.41.41,0,0,1,.31-.46,2.82,2.82,0,0,1-.27-.31.73.73,0,0,1,0-.31,1.9,1.9,0,0,1,.23-1.08,1.24,1.24,0,0,1-.23-.85V10.82a4.37,4.37,0,0,0-.07-.93,2.37,2.37,0,0,0-.7-1.46.43.43,0,0,1,0-.31.31.31,0,0,0-.11-.31,1.08,1.08,0,0,0-.24.31,1.29,1.29,0,0,0-.85-.31h-.92a.72.72,0,0,1-.27.08A.41.41,0,0,0,10.7,8,.81.81,0,0,1,9.92,8H9.77c0,.11,0,.17,0,.2a.16.16,0,0,1,0,.11v.31A.67.67,0,0,0,9.61,9v.24a5,5,0,0,1-.3,1.08,1,1,0,0,1,.11.58,5.11,5.11,0,0,0,0,.58,1.6,1.6,0,0,1,0,.69L9.15,12c-.36.67-.57,1.07-.62,1.2a.4.4,0,0,0,0,.34.45.45,0,0,0,.39-.3A.46.46,0,0,1,9,13q.08-.12.15-.27a.19.19,0,0,1,.16-.08c0,.05,0,.08,0,.08s0,0,0,.07a.25.25,0,0,1-.07.31,1.17,1.17,0,0,0-.24.39,1.08,1.08,0,0,0,.24.38l.15.16v.93a6.35,6.35,0,0,0-.08,1.15,5.11,5.11,0,0,0,0,.58,3.6,3.6,0,0,1,0,.58q0,7.5,0,15t0,15a3.41,3.41,0,0,1-.23,1.31.6.6,0,0,1-.54.54.88.88,0,0,1-1,0,.26.26,0,0,0-.27,0,.46.46,0,0,1-.27.08A.22.22,0,0,1,7,48.87q0-.19-.27-.12v.46a.84.84,0,0,1-.47,0,3.57,3.57,0,0,0-.46,0,.25.25,0,0,1-.23-.11A.35.35,0,0,0,5.29,49a.4.4,0,0,0-.19.16s-.09.07-.2.07h-1a2.07,2.07,0,0,1-1-.23,1.87,1.87,0,0,0,0-.65,5.83,5.83,0,0,1,0-.66c-.05,0-.07,0-.07-.08a.31.31,0,0,0-.12.31.31.31,0,0,1-.11.31c-.11-.05-.16-.21-.16-.46V45.66a.48.48,0,0,1,.23-.39.14.14,0,0,1,.12.08.12.12,0,0,0,.11.08.33.33,0,0,0,.24.08.21.21,0,0,1,0-.12.15.15,0,0,0,0-.12c0-.1,0-.15-.07-.15S3,45.07,3,45a.9.9,0,0,0,.39-.08.62.62,0,0,0,.08-.39A1.08,1.08,0,0,0,3.36,44a2.27,2.27,0,0,1-.62-.16c-.21-.1-.31-.23-.31-.38V28a1.46,1.46,0,0,1,.43-.08.41.41,0,0,0,.34-.23.6.6,0,0,0-.46.16l-.15-.16A.86.86,0,0,1,2.43,27V5.26c.1,0,.17,0,.19.08a.19.19,0,0,0,.2.15,1.87,1.87,0,0,1,0-.42,2.81,2.81,0,0,0,0-.43c-.1,0-.16,0-.19,0a.35.35,0,0,0-.19,0,1.07,1.07,0,0,1-.08-.69c0-.21.1-.41.16-.62a.73.73,0,0,1,.85-.54,1.12,1.12,0,0,0,.46-.08.25.25,0,0,1,.31-.07l.31.15.27-.15c.07-.05.16,0,.27.07a7.46,7.46,0,0,0-.23.78l.34,0a1.56,1.56,0,0,0,.35,0A1.14,1.14,0,0,0,5.6,4a.28.28,0,0,0,0,.15.42.42,0,0,1,0,.16A2.15,2.15,0,0,0,5.29,4H5.13a.41.41,0,0,1,0,.16.47.47,0,0,0,0,.23c.31.1.51,0,.62-.15.15,0,.23,0,.23.07a1.45,1.45,0,0,1,.23.31c0,.05,0,.08.08.08h.15c.1-.26,0-.41-.15-.46A.32.32,0,0,1,6.06,4c0-.05.05-.13.16-.24a.73.73,0,0,1,.54.08v.08A.07.07,0,0,0,6.68,3.79Zm-4,6.72-.07.08.07.08ZM3,17.93a.12.12,0,0,1-.11,0,.16.16,0,0,0-.12,0,.24.24,0,0,1-.08.16h.08A.32.32,0,0,0,3,17.93Zm-.23,6,.08-.07-.08-.08Zm.31,10.74c-.26,0-.31.08-.16.23s.26.21.47,0A1.08,1.08,0,0,1,3.05,34.69ZM3.44,43l.23.47h.15a.16.16,0,0,1,0-.12.12.12,0,0,0,0-.11.16.16,0,0,0,0-.12.15.15,0,0,1,0-.12H3.44V42.8s.05-.13.15-.23a.61.61,0,0,1,.12.16.48.48,0,0,0,.11.15.43.43,0,0,1,.35,0,.3.3,0,0,0,.35-.08.6.6,0,0,0-.24-.07.22.22,0,0,1-.15-.08.24.24,0,0,1-.08-.16A.21.21,0,0,0,4,42.34,1.3,1.3,0,0,0,3.74,42c-.46.21-.72.44-.77.7A.51.51,0,0,1,3.44,43ZM3.13,12.29v.08H3.2v-.08ZM3.28,48.6l.08-.16-.08-.08s-.08,0-.08,0,0,0-.07,0Zm0-37.93A1.14,1.14,0,0,0,3.59,12a.16.16,0,0,0,.12,0,.16.16,0,0,1,.11,0,1.76,1.76,0,0,1-.19-.54,1.29,1.29,0,0,0-.19-.46S3.38,10.87,3.28,10.67Zm.54,7.1c-.26-.15-.41-.15-.46,0s.05.16.31.31A.47.47,0,0,1,3.82,17.77Zm-.38-4.86L3.36,13v.16A.23.23,0,0,0,3.44,13Zm.23,1.7-.16-.16-.15.16.08.15c.05,0,.08-.08.11-.08S3.61,14.66,3.67,14.61Zm.15-5.1a2.27,2.27,0,0,0-.42.19s0,.14.11.35a.32.32,0,0,1,.08.23.16.16,0,0,1,.12,0,.12.12,0,0,0,.11,0,.07.07,0,0,0,.08-.08L4,10.2a1.92,1.92,0,0,0,0-.38A1.66,1.66,0,0,0,3.82,9.51ZM6.29,6c-.1.06-.14.12-.11.2s0,.11-.12.11c-.31.11-.41.29-.31.54a1.11,1.11,0,0,1-.23.7c-.1-.1-.15-.18-.15-.23a.92.92,0,0,1,.23-1A.31.31,0,0,0,5.71,6a.33.33,0,0,1,.12-.3.31.31,0,0,1-.23-.31A.5.5,0,0,0,5.44,5a5.84,5.84,0,0,0-.31.93.33.33,0,0,1-.38.38.51.51,0,0,0-.08.47,1,1,0,0,0,.23.38,1,1,0,0,1-.46.08,1.67,1.67,0,0,0,.23.39.12.12,0,0,0,.08.11s0,.09,0,.2c-.31,0-.47-.11-.47-.31a1,1,0,0,0-.11-.47.56.56,0,0,1,0-.54c0-.1,0-.2-.31-.31v.16A.94.94,0,0,1,3.59,7s-.08,0-.08.11.05.14.16.2a2.48,2.48,0,0,0,.38.46c-.1.15-.1.26,0,.31a1.08,1.08,0,0,1,.31.23.69.69,0,0,0,.16.77,2.52,2.52,0,0,0,.69.31h.16c0-.1.11-.13.19-.08a.22.22,0,0,0,.27,0,.32.32,0,0,1,.23.08.32.32,0,0,0,.23.08c.26.15.39.05.39-.31,0-.21,0-.33-.15-.39s0-.07-.08-.07a.48.48,0,0,1,.23-.08.62.62,0,0,0,.23-.08A1.41,1.41,0,0,0,7,9a1.06,1.06,0,0,1,0,.31,2.28,2.28,0,0,0-.35.5c0,.08,0,.24.12.5l.15-.15A.93.93,0,0,0,7,9.74c0-.15,0-.23.15-.23l.16-.16A2.16,2.16,0,0,1,7.49,9a.2.2,0,0,0,0-.3l.08-.16c.15-.05.22-.14.19-.27a.59.59,0,0,1,0-.35A.28.28,0,0,0,8,8c.26,0,.36-.15.31-.46l-.23-.93A.34.34,0,0,0,7.68,7a.41.41,0,0,1,.16.31c0,.15,0,.23-.16.23a5.06,5.06,0,0,0-.31-.78,1,1,0,0,1-.92-.69ZM3.59,41.49v-.08H3.51v.08Zm.23,2.63L3.9,44l-.08-.08H3.74L3.67,44Zm.16-28c-.06.05-.09.08-.12.08s-.07,0-.12.08l.16.15c.05,0,.13-.05.23-.15ZM3.74,33.53v.08l.08-.08ZM4,8.58l-.08.08A.28.28,0,0,0,4,8.89l.07-.08A.12.12,0,0,0,4,8.7.21.21,0,0,1,4,8.58ZM4,18.93c0-.05,0-.07-.08-.07V19Zm.15,29.36c-.1.2-.15.28-.15.23a.32.32,0,0,0,.07.23l.16-.15a.21.21,0,0,0,0-.12S4.13,48.39,4.13,48.29ZM4.21,4.1H4.05a.07.07,0,0,0,.08.08A.07.07,0,0,1,4.21,4.1Zm.07,40.63c-.15.11-.22.22-.19.35a1.91,1.91,0,0,1,0,.43c.1-.26.17-.42.19-.47S4.34,44.89,4.28,44.73Zm.08-2.93-.08-.08s-.07,0-.07,0,0,0-.08,0l.08.08C4.31,41.88,4.36,41.85,4.36,41.8Zm-.08,6.33c.11-.25.06-.38-.15-.38A1.32,1.32,0,0,0,4.28,48.13ZM5.21,22.8a.8.8,0,0,0-.46-1.09l-.23.47-.31.31a.48.48,0,0,0,.15.11l.16.12a.5.5,0,0,0,.31-.31Zm-.54-7.19c-.15-.1-.26-.13-.31-.08s-.18.08-.08.24a.25.25,0,0,0,.16.07c0-.05.08-.09.08-.11S4.57,15.66,4.67,15.61Zm-.23-4.09q.15-.31.15-.24c0-.1,0-.15-.07-.15H4.36a.09.09,0,0,0,0,.15A.66.66,0,0,0,4.44,11.52Zm.08.38c0-.05,0-.07,0-.07s0,0,0-.08-.08,0-.08.08,0,.07.08.07Zm.07,4.79-.07.08.07.08.08-.08ZM4.9,46.82l-.15-.08-.08.08s0,.08,0,.08,0,0,0,.07Zm0-28.43a.32.32,0,0,0-.15.31,1.3,1.3,0,0,1,.15.54c-.05.31.11.54.47.7.1-.36.25-.57.46-.62a.4.4,0,0,1,.27.11c.08.08.19.07.35,0a1,1,0,0,1,.08-.47.32.32,0,0,0-.31-.11.34.34,0,0,1-.31-.12c.1-.1.1-.26,0-.46v-.08h.38a.33.33,0,0,1,0-.19s0-.09,0-.2c0,.06-.15.08-.31.08h-.3a.49.49,0,0,0-.08.46.31.31,0,0,1-.16.39l-.27-.15A1.6,1.6,0,0,0,4.9,18.39Zm.23-4.32C5,14,5,13.89,5,13.83l-.15.08.07.16Zm.16,32s-.08,0-.08,0,0,0-.08,0a.3.3,0,0,0-.3.23c0,.11.07.16.23.16S5.29,46.25,5.29,46.05ZM4.9,10.28a.44.44,0,0,0,.23-.39.2.2,0,0,0-.23-.23Zm.23,12.9s-.07,0-.07,0,0,0-.08,0a.23.23,0,0,1-.08.16h.16C5.06,23.21,5.08,23.18,5.13,23.18ZM5,45.27V45.2c-.05,0-.08,0-.08.07ZM5.37,7.89a.28.28,0,0,1,0,.38H5.06c0-.15,0-.24.07-.27Zm.31,9.57a.56.56,0,0,1-.08-.3.68.68,0,0,0-.08-.31.18.18,0,0,0-.12-.2c-.07,0-.14,0-.19.12s-.15.18-.15.23a.73.73,0,0,0,0,.27,1.12,1.12,0,0,1,0,.27h.24A.62.62,0,0,0,5.68,17.46Zm-.47-11v.07s-.08,0-.08-.07Zm.08,4.63.08-.08c-.06,0-.08,0-.08,0s0,0-.08,0,0,.07-.08.07.08,0,.08,0S5.24,11.13,5.29,11.13Zm0,.7c0,.05-.08.09-.08.11s0,.07-.08.12l.16.07L5.44,12Zm-.16,7.41a.22.22,0,0,1,.08-.15v.15Zm.24,25.11-.16-.08s-.08,0-.08.15h.16C5.29,44.37,5.31,44.35,5.37,44.35Zm0-2.47a.07.07,0,0,0-.08-.08.07.07,0,0,1-.08.08l.08.07C5.29,41.9,5.31,41.88,5.37,41.88Zm0,3.39h.07l-.07.08c-.06,0-.08,0-.08.08h.08Zm.07-17.76v-.16H5.37v.16Zm.08,10.12v-.16H5.37l.07.16Zm0-16.84H5.44l.08.07.08-.07ZM5.68,2.63H5.52l.08-.07C5.65,2.56,5.68,2.58,5.68,2.63ZM5.6,10.2a.28.28,0,0,0,.15,0,.45.45,0,0,1,.16,0c.1.1.15.18.15.23a.22.22,0,0,0,.08.15.68.68,0,0,1-.08.31c0,.1,0,.21.16.31v.15a.45.45,0,0,0,.07.31c0,.06,0,.08.08.08s.16,0,.16-.08c.2-.36.2-.64,0-.85a1.55,1.55,0,0,1-.16-.92.46.46,0,0,0-.69,0,.42.42,0,0,1,0,.15.47.47,0,0,0,0,.23c-.11.16,0,.31.15.47C5.75,10.41,5.7,10.26,5.6,10.2Zm.15,34.61v0Zm.08-33.06h.08l-.08-.08ZM5.91,31.6c.1.1.18.16.23.16l.08-.16C6.11,31.4,6,31.4,5.91,31.6Zm.62-15.68a.41.41,0,0,0-.47,0,.26.26,0,0,0-.08.31A.84.84,0,0,0,6.53,15.92ZM6.14,8.81c0,.06,0,.08,0,.08s0,0,0,.08,0,.07-.08.07,0-.07,0-.07,0,0,0-.08ZM6.22,22.1,6.14,22a.07.07,0,0,0-.08.08h.16ZM6.14,38.86a1.55,1.55,0,0,0-.08.47.68.68,0,0,0,.23.46A.93.93,0,0,0,6.14,38.86Zm-.08,4.41v1.08a1.29,1.29,0,0,0,.31-.27,1.66,1.66,0,0,1,.23-.27.84.84,0,0,1-.19-.27C6.38,43.46,6.27,43.37,6.06,43.27Zm.16,3.63H6.14s-.08,0-.08.07h.08C6.19,47,6.22,47,6.22,46.9Zm.15-32.06h.16c.1,0,.15-.08.15-.23a.35.35,0,0,0-.08-.24s-.13,0-.23.08l-.15.16c-.16.15-.13.23.07.23ZM6.22,2.56s0,.07-.08.07S6.16,2.56,6.22,2.56Zm.07,35.53a.21.21,0,0,1-.07-.15c0,.05,0,.07,0,.07s0,0,0,.08,0,.08.08.08Zm.16,3.09-.16-.08c-.1,0-.15,0-.15.08s0,.08,0,.08,0,0,0,.07a.2.2,0,0,1,.11-.07S6.4,41.23,6.45,41.18Zm.46,4.71H6.37c-.15,0-.23,0-.23.16l.15.31a.44.44,0,0,1,.35-.24C6.77,46.12,6.86,46.05,6.91,45.89Zm-.62-23.4c0,.05,0,.07,0,.07s0,0,0,.08a.22.22,0,0,1,.15.08.24.24,0,0,1,.08-.16A.23.23,0,0,0,6.29,22.49ZM6.22,48.83s.07,0,.07-.08H6.22Zm.23-27.66c-.11.11-.13.16-.08.16s0,.07,0,.07,0,0,0,.08l.15-.15ZM7,5.65v0a.92.92,0,0,0-.16-.39,1.1,1.1,0,0,0-.46-.15A.56.56,0,0,0,7,5.65ZM6.6,7.73v.39s-.07,0-.07.07l-.08-.07C6.34,8,6.4,7.84,6.6,7.73Zm.31-4.56c-.26,0-.41,0-.46-.15l.08-.08A2.32,2.32,0,0,1,6.91,3.17ZM6.6,7.73a.32.32,0,0,0-.07-.23c-.06,0,0-.13.07-.23a.27.27,0,0,0,.16-.08l.07.16A1.76,1.76,0,0,1,6.6,7.73Zm.54,15.45a.43.43,0,0,0-.54.08l.16.15L7,23.3A.78.78,0,0,1,7.14,23.18ZM7,28c-.11,0-.21.1-.31.31,0,0,0,.08.08.08h.07A.14.14,0,0,0,7,28.2Zm-.08-4.25-.08-.07v.07ZM7.37,44.5a.33.33,0,0,0-.46.08c0,.05,0,.21.08.46a.67.67,0,0,0,.19-.27A1,1,0,0,1,7.37,44.5ZM7,13.91c-.11.11-.11.18,0,.23S7.09,14,7,13.91ZM6.91,2.56h.23c.05,0,.08,0,.08.07l-.08.08C7,2.71,6.91,2.66,6.91,2.56Zm.16,18c0-.05,0-.07,0-.07s0,0,0-.08a.16.16,0,0,1,0,.12.12.12,0,0,0,0,.11l.08.08C7,20.61,7,20.55,7.07,20.55Zm0,27.27h.07a4.92,4.92,0,0,0,.39-.92s0-.13-.16-.23A1.16,1.16,0,0,0,7.07,47.82Zm.46-7.26c-.1-.1-.18-.15-.23-.15a.23.23,0,0,1-.16.07c.11.11.18.16.23.16S7.43,40.67,7.53,40.56ZM7.37,7.81l-.07.08a.24.24,0,0,0-.08-.16l.08-.08c0,.06,0,.08,0,.08S7.37,7.76,7.37,7.81ZM7.22,22v.23a.16.16,0,0,1,0-.12.16.16,0,0,0,0-.11Zm.54-6.26c-.26.05-.39.26-.39.62.11.15.21.18.31.07s.24-.2.24-.46c-.06-.05-.08-.09-.08-.12S7.81,15.74,7.76,15.69Zm-.08-11-.07-.08a.23.23,0,0,0-.16.08.07.07,0,0,0,.08.08A.22.22,0,0,0,7.68,4.72Zm.47,5.87A1,1,0,0,0,8,9.82c0-.05-.07-.08-.23-.08H7.61c-.11.1-.11.18,0,.23l.23.23a.32.32,0,0,1-.19.27c-.13.08-.12.2,0,.35Zm-.54,1.24a.39.39,0,0,0,.23-.47H7.76q-.15,0-.15.39Zm.54,11.66a.16.16,0,0,1-.12,0,.18.18,0,0,0-.11,0q-.17,0-.24.24V24l.08.08A.28.28,0,0,0,8,24ZM7.92,35.62H7.76l.08.08A.07.07,0,0,0,7.92,35.62Zm.3-18.46-.3.61a.22.22,0,0,0,0,.27c0,.08.12.09.23,0a1.18,1.18,0,0,1,.38.16l.16.15L9,18.24a2,2,0,0,1-.39-.47A2.94,2.94,0,0,1,8.22,17.16ZM8,5.11v.07l.08-.07ZM8.3,25.89l-.23.23a.44.44,0,0,0-.08.31c.21-.11.32-.18.35-.24S8.35,26,8.3,25.89ZM8.15,4c.15-.15.18-.28.07-.38l-.07-.08a.44.44,0,0,0-.08.31A.22.22,0,0,0,8.15,4Zm0,27.89.15-.08-.08-.15-.15.08s0,.07,0,.07S8.15,31.86,8.15,31.91Zm.15,16H8.15a.07.07,0,0,1-.08.08h.15C8.28,48,8.3,48,8.3,47.9ZM8.77,9.82a.91.91,0,0,0,.07-.39A.93.93,0,0,1,8.92,9l-.08-.15c-.1-.05-.18-.05-.23,0a.63.63,0,0,0-.23.19,1.66,1.66,0,0,1-.23.27l.23.47Q8.53,10,8.77,9.82Zm.07,14.29a.32.32,0,0,0-.07-.23.71.71,0,0,1-.16-.23.83.83,0,0,0-.08-.47c-.25,0-.31.08-.15.23a.47.47,0,0,1,.08.43.8.8,0,0,0-.08.35l.08.07A.31.31,0,0,0,8.84,24.11Zm-.23-8.19c-.15-.15-.23-.13-.23.08-.05,0-.07,0,0,.07a.12.12,0,0,0,.12.08C8.56,16.15,8.61,16.07,8.61,15.92ZM8.38,8.5h.15c0-.05,0-.07,0-.07s0,0,0-.08-.08,0-.08.08Zm.23,39.17-.08.08a.22.22,0,0,1,.08.15c.05,0,.08,0,.08,0s0,0,.08,0ZM9,29.59a.32.32,0,0,1-.08-.23H8.77c-.16.16-.13.23.07.23l.08.08A.07.07,0,0,0,9,29.59Zm-.23-6.95a.6.6,0,0,0,.38.08.24.24,0,0,0,.08-.16c.1-.1.08-.15-.08-.15A.36.36,0,0,0,8.77,22.64Zm.3-5.1-.15.16v.15c.05-.05.09-.08.12-.08a.2.2,0,0,0,.11-.07A.24.24,0,0,1,9.07,17.54Zm.31-9.81c-.05,0-.07,0-.07,0s0,0-.08,0A.3.3,0,0,0,9,7.73a.1.1,0,0,0,0,.16L9.07,8A.27.27,0,0,0,9.38,7.73Zm-.15,7.49a.23.23,0,0,0-.16-.07H9s0,.07,0,.07,0,0,0,.08.08,0,.08,0S9.18,15.22,9.23,15.22Zm.08-9c.1-.2.1-.36,0-.46s-.19-.1-.24,0S9.2,6.06,9.31,6.26Zm-.24,30.9v.16l.08-.08ZM9.46,7.35c.1.1.18.15.23.15a.19.19,0,0,0,0-.31.09.09,0,0,0-.15,0A.27.27,0,0,1,9.46,7.35Zm.23-2.17c.05,0,.08,0,.08,0s0,0,.08,0,0-.08.07-.08.08,0,.08-.07a.78.78,0,0,0-.23-.55A1.62,1.62,0,0,1,9.69,5.18Zm1,.93L10.54,6c-.2-.1-.31,0-.31.16s0,.15.16.15S10.59,6.37,10.7,6.11Zm.23.85c-.11.1-.16.18-.16.23a.32.32,0,0,0,.16.39c.05.1.13.1.23,0s.18-.11.08-.31A.28.28,0,0,0,10.93,7ZM14.4,37.63a.38.38,0,0,1,0,.19.16.16,0,0,0,0,.12l.15.07a.3.3,0,0,0,.08-.23Zm.24-16.92-.08-.08H14.4l.08.08Zm-.24,26v.23l.08.07v-.23Zm.39-20.78c-.21.2-.28.33-.23.38l.08.08a.62.62,0,0,1,.23-.08.48.48,0,0,0,.23-.08L15,26Zm-.08-3.33a.27.27,0,0,0,.31-.31,2.75,2.75,0,0,1,.08-.77v-.31c0-.1,0-.16.08-.19s0-.09-.08-.19A1.42,1.42,0,0,0,14.71,22.56Zm.08,21.71a.14.14,0,0,1-.08.12.11.11,0,0,0-.07.11c-.11.11-.06.21.15.31.05,0,.13-.08.23-.23S15,44.37,14.79,44.27ZM15,5.72l-.16-.07-.15.15a.22.22,0,0,0,.15.08ZM15.1,4A.62.62,0,0,1,15,3.79.56.56,0,0,0,15,3.56h-.16c-.15,0-.18.18-.08.39S14.89,4.08,15.1,4Zm-.39,42.72a2.77,2.77,0,0,1,.24.43.45.45,0,0,1-.08.42s0,.08.08.08.07,0,.07,0,0,0,.08,0a1.91,1.91,0,0,1,0-.43,2.62,2.62,0,0,1,.11-.42c0-.16-.1-.23-.3-.23l-.08.07Zm.08-11.59v.24l.08-.16A.07.07,0,0,0,14.79,35.15Zm.39-18L15,17l-.15.08.08.15A.61.61,0,0,0,15.18,17.16Zm-.31,8s0,.08,0,.08,0,0,0,.07c.2-.05.35-.23.46-.54a.32.32,0,0,0-.08-.23.32.32,0,0,0-.23.08,2.86,2.86,0,0,0-.12.27A1.4,1.4,0,0,1,14.87,25.19Zm.23,23.17-.15.16a.13.13,0,0,0,.15.15c.1.11.15.08.15-.07S15.2,48.47,15.1,48.36Zm.39-10.58-.31-.15c-.11,0-.16,0-.16.15s.05.23.16.23A1.08,1.08,0,0,1,15.49,37.78ZM15,39l.08.07c.05,0,.08,0,.08,0s0,0,.07,0l-.07-.08A.23.23,0,0,0,15,39Zm.31,5.4c.1,0,.16-.07.16-.23a.25.25,0,0,0-.16-.07.22.22,0,0,1-.15-.08l-.08.08a.52.52,0,0,1,.12.19C15.24,44.39,15.28,44.42,15.33,44.42Zm-.15-26.11a1,1,0,0,0,0,.43.87.87,0,0,0,.27.12A.7.7,0,0,0,15.18,18.31ZM15.41,48a.07.07,0,0,1-.08-.08l-.08.08c0,.05,0,.08,0,.08s0,0,0,.07A.22.22,0,0,1,15.41,48Zm0-18.31s0,.08.08.08l-.08.07-.08-.07ZM16.26,4.8a1.45,1.45,0,0,0,.15-.39s-.1-.18-.31-.39a.48.48,0,0,1-.23.08.62.62,0,0,0-.23.08.5.5,0,0,0,.27.38A1.15,1.15,0,0,1,16.26,4.8Zm.15,13.75a2.2,2.2,0,0,1-.11-.27,2.86,2.86,0,0,0-.12-.27.19.19,0,0,0-.31,0,.43.43,0,0,0-.15.3,1,1,0,0,1-.08,1,.21.21,0,0,0,.23.23,3.67,3.67,0,0,0,.27-.46ZM16,40.25A.22.22,0,0,0,16,40.1h-.16a.2.2,0,0,0,0,.31c0,.1.06.1.16,0A.24.24,0,0,0,16,40.25Zm.07-14.91a.64.64,0,0,0,.24-.46c0-.31-.19-.39-.55-.23a1.07,1.07,0,0,1,.2.23A3.87,3.87,0,0,1,16.1,25.34Zm0,19.78a.32.32,0,0,0-.07-.23l-.16-.16a.27.27,0,0,0-.08.16v.38H16C16,45.17,16.05,45.12,16.1,45.12ZM15.87,5.57V5.8a.45.45,0,0,0,.31.15l.08-.07s0-.08,0-.08,0,0,0-.08a.35.35,0,0,0,0-.19s0-.09,0-.19c-.16-.11-.26-.13-.31-.08A.71.71,0,0,0,15.87,5.57ZM16,8.27a.38.38,0,0,0,0,.47Zm.15,19.55H16.1c-.1.05-.13.15-.07.31a.21.21,0,0,0,.15.07.22.22,0,0,0,.08-.15.16.16,0,0,0,0-.12A.12.12,0,0,1,16.18,27.82Zm-.08-5.1-.07.15c0,.16.07.23.23.23a.13.13,0,0,0,.15-.15A1.86,1.86,0,0,0,16.1,22.72Zm.39,13.05a.44.44,0,0,0-.15.47C16.54,36.19,16.59,36,16.49,35.77Zm0-19.08h-.08a.07.07,0,0,0,.08.08Zm.23,7-.15-.08a.07.07,0,0,1-.08-.08.16.16,0,0,1,0,.12.12.12,0,0,0,0,.11v.08h.08C16.54,23.8,16.62,23.75,16.72,23.65Zm-.23,6.87.08.08c0-.05,0-.08.07-.08Zm.39-24.33a.25.25,0,0,1-.16.07.22.22,0,0,0-.15.08V6.5c0,.1.07.15.23.15S16.93,6.44,16.88,6.19Zm.69-1.47-.08-.08h-.15a.74.74,0,0,0-.19.27.71.71,0,0,1-.2.27.76.76,0,0,0-.19.35,1.31,1.31,0,0,1-.12.35l.08.07h.16A.13.13,0,0,0,17,5.8a2,2,0,0,0,.23-.46,2,2,0,0,1,.23-.47C17.54,4.87,17.57,4.82,17.57,4.72Zm-.85,27.19V32a.07.07,0,0,0,.08-.08ZM17,24.8c.1-.2.08-.31-.08-.31H16.8v.24l.08.15Zm.08-10.66L17,14l-.15.15c.05.06.07.06.07,0ZM17,12.52l.08.08.08-.08-.08-.08A.07.07,0,0,0,17,12.52Zm.08,27a.07.07,0,0,0-.08.08h.08Zm.15-19.16a.12.12,0,0,1,0-.11.16.16,0,0,0,0-.12L17.26,20c-.1,0-.15,0-.15.08S17.06,20.32,17.26,20.32Zm.16-17.45a.28.28,0,0,0-.23-.08l-.08.08.15.15ZM17.57,18c-.1-.11-.18-.16-.23-.16-.15-.15-.23-.1-.23.16l.08.15a.68.68,0,0,1,.19-.08A.63.63,0,0,0,17.57,18Zm-.46,12.36a.63.63,0,0,1,.08.27.26.26,0,0,0,.07.19.47.47,0,0,0,.31.15.25.25,0,0,0,.16-.07.23.23,0,0,0-.08-.16.35.35,0,0,1-.23-.38C17.37,30.31,17.26,30.31,17.11,30.37Zm.23-14.6a.27.27,0,0,1-.08-.16l-.07.08a.21.21,0,0,0,.07.15C17.26,15.79,17.29,15.77,17.34,15.77Zm.08-8.42-.16.07.16.16s.07,0,.07-.08A.21.21,0,0,1,17.42,7.35Zm.15,15.14a.9.9,0,0,0-.31.61.24.24,0,0,1,.16.08,2.16,2.16,0,0,1,.19-.31C17.69,22.77,17.67,22.64,17.57,22.49ZM17.34,41.8a.07.07,0,0,0,.08-.08l-.08-.08ZM17.42,13l.15-.07a.24.24,0,0,0-.08-.16l-.07.08Zm.38-2.7V10.2s-.05-.12-.15-.23l-.08.08a.07.07,0,0,0-.08.08.42.42,0,0,0,0,.15.28.28,0,0,1,0,.15c.16.16.23.13.23-.07ZM17.49,44v.16a.07.07,0,0,0,.08-.08A.07.07,0,0,1,17.49,44Zm.39-22.63v-.47c0-.05-.05-.07-.15-.07s-.08,0-.08.07-.11.16,0,.16c.05.2.13.46.23.77a.23.23,0,0,0,.16.08l.07-.08a1.08,1.08,0,0,0,.08-.46Zm.08-9.2a.62.62,0,0,1-.31.08.24.24,0,0,1-.08.16l.08.07c.1,0,.15,0,.15-.07Zm-.23,18h.15c.16,0,.21-.07.16-.23a.14.14,0,0,0-.16-.15c-.15,0-.23.1-.23.31ZM18,8.89A.73.73,0,0,0,18,8.35H17.8c-.05,0-.07,0-.07.08C17.62,8.68,17.73,8.84,18,8.89ZM17.8,4a.36.36,0,0,0,.24.39Q18.27,4.18,17.8,4Zm0,2.4.16.15a.32.32,0,0,0,.23-.07V6.34s-.05-.08-.15-.08S17.91,6.32,17.8,6.42Zm.31-.85A.21.21,0,0,1,18,5.41c-.06.06-.08.09-.08.12s0,.07-.08.12.08,0,.08,0,.08,0,.08,0S18.06,5.57,18.11,5.57ZM18,16.31a2.68,2.68,0,0,0-.16.54L18,17c0-.05,0-.08.07-.08s.08,0,.08-.07S18.24,16.51,18,16.31Zm.07,0a.16.16,0,0,1,0-.12.15.15,0,0,0,0-.12c0-.05,0-.07.08-.07v-.16a.21.21,0,0,0-.23-.23.25.25,0,0,0-.08.31Q18,15.85,18.11,16.31Zm.08,18.3L18,34.54H18l.15.15ZM18.11,9.89h.08c.1-.1.13-.18.08-.23a.1.1,0,0,0-.16,0,.23.23,0,0,1-.07.16S18.06,9.89,18.11,9.89Zm.31,21.32A.3.3,0,0,0,18.5,31a.21.21,0,0,0-.23-.23v.08c-.11.05-.11.13,0,.23Zm.16,15.15V46.2l-.08-.08-.08.08Zm.23-31-.16-.08s-.07,0-.07,0,0,0-.08,0l.08.08A.32.32,0,0,0,18.81,15.38Zm-.08,8.5-.15-.16c0,.05,0,.08,0,.08s0,0,0,.08a.22.22,0,0,1,.08.15ZM18.5,27a2.27,2.27,0,0,0,.62.16c.1,0,.15-.05.15-.16s0-.07-.08-.07a2.23,2.23,0,0,1-.34,0A.36.36,0,0,0,18.5,27Zm.23-5.4c.21,0,.31-.05.31-.16v-.23h-.16A.32.32,0,0,0,18.73,21.64Zm.23-7-.08-.07h-.07a.21.21,0,0,0,.07.15A.07.07,0,0,1,19,14.68Zm-.08,30.05a.69.69,0,0,1,.24.2c.05.07.12.09.23,0a.46.46,0,0,0-.31-.31H19Zm.24-4.94.07-.08a.13.13,0,0,0-.15-.15.32.32,0,0,0-.08.23Zm0,7a4.59,4.59,0,0,1-.08,1,.19.19,0,0,0,.15.08.21.21,0,0,0,.16-.08,1.23,1.23,0,0,0,.15-.54,1.4,1.4,0,0,1-.11-.27A.43.43,0,0,0,19.12,46.82Zm.07-36.54V10.2h-.07C19.12,10.26,19.14,10.28,19.19,10.28Zm.24,11.43a3.29,3.29,0,0,0,.69-1.08v-.31a.13.13,0,0,1-.15-.15.15.15,0,0,0-.12,0,.19.19,0,0,1-.12,0l-.07.15a5.14,5.14,0,0,1-.31,1.08v.08C19.35,21.66,19.37,21.71,19.43,21.71Zm.15-12.59c-.21,0-.26.11-.15.31a.09.09,0,0,0,.15,0C19.73,9.28,19.73,9.17,19.58,9.12Zm.08,17.07v.16l.07-.08C19.73,26.22,19.71,26.19,19.66,26.19Zm.15-10.5a.28.28,0,0,1,0,.15c0,.05,0,.11.12.16S20,16,20,15.84,20,15.69,19.81,15.69Zm.23-.47c.11-.1.16-.18.16-.23v-.07a1.2,1.2,0,0,0-.16-.39.22.22,0,0,1-.15-.08.16.16,0,0,1,0,.12.12.12,0,0,0,0,.11l.12.24C20,15,20,15.07,20,15.22Zm-.15-3.7a.12.12,0,0,0,0,.11.21.21,0,0,1,0,.12l.15-.16q0-.3-.15-.15C19.91,11.44,19.89,11.47,19.89,11.52Zm.39,34.3a.69.69,0,0,0-.39-.78C19.89,45.46,20,45.71,20.28,45.82ZM20,48.36s0-.07,0-.07,0,0,0-.08a.21.21,0,0,1-.07-.15s0,.07,0,.07,0,0,0,.08A.19.19,0,0,0,20,48.36Zm.46-35.61H20.2c-.16,0-.23,0-.23.08a2.52,2.52,0,0,0,.31.69.17.17,0,0,0,0,.12.16.16,0,0,1,0,.12c.1.26.26.28.47.07a.16.16,0,0,1,0-.11s0-.09,0-.2A2.13,2.13,0,0,0,20.43,12.75ZM20,46.2a.37.37,0,0,0,.08.39A.35.35,0,0,0,20,46.2Zm.16-18.92c0-.06,0-.08.08-.08l-.08-.08-.08.08A.07.07,0,0,0,20.2,27.28Zm.54-3.71a.24.24,0,0,0-.16-.08c-.2,0-.25.08-.15.23a.22.22,0,0,0,.15.08C20.58,23.85,20.63,23.77,20.74,23.57ZM20.43,8.12A.07.07,0,0,0,20.51,8h-.08Zm.69.38V7.81L21,7.65l-.08.08C20.58,8,20.66,8.3,21.12,8.5ZM21,15.92a.22.22,0,0,0-.15-.08.21.21,0,0,0-.08.16v.07a.2.2,0,0,1,.11-.07S20.92,16,21,15.92Zm.46-10.51c-.1,0-.15,0-.15.08a.24.24,0,0,1,.08.16l.07-.08Zm.85,1.94a.62.62,0,0,0,.16-.47.32.32,0,0,0-.23-.08c-.11,0-.16,0-.16.08S22.08,7.19,22.28,7.35Zm.78-.93s0-.08,0-.08,0,0,0-.08A.32.32,0,0,1,23.21,6L23,6.19C22.82,6.24,22.85,6.32,23.06,6.42Zm.69-.31h.08L23.75,6Zm2,1.47a.24.24,0,0,0-.08-.16v.16Zm.62,1.23c0-.1,0-.16,0-.19a.35.35,0,0,0,0-.19.27.27,0,0,0-.16-.08c-.05,0-.08.05-.08.15A.22.22,0,0,0,26.38,8.81Zm-.08,39c.1-.1.1-.25,0-.46ZM26.61,14v-.16l-.15.08c0,.05,0,.08.07.08Zm.31-3.94q-.32,0-.39.15A.8.8,0,0,0,26.92,10.05Zm-.23,8.42a.23.23,0,0,0-.16.08,1.46,1.46,0,0,1,.31.38c.21-.2.23-.33.08-.38A.32.32,0,0,0,26.69,18.47Zm.31-6.8c.05-.2-.06-.36-.31-.46C26.69,11.31,26.79,11.47,27,11.67ZM27,47.9l-.08.08.08.08Zm.15-41.33c.1.11.23.08.39-.07V6.34h-.16l-.23.23-.08.08a.07.07,0,0,0,.08.08Zm.15,14.22c-.15.05-.23.2-.23.46s.05.23.16.23.23-.05.23-.15A.71.71,0,0,0,27.3,20.79Zm-.15,21.09-.08.15v.08h.08ZM27.46,43l-.16-.15a.32.32,0,0,0-.23.08l.08.15A.6.6,0,0,0,27.46,43ZM27.15,4a1.09,1.09,0,0,0,.23-.39A.29.29,0,0,0,27.15,4Zm.15,41.79-.07-.08v.08Zm.31-30.59L27.46,15l-.16.16s0,.07,0,.07,0,0,0,.08C27.48,15.2,27.56,15.15,27.61,15.15Zm-.23,13.52-.08.07a4.08,4.08,0,0,0,.47.62c0,.05,0,.08.08.08h.07a.46.46,0,0,0,.16-.35.27.27,0,0,0-.16-.27.63.63,0,0,0-.27-.08A.63.63,0,0,1,27.38,28.67Zm.23,13.9.31.31c.16,0,.23-.05.23-.15s0-.16-.07-.16Zm0,1.39v.16l.08-.08Zm.24-.46v-.08h-.16a.23.23,0,0,1,.08.16Zm.15-39c-.1.1-.15.18-.15.23s0,.15.07.15,0,.07.08,0,.08-.09.08-.19A.62.62,0,0,0,28,4.49Zm.31-1.93v.23h.08a.32.32,0,0,0,.07-.23ZM29,38.94c.11-.1.16-.18.16-.23a.23.23,0,0,1-.08-.16.21.21,0,0,0-.23.24Zm.31,7a.2.2,0,0,1-.07-.11s0-.07-.08-.12c-.1.1-.16.18-.16.23,0,.21.06.26.16.16Zm0-21.09-.15-.07c0,.05,0,.07,0,.07s0,0,0,.08l.08.08Zm.31-1.7h.08c.15-.25.15-.46,0-.61h-.08a.21.21,0,0,0-.15.07A.54.54,0,0,0,29.62,23.1Zm.47-14.83a1,1,0,0,0-.31.7,3.74,3.74,0,0,0,.27-.31.43.43,0,0,0,0-.39A1.39,1.39,0,0,0,30,7.73c0-.15-.08-.2-.23-.15l-.31.15a1.69,1.69,0,0,0,.46.54Zm-.16,36.46H29.7v.08l.08.08Zm0-31.82H30c0-.11,0-.17,0-.2a.12.12,0,0,1,0-.11C29.78,12.65,29.78,12.75,29.93,12.91Zm.77,32.67c-.05-.2-.13-.46-.23-.77a.32.32,0,0,0-.23-.08.14.14,0,0,0-.15.16,1.11,1.11,0,0,1-.16.93s0,.07,0,.07,0,0,0,.08a.64.64,0,0,1,.35-.19A.67.67,0,0,0,30.7,45.58ZM30.09,10.9a.34.34,0,0,0-.08-.47v.16A.6.6,0,0,0,30.09,10.9ZM30.47,40l-.08-.15-.15.07.08.16Zm-.08-3.78a1.29,1.29,0,0,0,.08.38A.24.24,0,0,0,30.39,36.24Zm.24-32.68V3.48l-.08.08a.07.07,0,0,1,.08.08ZM30.55,6v.23l.08.08.07-.15ZM31.4,38.4a.6.6,0,0,0-.62.39c-.1.15-.05.23.16.23s.2,0,.3-.16ZM30.94,4.87s0-.07,0-.07,0,0,0-.08-.07,0-.07-.08l-.08.08s0,.08,0,.08S30.94,4.82,30.94,4.87Zm.15,40.87c-.15.1-.13.23.08.38A.86.86,0,0,0,31.09,45.74Zm0-38.47.08-.08c0-.05,0-.08,0-.08s0,0,0-.07,0,.07,0,.07,0,0,0,.08Zm.31,40.09-.08-.08a.21.21,0,0,0-.23.23v.08c.1,0,.21,0,.31-.15Zm-.08-10.12c0-.05,0-.08-.08-.08h-.07l.07.08Zm.23,10.89c-.1.11-.15.18-.15.23a.16.16,0,0,1,.11,0,.16.16,0,0,0,.12,0,.12.12,0,0,1,0-.11.21.21,0,0,0,0-.12A.24.24,0,0,1,31.55,48.13Zm.16-37.54v.08h.08v-.08Zm.54-4.4c0-.21,0-.31-.16-.31s-.13,0-.23.15a.16.16,0,0,1,0,.12.16.16,0,0,0,0,.11q0,.24.15.24c.15,0,.23,0,.23-.08A.32.32,0,0,0,32.25,6.19Zm.23,41a.27.27,0,0,0-.31-.31c-.26-.11-.38,0-.38.38a.4.4,0,0,0,.07.2.16.16,0,0,0,.23,0Q32.48,47.51,32.48,47.21ZM32,11.05c-.11.21-.11.36,0,.47Zm.31-2.86A.21.21,0,0,0,32.09,8C32,8,32,8,32,8s0,.23.15.23A.23.23,0,0,1,32.33,8.19Z"/><path class="cls-1" d="M47.59,15.59a.2.2,0,0,0,0,.09l0,0h0v0h.08s0,0,0,0a0,0,0,0,0,.06,0,.85.85,0,0,0,.09-.14s0,0,0,0,0,0,0,0V17.4a.38.38,0,0,1-.12.32v.08l0,0h.07c0,.22,0,.42,0,.63a2.43,2.43,0,0,1-.15.62c0-.06-.1-.06-.14,0a.08.08,0,0,0,0,.11.16.16,0,0,1,.08.1,2.47,2.47,0,0,1-.4.73,1.13,1.13,0,0,1-.21.15l-.23.14a1.79,1.79,0,0,1-.39.16l-.42.07a.35.35,0,0,1-.32,0,.09.09,0,0,1-.06,0,1.89,1.89,0,0,1-.64-.17,2.57,2.57,0,0,1-.55-.38.8.8,0,0,1-.21-.15.53.53,0,0,0-.49-.11.21.21,0,0,0-.12.05,3,3,0,0,0-.2.27.12.12,0,0,0-.09,0s0,0,0,0a.52.52,0,0,0,.06.14h-.06a0,0,0,0,0,0,0h.06s0,0,0,0,.06.07.06.15V21.7a.17.17,0,0,0-.12,0v.12l0,0-.05,0-.08-.09s0,0-.06,0v0c0,.1,0,.15.09.17l.07,0,.07,0c.06,0,.09.06.09.08a.42.42,0,0,1,0,.18v1.6a.78.78,0,0,1,0,.22c0,.06,0,.14-.06.22a.29.29,0,0,1-.15.17l-.2,0-.17,0h-1.2a.64.64,0,0,1-.2,0l.09-.09a.09.09,0,0,0-.06,0,.09.09,0,0,1-.06,0l0,.08a.25.25,0,0,0,0,.07s0,0,0,0a.76.76,0,0,1-.36-.12,1,1,0,0,1-.1-.29.2.2,0,0,0,0-.09.17.17,0,0,1,0-.08V22.11a.07.07,0,0,1,0-.05.05.05,0,0,0,0,0h.09A.15.15,0,0,1,41,22a2.84,2.84,0,0,0-.05-.29s0,.06,0,.06l-.07.06a.08.08,0,0,0,0-.05s0,0,0,0V20.51a2.53,2.53,0,0,1,0-.28,2.45,2.45,0,0,0,0-.27.2.2,0,0,0,0-.09.22.22,0,0,1,0-.09V18.47a.13.13,0,0,1,.12-.14v-.06a.4.4,0,0,1-.12-.29V17a.5.5,0,0,1,0-.15l.11-.14a.24.24,0,0,0-.08-.09.1.1,0,0,1,0-.09.59.59,0,0,0,0-.23,2.09,2.09,0,0,1,0-.26h.15a.13.13,0,0,1,0-.1s0-.08,0-.13l-.07,0-.07,0v0s0,0,0-.11V13.3s.08,0,.12,0,.07.05.11,0a1.94,1.94,0,0,0,0,.41q.15,0,.15-.09a.75.75,0,0,0,0-.23L41,13.35a.37.37,0,0,1-.07-.16.43.43,0,0,0-.07-.16h-.06c0-.79,0-1.49,0-2.09V7c0-.63,0-1.17,0-1.62s0-.7,0-.78l.12-.09a.25.25,0,0,0,0-.2l-.05,0h-.09v0a.11.11,0,0,1,0-.13.18.18,0,0,0,0-.16.72.72,0,0,1,0-.26V3.41A1.76,1.76,0,0,0,40.81,3c0-.12.1-.18.2-.18a2.2,2.2,0,0,1,.38,0c.45,0,.9,0,1.37,0h.14c.1,0,.14,0,.12.14h.06c.09-.06.16-.06.2,0a.25.25,0,0,1,.07.12.37.37,0,0,0,0,.11l0,.08,0,.07.11.1a.17.17,0,0,0,.13,0,.57.57,0,0,0,.46-.09.27.27,0,0,0,.1-.08l.11-.1a5.46,5.46,0,0,1,.48-.27,2.91,2.91,0,0,1,.51-.22h.08l.06.06h0a.57.57,0,0,1,.16-.13l.22,0a2,2,0,0,1,.9.24,1.46,1.46,0,0,1,.61.64,1.41,1.41,0,0,1,.2.49l.12.52a1.45,1.45,0,0,1,.06.41v6a.15.15,0,0,1-.09.18l0,.07a.25.25,0,0,1,0,.07v4.22a.26.26,0,0,1-.1.07.17.17,0,0,0-.08.1s0,0-.08.06v-.11a.09.09,0,0,0-.06,0,.05.05,0,0,1,0,0,.06.06,0,0,0,0,0S47.51,15.59,47.59,15.59Zm-6.69,5.5,0,0v0a.05.05,0,0,0,.05,0S40.9,21.11,40.9,21.09ZM41,17.54c0-.1,0-.15,0-.17h0S40.88,17.46,41,17.54Zm-.05,6.55a.19.19,0,0,0,.1,0,.63.63,0,0,0,0-.16C41,23.91,40.93,24,40.9,24.09Zm.08-4v0a0,0,0,1,0,0,.06ZM41,14.2a.18.18,0,0,0-.06.23L41,14.3A.31.31,0,0,0,41,14.2Zm0-5.36c.1,0,.15-.05.15-.11s0-.05-.06-.09a0,0,0,0,1,0,0H41A.14.14,0,0,0,41,8.84Zm.09,9.4A.22.22,0,0,0,41,18c0,.05,0,.09,0,.11Zm0,2.27c-.06.11,0,.2,0,.26a.21.21,0,0,1,.12.2l0,.05s0,0,0,0a.71.71,0,0,0,.06-.19.37.37,0,0,0-.09-.16l0-.07a.17.17,0,0,0,0-.07A.12.12,0,0,0,41.07,20.51Zm.06-.58a.17.17,0,0,0,0-.21A.13.13,0,0,0,41.13,19.93Zm.43-5.33-.14-.14a0,0,0,0,1,0-.07s0-.07,0-.11a.32.32,0,0,1-.12.15l-.1,0s-.06,0-.1.06a.26.26,0,0,1,.07.1.31.31,0,0,0,.08.1c.05.06.09.08.11.06v-.23a.09.09,0,0,1,0-.06.13.13,0,0,1,.07.1C41.44,14.64,41.49,14.64,41.56,14.6Zm-.34,7,.05-.06a.12.12,0,0,0-.14-.14s-.06,0-.06,0v.06Zm0-1.36,0,0,0,0s0,0,0,0S41.2,20.28,41.22,20.28Zm.05,1.77a0,0,0,0,0,0,0l0,0a.35.35,0,0,0-.11-.14A.21.21,0,0,0,41.27,22.05Zm-.05-6c.07,0,.09-.07.05-.15l-.05-.11Zm.11,2.59c-.1.09-.11.16-.06.2a.46.46,0,0,0,.18-.06A.64.64,0,0,1,41.33,18.68Zm-.06-1.28v0Zm.09-3.93.06-.06-.06-.06-.06,0S41.32,13.43,41.36,13.47ZM41.39,3a0,0,0,0,1,0,0l0,0,0,0A0,0,0,0,0,41.39,3Zm.12,7.68s0-.07,0-.08a.05.05,0,0,0,0,0,0,0,0,0,0,0,0,0,0,0,0,1,0,0s-.06.07-.06.09Zm0-6.32h-.06s0,0,0,0l0,0Zm0,5.85v0a.64.64,0,0,1,.2,0,1.13,1.13,0,0,1,.09-.2l0,0a0,0,0,0,0-.06,0l-.09.08-.06,0Zm0,3.64h0v0h0Zm.05,4,0,0V18l.05,0s0,0,0,0S41.56,17.88,41.56,17.86Zm.06.35a0,0,0,0,1,0,0v.06Zm.09.38q0-.12-.12-.12A.11.11,0,0,0,41.71,18.59Zm.06-4.77q0-.12-.09-.12l0,0,0,0a.05.05,0,0,0,.06.06Zm-.15,5.41v0h0A0,0,0,0,0,41.62,19.23Zm.24,1.86c0-.1-.08-.18-.12-.26a.39.39,0,0,1,0-.26l-.06.05v.09a.3.3,0,0,0,0,.21l.1.17Zm-.15-8.64a1.55,1.55,0,0,1,0,.22.36.36,0,0,0,0,.22l.06-.06a1,1,0,0,0,0-.29Q41.83,12.45,41.71,12.45Zm.06,9.45,0,0,0,0,0,0Zm.17-8.69-.06-.06s-.05,0-.05.06v0s0,0,0,0l0,0ZM42,18.27l-.09-.09c-.06-.06-.08,0-.08.06s0,.09,0,.09Zm-.17,4.13.08.26a.47.47,0,0,1,.09-.12.42.42,0,0,0,.12-.08s0,0,.05,0,0,0,0-.06-.06-.05-.08,0a.12.12,0,0,1-.09,0A.49.49,0,0,1,41.86,22.4Zm0-6v0h0v0ZM42,19.2v0l.09-.07.09-.08a1.49,1.49,0,0,0,0,.19.3.3,0,0,1,0,.16.36.36,0,0,0,0,.27l.16.23.09-.09c.07,0,.12,0,.14,0a1.65,1.65,0,0,0,.09.21.14.14,0,0,0,.1-.08l0-.1a.35.35,0,0,1,0-.13.15.15,0,0,0,0-.13.34.34,0,0,1,0-.23c.1,0,.16.05.18,0a.32.32,0,0,0,.09-.13.1.1,0,0,0,0,0l.06.05.06-.12s0,0,0-.07,0-.06,0-.08a.14.14,0,0,0,0,.15.14.14,0,0,1-.07-.06.18.18,0,0,0-.08-.06L43.09,19a.36.36,0,0,0-.07-.09A.05.05,0,0,1,43,19s-.06,0-.06,0,0-.09.06-.09a.09.09,0,0,0,.06,0q.12-.06.06-.15c0-.05-.08-.07-.12-.05l-.09.05-.08.06q-.09.06-.15,0s0,0,0-.11a.32.32,0,0,0,0-.16,1,1,0,0,0-.05-.16c-.08,0-.1.05-.08.1a.24.24,0,0,1,0,.16h-.15l-.17,0a0,0,0,0,1,0,0,.2.2,0,0,1,0,.08.23.23,0,0,0,0,.09h.14a.26.26,0,0,1,0,.07.27.27,0,0,0,0,.08s0,0,0,0A.5.5,0,0,0,42,19a.2.2,0,0,0,0,.09.22.22,0,0,1,0,.09s-.06,0-.06,0a0,0,0,0,1,0,0Zm-.06,1.42a.08.08,0,0,0,0,.12,0,0,0,0,0,.06,0,0,0,0,0,1,0,0A.08.08,0,0,0,41.94,20.62Zm0-3s0,.1,0,.17,0,.07.06,0a.09.09,0,0,0,0-.06l0,0s0,0,0,0-.06-.07-.06-.09l.05,0h0v-.06H42A.12.12,0,0,0,42,17.63Zm0,2.79h0a0,0,0,0,0,0,0Zm0,1.14-.06,0,0,.06s0,0,0,0,0,0,0,0,0,0,0,0S42,21.57,42,21.56Zm0,2.21v0h0v0Zm.09-6.55h.06a.34.34,0,0,1,.14-.32.32.32,0,0,0,.1-.19,1.54,1.54,0,0,0,0-.24c-.06,0-.09.06-.09.08l-.09.18a.45.45,0,0,1-.14.2S42,17,42,17A1.81,1.81,0,0,0,42.09,17.22Zm0-9.57h0v.06l0,0Zm0-1.63v.06a0,0,0,0,0,0,0V6.05Zm.06,8.7a0,0,0,0,0,0,0,.14.14,0,0,0,0-.12l0,0h0c-.06,0-.07.06,0,.14A0,0,0,0,1,42.12,14.72Zm.11-11.11,0-.06-.06.06a.05.05,0,0,1,.06.06Zm0,18.09-.06,0,0,.06,0,0V21.7l0,0h0l0,0Zm.14-8.61c0-.11-.06-.16-.06-.14s0,0-.08,0,0,0,0,0Zm-.06,4.54a.12.12,0,0,0,0-.09s0,0,0,0,0,0,0,0,0,0,0,0,0,0,0,0Zm.09-2.1q-.15,0-.09.12s0,.06.09.06.06,0,.06-.09,0,0,0,0A.05.05,0,0,1,42.35,15.53Zm-.06,6.75v0h0v0Zm.06-3.87s0,0,0-.05,0,0,0,0a.05.05,0,0,0,0,0s0,0,0,0h0s0,0,0,0S42.35,18.43,42.35,18.41Zm.12-3.11s0-.06,0-.06,0,0,0,0l-.06-.11v-.18l-.06,0a.33.33,0,0,0,0,.15.17.17,0,0,0,0,.1Zm-.06,5.44v0h-.06a.09.09,0,0,1,0,.06ZM42.47,22a.09.09,0,0,0-.06,0,0,0,0,0,0,0,0Zm.08-6.17,0,0,0,0s0,.06,0,.06A.09.09,0,0,0,42.55,15.85Zm0-2a.14.14,0,0,0,0,.17l.06,0,.06,0C42.64,13.9,42.61,13.84,42.55,13.82Zm0,6.89v-.06s0,0,0,0h0v0Zm0-1.22a.12.12,0,0,1,0,.09.09.09,0,0,1,0,.06Q42.52,19.58,42.61,19.49Zm.21-16.14a.05.05,0,0,1,0,0l0,0-.06-.06a.26.26,0,0,0-.14,0s-.06,0-.06,0,0,.06,0,.06a.09.09,0,0,0,.06,0Zm0,2s0,0,0,0l-.06,0v.06a0,0,0,1,0,.09,0Zm-.06,16h.06s0,0,0,0a.08.08,0,0,0,0-.05,0,0,0,0,0,0,0h-.06Zm0-13a.14.14,0,0,0,.11,0V8.26h0a.05.05,0,0,0,0,0S42.74,8.3,42.76,8.38Zm.06,6.19,0,0,0,0,0,0Zm0-1.42-.05.06,0,0,0,0v-.06A.09.09,0,0,0,42.84,13.15Zm.06,2.15a.71.71,0,0,0,0-.23.05.05,0,0,1,0,0l0,0a.81.81,0,0,0,0,.16.69.69,0,0,1,0,.13l0,0s0,0,0,0h0ZM43,23.48h-.2v.05s0,0,.08.06a.27.27,0,0,1,.12,0Zm-.15-5.73,0,0a.19.19,0,0,0,0-.15h0s0,.07,0,.15S42.84,17.73,42.84,17.75ZM43,13.53a.22.22,0,0,0,0,.14.27.27,0,0,0,0,.12c-.08,0-.11.09-.1.14a.37.37,0,0,1,0,.18s0,.06,0,.06.06,0,.06,0A.73.73,0,0,0,43,13.53Zm-.09,6.86,0,0h0v0Zm0-5.7c-.1.06-.09.16,0,.29a.14.14,0,0,0,0-.16A.38.38,0,0,1,43,14.69Zm.06-3-.09,0,0,0,0,0Zm-.12,6.51,0,0,0,0v.06Zm.21-2.59h0a0,0,0,0,0,0,0h.06Zm.08,5.67c-.07,0-.1-.05-.08-.05a.07.07,0,0,0-.06,0l.06.06h0Zm0-2.79s0,0,0,0a.09.09,0,0,0,0,.06.09.09,0,0,1,.06,0A.07.07,0,0,1,43.16,18.5Zm-.08,1.95a.45.45,0,0,0,.06.26.14.14,0,0,1,0-.09A.2.2,0,0,0,43.08,20.45Zm0,1.89,0,0,0,0v-.06Zm0-18.5a.21.21,0,0,1,0,.09.21.21,0,0,0,0,.09A.17.17,0,0,0,43.28,4,.11.11,0,0,0,43.16,3.84Zm0,18.18h0l0,0Zm.23-4.89a.66.66,0,0,0,0,.15.5.5,0,0,1,0,.12,1.17,1.17,0,0,0,.07.46.89.89,0,0,0,.31.35l.1.06a.17.17,0,0,0,.1,0,1.07,1.07,0,0,0,.35.06.87.87,0,0,0,.32-.06.7.7,0,0,1,.17-.09.29.29,0,0,0,.15-.14v0a.75.75,0,0,0,.23-.53v-.32a1.66,1.66,0,0,1,0-.32.69.69,0,0,0,0-.13.14.14,0,0,1,0-.13v-.09a.79.79,0,0,1,0-.26V5.94a1.37,1.37,0,0,0,0-.19,1.28,1.28,0,0,1,0-.19.91.91,0,0,0-.44-.7.57.57,0,0,0-.46-.13,1,1,0,0,0-.5.13,1,1,0,0,0-.4.79v6.89a1,1,0,0,1,0,.26.57.57,0,0,0,0,.26,2.57,2.57,0,0,1,0,.48,2.9,2.9,0,0,0,0,.51.3.3,0,0,1,0,.1.34.34,0,0,0,0,.1,0,0,0,0,1,0,0l-.09-.08-.11.11v.12h.26a1.17,1.17,0,0,0,0,.29l0,.06a.45.45,0,0,1,.06.2v1.43a.43.43,0,0,1,0,.11.49.49,0,0,0,0,.12s-.06,0-.06,0a.1.1,0,0,0-.09.06c.14,0,.19.1.15.26a.69.69,0,0,0-.21.14s0,0,0,0,0,0,0,0,0,0,.06,0A.25.25,0,0,0,43.37,17.13Zm-.23-3.2s0,0,0,0v-.12h0s0,.06,0,.12Zm.14,3.67a.14.14,0,0,0-.06-.07.18.18,0,0,1-.06-.08Q43.13,17.57,43.28,17.6Zm-.09-4a.84.84,0,0,0,.06-.18s0-.05-.09-.09A.91.91,0,0,1,43.19,13.59Zm0,4.82a.1.1,0,0,1,.09,0s0,0,.09,0,0,0,0-.05a.09.09,0,0,0,0-.07.17.17,0,0,0-.12,0S43.19,18.3,43.19,18.41Zm.09-2.5a.09.09,0,0,0,0,.05l0,0,.06,0s0,0,0-.06A.09.09,0,0,0,43.28,15.91Zm0,3.49h0l0,0Zm.61-1,0,.05v0h.06S43.88,18.4,43.86,18.39Zm.09.32a.59.59,0,0,0,.23-.12s0,0,0-.05a.11.11,0,0,0,0-.07.14.14,0,0,1-.11,0,.24.24,0,0,1-.08.09.22.22,0,0,0-.07.09l0,0Zm.52.23v.14a.33.33,0,0,0,0,.15.05.05,0,0,1,0,0s0,0,0,.08a.19.19,0,0,0,.1,0l0-.07A.24.24,0,0,0,44.47,18.94Zm.88-1,0,0a0,0,0,0,0,0,0v0A.09.09,0,0,0,45.35,17.92Zm.08-2.56a.25.25,0,0,0-.11.23l.13-.07S45.45,15.46,45.43,15.36Zm0-5.53h0v0Zm0-.61h0v0A0,0,0,0,0,45.49,9.22Zm.2,2.07,0-.06v-.06l0,0Zm0,.2v.18a.7.7,0,0,0,.12-.18Zm.18-8.64-.06,0-.06.06a.09.09,0,0,0,.06,0ZM45.81,13a.57.57,0,0,1,0,.13.78.78,0,0,0,0,.14.09.09,0,0,0,.06,0h0a0,0,0,0,0,0,0,.22.22,0,0,1,0-.09.14.14,0,0,0,0-.06A.11.11,0,0,0,45.81,13Zm.12-3.57,0,0,0,0a0,0,0,0,1,0,0l.06.06A.09.09,0,0,0,45.93,9.43Zm-.06-1.31,0,0h-.06A0,0,0,0,1,45.87,8.12Zm0,4.16h0v.08h0Zm.29,4.85a.08.08,0,0,1-.1,0,.1.1,0,0,0-.13,0,.61.61,0,0,0,.08.32l.06.05a.64.64,0,0,1,.08-.14A.26.26,0,0,0,46.16,17.13Zm.09-12.68.06-.06-.06-.08a.35.35,0,0,1-.06-.09A.14.14,0,0,0,46,4.13s0,0,0,0v.06s.06.06.08.06A.4.4,0,0,1,46.25,4.45Zm-.09,14.11.07,0,.08-.05s0,0,0,0,.07-.06,0-.14a.12.12,0,0,0-.14,0c-.06.06-.15.05-.26,0a1.6,1.6,0,0,1,.07.19A.2.2,0,0,0,46.16,18.56ZM46,10.36c0,.06,0,.12,0,.2A.25.25,0,0,0,46,10.36Zm.12,9.22c0,.06,0,.1,0,.14A.17.17,0,0,0,46.16,19.58Zm.06-3.43-.06,0,0,0s0,0,0,0,0,0,0,0ZM46.16,5.38a2.21,2.21,0,0,0,.09.24s0,.06.06,0a.67.67,0,0,1,0-.18l.07-.14c-.06-.06-.09-.09-.11-.09S46.22,5.29,46.16,5.38Zm.06,5.56,0,0h0v0Zm0-1.57v0l0,0,0,0Zm0,7.18v-.06a0,0,0,0,0,0,0v0Zm.08-2.18,0,.06c0,.06,0,.09.08.09l0-.06a.09.09,0,0,1,0-.05Zm.12,2.33,0,.06a.09.09,0,0,0,.06,0l0,0Zm.23-4.95a.09.09,0,0,0,.06,0l.06,0,.06-.16.06,0q-.06-.09-.12-.09h-.12a.11.11,0,0,0-.11.09.09.09,0,0,0,0,.06.2.2,0,0,1,0,.08.09.09,0,0,0,0,.06,0,0,0,0,0,.06,0S46.64,11.79,46.68,11.75Zm0,7.8a.17.17,0,0,0-.11-.12C46.55,19.51,46.59,19.55,46.68,19.55Zm.09-8.93h0ZM47,18.56s-.07-.06-.09-.06-.06,0-.06.09l0,0ZM46.92,8h0a.29.29,0,0,0,0-.12l0,0-.06,0A.17.17,0,0,0,46.92,8ZM47,16.9a.49.49,0,0,0,0-.2l0,0s-.06,0-.06,0v.11S46.93,16.82,47,16.9Zm-.08-7.68v.06h0l0,0Zm.2,3.73s-.06-.07-.06-.09a.05.05,0,0,0-.06.06s0,0,0,0,0,0,0,0h0Zm-.06-.29s-.06,0-.06,0l0,0a0,0,0,0,0,0,0Zm0,6a.09.09,0,0,1-.06,0s0,.05,0,.05.06,0,.06,0,0,0,0,0S47.06,18.7,47.06,18.68Zm.15-8.53.06,0a.16.16,0,0,0,0-.11h0q-.09,0,0,.09S47.19,10.13,47.21,10.15Zm0-3.43,0,0h-.06A0,0,0,0,1,47.21,6.72Zm0,10v.08s0,0,.06,0v-.08A.09.09,0,0,1,47.21,16.76Zm.14.9q.12-.06.12-.15v-.06h-.09l-.06.06Q47.22,17.57,47.35,17.66Zm0-2s-.06,0-.06.09v0a0,0,0,0,0,.06,0,.12.12,0,0,0,0-.09Zm0-6.95a.28.28,0,0,0,.12-.23C47.34,8.52,47.3,8.59,47.32,8.67Zm.12,1.89-.06-.06s0,0,0,0h0l0,.06h0Zm-.09,5.76a.12.12,0,0,0,.06-.15h0a.12.12,0,0,0-.06.12Zm.15-1.72h0s0,.07,0,.09h0a.05.05,0,0,0,.06-.06Zm0,3.15,0,0v.05S47.47,17.76,47.47,17.75Zm.17-3.64s-.07.08,0,.12h0S47.66,14.17,47.64,14.11Zm.06.29h-.11c0,.1.07.15.11.15Zm.09-2.7s0-.06,0-.06l0,0a.09.09,0,0,0,0,.06c0,.07,0,.09.06.05Z"/><path class="cls-1" d="M34.62,6.82a.17.17,0,0,1-.12-.06.61.61,0,0,1,0-.27,2.13,2.13,0,0,1,.09-.27c0-.06,0-.11.13-.16l.12,0L35,6a.59.59,0,0,0,.21-.15.59.59,0,0,0,.24-.54V3.36a1.28,1.28,0,0,1,.06-.45.32.32,0,0,1,.22-.25,1.69,1.69,0,0,1,.39-.06h1.4a.66.66,0,0,1,.21,0l.18,0a.32.32,0,0,1,.22.22,2.53,2.53,0,0,1,.06.45V5.46a.68.68,0,0,0,.15.27l.18.17a.53.53,0,0,0,.24.1l.08,0h0a.4.4,0,0,1,.28.28,1.48,1.48,0,0,0,0,.2,1.37,1.37,0,0,1,0,.19,1.89,1.89,0,0,1,0,.67,2.75,2.75,0,0,1-.06.43c0,.1-.07.17-.22.21l-.27.09a.61.61,0,0,0-.45.64v2.08s0,.09-.09.13-.08.15,0,.21a.38.38,0,0,1,.06.19v.88a.31.31,0,0,0,0,.1.14.14,0,0,1,0,.11.15.15,0,0,0,0,.18v3.71c0,.1,0,.21,0,.33a1.19,1.19,0,0,1,0,.33v4a.88.88,0,0,1,0,.21,1,1,0,0,0,0,.22,1,1,0,0,0,.57.76l0,0a.37.37,0,0,1,.28.39l-.09.09a.35.35,0,0,0-.1-.12.3.3,0,0,0-.06.14,1,1,0,0,0,.06.22l.25-.09v.58l-.17.18a.37.37,0,0,0-.08.25.17.17,0,0,0,.19.12.33.33,0,0,1-.15.27,1.21,1.21,0,0,1-.52.06.12.12,0,0,1-.12-.09l-.09.06a.12.12,0,0,1-.09,0,.44.44,0,0,1-.19,0,.61.61,0,0,0,0-.27l-.1,0-.11,0-.06.1-.09.11a.91.91,0,0,0-.27,0,.28.28,0,0,0-.13,0l-.12,0a1.17,1.17,0,0,1-.18-.49.24.24,0,0,0-.09.22.35.35,0,0,0,.06.09.35.35,0,0,1,.06.09h-.09L36.52,24a1,1,0,0,1-.26-.16l-.12-.12L36,23.61a2.7,2.7,0,0,1-.42-.85.46.46,0,0,1,0-.27.14.14,0,0,1-.06-.12.28.28,0,0,0,0-.12,2.69,2.69,0,0,1,0-.46,2.3,2.3,0,0,1,0-.58c0-.18,0-.37,0-.57v-.19s.07,0,.1,0,.05.06.09,0a.71.71,0,0,0,.06-.19.5.5,0,0,0,0-.14.48.48,0,0,1,.21-.55h0l0,0q.15-.15,0-.21a.09.09,0,0,0-.06,0l-.09,0-.09.09a.47.47,0,0,0-.12-.09.22.22,0,0,0,0,.14.28.28,0,0,1,0,.13l-.06-.06V17.33a.71.71,0,0,0,0-.14.16.16,0,0,1,0-.14s0,0,0-.06a.54.54,0,0,1,0-.27c0-.08,0-.17,0-.27s0-.13,0-.15a.14.14,0,0,1,0-.13.49.49,0,0,0,0-.12V12.83a.53.53,0,0,1,.06-.24.24.24,0,0,0,0-.27.62.62,0,0,1,0-.24V8.71A.66.66,0,0,0,35,8.1a.85.85,0,0,1-.34-.17.8.8,0,0,1-.09-.35,1.39,1.39,0,0,1,0-.27V7.07A.7.7,0,0,1,34.62,6.82Zm.46.37h0a.53.53,0,0,1-.24.33.12.12,0,0,0-.09,0s0,.08,0,.12a0,0,0,0,0,0,0h0s.07,0,.1,0a.11.11,0,0,0,.11,0V7.58l0-.06,0-.06A.44.44,0,0,0,35.08,7.19Zm.55,13.54s-.06,0-.06,0,0,0,0,0,0,0,0,0l0,0Zm0-8.65c.08-.07.08-.12,0-.16Zm0,9.29v.09a.09.09,0,0,0,0,.06h0v-.09Zm.21-7.59c0-.07-.07-.1-.09-.1l-.06.07a.05.05,0,0,0,.06.06.05.05,0,0,0,0,0Zm.09,5.16v-.31l-.15-.06s0,0-.09.06a.38.38,0,0,0,.09.15Zm-.18-5.53v0a0,0,0,0,0,0,0Zm0,2.22v0h0A0,0,0,0,0,35.75,15.63ZM35.87,3.7h-.06l0,0s0,0,0,0,0,0,0,0A.09.09,0,0,1,35.87,3.7ZM36,6a.38.38,0,0,0-.21.19l0,0h0l.09-.09A.4.4,0,0,0,36,6Zm-.15.7,0,0a0,0,0,0,0,0,0h.06Zm.09,15.55a.19.19,0,0,0-.15.12.09.09,0,0,0,0,.06,0,0,0,0,0,.06,0Q36,22.46,35.93,22.28ZM36,12c-.14.09-.19.18-.15.28s0,.15,0,.21.07.11.17.15a.1.1,0,0,1,0-.07s0,0,0-.08a.46.46,0,0,1-.18-.06c0-.06,0-.12,0-.18S36,12.06,36,12Zm0,10.08S36,22,36,22L35.9,22s0,0,0,0h0Zm-.12-4.58v0l0,0ZM36,21.12l0,0,0,0,0,0A0,0,0,0,1,36,21.12Zm0-6.86,0,0v.06A0,0,0,0,0,36,14.26Zm.12-2.94h0v0Zm.15,8.19c-.16.08-.18.17-.06.25a.31.31,0,0,1,0,.3.49.49,0,0,1,0,.12.61.61,0,0,0,0,.15,2,2,0,0,1,.19-.3.93.93,0,0,1,0-.27A.43.43,0,0,0,36.26,19.51ZM36.14,7.64a.27.27,0,0,1,0,.08.44.44,0,0,0,0,.08h.08a.05.05,0,0,0,0,0,.08.08,0,0,1,0,0,.07.07,0,0,0,0,0,1,1,0,0,0-.12-.42.31.31,0,0,1,0,.18A.2.2,0,0,1,36.14,7.64Zm.18,11.24-.12-.06s-.06,0-.06.09a.09.09,0,0,0,.06,0Zm-.09,1.6a.33.33,0,0,0-.09.22h.06a0,0,0,0,0,0,0Zm0-17,0,0s0,0,0,0h.06Zm0,10h0a0,0,0,0,0,0,0h0A0,0,0,0,0,36.23,13.5Zm0-9.65a.8.8,0,0,0-.06.3l.06.12a.69.69,0,0,0,.06-.21A.69.69,0,0,0,36.26,3.85Zm.06,19.34a.27.27,0,0,0,0,.12h.06c.07,0,.08,0,0-.06Zm0,.27,0,0A0,0,0,0,0,36.29,23.46Zm.16-12.36q.18,0,.12-.18h0s0,0,0,0l-.06,0Q36.39,11,36.45,11.1Zm0,7.72h0l0,0Zm.09-14a.61.61,0,0,0,0,.12.56.56,0,0,1,0,.12l0,.06h.09A.17.17,0,0,0,36.63,5Q36.69,4.88,36.54,4.85Zm.21,18.4a.25.25,0,0,1,0,.07.56.56,0,0,0,0,.08s-.06.07-.06.09,0,.12,0,.12.19-.13.2-.17S36.81,23.35,36.75,23.25Zm0-19.16h-.06a.31.31,0,0,0,0,.34.27.27,0,0,0,.09-.34L36.84,4l0,0h0A.17.17,0,0,1,36.75,4.09Zm-.06-1.15h0l0,0Zm0,1.7s0,0,0,0,0,0,0,0l0,0a.09.09,0,0,0,0,.06A0,0,0,0,1,36.72,4.64Zm0,4.07,0,0v0l0,0Zm0,3s0,0,0,0,0,0,0,0,0,0,0,0a0,0,0,0,1,0,0l0,0S36.74,11.68,36.73,11.68Zm0,5.77a.22.22,0,0,0,0,.2.51.51,0,0,1,.09.16.12.12,0,0,0,.09,0l0,0a.24.24,0,0,0,0-.15q-.15-.06-.09-.24a.08.08,0,0,1,0-.05s0,0,0,0,0,0-.06-.09a.05.05,0,0,0-.06.06A.24.24,0,0,0,36.75,17.45Zm0-8.93v0a0,0,0,0,0,0,0v0Zm0,3.37,0,0v.13q0,.09.06,0a0,0,0,0,0,0,0v0A.17.17,0,0,0,36.78,11.89Zm0-2.39c.06-.07.08-.11.06-.13S36.76,9.43,36.78,9.5Zm.09,11.59V21s0,0-.06,0l0,0s0,.07,0,.08,0,0,0,0Zm0-13.87s0,0,0,0a.08.08,0,0,0,0,0s0,.07.09.09l0,0a.07.07,0,0,0,0-.12s0,0,0,0S36.88,7.22,36.84,7.22Zm0,1.91V9.07a.09.09,0,0,0,0,.06,0,0,0,0,0,0,0Zm0,13.93.12-.06a.13.13,0,0,0,.15-.15.62.62,0,0,0,0-.24,1.09,1.09,0,0,0,0-.18,1.1,1.1,0,0,1,0-.18.68.68,0,0,1,0-.14.71.71,0,0,0,0-.14.12.12,0,0,0,0-.09,0,0,0,0,0,0,0,.09.09,0,0,0-.06,0,.19.19,0,0,0,0,.17.3.3,0,0,1-.05.2,0,0,0,0,0,0,.06.09.09,0,0,1,0,.06v.3a1,1,0,0,1,0,.24A.18.18,0,0,0,36.81,23.06Zm.12-5L37,18A.05.05,0,0,0,36.9,18a0,0,0,0,0,0,0,.09.09,0,0,0,0,.06s0,0,.06,0-.05.07,0,.09a.1.1,0,0,1,0,.12.25.25,0,0,0,0,.24H37q.12-.06.06-.12a.05.05,0,0,1,.06-.06.11.11,0,0,0,.1-.06v-.06a.65.65,0,0,0,0-.21h0l-.06.18L37,18.13ZM37,5.37l0,0h0Zm.06,11q-.12.39.06.48a.58.58,0,0,0,0-.24A1.78,1.78,0,0,0,37.05,16.33Zm.06-13.18-.06,0h0l0,.06A.09.09,0,0,0,37.11,3.15Zm0,7.26,0,0v.09a.12.12,0,0,1,.09,0,.09.09,0,0,1,0-.05Zm.09,5.34,0,0s0,0,0,0,0,0,0,0,0,0,0,0,0,0,0,0A0,0,0,0,1,37.17,15.75Zm.1-6a.11.11,0,0,0,0-.18A.1.1,0,0,0,37.27,9.77Zm.09,5.13q.09,0,.09-.18h-.06a.1.1,0,0,0-.09.06.06.06,0,0,0,0,.09A0,0,0,0,0,37.36,14.9Zm0,2a0,0,0,0,1,0,0l0,0,0,0ZM37.6,18s0,0-.06,0a.06.06,0,0,1-.06,0,.17.17,0,0,0-.12,0,.12.12,0,0,0,0,.16l.18.09.12-.06a.27.27,0,0,1,0-.08Zm-.15-2c0-.1,0-.16,0-.18s-.06,0-.16-.06A.24.24,0,0,0,37.45,15.93ZM37.36,3.54v0l0,0Zm0,12.73c0-.05,0-.07,0-.08a.08.08,0,0,0,0-.05,0,0,0,0,1,0,0s0,0,0,0,0,0,0,0v0A.13.13,0,0,0,37.39,16.27Zm0,1.45v0s0,0,0,0,0,0,0,0l0,0A0,0,0,0,0,37.36,17.72Zm.12,2.43-.09-.09,0,.06,0,.06Zm0-.27,0,.06s0,0,.06,0l0,0Zm0-16.58a0,0,0,0,0,0,0h0Zm.15,16.82a.47.47,0,0,0-.12.09.08.08,0,0,0,0,.12.13.13,0,0,1,.1-.07C37.67,20.25,37.67,20.2,37.63,20.12Zm.09-2.56s0,0,0,0l0,0a.09.09,0,0,1,.06,0l0,0S37.72,17.55,37.72,17.56Zm.06,6.14a.07.07,0,0,1,0,.05.05.05,0,0,0,0,0l0,0a0,0,0,0,0,0,0s.06,0,.06-.06S37.84,23.72,37.78,23.7Zm0-17.09.18.27h0s.07,0,.07,0V6.61a.5.5,0,0,0,0-.12.5.5,0,0,1,0-.12q0-.15-.09-.15s-.06,0-.12.09a.09.09,0,0,1,0,.06Q37.93,6.46,37.78,6.61Zm.06,12h0s0,0,0,.06l0,0a.09.09,0,0,0,0-.06Zm.25-8.83H37.9q-.09.06-.09.09t.09.06A.9.9,0,0,1,38.09,9.74Zm-.28,4.43h0v0Zm0,2.67v0l0,0Zm0-7.62v.06h0s0,0,0,0A.09.09,0,0,0,37.84,9.22ZM38,5.52s0,0,0,0l0,0a.09.09,0,0,0,0,.06l0,0S38,5.52,38,5.52Zm.14,6.65a.2.2,0,0,0,0-.09.15.15,0,0,1,0-.07,0,0,0,0,0,0,0L38,12a.14.14,0,0,0,0,.19A.41.41,0,0,1,38.09,12.17ZM38,17.69l0,0,0,0a.09.09,0,0,0,0-.06Zm.13-7.59A.18.18,0,0,0,38,10s0,0,0,0,0,0,0,0l0,.06A.18.18,0,0,0,38.12,10.1Zm.15,12.21q-.15.06-.06.27A.49.49,0,0,0,38.27,22.31Zm.12,1.24q.09-.09.09-.12t0-.09a.17.17,0,0,0-.12,0v.09A.53.53,0,0,0,38.39,23.55Zm0,0,0,0h0Zm.06-1.46,0,0a0,0,0,1,0,0,.06A0,0,0,0,1,38.42,22.12Zm.21,1.64s0,0,0,0,0,0,0,0l.06,0,0-.06a.05.05,0,0,0-.06-.06.09.09,0,0,1-.06,0Zm.15-.54,0,0v-.06l0,0Zm.37.63a.09.09,0,0,1,0-.06v-.06l0,0Z"/></svg>