<svg id="Слой_1" data-name="Слой 1" xmlns="http://www.w3.org/2000/svg" viewBox="0 0 50 50"><defs><style>.cls-1{fill:#eff4f9;}.cls-2{fill:#dcefef;}.cls-3{fill:#e7e2f2;}.cls-4{fill:#c3cee4;}.cls-5{fill:#cae6e7;}.cls-6{fill:#d6d0e9;}.cls-7{fill:#b3dcdd;}.cls-8{fill:#c1badd;}.cls-9{fill:#a6c2d9;}.cls-10{fill:#9dd4d2;}.cls-11{fill:#aaaad5;}.cls-12{fill:#a197ca;}.cls-13{fill:#8d85be;}.cls-14{fill:#8170b1;}.cls-15{fill:#61519d;}.cls-16{fill:#6d56a0;}</style></defs><path class="cls-1" d="M26.34,48.6a5.25,5.25,0,0,0-1.19,0c-.72,0-1.45,0-2.17-.08a21.68,21.68,0,0,1-2.65-.38,28.56,28.56,0,0,1-3-.81,20.49,20.49,0,0,1-2.28-.92A25.55,25.55,0,0,1,12.4,45a27.24,27.24,0,0,1-2.47-1.79,23.6,23.6,0,0,1-2.25-2.11,24.21,24.21,0,0,1-2.29-2.87,20.64,20.64,0,0,1-1.2-2c-.32-.63-.65-1.25-.92-1.9s-.45-1.12-.64-1.7A22.75,22.75,0,0,1,2,30.24a24.42,24.42,0,0,1-.4-2.42c0-.45-.1-.9-.13-1.35,0-.12,0-.24,0-.36,0-.35,0-.69,0-1,0-.6.07-1.2.11-1.79.05-.81.19-1.61.31-2.41.06-.45.18-.89.28-1.33.19-.76.42-1.51.68-2.25a24.09,24.09,0,0,1,1-2.29,19.49,19.49,0,0,1,1.4-2.48,18.21,18.21,0,0,1,1.54-2.07c.26-.3.5-.63.78-.9.51-.49,1-1,1.51-1.47a22.6,22.6,0,0,1,2.15-1.64,7.18,7.18,0,0,1,1-.64c.3-.13.57-.34.86-.48.47-.24.94-.46,1.42-.67s.86-.3,1.28-.44a2.66,2.66,0,0,1,.83-.16,2.58,2.58,0,0,0,.39,0,1.65,1.65,0,0,1,1,.28.41.41,0,0,1,.26.31.63.63,0,0,1,0,.43.21.21,0,0,0,0,.06c.12.19,0,.39,0,.58a4.16,4.16,0,0,1-.15,1c0,.26-.07.51-.07.77,0,.64,0,1.28,0,1.91a10.36,10.36,0,0,0,.19,1.57c.05.36.14.71.2,1.06a2.17,2.17,0,0,0,.22.6,6.54,6.54,0,0,1,.44,1,3.24,3.24,0,0,0,.4.57s.08.08.08.12.1.15.22.16.3,0,.29.23a.08.08,0,0,0,.1.08c.15-.06.28,0,.43,0a1.18,1.18,0,0,0,.58-.26c.74-.47,1.33-1.12,2.06-1.6.3-.19.58-.41.86-.62s.83-.59,1.26-.85a14.84,14.84,0,0,1,1.32-.79c.18-.09.35-.2.52-.3a19.26,19.26,0,0,1,1.77-.86c.2-.08.39-.18.58-.27.69-.32,1.41-.57,2.13-.83.28-.1.55-.22.84-.31s.79-.21,1.19-.32a2.82,2.82,0,0,0,.92-.28.64.64,0,0,1,.55-.12c.17,0,.4-.12.62-.15a4.86,4.86,0,0,1,.54,0,4.6,4.6,0,0,1,.66.07,3.83,3.83,0,0,0,.68.08.91.91,0,0,1,.62.28.32.32,0,0,0,.29.07.35.35,0,0,1,.33,0c.37.17.74.34,1.09.54a1.83,1.83,0,0,1,.48.39s0,0,.06.06a3,3,0,0,1,1.12.81c.33.29.67.56,1,.88a23.7,23.7,0,0,1,1.61,1.85c.27.36.55.72.84,1.07a6,6,0,0,1,.5.8,16.25,16.25,0,0,1,.92,1.63c.34.77.71,1.53,1,2.33a15.29,15.29,0,0,1,.55,1.7,22.06,22.06,0,0,1,.49,2.42c.1.78.18,1.57.23,2.35a16,16,0,0,1,0,2.19c0,.49,0,1-.13,1.48-.1.69-.18,1.4-.33,2.09a29.39,29.39,0,0,1-.82,2.92,17.24,17.24,0,0,1-.71,1.8,22.82,22.82,0,0,1-2,3.55,20,20,0,0,1-1.54,2c-.5.56-1,1.12-1.57,1.64s-1,.91-1.54,1.33a23.3,23.3,0,0,1-3.21,2.1,25.86,25.86,0,0,1-3.34,1.54c-.57.21-1.15.37-1.73.55a19,19,0,0,1-2.35.53,14.23,14.23,0,0,1-1.84.23C27.14,48.49,26.75,48.56,26.34,48.6Zm2.23-1.25a6.14,6.14,0,0,0,1.7-.25.36.36,0,0,0,.32,0,14.61,14.61,0,0,0,2.24-.54c.19-.07.07.08.09.12a4.46,4.46,0,0,0,.73-.24c.62-.22,1.23-.49,1.83-.77s1.14-.58,1.7-.9a19.25,19.25,0,0,0,2-1.28,23.15,23.15,0,0,0,2.16-1.8A20,20,0,0,0,45,37.22c.32-.54.63-1.09.9-1.65A22.1,22.1,0,0,0,47,32.85c.2-.62.39-1.25.54-1.88a23.67,23.67,0,0,0,.43-2.52c.1-.74.11-1.49.15-2.24s0-1.28-.07-1.92a15.33,15.33,0,0,0-.19-1.66,14.93,14.93,0,0,0-.39-1.83c-.17-.58-.33-1.16-.52-1.73a16.67,16.67,0,0,0-1-2.33,17.59,17.59,0,0,0-1.13-1.85,7.69,7.69,0,0,0-.57-.8c-.33-.37-.7-.7-1-1.06a6.34,6.34,0,0,0-1.52-1.15,3.34,3.34,0,0,0-2-.34l-.75.08a3.45,3.45,0,0,0-.72.08,5.76,5.76,0,0,1-.91.15c-.45.06-.88.21-1.34.25a3.29,3.29,0,0,0-.78.23c-.41.14-.83.18-1.23.35a5.22,5.22,0,0,1-.82.25,3.66,3.66,0,0,1-.51.21,1.11,1.11,0,0,0-.53.2,1.44,1.44,0,0,1-.5.21,12.36,12.36,0,0,0-1.23.54c-.58.25-1.12.59-1.68.89A16.12,16.12,0,0,0,27,16a7.82,7.82,0,0,0-.94.69,1.13,1.13,0,0,1-.25.24,6.52,6.52,0,0,0-.93.71c-.27.18-.48.42-.74.62s-.52.31-.64.62c0,0-.06.05-.1.05s-.15.05-.21.11-.31.36-.57.38a.61.61,0,0,0-.31.05c.2.08.19.18,0,.32.21,0,.31.11.45.17a.8.8,0,0,1,.39.76c0,.11,0,.15.1.19s.23.1.12.24a1.45,1.45,0,0,1-.91.56,1.57,1.57,0,0,0-.76.29.55.55,0,0,1-.36.13,2,2,0,0,1-.55,0c-.11,0-.29.12-.26-.15l-.06,0a.4.4,0,0,1-.26-.4.32.32,0,0,0-.28-.35s-.1,0-.1-.05c0-.24-.25-.33-.39-.45-.37-.32-.77-.59-1.16-.87-.11-.08-.28-.13-.2-.33,0,0,0-.07-.05-.08s-.11-.13,0-.23.05-.17,0-.25-.19-.16,0-.31c.07,0,.13-.1.05-.17s-.3-.49-.55-.65a.23.23,0,0,1-.07-.1c0-.44-.38-.72-.57-1.08a5.59,5.59,0,0,1-.32-.65,7.18,7.18,0,0,1-.44-1.23c-.12-.61-.37-1.19-.47-1.8,0-.24-.17-.46-.19-.7s-.15-.71-.16-1.07A11.08,11.08,0,0,1,15.16,10c0-.42-.07-.84-.05-1.25s0-.53,0-.79.06-.63.05-.94,0-.35-.25-.39a.1.1,0,0,1-.07-.09c0-.14-.13-.15-.22-.15a3.61,3.61,0,0,0-.93.06,6.6,6.6,0,0,0-1.61.64,13.58,13.58,0,0,0-1.83,1.18,22.83,22.83,0,0,0-2.1,1.82,19.39,19.39,0,0,0-1.86,2.19A21.15,21.15,0,0,0,4,16.4,23.58,23.58,0,0,0,2.74,20a22.5,22.5,0,0,0-.5,2.82c-.08.64-.09,1.28-.15,1.93a17,17,0,0,0,.05,2,9.3,9.3,0,0,0,.09,1.05,14.3,14.3,0,0,0,.23,1.46c.1.45.16.91.28,1.35a23.83,23.83,0,0,0,.8,2.57A22.29,22.29,0,0,0,8,40.42a19.87,19.87,0,0,0,1.67,1.64,23.45,23.45,0,0,0,6,3.89,20.77,20.77,0,0,0,2.53.94,17.37,17.37,0,0,0,3.2.69,20,20,0,0,0,2.45.18l1.4-.06c.88,0,1.75-.08,2.61-.19.15,0,.33,0,.45-.12h.13C28.55,47.45,28.56,47.41,28.57,47.35Z"/><path class="cls-2" d="M28.36,47.39c-.12.16-.3.1-.45.12-.86.11-1.73.16-2.61.19l-1.4.06a20,20,0,0,1-2.45-.18,17.37,17.37,0,0,1-3.2-.69A20.77,20.77,0,0,1,15.72,46a23.45,23.45,0,0,1-6-3.89A19.87,19.87,0,0,1,8,40.42a22.29,22.29,0,0,1-4.47-7.27,23.83,23.83,0,0,1-.8-2.57c-.12-.44-.18-.9-.28-1.35a14.3,14.3,0,0,1-.23-1.46,9.3,9.3,0,0,1-.09-1.05,17,17,0,0,1-.05-2c.06-.65.07-1.29.15-1.93A22.5,22.5,0,0,1,2.74,20,23.58,23.58,0,0,1,4,16.4a21.15,21.15,0,0,1,2.34-4.08,19.39,19.39,0,0,1,1.86-2.19,22.83,22.83,0,0,1,2.1-1.82,13.58,13.58,0,0,1,1.83-1.18,6.6,6.6,0,0,1,1.61-.64,3.61,3.61,0,0,1,.93-.06c.09,0,.21,0,.22.15a.1.1,0,0,0,.07.09c.23,0,.24.22.25.39s0,.62-.05.94,0,.52,0,.79.06.83.05,1.25a11.08,11.08,0,0,0,.14,1.14c0,.36.14.71.16,1.07s.15.46.19.7c.1.61.35,1.19.47,1.8A7.18,7.18,0,0,0,16.56,16a5.59,5.59,0,0,0,.32.65c.19.36.54.64.57,1.08a.23.23,0,0,0,.07.1c.25.16.34.45.55.65s0,.13-.05.17c-.23.15-.23.15,0,.31s.13.16,0,.25-.09.16,0,.23.06.06.05.08c-.08.2.09.25.2.33.39.28.79.55,1.16.87.14.12.36.21.39.45,0,0,.06.05.1.05a.32.32,0,0,1,.28.35.4.4,0,0,0,.26.4l.06,0c0,.27.15.12.26.15a2,2,0,0,0,.55,0s0,.07,0,.11.27.25.28.42.24.43.11.69c0,0,0,.13.09.14.21.05.19.2.18.35s0,.12,0,.14c.18.09.12.28.18.43a.62.62,0,0,0-.51.2,1.11,1.11,0,0,1-.49.35,3.54,3.54,0,0,0-1.24.79.34.34,0,0,1-.23.13,1,1,0,0,0-.56.19c-.11-.2-.26-.37-.36-.58s-.05-.27-.15-.33-.16-.18-.25-.27,0-.24-.11-.32a2.63,2.63,0,0,1-.43-.45s-.12-.06-.2-.07c-.23,0-.46.05-.67-.11a.23.23,0,0,0-.27,0s-.1.09-.15.05c-.23-.19-.46-.38-.68-.58s-.25-.43-.53-.45a.06.06,0,0,1-.06-.05c-.1-.28-.39-.4-.52-.66a5.18,5.18,0,0,1-.4-.69c-.07-.24-.4-.37-.31-.69,0,0,0,0,0-.05a4.45,4.45,0,0,1-.45-.9c-.14-.38-.39-.72-.51-1.09a13.92,13.92,0,0,1-.55-1.77c-.15-.78-.41-1.54-.63-2.31-.09-.32-.2-.65-.29-1s-.12-.52-.17-.78-.15-.74-.2-1.11c-.07-.54-.11-1.08-.18-1.62,0-.14,0-.37-.24-.39a1.58,1.58,0,0,0-1.2.22,3.9,3.9,0,0,1-.36.25,7.74,7.74,0,0,0-1.76,1.52,17.41,17.41,0,0,0-1.46,1.87,18.74,18.74,0,0,0-1.7,3.07,19.53,19.53,0,0,0-.89,2.42A22.11,22.11,0,0,0,3,21.54a16.57,16.57,0,0,1-.3,1.85,4.87,4.87,0,0,0,0,1,27.67,27.67,0,0,0,0,2.88A17.06,17.06,0,0,0,3,29.75a20.84,20.84,0,0,0,1.11,3.71,20,20,0,0,0,1,2.1,22.38,22.38,0,0,0,4.44,5.77A19.93,19.93,0,0,0,11.46,43a8.57,8.57,0,0,0,1.61,1c.37.15.68.4,1,.58a27.89,27.89,0,0,0,2.84,1.3c.49.18,1,.4,1.47.57s1.16.35,1.74.49a7.44,7.44,0,0,0,1.87.29c.44,0,.88,0,1.32,0s.7,0,1.05.05h.51c.81,0,1.63.12,2.44.11Z"/><path class="cls-3" d="M22.26,24.44c-.06-.15,0-.34-.18-.43,0,0,0-.09,0-.14s0-.3-.18-.35c-.05,0-.11-.1-.09-.14.13-.26-.09-.46-.11-.69s-.22-.25-.28-.42,0-.08,0-.11a.55.55,0,0,0,.36-.13,1.57,1.57,0,0,1,.76-.29,1.45,1.45,0,0,0,.91-.56c.11-.14,0-.2-.12-.24s-.12-.08-.1-.19a.8.8,0,0,0-.39-.76c-.14-.06-.24-.18-.45-.17.16-.14.17-.24,0-.32a.61.61,0,0,1,.31-.05c.26,0,.4-.23.57-.38s.11-.12.21-.11.09,0,.1-.05c.12-.31.4-.45.64-.62s.47-.44.74-.62a6.52,6.52,0,0,1,.93-.71,1.13,1.13,0,0,0,.25-.24A7.82,7.82,0,0,1,27,16,16.12,16.12,0,0,1,28.65,15c.56-.3,1.1-.64,1.68-.89a12.36,12.36,0,0,1,1.23-.54,1.44,1.44,0,0,0,.5-.21,1.11,1.11,0,0,1,.53-.2,3.66,3.66,0,0,0,.51-.21,5.22,5.22,0,0,0,.82-.25c.4-.17.82-.21,1.23-.35a3.29,3.29,0,0,1,.78-.23c.46,0,.89-.19,1.34-.25a5.76,5.76,0,0,0,.91-.15,3.45,3.45,0,0,1,.72-.08l.75-.08a3.34,3.34,0,0,1,2,.34A6.34,6.34,0,0,1,43.13,13c.34.36.71.69,1,1.06a7.69,7.69,0,0,1,.57.8,17.59,17.59,0,0,1,1.13,1.85,16.67,16.67,0,0,1,1,2.33c.19.57.35,1.15.52,1.73a14.93,14.93,0,0,1,.39,1.83A15.33,15.33,0,0,1,48,24.29c0,.64.1,1.28.07,1.92s0,1.5-.15,2.24A23.67,23.67,0,0,1,47.49,31c-.15.63-.34,1.26-.54,1.88a22.1,22.1,0,0,1-1.1,2.72c-.27.56-.58,1.11-.9,1.65a20,20,0,0,1-3.66,4.5,23.15,23.15,0,0,1-2.16,1.8,19.25,19.25,0,0,1-2,1.28c-.56.32-1.12.63-1.7.9s-1.21.55-1.83.77a4.46,4.46,0,0,1-.73.24s.1-.19-.09-.12a14.61,14.61,0,0,1-2.24.54.36.36,0,0,1-.32,0c.44-.14.87-.27,1.3-.42.08,0,.21,0,.24-.12a6.54,6.54,0,0,0,1.24-.36,24.27,24.27,0,0,0,3.15-1.35c.65-.33,1.29-.7,1.9-1.09a17.57,17.57,0,0,0,1.8-1.31c.68-.59,1.37-1.15,2-1.78.09-.09.16-.2.26-.29a15.38,15.38,0,0,0,1.55-1.87,20.89,20.89,0,0,0,1.24-2,20.18,20.18,0,0,0,1.19-2.48,21.87,21.87,0,0,0,.73-2.25,16.45,16.45,0,0,0,.48-2.19,12.48,12.48,0,0,0,.19-1.83c0-.64.08-1.28,0-1.93,0-.8-.07-1.59-.17-2.39-.08-.6-.2-1.19-.33-1.78a15.74,15.74,0,0,0-.84-2.48,14,14,0,0,0-1.17-2.11,7.94,7.94,0,0,0-1-1.12A1.94,1.94,0,0,0,43,15.45,10.58,10.58,0,0,0,41,15.36a9.45,9.45,0,0,0-1.07.09,2.27,2.27,0,0,0-1,.14.11.11,0,0,1-.08,0c-.23-.1-.43.08-.66.06a3.56,3.56,0,0,0-.62.12,4.84,4.84,0,0,0-1,.18,12,12,0,0,1-1.17.33c-.51.15-1,.33-1.5.51-.31.11-.62.27-.94.37a8.53,8.53,0,0,0-.88.36,11.58,11.58,0,0,0-1,.54c-.07,0-.09.15-.19.16a1.32,1.32,0,0,0-.62.32,7.75,7.75,0,0,0-1.31.89c-.27.26-.66.35-.9.65s-.37.26-.54.44-.41.25-.59.42a7.69,7.69,0,0,0-.7.6c-.19.23-.3.51-.48.74a.84.84,0,0,1-.42.31,2.18,2.18,0,0,0-.23.09,8.57,8.57,0,0,0-.79.55.31.31,0,0,0-.16.21.32.32,0,0,1-.22.3c-.38.17-.62.54-1,.71Z"/><path class="cls-4" d="M31.81,46.56c0,.13-.16.1-.24.12-.43.15-.86.28-1.3.42a6.14,6.14,0,0,1-1.7.25s-.07,0-.08,0H27.34c-.81,0-1.63-.07-2.44-.11h-.51c-.35,0-.7-.05-1.05-.05,0-.11-.1-.09-.17-.12s-.23-.08-.29-.21h1.33a23.27,23.27,0,0,0,2.89-.11c.79-.1,1.59-.17,2.38-.3a6.43,6.43,0,0,0,1.32-.15c.91-.21,1.82-.41,2.71-.68,0,.1,0,.14-.12.17-.42.15-.82.31-1.24.45s-.84.27-1.27.36l-.22.08v0A11.34,11.34,0,0,0,31.81,46.56Z"/><path class="cls-2" d="M28.49,47.39s0,0,.08,0S28.55,47.45,28.49,47.39Z"/><path class="cls-5" d="M22.88,46.9c.06.13.18.16.29.21s.16,0,.17.12c-.44,0-.88,0-1.32,0a7.44,7.44,0,0,1-1.87-.29c-.58-.14-1.17-.31-1.74-.49s-1-.39-1.47-.57a27.89,27.89,0,0,1-2.84-1.3c-.35-.18-.66-.43-1-.58a8.57,8.57,0,0,1-1.61-1,19.93,19.93,0,0,1-1.93-1.62,22.38,22.38,0,0,1-4.44-5.77,20,20,0,0,1-1-2.1A20.84,20.84,0,0,1,3,29.75a17.06,17.06,0,0,1-.34-2.47,27.67,27.67,0,0,1,0-2.88,4.87,4.87,0,0,1,0-1A16.57,16.57,0,0,0,3,21.54a22.11,22.11,0,0,1,.56-2.27,19.53,19.53,0,0,1,.89-2.42,18.74,18.74,0,0,1,1.7-3.07,17.41,17.41,0,0,1,1.46-1.87,7.74,7.74,0,0,1,1.76-1.52,3.9,3.9,0,0,0,.36-.25,1.58,1.58,0,0,1,1.2-.22c.2,0,.21.25.24.39.07.54.11,1.08.18,1.62,0,.37.13.74.2,1.11s.1.52.17.78.2.66.29,1c.22.77.48,1.53.63,2.31a13.92,13.92,0,0,0,.55,1.77c.12.37.37.71.51,1.09a4.45,4.45,0,0,0,.45.9s0,0,0,.05c-.09.32.24.45.31.69a5.18,5.18,0,0,0,.4.69c.13.26.42.38.52.66a.06.06,0,0,0,.06.05c.28,0,.36.29.53.45s.45.39.68.58c.05,0,.11,0,.15-.05a.23.23,0,0,1,.27,0c.21.16.44.1.67.11.08,0,.17,0,.2.07a2.63,2.63,0,0,0,.43.45c.09.08,0,.22.11.32s.13.2.25.27.1.22.15.33.25.38.36.58-.06.14,0,.18,0,.29-.09.42-.06.11,0,.16c.23.26.16.65.41.9-.08.19.09.36.17.44.29.25,0,.57.15.83,0,0,0,0,0,0-.21.23-.28.56-.52.77-.09,0-.2,0-.26,0-.2.3-.55.27-.84.39s-.47,0-.46-.17c0-.35-.26-.55-.38-.83,0-.12,0-.28-.17-.36a.25.25,0,0,1-.13-.24c0-.11-.11-.14-.18-.18s-.11.06-.15.1c-.22.18-.42.39-.74.31a.14.14,0,0,0-.16.06c-.08.09-.2.09-.3.12s-.08-.11-.14-.15-.32-.37-.52-.53-.35-.24-.41-.45a.79.79,0,0,0-.37-.45s-.11-.05-.13-.09a1.29,1.29,0,0,0-.43-.49c-.36-.34-.54-.81-.93-1.12a.48.48,0,0,1-.1-.17,4.44,4.44,0,0,0-.39-.63,3.73,3.73,0,0,1-.51-.69,13.8,13.8,0,0,1-.68-1.52c-.2-.48-.37-1-.55-1.47s-.41-1.17-.59-1.77S9.22,18.28,9,17.63,8.59,16.56,8.45,16s-.37-1.31-.59-2a.32.32,0,0,0-.51-.2,2.12,2.12,0,0,0-.48.35A10.33,10.33,0,0,0,5.56,16a15.64,15.64,0,0,0-1.37,2.93,23.64,23.64,0,0,0-.87,3.2A22.88,22.88,0,0,0,3,25.52c0,.32,0,.64,0,1a17.78,17.78,0,0,0,.14,1.78,23.28,23.28,0,0,0,.48,2.49A22.31,22.31,0,0,0,5.18,34.9,21.18,21.18,0,0,0,7,37.81a22.14,22.14,0,0,0,2.31,2.72,20.53,20.53,0,0,0,2.4,2.06,18.45,18.45,0,0,0,2.9,1.8A26.27,26.27,0,0,0,17,45.5a11.69,11.69,0,0,0,1.92.64c1,.2,2,.48,3,.62C22.26,46.8,22.56,46.89,22.88,46.9Z"/><path class="cls-4" d="M19.27,29.84c.24-.21.31-.54.52-.77,0,0,.05,0,0,0-.13-.26.14-.58-.15-.83-.08-.08-.25-.25-.17-.44-.25-.25-.18-.64-.41-.9-.05-.05,0-.11,0-.16s.2-.25.09-.42,0-.12,0-.18a1,1,0,0,1,.56-.19.34.34,0,0,0,.23-.13A3.54,3.54,0,0,1,21.26,25a1.11,1.11,0,0,0,.49-.35.62.62,0,0,1,.51-.2H23c0,.15.05.3.22.38a.1.1,0,0,1,.06.08c0,.25.13.51-.07.75s0,.27.08.37.16,0,.23-.05.33-.19.51-.27a1.55,1.55,0,0,0,.54-.25.71.71,0,0,1,.5-.18c.09,0,.16,0,.1.13s-.05.17,0,.23.08.1,0,.17a.13.13,0,0,0,0,.19c.07.06.05.14,0,.21a.29.29,0,0,0,0,.18,1.17,1.17,0,0,1-.06.88,7.45,7.45,0,0,1-.52.6A2.73,2.73,0,0,0,24,29c0,.09,0,.13.09.14s.1.06.07.13a.94.94,0,0,1-.1.23s-.07.11,0,.13.11.19.1.28,0,.2.06.27,0,.08,0,.12a1,1,0,0,1-.18.63,3.05,3.05,0,0,0-.28.5c-.14.28-.24.59-.4.85a4.63,4.63,0,0,0-.37.78c0,.16-.2.29-.18.48-.07,0-.2.16-.2,0a.43.43,0,0,0-.23-.36.17.17,0,0,1-.06-.19c.05-.1,0-.15-.09-.19a.42.42,0,0,1-.25-.43c0-.06,0-.16,0-.18-.2-.08-.2-.26-.22-.41s-.08-.11-.15-.13-.12,0-.16.08a2.71,2.71,0,0,1-.47.6c-.1.08-.12.25-.26.28s-.21-.14-.32-.21a3.62,3.62,0,0,0-.76-.45c0-.29-.17-.55-.1-.85,0,0,0-.07,0-.09a.37.37,0,0,1-.09-.49.1.1,0,0,0,0-.13.29.29,0,0,1-.15-.47S19.27,29.86,19.27,29.84Z"/><path class="cls-6" d="M25.17,27.26a1.17,1.17,0,0,0,.06-.88.29.29,0,0,1,0-.18c0-.07,0-.15,0-.21a.13.13,0,0,1,0-.19c.05-.07,0-.12,0-.17s-.1-.13,0-.23,0-.13-.1-.13a.71.71,0,0,0-.5.18,1.55,1.55,0,0,1-.54.25c-.18.08-.34.19-.51.27s-.18.15-.23.05-.2-.22-.08-.37.08-.5.07-.75a.1.1,0,0,0-.06-.08c-.17-.08-.18-.23-.22-.38.37-.17.61-.54,1-.71a.32.32,0,0,0,.22-.3.31.31,0,0,1,.16-.21,8.57,8.57,0,0,1,.79-.55,2.18,2.18,0,0,1,.23-.09.84.84,0,0,0,.42-.31c.18-.23.29-.51.48-.74a7.69,7.69,0,0,1,.7-.6c.18-.17.44-.25.59-.42s.39-.26.54-.44.63-.39.9-.65a7.75,7.75,0,0,1,1.31-.89,1.32,1.32,0,0,1,.62-.32c.1,0,.12-.12.19-.16a11.58,11.58,0,0,1,1-.54,8.53,8.53,0,0,1,.88-.36c.32-.1.63-.26.94-.37.5-.18,1-.36,1.5-.51a12,12,0,0,0,1.17-.33,4.84,4.84,0,0,1,1-.18,3.56,3.56,0,0,1,.62-.12c.23,0,.43-.16.66-.06a.11.11,0,0,0,.08,0,2.27,2.27,0,0,1,1-.14A9.45,9.45,0,0,1,41,15.36a10.58,10.58,0,0,1,1.95.09A1.94,1.94,0,0,1,44.1,16a7.94,7.94,0,0,1,1,1.12,14,14,0,0,1,1.17,2.11,15.74,15.74,0,0,1,.84,2.48c.13.59.25,1.18.33,1.78.1.8.13,1.59.17,2.39,0,.65,0,1.29,0,1.93a12.48,12.48,0,0,1-.19,1.83,16.45,16.45,0,0,1-.48,2.19,21.87,21.87,0,0,1-.73,2.25A20.18,20.18,0,0,1,45,36.55a20.89,20.89,0,0,1-1.24,2,15.38,15.38,0,0,1-1.55,1.87c-.1.09-.17.2-.26.29-.64.63-1.33,1.19-2,1.78a17.57,17.57,0,0,1-1.8,1.31c-.61.39-1.25.76-1.9,1.09a24.27,24.27,0,0,1-3.15,1.35,6.54,6.54,0,0,1-1.24.36,11.34,11.34,0,0,1-1.14.2v0l.22-.08c.43-.09.85-.23,1.27-.36s.82-.3,1.24-.45c.07,0,.13-.07.12-.17a21.22,21.22,0,0,0,2.85-1.25q1.17-.65,2.28-1.38a21.29,21.29,0,0,0,3.18-2.74A14.84,14.84,0,0,0,42.93,39a16,16,0,0,0,1.45-2.1c.39-.69.77-1.39,1.09-2.11a14.47,14.47,0,0,0,.64-1.7c.24-.72.43-1.45.6-2.18s.22-1.2.3-1.81.12-1.3.16-1.95,0-1.14-.05-1.72c0-.28-.08-.57-.1-.85a10.85,10.85,0,0,0-.27-1.38,8.18,8.18,0,0,0-.81-2.3,3.26,3.26,0,0,0-.59-.79,1.12,1.12,0,0,0-.9-.31c-.57,0-1.13-.07-1.7-.06a11.16,11.16,0,0,1-1.53,0,.74.74,0,0,0-.21,0c-.57.07-1.14.15-1.72.19-.42,0-.84.12-1.25.2-.64.14-1.27.33-1.89.52a11.1,11.1,0,0,0-1.26.45c-.42.19-.84.38-1.25.59-.79.4-1.54.85-2.31,1.28-.51.28-1,.58-1.55.82a4.19,4.19,0,0,0-1.27.63,7.49,7.49,0,0,0-.6.49c-.18.22-.41.39-.59.61s-.55.54-.8.84c-.11.13-.18.3-.34.36a7.23,7.23,0,0,0-.76.45A.38.38,0,0,1,25.17,27.26Z"/><path class="cls-7" d="M19.27,29.84s0,.06,0,.08a.29.29,0,0,0,.15.47.1.1,0,0,1,0,.13.37.37,0,0,0,.09.49s0,.07,0,.09c-.07.3.15.56.1.85a.45.45,0,0,0-.14.42.4.4,0,0,1,0,.24,1.2,1.2,0,0,1-.29.47.86.86,0,0,0-.21.73,3.76,3.76,0,0,1,.11.82c0,.27,0,.53,0,.8a.67.67,0,0,1-.31.49.81.81,0,0,0-.31.33c-.12.19-.16.2-.3,0a.09.09,0,0,0-.1,0s-.06,0,0,0c.11.24-.12.52.12.74.07.07,0,.15,0,.23s-.18.42-.06.63a.67.67,0,0,1,.05.48,1.64,1.64,0,0,0,0,.22.74.74,0,0,0-.56.27c0,.07-.17,0-.24.08s-.25.09-.39,0c-.29-.21-.37-.56-.63-.8-.1-.09-.24-.11-.31-.21s-.43-.31-.53-.59a1.74,1.74,0,0,0-.61-.68,4,4,0,0,0-.51-.5c-.23-.13-.39-.35-.64-.44a.07.07,0,0,1,0-.1.17.17,0,0,0-.11-.25c-.07,0-.1-.12-.15-.19a6.75,6.75,0,0,0-.73-1.07c-.18-.18-.3-.43-.49-.62a.18.18,0,0,1-.06-.1c0-.31-.19-.46-.39-.63a1.67,1.67,0,0,1-.62-.7.35.35,0,0,0-.21-.2.48.48,0,0,1-.16-.13c-.3-.43-.55-.9-.81-1.36a2.94,2.94,0,0,0-.4-.71,6.44,6.44,0,0,1-.7-1.26,5.28,5.28,0,0,1-.33-.81,8.85,8.85,0,0,1-.4-.9c-.1-.32-.24-.63-.36-.94s-.4-.84-.6-1.26c-.29-.65-.66-1.27-1-1.9-.25-.48-.48-1-.7-1.47a2.41,2.41,0,0,0-.3-.65c-.14-.17-.22-.17-.34,0a4.18,4.18,0,0,0-.57,1.16,13,13,0,0,0-.42,1.66,17.66,17.66,0,0,0-.22,2.19,14.6,14.6,0,0,0,0,2.09c.07.53.09,1.07.18,1.59a18.59,18.59,0,0,0,.41,1.94A20.06,20.06,0,0,0,5.5,34.58,21,21,0,0,0,7.37,37.7a18.2,18.2,0,0,0,1.65,2c.38.37.75.76,1.14,1.13s.67.62,1,.9a27.46,27.46,0,0,0,2.36,1.63c.4.24.76.54,1.18.75.72.35,1.44.69,2.18,1a1.7,1.7,0,0,0,1.32.22.17.17,0,0,1,.1,0,9.82,9.82,0,0,0,1.31.27c.39.06.77.21,1.17.26a.1.1,0,0,0,.05.08,3.19,3.19,0,0,0,1.83.61c.51.06,1,.23,1.48.32,0,0,0,0,0,.06H22.88c-.32,0-.62-.1-.94-.14-1-.14-2-.42-3-.62A11.69,11.69,0,0,1,17,45.5a26.27,26.27,0,0,1-2.41-1.11,18.45,18.45,0,0,1-2.9-1.8,20.53,20.53,0,0,1-2.4-2.06A22.14,22.14,0,0,1,7,37.81,21.18,21.18,0,0,1,5.18,34.9a22.31,22.31,0,0,1-1.52-4.14,23.28,23.28,0,0,1-.48-2.49A17.78,17.78,0,0,1,3,26.49c0-.33,0-.65,0-1a22.88,22.88,0,0,1,.32-3.41,23.64,23.64,0,0,1,.87-3.2A15.64,15.64,0,0,1,5.56,16,10.33,10.33,0,0,1,6.87,14.2a2.12,2.12,0,0,1,.48-.35.32.32,0,0,1,.51.2c.22.65.42,1.3.59,2s.37,1.08.55,1.62.54,1.27.75,1.92.39,1.19.59,1.77.35,1,.55,1.47a13.8,13.8,0,0,0,.68,1.52,3.73,3.73,0,0,0,.51.69,4.44,4.44,0,0,1,.39.63.48.48,0,0,0,.1.17c.39.31.57.78.93,1.12a1.29,1.29,0,0,1,.43.49s.09.06.13.09a.79.79,0,0,1,.37.45c.06.21.26.32.41.45s.32.38.52.53,0,.17.14.15.22,0,.3-.12A.14.14,0,0,1,16,28.9c.32.08.52-.13.74-.31,0,0,.07-.14.15-.1s.19.07.18.18a.25.25,0,0,0,.13.24c.12.08.12.24.17.36.12.28.4.48.38.83,0,.15.28.25.46.17s.64-.09.84-.39C19.07,29.8,19.18,29.85,19.27,29.84Z"/><path class="cls-8" d="M25.17,27.26a.38.38,0,0,0,.25-.07,7.23,7.23,0,0,1,.76-.45c.16-.06.23-.23.34-.36.25-.3.56-.55.8-.84s.41-.39.59-.61a7.49,7.49,0,0,1,.6-.49,4.19,4.19,0,0,1,1.27-.63c.54-.24,1-.54,1.55-.82.77-.43,1.52-.88,2.31-1.28.41-.21.83-.4,1.25-.59a11.1,11.1,0,0,1,1.26-.45c.62-.19,1.25-.38,1.89-.52.41-.08.83-.16,1.25-.2.58,0,1.15-.12,1.72-.19a.74.74,0,0,1,.21,0,11.16,11.16,0,0,0,1.53,0c.57,0,1.13.09,1.7.06a1.12,1.12,0,0,1,.9.31,3.26,3.26,0,0,1,.59.79,8.18,8.18,0,0,1,.81,2.3A10.85,10.85,0,0,1,47,24.59c0,.28.09.57.1.85,0,.58.07,1.15.05,1.72s-.07,1.3-.16,1.95-.16,1.21-.3,1.81-.36,1.46-.6,2.18a14.47,14.47,0,0,1-.64,1.7c-.32.72-.7,1.42-1.09,2.11A16,16,0,0,1,42.93,39a14.84,14.84,0,0,1-1.11,1.27A21.29,21.29,0,0,1,38.64,43q-1.11.73-2.28,1.38a21.22,21.22,0,0,1-2.85,1.25c-.89.27-1.8.47-2.71.68a6.43,6.43,0,0,1-1.32.15l.09-.21.52-.11c.45-.1.88-.31,1.33-.37a17.33,17.33,0,0,0,2.39-.57A13.9,13.9,0,0,0,36.62,44,24.21,24.21,0,0,0,39,42.56a19.49,19.49,0,0,0,2-1.71,18.07,18.07,0,0,0,1.64-1.75A17.13,17.13,0,0,0,44.14,37a8.64,8.64,0,0,0,1-2.07c.13-.45.36-.88.52-1.32.22-.6.36-1.22.56-1.83s.21-1,.32-1.5c0-.21.05-.42.09-.63A13.13,13.13,0,0,0,46.79,28a16.9,16.9,0,0,0-.17-2.66A5.07,5.07,0,0,0,46.3,24c-.17-.38-.34-.75-.54-1.12a.62.62,0,0,0-.63-.37c-.52,0-1,0-1.54,0s-.75,0-1.12,0-.65,0-1,.06l-.94.14-.9.1c-.38.05-.75.15-1.12.23a12.5,12.5,0,0,0-1.72.48,14.4,14.4,0,0,0-2.07.87,15.44,15.44,0,0,0-1.44.79c-.57.35-1.13.72-1.69,1.07-.25.16-.49.34-.72.52a5.67,5.67,0,0,1-1.05.64c-.14.08-.25.21-.41.24a.71.71,0,0,0-.38.23,10.61,10.61,0,0,1-.85.8,3,3,0,0,0-.66.86,16.7,16.7,0,0,0-.94,1.57,1,1,0,0,1-.49.44c-.32.13-.67.2-.83.56-.07.13-.19.24-.19.4a1.36,1.36,0,0,1-.18.59.85.85,0,0,0-.11.26,4.31,4.31,0,0,1-.24.87,1.73,1.73,0,0,0-.12.51.74.74,0,0,1-.23.63c0-.11,0-.25-.13-.28s-.19-.12-.26-.21-.07-.32-.3-.27c-.05,0,0-.06,0-.1a.59.59,0,0,0-.09-.37.62.62,0,0,1-.18-.42c0-.07,0-.13-.11-.13s-.15-.09-.23-.13.13-.32.18-.48a4.63,4.63,0,0,1,.37-.78c.16-.26.26-.57.4-.85a3.05,3.05,0,0,1,.28-.5,1,1,0,0,0,.18-.63s0-.1,0-.12-.07-.16-.06-.27.09-.24-.1-.28-.05-.09,0-.13a.94.94,0,0,0,.1-.23c0-.07,0-.12-.07-.13S24,29.08,24,29a2.73,2.73,0,0,1,.62-1.13A7.45,7.45,0,0,0,25.17,27.26Z"/><path class="cls-9" d="M22.88,33.53c.08,0,.13.13.23.13s.1.06.11.13a.62.62,0,0,0,.18.42.59.59,0,0,1,.09.37s0,.11,0,.1c.23,0,.22.15.3.27s.12.18.26.21.11.17.13.28a2.18,2.18,0,0,1-.11,1.13.18.18,0,0,0,0,.16c.06.07,0,.14,0,.23s-.17.51.14.7c0,0,0,.05,0,.07.16.31,0,.7.24,1,0,0,0,.06,0,.08s0,.3.13.37a.5.5,0,0,1,.18.3,1.76,1.76,0,0,1,.06.39c0,.07,0,.14.08.14s.13.11.12.2a.85.85,0,0,0,.09.48,1.54,1.54,0,0,1,.14.89c0,.23.11.45,0,.68a.13.13,0,0,0,0,.07.59.59,0,0,1,.11.33,4,4,0,0,0,.26.83c.07.17.23.31.25.49,0,.38.33.63.48.95A1.7,1.7,0,0,0,27.64,46c.14,0,.09.12,0,.17l-.3.14a15,15,0,0,0,2.22,0l-.09.21c-.79.13-1.59.2-2.38.3a23.27,23.27,0,0,1-2.89.11s0-.06,0-.06c-.5-.09-1-.26-1.48-.32a3.19,3.19,0,0,1-1.83-.61.1.1,0,0,1-.05-.08,3.17,3.17,0,0,0,.53,0c.06,0,.1,0,.06-.09s0-.35-.25-.38c0,0,0-.09-.06-.13s0-.43-.13-.54a1.06,1.06,0,0,1-.29-.6.72.72,0,0,0-.13-.28,5,5,0,0,1-.54-.92c0-.07,0-.14-.08-.21a1.13,1.13,0,0,1-.17-.82.63.63,0,0,0-.13-.54.43.43,0,0,1-.08-.4.65.65,0,0,0-.32-.75.43.43,0,0,1-.16-.24c-.09-.19-.14-.41-.35-.53a.64.64,0,0,1-.33-.52c0-.24-.1-.25-.27-.27a1.64,1.64,0,0,1,0-.22.67.67,0,0,0-.05-.48c-.12-.21,0-.42.06-.63s.09-.16,0-.23c-.24-.22,0-.5-.12-.74,0,0,0,0,0,0a.09.09,0,0,1,.1,0c.14.2.18.19.3,0a.81.81,0,0,1,.31-.33.67.67,0,0,0,.31-.49c0-.27,0-.53,0-.8a3.76,3.76,0,0,0-.11-.82.86.86,0,0,1,.21-.73,1.2,1.2,0,0,0,.29-.47.4.4,0,0,0,0-.24.45.45,0,0,1,.14-.42,3.62,3.62,0,0,1,.76.45c.11.07.15.26.32.21s.16-.2.26-.28a2.71,2.71,0,0,0,.47-.6c0-.06.07-.12.16-.08s.13,0,.15.13,0,.33.22.41c0,0,0,.12,0,.18a.42.42,0,0,0,.25.43c.09,0,.14.09.09.19a.17.17,0,0,0,.06.19.43.43,0,0,1,.23.36C22.68,33.69,22.81,33.5,22.88,33.53Z"/><path class="cls-10" d="M18.11,38.55c.17,0,.27,0,.27.27a.64.64,0,0,0,.33.52c.21.12.26.34.35.53a.43.43,0,0,0,.16.24.65.65,0,0,1,.32.75.43.43,0,0,0,.08.4.63.63,0,0,1,.13.54,1.13,1.13,0,0,0,.17.82c0,.07,0,.14.08.21a5,5,0,0,0,.54.92.72.72,0,0,1,.13.28,1.06,1.06,0,0,0,.29.6c.14.11,0,.37.13.54s0,.12.06.13c.23,0,.18.25.25.38s0,.09-.06.09a3.17,3.17,0,0,1-.53,0c-.4,0-.78-.2-1.17-.26a9.82,9.82,0,0,1-1.31-.27.17.17,0,0,0-.1,0,1.7,1.7,0,0,1-1.32-.22c-.74-.3-1.46-.64-2.18-1-.42-.21-.78-.51-1.18-.75a27.46,27.46,0,0,1-2.36-1.63c-.36-.28-.7-.59-1-.9S9.4,40,9,39.66a18.2,18.2,0,0,1-1.65-2A21,21,0,0,1,5.5,34.58a20.06,20.06,0,0,1-1.29-3.52,18.59,18.59,0,0,1-.41-1.94c-.09-.52-.11-1.06-.18-1.59a14.6,14.6,0,0,1,0-2.09,17.66,17.66,0,0,1,.22-2.19,13,13,0,0,1,.42-1.66,4.18,4.18,0,0,1,.57-1.16c.12-.18.2-.18.34,0a2.41,2.41,0,0,1,.3.65c.22.5.45,1,.7,1.47.33.63.7,1.25,1,1.9.2.42.43.83.6,1.26s.26.62.36.94a8.85,8.85,0,0,0,.4.9,5.28,5.28,0,0,0,.33.81,6.44,6.44,0,0,0,.7,1.26,2.94,2.94,0,0,1,.4.71c.26.46.51.93.81,1.36a.48.48,0,0,0,.16.13.35.35,0,0,1,.21.2,1.67,1.67,0,0,0,.62.7c.2.17.41.32.39.63a.18.18,0,0,0,.06.1c.19.19.31.44.49.62a6.75,6.75,0,0,1,.73,1.07c0,.07.08.16.15.19a.17.17,0,0,1,.11.25.07.07,0,0,0,0,.1c.25.09.41.31.64.44a4,4,0,0,1,.51.5,1.74,1.74,0,0,1,.61.68c.1.28.38.37.53.59s.21.12.31.21c.26.24.34.59.63.8.14.1.26.17.39,0s.2,0,.24-.08A.74.74,0,0,1,18.11,38.55Z"/><path class="cls-11" d="M29.57,46.27a15,15,0,0,1-2.22,0l.3-.14c.08-.05.13-.14,0-.17a1.7,1.7,0,0,1-1.12-1.05c-.15-.32-.44-.57-.48-.95,0-.18-.18-.32-.25-.49a4,4,0,0,1-.26-.83.59.59,0,0,0-.11-.33.13.13,0,0,1,0-.07c.08-.23,0-.45,0-.68a1.54,1.54,0,0,0-.14-.89.85.85,0,0,1-.09-.48c0-.09,0-.18-.12-.2s-.09-.07-.08-.14a1.76,1.76,0,0,0-.06-.39.5.5,0,0,0-.18-.3c-.09-.07-.09-.24-.13-.37s0-.07,0-.08c-.26-.28-.08-.67-.24-1,0,0,0-.06,0-.07-.31-.19-.17-.46-.14-.7s0-.16,0-.23a.18.18,0,0,1,0-.16,2.18,2.18,0,0,0,.11-1.13.74.74,0,0,0,.23-.63,1.73,1.73,0,0,1,.12-.51,4.31,4.31,0,0,0,.24-.87.85.85,0,0,1,.11-.26,1.36,1.36,0,0,0,.18-.59c0-.16.12-.27.19-.4.16-.36.51-.43.83-.56a1,1,0,0,0,.49-.44,16.7,16.7,0,0,1,.94-1.57,3,3,0,0,1,.66-.86,10.61,10.61,0,0,0,.85-.8.71.71,0,0,1,.38-.23c.16,0,.27-.16.41-.24a5.67,5.67,0,0,0,1.05-.64c.23-.18.47-.36.72-.52.56-.35,1.12-.72,1.69-1.07a15.44,15.44,0,0,1,1.44-.79,14.4,14.4,0,0,1,2.07-.87,12.5,12.5,0,0,1,1.72-.48c.37-.08.74-.18,1.12-.23l.9-.1.94-.14c.33,0,.65,0,1-.06s.75,0,1.12,0,1,0,1.54,0a.62.62,0,0,1,.63.37c.2.37.37.74.54,1.12a5.07,5.07,0,0,1,.32,1.33A16.9,16.9,0,0,1,46.79,28a13.13,13.13,0,0,1-.15,1.66c0,.21,0,.42-.09.63-.11.5-.17,1-.32,1.5s-.34,1.23-.56,1.83c-.16.44-.39.87-.52,1.32a8.64,8.64,0,0,1-1,2.07,17.13,17.13,0,0,1-1.48,2.12A18.07,18.07,0,0,1,41,40.85a19.49,19.49,0,0,1-2,1.71A24.21,24.21,0,0,1,36.62,44a13.9,13.9,0,0,1-2.81,1.2,17.33,17.33,0,0,1-2.39.57c-.45.06-.88.27-1.33.37ZM46.38,28.33a8.39,8.39,0,0,0-.13-1.6,4.88,4.88,0,0,0-.47-1.58.39.39,0,0,0-.23-.22,5.52,5.52,0,0,0-.68-.15c-.7-.07-1.39-.2-2.1-.23a12.65,12.65,0,0,0-2.22,0,17.31,17.31,0,0,0-2.12.43,15.11,15.11,0,0,0-2.92,1.1,11.63,11.63,0,0,0-1.92,1.2,10.4,10.4,0,0,0-1.66,1.45,4.9,4.9,0,0,1-.95.75,13.87,13.87,0,0,0-1.1.93,4.65,4.65,0,0,0-.73.67c-.32.41-.65.82-1,1.22-.1.12-.16.44-.06.54s.14.5.17.76a2.49,2.49,0,0,0,.08.72,4.05,4.05,0,0,1,.16.83.39.39,0,0,1-.08.29,1.34,1.34,0,0,0-.12.24c-.2.61-.39,1.23-.58,1.84a3.66,3.66,0,0,0-.13.44,5.46,5.46,0,0,1-.24,1.12,1,1,0,0,0-.14.67c0,.14.17.17.19.33s.18.4.16.63a.1.1,0,0,0,.06.08.36.36,0,0,1,.17.25,4.34,4.34,0,0,0,.51,1.09A9.44,9.44,0,0,1,29,43.48a1.19,1.19,0,0,0,.28.52,1.12,1.12,0,0,1,.36.58.78.78,0,0,0,.49.51,3.89,3.89,0,0,0,1.66.19,10.26,10.26,0,0,0,2.52-.58,14.18,14.18,0,0,0,2.62-1.15c.56-.33,1.14-.64,1.68-1a18.71,18.71,0,0,0,2.71-2.25,17.22,17.22,0,0,0,1.46-1.62,18.72,18.72,0,0,0,2.07-3.4A15.42,15.42,0,0,0,45.94,32,15.33,15.33,0,0,0,46.38,28.33Z"/><path class="cls-12" d="M46.38,28.33A15.33,15.33,0,0,1,45.94,32a15.42,15.42,0,0,1-1.13,3.29,18.72,18.72,0,0,1-2.07,3.4,17.22,17.22,0,0,1-1.46,1.62,18.71,18.71,0,0,1-2.71,2.25c-.54.37-1.12.68-1.68,1a14.18,14.18,0,0,1-2.62,1.15,10.26,10.26,0,0,1-2.52.58,3.89,3.89,0,0,1-1.66-.19.78.78,0,0,1-.49-.51,1.12,1.12,0,0,0-.36-.58,1.19,1.19,0,0,1-.28-.52,9.44,9.44,0,0,0-.64-1.32,4.34,4.34,0,0,1-.51-1.09.36.36,0,0,0-.17-.25.1.1,0,0,1-.06-.08c0-.23-.13-.42-.16-.63s-.15-.19-.19-.33a1,1,0,0,1,.14-.67A5.46,5.46,0,0,0,27.61,38a3.66,3.66,0,0,1,.13-.44c.19-.61.38-1.23.58-1.84a1.34,1.34,0,0,1,.12-.24.39.39,0,0,0,.08-.29,4.05,4.05,0,0,0-.16-.83,2.49,2.49,0,0,1-.08-.72c0-.26,0-.53-.17-.76s0-.42.06-.54c.33-.4.66-.81,1-1.22a4.65,4.65,0,0,1,.73-.67,13.87,13.87,0,0,1,1.1-.93,4.9,4.9,0,0,0,.95-.75,10.4,10.4,0,0,1,1.66-1.45,11.63,11.63,0,0,1,1.92-1.2A15.11,15.11,0,0,1,38.43,25a17.31,17.31,0,0,1,2.12-.43,12.65,12.65,0,0,1,2.22,0c.71,0,1.4.16,2.1.23a5.52,5.52,0,0,1,.68.15.39.39,0,0,1,.23.22,4.88,4.88,0,0,1,.47,1.58A8.39,8.39,0,0,1,46.38,28.33Zm-.54.77c.06-.19-.08-.41-.09-.65a1.11,1.11,0,0,0-1-1.19c-.36,0-.71-.16-1.08-.19s-.85-.13-1.28-.13a8.7,8.7,0,0,0-.89,0,8.42,8.42,0,0,0-1,.09,13.42,13.42,0,0,0-1.65.34,14.32,14.32,0,0,0-1.69.64c-.39.18-.76.37-1.13.58a9.65,9.65,0,0,0-1.45,1,9.91,9.91,0,0,0-1,.87,11.58,11.58,0,0,0-1,1.23c-.25.36-.55.69-.77,1.07a3.77,3.77,0,0,1-.5.75,1.77,1.77,0,0,0-.33.52,6.37,6.37,0,0,1-.51,1,1.3,1.3,0,0,0-.24.52l-.06.32a7.45,7.45,0,0,0-.3,1.55,5.58,5.58,0,0,1-.15,1.15c-.08.35-.1.71-.17,1.07a2.42,2.42,0,0,0,.05,1.1,3.83,3.83,0,0,0,.45,1.36l0,.1a4.3,4.3,0,0,0,.3.94c.13.27.29.53.42.8a1.12,1.12,0,0,0,1,.75,5.37,5.37,0,0,0,.57,0,6.08,6.08,0,0,0,2.06-.48c.46-.18.88-.42,1.34-.6A20.41,20.41,0,0,0,38,42.53a12.58,12.58,0,0,0,1.49-1c.34-.27.69-.54,1-.84a18.1,18.1,0,0,0,1.39-1.38c.2-.23.41-.45.59-.69A17.55,17.55,0,0,0,44,36.43a17.19,17.19,0,0,0,1-2.13,12,12,0,0,0,.66-2.36c.1-.6.19-1.2.24-1.81C45.87,29.8,45.82,29.48,45.84,29.1Z"/><path class="cls-13" d="M45.84,29.1c0,.38,0,.7,0,1-.05.61-.14,1.21-.24,1.81A12,12,0,0,1,45,34.3a17.19,17.19,0,0,1-1,2.13,17.55,17.55,0,0,1-1.45,2.18c-.18.24-.39.46-.59.69a18.1,18.1,0,0,1-1.39,1.38c-.32.3-.67.57-1,.84a12.58,12.58,0,0,1-1.49,1,20.41,20.41,0,0,1-2.24,1.13c-.46.18-.88.42-1.34.6a6.08,6.08,0,0,1-2.06.48,5.37,5.37,0,0,1-.57,0,1.12,1.12,0,0,1-1-.75c-.13-.27-.29-.53-.42-.8a4.3,4.3,0,0,1-.3-.94l0-.1a3.83,3.83,0,0,1-.45-1.36,2.42,2.42,0,0,1-.05-1.1c.07-.36.09-.72.17-1.07a5.58,5.58,0,0,0,.15-1.15,7.45,7.45,0,0,1,.3-1.55l.06-.32a1.3,1.3,0,0,1,.24-.52,6.37,6.37,0,0,0,.51-1,1.77,1.77,0,0,1,.33-.52,3.77,3.77,0,0,0,.5-.75c.22-.38.52-.71.77-1.07a11.58,11.58,0,0,1,1-1.23,9.91,9.91,0,0,1,1-.87,9.65,9.65,0,0,1,1.45-1c.37-.21.74-.4,1.13-.58a14.32,14.32,0,0,1,1.69-.64,13.42,13.42,0,0,1,1.65-.34,8.42,8.42,0,0,1,1-.09,8.7,8.7,0,0,1,.89,0c.43,0,.85.09,1.28.13s.72.15,1.08.19a1.11,1.11,0,0,1,1,1.19C45.76,28.69,45.9,28.91,45.84,29.1Zm-.5,1.7a4.25,4.25,0,0,0-.13-1.06.48.48,0,0,0-.34-.38A8.84,8.84,0,0,0,43.26,29a11.31,11.31,0,0,0-1.93-.12c-.35,0-.69.07-1,.11a8.42,8.42,0,0,0-2.07.59,8.2,8.2,0,0,0-1.75,1A8.34,8.34,0,0,0,35,31.91a10.89,10.89,0,0,0-1.5,2.23A8.94,8.94,0,0,0,32.73,37a7,7,0,0,0,0,1.37,9.4,9.4,0,0,0,.42,2.11,8,8,0,0,0,1.14,2.3.9.9,0,0,0,.69.44,3.16,3.16,0,0,0,.69-.06,5.93,5.93,0,0,0,1.25-.42,10,10,0,0,0,2-1A20.83,20.83,0,0,0,41,39.87,12.77,12.77,0,0,0,42.69,38a14.36,14.36,0,0,0,.83-1.3,20.9,20.9,0,0,0,1.14-2.33A9.12,9.12,0,0,0,45.34,30.8Z"/><path class="cls-14" d="M45.34,30.8a9.12,9.12,0,0,1-.68,3.57,20.9,20.9,0,0,1-1.14,2.33,14.36,14.36,0,0,1-.83,1.3A12.77,12.77,0,0,1,41,39.87a20.83,20.83,0,0,1-2.18,1.8,10,10,0,0,1-2,1,5.93,5.93,0,0,1-1.25.42,3.16,3.16,0,0,1-.69.06.9.9,0,0,1-.69-.44,8,8,0,0,1-1.14-2.3,9.4,9.4,0,0,1-.42-2.11,7,7,0,0,1,0-1.37,8.94,8.94,0,0,1,.72-2.83A10.89,10.89,0,0,1,35,31.91a8.34,8.34,0,0,1,1.52-1.39,8.2,8.2,0,0,1,1.75-1,8.42,8.42,0,0,1,2.07-.59c.35,0,.69-.1,1-.11a11.31,11.31,0,0,1,1.93.12,8.84,8.84,0,0,1,1.61.41.48.48,0,0,1,.34.38A4.25,4.25,0,0,1,45.34,30.8ZM35.5,37.74c0,.15,0,.44.08.74a5.76,5.76,0,0,0,1,2.51c.13.2.24.43.51.52a1.36,1.36,0,0,0,.87,0,4.57,4.57,0,0,0,1.36-.68,13,13,0,0,0,1.19-.92,12.06,12.06,0,0,0,1.73-1.77,9.84,9.84,0,0,0,.93-1.44A11.87,11.87,0,0,0,44.29,34a3.32,3.32,0,0,0,.14-1.5.71.71,0,0,0-.35-.56,4.08,4.08,0,0,0-.69-.26,6,6,0,0,0-2-.21c-.32,0-.63.05-.94.1a5.93,5.93,0,0,0-2.27,1,6.13,6.13,0,0,0-1.83,1.93A6.33,6.33,0,0,0,35.5,37.74Z"/><path class="cls-15" d="M35.5,37.74a6.33,6.33,0,0,1,.88-3.29,6.13,6.13,0,0,1,1.83-1.93,5.93,5.93,0,0,1,2.27-1c.31,0,.62-.07.94-.1a6,6,0,0,1,2,.21,4.08,4.08,0,0,1,.69.26.71.71,0,0,1,.35.56,3.32,3.32,0,0,1-.14,1.5,11.87,11.87,0,0,1-1.13,2.7,9.84,9.84,0,0,1-.93,1.44A12.06,12.06,0,0,1,40.5,39.9a13,13,0,0,1-1.19.92A4.57,4.57,0,0,1,38,41.5a1.36,1.36,0,0,1-.87,0c-.27-.09-.38-.32-.51-.52a5.76,5.76,0,0,1-1-2.51C35.54,38.18,35.52,37.89,35.5,37.74Z"/><path class="cls-16" d="M15,38.71H6.78a1.46,1.46,0,0,1-1.47-1.45V12.77a1.39,1.39,0,0,1,.42-1,1.44,1.44,0,0,1,1-.44H15a1.5,1.5,0,0,1,1.48,1.48V37.23A1.48,1.48,0,0,1,15,38.71Zm-2.71-3.83a.38.38,0,0,0,.27-.1.36.36,0,0,0,.11-.26v-19a.36.36,0,0,0-.11-.26.38.38,0,0,0-.27-.1H9.49a.32.32,0,0,0-.26.1.4.4,0,0,0-.1.26v19a.36.36,0,0,0,.36.36h2.83Z"/><path class="cls-16" d="M29.1,38.71h-.87a1.47,1.47,0,0,1-1.47-1.48h0v-6H23.2v6a1.48,1.48,0,0,1-1.48,1.48h-.87a1.48,1.48,0,0,1-1.48-1.45V12.77a1.44,1.44,0,0,1,.43-1,1.42,1.42,0,0,1,1.05-.44h8.22a1.39,1.39,0,0,1,1,.44,1.36,1.36,0,0,1,.44,1V27.68a2.39,2.39,0,0,1-.64,1.68,2.22,2.22,0,0,1,.7,1.72v6.15a1.46,1.46,0,0,1-1.44,1.48H29.1ZM26.39,27.43a.36.36,0,0,0,.36-.36h0V15.48a.36.36,0,0,0-.11-.26.29.29,0,0,0-.25-.1H23.56a.38.38,0,0,0-.27.1.36.36,0,0,0-.11.26V27.41Z"/><path class="cls-16" d="M43.17,38.71H34.91a1.47,1.47,0,0,1-1.47-1.48h0V12.77a1.39,1.39,0,0,1,.43-1,1.41,1.41,0,0,1,1-.44h8.26a1.49,1.49,0,0,1,1.09.44,1.39,1.39,0,0,1,.43,1v4.15A1.11,1.11,0,0,1,43.58,18H42a1.11,1.11,0,0,1-1.11-1.1h0V15.48a.34.34,0,0,0-.12-.26.35.35,0,0,0-.26-.1H37.63a.32.32,0,0,0-.26.1.36.36,0,0,0-.11.26v19a.36.36,0,0,0,.11.26.32.32,0,0,0,.26.1h2.83a.35.35,0,0,0,.26-.1.34.34,0,0,0,.12-.26V31.59a.32.32,0,0,0-.12-.25.36.36,0,0,0-.26-.11h-.67a1.46,1.46,0,0,1-1.47-1.45v-.9a1.46,1.46,0,0,1,1.45-1.47h3.4a1.46,1.46,0,0,1,1.06.43,1.4,1.4,0,0,1,.43,1v8.35a1.41,1.41,0,0,1-.4,1.05A1.53,1.53,0,0,1,43.17,38.71Z"/></svg>