<svg id="Слой_1" data-name="Слой 1" xmlns="http://www.w3.org/2000/svg" viewBox="0 0 50 50"><defs><style>.cls-1{fill:#fff;}</style></defs><path d="M25,48.67a15.42,15.42,0,0,1-2.16-.09,22.17,22.17,0,0,1-2.92-.46A27,27,0,0,1,17,47.28a13.72,13.72,0,0,1-1.73-.72c-.57-.28-1.15-.53-1.7-.84a23.9,23.9,0,0,1-2.1-1.32,21.47,21.47,0,0,1-1.91-1.51c-.34-.3-.71-.57-1-.9-.71-.72-1.4-1.47-2-2.26-.43-.52-.81-1.09-1.19-1.65a24,24,0,0,1-1.42-2.45,20.69,20.69,0,0,1-1.22-3,21.18,21.18,0,0,1-.69-2.48c-.14-.73-.27-1.47-.36-2.21s-.12-1.55-.17-2.33a15.14,15.14,0,0,1,0-1.65c0-.73.13-1.46.23-2.19a22.6,22.6,0,0,1,1.72-6A24.88,24.88,0,0,1,4.9,12.93c.22-.37.49-.71.73-1.07A14,14,0,0,1,6.85,10.3a7.93,7.93,0,0,1,.83-.91c.22-.18.39-.42.59-.62a21.18,21.18,0,0,1,2.3-1.91c.4-.29.85-.53,1.23-.86.12-.11.3-.12.44-.21A13.35,13.35,0,0,1,14.41,4.7c.48-.19,1-.33,1.44-.49A12.38,12.38,0,0,1,17.21,4h.06c.18.18.44.19.64.31s.25.1.26.31.1.3,0,.45v0c.12.22,0,.44,0,.66a1,1,0,0,1,0,.42,6.09,6.09,0,0,0-.19,1.28c-.06.46,0,.92,0,1.39a7.23,7.23,0,0,0,.17,1.91c.09.41.13.83.24,1.23a3,3,0,0,0,.25.71,4.58,4.58,0,0,1,.33.71,2.34,2.34,0,0,0,.27.49c.26.38.54.75.82,1.12a.88.88,0,0,0,1,.17c.22-.11.44-.22.65-.35s.12-.26.27-.35c.36-.21.65-.52,1-.75s.51-.26.63-.55a.24.24,0,0,1,.09-.11,10,10,0,0,0,1-.61c.19-.11.37-.26.56-.37.44-.26.85-.57,1.3-.81a5.32,5.32,0,0,1,.67-.35,5.83,5.83,0,0,0,.62-.39,5,5,0,0,1,1-.4.14.14,0,0,0,.11-.07.64.64,0,0,1,.52-.29c.09,0,.12-.09.2-.12a7.42,7.42,0,0,0,1.1-.44,6.36,6.36,0,0,1,1.06-.38,1.73,1.73,0,0,0,.24-.1c.19-.15.44-.11.65-.19A6.3,6.3,0,0,1,34,8.24l.12-.05A2.23,2.23,0,0,1,35.08,8s.08,0,.1,0c.27-.33.68-.1,1-.24s.44,0,.65,0a1.87,1.87,0,0,1,.58,0,4.57,4.57,0,0,1,2.29.75.53.53,0,0,0,.35.17.25.25,0,0,1,.15.06,7.13,7.13,0,0,0,1,.72c.08.07.12.16.19.22.32.29.64.58,1,.86a2.85,2.85,0,0,1,.23.26c.34.33.65.69,1,1a16.7,16.7,0,0,1,1.09,1.42,12.62,12.62,0,0,1,1,1.42l.58,1A13,13,0,0,1,46.82,17a22.26,22.26,0,0,1,.94,2.51,18,18,0,0,1,.53,2.31l.24,1.77a5.46,5.46,0,0,1,0,.56c0,.48.07.95,0,1.44q0,.45,0,.9a19.3,19.3,0,0,1-.2,2.28A20,20,0,0,1,48,31a23.16,23.16,0,0,1-1.37,4,23.75,23.75,0,0,1-1.85,3.35,22.86,22.86,0,0,1-1.64,2.17c-.33.39-.7.74-1,1.11A16.08,16.08,0,0,1,40.63,43a25.19,25.19,0,0,1-2.13,1.6,16.5,16.5,0,0,1-1.55,1,27.52,27.52,0,0,1-2.73,1.33,21.92,21.92,0,0,1-2.48.84c-.5.15-1,.27-1.5.38s-.89.18-1.34.24-.9.13-1.34.18a9,9,0,0,1-1,.1C26,48.63,25.47,48.72,25,48.67ZM20.44,22.32a.51.51,0,0,0-.06-.2c-.09-.16-.3-.25-.26-.5,0-.07,0-.26-.17-.29s-.16,0-.16-.13.06-.14.15-.18.16-.09.1-.17,0-.2.11-.26l.21-.13c.05,0,.11-.1.05-.15s0-.22,0-.31.16-.07.05-.15,0-.2,0-.25.09-.24,0-.34a.48.48,0,0,0-.16-.12c-.36-.23-.78-.39-.9-.86,0,0-.06-.07-.1-.11a.38.38,0,0,1-.11-.14A.32.32,0,0,0,19,17.8a.26.26,0,0,1-.16-.09,4,4,0,0,1-.43-.49A10.74,10.74,0,0,1,17.13,15c-.08-.21-.18-.42-.26-.64A2.71,2.71,0,0,1,16.7,14c-.06-.22-.11-.45-.18-.68a7,7,0,0,1-.33-1.13,18,18,0,0,1-.34-2.74c0-.41,0-.82,0-1.23a3.37,3.37,0,0,1,0-.55,5.29,5.29,0,0,1,.07-.8c.05-.29-.2-.51-.15-.79,0,0,0,0,0,0-.22-.06-.43-.23-.66-.18a7,7,0,0,0-.8.14,9.89,9.89,0,0,0-2.61,1.17,16.57,16.57,0,0,0-2.1,1.53C9,9.11,8.51,9.58,8,10.08c-.29.28-.54.58-.81.88-.41.48-.79,1-1.16,1.48S5.31,13.54,5,14.11s-.6,1.09-.88,1.64a18.36,18.36,0,0,0-.84,2.05,22.25,22.25,0,0,0-.75,2.53,21.94,21.94,0,0,0-.38,2.27c-.06.51-.14,1-.15,1.54A28.54,28.54,0,0,0,2,27.34c.08.75.17,1.49.31,2.22a22.51,22.51,0,0,0,1,3.61c.26.68.54,1.36.86,2A21.59,21.59,0,0,0,6.56,39,20.77,20.77,0,0,0,8.34,41c.46.47.93.93,1.43,1.36A26.57,26.57,0,0,0,12,44.13c.64.44,1.31.83,2,1.2a22.06,22.06,0,0,0,2.41,1.14c.71.29,1.44.53,2.17.75a7.39,7.39,0,0,0,2.33.38,2.42,2.42,0,0,1,.47,0,15.85,15.85,0,0,0,2.66.24h.1a10.07,10.07,0,0,1,1.21-.11,18.82,18.82,0,0,0,3.27-.26,3.46,3.46,0,0,0,.84-.16l.3,0a5.23,5.23,0,0,1,1-.15.09.09,0,0,0,.08,0h.09c.33,0,.64-.15,1-.18-.25.22-.63.16-.9.42a19.58,19.58,0,0,0,2.36-.71c.52-.19,1-.41,1.53-.63a22.91,22.91,0,0,0,6.65-4.51l1-1c.15-.16.3-.32.44-.49a23.15,23.15,0,0,0,1.66-2.27A25.48,25.48,0,0,0,46,35.32,23.38,23.38,0,0,0,47.25,32a20.92,20.92,0,0,0,.67-3.35c.08-.65.13-1.31.15-2,0-.47,0-1,0-1.43a23.83,23.83,0,0,0-.23-2.52,18.62,18.62,0,0,0-.89-3.51A16.67,16.67,0,0,0,45.42,16a15.48,15.48,0,0,0-1.21-1.78A13.6,13.6,0,0,0,43,13a6.84,6.84,0,0,0-1.35-1,3,3,0,0,0-1.92-.4l-1.49.16a20.16,20.16,0,0,0-2.32.43c-.65.18-1.32.32-2,.54s-1.42.46-2.1.75c-.41.18-.82.35-1.23.54a4,4,0,0,0-.43.19,7.67,7.67,0,0,1-1,.52,10.46,10.46,0,0,0-1.46.84c-.38.23-.74.48-1.1.74l-1.33,1c-.45.35-.88.73-1.31,1.1-.21.18-.43.33-.64.51a3.75,3.75,0,0,1-1,.63c-.07,0-.22.05-.18.1s0,.33.21.37a1,1,0,0,1,.78.7c0,.14,0,.29.17.39a.16.16,0,0,1,0,.19,1.91,1.91,0,0,1-.18.54.87.87,0,0,1-.31.14,1,1,0,0,0-.56.24.72.72,0,0,1-.46.2c-.11,0-.2.07-.31,0a1.56,1.56,0,0,0-1,0C20.52,22.41,20.49,22.34,20.44,22.32Z"/><path d="M30.94,47.14h-.09c-.06-.06-.07,0-.08,0a5.23,5.23,0,0,0-1,.15l-.3,0c-.05-.07-.12,0-.19,0-.27,0-.54.09-.81.11l-1.77,0c-.07,0-.16,0-.22,0a.12.12,0,0,1,.11,0c.41,0,.81-.07,1.21-.13.82-.14,1.64-.25,2.45-.4A13.26,13.26,0,0,0,33.08,46a2,2,0,0,0,.64-.33,13.46,13.46,0,0,0,2-.84,22.41,22.41,0,0,0,3.7-2.3A20.22,20.22,0,0,0,41.31,41a15.91,15.91,0,0,0,1.52-1.66c.34-.42.68-.85,1-1.3a23.32,23.32,0,0,0,1.29-2.22c.26-.5.49-1,.72-1.53a15.08,15.08,0,0,0,.86-2.82c.17-.73.31-1.47.41-2.22a22.39,22.39,0,0,0,.15-2.31,14.38,14.38,0,0,0-.07-1.73A12.06,12.06,0,0,0,47,23.83c-.1-.53-.23-1.06-.38-1.58a7.52,7.52,0,0,0-1.14-2.45,1.42,1.42,0,0,0-1.43-.71c-.35.05-.69.16-1,.22a15.18,15.18,0,0,1-1.78.22c-.41,0-.82.09-1.24.12a11.45,11.45,0,0,0-1.64.27c-.59.14-1.19.25-1.77.43a19.12,19.12,0,0,0-2.55,1c-.32.15-.61.35-.93.48a9.24,9.24,0,0,0-1.24.67c-.67.4-1.37.73-2.06,1.09a3.51,3.51,0,0,0-1.24.81,1.62,1.62,0,0,1-.19.18c-.35.36-.86.55-1.1,1,0,0,0,0-.06.06a3.48,3.48,0,0,0-.58.57,2.68,2.68,0,0,1-.89.68,1.24,1.24,0,0,1-.47-.24.12.12,0,0,0-.11,0c-.27.07-.17-.08-.12-.19s.11-.2,0-.28,0-.06,0-.08c.13-.2,0-.46.16-.65s0-.18-.11-.18a2.19,2.19,0,0,1-.57,0c-.24,0-.48-.05-.72-.09s-.36.06-.49,0a.72.72,0,0,0-.39-.09,1.87,1.87,0,0,1-.58,0,1.13,1.13,0,0,1,0-.18c0-.22-.21-.4-.1-.64a0,0,0,0,0,0,0c-.11-.07-.07-.15,0-.25s.1-.25-.07-.33,0-.12,0-.19.17-.12.13-.19-.25-.3-.14-.51c-.13-.08-.08-.22-.13-.33a.72.72,0,0,0,.46-.2,1,1,0,0,1,.56-.24.87.87,0,0,0,.31-.14.34.34,0,0,0,.26.17c.16,0,.28.08.27.27a.15.15,0,0,0,.07.14c.2.1.25.38.51.4,0,0,.06.06.08.09a.59.59,0,0,0,.93,0,1.87,1.87,0,0,1,.32-.31c.11-.08.25-.13.32-.23a5.36,5.36,0,0,1,.57-.69c.12-.12.18-.3.32-.41.3-.23.61-.46.9-.7a5.51,5.51,0,0,1,.76-.59,6.29,6.29,0,0,0,.67-.48,1.17,1.17,0,0,1,.44-.29,1.28,1.28,0,0,0,.44-.26,6.74,6.74,0,0,1,1.28-.78c.44-.22.89-.46,1.36-.66l.58-.25c.23-.1.49-.16.73-.27.94-.41,1.95-.58,2.92-.9h.14c.37-.06.73-.09,1.09-.18.06,0,.1-.06.17,0a3.26,3.26,0,0,0,.62-.06c.39,0,.77-.13,1.16-.13s.91,0,1.36-.06.89,0,1.34,0a1.83,1.83,0,0,1,.76.2,3.4,3.4,0,0,1,1.08.92,8.11,8.11,0,0,1,.57.83,10.82,10.82,0,0,1,.82,1.29,12.55,12.55,0,0,1,.67,1.6c.13.38.25.77.35,1.16a19.4,19.4,0,0,1,.41,2.4,17.94,17.94,0,0,1,.13,1.8c0,.82,0,1.64-.07,2.46s-.19,1.52-.33,2.28-.48,1.75-.67,2.64A16.58,16.58,0,0,1,45.86,35a11.16,11.16,0,0,1-.5,1,14.46,14.46,0,0,1-1,1.68A18.51,18.51,0,0,1,41.75,41c-.38.36-.75.74-1.14,1.1a20.41,20.41,0,0,1-2.35,1.81c-.55.38-1.14.7-1.72,1a18.55,18.55,0,0,1-2.9,1.34,23.81,23.81,0,0,1-2.61.8C31,47.07,30.94,47.08,30.94,47.14Z"/><path d="M30.94,47.14c0-.06,0-.07.09-.09a23.81,23.81,0,0,0,2.61-.8,18.55,18.55,0,0,0,2.9-1.34c.58-.34,1.17-.66,1.72-1a20.41,20.41,0,0,0,2.35-1.81c.39-.36.76-.74,1.14-1.1a18.51,18.51,0,0,0,2.59-3.2,14.46,14.46,0,0,0,1-1.68,11.16,11.16,0,0,0,.5-1,16.58,16.58,0,0,0,.69-1.85c.19-.89.52-1.74.67-2.64s.25-1.52.33-2.28.07-1.64.07-2.46a17.94,17.94,0,0,0-.13-1.8,19.4,19.4,0,0,0-.41-2.4c-.1-.39-.22-.78-.35-1.16a12.55,12.55,0,0,0-.67-1.6,10.82,10.82,0,0,0-.82-1.29,8.11,8.11,0,0,0-.57-.83,3.4,3.4,0,0,0-1.08-.92,1.83,1.83,0,0,0-.76-.2c-.45,0-.89,0-1.34,0s-.9.07-1.36.06-.77.12-1.16.13a3.26,3.26,0,0,1-.62.06c-.07,0-.11,0-.17,0-.36.09-.72.12-1.09.18H37c-1,.32-2,.49-2.92.9-.24.11-.5.17-.73.27l-.58.25c-.47.2-.92.44-1.36.66a6.74,6.74,0,0,0-1.28.78,1.28,1.28,0,0,1-.44.26,1.17,1.17,0,0,0-.44.29,6.29,6.29,0,0,1-.67.48,5.51,5.51,0,0,0-.76.59c-.29.24-.6.47-.9.7-.14.11-.2.29-.32.41a5.36,5.36,0,0,0-.57.69c-.07.1-.21.15-.32.23a1.87,1.87,0,0,0-.32.31.59.59,0,0,1-.93,0s-.05-.09-.08-.09c-.26,0-.31-.3-.51-.4a.15.15,0,0,1-.07-.14c0-.19-.11-.26-.27-.27a.34.34,0,0,1-.26-.17,1.91,1.91,0,0,0,.18-.54.16.16,0,0,0,0-.19c-.14-.1-.12-.25-.17-.39a1,1,0,0,0-.78-.7c-.25,0-.13-.25-.21-.37s.11-.07.18-.1a3.75,3.75,0,0,0,1-.63c.21-.18.43-.33.64-.51.43-.37.86-.75,1.31-1.1l1.33-1c.36-.26.72-.51,1.1-.74a10.46,10.46,0,0,1,1.46-.84,7.67,7.67,0,0,0,1-.52,4,4,0,0,1,.43-.19c.41-.19.82-.36,1.23-.54.68-.29,1.4-.5,2.1-.75s1.31-.36,2-.54a20.16,20.16,0,0,1,2.32-.43l1.49-.16a3,3,0,0,1,1.92.4A6.84,6.84,0,0,1,43,13a13.6,13.6,0,0,1,1.18,1.22A15.48,15.48,0,0,1,45.42,16a16.67,16.67,0,0,1,1.51,3.23,18.62,18.62,0,0,1,.89,3.51,23.83,23.83,0,0,1,.23,2.52c0,.48,0,1,0,1.43,0,.66-.07,1.32-.15,2A20.92,20.92,0,0,1,47.25,32,23.38,23.38,0,0,1,46,35.32a25.48,25.48,0,0,1-1.41,2.5,23.15,23.15,0,0,1-1.66,2.27c-.14.17-.29.33-.44.49l-1,1A22.91,22.91,0,0,1,34.9,46c-.51.22-1,.44-1.53.63a19.58,19.58,0,0,1-2.36.71c.27-.26.65-.2.9-.42C31.58,47,31.27,47.13,30.94,47.14Z"/><path d="M26.45,47.43c.06.07.15,0,.22,0l1.77,0c.27,0,.54-.07.81-.11.07,0,.14,0,.19,0a3.46,3.46,0,0,1-.84.16,18.82,18.82,0,0,1-3.27.26,10.07,10.07,0,0,0-1.21.11H24a15.85,15.85,0,0,1-2.66-.24,2.42,2.42,0,0,0-.47,0,7.39,7.39,0,0,1-2.33-.38c-.73-.22-1.46-.46-2.17-.75A22.06,22.06,0,0,1,14,45.33c-.67-.37-1.34-.76-2-1.2A26.57,26.57,0,0,1,9.77,42.4c-.5-.43-1-.89-1.43-1.36A20.77,20.77,0,0,1,6.56,39a21.59,21.59,0,0,1-2.33-3.78c-.32-.65-.6-1.33-.86-2a22.51,22.51,0,0,1-1-3.61c-.14-.73-.23-1.47-.31-2.22A28.54,28.54,0,0,1,2,24.14c0-.52.09-1,.15-1.54a21.94,21.94,0,0,1,.38-2.27,22.25,22.25,0,0,1,.75-2.53,18.36,18.36,0,0,1,.84-2.05c.28-.55.56-1.11.88-1.64S5.64,13,6,12.44s.75-1,1.16-1.48c.27-.3.52-.6.81-.88.51-.5,1-1,1.57-1.43a16.57,16.57,0,0,1,2.1-1.53A9.89,9.89,0,0,1,14.28,6a7,7,0,0,1,.8-.14c.23,0,.44.12.66.18,0,0,0,0,0,0,0,.28.2.5.15.79a5.29,5.29,0,0,0-.07.8,3.37,3.37,0,0,0,0,.55c0,.41,0,.82,0,1.23a18,18,0,0,0,.34,2.74,7,7,0,0,0,.33,1.13c.07.23.12.46.18.68a2.71,2.71,0,0,0,.17.39c.08.22.18.43.26.64a10.74,10.74,0,0,0,1.28,2.23,4,4,0,0,0,.43.49.26.26,0,0,0,.16.09.32.32,0,0,1,.27.23.38.38,0,0,0,.11.14s.09.07.1.11c.12.47.54.63.9.86a.48.48,0,0,1,.16.12c.09.1.14.22,0,.34s-.17.14,0,.25,0,.11-.05.15-.23.17,0,.31,0,.11-.05.15l-.21.13c-.1.06-.22.1-.11.26s0,.15-.1.17-.15.1-.15.18.08.11.16.13.18.22.17.29c0,.25.17.34.26.5a.51.51,0,0,1,.06.2c-.06,0-.13.07-.11.13s0,.21-.16.28a2.07,2.07,0,0,0-.73.71.78.78,0,0,0-.16,0c-.22.09-.77-.06-.81-.27s-.25-.29-.32-.49-.41-.36-.44-.66c0,0,0,0,0-.05s-.26-.21-.46-.13a.24.24,0,0,1-.24-.09,1.72,1.72,0,0,0-.35-.25,10,10,0,0,1-.88-.84c-.23-.2-.36-.49-.58-.7a3,3,0,0,1-.4-.54,11.71,11.71,0,0,1-.82-1.62,22.59,22.59,0,0,1-.86-2.64c-.06-.21-.08-.43-.15-.64s-.17-.62-.25-.93a9.56,9.56,0,0,1-.26-1.18c0-.26-.12-.52-.13-.79s-.07-.61-.1-.91-.07-.62-.09-.94,0-.48-.36-.75h0c-.06-.22-.23-.12-.35-.1a1.26,1.26,0,0,0-.47.12,11.3,11.3,0,0,0-1.28.79,12.57,12.57,0,0,0-2.22,2,18.85,18.85,0,0,0-1.3,1.65,21.39,21.39,0,0,0-1.68,3,19.79,19.79,0,0,0-1,2.69,19.53,19.53,0,0,0-.68,3,22,22,0,0,0-.23,2.69A21,21,0,0,0,2.66,28a22,22,0,0,0,.41,2.43,24.47,24.47,0,0,0,.69,2.36A19.47,19.47,0,0,0,5,35.55a20.49,20.49,0,0,0,1.9,3,22.93,22.93,0,0,0,1.75,2.06,25.23,25.23,0,0,0,1.86,1.73,20.25,20.25,0,0,0,1.66,1.27,23.78,23.78,0,0,0,3.8,2.09c.82.35,1.65.66,2.5.93a20.76,20.76,0,0,0,2.2.54,13.31,13.31,0,0,0,2.27.21c.32,0,.65,0,1,0a3.37,3.37,0,0,0,.84.07C25.3,47.45,25.88,47.43,26.45,47.43Z"/><path d="M19.44,23.44a2.07,2.07,0,0,1,.73-.71c.11-.07.2-.13.16-.28s.05-.1.11-.13.08.09.16.06a1.56,1.56,0,0,1,1,0c.11,0,.2,0,.31,0s0,.25.13.33c-.11.21.06.35.14.51s-.1.11-.13.19-.1.15,0,.19.11.21.07.33-.07.18,0,.25a0,0,0,0,1,0,0c-.11.24.11.42.1.64a1.13,1.13,0,0,0,0,.18c-.37,0-.66.39-1.07.26h0a.63.63,0,0,1-.38.07h0c-.24-.22-.29-.57-.53-.79.06-.2-.13-.26-.23-.35s-.28-.21-.25-.41a.09.09,0,0,0-.05-.09C19.56,23.67,19.52,23.53,19.44,23.44Z"/><path d="M30.77,47.18s0-.1.08,0A.09.09,0,0,1,30.77,47.18Z"/><path d="M25.75,26.88a2.68,2.68,0,0,0,.89-.68,3.48,3.48,0,0,1,.58-.57s.05,0,.06-.06c.24-.47.75-.66,1.1-1a1.62,1.62,0,0,0,.19-.18,3.51,3.51,0,0,1,1.24-.81c.69-.36,1.39-.69,2.06-1.09a9.24,9.24,0,0,1,1.24-.67c.32-.13.61-.33.93-.48a19.12,19.12,0,0,1,2.55-1c.58-.18,1.18-.29,1.77-.43A11.45,11.45,0,0,1,40,19.65c.42,0,.83-.09,1.24-.12A15.18,15.18,0,0,0,43,19.31c.35-.06.69-.17,1-.22a1.42,1.42,0,0,1,1.43.71,7.52,7.52,0,0,1,1.14,2.45c.15.52.28,1.05.38,1.58a12.06,12.06,0,0,1,.16,1.33,14.38,14.38,0,0,1,.07,1.73,22.39,22.39,0,0,1-.15,2.31c-.1.75-.24,1.49-.41,2.22a15.08,15.08,0,0,1-.86,2.82c-.23.52-.46,1-.72,1.53A23.32,23.32,0,0,1,43.81,38c-.3.45-.64.88-1,1.3A15.91,15.91,0,0,1,41.31,41a20.22,20.22,0,0,1-1.85,1.6,22.41,22.41,0,0,1-3.7,2.3,13.46,13.46,0,0,1-2,.84,2.85,2.85,0,0,0-.58.12,8.2,8.2,0,0,1-1.08.29c0-.05,0-.07.07-.09.65-.22,1.27-.52,1.9-.78a22.85,22.85,0,0,0,2.52-1.14,24.26,24.26,0,0,0,2.73-1.74A19.5,19.5,0,0,0,42,39.91a18.65,18.65,0,0,0,1.28-1.54,25.35,25.35,0,0,0,2.09-3.6,11.88,11.88,0,0,0,.55-1.55,6.76,6.76,0,0,1,.17-.68,7.6,7.6,0,0,0,.43-1.67,11,11,0,0,0,.19-1.15c.06-.53.13-1,.15-1.58a14.26,14.26,0,0,0-.13-2.53A7.48,7.48,0,0,0,46.37,24a9.62,9.62,0,0,0-.48-1.15,1.26,1.26,0,0,0-1.11-.76c-.36,0-.72,0-1.09,0a7.26,7.26,0,0,0-1.14.06c-.42,0-.83.09-1.25.17s-.85.13-1.28.2-.65.15-1,.21-.84.2-1.26.31a15.19,15.19,0,0,0-2,.63l-1.52.61q-.73.32-1.44.66a6.87,6.87,0,0,0-1,.52c-.29.2-.58.4-.86.61a1.71,1.71,0,0,0-.43.36,8,8,0,0,1-1,1.07,16,16,0,0,1-1.08,1.24,5.66,5.66,0,0,0-.67.86c-.4.55-.78,1.11-1.16,1.67a1,1,0,0,1-.61.5c-.14,0-.35.05-.43.16-.19.28-.47.51-.52.87a1.33,1.33,0,0,1-.17.47,3.39,3.39,0,0,0-.29.68c-.1,0-.18,0-.22-.11a.22.22,0,0,0-.27-.15.21.21,0,0,1-.28-.11.3.3,0,0,0-.34-.16c-.13,0-.15,0-.12-.13a.23.23,0,0,0-.14-.3.47.47,0,0,1,.07-.37c.27-.3.23-.72.45-1a.25.25,0,0,0,0-.21,1,1,0,0,1,0-.63.1.1,0,0,0,0-.09c-.15-.17-.07-.32,0-.47a.17.17,0,0,0,0-.14c-.08-.18.05-.26.15-.38a5.27,5.27,0,0,0,.57-.59,1.86,1.86,0,0,1,.42-.42,3.08,3.08,0,0,0,.24-.27c.22-.26.24-.61.42-.89A1,1,0,0,0,25.75,26.88Z"/><path d="M25.75,26.88a1,1,0,0,1-.16.57c-.18.28-.2.63-.42.89a3.08,3.08,0,0,1-.24.27,1.86,1.86,0,0,0-.42.42,5.27,5.27,0,0,1-.57.59c-.1.12-.23.2-.15.38a.17.17,0,0,1,0,.14c-.09.15-.17.3,0,.47a.1.1,0,0,1,0,.09,1,1,0,0,0,0,.63.25.25,0,0,1,0,.21c-.22.31-.18.73-.45,1a.47.47,0,0,0-.07.37,1.68,1.68,0,0,0-.2.34c-.17.29-.42.54-.41.91,0,.21-.21.36-.21.55,0,.46-.41.73-.53,1.13,0,.08-.13.06-.2.06a.06.06,0,0,1-.06-.09c.07-.21-.08-.19-.21-.2a.85.85,0,0,1-.44-.16c-.17-.11-.14-.27-.22-.39a.58.58,0,0,1-.09-.39c0-.13,0-.32,0-.4a.84.84,0,0,1-.18-.52c0-.1,0-.14-.16-.08s-.2.15-.33.15a3,3,0,0,1-1.08,0,3.84,3.84,0,0,1-.14-.8c0-.4-.28-.78-.12-1.19a.08.08,0,0,0,0-.07c-.21-.14-.13-.35-.15-.53s0-.15-.05-.19-.1-.2,0-.32.11-.13.09-.22a4.09,4.09,0,0,1,.44-.39c.09-.05.24-.08.25-.19a2,2,0,0,1,.37-.85.17.17,0,0,0,0-.12.18.18,0,0,1,0-.19,1.89,1.89,0,0,0,.25-.71c0-.14.2-.23.13-.35s0-.23.07-.35.18-.13.07-.24,0-.16,0-.23.29-.28.23-.52c0,0,0-.08,0-.11.26-.28.21-.7.45-1a.63.63,0,0,0,.38-.07h0c.41.13.7-.21,1.07-.26a1.87,1.87,0,0,0,.58,0,.72.72,0,0,1,.39.09c.13.08.32,0,.49,0s.48,0,.72.09a2.19,2.19,0,0,0,.57,0c.15,0,.25,0,.11.18s0,.45-.16.65c0,0,0,.07,0,.08s.07.17,0,.28-.15.26.12.19a.12.12,0,0,1,.11,0A1.24,1.24,0,0,0,25.75,26.88Z"/><path d="M32.06,46.1a8.2,8.2,0,0,0,1.08-.29,2.85,2.85,0,0,1,.58-.12,2,2,0,0,1-.64.33,13.26,13.26,0,0,1-2.86.84c-.81.15-1.63.26-2.45.4-.4.06-.8.09-1.21.13a.12.12,0,0,0-.11,0c-.57,0-1.15,0-1.73,0a3.37,3.37,0,0,1-.84-.07c.18-.16.42-.05.63-.13s.44,0,.61-.2l.72-.06,1.52-.15c.28,0,.57,0,.86-.08l1.26-.17a1.86,1.86,0,0,1,.33,0,6.85,6.85,0,0,0,1.79-.3A1.42,1.42,0,0,1,32.06,46.1Z"/><path d="M25.12,47c-.17.17-.41.13-.61.2s-.45,0-.63.13c-.33,0-.66,0-1,0a13.31,13.31,0,0,1-2.27-.21,20.76,20.76,0,0,1-2.2-.54c-.85-.27-1.68-.58-2.5-.93a23.78,23.78,0,0,1-3.8-2.09,20.25,20.25,0,0,1-1.66-1.27,25.23,25.23,0,0,1-1.86-1.73,22.93,22.93,0,0,1-1.75-2.06,20.49,20.49,0,0,1-1.9-3,19.47,19.47,0,0,1-1.2-2.77,24.47,24.47,0,0,1-.69-2.36A22,22,0,0,1,2.66,28a21,21,0,0,1-.15-3.07,22,22,0,0,1,.23-2.69,19.53,19.53,0,0,1,.68-3,19.79,19.79,0,0,1,1-2.69,21.39,21.39,0,0,1,1.68-3,18.85,18.85,0,0,1,1.3-1.65,12.57,12.57,0,0,1,2.22-2,11.3,11.3,0,0,1,1.28-.79,1.26,1.26,0,0,1,.47-.12c.12,0,.29-.12.35.1h0c.34.27.33.3.36.75s.05.63.09.94.1.61.1.91.11.53.13.79a9.56,9.56,0,0,0,.26,1.18c.08.31.14.63.25.93s.09.43.15.64a22.59,22.59,0,0,0,.86,2.64,11.71,11.71,0,0,0,.82,1.62,3,3,0,0,0,.4.54c.22.21.35.5.58.7a10,10,0,0,0,.88.84,1.72,1.72,0,0,1,.35.25.24.24,0,0,0,.24.09c.2-.08.31.07.46.13s0,0,0,.05c0,.3.35.43.44.66s.28.26.32.49.59.36.81.27a.78.78,0,0,1,.16,0c.08.09.12.23.27.26a.09.09,0,0,1,.05.09c0,.2.12.29.25.41s.29.15.23.35c.24.22.29.57.53.79h0c-.24.28-.19.7-.45,1,0,0-.05.08,0,.11.06.24-.1.37-.23.52s-.15.13,0,.23,0,.18-.07.24-.16.19-.07.35-.11.21-.13.35a1.89,1.89,0,0,1-.25.71.18.18,0,0,0,0,.19.17.17,0,0,1,0,.12,2,2,0,0,0-.37.85c0,.11-.16.14-.25.19a4.09,4.09,0,0,0-.44.39c-.06-.1-.14-.09-.23,0s-.09.09-.16,0a.67.67,0,0,1-.29-.4,2.41,2.41,0,0,0-.18-.47c0-.1-.16-.09-.17-.19a.83.83,0,0,0-.34-.65.12.12,0,0,1,0-.1c0-.12-.08-.17-.16-.21s-.15.08-.21.12c-.23.14-.4.41-.73.29-.06,0-.11,0-.16.07a.41.41,0,0,1-.4.13.55.55,0,0,1-.3-.33.41.41,0,0,0-.14-.2,4.94,4.94,0,0,1-.88-.89c-.24-.29-.45-.59-.71-.86A1.51,1.51,0,0,1,13,26.4a.66.66,0,0,0-.25-.32.68.68,0,0,1-.2-.24,3.75,3.75,0,0,0-.69-1,1.44,1.44,0,0,1-.18-.25A13.77,13.77,0,0,1,10.93,23c-.21-.53-.42-1.07-.62-1.61-.12-.35-.22-.71-.34-1.06s-.27-.88-.45-1.3-.4-1-.58-1.5-.32-.85-.44-1.3a18.8,18.8,0,0,0-.63-2.06.36.36,0,0,0-.6-.19,3.76,3.76,0,0,0-1.09,1.16A13.6,13.6,0,0,0,4.94,17.2c-.32.69-.6,1.39-.85,2.1a18.35,18.35,0,0,0-.77,2.91A20.61,20.61,0,0,0,3,25.34a17.65,17.65,0,0,0,.07,1.78,14,14,0,0,0,.18,1.7A19.11,19.11,0,0,0,4,32.06a21,21,0,0,0,.87,2.28,21.53,21.53,0,0,0,3.88,5.74,21,21,0,0,0,2.57,2.32c.46.35.92.7,1.41,1A20.72,20.72,0,0,0,15,44.69c.64.3,1.29.61,1.95.88.45.18.9.33,1.33.52a7.85,7.85,0,0,0,2.44.59c.35,0,.7.09,1.06.12s.75.11,1.12.14.65,0,1,.06a1.5,1.5,0,0,0,.73,0A2.15,2.15,0,0,0,25.12,47Z"/><path d="M32.06,46.1a1.42,1.42,0,0,0-.46.12,6.85,6.85,0,0,1-1.79.3,1.86,1.86,0,0,0-.33,0c0-.09.1-.11.1-.21a6.55,6.55,0,0,1-1.77,0c.18-.06.36-.09.54-.14a5.21,5.21,0,0,1,1-.24c.1,0,.22,0,.24-.16a2.37,2.37,0,0,0,.7-.15,2.8,2.8,0,0,1,.94-.22,11.68,11.68,0,0,0,2-.33,12.22,12.22,0,0,0,1.94-.72,20.38,20.38,0,0,0,2.56-1.28,17.51,17.51,0,0,0,2-1.39c.41-.33.79-.69,1.17-1a17.38,17.38,0,0,0,2-2.17,15.25,15.25,0,0,0,1.25-1.94c.16-.3.31-.61.47-.92a10.79,10.79,0,0,0,.63-1.48c.18-.47.36-1,.52-1.43a8,8,0,0,0,.28-1.2c.05-.39.13-.77.18-1.16s.07-.72.11-1.08a8.38,8.38,0,0,0,0-1.12,11.3,11.3,0,0,0-.14-1.29,4.26,4.26,0,0,0-.48-1.63c0-.08-.09-.17-.18-.19-.34-.09-.68-.21-1-.27s-.74-.06-1.1-.13a7.66,7.66,0,0,0-1.58-.09,10.27,10.27,0,0,0-1.74.13,15.91,15.91,0,0,0-2,.44A11.78,11.78,0,0,0,36,25.9c-.63.31-1.25.64-1.85,1s-.87.66-1.31,1a5.32,5.32,0,0,0-.61.55,8.89,8.89,0,0,1-1,1,7,7,0,0,0-1.08.89,1.91,1.91,0,0,1-.7.38,2.13,2.13,0,0,1-.55.2c-.06,0-.1.06-.14.11a13.78,13.78,0,0,0-.88,1.65c-.09.16-.08.35-.17.51a2.54,2.54,0,0,0-.27.69,11.51,11.51,0,0,1-.47,1.4,2.77,2.77,0,0,0-.38,1.55c.05.27,0,.57.06.84s-.06.33,0,.47a.56.56,0,0,1,0,.4,3.54,3.54,0,0,0-.07.92,2.11,2.11,0,0,1,0,.25,3.24,3.24,0,0,0,0,.88c.06.44,0,.89.11,1.33-.18-.08-.39-.1-.39-.4,0-.13-.13-.16-.27-.1a.31.31,0,0,1-.38-.2c-.06-.24-.09-.52-.43-.55-.05,0-.05-.06-.06-.1a1.29,1.29,0,0,1-.08-.28c0-.1-.07-.13-.15-.11s-.2-.12-.18-.25,0-.41-.15-.55a.19.19,0,0,1-.07-.14,1.83,1.83,0,0,0-.16-.5.65.65,0,0,1-.13-.53.32.32,0,0,0-.08-.33c-.16-.1-.14-.22-.1-.36a2.24,2.24,0,0,0,.18-.66.85.85,0,0,1,.11-.42,1.1,1.1,0,0,0,.06-.26,4,4,0,0,0,.08-1c0-.14.13-.28.06-.42a.53.53,0,0,1,0-.39c0-.16.12-.32,0-.48a3.39,3.39,0,0,1,.29-.68,1.33,1.33,0,0,0,.17-.47c.05-.36.33-.59.52-.87.08-.11.29-.14.43-.16a1,1,0,0,0,.61-.5c.38-.56.76-1.12,1.16-1.67a5.66,5.66,0,0,1,.67-.86,16,16,0,0,0,1.08-1.24,8,8,0,0,0,1-1.07A1.71,1.71,0,0,1,31,26c.28-.21.57-.41.86-.61a6.87,6.87,0,0,1,1-.52q.7-.34,1.44-.66l1.52-.61a15.19,15.19,0,0,1,2-.63c.42-.11.83-.23,1.26-.31s.65-.16,1-.21.86-.11,1.28-.2.83-.12,1.25-.17A7.26,7.26,0,0,1,43.69,22c.37,0,.73,0,1.09,0a1.26,1.26,0,0,1,1.11.76A9.62,9.62,0,0,1,46.37,24a7.48,7.48,0,0,1,.33,1.63,14.26,14.26,0,0,1,.13,2.53c0,.53-.09,1.05-.15,1.58a11,11,0,0,1-.19,1.15,7.6,7.6,0,0,1-.43,1.67,6.76,6.76,0,0,0-.17.68,11.88,11.88,0,0,1-.55,1.55,25.35,25.35,0,0,1-2.09,3.6A18.65,18.65,0,0,1,42,39.91a19.5,19.5,0,0,1-2.69,2.44,24.26,24.26,0,0,1-2.73,1.74A22.85,22.85,0,0,1,34,45.23c-.63.26-1.25.56-1.9.78C32.08,46,32.06,46.05,32.06,46.1Z"/><path d="M24.59,33.9c.08.16,0,.32,0,.48a.53.53,0,0,0,0,.39c.07.14,0,.28-.06.42a4,4,0,0,1-.08,1,1.1,1.1,0,0,1-.06.26.85.85,0,0,0-.11.42,2.24,2.24,0,0,1-.18.66c0,.14-.06.26.1.36a.32.32,0,0,1,.08.33.65.65,0,0,0,.13.53,1.83,1.83,0,0,1,.16.5.19.19,0,0,0,.07.14c.2.14.18.34.15.55s0,.28.18.25.14,0,.15.11a1.29,1.29,0,0,0,.08.28s0,.09.06.1c.34,0,.37.31.43.55a.31.31,0,0,0,.38.2c.14-.06.28,0,.27.1,0,.3.21.32.39.4a.54.54,0,0,1,.21.41.73.73,0,0,0,.18.42.92.92,0,0,1,.2.45,4.91,4.91,0,0,0,.17.63c0,.12.18.17.22.3.08.3.32.54.36.86a.1.1,0,0,0,0,.07,1.87,1.87,0,0,0,1.09.65c.14,0,.31,0,.44.07s-.14.15-.24.16a5.21,5.21,0,0,0-1,.24c-.18,0-.36.08-.54.14a6.55,6.55,0,0,0,1.77,0c0,.1-.11.12-.1.21l-1.26.17c-.29,0-.58.05-.86.08L25.84,47l-.72.06a2.15,2.15,0,0,1-.5,0s-.05,0-.08,0a2.94,2.94,0,0,1-.67-.13,5.19,5.19,0,0,0-1.1-.2,3.06,3.06,0,0,1-.9-.23,3,3,0,0,0-1-.47,2.26,2.26,0,0,0-.17-.63,1.36,1.36,0,0,0-.27-.6.33.33,0,0,1-.09-.21c0-.34-.3-.57-.37-.89a.16.16,0,0,0-.09-.09.36.36,0,0,1-.17-.33.53.53,0,0,0-.19-.4.3.3,0,0,1-.09-.32.69.69,0,0,0-.14-.54c-.15-.23-.15-.33.05-.53a.14.14,0,0,0,0-.17.62.62,0,0,1,0-.48.63.63,0,0,0-.08-.51.49.49,0,0,1-.14-.39c0-.14,0-.3-.17-.34a.13.13,0,0,1-.08-.14.28.28,0,0,0-.1-.24.22.22,0,0,1,0-.21c0-.09,0-.2-.08-.25a.32.32,0,0,1-.19-.37.5.5,0,0,0-.15-.37s-.11-.09-.11-.17a.46.46,0,0,0,.09-.27c0-.18.15-.35,0-.53,0,0,0,0,0-.06a1.48,1.48,0,0,0,.13-.88.25.25,0,0,1,.16-.28c.11,0,.2-.13,0-.23a.12.12,0,0,1-.07-.12.86.86,0,0,0,0-.63s0-.09,0-.13a3.32,3.32,0,0,0,.24-.69,3,3,0,0,0,1.08,0c.13,0,.22-.1.33-.15s.15,0,.16.08a.84.84,0,0,0,.18.52c.08.08.05.27,0,.4a.58.58,0,0,0,.09.39c.08.12.05.28.22.39a.85.85,0,0,0,.44.16c.13,0,.28,0,.21.2a.06.06,0,0,0,.06.09c.07,0,.18,0,.2-.06.12-.4.51-.67.53-1.13,0-.19.22-.34.21-.55,0-.37.24-.62.41-.91a1.68,1.68,0,0,1,.2-.34.23.23,0,0,1,.14.3c0,.1,0,.17.12.13a.3.3,0,0,1,.34.16.21.21,0,0,0,.28.11.22.22,0,0,1,.27.15C24.41,33.9,24.49,33.9,24.59,33.9Z"/><path d="M20.89,45.9a3,3,0,0,1,1,.47,3.06,3.06,0,0,0,.9.23,5.19,5.19,0,0,1,1.1.2,2.94,2.94,0,0,0,.67.13s.06,0,.08,0a1.5,1.5,0,0,1-.73,0c-.32,0-.65,0-1-.06s-.74-.11-1.12-.14-.71-.09-1.06-.12a7.85,7.85,0,0,1-2.44-.59c-.43-.19-.88-.34-1.33-.52-.66-.27-1.31-.58-1.95-.88a20.72,20.72,0,0,1-2.25-1.28c-.49-.31-.95-.66-1.41-1a21,21,0,0,1-2.57-2.32,21.53,21.53,0,0,1-3.88-5.74A21,21,0,0,1,4,32.06a19.11,19.11,0,0,1-.78-3.24,14,14,0,0,1-.18-1.7A17.65,17.65,0,0,1,3,25.34a20.61,20.61,0,0,1,.31-3.13,18.35,18.35,0,0,1,.77-2.91c.25-.71.53-1.41.85-2.1a13.6,13.6,0,0,1,1.24-2.08A3.76,3.76,0,0,1,7.27,14a.36.36,0,0,1,.6.19,18.8,18.8,0,0,1,.63,2.06c.12.45.29.87.44,1.3s.36,1,.58,1.5.31.87.45,1.3.22.71.34,1.06c.2.54.41,1.08.62,1.61a13.77,13.77,0,0,0,.72,1.62,1.44,1.44,0,0,0,.18.25,3.75,3.75,0,0,1,.69,1,.68.68,0,0,0,.2.24.66.66,0,0,1,.25.32,1.51,1.51,0,0,0,.38.49c.26.27.47.57.71.86a4.94,4.94,0,0,0,.88.89.41.41,0,0,1,.14.2.55.55,0,0,0,.3.33.41.41,0,0,0,.4-.13c.05-.05.1-.1.16-.07.33.12.5-.15.73-.29.06,0,.09-.18.21-.12s.17.09.16.21a.12.12,0,0,0,0,.1.83.83,0,0,1,.34.65c0,.1.14.09.17.19a2.41,2.41,0,0,1,.18.47.67.67,0,0,0,.29.4c.07.06.11,0,.16,0s.17-.07.23,0-.05.15-.09.22-.14.23,0,.32.05.12.05.19-.06.39.15.53a.08.08,0,0,1,0,.07c-.16.41.09.79.12,1.19a3.84,3.84,0,0,0,.14.8,3.32,3.32,0,0,1-.24.69s-.06.1,0,.13a.86.86,0,0,1,0,.63.12.12,0,0,0,.07.12c.16.1.07.19,0,.23a.25.25,0,0,0-.16.28,1.48,1.48,0,0,1-.13.88s0,0,0,.06c.14.18,0,.35,0,.53a.46.46,0,0,1-.09.27c-.12,0-.17-.15-.3-.16-.28,0-.4-.12-.44-.37s-.07-.17-.17-.18a.45.45,0,0,1-.23-.08c-.12-.07-.25-.11-.37-.19a.17.17,0,0,0-.21,0,.32.32,0,0,0,0,.36.73.73,0,0,1,0,.69.31.31,0,0,0,.07.39s.06.05,0,.08-.08,0-.11,0a1.37,1.37,0,0,0-.22-.19,2,2,0,0,1-.78-.75s-.06,0-.07-.08c-.09-.24-.32-.35-.49-.51a4.33,4.33,0,0,0-.75-.67,6.34,6.34,0,0,1-1.25-1.12c-.19-.17-.25-.43-.44-.61s-.21-.16,0-.28,0-.09,0-.13a4.23,4.23,0,0,1-.51-.67c-.29-.45-.76-.78-1-1.25l0,0a3.38,3.38,0,0,1-.5-.63,5.07,5.07,0,0,0-.58-.87,4.4,4.4,0,0,1-.48-.76,8.46,8.46,0,0,1-.49-1.06c-.11-.32-.26-.62-.4-.93A8.48,8.48,0,0,1,8,26.85c-.12-.35-.28-.68-.42-1s-.44-1-.69-1.46a12.14,12.14,0,0,1-.61-1.12c-.12-.27-.28-.52-.42-.78s-.31-.65-.49-1a4.3,4.3,0,0,0-.29-.7c-.05-.08-.09-.13-.19-.05a1.9,1.9,0,0,0-.58.9,11.65,11.65,0,0,0-.45,1.69c-.1.64-.17,1.28-.22,1.92a10.4,10.4,0,0,0,0,1.58c0,.55.08,1.11.13,1.66a15.86,15.86,0,0,0,.4,2.27,18.54,18.54,0,0,0,1.78,4.66A20,20,0,0,0,7.59,38a21.33,21.33,0,0,0,2.64,2.9,21,21,0,0,0,2.43,1.88A22.28,22.28,0,0,0,15,44.16c.6.3,1.21.58,1.81.86.32.15.65.28.95.44a1.25,1.25,0,0,0,.95,0,.52.52,0,0,1,.3,0l.9.24A5.64,5.64,0,0,0,20.89,45.9Z"/><path d="M29.61,45.77c-.13-.09-.3-.05-.44-.07a1.87,1.87,0,0,1-1.09-.65A.1.1,0,0,1,28,45c0-.32-.28-.56-.36-.86,0-.13-.18-.18-.22-.3a4.91,4.91,0,0,1-.17-.63.92.92,0,0,0-.2-.45.73.73,0,0,1-.18-.42.54.54,0,0,0-.21-.41c-.07-.44-.05-.89-.11-1.33a3.24,3.24,0,0,1,0-.88,2.11,2.11,0,0,0,0-.25,3.54,3.54,0,0,1,.07-.92.56.56,0,0,0,0-.4c-.06-.14,0-.31,0-.47s0-.57-.06-.84A2.77,2.77,0,0,1,27,35.27a11.51,11.51,0,0,0,.47-1.4,2.54,2.54,0,0,1,.27-.69c.09-.16.08-.35.17-.51A13.78,13.78,0,0,1,28.78,31c0-.05.08-.11.14-.11a2.13,2.13,0,0,0,.55-.2,1.91,1.91,0,0,0,.7-.38,7,7,0,0,1,1.08-.89,8.89,8.89,0,0,0,1-1,5.32,5.32,0,0,1,.61-.55c.44-.33.84-.7,1.31-1s1.22-.7,1.85-1a11.78,11.78,0,0,1,2.12-.79,15.91,15.91,0,0,1,2-.44,10.27,10.27,0,0,1,1.74-.13,7.66,7.66,0,0,1,1.58.09c.36.07.74.07,1.1.13s.69.18,1,.27c.09,0,.14.11.18.19a4.26,4.26,0,0,1,.48,1.63,11.3,11.3,0,0,1,.14,1.29,8.38,8.38,0,0,1,0,1.12c0,.36-.06.72-.11,1.08s-.13.77-.18,1.16a8,8,0,0,1-.28,1.2c-.16.48-.34,1-.52,1.43a10.79,10.79,0,0,1-.63,1.48c-.16.31-.31.62-.47.92a15.25,15.25,0,0,1-1.25,1.94,17.38,17.38,0,0,1-2,2.17c-.38.35-.76.71-1.17,1a17.51,17.51,0,0,1-2,1.39,20.38,20.38,0,0,1-2.56,1.28,12.22,12.22,0,0,1-1.94.72,11.68,11.68,0,0,1-2,.33,2.8,2.8,0,0,0-.94.22A2.37,2.37,0,0,1,29.61,45.77ZM42.46,26.88a13.61,13.61,0,0,0-3,.31,11,11,0,0,0-1.83.56,10.79,10.79,0,0,0-1.39.63,8.08,8.08,0,0,0-1.1.64c-.4.31-.82.6-1.19.95a11.23,11.23,0,0,0-.86.83A14.48,14.48,0,0,0,32,32.19a11.42,11.42,0,0,0-.93,1.63,10.05,10.05,0,0,0-.81,2.29c-.07.36-.14.73-.23,1.1A7.64,7.64,0,0,0,30,38a3,3,0,0,0,0,.84,5.68,5.68,0,0,1,.17.82,5.34,5.34,0,0,0,.28,1.18c.1.3.27.57.38.88a4.88,4.88,0,0,0,.54,1.13,4.28,4.28,0,0,1,.48.86,1,1,0,0,0,.81.66,2.35,2.35,0,0,0,.7,0A9,9,0,0,0,35.24,44a12.69,12.69,0,0,0,1.91-.87,17.47,17.47,0,0,0,2.44-1.52,17.3,17.3,0,0,0,1.51-1.33,20.5,20.5,0,0,0,1.72-1.89,1.8,1.8,0,0,0,.32-.42,8.7,8.7,0,0,1,.63-1.06,19.61,19.61,0,0,0,1.33-2.82,14.09,14.09,0,0,0,.61-2.38,11.87,11.87,0,0,0,.21-2.15c0-.36-.07-.71-.08-1.07a2.48,2.48,0,0,0-.18-.76.74.74,0,0,0-.54-.44c-.18,0-.37-.05-.55-.09A9.63,9.63,0,0,0,42.46,26.88Z"/><path d="M20.89,45.9a5.64,5.64,0,0,1-1-.2l-.9-.24a.52.52,0,0,0-.3,0,1.25,1.25,0,0,1-.95,0c-.3-.16-.63-.29-.95-.44-.6-.28-1.21-.56-1.81-.86a22.28,22.28,0,0,1-2.31-1.37,21,21,0,0,1-2.43-1.88A21.33,21.33,0,0,1,7.59,38a20,20,0,0,1-1.67-2.58,18.54,18.54,0,0,1-1.78-4.66,15.86,15.86,0,0,1-.4-2.27c-.05-.55-.09-1.11-.13-1.66a10.4,10.4,0,0,1,0-1.58c.05-.64.12-1.28.22-1.92a11.65,11.65,0,0,1,.45-1.69,1.9,1.9,0,0,1,.58-.9c.1-.08.14,0,.19.05a4.3,4.3,0,0,1,.29.7c.18.32.32.65.49,1s.3.51.42.78a12.14,12.14,0,0,0,.61,1.12c.25.48.47,1,.69,1.46s.3.67.42,1a8.48,8.48,0,0,0,.35.88c.14.31.29.61.4.93a8.46,8.46,0,0,0,.49,1.06,4.4,4.4,0,0,0,.48.76,5.07,5.07,0,0,1,.58.87,3.38,3.38,0,0,0,.5.63l0,0c.29.47.76.8,1,1.25a4.23,4.23,0,0,0,.51.67s.07.11,0,.13,0,.22,0,.28.25.44.44.61a6.34,6.34,0,0,0,1.25,1.12,4.33,4.33,0,0,1,.75.67c.17.16.4.27.49.51,0,0,.05,0,.07.08a2,2,0,0,0,.78.75,1.37,1.37,0,0,1,.22.19s.07.05.11,0,0-.06,0-.08a.31.31,0,0,1-.07-.39.73.73,0,0,0,0-.69.32.32,0,0,1,0-.36.17.17,0,0,1,.21,0c.12.08.25.12.37.19a.45.45,0,0,0,.23.08c.1,0,.15.07.17.18s.16.36.44.37c.13,0,.18.15.3.16s.07.12.11.17a.5.5,0,0,1,.15.37.32.32,0,0,0,.19.37c.12,0,.11.16.08.25a.22.22,0,0,0,0,.21.28.28,0,0,1,.1.24.13.13,0,0,0,.08.14c.2,0,.17.2.17.34a.49.49,0,0,0,.14.39.63.63,0,0,1,.08.51.62.62,0,0,0,0,.48.14.14,0,0,1,0,.17c-.2.2-.2.3-.05.53a.69.69,0,0,1,.14.54.3.3,0,0,0,.09.32.53.53,0,0,1,.19.4.36.36,0,0,0,.17.33.16.16,0,0,1,.09.09c.07.32.36.55.37.89a.33.33,0,0,0,.09.21,1.36,1.36,0,0,1,.27.6A2.26,2.26,0,0,1,20.89,45.9Z"/><path d="M42.46,26.88a9.63,9.63,0,0,1,2.11.28c.18,0,.37.05.55.09a.74.74,0,0,1,.54.44,2.48,2.48,0,0,1,.18.76c0,.36.08.71.08,1.07a11.87,11.87,0,0,1-.21,2.15,14.09,14.09,0,0,1-.61,2.38,19.61,19.61,0,0,1-1.33,2.82,8.7,8.7,0,0,0-.63,1.06,1.8,1.8,0,0,1-.32.42,20.5,20.5,0,0,1-1.72,1.89,17.3,17.3,0,0,1-1.51,1.33,17.47,17.47,0,0,1-2.44,1.52,12.69,12.69,0,0,1-1.91.87,9,9,0,0,1-1.91.45,2.35,2.35,0,0,1-.7,0,1,1,0,0,1-.81-.66,4.28,4.28,0,0,0-.48-.86,4.88,4.88,0,0,1-.54-1.13c-.11-.31-.28-.58-.38-.88a5.34,5.34,0,0,1-.28-1.18,5.68,5.68,0,0,0-.17-.82A3,3,0,0,1,30,38a7.64,7.64,0,0,1,.1-.82c.09-.37.16-.74.23-1.1a10.05,10.05,0,0,1,.81-2.29A11.42,11.42,0,0,1,32,32.19a14.48,14.48,0,0,1,1.09-1.39A11.23,11.23,0,0,1,34,30c.37-.35.79-.64,1.19-.95a8.08,8.08,0,0,1,1.1-.64,10.79,10.79,0,0,1,1.39-.63,11,11,0,0,1,1.83-.56A13.61,13.61,0,0,1,42.46,26.88ZM42,28.67a10.92,10.92,0,0,0-1.15.08,7.9,7.9,0,0,0-1.74.35c-.41.12-.81.3-1.21.46a9.83,9.83,0,0,0-1.46.8,7.4,7.4,0,0,0-1.3,1.07,7.94,7.94,0,0,0-1,1.3,8.13,8.13,0,0,0-.79,1.52,7.23,7.23,0,0,0-.38,1.38c-.12.66-.22,1.32-.34,2a1.52,1.52,0,0,0,0,.52c.1.54.08,1.09.18,1.63a7.77,7.77,0,0,0,.46,1.65c.19.44.39.88.61,1.3A1.06,1.06,0,0,0,35,43.4a5.34,5.34,0,0,0,1.36-.35,12.25,12.25,0,0,0,2.85-1.48c.58-.41,1.11-.88,1.65-1.33a12.39,12.39,0,0,0,1.28-1.33,14,14,0,0,0,1.72-2.52,19.83,19.83,0,0,0,.9-2,9.74,9.74,0,0,0,.65-2.86,8.42,8.42,0,0,0,0-1.42c0-.5-.19-.95-.84-1.05a2,2,0,0,1-.26-.06A9,9,0,0,0,42,28.67Z"/><path d="M42,28.67a9,9,0,0,1,2.3.34,2,2,0,0,0,.26.06c.65.1.8.55.84,1.05a8.42,8.42,0,0,1,0,1.42,9.74,9.74,0,0,1-.65,2.86,19.83,19.83,0,0,1-.9,2,14,14,0,0,1-1.72,2.52,12.39,12.39,0,0,1-1.28,1.33c-.54.45-1.07.92-1.65,1.33a12.25,12.25,0,0,1-2.85,1.48A5.34,5.34,0,0,1,35,43.4a1.06,1.06,0,0,1-1.13-.69c-.22-.42-.42-.86-.61-1.3a7.77,7.77,0,0,1-.46-1.65c-.1-.54-.08-1.09-.18-1.63a1.52,1.52,0,0,1,0-.52c.12-.66.22-1.32.34-2a7.23,7.23,0,0,1,.38-1.38,8.13,8.13,0,0,1,.79-1.52,7.94,7.94,0,0,1,1-1.3,7.4,7.4,0,0,1,1.3-1.07,9.83,9.83,0,0,1,1.46-.8c.4-.16.8-.34,1.21-.46a7.9,7.9,0,0,1,1.74-.35A10.92,10.92,0,0,1,42,28.67Zm-.23,3.24a4.49,4.49,0,0,0-1.43.16,5.78,5.78,0,0,0-1.56.62,6.3,6.3,0,0,0-2,1.91,5.81,5.81,0,0,0-.87,3A5.47,5.47,0,0,0,36,38.7a5.66,5.66,0,0,0,.86,2.15,1.44,1.44,0,0,0,.48.47,1,1,0,0,0,.79,0,4.42,4.42,0,0,0,1.36-.71,11.56,11.56,0,0,0,2.63-2.45,10.71,10.71,0,0,0,2-4.24,2.93,2.93,0,0,0,.06-1,.69.69,0,0,0-.47-.62A5.76,5.76,0,0,0,41.75,31.91Z"/><path d="M41.75,31.91a5.76,5.76,0,0,1,2,.38.69.69,0,0,1,.47.62,2.93,2.93,0,0,1-.06,1,10.71,10.71,0,0,1-2,4.24,11.56,11.56,0,0,1-2.63,2.45,4.42,4.42,0,0,1-1.36.71,1,1,0,0,1-.79,0,1.44,1.44,0,0,1-.48-.47A5.66,5.66,0,0,1,36,38.7a5.47,5.47,0,0,1-.12-1.06,5.81,5.81,0,0,1,.87-3,6.3,6.3,0,0,1,2-1.91,5.78,5.78,0,0,1,1.56-.62A4.49,4.49,0,0,1,41.75,31.91Z"/><path class="cls-1" d="M15,38.74H6.78a1.45,1.45,0,0,1-1.47-1.45V12.8a1.41,1.41,0,0,1,.42-1,1.43,1.43,0,0,1,1-.43H15a1.39,1.39,0,0,1,1,.43,1.41,1.41,0,0,1,.44,1V37.27A1.47,1.47,0,0,1,15,38.74Zm-2.71-3.82a.39.39,0,0,0,.27-.11.33.33,0,0,0,.11-.25v-19a.36.36,0,0,0-.11-.26.39.39,0,0,0-.27-.11H9.49a.36.36,0,0,0-.26.11.4.4,0,0,0-.1.26v19a.36.36,0,0,0,.36.36h2.83Z"/><path class="cls-1" d="M29.1,38.74h-.87a1.47,1.47,0,0,1-1.47-1.47h0v-6H23.2v6a1.47,1.47,0,0,1-1.48,1.47h-.87a1.46,1.46,0,0,1-1.48-1.45V12.8a1.46,1.46,0,0,1,.43-1,1.41,1.41,0,0,1,1.05-.43h8.22a1.49,1.49,0,0,1,1.47,1.47V27.71a2.36,2.36,0,0,1-.64,1.68,2.25,2.25,0,0,1,.7,1.72v6.16a1.45,1.45,0,0,1-1.44,1.47H29.1ZM26.39,27.46a.36.36,0,0,0,.36-.36h0V15.52a.36.36,0,0,0-.11-.26.33.33,0,0,0-.25-.11H23.56a.39.39,0,0,0-.27.11.36.36,0,0,0-.11.26V27.45Z"/><path class="cls-1" d="M43.17,38.74H34.91a1.47,1.47,0,0,1-1.47-1.47h0V12.8a1.47,1.47,0,0,1,1.47-1.47h8.26a1.48,1.48,0,0,1,1.09.43,1.4,1.4,0,0,1,.43,1V17a1.11,1.11,0,0,1-1.11,1.11H42A1.11,1.11,0,0,1,40.84,17h0V15.52a.32.32,0,0,0-.12-.26.36.36,0,0,0-.26-.11H37.63a.38.38,0,0,0-.37.37v19a.34.34,0,0,0,.11.25.36.36,0,0,0,.26.11h2.83a.36.36,0,0,0,.26-.11.3.3,0,0,0,.12-.25V31.63a.3.3,0,0,0-.12-.25.36.36,0,0,0-.26-.11h-.67a1.46,1.46,0,0,1-1.47-1.45v-.9a1.45,1.45,0,0,1,1.45-1.47h3.4a1.5,1.5,0,0,1,1.06.42,1.43,1.43,0,0,1,.43,1.05v8.35a1.38,1.38,0,0,1-.4,1A1.45,1.45,0,0,1,43.17,38.74Z"/></svg>