<svg id="Слой_1" data-name="Слой 1" xmlns="http://www.w3.org/2000/svg" xmlns:xlink="http://www.w3.org/1999/xlink" viewBox="0 0 50 50"><defs><style>.cls-1{mask:url(#mask);filter:url(#luminosity-noclip-5);}.cls-2,.cls-4,.cls-6,.cls-8{mix-blend-mode:multiply;}.cls-2{fill:url(#linear-gradient);}.cls-3{mask:url(#mask-2);filter:url(#luminosity-noclip-6);}.cls-4{fill:url(#linear-gradient-2);}.cls-5{mask:url(#mask-3);filter:url(#luminosity-noclip-7);}.cls-6{fill:url(#linear-gradient-3);}.cls-7{mask:url(#mask-4);filter:url(#luminosity-noclip-8);}.cls-8{fill:url(#linear-gradient-4);}.cls-9{fill:#fff;}.cls-10,.cls-12,.cls-18,.cls-21,.cls-23{isolation:isolate;}.cls-10{opacity:0.2;}.cls-11{fill:#64140f;}.cls-12{opacity:0.6;}.cls-13{mask:url(#mask-5);}.cls-14{mask:url(#mask-6);}.cls-15{fill:#d86735;}.cls-16{mask:url(#mask-7);}.cls-17{mask:url(#mask-8);}.cls-18{opacity:0.61;}.cls-19{fill:#a27044;}.cls-20{fill:#dc4c47;}.cls-21{opacity:0.19;}.cls-22{fill:#362258;}.cls-23{opacity:0.21;}.cls-24{filter:url(#luminosity-noclip-4);}.cls-25{filter:url(#luminosity-noclip-3);}.cls-26{filter:url(#luminosity-noclip-2);}.cls-27{filter:url(#luminosity-noclip);}</style><filter id="luminosity-noclip" x="23.03" y="-8464.88" width="5.49" height="32766" filterUnits="userSpaceOnUse" color-interpolation-filters="sRGB"><feFlood flood-color="#fff" result="bg"/><feBlend in="SourceGraphic" in2="bg"/></filter><mask id="mask" x="23.03" y="-8464.88" width="5.49" height="32766" maskUnits="userSpaceOnUse"><g class="cls-27"/></mask><linearGradient id="linear-gradient" x1="27.5" y1="534.27" x2="23.87" y2="524.98" gradientTransform="matrix(1, 0, 0, -1, 0, 547.76)" gradientUnits="userSpaceOnUse"><stop offset="0" stop-color="#fff"/><stop offset="1"/></linearGradient><filter id="luminosity-noclip-2" x="26" y="-8464.88" width="5.1" height="32766" filterUnits="userSpaceOnUse" color-interpolation-filters="sRGB"><feFlood flood-color="#fff" result="bg"/><feBlend in="SourceGraphic" in2="bg"/></filter><mask id="mask-2" x="26" y="-8464.88" width="5.1" height="32766" maskUnits="userSpaceOnUse"><g class="cls-26"/></mask><linearGradient id="linear-gradient-2" x1="30.61" y1="533.59" x2="26.54" y2="524.46" xlink:href="#linear-gradient"/><filter id="luminosity-noclip-3" x="8.76" y="-8464.88" width="5.71" height="32766" filterUnits="userSpaceOnUse" color-interpolation-filters="sRGB"><feFlood flood-color="#fff" result="bg"/><feBlend in="SourceGraphic" in2="bg"/></filter><mask id="mask-3" x="8.76" y="-8464.88" width="5.71" height="32766" maskUnits="userSpaceOnUse"><g class="cls-25"/></mask><linearGradient id="linear-gradient-3" x1="13.51" y1="535.55" x2="9.7" y2="526.21" xlink:href="#linear-gradient"/><filter id="luminosity-noclip-4" x="12.1" y="-8464.88" width="5.16" height="32766" filterUnits="userSpaceOnUse" color-interpolation-filters="sRGB"><feFlood flood-color="#fff" result="bg"/><feBlend in="SourceGraphic" in2="bg"/></filter><mask id="mask-4" x="12.1" y="-8464.88" width="5.16" height="32766" maskUnits="userSpaceOnUse"><g class="cls-24"/></mask><linearGradient id="linear-gradient-4" x1="16.71" y1="534.96" x2="12.81" y2="525.91" xlink:href="#linear-gradient"/><filter id="luminosity-noclip-5" x="23.03" y="13.55" width="5.49" height="9.37" filterUnits="userSpaceOnUse" color-interpolation-filters="sRGB"><feFlood flood-color="#fff" result="bg"/><feBlend in="SourceGraphic" in2="bg"/></filter><mask id="mask-5" x="23.03" y="13.55" width="5.49" height="9.37" maskUnits="userSpaceOnUse"><g class="cls-1"><path class="cls-2" d="M28.52,13.76l-3.74,9.16c-.37-.13-.71-.26-1-.38a2.7,2.7,0,0,1-.75-.49l3.47-8.5A19.19,19.19,0,0,1,28.52,13.76Z"/></g></mask><filter id="luminosity-noclip-6" x="26" y="13.99" width="5.1" height="9.55" filterUnits="userSpaceOnUse" color-interpolation-filters="sRGB"><feFlood flood-color="#fff" result="bg"/><feBlend in="SourceGraphic" in2="bg"/></filter><mask id="mask-6" x="26" y="13.99" width="5.1" height="9.55" maskUnits="userSpaceOnUse"><g class="cls-3"><path class="cls-4" d="M31.1,14.31l-3.77,9.23c-.47-.07-.92-.17-1.33-.27L29.79,14C30.23,14.08,30.67,14.19,31.1,14.31Z"/></g></mask><filter id="luminosity-noclip-7" x="8.76" y="12.4" width="5.71" height="9.53" filterUnits="userSpaceOnUse" color-interpolation-filters="sRGB"><feFlood flood-color="#fff" result="bg"/><feBlend in="SourceGraphic" in2="bg"/></filter><mask id="mask-7" x="8.76" y="12.4" width="5.71" height="9.53" maskUnits="userSpaceOnUse"><g class="cls-5"><path class="cls-6" d="M14.47,12.5l-3.85,9.43c-.37-.05-.69-.11-1-.16a1.42,1.42,0,0,1-.9-.58l3.59-8.79C13.13,12.41,13.83,12.45,14.47,12.5Z"/></g></mask><filter id="luminosity-noclip-8" x="12.1" y="12.69" width="5.16" height="9.42" filterUnits="userSpaceOnUse" color-interpolation-filters="sRGB"><feFlood flood-color="#fff" result="bg"/><feBlend in="SourceGraphic" in2="bg"/></filter><mask id="mask-8" x="12.1" y="12.69" width="5.16" height="9.42" maskUnits="userSpaceOnUse"><g class="cls-7"><path class="cls-8" d="M17.26,13l-3.74,9.16c-.51,0-1,0-1.42,0l3.83-9.38C16.44,12.77,16.88,12.86,17.26,13Z"/></g></mask></defs><path class="cls-9" d="M43.82,9.56a4,4,0,0,1-.15,1.06c-.86,3.13-3.47,2.64-3.47,2.64h0l0,.09-.69,1.34c-1.35,2.62-4.23,8.32-6.1,12.71-.2.48-.42,1-.64,1.54-.7,1.69-1.51,3.67-2.38,5.65s-1.87,4.15-2.85,6a26.42,26.42,0,0,1-1.89,3.06,7,7,0,0,1-2.15,2.1,2.14,2.14,0,0,1-.39.16l-.05,0s.57,2.48-.91,2.66c-.66.08-.89-.5-1-1.27a18.85,18.85,0,0,0-.19-2.74c-.37-1.07-2.34-1-2.78-4.5a9.51,9.51,0,0,1-1.64-3.6c.11.65.53,3.51-.64,3.51-1.33,0-.58-2.77-1-5s-2.49-7.69-2.49-7.69.31,3.25-1.29,3.2S9.82,28,10.26,26.06s-.07-5.34-.58-7.86a27.05,27.05,0,0,1-.5-6.26,3.46,3.46,0,0,1,.21-1.11l0-.07a4.73,4.73,0,0,1-.58-.28l-.12-.07-.22-.13-.1-.06-.06,0L8,9.94l-.06,0-.17-.14L7.7,9.7l-.12-.1c0-.06-.11-.11-.17-.17L7.3,9.32A3.79,3.79,0,0,1,7,8.93l-.08-.12,0-.06L6.78,8.6l0-.09,0-.06a.14.14,0,0,1,0-.07.25.25,0,0,1,0-.07A3.52,3.52,0,0,1,7.9,3.91c1.46-.86,5.81-1.07,7.43-1.55A18.42,18.42,0,0,1,26,2.14c4.69,1.47,6.48.87,8.75,1a15.12,15.12,0,0,1,5.12,1.58,9.64,9.64,0,0,1,2.78,2h0A4.16,4.16,0,0,1,43.82,9.56Z"/><path d="M43.82,9.56A3.37,3.37,0,0,1,42.73,11C41.28,12,38.89,12,38.12,13.33A13.58,13.58,0,0,1,38,16.11a4.46,4.46,0,0,1-1.28,2.43c-.59.53-1.41.88-1.76,1.6s-.1,1.68-.44,2.44-1,1.09-1.45,1.67a3.81,3.81,0,0,0-.68,2.61A12.35,12.35,0,0,0,32.71,29c-.7,1.69-1.51,3.67-2.38,5.65a1.67,1.67,0,0,1-1.22-.83,2.77,2.77,0,0,1-2.17,3.1,10.87,10.87,0,0,1,.54,3.69h0a4.63,4.63,0,0,1-.07.52,3.61,3.61,0,0,1-1.82,2.54h0a2.41,2.41,0,0,1-1,.25,2.42,2.42,0,0,0-.66.05c-.66.21-.77,1.12-.53,1.76,0,0,0,0,0,0l-.09.05-.3.11-.05,0s.57,2.48-.91,2.66h-.33a.78.78,0,0,1-.22-.12l0,0a.44.44,0,0,1-.12-.15l0-.05,0,0a2.08,2.08,0,0,1-.14-.4s0,0,0-.06a.13.13,0,0,1,0-.06,2.34,2.34,0,0,1,0-.26s0,0,0-.07a1.11,1.11,0,0,0,0-.17c0-.13,0-.25,0-.38v-.29c0-.19,0-.39,0-.58s0-.17,0-.25h0v-.14a.19.19,0,0,0,0-.08v-.08c0-.1,0-.19,0-.28A.13.13,0,0,1,21,45V44.9a.07.07,0,0,0,0,0,2.21,2.21,0,0,0-.07-.3c-.37-1.07-2.34-1-2.78-4.5a9.51,9.51,0,0,1-1.64-3.6c.11.65.53,3.51-.64,3.51-1.33,0-.58-2.77-1-5s-2.49-7.69-2.49-7.69.31,3.25-1.29,3.2S9.82,28,10.26,26.06s-.07-5.34-.58-7.86a29,29,0,0,1-.53-5.74v-.14c0-.09,0-.18,0-.27v-.11a.66.66,0,0,1,0-.14c0-.13,0-.24,0-.36s0,0,0-.07l0-.15c0-.06,0-.12,0-.18a.14.14,0,0,0,0-.06l0-.05,0,0s0,0,0-.05l0-.07a4.73,4.73,0,0,1-.58-.28l-.12-.07-.22-.13-.1-.06-.06,0L8,9.94l-.06,0-.17-.14L7.7,9.7l-.12-.1c0-.06-.11-.11-.17-.17L7.3,9.32A3.79,3.79,0,0,1,7,8.93l-.08-.12,0-.06L6.78,8.6l0-.09,0-.06a.14.14,0,0,1,0-.07.25.25,0,0,1,0-.07A3.52,3.52,0,0,1,7.9,3.91c1.46-.86,5.81-1.07,7.43-1.55A18.42,18.42,0,0,1,26,2.14c4.69,1.47,6.48.87,8.75,1a3.8,3.8,0,0,1,.43.05h.12l.47.09.11,0,.35.08.12,0,.25.06.12,0,.61.18.15,0,.13,0c.32.11.64.22,1,.36l.19.07.19.08.18.08.38.17.18.09.18.09.2.11.58.32.19.12.18.12.19.12.17.12.19.14.15.11,0,0,.31.26h0l.15.14,0,0,.12.12.12.12.07.07.1.11h0l.07.08.13.15a4.81,4.81,0,0,1,.45.66,1.09,1.09,0,0,1,.08.15A3.73,3.73,0,0,1,43.79,9,4.53,4.53,0,0,1,43.82,9.56Z"/><path d="M36.86,13.15c.17,1.21.46,2.79-.59,3.15a1.09,1.09,0,0,1-1.43-.62,10.71,10.71,0,0,1-1,4.33c-1.06,2.26-2.3,3.4-2.5,5.84s1,5.81-.88,6.37-1.63-2.16-1.63-2.16a16.38,16.38,0,0,0-.67,2.81C28,34,28.24,35,27.58,35.31s-1.16-.55-1.19-1.39a11,11,0,0,0-.23,3.87c.26,2.1.28,3.93-.78,4.55-.81.47-1.26-.41-1.89-.29-1,.19-.84,2.49-.53,3.78,0,.14.08.32.11.54.15.83.2,2.05-1,2.19h-.33a.78.78,0,0,1-.22-.12l0,0a.44.44,0,0,1-.12-.15l0-.05,0,0a2.08,2.08,0,0,1-.14-.4s0,0,0-.06a.13.13,0,0,1,0-.06,2.34,2.34,0,0,1,0-.26v-.07a18.85,18.85,0,0,0-.19-2.74c-.37-1.07-2.34-1-2.78-4.5a9.54,9.54,0,0,1-1.61-3.46l0-.14s0,.11,0,.18a9.67,9.67,0,0,1,.12,2c-.05.72-.25,1.33-.79,1.33-.38,0-.58-.22-.7-.59-.3-.93,0-2.8-.34-4.39a74.85,74.85,0,0,0-2.35-7.29l-.14-.4s.31,3.25-1.29,3.2c-.68,0-1-.48-1.12-1.15a9.63,9.63,0,0,1,.33-3.28c.43-1.92-.07-5.34-.58-7.86s-.76-6.31-.29-7.37l0-.07a4.73,4.73,0,0,1-.58-.28C11,8.27,19.24,2,35.7,9.66l1.37.66A9.39,9.39,0,0,0,36.86,13.15Z"/><g class="cls-10"><path class="cls-11" d="M43.67,10.62c-.86,3.13-3.47,2.64-3.47,2.64h0l0,.09-.69,1.34a9,9,0,0,1-2.15-.54L37,14c.11,1,.09,2-.71,2.26a1.09,1.09,0,0,1-1.43-.62,10.71,10.71,0,0,1-1,4.33c-1.06,2.26-2.3,3.4-2.5,5.84s1,5.81-.88,6.37-1.63-2.16-1.63-2.16a16.38,16.38,0,0,0-.67,2.81C28,34,28.24,35,27.58,35.31s-1.16-.55-1.19-1.39a11,11,0,0,0-.23,3.87c.26,2.1.28,3.93-.78,4.55-.81.47-1.26-.41-1.89-.29-1,.19-.84,2.49-.53,3.78,0,.14.08.32.11.54.09.72.09,2.06-1,2.19h-.33a.78.78,0,0,1-.22-.12l0,0a.44.44,0,0,1-.12-.15l0-.05,0,0a2.08,2.08,0,0,1-.14-.4s0,0,0-.06a.13.13,0,0,1,0-.06,3.26,3.26,0,0,1-.05-.33h0a1.53,1.53,0,0,0,.86-.64,2.89,2.89,0,0,0,.23-2,8.91,8.91,0,0,1-.25-2,1.77,1.77,0,0,1,1.1-1.6c.58-.17,1.32,0,1.7-.41a1.35,1.35,0,0,0,.22-.71c.25-2,.42-4.47.86-6.69a.46.46,0,0,1,.71-.28c1.2.83,1.21-.76,1.34-1.73a20.35,20.35,0,0,1,.7-2.51,5,5,0,0,0,.21-1.43l.48,2.36a.74.74,0,0,0,.24.49c.37.28.82-.26.94-.71.57-2.16,0-4.5.58-6.66.76-2.81,3.35-4.9,3.88-7.75a.42.42,0,0,0,.62,0,1.12,1.12,0,0,0,.22-.67v0a1.18,1.18,0,0,0-.61-1.11c-.74-.39-1.46-.82-2.19-1.22a14.12,14.12,0,0,0-4.69-1.69,26.94,26.94,0,0,0-6.33.33A9.45,9.45,0,0,1,15.8,9.48a6.56,6.56,0,0,1-3.58,2.38,6.79,6.79,0,0,1-3,.08,3.4,3.4,0,0,1,.21-1.11l0-.07a4.73,4.73,0,0,1-.58-.28l-.12-.07-.22-.13-.1-.06-.06,0L8,9.94l-.06,0-.17-.14L7.7,9.7l-.12-.1c0-.06-.11-.11-.17-.17L7.3,9.32c-.11-.13-.22-.26-.31-.39l-.08-.12,0-.06L6.78,8.6l0-.09,0-.06a.19.19,0,0,1,0-.07.25.25,0,0,1,0-.07A3.52,3.52,0,0,1,7.9,3.91c1.46-.86,5.81-1.07,7.43-1.55A18.42,18.42,0,0,1,26,2.14c4.69,1.47,6.48.86,8.75,1,1.56.09,5.82,1.29,7.9,3.61h0A4,4,0,0,1,43.67,10.62Z"/></g><path d="M22,48.92h-.25l-.07,0a.86.86,0,0,1-.34-.18l0,0a1.2,1.2,0,0,1-.17-.21l0-.06,0-.07a2.08,2.08,0,0,1-.16-.48s0,0,0-.07,0,0,0-.07a2.51,2.51,0,0,1,0-.27.25.25,0,0,1,0-.08,1.11,1.11,0,0,1,0-.19c0-.12,0-.25,0-.38a.49.49,0,0,0,0-.12h0v-.17c0-.15,0-.29,0-.44v-.39h0v-.28a2.45,2.45,0,0,0,0-.27h0v-.13h0v0a1.14,1.14,0,0,0,0-.23c-.09-.26-.33-.44-.67-.69a4.89,4.89,0,0,1-2.12-3.79A9,9,0,0,1,17,38.86,2.19,2.19,0,0,1,16.6,40a.94.94,0,0,1-.73.34c-.39,0-.89-.17-1.09-1a8.93,8.93,0,0,1-.12-1.83,12.49,12.49,0,0,0-.18-2.43,61.63,61.63,0,0,0-1.86-5.93,2.57,2.57,0,0,1-.57,1.31,1.3,1.3,0,0,1-1,.42A1.39,1.39,0,0,1,10,30.32c-.7-.9-.41-2.7,0-4.34.45-2-.17-5.69-.58-7.71a29.82,29.82,0,0,1-.54-5.82v-.14c0-.1,0-.19,0-.28v-.11c0-.05,0-.1,0-.15s0-.26.05-.38,0-.05,0-.08l0-.16c0-.07,0-.13.05-.2a2.25,2.25,0,0,1-.3-.16.3.3,0,0,1-.11-.06h0l-.23-.14-.05,0-.06,0,0,0,0,0c-.12-.08-.25-.17-.36-.26l-.06,0L7.53,10l-.06,0-.13-.11c-.06-.06-.12-.11-.18-.18L7,9.56a4.58,4.58,0,0,1-.34-.43L6.61,9a.43.43,0,0,0,0-.07l-.1-.17,0-.09v0l0-.06,0-.07a.14.14,0,0,1,0-.06v0a3.87,3.87,0,0,1,1.4-4.84,16,16,0,0,1,4.85-1.12A23.18,23.18,0,0,0,15.23,2,18.82,18.82,0,0,1,26.1,1.8a18.43,18.43,0,0,0,6.93,1,16.83,16.83,0,0,1,1.74,0,4.53,4.53,0,0,1,.46,0l.13,0,.48.09H36l.36.08.1,0h0l.26.07.11,0h0l.62.18.15.05h0l.12,0c.33.11.66.23,1,.36h0l.18.07.19.08.15.07,0,0,.38.17.19.09.18.1.21.1c.21.11.41.23.59.34L41,5l.19.12.19.13.13.09,0,0,.2.14.15.12,0,0,.31.26,0,0,.15.13,0,0a.8.8,0,0,1,.13.13,1.36,1.36,0,0,1,.12.12l.08.08.09.1h0a.27.27,0,0,0,.07.08l.13.17a4.51,4.51,0,0,1,.49.71,1.09,1.09,0,0,1,.08.15A4,4,0,0,1,44.14,9a3.64,3.64,0,0,1,0,.57A4.15,4.15,0,0,1,44,10.71a3.48,3.48,0,0,1-3.61,2.92c-.65,1.25-4.44,8.53-6.72,13.92-.22.51-.45,1.07-.64,1.54q-.2.45-.39.93c-.6,1.45-1.28,3.09-2,4.72-1.06,2.43-2,4.39-2.86,6h0a26.62,26.62,0,0,1-1.92,3.11h0A7.21,7.21,0,0,1,23.6,46l-.1.05-.1,0a3.32,3.32,0,0,1-.3,2.22,1.35,1.35,0,0,1-1,.56Zm0-.71Zm0,0h.14a.65.65,0,0,0,.47-.27,3,3,0,0,0,.13-2,.35.35,0,0,1,.25-.42H23a2.34,2.34,0,0,0,.24-.09l.08,0a6.69,6.69,0,0,0,2-2h0a25.59,25.59,0,0,0,1.85-3h0C28,38.82,29,36.88,30,34.46c.71-1.63,1.38-3.26,2-4.71q.19-.48.39-.93L33,27.27c2.37-5.6,6.35-13.22,6.8-14.08v0l0-.06a.32.32,0,0,1,.39-.2c.09,0,2.31.38,3.07-2.39a4.05,4.05,0,0,0,.14-1h0a3.71,3.71,0,0,0,0-.47,3.86,3.86,0,0,0-.37-1.15L43,7.81a4.52,4.52,0,0,0-.42-.62l-.12-.14L42.4,7h0l-.09-.1h0l-.06-.06h0l-.1-.1h0L42,6.58h0l-.14-.12h0a3.47,3.47,0,0,0-.29-.25h0L41.35,6l-.18-.13-.05,0L41,5.8l-.18-.13-.18-.11-.18-.11-.57-.32L39.71,5l-.18-.09-.18-.09L39,4.69l0,0-.15-.06h0l-.17-.07-.18-.07h0l-.94-.34-.11,0h0L37.23,4l-.6-.17h0l-.1,0-.25-.06h0l-.09,0-.34-.07H35.7l-.45-.09h-.11a3.73,3.73,0,0,0-.41,0c-.57,0-1.11,0-1.68,0a18.94,18.94,0,0,1-7.16-1,18.17,18.17,0,0,0-10.46.22,21.91,21.91,0,0,1-2.76.49,16.52,16.52,0,0,0-4.59,1A3.17,3.17,0,0,0,7,8.17v0l0,0H7l0,0H7l0,0v0l0,.07a1,1,0,0,0,.08.14l0,0a.41.41,0,0,0,.07.11,3.05,3.05,0,0,0,.29.36l.1.1.15.15.11.1L8,9.48l.16.13.06,0,.32.23,0,0,0,0,.05,0,0,0,.21.13h0l.1.06c.32.17.54.26.54.26a.39.39,0,0,1,.21.21.37.37,0,0,1,0,.29s0,0,0,.05v0h0v.09a.06.06,0,0,0,0,0,.83.83,0,0,0,0,.15l0,.14h0a.09.09,0,0,1,0,.05h0c0,.1,0,.21,0,.33s0,.09,0,.14v.11c0,.08,0,.17,0,.25v.15A28.94,28.94,0,0,0,10,18.13c.42,2.07,1.05,5.87.57,8-.16.75-.67,3-.09,3.75a.66.66,0,0,0,.55.26.63.63,0,0,0,.47-.19A4.35,4.35,0,0,0,12,27.32a.37.37,0,0,1,.28-.38.36.36,0,0,1,.41.23c.08.22,2.05,5.53,2.51,7.74a13.21,13.21,0,0,1,.19,2.56,9,9,0,0,0,.1,1.68c.11.45.28.45.4.45a.25.25,0,0,0,.19-.09c.35-.42.3-1.8.1-3a.37.37,0,0,1,.29-.41.36.36,0,0,1,.41.29,9.14,9.14,0,0,0,1.57,3.44.36.36,0,0,1,.07.18,4.26,4.26,0,0,0,1.86,3.4,2.26,2.26,0,0,1,.91,1,2.44,2.44,0,0,1,.08.34.2.2,0,0,1,0,.07v.07a.17.17,0,0,1,0,.07c0,.11,0,.21,0,.3v.31h0V46c0,.15,0,.29,0,.43v.11h0v.05l-.35,0,.35,0a.57.57,0,0,1,0,.13c0,.12,0,.24,0,.35a1.11,1.11,0,0,0,0,.17h0v0h0a1.57,1.57,0,0,0,0,.23h0a.06.06,0,0,0,0,0,.09.09,0,0,0,0,0,1.06,1.06,0,0,0,.11.33h0v0h0l0,0,.06.08h0a.2.2,0,0,0,.09,0h.05Zm0,0Zm-.06,0Zm18-35.08Zm0,0Zm1.93-6.69Zm-.29-.24Zm0,0h0Z"/><path class="cls-9" d="M38.1,22.37c-.88-.51.17-1.82-.13-2.52a1.61,1.61,0,0,0-.64-.58,20.24,20.24,0,0,0-2.81-1.33,22,22,0,0,1-1.46,4.24,2.52,2.52,0,0,1-2.23,1.55,18.15,18.15,0,0,1-3.5-.19c-.47-.07-.92-.17-1.33-.27s-.85-.23-1.22-.35-.71-.26-1-.38a2.75,2.75,0,0,1-1.62-2.18A31.11,31.11,0,0,1,22,16.07h0c0-.15,0-.26,0-.32v-.06a3.07,3.07,0,0,0-2.64-.29l-.08,0a18,18,0,0,1-1.19,5.13l0,.1a2,2,0,0,1-1.64,1.25,26.2,26.2,0,0,1-2.91.19c-.51,0-1,0-1.42,0s-1-.08-1.48-.14-.69-.11-1-.16a1.42,1.42,0,0,1-.9-.58,1.35,1.35,0,0,1-.22-.47,21.54,21.54,0,0,1-.74-6.84,1.44,1.44,0,0,1,1.33-1.36c1.19-.1,2.26-.13,3.22-.12.78,0,1.48,0,2.12.1s1,.12,1.46.19.95.17,1.33.26a9.14,9.14,0,0,1,1.66.54l.06,0a4.58,4.58,0,0,1,3.29.26l.07,0a17.18,17.18,0,0,1,4.16-.25,19.19,19.19,0,0,1,2,.21c.43.06.85.14,1.27.23s.88.2,1.31.32A25.54,25.54,0,0,1,35,15.69a20.11,20.11,0,0,1,3.66,2.09,4.26,4.26,0,0,1,1.1,1.06,2,2,0,0,1,.17.54C40.13,20.84,38.89,22.82,38.1,22.37Z"/><g class="cls-12"><path class="cls-9" d="M39.91,20.05s0-.07,0-.11a2,2,0,0,0-.17-.54,4.26,4.26,0,0,0-1.1-1.06A20.11,20.11,0,0,0,35,16.25a26.68,26.68,0,0,0-3.86-1.38c-.43-.12-.87-.22-1.31-.32s-.84-.16-1.27-.23c-.66-.1-1.34-.17-2-.21a17.19,17.19,0,0,0-4.16.26l-.07,0A4.6,4.6,0,0,0,19,14.08l-.06,0a9.14,9.14,0,0,0-1.66-.54c-.38-.09-.82-.18-1.33-.26s-.92-.14-1.46-.18S13.13,13,12.35,13c-1,0-2,0-3.22.12A1.45,1.45,0,0,0,7.8,14.44c0,.26,0,.56,0,.89,0-.56,0-1.05,0-1.45a1.44,1.44,0,0,1,1.33-1.36c1.19-.1,2.26-.13,3.22-.12.78,0,1.48,0,2.12.1s1,.12,1.46.19.95.17,1.33.26a9.14,9.14,0,0,1,1.66.54l.06,0a4.64,4.64,0,0,1,3.29.26l.07,0a17.18,17.18,0,0,1,4.16-.25,19.19,19.19,0,0,1,2,.21c.43.06.85.14,1.27.23s.88.2,1.31.32A25.54,25.54,0,0,1,35,15.69a20.11,20.11,0,0,1,3.66,2.09,4.26,4.26,0,0,1,1.1,1.06,2,2,0,0,1,.17.54A2.5,2.5,0,0,1,39.91,20.05Z"/></g><path d="M22,48.92a1.07,1.07,0,0,1-.68-.24c-.55-.49-.56-1.56-.58-2.59a5.61,5.61,0,0,0-.11-1.42c-.09-.26-.33-.44-.67-.69a4.89,4.89,0,0,1-2.12-3.79A9,9,0,0,1,17,38.86,2.19,2.19,0,0,1,16.6,40a.94.94,0,0,1-.73.34c-.39,0-.89-.17-1.09-1a8.93,8.93,0,0,1-.12-1.83,12.49,12.49,0,0,0-.18-2.43,61.63,61.63,0,0,0-1.86-5.93,2.57,2.57,0,0,1-.57,1.31,1.3,1.3,0,0,1-1,.42A1.39,1.39,0,0,1,10,30.32c-.7-.9-.41-2.7,0-4.34.45-2-.17-5.69-.58-7.71C8.89,16.07,8.57,12.4,9,11a2.25,2.25,0,0,1-.3-.16.33.33,0,0,1-.18-.26.34.34,0,0,1,.1-.3,16.13,16.13,0,0,1,8.63-4.3c5.78-1.06,12.51.31,20,4.07a.29.29,0,0,1,.12.1.35.35,0,0,1,.07.3,8.79,8.79,0,0,0-.21,2.7l0,.18c.18,1.23.42,2.92-.85,3.36a1.43,1.43,0,0,1-1.24-.08,11.44,11.44,0,0,1-1,3.6c-.34.73-.7,1.34-1,1.93a8.19,8.19,0,0,0-1.43,3.78,15.33,15.33,0,0,0,.08,2.42c.16,1.87.32,3.8-1.21,4.27a1.43,1.43,0,0,1-1.38-.18,1.58,1.58,0,0,1-.46-.63,10.84,10.84,0,0,0-.21,1.15c0,.3,0,.59-.05.86,0,.8,0,1.56-.73,1.87a.9.9,0,0,1-.91-.05,1,1,0,0,1-.3-.26,10.25,10.25,0,0,0,0,2.42c.26,2.11.33,4.16-1,4.9a1.4,1.4,0,0,1-1.51-.08c-.22-.12-.37-.19-.5-.16a.36.36,0,0,0-.25.18,5.33,5.33,0,0,0,0,3.17h0a3.43,3.43,0,0,1-.12,2.56,1.39,1.39,0,0,1-1.06.59ZM16.51,36.1a.35.35,0,0,1,.35.29,9.23,9.23,0,0,0,1.57,3.44.36.36,0,0,1,.07.18,4.26,4.26,0,0,0,1.86,3.4,2.26,2.26,0,0,1,.91,1,6,6,0,0,1,.16,1.64c0,.8,0,1.78.33,2.06a.34.34,0,0,0,.29.07.77.77,0,0,0,.56-.3c.35-.51.11-1.55,0-2h0c-.06-.27-.6-2.67.1-3.72a1,1,0,0,1,.71-.49,1.44,1.44,0,0,1,1,.23c.35.19.53.27.82.1.93-.54.83-2.42.61-4.2a11,11,0,0,1,.24-4,.33.33,0,0,1,.38-.25.35.35,0,0,1,.31.34A1.45,1.45,0,0,0,27.18,35a.25.25,0,0,0,.25,0c.27-.13.29-.53.31-1.25,0-.27,0-.58.05-.91a16.68,16.68,0,0,1,.69-2.89.36.36,0,0,1,.69.15c0,.33,0,1.38.44,1.73.06.05.26.21.73.06.92-.28.88-1.58.71-3.53A16.66,16.66,0,0,1,31,25.82a9,9,0,0,1,1.52-4.1,21,21,0,0,0,1-1.86,10.37,10.37,0,0,0,1-4.17.36.36,0,0,1,.29-.36.35.35,0,0,1,.4.22.73.73,0,0,0,1,.42c.67-.23.57-1.31.38-2.59l0-.18h0a8.76,8.76,0,0,1,.16-2.69C20.48,2.49,12.09,8,9.45,10.39l.1,0a.39.39,0,0,1,.21.21.37.37,0,0,1,0,.29s0,0,0,.05c-.41.94-.17,4.72.32,7.15.42,2.07,1.05,5.87.57,8-.16.75-.67,3-.09,3.75a.66.66,0,0,0,.55.26.63.63,0,0,0,.47-.19A4.35,4.35,0,0,0,12,27.32a.37.37,0,0,1,.28-.38.36.36,0,0,1,.41.23c.08.22,2.05,5.53,2.51,7.74a13.21,13.21,0,0,1,.19,2.56,9,9,0,0,0,.1,1.68c.11.45.28.45.4.45a.25.25,0,0,0,.19-.09c.35-.42.3-1.8.1-3a.37.37,0,0,1,.29-.41Z"/><g class="cls-13"><path d="M28.52,13.76l-3.74,9.16c-.37-.13-.71-.26-1-.38a2.7,2.7,0,0,1-.75-.49l3.47-8.5A19.19,19.19,0,0,1,28.52,13.76Z"/></g><g class="cls-14"><path d="M31.1,14.31l-3.77,9.23c-.47-.07-.92-.17-1.33-.27L29.79,14C30.23,14.08,30.67,14.19,31.1,14.31Z"/></g><path class="cls-15" d="M43.67,10.62c-.86,3.13-3.47,2.64-3.47,2.64l-.29,0h0l-.27-.06h0l-.11,0,0,0a4.09,4.09,0,0,1-1-.43c-.15-.1-.31-.21-.47-.34a24.27,24.27,0,0,0-3.85-1.6C31.73,9.93,29.4,9.1,29.4,9.1a11.53,11.53,0,0,0-4.49-.42c-2.91.18-7.58.53-9.43-.66a11.27,11.27,0,0,1-2.66,2.09c-2.13,1.13-3.4.66-3.4.65a4.73,4.73,0,0,1-.58-.28l-.12-.07-.22-.13-.1-.06-.06,0L8,9.94l-.06,0-.17-.14L7.7,9.7l-.12-.1c0-.06-.11-.11-.17-.17L7.3,9.32A3.79,3.79,0,0,1,7,8.93l-.08-.12,0-.06L6.78,8.6l0-.09,0-.06a.14.14,0,0,1,0-.07.25.25,0,0,1,0-.07,3.86,3.86,0,0,1-.23-2.19,4,4,0,0,1,.16-.59A3.15,3.15,0,0,1,7.9,3.91c1.46-.86,5.81-1.07,7.43-1.55A18.42,18.42,0,0,1,26,2.14c4.69,1.47,6.48.87,8.75,1,1.56.09,5.82,1.29,7.9,3.61h0a4.77,4.77,0,0,1,.59.79l0,.07a3.58,3.58,0,0,1,.48,1.27A3.9,3.9,0,0,1,43.67,10.62Z"/><g class="cls-12"><path class="cls-9" d="M43.28,7.6l0-.07a4.77,4.77,0,0,0-.59-.79h0c-2.08-2.32-6.34-3.52-7.9-3.61-2.27-.12-4.06.48-8.75-1a15.75,15.75,0,0,0-5.14-.7h-.05a21.1,21.1,0,0,0-5.48.92c-1.62.48-6,.69-7.43,1.55A3.15,3.15,0,0,0,6.57,5.53a4,4,0,0,0-.16.59,6,6,0,0,1,2.5-1.71,27.48,27.48,0,0,1,5.11-1c1.74-.29,3.48-.8,5.22-1.06.09.42.84.75,1.75.75s1.72-.36,1.76-.8c2.59.4,5,1.81,7.61,2,1.5.1,3-.22,4.51-.15,3.26.15,7.51,2.07,8.71,4.08A3.83,3.83,0,0,0,43.28,7.6Z"/></g><g class="cls-10"><path class="cls-11" d="M43.67,10.62c-.86,3.13-3.47,2.64-3.47,2.64l-.29,0h0l-.27-.06h0l-.11,0,0,0a4.09,4.09,0,0,1-1-.43c-.15-.1-.31-.21-.47-.34a24.27,24.27,0,0,0-3.85-1.6C31.73,9.93,29.4,9.1,29.4,9.1a11.53,11.53,0,0,0-4.49-.42c-2.91.18-7.58.53-9.43-.66a11.27,11.27,0,0,1-2.66,2.09c-2.13,1.13-3.4.66-3.4.65a4.73,4.73,0,0,1-.58-.28l-.12-.07-.22-.13-.1-.06-.06,0L8,9.94l-.06,0-.17-.14L7.7,9.7l-.12-.1c0-.06-.11-.11-.17-.17L7.3,9.32A3.79,3.79,0,0,1,7,8.93l-.08-.12,0-.06L6.78,8.6l0-.09,0-.06a.14.14,0,0,1,0-.07.25.25,0,0,1,0-.07,3.87,3.87,0,0,1-.07-2.78A4.24,4.24,0,0,0,8.3,8.47,4.32,4.32,0,0,0,13.63,8a3.19,3.19,0,0,1-1-2.69c1.2,1.52,3.31,2,5.24,2.1a22.79,22.79,0,0,0,7.66-.87,1.27,1.27,0,0,0,.83-1.67l-.22-.57A15.12,15.12,0,0,0,35.46,9.2a1.52,1.52,0,0,0,1.43-.65,5.19,5.19,0,0,1,2.55-2A5.6,5.6,0,0,0,38.17,9,2.37,2.37,0,0,0,39,11.41a1.87,1.87,0,0,0,2.25-.2A1.9,1.9,0,0,0,41.6,9a1.17,1.17,0,0,0,1.71-1.3c.16.39.31.78.45,1.18A3.9,3.9,0,0,1,43.67,10.62Z"/></g><path class="cls-11" d="M40.56,13.64a2.45,2.45,0,0,1-.4,0,1.81,1.81,0,0,1-.31,0H39.8l-.29-.07h0l-.11,0-.06,0a4.36,4.36,0,0,1-1-.47,4.81,4.81,0,0,1-.49-.34,24.46,24.46,0,0,0-3.76-1.56c-2.41-.8-4.75-1.62-4.77-1.63h0A11.33,11.33,0,0,0,24.93,9l-.37,0c-2.82.18-7,.45-9-.58a11.22,11.22,0,0,1-2.56,2c-1.9,1-3.26.85-3.69.66h0a4.64,4.64,0,0,1-.62-.3l-.11-.06h0l-.23-.14-.05,0-.06,0h0l0,0c-.12-.09-.25-.17-.36-.26l-.06,0h0L7.53,10l-.06,0-.13-.11c-.06-.06-.12-.11-.18-.18L7,9.56a4.58,4.58,0,0,1-.34-.43L6.61,9a.43.43,0,0,0,0-.07l-.1-.17,0-.09v0l0-.06,0-.07a.14.14,0,0,1,0-.06v0a3.87,3.87,0,0,1,1.4-4.84,16,16,0,0,1,4.85-1.12A23.18,23.18,0,0,0,15.23,2,18.82,18.82,0,0,1,26.1,1.8a18.43,18.43,0,0,0,6.93,1,16.83,16.83,0,0,1,1.74,0c1.49.08,5.93,1.27,8.13,3.71h0A4.31,4.31,0,0,1,44,10.71h0A3.49,3.49,0,0,1,40.56,13.64Zm-.87-.83.24,0h0a1.22,1.22,0,0,0,.23,0h0c.09,0,2.31.38,3.07-2.39h0A3.63,3.63,0,0,0,42.4,7h0c-2.05-2.3-6.25-3.41-7.65-3.49-.57,0-1.11,0-1.68,0a18.94,18.94,0,0,1-7.16-1,18.17,18.17,0,0,0-10.46.22,21.91,21.91,0,0,1-2.76.49,16.52,16.52,0,0,0-4.59,1A3.17,3.17,0,0,0,7,8.17v0l0,0H7l0,0H7l0,0h0l0,.08a1,1,0,0,0,.08.14l0,0a.61.61,0,0,0,.07.1,3.05,3.05,0,0,0,.29.36l.1.1.15.15.11.1L8,9.48l.16.13.06,0,.33.24h0l0,0,.05,0,0,0,.21.13h0l.1.06c.32.17.54.26.54.26h0a4.36,4.36,0,0,0,3.08-.64,11,11,0,0,0,2.57-2,.34.34,0,0,1,.45-.06c1.68,1.08,6,.81,8.84.62l.37,0a11.86,11.86,0,0,1,4.64.45c.11,0,2.4.84,4.76,1.63A24.84,24.84,0,0,1,38.18,12l0,0a3.19,3.19,0,0,0,.44.31,3.67,3.67,0,0,0,.88.4h0l.1,0Zm-30-2.22s0,0,0,.05h0S9.74,10.61,9.73,10.59Z"/><path class="cls-11" d="M40.56,13.64l-.32,0a.33.33,0,0,1-.1,0l-.29,0h-.06l-.27-.06h0l-.11,0-.06,0a4.14,4.14,0,0,1-1-.48,2.43,2.43,0,0,1-.6-.51l0,0c-.05-.07-1.14-1.84.33-4.42a4,4,0,0,1,2.7-2.09,2.64,2.64,0,0,1,2.17.55l0,0h0A4.31,4.31,0,0,1,44,10.71,3.49,3.49,0,0,1,40.56,13.64Zm-.38-.74h.08c.09,0,2.31.38,3.07-2.39h0A3.61,3.61,0,0,0,42.4,7a1.85,1.85,0,0,0-1.57-.39,3.28,3.28,0,0,0-2.21,1.75A3.72,3.72,0,0,0,38.26,12a2.24,2.24,0,0,0,.42.34,3.57,3.57,0,0,0,.86.39h0l.1,0h0a1.14,1.14,0,0,0,.25.06h0l.16,0Z"/><g class="cls-16"><path d="M14.47,12.5l-3.85,9.43c-.37-.05-.69-.11-1-.16a1.42,1.42,0,0,1-.9-.58l3.59-8.79C13.13,12.41,13.83,12.45,14.47,12.5Z"/></g><g class="cls-17"><path d="M17.26,13l-3.74,9.16c-.51,0-1,0-1.42,0l3.83-9.38C16.44,12.77,16.88,12.86,17.26,13Z"/></g><path class="cls-11" d="M38.2,12a2.69,2.69,0,0,0,.5.39,2.32,2.32,0,0,0,.57.22,2,2,0,0,0,1.23-.17,2.53,2.53,0,0,0,1-.86,2.32,2.32,0,0,0,.4-1.25,2.1,2.1,0,0,0-.08-.66,1.55,1.55,0,0,0-.31-.58A1.32,1.32,0,0,0,41,8.72a.94.94,0,0,0-.64,0,1.11,1.11,0,0,0-.51.42.79.79,0,0,0-.1.65.89.89,0,0,0,.43.52.74.74,0,0,0,.68,0,.75.75,0,0,1-.7,0,1,1,0,0,1-.49-.52.91.91,0,0,1,.07-.74,1.24,1.24,0,0,1,.55-.51A1.14,1.14,0,0,1,41,8.52a1.44,1.44,0,0,1,.66.39,1.68,1.68,0,0,1,.4.66,2.38,2.38,0,0,1,.15.75,2.73,2.73,0,0,1-.39,1.47,2.85,2.85,0,0,1-1.1,1.08,2.43,2.43,0,0,1-1.55.3,2.36,2.36,0,0,1-.78-.24,3.34,3.34,0,0,1-.66-.45.34.34,0,0,1,.44-.51h0Z"/><path d="M13.38,22.46l-1.3,0q-.78,0-1.5-.15c-.35,0-.68-.1-1-.16a1.8,1.8,0,0,1-1.12-.72,1.83,1.83,0,0,1-.28-.58,21.51,21.51,0,0,1-.74-7,1.81,1.81,0,0,1,1.65-1.7c1.12-.09,2.22-.13,3.25-.12.74,0,1.47.05,2.15.11.51,0,1,.11,1.48.18s.94.17,1.37.27a11.82,11.82,0,0,1,1.65.53,4.91,4.91,0,0,1,3.42.32.34.34,0,0,1,.2.26.41.41,0,0,1,0,.19c0,.26-.18,1.2-.22,1.84,0,.12,0,.23,0,.35a.36.36,0,0,1-.71,0v-.15a2.74,2.74,0,0,0-2-.23,18.31,18.31,0,0,1-1.2,5l0,.11a2.36,2.36,0,0,1-1.92,1.46,22.93,22.93,0,0,1-3,.19ZM12,12.75q-1.37,0-2.82.12a1.1,1.1,0,0,0-1,1,20.55,20.55,0,0,0,.72,6.73,1,1,0,0,0,.17.35,1.05,1.05,0,0,0,.68.44c.29.06.61.11.94.16s.95.11,1.45.14.94,0,1.4,0a23.4,23.4,0,0,0,2.87-.18,1.68,1.68,0,0,0,1.35-1l0-.1a18.1,18.1,0,0,0,1.17-5,.37.37,0,0,1,.16-.27l.12-.06a3.2,3.2,0,0,1,2.49.09c0-.45.11-.91.15-1.19a4.23,4.23,0,0,0-2.78-.13.39.39,0,0,1-.28,0l0,0a9.76,9.76,0,0,0-1.6-.51c-.41-.1-.85-.19-1.31-.26s-.94-.14-1.43-.18c-.67-.06-1.38-.1-2.1-.11ZM22.52,14Z"/><path d="M13.39,22.46l-1.31,0q-.78,0-1.5-.15c-.35,0-.68-.1-1-.16a1.8,1.8,0,0,1-1.12-.72,1.83,1.83,0,0,1-.28-.58,21.51,21.51,0,0,1-.74-7,1.81,1.81,0,0,1,1.65-1.7c1.12-.09,2.22-.13,3.25-.12.74,0,1.47.05,2.15.11.51,0,1,.11,1.48.18s.94.17,1.37.27a10.6,10.6,0,0,1,1.72.56.39.39,0,0,1,.19.23,4.33,4.33,0,0,1,.4,2.07h0a16,16,0,0,1-1.22,5.24l0,.11a2.36,2.36,0,0,1-1.92,1.46,22.93,22.93,0,0,1-3,.19ZM12,12.75q-1.37,0-2.82.12a1.1,1.1,0,0,0-1,1,20.55,20.55,0,0,0,.72,6.73,1,1,0,0,0,.17.35,1.05,1.05,0,0,0,.68.44c.29.06.61.11.94.16s.95.11,1.45.14.94,0,1.4,0a23.4,23.4,0,0,0,2.87-.18,1.68,1.68,0,0,0,1.35-1l0-.1a15.37,15.37,0,0,0,1.17-5,3.62,3.62,0,0,0-.3-1.66,9.39,9.39,0,0,0-1.47-.46c-.41-.1-.85-.19-1.31-.26s-.94-.14-1.43-.18c-.67-.06-1.38-.1-2.1-.11Zm7.32,2.69Z"/><path class="cls-9" d="M15.8,23.25c.89-1.28,2.3.1,4.54.1,1.22,0,2.77-.89,3.94.1s.48,5.15-4.24,4.88S14.85,24.63,15.8,23.25Z"/><path d="M30,24.1a17.71,17.71,0,0,1-2.75-.21c-.46-.07-.92-.16-1.37-.27s-.84-.23-1.24-.36-.7-.25-1-.39a3.18,3.18,0,0,1-.85-.55,3,3,0,0,1-1-1.92,29.07,29.07,0,0,1-.16-4.34h0c0-.12,0-.24,0-.35,0-.78.23-1.92.24-2a.36.36,0,0,1,.07-.18l0,0a.36.36,0,0,1,.37-.09,18.67,18.67,0,0,1,4.13-.24c.67,0,1.36.11,2.06.22.41.06.84.14,1.28.23s.88.2,1.33.32a24.32,24.32,0,0,1,7.65,3.53A4.06,4.06,0,0,1,40,18.68a3.53,3.53,0,0,1-.82,3.7,1.06,1.06,0,0,1-1.28.3h0c-.76-.44-.54-1.26-.39-1.85a1.7,1.7,0,0,0,.11-.84,1.53,1.53,0,0,0-.51-.42,15.71,15.71,0,0,0-2.36-1.14,26.71,26.71,0,0,1-1.39,3.89,2.9,2.9,0,0,1-2.55,1.76C30.57,24.1,30.3,24.1,30,24.1Zm-7.67-8h0a31.86,31.86,0,0,0,.15,4.23,2.39,2.39,0,0,0,.76,1.47,2.13,2.13,0,0,0,.65.42,9.47,9.47,0,0,0,1,.37c.38.13.78.25,1.18.35s.87.19,1.31.26a17.54,17.54,0,0,0,3.42.18A2.2,2.2,0,0,0,32.74,22a22.38,22.38,0,0,0,1.43-4.16.34.34,0,0,1,.17-.25.37.37,0,0,1,.31,0A20.4,20.4,0,0,1,37.52,19a1.92,1.92,0,0,1,.78.74,2,2,0,0,1-.07,1.3c-.18.67-.19.91.05,1s.3-.06.44-.19A2.89,2.89,0,0,0,39.4,19a3.42,3.42,0,0,0-1-1A23.38,23.38,0,0,0,31,14.65c-.44-.12-.88-.22-1.3-.31s-.84-.17-1.24-.23c-.67-.1-1.34-.17-2-.21a17.34,17.34,0,0,0-3.91.22c-.06.4-.16,1.11-.19,1.62C22.37,15.85,22.37,16,22.36,16.08Z"/><path class="cls-11" d="M20.45,28.7H20c-3.06-.18-4.21-1.63-4.62-2.48a3.23,3.23,0,0,1,.11-3.16c.69-1,1.65-.72,2.66-.43a8,8,0,0,0,2.17.37,5.62,5.62,0,0,0,1.15-.17,3.33,3.33,0,0,1,3,.35,2.65,2.65,0,0,1,.36,2.94A4.43,4.43,0,0,1,20.45,28.7Zm-3.63-5.64a.78.78,0,0,0-.72.4h0A2.48,2.48,0,0,0,16,25.9c.6,1.23,2,2,4,2.08h.42c2.59,0,3.47-1.48,3.73-2.14a2,2,0,0,0-.16-2.13,2.68,2.68,0,0,0-2.41-.2,6.58,6.58,0,0,1-1.3.19A8.42,8.42,0,0,1,18,23.3,4.86,4.86,0,0,0,16.82,23.06Zm-1,.19Z"/><path class="cls-11" d="M20.45,26.27l-.47,0a8.18,8.18,0,0,1-4.76-1.81.36.36,0,0,1-.05-.5.35.35,0,0,1,.5-.05A7.48,7.48,0,0,0,20,25.54a7.69,7.69,0,0,0,4.55-1.19.35.35,0,0,1,.49.11A.36.36,0,0,1,25,25,8.39,8.39,0,0,1,20.45,26.27Z"/><path class="cls-11" d="M16.74,23.71a4.16,4.16,0,0,1,0,.51c0,.15,0,.3-.05.44s-.05.29-.08.44a3.59,3.59,0,0,1-.14.48.9.9,0,0,1-.25-.47,1.14,1.14,0,0,1,0-.52,1.29,1.29,0,0,1,.17-.5A1.06,1.06,0,0,1,16.74,23.71Z"/><path class="cls-11" d="M18,24.25a2.6,2.6,0,0,1,0,.55c0,.17,0,.34-.05.5s-.06.33-.1.49a2.55,2.55,0,0,1-.18.53,1.4,1.4,0,0,1-.22-.54,1.84,1.84,0,0,1,.17-1.09A1.37,1.37,0,0,1,18,24.25Z"/><path class="cls-11" d="M19.67,24.64a2.4,2.4,0,0,1,.09.57,3.25,3.25,0,0,1,0,.54,3.33,3.33,0,0,1-.07.54,2.52,2.52,0,0,1-.18.55,1.49,1.49,0,0,1-.21-.55,2.24,2.24,0,0,1,0-.58,2.34,2.34,0,0,1,.12-.56A1.46,1.46,0,0,1,19.67,24.64Z"/><path class="cls-11" d="M21.39,24.57a1.87,1.87,0,0,1,.22.58,2.84,2.84,0,0,1,.05.58,3,3,0,0,1-.09.59,1.54,1.54,0,0,1-.26.55,2.16,2.16,0,0,1-.13-.59,3.54,3.54,0,0,1,0-.56,2.76,2.76,0,0,1,.06-.57A2.23,2.23,0,0,1,21.39,24.57Z"/><path class="cls-9" d="M14,34.72l-.24-.83-.23-.8-1.19-4.16-.21-.71s3.2-1,4.75.48a2.47,2.47,0,0,1,.62,1C18.94,33.64,14,34.72,14,34.72Z"/><g class="cls-12"><path class="cls-9" d="M17.16,32.88a3.27,3.27,0,0,0,.08-2.72,2.47,2.47,0,0,0-.62-1c-1.22-1.18-3.44-.81-4.35-.59l-.1-.36s3.2-1,4.75.48a2.47,2.47,0,0,1,.62,1A3.18,3.18,0,0,1,17.16,32.88Z"/></g><path class="cls-11" d="M22.82,24.41a1.28,1.28,0,0,1,.33.51,1.89,1.89,0,0,1,.14.58,2.38,2.38,0,0,1,0,.59,1.51,1.51,0,0,1-.25.55,4.71,4.71,0,0,1-.15-.56q0-.28-.06-.54a3.33,3.33,0,0,1,0-.55A3,3,0,0,1,22.82,24.41Z"/><path class="cls-11" d="M14,35.07a.35.35,0,0,1-.34-.25l-1.87-6.5a.36.36,0,0,1,.23-.44,8.37,8.37,0,0,1,2.42-.36c1.75,0,2.93.72,3.4,2.05a3.64,3.64,0,0,1-.15,3.08,6,6,0,0,1-3.62,2.41Zm-.08-.7Zm-1.35-5.9,1.67,5.81a5,5,0,0,0,2.83-2,2.93,2.93,0,0,0,.1-2.49C16.47,27.73,13.6,28.23,12.61,28.47Z"/><path class="cls-9" d="M25.78,35a2.93,2.93,0,0,1-2.71,3.11,2.62,2.62,0,0,1-2.21-1.31.65.65,0,0,1-.09-.16A3.44,3.44,0,0,1,20.36,35,3.16,3.16,0,0,1,22,32.18a2.44,2.44,0,0,1,1.07-.25,2.58,2.58,0,0,1,.87.16A3.11,3.11,0,0,1,25.78,35Z"/><g class="cls-18"><path class="cls-9" d="M24.15,33.31a3.07,3.07,0,0,0-1.58-.21,2.18,2.18,0,0,0-1.41,1.12A3.8,3.8,0,0,0,20.74,36c0,.22,0,.45,0,.67A3.44,3.44,0,0,1,20.36,35,3.16,3.16,0,0,1,22,32.18a2.68,2.68,0,0,1,.93.21A3.16,3.16,0,0,1,24.15,33.31Z"/></g><path class="cls-11" d="M13.8,34.25a.35.35,0,0,1-.34-.26L12,29a.37.37,0,0,1,.18-.42,4.33,4.33,0,0,1,3.56,0,2.42,2.42,0,0,1,1.32,1.9,2.91,2.91,0,0,1-.66,2.4,4.42,4.42,0,0,1-2.63,1.35Zm-1-5.12,1.25,4.35A3.64,3.64,0,0,0,16,32.37a2.24,2.24,0,0,0,.44-1.77,1.74,1.74,0,0,0-1-1.37A3.67,3.67,0,0,0,12.8,29.13Z"/><path class="cls-11" d="M23.07,38.51A3.3,3.3,0,0,1,20,35a3.3,3.3,0,0,1,3.07-3.47A3.29,3.29,0,0,1,26.13,35,3.29,3.29,0,0,1,23.07,38.51Zm0-6.23A2.59,2.59,0,0,0,20.71,35a2.59,2.59,0,0,0,2.36,2.76A2.59,2.59,0,0,0,25.42,35,2.59,2.59,0,0,0,23.07,32.28Z"/><path class="cls-11" d="M22.57,38.09a2.82,2.82,0,0,1-2.57-3,2.82,2.82,0,0,1,2.57-3,2.82,2.82,0,0,1,2.56,3A2.82,2.82,0,0,1,22.57,38.09Zm0-5.31a2.13,2.13,0,0,0-1.86,2.3,2.12,2.12,0,0,0,1.86,2.3,2.11,2.11,0,0,0,1.85-2.3A2.12,2.12,0,0,0,22.57,32.78Z"/><path class="cls-11" d="M22.21,34.38a.08.08,0,0,1-.14,0c-.2-.34-.55-1-.22-1.11S22.21,34,22.21,34.38Z"/><path class="cls-11" d="M14.08,30.56a.07.07,0,0,1-.12-.07c.1-.38.32-1.1.63-.93S14.37,30.29,14.08,30.56Z"/><path class="cls-11" d="M14.44,31.59a.08.08,0,0,1,0-.14c.39,0,1.14,0,1.07.33S14.79,31.78,14.44,31.59Z"/><path class="cls-11" d="M23.07,35.47a.07.07,0,0,1,.07-.12c.39.09,1.11.29.95.6S23.36,35.75,23.07,35.47Z"/><path class="cls-11" d="M22,35.38a.07.07,0,0,1,.12.07c-.11.38-.35,1.09-.65.91S21.66,35.64,22,35.38Z"/><path class="cls-9" d="M28.3,28.76a.38.38,0,0,1-.4.32l-.77-.21s.46,1.47.15,1.64c-.5.28-1.68.07-1.81-.32a.92.92,0,0,1,0-.37,6.06,6.06,0,0,1,.37-1.14l-.64-.09h0a.37.37,0,0,1-.3-.5A2,2,0,0,1,27,26.57a1.65,1.65,0,0,1,.66.24,1.64,1.64,0,0,1,.63,1.36A3.61,3.61,0,0,1,28.3,28.76Z"/><g class="cls-12"><path class="cls-9" d="M28.32,28.17a2.22,2.22,0,0,0-1.14-.93,1.14,1.14,0,0,0-1.4.38,3.52,3.52,0,0,0-.58,1h0a.37.37,0,0,1-.3-.5A2,2,0,0,1,27,26.57a1.65,1.65,0,0,1,.66.24A1.64,1.64,0,0,1,28.32,28.17Z"/></g><path class="cls-19" d="M21.8,12A2.9,2.9,0,0,0,23,12c.28-.17.21-1.09-.09-1.42s-1.2.42-1.2.42v-.61a.28.28,0,0,0-.31-.24c-.5.06-1.51.3-1.4,1.36a1.56,1.56,0,0,0,1.53,1.31.29.29,0,0,0,.32-.32Z"/><path class="cls-11" d="M26.66,31a2.72,2.72,0,0,1-.94-.17.92.92,0,0,1-.59-.54A2.41,2.41,0,0,1,25.34,29l-.19,0a.71.71,0,0,1-.53-.35.73.73,0,0,1-.05-.63,2.32,2.32,0,0,1,2.51-1.74c1.17.17,1.76,1.13,1.57,2.58a.72.72,0,0,1-.78.63h-.06l-.18,0c.28,1.19,0,1.37-.17,1.45A1.74,1.74,0,0,1,26.66,31Zm-.85-.93a1.7,1.7,0,0,0,1.22.17A4.65,4.65,0,0,0,26.79,29a.36.36,0,0,1,.43-.45l.72.19h0c.1-.74,0-1.65-1-1.79a1.68,1.68,0,0,0-1.75,1.3h0l.64.09a.33.33,0,0,1,.26.18.36.36,0,0,1,0,.32A3.54,3.54,0,0,0,25.81,30.07Zm0,0Zm0,0"/><path class="cls-11" d="M21.56,13.21h-.08a1.87,1.87,0,0,1-1.84-1.63c-.1-.95.54-1.61,1.72-1.74a.63.63,0,0,1,.7.53.13.13,0,0,1,0,.06h0c.79-.38,1-.16,1.09-.06a1.87,1.87,0,0,1,.35,1.36.77.77,0,0,1-.33.6,1.71,1.71,0,0,1-1,.11v.05A.65.65,0,0,1,22,13,.63.63,0,0,1,21.56,13.21Zm-.06-.63Zm-.15-2c-.72.11-1.05.43-1,1s.64.9,1.14,1l0-.41a.38.38,0,0,1,.11-.3.36.36,0,0,1,.31-.09,3.13,3.13,0,0,0,.92.05A1.32,1.32,0,0,0,22.7,11a4,4,0,0,0-.81.4.35.35,0,0,1-.37,0,.33.33,0,0,1-.17-.31Zm1.42,1.22Z"/><path class="cls-20" d="M20.38,18.84a1.26,1.26,0,0,0-.73.57,2.25,2.25,0,0,0-.31.89,1.91,1.91,0,0,0,0,.79.85.85,0,0,0,.5.59.59.59,0,0,0,.7-.23c.22-.44-.29-1-.1-1.43.12-.27.47-.41.53-.7a.43.43,0,0,0-.15-.42A.59.59,0,0,0,20.38,18.84Z"/><path class="cls-20" d="M13.79,22.75a1.24,1.24,0,0,0-1.15.58,2.2,2.2,0,0,0-.28,1.31,1.7,1.7,0,0,0,.17.67.84.84,0,0,0,.52.44.56.56,0,0,0,.6-.24.85.85,0,0,0,0-.73,1.16,1.16,0,0,1-.1-.73,1.27,1.27,0,0,1,.36-.44.69.69,0,0,0,.26-.5A.4.4,0,0,0,13.79,22.75Z"/><path class="cls-20" d="M27.31,11.06a1.6,1.6,0,0,0,.48,1.16,2.67,2.67,0,0,0,1.09.64,1.29,1.29,0,0,0,.67.07.53.53,0,0,0,.41-.48.68.68,0,0,0-.51-.52,2.58,2.58,0,0,1-.72-.26,1.71,1.71,0,0,1-.38-.53.94.94,0,0,0-.46-.44C27.69,10.63,27.31,10.74,27.31,11.06Z"/><path class="cls-20" d="M20.63,29.92a5.59,5.59,0,0,1-1.14.28,1,1,0,0,0-.44.13A.52.52,0,0,0,19,31a.81.81,0,0,0,.62.35,1.7,1.7,0,0,0,.73-.14,4.35,4.35,0,0,0,.81-.4.89.89,0,0,0,.36-.36.5.5,0,0,0-.17-.57A.8.8,0,0,0,20.63,29.92Z"/><path class="cls-20" d="M20.39,39.66a2.83,2.83,0,0,0-.17-.65,1,1,0,0,0-.45-.48.62.62,0,0,0-.64,0,.46.46,0,0,0-.08.61c.08.09.2.14.3.23s.21.61.31.92a.83.83,0,0,0,.33.47.55.55,0,0,0,.55,0,.42.42,0,0,0,.21-.49,1.14,1.14,0,0,0-.23-.31A.71.71,0,0,1,20.39,39.66Z"/><path class="cls-20" d="M16.13,10a6.43,6.43,0,0,0-1.8.45.91.91,0,0,0-.52.27.56.56,0,0,0,.19.75,1,1,0,0,0,.84.07,8.09,8.09,0,0,0,.81-.33A3.71,3.71,0,0,0,16.2,11a.64.64,0,0,0,.35-.45A.47.47,0,0,0,16.13,10Z"/><path class="cls-20" d="M32.36,11.89a.79.79,0,0,0-.44.34.45.45,0,0,0,0,.36.8.8,0,0,0,1,.3,1.52,1.52,0,0,0,.78-.76.59.59,0,0,0,.09-.48.47.47,0,0,0-.53-.23A7.07,7.07,0,0,1,32.36,11.89Z"/><path class="cls-11" d="M34.53,16c0-.21.08-.43.12-.65l.09-.65a8.46,8.46,0,0,0,.06-1.33,8.35,8.35,0,0,1,.27,1.32c0,.23.06.45.08.68s0,.45.05.68a.33.33,0,0,1-.32.35.32.32,0,0,1-.35-.32A.21.21,0,0,1,34.53,16Z"/><path class="cls-11" d="M28.47,30c0-.06.06-.15.09-.23a2.25,2.25,0,0,0,.08-.24c.05-.16.1-.33.14-.5a7,7,0,0,0,.14-1,4.52,4.52,0,0,0-.08-1,2.91,2.91,0,0,0-.16-.5,2.08,2.08,0,0,0-.24-.47,2.67,2.67,0,0,1,.32.43A4.44,4.44,0,0,1,29,27,4.38,4.38,0,0,1,29.25,28a5.88,5.88,0,0,1,0,1.11,5.32,5.32,0,0,1-.06.56c0,.09,0,.18,0,.27s0,.18-.07.29h0a.33.33,0,1,1-.64-.17A.43.43,0,0,0,28.47,30Z"/><path class="cls-11" d="M30.37,9.81A3,3,0,0,1,28.7,7.66a2.7,2.7,0,0,0,1.89,1.52.34.34,0,0,1-.13.67l-.08,0Z"/><path class="cls-11" d="M15.47,8.41l-.89-.91,1.23.34a.33.33,0,0,1,.24.42.34.34,0,0,1-.42.25A.34.34,0,0,1,15.47,8.41Z"/><g class="cls-10"><path class="cls-11" d="M12.34,27.29s.31,3.25-1.29,3.2c-.68,0-1-.48-1.12-1.15a.83.83,0,0,0,.68.11,1.7,1.7,0,0,0,.93-.93A5.15,5.15,0,0,0,12,26.9a.16.16,0,0,1,.31,0,7.62,7.62,0,0,1,.14.81Z"/></g><g class="cls-21"><path class="cls-22" d="M14,34.72l-.24-.83-.23-.8a4.38,4.38,0,0,0,2.63-1.51,3.69,3.69,0,0,0,.72-2.88,2.47,2.47,0,0,1,.62,1C18.94,33.64,14,34.72,14,34.72Z"/></g><g class="cls-10"><path class="cls-22" d="M25.78,35a2.93,2.93,0,0,1-2.71,3.11,2.62,2.62,0,0,1-2.21-1.31,2.79,2.79,0,0,0,1.58-.19,3.24,3.24,0,0,0,1.81-2.41,3.79,3.79,0,0,0-.31-2.15A3.11,3.11,0,0,1,25.78,35Z"/></g><g class="cls-23"><path class="cls-22" d="M28.3,28.76a.38.38,0,0,1-.4.32l-.77-.21s.46,1.47.15,1.64c-.5.28-1.68.07-1.81-.32a.92.92,0,0,1,0-.37,1.13,1.13,0,0,0,.83-.11,1,1,0,0,0,.44-.74,1.84,1.84,0,0,0,0-.33.36.36,0,0,1,.43-.35h0a.59.59,0,0,0,.51-.16.72.72,0,0,0,.12-.43,2.08,2.08,0,0,0-.17-.89A2,2,0,0,1,28.3,28.76Z"/></g><g class="cls-10"><path class="cls-11" d="M16.66,38.63c-.05.72-.25,1.33-.79,1.33-.38,0-.58-.22-.7-.59a.46.46,0,0,0,.2,0,.75.75,0,0,0,.48-.54,2.48,2.48,0,0,0,0-.77c-.05-.66-.1-1.32-.14-2a.77.77,0,0,1,0-.45.31.31,0,0,1,.38-.18.37.37,0,0,1,.19.25,2.83,2.83,0,0,1,.18.91v.15A14.87,14.87,0,0,0,16.66,38.63Z"/></g></svg>