<svg id="Слой_1" data-name="Слой 1" xmlns="http://www.w3.org/2000/svg" viewBox="0 0 50 50"><defs><style>.cls-1{fill:#ea5252;}</style></defs><path class="cls-1" d="M40.32,33.9c0-8.4-4.48-11-4.74-14.59A1.32,1.32,0,0,1,36.06,18c-.53-.16-1,.36-1.18.88a7,7,0,0,1-.4,1.58c-.27.47-1,.73-1.34.27a.86.86,0,0,1,.13-1c.21-.28.5-.49.69-.78a3,3,0,0,0-.15-2.76,3.68,3.68,0,0,1-.43-2.77A2.5,2.5,0,0,0,31.86,16a4.22,4.22,0,0,1-.16-2.79A8.7,8.7,0,0,0,32,10.38a2.2,2.2,0,0,0-1.72-2,2.61,2.61,0,0,1,.1,1.56,1,1,0,0,1-1.25.66c-.56-.28-.52-1.08-.37-1.69A5.44,5.44,0,0,0,29,5.68a9,9,0,0,0-1.8-2.26c-.62-.75-1-1.91-.37-2.65A2.25,2.25,0,0,0,25.1,2.4a11.28,11.28,0,0,0-.32,2.46,3.52,3.52,0,0,1-.88,2.28,2.14,2.14,0,0,1-3.6-1.85,4.83,4.83,0,0,0-1.44,4.46,7.27,7.27,0,0,1,.28,1.59,1.18,1.18,0,0,1-.89,1.18,1,1,0,0,1-1-.61,1.88,1.88,0,0,1-.09-1.22,4.74,4.74,0,0,0-1,3.93,19,19,0,0,1,.38,4.17c-.26-.9-1-2.07-2.11-2.17,2.27,3-4.77,6.7-4.77,17.28a15.32,15.32,0,1,0,30.64,0ZM12,33.9A13.05,13.05,0,1,1,25,47,13.05,13.05,0,0,1,12,33.9Z"/><path class="cls-1" d="M25,24.08a.43.43,0,0,0,.43-.43V22.48a.43.43,0,0,0-.86,0v1.17A.43.43,0,0,0,25,24.08Z"/><path class="cls-1" d="M20.25,24.81l-.59-1a.45.45,0,0,0-.59-.16.43.43,0,0,0-.21.38.54.54,0,0,0,.05.21l.59,1a.43.43,0,0,0,.75-.43Z"/><path class="cls-1" d="M16.49,29a.43.43,0,0,0-.16-.59l-1-.58a.44.44,0,0,0-.59.15.46.46,0,0,0-.06.22.42.42,0,0,0,.22.37l1,.59A.43.43,0,0,0,16.49,29Z"/><path class="cls-1" d="M15.18,33.9a.43.43,0,0,0-.43-.43H13.58a.43.43,0,1,0,0,.86h1.17A.43.43,0,0,0,15.18,33.9Z"/><path class="cls-1" d="M16.33,39.4a.43.43,0,0,0,.16-.59.43.43,0,0,0-.59-.15l-1,.58a.44.44,0,0,0-.22.37.44.44,0,0,0,.65.38Z"/><path class="cls-1" d="M19.66,44l.59-1a.45.45,0,0,0-.16-.59.43.43,0,0,0-.59.16l-.59,1a.54.54,0,0,0-.05.22.43.43,0,0,0,.8.21Z"/><path class="cls-1" d="M25.43,45.33V44.16a.43.43,0,0,0-.86,0v1.17a.43.43,0,0,0,.86,0Z"/><path class="cls-1" d="M29.7,42.78a.54.54,0,0,0,.05.22l.59,1a.43.43,0,0,0,.59.16.45.45,0,0,0,.16-.59l-.59-1a.43.43,0,0,0-.59-.16A.42.42,0,0,0,29.7,42.78Z"/><path class="cls-1" d="M33.51,38.81a.46.46,0,0,0-.06.22.42.42,0,0,0,.22.37l1,.59a.43.43,0,0,0,.43-.75l-1-.58A.43.43,0,0,0,33.51,38.81Z"/><path class="cls-1" d="M34.82,33.9a.43.43,0,0,0,.43.43h1.17a.43.43,0,1,0,0-.86H35.25A.43.43,0,0,0,34.82,33.9Z"/><path class="cls-1" d="M35.11,28.56a.43.43,0,0,0,.16-.59.43.43,0,0,0-.59-.15l-1,.58a.44.44,0,0,0-.22.37.44.44,0,0,0,.65.38Z"/><path class="cls-1" d="M30.5,25.24l.59-1a.43.43,0,0,0-.75-.43l-.59,1a.5.5,0,0,0-.05.21.42.42,0,0,0,.21.37A.43.43,0,0,0,30.5,25.24Z"/><path class="cls-1" d="M31.13,39.48c-.64-.7-1.28-1.4-1.93-2.09-.85-.92-1.72-1.86-2.6-2.79a1.75,1.75,0,0,0-2.24-2.32c-.35-.36-.7-.71-1.06-1.06a.69.69,0,0,0-1,1c.34.36.7.71,1.06,1.07A1.74,1.74,0,0,0,25.7,35.5l1.74,1.64c.62.56,1.49,1.38,2.09,1.93l1,1a.38.38,0,0,0,.52,0A.39.39,0,0,0,31.13,39.48Z"/></svg>