<svg id="Слой_1" data-name="Слой 1" xmlns="http://www.w3.org/2000/svg" xmlns:xlink="http://www.w3.org/1999/xlink" viewBox="0 0 50 50"><defs><style>.cls-1{fill:url(#Безымянный_градиент_2);}.cls-2{fill:url(#Безымянный_градиент_28);}.cls-3{fill:url(#Безымянный_градиент_28-2);}</style><linearGradient id="Безымянный_градиент_2" x1="19.64" y1="37.25" x2="42.4" y2="37.25" gradientUnits="userSpaceOnUse"><stop offset="0" stop-color="#b4579d"/><stop offset="1" stop-color="#f7e926"/></linearGradient><linearGradient id="Безымянный_градиент_28" x1="7.55" y1="19.55" x2="42.45" y2="19.55" gradientUnits="userSpaceOnUse"><stop offset="0" stop-color="#e6235a"/><stop offset="1" stop-color="#6ec6d3"/></linearGradient><linearGradient id="Безымянный_градиент_28-2" x1="7.38" y1="12.84" x2="42.45" y2="12.84" xlink:href="#Безымянный_градиент_28"/></defs><path class="cls-1" d="M20.5,25.76H21a.86.86,0,0,1,.61.25l8.83,8.82a.85.85,0,0,0,1.21,0L40.45,26a.86.86,0,0,1,.61-.25h.48a.85.85,0,0,1,.85.85V47.79a.85.85,0,0,1-.85.86H36.29a.86.86,0,0,1-.86-.86V39.07a.87.87,0,0,1,.86-.86h.07a.86.86,0,0,1,.86.86v7a.86.86,0,0,0,.86.86h1.76a.85.85,0,0,0,.86-.86V30.41a.86.86,0,0,0-1.46-.61l-7.62,7.61a.86.86,0,0,1-1.21,0l-7.57-7.56a.85.85,0,0,0-1.46.61V46.05a.85.85,0,0,0,.85.86H24a.86.86,0,0,0,.86-.86V42.6a.86.86,0,0,1,.85-.86h0a.86.86,0,0,1,.86.86v5.29a.86.86,0,0,1-.86.86H20.5a.86.86,0,0,1-.86-.86V26.61A.85.85,0,0,1,20.5,25.76Z"/><path class="cls-2" d="M16.92,29.88h0a1.34,1.34,0,0,0-1.33,1.33V33.8a1.32,1.32,0,0,1-1.32,1.32H11.61a1.33,1.33,0,0,1-1.33-1.32V2.58A1.33,1.33,0,0,0,9,1.25H8.88A1.34,1.34,0,0,0,7.55,2.58V36.52a1.33,1.33,0,0,0,1.33,1.33h8a1.32,1.32,0,0,0,1.33-1.33V31.21A1.33,1.33,0,0,0,16.92,29.88Z"/><path class="cls-3" d="M41.12,1.25H14.27a1.33,1.33,0,0,0-1.33,1.33v.07A1.32,1.32,0,0,0,14.27,4H38.46a1.34,1.34,0,0,1,1.33,1.33v15a1.34,1.34,0,0,1-1.33,1.33H17a1.33,1.33,0,0,1-1.32-1.33V17.64A1.33,1.33,0,0,1,17,16.31H30.35A1.33,1.33,0,0,0,31.68,15v-.08a1.33,1.33,0,0,0-1.33-1.32H14.41a1.33,1.33,0,0,0-1.33,1.32V23.1a1.34,1.34,0,0,0,1.33,1.33H41.12a1.34,1.34,0,0,0,1.33-1.33V2.58A1.34,1.34,0,0,0,41.12,1.25Z"/></svg>