<svg id="Слой_1" data-name="Слой 1" xmlns="http://www.w3.org/2000/svg" viewBox="0 0 50 50"><path d="M8,15.68c.24.12.36.12.49,0h0a6.27,6.27,0,0,0,1.47-.24c-.61,0-1.1-.13-1.72-.13-.12,0-.12,0-.24-.12h.12a6.69,6.69,0,0,1,1.84-.49,3.13,3.13,0,0,0-1-.12.12.12,0,0,1-.12-.12c.24,0,.49-.13.73-.13.61,0,1.23.13,2,.13h.74a4.94,4.94,0,0,0-1.35-.86c.61,0,1,.37,1.59.49h0c0,.12.13.12.13.12h0c0,.12.12.12.24.12a.64.64,0,0,1,.25-.49,6.72,6.72,0,0,0,1.47-1.1c.49-.49.49-.49,1.1,0a1.58,1.58,0,0,1-.73.61c-.37.12-.62.62-1.11.86a7.31,7.31,0,0,1,1.6,1.1c0,.13.12.13.12.25l.12.12c.12.25.25.37.25.49h0a.36.36,0,0,0-.13-.49l-.12-.12c0-.12,0-.25-.12-.25a3.91,3.91,0,0,1-.61-.73,7.62,7.62,0,0,1,1,.61,5.44,5.44,0,0,1,1.35,1.1.46.46,0,0,1,.12.25c-.12-.12-.12-.25-.25-.25L17,16.17v-.12l-.12-.12a.12.12,0,0,0-.12-.13h.12c0,.13,0,.13.12.13v.12l.12.12.25.25c.24.12.37.49.49.61l.12.12.49.49A16,16,0,0,1,20.1,20a19.27,19.27,0,0,1,1,3.07c0,.12.12.12.24.12s.12-.12.12-.24a18.57,18.57,0,0,0-.12-2.58h0a5.61,5.61,0,0,0-.12-1.47c0-.37,0-.49-.25-.49.13-.12,0-.12,0-.25V18a12,12,0,0,0-3.55-6.86,5.33,5.33,0,0,0-4.91-1c-.24,0-.36.13-1.1.86a.12.12,0,0,0-.12.13c.37-.13.61-.13,1.1-.25,2.94-.74,5.15,1.35,6.25,3.31a12.17,12.17,0,0,1,1.11,4.17v.24a.12.12,0,0,1-.12-.12,6.35,6.35,0,0,1-.25-1.1c-.12.24-.12.61-.25.73-.12-.24-.12-.36-.24-.49V17.4c-.12,0-.12,0-.12.24v.49c-.25-.12-.25-.49-.49-.61a.12.12,0,0,1-.13.12.66.66,0,0,0-.24-.49c-.25-.24-.12-.61-.25-1.1s.13-.12.25-.12a2.83,2.83,0,0,0,.73.49c.13,0,.13.12.25.12h0a.12.12,0,0,0-.12-.12,1,1,0,0,0-.62-.62c-.24-.24-.85-.36-.85-1a5.91,5.91,0,0,0,1,.49c.12,0,.12.13.24.13-.12-.13-.12-.25-.24-.25a10,10,0,0,0-1.11-.86,10.43,10.43,0,0,1-1-1.35,2.66,2.66,0,0,1,1,0h0a1.27,1.27,0,0,0-1-.49h-.24c-.13-.12-.25-.12-.25-.24s.12-.12.25-.12h.73c-.12-.49-.61-.49-.86-.49s-.61.12-.85.24v-.12l.12-.12c0-.13-.12,0-.12,0-.25.12-.37-.13-.86-.13a8.85,8.85,0,0,1,1-.49,3.24,3.24,0,0,0-1.84.49c0-.12.24-.12.24-.24s.13,0,.13-.12h-.13c-.24.12-.73,0-1,.24-.24,0-.36,0-.49.12h0a3.86,3.86,0,0,0-1.59.74,3.23,3.23,0,0,0-1.84,2c-.12.12-.12.61-.25.86a5.09,5.09,0,0,1,0-1.35,3.19,3.19,0,0,0,.5-.86.64.64,0,0,1,.24-.49v-.12c0-.12,0-.12.12-.12h0a.12.12,0,0,0-.12.12v.12c-.37-.24-.37.12-.49.25a2.07,2.07,0,0,0-.74,1,2.37,2.37,0,0,0-.24,1.59,1,1,0,0,1-.25-.73c-.24-.49.13-.86.25-1.35A6,6,0,0,1,9.31,10.9c.61-.25,1-.74,1.59-1a.61.61,0,0,0,.49-.25c-.24,0-.61,0-.74.13a4.69,4.69,0,0,0-1.1.24.12.12,0,0,0,.12-.12A.12.12,0,0,0,9.8,9.8h0c.12,0,.12,0,.12-.13,0,.13.12,0,.12,0a4.17,4.17,0,0,1,1.84-.61c.74,0,1.59.25,2.33.25a3.55,3.55,0,0,0-1.47-.86c.61-.13,1.1,0,2.45.86a7.14,7.14,0,0,0-.61-1h.12a11.82,11.82,0,0,1,1.47,1.11l.12.12c.13.12.13.25.25.12v0l-.12-.12a.12.12,0,0,1-.13-.12c0-.25-.12-.49-.12-.86a10.15,10.15,0,0,1,1.11,1c.12.25.12.37.24.49s.12.25,0,.25h0V10c.25-.12.49-.12.74-.24a2,2,0,0,0,.49,1.84h0a.12.12,0,0,1,.12.12c.12,0,0-.12,0-.12-.25-.49,0-1.23-.49-1.84a2,2,0,0,1,1.1-.62c.86-.24,1.72-.61,2.58-.86a.88.88,0,0,1,.73.25,1.15,1.15,0,0,1,.62-.12,1.26,1.26,0,0,1,1.34.49,8.23,8.23,0,0,1-1.83.12h-.25c-.24.12-.49.12-.74.25s-.49,0-.61.12a3,3,0,0,0-1.47.49c-1.23.49-1.23.49-.61,1.47,0,.12.12.12.12.25l.74,2.2c.12-.37,0-.61.12-1.1a7.14,7.14,0,0,1,.61,2.7c.12-.49,0-1,.12-1.47,0,.24.13.73.13,1v.73a1.68,1.68,0,0,0,.12-.61h0v.12a4.2,4.2,0,0,1-.12,1.72h0c.24-.12.24-.49.49-.62,0,.25-.13.62-.13.86a1.6,1.6,0,0,0-.12.74c.25,0,.49-.12.74-.12a.8.8,0,0,0-.49.85c.36,0,.36-.12.61-.12a1,1,0,0,0-.25.61,1.17,1.17,0,0,0-.12.62,5.14,5.14,0,0,1,.12,1.35c0,.24.25.36.5.24s0-.12.24-.12.37-.12.49-.12.37-.13.49,0h0c-.12.24-.24.24-.49.36-1,.49-1,.62-.86,2a6.65,6.65,0,0,0,2.33-4.91V18a21.91,21.91,0,0,1,.62-2.82c0-.12.12-.12,0-.24h0a2.27,2.27,0,0,1,.24-.86c.25-.49.49-1,.74-1.6A10.6,10.6,0,0,1,27.82,10a17.74,17.74,0,0,1,1.59-1.47,1.88,1.88,0,0,1,2.46-.25H32a.12.12,0,0,0-.12-.12c-.13-.37-.49-.49-.62-.61h0a2.24,2.24,0,0,1,1.47,1.35c.13-.25,0-.37.13-.49.24.73.49,1.71,1.59,1.47-.49.37-1,.37-1.47.86h0a.12.12,0,0,0-.12.12h0c-.37,0-.37,0-.49.12h0c-.13,0-.25,0-.25.13h0a.12.12,0,0,0-.12.12h0c-.37,0-.49,0-.49.24s.37.13.49.13c.37-.13.73-.13,1.1-.25s.62-.12,1.11-.12A1.09,1.09,0,0,0,34.07,13h0a.13.13,0,0,1,.13.13c0,.12.12.12.12.24a1.63,1.63,0,0,1,.49.86,1.88,1.88,0,0,1-.86,2,2.29,2.29,0,0,1-.86.25c-.73.12-1.1-.13-1.35-.86v-1.1c.25-.49.25-1,.49-1.48.13-.24.25-.61.74-.73-1,.86-.74,1.84-.49,2.82a2.14,2.14,0,0,0,.12-.86,1.81,1.81,0,0,1,.25-1.59c.12-.25.12-.13.24,0a3.15,3.15,0,0,1,.12-1.11l.13-.12h0c0-.12-.13,0-.13,0a2.4,2.4,0,0,1-.73.49c-.25,0-.61.37-.74.61s-.12.25-.12,0H31.5c-.25,0-.37-.36-.86-.24a4.73,4.73,0,0,1,.61-.49h0a2.47,2.47,0,0,1-1-.12l.49-.49h-.61c-.12,0-.25,0-.25-.13a.41.41,0,0,1,.13-.24c.12,0,.12,0,.24-.13-.49,0-.24-.36-.73-.49-.25-.24-.13-.61-.25-.85.49-.25.74-.74,1.35-.74a1.12,1.12,0,0,0-.12,1.1c-.25-.12-.13-.36-.13-.85-.12.36-.24.49-.12.61a1.22,1.22,0,0,0,.86.86c.25.12.61,0,.86-.49-.61.12-1,.49-1.47-.13.24,0,.49.13.73.13s.49,0,.62-.13h0c.36-.12.24-.49.24-.73.12,0,.12.12.25.12-.13-.37-.37-.74-.74-1.47a2.61,2.61,0,0,0-1.35.12,4.19,4.19,0,0,0-1.84,1.11c-.12.12-.36.36-.24.61l-.25.24V9.8h-.12c0,.12.12-.13.25,0-.25.24-.5.49-.5.73.37-.12.5-.24.62-.12a10.29,10.29,0,0,0-1,3.31,3.57,3.57,0,0,1,1-2c-.37,1.71-.74,3.43-.12,5-.13-1.35-.5-2.58.12-3.93,0,.25-.12.61-.12.86h0c.24-.12.36-.49.49-.74a16.09,16.09,0,0,0,.12,2.46v-1a1.6,1.6,0,0,0,.12-.74.12.12,0,0,1,.12-.12v.12c-.12.12,0,.49,0,.74a.9.9,0,0,0,.13-.49s.12-.25.12,0,.12.73.12,1v.12h0a33.26,33.26,0,0,0,1.6,4.54c0,.12.12.12.12.24h0c-.12-.12,0-.12-.12-.24a12.45,12.45,0,0,0-.74-2.21,5.71,5.71,0,0,1-.74-2.82v-.49a9.44,9.44,0,0,0,.74,1.59,3.31,3.31,0,0,0,.61,1.11v-.62h0c.13.25.49.74.62,1h0c.12,0,.12.13.12.13A2.6,2.6,0,0,1,32,18a.12.12,0,0,1,.12.12l.12.13a.12.12,0,0,1,.13.12.12.12,0,0,1,.12.12h0c-.12,0,0-.12-.12-.12.12-.12,0-.12,0-.25a.12.12,0,0,1-.13-.12h0c0-.12.13,0,.13,0l.24.25c.49.61.86,1.1,1.35,1.71h0a4.17,4.17,0,0,0,.49.62v.12h0c0-.12,0-.12-.12-.12.12-.13,0-.25.12-.25a6.46,6.46,0,0,1,.74,1.59,1.33,1.33,0,0,0,.24.74h0a.42.42,0,0,1,.12.25c-.24,0-.24-.13-.49-.25,0,.12.13.49.13.74-.37-.25-.37-.62-.49-.86a.12.12,0,0,0-.13-.12v.24c0,.12.13.49,0,.74a4.65,4.65,0,0,0-.24-1.11c0-.12-.12-.12-.12-.24a.13.13,0,0,1-.13-.13c-.12,0,0,.13,0,.13s.13.12.13.24a5.14,5.14,0,0,0,.12,1.35v.74h0c0,.12.12.49.12.61h-.12a8.73,8.73,0,0,1-.74-1.1c-.86-1.11-1-2.33-1.59-3.68,0,.24.12.49,0,.73a9.05,9.05,0,0,1-.25-1.1v.74c-.12,0-.12-.13-.12-.13a7.13,7.13,0,0,0,0,1.6c-.12-.13,0-.49-.24-.62A2.57,2.57,0,0,0,32,23.28c.24.49.61.86.86,1.47,0,.13.24.5.24.74-.12-.24-.12-.37-.24-.49a5.36,5.36,0,0,0-1-1.84h0v.12a2.54,2.54,0,0,1,.24,1.11,1.88,1.88,0,0,1-.49-1c-.12.36.12.73.12,1h0c-.12,0,0,.12,0,.24a19.65,19.65,0,0,1,.49,2.7,17.38,17.38,0,0,1-1.47-3.43c0,.49.13.85.13,1.47-.13-.25-.13-.62-.25-.74.25,1.47.61,2.7.86,4.17,0-.12-.12-.12-.12-.24v-.13h0v-.12h0A7.52,7.52,0,0,0,30.64,27a25.24,25.24,0,0,1-1.1-2.82.65.65,0,0,0-.25-.49v-.24a.17.17,0,0,0,0,.24c.12.25,0,.37.12.49s.13.74.13,1a.13.13,0,0,1-.13.13c0-.25,0-.37-.61-1.11A7.87,7.87,0,0,0,29.05,26c-.13,0,0-.12-.13-.12s0-.12-.12-.25a5.81,5.81,0,0,0-.49-1.84v-.12h.12c.13.61.13,1.1.25,1.6a.37.37,0,0,0,.12.24c-.12.25,0,.37,0,.49.12.61.12,1.1.25,1.59s.12,1,.24,1.48h0a3.3,3.3,0,0,1-.49-.86,23.77,23.77,0,0,0-1.1-2.58,2,2,0,0,1,.12-1.47,6.81,6.81,0,0,0,.74,2.58h0c0-.25-.13-.49-.13-.74s-.24-.49,0-.61,0-.12,0-.25a38.37,38.37,0,0,1-.86-5.27c0-.24-.12-.49-.12-1,0-.12,0-.25.25-.25s.24.37.24.49v.13a5,5,0,0,0-.24,2.33,11.31,11.31,0,0,1-.13,3.55c0,.25,0,.37-.12.49a6.82,6.82,0,0,1-.49-1c.12.86.61,1.72.74,2.7-.13-.12-.13-.25-.25-.25v0a15.58,15.58,0,0,1,.62,2.21c0,.37,0,.49.12.61s.12.49.12.74c-.37,0-.37-.37-.49-.49a13.45,13.45,0,0,1-1.59-4.9c0-.25-.13-.37-.13-.5s.13-.12,0-.24h0c0-.25-.12-.61-.12-.86-.12.25-.12.61-.24.86a2,2,0,0,1-.13-.86h-.12v.74c0,.24,0,.36-.12.49a16.48,16.48,0,0,1,0-3.44v-.61a14.9,14.9,0,0,1-.86,3.31c.12,0,0-.24.24-.24a16.32,16.32,0,0,0,.13,2.45,9.4,9.4,0,0,0,0-1.84c0,.24.12.37.12.49s.12.61.12.86c.25-.25-.12-.86.49-1v.49a13.33,13.33,0,0,0-.12,3.06,2.58,2.58,0,0,0,0,1.35c0,.37.12.61.12,1.11A7.62,7.62,0,0,1,25,29.54c-.12-.25-.12-.62-.25-.86a5.65,5.65,0,0,1-.12-2.45v-.49c-.12.12,0,.49-.24.61v-.61a27.41,27.41,0,0,1,.49-5.64c-.49,1.59-.62,3.43-1.35,5a1.81,1.81,0,0,0-.25.74c-.24-.12-.12-.49-.12-.61v-.86h0V24a7.45,7.45,0,0,0,.49-1.59c-.37.61-.61,1.22-1.1,2s-.86,1.47-1.47,2.33v-.86a7.05,7.05,0,0,1,.61-1.47c.12-.13.12-.13.12-.25h.12V24h0c-.12-.12-.12-.12-.12,0a.12.12,0,0,0-.12.12,21.36,21.36,0,0,0-2.33,2.33c-.12.12-.12.25-.25.25s0,0-.12,0h0c-.12,0-.12,0-.12.12,0-.12-.12,0-.12,0l-.13.12a13.41,13.41,0,0,0-3.55,5.15,7.18,7.18,0,0,0-.74,3.19l-.12-.12a9.29,9.29,0,0,1,0-2.58v-.24a1,1,0,0,0,.12-.49.13.13,0,0,0,.13-.13c.12-.12.12-.12.12-.24.49-.86.86-1.84,1.35-2.7a26.46,26.46,0,0,0,1.47-2.45,9.1,9.1,0,0,1,2-1.84,11.16,11.16,0,0,1,1.84-1.1c.12,0,.12-.13.12-.25a3,3,0,0,1-.49-.86,2.66,2.66,0,0,1,.12-.73,9.11,9.11,0,0,0-1.1-2.21,7.21,7.21,0,0,0-1.72-2.21,6.58,6.58,0,0,0-8-1.47A10.06,10.06,0,0,0,7.1,18.13L7,18.26a.67.67,0,0,1-.25.49l-.12.12v.49a.12.12,0,0,0-.12.12l-.13.13v.12h0a.12.12,0,0,0,.13-.12c.12,0,.12,0,.12-.13.12.13.12,0,.12,0l.12-.12L7,19.24c.12-.25.12-.37.24-.49l.12-.13a15.49,15.49,0,0,1,2.7-2.2,5.84,5.84,0,0,1,7.6,1.47V18c-.12.12-.12,0-.24,0a1.79,1.79,0,0,0-.74-.24,3.9,3.9,0,0,0-1.59-.49,5.63,5.63,0,0,0-1.47-.13c-.25,0-.49.13-.74,0a.41.41,0,0,0-.24.13c-.13.24-.49.24-.62.24-.61.12-1,.12-1.47.25a4.41,4.41,0,0,0,.86-.74c.12-.12.25-.12.25-.24,0,.12.12,0,.12,0h0a.12.12,0,0,1-.12.12,6.82,6.82,0,0,0-2,1.47,2.6,2.6,0,0,1-.73.49c.12-.37.61-.49.61-1a4.57,4.57,0,0,0-1.1,1.47c0-.25.12-.37.12-.49s.25-.12.12-.25h0c0,.13-.12.13-.12.25a11.1,11.1,0,0,0-1,1.72l-.12.12-.13.12a11.86,11.86,0,0,0-1.1,1.35c0,.12-.12.12-.12,0a5.14,5.14,0,0,1,.12-1.35,1,1,0,0,0-.49,1c-.12.25,0,.62,0,.86a.94.94,0,0,1-.12-.49v-.49c-.13.12-.13.12-.13.24-.12.62,0,1.11-.12,1.72a4.67,4.67,0,0,0-.86,1.72A5.29,5.29,0,0,0,4,28.68c0,.12.13.49.13.61v.25h0a2.66,2.66,0,0,1-.49-2,21.56,21.56,0,0,1,.24-3.92,6.76,6.76,0,0,0,0,6.13c0,.12.12.12,0,.25a4.36,4.36,0,0,1-.86-1.84,1,1,0,0,1-.12-.49V26.35A18.43,18.43,0,0,1,4,21.2a20.85,20.85,0,0,1,1.47-2c-.36,0-.61.37-1.1.49A12.32,12.32,0,0,1,7.1,17.4c-.61,0-1,.37-1.6.49a5.67,5.67,0,0,1,2.82-1.47c-.61-.37-1.1-.25-1.59-.49A3.73,3.73,0,0,0,8,15.68ZM5.75,19.85h0V20c-.12-.12-.12,0,0,0-.25.13-.25.13-.12.25H5.5v.24h0v-.24h.13c0-.12,0-.12.12-.25h0Zm25,6a43.91,43.91,0,0,1-1.1-4.42c0-.24-.12-.36-.12-.49a51.43,51.43,0,0,0,1.35,6H31c-.12-.24-.12-.73-.25-1s.13,0,.13-.12a.16.16,0,0,0,0,.24h0C30.64,26,30.64,25.86,30.76,25.86ZM33,20.22h0c0,.24-.12.37.12.24-.12.13,0,.13,0,.25A15.72,15.72,0,0,1,33.83,23a.12.12,0,0,1,.12.12c.25-.73.25-.86-.24-1.72a2.83,2.83,0,0,0-.62-1c0-.12-.12-.12-.12-.24Zm-5.89,8v-.12h0c0-.37-.12-.5,0-.5.13-.36-.12-.73,0-1,.13,0,.13.25.25.25V27h0a9.14,9.14,0,0,1-.61-3.19V20.59a20.71,20.71,0,0,0-.25,2.69,7.59,7.59,0,0,0,.25,4c.12,0,.12.12.12.24s.12.37.24.5ZM12.62,14.46c0-.13-.13-.13-.25-.13h0C12.49,14.33,12.62,14.58,12.62,14.46Zm-1.11-4.3a1.32,1.32,0,0,0-.61.25h0C11.15,10.41,11.27,10.29,11.51,10.16Zm4.05,5c-.25-.12-.37-.24-.49-.24-.25-.25-.61-.62-.61-1-.25-.25-.37-.13-.49,0s0,.24.12.24a3.32,3.32,0,0,0,1,.74C15.19,15.07,15.19,15.19,15.56,15.19ZM31.5,25h0c.24-.12-.12-.49-.12-.74h0c.12.13.24,0,.12-.12-.49-1-.86-2.21-1.35-3.31A23.35,23.35,0,0,0,31.5,25Zm2.82-1.84ZM9.43,17.4c.12-.12,0-.12,0-.12v.12Zm5.88-8Zm12.26,1.84Z"/><path d="M37.87,43.39h-.61c-.24,0-.37-.12-.49,0h0c-1.72.25-3.43.37-5.15.49a.17.17,0,0,1-.24,0c1.71,0,3.55.12,5.27.12-.25.5-.86.5-1.11.74h-.12a24.21,24.21,0,0,1-2.82,1,9,9,0,0,0-2.57.61c-.25,0-.37.13-.49.13a1.6,1.6,0,0,1-.74.12c.12-.37.25-.49.25-.61.24-.25.24-.62.24-1.11A.87.87,0,0,1,29.9,44l.25-.24.12-.12h0A8.2,8.2,0,0,0,32,41.31a2,2,0,0,0,.61-1.11,9.53,9.53,0,0,1,.74-1.1h0v.12a2.62,2.62,0,0,0-.13,1.11,17.05,17.05,0,0,1,1.35-2.46c0-.12.13-.12.13-.12h0a2.72,2.72,0,0,1-.37,2,2.59,2.59,0,0,0,.73-2.2c.13-.49.13-.86.25-1.35s.24-.86.49-1.11c.37.25.37.74.49,1,.12-.73.49-1.22.61-1.83a4.48,4.48,0,0,1,.62-1A12.68,12.68,0,0,1,38,34.69c0,.12,0,.24.12.24A1.56,1.56,0,0,1,38,34.2a22.82,22.82,0,0,0-.62-3.07c.13-.12,0-.12,0-.24a2.75,2.75,0,0,1,.13-1.72,6.61,6.61,0,0,1,1,1.47c.24-.61-.13-1-.25-1.59.37-.25.49.12.61,0s0-.13-.12-.13a12.64,12.64,0,0,0-1.1-1.59,7.43,7.43,0,0,1-.74-2c.37.12.86.24,1,.73.13.25.25.62.74.74-.61-.49-.61-1.35-1.35-2,.61.12.86.61,1.47.61-.12-.37-.49-.37-.73-.61A4,4,0,0,1,36.89,23c-.12-.12,0-.49-.24-.74a3.33,3.33,0,0,1-.49-1,9.83,9.83,0,0,0-1-2.33,13.25,13.25,0,0,0-1.47-2.45c0-.37,0-.49.24-.49h.12A1.58,1.58,0,0,0,35.42,15h0V14.7a2.38,2.38,0,0,0-.24-1.84,2.57,2.57,0,0,1-.62-1.59,1.07,1.07,0,0,1,.86-.49H37A3.1,3.1,0,0,0,34.56,10a3.08,3.08,0,0,0-2,.61h0c-.12.13-.49.13-.61.25s-.12.12-.25,0,.13-.12.13-.25h0a.12.12,0,0,1,.12-.12h0c.12,0,.24,0,.24-.12h0c.37,0,.37,0,.49-.12h0s.13,0,.13-.25h0a7.25,7.25,0,0,1,2.2-.61c.13,0,.13,0,.13-.12s.12,0,.12,0h.12c-.24-.13-.37-.13-.49-.25A3.23,3.23,0,0,1,37,9.67c.36.62.36.86.12,1.11.61.49,1,.73,1.71,1.22s1.23,1.11,2,1.72c.12.25.36.49.12.74h-.86a16,16,0,0,0-4-3.07,1.23,1.23,0,0,0-1-.12c-.49.12-.61.24-.49.73a3,3,0,0,1,.49,1.11,3.46,3.46,0,0,1,.25,2,2.14,2.14,0,0,1-1.47,1.72c-.25,0-.25.36-.12.49.36.49.61,1.22,1.1,1.83.12.5.49.86.61,1.35,0,.13.12.25.25.13a2,2,0,0,1,1.1-.62c.25-.12.49-.12.74-.24,0,.12-.25.12-.25.24a8.92,8.92,0,0,1-1,.74.45.45,0,0,0-.12.73c0,.13,0,.25.24.13.62-.25,1.11-.49,1.72-.74a.12.12,0,0,1,.12.12,6.24,6.24,0,0,0-1.71,1c-.13,0-.13,0-.13.13h.37c0,.24-.37.24-.24.49s.24.61.49,1.1c0,.12.12.12.12.25s.37.24.61.12h0c.61,0,1-.25,1.47-.25-.24.13-.73.49-1,.62s-.37.12-.49.12-.12.12,0,.24c.37.13.37.5.61.62s.13,0,.25.24.12.37,0,.49a1.79,1.79,0,0,1-.74-.24c.37,1.1.25,1,1,.86a2.6,2.6,0,0,0,1-.13c.61,0,1-.12,1.47-.12-.13.37-.62.37-.74.49a10.06,10.06,0,0,0-2.33,1.11c0,.12-.24.12-.12.24s.12.12.24.12c.86-.12,1.6-.49,2.46-.61-.62.25-1.11.61-1.72.86a14.39,14.39,0,0,0,2.45-.61c.25,0,.37,0,.49-.13s.62-.12.86-.12h0a17.46,17.46,0,0,1-3.43,1.84v.12a4.55,4.55,0,0,1,1.84-.61c-.49.24-.74.73-1.11.86,0,0,.13-.25,0-.13s-.61.49-.85.62c.36,0,.73-.49,1-.49,0,.24,0,.12.12.12,1-.25,1.84-.74,2.7-1s1.59-.61,2.33-.86c.12,0,.49-.12.61-.12.24-.25.12-.49.12-.74v-1h.86v.25h0s-.12.12,0,.12h0c-.12.12-.12.12,0,.24v2c0,.49-.12.85-.12,1.34s-.13,1.11-.25,1.72a12.62,12.62,0,0,1-1,2.82c-.12.49-.49.86-.61,1.35a7,7,0,0,1-.74,1.35c-.12.24-.49.61-.61.86a.94.94,0,0,1-.61.24c-1.47.25-2.82.37-4.3.49a.12.12,0,0,0-.12.13H43a2.83,2.83,0,0,0-.49.73c-.61.49-1.1,1.23-1.71,1.84s-1.47,1.23-2.33,1.84h0C38.24,43.76,38.24,43.76,37.87,43.39Zm2.7-10.79h0c-.24,0-.24.12-.37.12a2.11,2.11,0,0,1-1.47.49A8.46,8.46,0,0,0,40.57,33h.12a.18.18,0,0,0,.25,0,7.94,7.94,0,0,0,1.72-.25h.12a.94.94,0,0,1,.49-.12,14.87,14.87,0,0,0,2.21-.49c.24,0,.24-.12.24-.24a9.11,9.11,0,0,0,.49-3.19c-.73.24-1.47.73-2.21,1h-.12c-.12,0-.24,0-.24.12a4.28,4.28,0,0,0-1.11.25h0a8.72,8.72,0,0,0,1.35-.25c.37-.12.74-.12,1-.24H45a2.87,2.87,0,0,1-.74.49c-.61.24-1,.49-1.59.73a6.76,6.76,0,0,0-1.35.62h0c-.25,0-.37,0-.49.24h0a15.49,15.49,0,0,0-2.21.86h.12a13.16,13.16,0,0,1,3.19-.61h0V32a12.14,12.14,0,0,0-1.35.61Zm2.33,4.91a.53.53,0,0,0,.49-.49c-.61.24-1.22.61-2,.85h0C42,37.75,42.41,37.63,42.9,37.51Zm1.35-4.3h1.1c.25,0,.25-.36.25-.49V32.6c0-.24.12-.37,0-.49s-.37,0-.49,0A33.23,33.23,0,0,0,40.2,34c1.11-.12,2.21-.49,3.31-.61a1.49,1.49,0,0,0,.74-.13Zm-5,2.46h0a10.1,10.1,0,0,1,2.58-.62,12.31,12.31,0,0,1,2.7-.61.69.69,0,0,0,.73-.49,1.62,1.62,0,0,1,.12-.74A33.68,33.68,0,0,0,39.22,35.67Zm.25,1c1.59-.25,3.19-.62,4.78-.86.12,0,.25,0,.25-.12a1.78,1.78,0,0,1,.24-.86C42.9,35.42,41.06,36,39.47,36.65Zm1.84.49h0a16.35,16.35,0,0,1,2.45-.49c.12-.12.12-.37.24-.62A13,13,0,0,0,41.31,37.14ZM39,28.68h0c0,.24.12,0,0,0Zm-.13,8.09Z"/><path d="M22.55,5.87V5.26a8.2,8.2,0,0,0,1.71.12,7.19,7.19,0,0,1,1.6.12,15.15,15.15,0,0,1-2-2.69V2.68c0-.24-.13-.61,0-.85.24,0,.36.24.49.24a23.54,23.54,0,0,1,2.69,1,2,2,0,0,1,1.35,1.11c0,.12.13.49.13.61s.12.49.36.12a.88.88,0,0,0,.13-.49,5.37,5.37,0,0,0-.13-2c0-.25.13-.37,0-.49V1.7c.13-.24,0-.61.25-.85a5.9,5.9,0,0,0,1.35,1.71l.49.49c.24.49.73.86.86,1.47a1.17,1.17,0,0,0,.24-.85,6.68,6.68,0,0,0,.12-1.6,9.23,9.23,0,0,1,1.48,2.58v.73c.36-.12.73-.61,1-.86v.13a2.17,2.17,0,0,0,1,1.84A1.52,1.52,0,0,1,35.91,8a1,1,0,0,1-.86,1H33.71c.24-.37.73-.37,1-.62s.12-.12.12-.24a1.33,1.33,0,0,1-.74.24,1.63,1.63,0,0,0,.25-.73.82.82,0,0,1-.86.49c.12-.25.25-.49.37-.49s.12,0,0-.12l-.12.12a1.11,1.11,0,0,1-.86.12c0-.37.24-.37.24-.49s-.61,0-.61-.24.24,0,.24-.13a2.27,2.27,0,0,0-.85-.24,1.16,1.16,0,0,1,.73,1.1c0,.12.12.25,0,.25a.41.41,0,0,1-.24-.13c-.13-.36-.37-.73-.49-.73s.12.12,0,.24A2.5,2.5,0,0,0,30,6.61c.24.24.61.49.86.73-.62.13-1,.13-1.48.25-.24.12-.49-.12-.73-.12s-.37,0-.49.12a3.33,3.33,0,0,1-1.47,1.1h-.13A3.07,3.07,0,0,1,23.9,7.22a6.51,6.51,0,0,1-.49-1.47C23.41,5.63,23.41,5.5,22.55,5.87Z"/><path d="M5.63,37.87a4.69,4.69,0,0,0-.13-1.34,5.18,5.18,0,0,1-.12-1.35v-1.6a2.27,2.27,0,0,1-.24.86c0-.37.12-.61.12-1.1a5.23,5.23,0,0,0,.61-2c-.12.12-.37.61-.61.73a12,12,0,0,1,1-3.19.12.12,0,0,0,.12-.12c0-.12.13-.12.13-.24v-.13h0v.13c-.25-.13-.25,0-.25.12a.12.12,0,0,0-.12.12c-.25.25-.49.61-.74.86a6.61,6.61,0,0,1,1-2.58c.25-.24.49-.61.74-.85-.37,0-.61.36-1.1.49a.13.13,0,0,1-.13-.13c.37-.24.62-.73,1.11-1H7c.24-.24.61-.49.85-.73L8,24.75c.12,0,.12,0,.12-.12s.12-.12.12-.24h0l-.12.12L8,24.63H7.83a1.25,1.25,0,0,1-1,.49c0-.37.37-.37.49-.49A1.22,1.22,0,0,0,7.59,24a25.51,25.51,0,0,1,1.1-2.7c.49-.86,1-1.59,1.47-2.45A2.18,2.18,0,0,1,11.51,18c-.12.25-.49.61-.61.86a8,8,0,0,1,3.31-1h.37c.24,0,.73.12,1,.12h.24c-.12.12-.12.12-.24.12a6.51,6.51,0,0,1-1.47.49H14a6.36,6.36,0,0,1-1,.49v.13c.25-.13.74-.13,1-.25h.12v.12h0a6,6,0,0,0-1.72,1.35l-.49.49a10.22,10.22,0,0,0-2.57,1.72h0a14.78,14.78,0,0,1,1.59-2.21l.12-.12a.65.65,0,0,1,.25-.49c-.25.12-.37.12-.49.25l-.13.12c-.49.12-.85.61-1.34.73l-.13.13a14.1,14.1,0,0,0-1.47,3.06h0c.37,0,.49-.37.61-.49a14.13,14.13,0,0,1,3.32-2.57A19.12,19.12,0,0,1,14.7,20c.25,0,.61-.12.86-.12h1.23a9.72,9.72,0,0,1,1.71.74A7.49,7.49,0,0,1,20,21.93c0,.37,0,.37-.24.25a8.93,8.93,0,0,0-1.11-.86c-.24-.12-.36-.24-.49-.24a3.42,3.42,0,0,0-2.69-.49c-4.29.85-7.61,3.31-9.08,7.6A19.19,19.19,0,0,0,10.16,47l.86.86c.13.12.37.49.62.61l.12.12v-.12a.89.89,0,0,1,.61.73,6.85,6.85,0,0,1-1.84-1.47c-.73-.86-1.22-1.59-1.84-2.33A27,27,0,0,1,6,40.45a22.55,22.55,0,0,1-.74-2.82C5.26,37.51,5.26,37.51,5.63,37.87ZM9.06,20.59h0a8.44,8.44,0,0,1,3.43-2.09,18,18,0,0,0-2.45.74c-.12,0-.12.12-.24.24a4.43,4.43,0,0,0-.74,1.11Z"/><path d="M11.88,19c0,.12.12.12,0,0Z"/><path d="M44.74,20.83a16,16,0,0,0-.86-2.21h.74c.24.62.49,1,.73,1.6a31.89,31.89,0,0,1,1,3.31c.13.61.13,1.1.25,1.72v.61a.12.12,0,0,1-.12.12c-.37.12-.62,0-.62-.49V25"/><path d="M25.86,47.56a6.08,6.08,0,0,0-1.47-.12c-.25,0-.37,0-.25-.25a5.14,5.14,0,0,0,.12-1.35c0-.24.13-.49.13-.73.24-.12.24-.49.49-.61,0-.13.12-.13.12,0A2.61,2.61,0,0,0,26.47,47c.25.12.37.12.49.24s0,.13,0,.13A2.05,2.05,0,0,0,25.86,47.56Z"/><path d="M41.06,15a1.24,1.24,0,0,1,1.47.61c.13.24.13.37.25.49a13.74,13.74,0,0,1,1.1,1.84h-.24c-.37,0-.49-.25-.62-.49"/><path d="M17.15,45.11h0c.25-.12.49,0,.74,0a3.09,3.09,0,0,0,1.1.12c.62,0,.62,0,.62.74,0,.12-.13.24-.25.12a1,1,0,0,0-.49-.12A7.1,7.1,0,0,0,17.15,45.11Z"/><path d="M22.18,43.88h0v-.12c0-.12.12-.49.12-.61a1.65,1.65,0,0,1,.86-1c.12,0,.12-.13.25,0a3.06,3.06,0,0,0-.86,1.34C22.18,43.64,22.43,43.88,22.18,43.88Z"/><path d="M34.56,9.31a2.4,2.4,0,0,1-1-.25C33.83,9.06,34.32,8.94,34.56,9.31Z"/><path d="M31,7.22h0c.12-.12,0-.12,0,0Z"/><path d="M14.21,38.85c.12.13.12.5.25.74a5.33,5.33,0,0,0,.24,1.35c0,.37,0,.49.12.61,0,.37,0,.49.13.62s0,.36.12.49a18.57,18.57,0,0,1,1.47-1.48v.37a2.38,2.38,0,0,0,1.1,1.72c.13-.25-.12-.37.13-.49.36.12.49.49.61.73s.12.37,0,.49.12.25.24.25.37-.12.49,0h0c.13.25.25.37.25.49.25.49.25.49-.25.49A5.25,5.25,0,0,1,17.77,45a.9.9,0,0,0-.49-.13,5.59,5.59,0,0,0-1.48-.49,3.47,3.47,0,0,1-1.71-1,12.28,12.28,0,0,0,.61,2c0,.25.12.37.12.49a.17.17,0,0,1,0,.25c-.24.12-.36.12-.49,0l-.73-.74-.49-.49c-.49-.73-1-1.59-1.47-2.33s-.86-1.59-1.35-2.45a27.61,27.61,0,0,1-1.47-2.7H8.69a8.71,8.71,0,0,0,.62,3.56,5.35,5.35,0,0,0,.85,2.33h0c.13.61.49,1,.62,1.47h0c-.13,0-.13-.24-.25-.24h0c.12-.13,0-.13,0-.25a17.78,17.78,0,0,1-1-2.21,10.78,10.78,0,0,1-.86-4.29,2.6,2.6,0,0,1,.25-1.35c.24.37.24.62.49,1.11a2.42,2.42,0,0,1,.12-1,3.56,3.56,0,0,1,.49,2,4.3,4.3,0,0,0,.25,1.1c.86,1.47,1.71,3.07,2.69,4.54a6.72,6.72,0,0,0,1.48,1.71h.12V45.6a13.68,13.68,0,0,1-1.35-4.54,9.24,9.24,0,0,1,0-3.19c.37.13.37.62.49.74S14,38.85,14.21,38.85Z"/><path d="M11.39,48.05c-.37,0-.49-.37-.61-.49a19.47,19.47,0,0,1-2.58-5c.49.74.86,1.6,1.35,2.46A23.4,23.4,0,0,0,11,47.19C11.15,47.56,11.51,47.68,11.39,48.05Z"/><path d="M11.64,48.05c.12,0,.12,0,.12.12h-.12Z"/><path d="M25.37,36.28h0a10.2,10.2,0,0,1-2.21,1.23c.25.36.74.49,1.59.49a6.92,6.92,0,0,1-3.31,1.84c.74.61,2.46.12,3.44-.74h0c0,.37-.37.61-.49,1.1a4.26,4.26,0,0,0,2-.73A1.19,1.19,0,0,1,27,39a3.36,3.36,0,0,1,0,1.1A4.18,4.18,0,0,0,28.43,39c0,.49-.12.86-.12,1.35a2.89,2.89,0,0,0,1-1.11c.12.25,0,.37,0,.49v.13h0l.49-.49A.28.28,0,0,0,30,39.1h0c-.13.25-.13.37-.25.49l-.86.86c-.12,0-.12,0-.12-.12s.12-.13.12-.13h0v.13c-.24.24-.61.49-.85.73h0c0-.12.24-.49.12-.73-.37.12-.49.49-.62.61h0v-.25h-.12c-.24.13-.37.13-.49.25a.47.47,0,0,0-.37.12c-.12-.37.13-.49,0-.61s-.12,0-.12.12a.12.12,0,0,1-.12-.12c0-.25.12-.37.12-.49-.24.12-.37.12-.49.24a12.23,12.23,0,0,1-2.33.74,3.17,3.17,0,0,1,.61-1.1v-.25h0c0,.12-.12.12,0,.25,0-.13-.12,0-.12,0l-.73.73a4,4,0,0,1-.74.61c-.24.13-.37.13-.49.25-.61.12-1,.49-1.59.61h-.37c-.12-.12-.25,0-.12-.12s.49-.12.61-.24a7.23,7.23,0,0,1-1-.86c.12-.13.12,0,.24,0a4.3,4.3,0,0,0,1.72.24c-.25-.12-.37-.12-.49-.24a.64.64,0,0,1-.49-.25.62.62,0,0,1-.49-.61c0-.25.49-.12.61-.25H21c.37-.12.37-.12.25-.61V39a2.58,2.58,0,0,0,1.35,0c0,.12.12.12.24,0h0a.37.37,0,0,0,.25-.13h0a.12.12,0,0,0,0-.24,2.44,2.44,0,0,1-1.11-1.1,7.11,7.11,0,0,0,1.6,0A2.47,2.47,0,0,0,25,36.77a2.48,2.48,0,0,1-1.84-.49,3.83,3.83,0,0,0,2.21-1.1.12.12,0,0,1,.12-.13v-.12h0c-.12-.12-.24-.12-.24,0a4.57,4.57,0,0,1-1.35.25c.36-.37.73-.62,1-.86h0L25,34.2l.49-.49c0,.24-.37.49-.49,1A7.52,7.52,0,0,0,26.35,34a6.6,6.6,0,0,1-.86,1,15.93,15.93,0,0,1-1.47.86,2.4,2.4,0,0,0,1.59,0c0,.12-.12.12-.12.24s-.12.13-.12.25Z"/><path d="M27.82,42.17h0a1.29,1.29,0,0,0,1-.25,3.73,3.73,0,0,0,1.59-1,.82.82,0,0,1,.62-.49v.12a8.9,8.9,0,0,1-2,1.72,1.79,1.79,0,0,1-.74.24,21.91,21.91,0,0,0-3.56,1.35c-.24,0-.36.12-.49,0A4.73,4.73,0,0,1,25.74,43c.24-.24.61-.24.85-.49-.24-.12-.61-.12-.85-.24h0a5.07,5.07,0,0,1,1.34-.12C27.33,42.17,27.57,42.41,27.82,42.17Z"/><path d="M15.07,40.2c0-.12.12-.12.12-.24l2.21-2.58c.12-.12.24-.12.12-.24h0l-.12.12a9.19,9.19,0,0,0-2.33,2.58c0,.12-.12.12-.12.24s-.13.25-.25.12a12.56,12.56,0,0,0-.24-2,11.67,11.67,0,0,1,1.1-1.59v-.12h0c0,.12-.12.12,0,.24-.12,0-.12.12-.25.25a5.78,5.78,0,0,0-.85,1h0V36a11.71,11.71,0,0,1,1-3.55c.24,0,.12.12.12.24a3,3,0,0,0-.25,1.11c.37-.12.37-.49.49-.62a5.39,5.39,0,0,1-.24,1.48v.24h0v-.12c.12-.12.12-.12.12-.25a1.61,1.61,0,0,0,.61-1.1v.25c0,.12-.12.49-.12.61s.12-.12.25-.25.12-.36.24-.24,0,.37,0,.49a5.61,5.61,0,0,1-.73,1.47c0,.24-.13.37-.13.49a9.4,9.4,0,0,0,1.48-1.72c0,.25-.13.49-.13.74-.12-.12-.12,0-.12,0h0c.12.12.12,0,.12,0a2,2,0,0,0,.74-.74c.24.25,0,.37,0,.49a4.43,4.43,0,0,0-.74,1.11,2.15,2.15,0,0,0,1.11-1,.12.12,0,0,1,.12-.13v.13c-.12.12-.12.49-.25.61l-.24.24c.12,0,.12,0,.24-.12.37-.12.62-.49.86-.73s.12-.25.25-.25c0,.37-.25.61-.74,1.1,0,.25-.24.25-.24.5h0a5.36,5.36,0,0,0,2-1.72,3.73,3.73,0,0,1-1,1.59l-.13.13.13-.13c.49-.49,1.22-1,2-1.59a.76.76,0,0,1-.12.49L20,36.4s-.24.13-.12.25h0c.12-.37.61-.49.86-.62a3.13,3.13,0,0,0,1.35-1c.37-.61,1.1-1,1.71-1.59.13-.25.13-.37.25-.49a4.62,4.62,0,0,0,.86-1.1c-.13.73-.62,1.1-.74,1.59-.12.25-.12.37-.24.49-.49.61-.86,1-1.35,1.59h0l-.12.13a29.48,29.48,0,0,1-3.93,2.82.64.64,0,0,0-.49.24,25.13,25.13,0,0,0-2,1.72l-.86.86c0-.25-.12-.49-.12-.74C15.19,40.57,15.19,40.45,15.07,40.2Zm1.84-3.55A6.65,6.65,0,0,0,15.19,39c-.12.12-.12.12-.12.24s.12,0,.12-.12c.61-.86,1.1-1.59,1.72-2.33v-.12Z"/><path d="M30.52,35.42c.61-.24.86-.61.73-.73.13,0,.13.12.13.24.24.25,0,.74.49.86.12,0,.12.49.12.61s.12.49.12.74A4.25,4.25,0,0,0,32.85,36c.12,0,0,.13.12.25a4.27,4.27,0,0,0,.12,1.1,14.48,14.48,0,0,0,1.35-2.82c.12.25.12.62.25.86a8.2,8.2,0,0,0,.12-1.71c.37,0,.37.24.49.24a2.53,2.53,0,0,1,.73,1.1.66.66,0,0,0-.24-.49c-.12.13,0,.25-.12.25s-.13-.25-.25-.25a4.17,4.17,0,0,1-.12,1.72l-.12.12a.12.12,0,0,1-.13-.12c0-.25-.12-.49-.12-.74,0,.86-.73,1.23-1.72,1.72a.63.63,0,0,1-.24.49,2.16,2.16,0,0,0-.12-.86c0,.25,0,.37-.13.49,0-.24.13-.61,0-.85-.24.36-.61.61-.73,1.1l-.12.12c0-.24.12-.37,0-.49v-.73a.18.18,0,0,0,0-.25c-.13,0-.13.25-.25.25,0-.25.12-.5.12-.74-.24.24-.24.37-.49.49a1.6,1.6,0,0,0,.13-1.1,2.37,2.37,0,0,1-.86.24C30.64,35.42,30.64,35.3,30.52,35.42Z"/><path d="M34.44,30.39c.12.62.12.62.61.62.74.12,1,.73,1,1.59a1.75,1.75,0,0,0-.24-.73l-.12-.13c-.13.25-.13.13-.13,0-.24-.24-.36-.24-.49,0-.24-.36-.24-.36-.49-.12-.12,0-.12.12-.24.12A5.11,5.11,0,0,0,34.44,30.39Z"/><path d="M10.65,26a4.66,4.66,0,0,1,1-2.21v-.24h0v.12a.12.12,0,0,0-.13.12c-.12,0-.12.13-.24.25-.37.49-.62,1.1-1.11,1.84a1.86,1.86,0,0,0-.61.86A14.17,14.17,0,0,1,10,24.88c0-.13.12-.13.12-.25v-.12h0v.12c-.24,0-.12.12-.24.25-.49,1-.86,2-1.35,2.82-.12-.49.12-.86.12-1.35-.37,1.1-.73,2.08-1,3.06v-.85c0-.62.12-1,.12-1.48V27h0v.12a2.37,2.37,0,0,0-.24.86A14.25,14.25,0,0,0,7.1,31,9,9,0,0,1,7,28.43a15.77,15.77,0,0,0,0,5.89v.24c-.13-.24-.25-.36-.25-.49a9.16,9.16,0,0,1-.49-1.71,6.08,6.08,0,0,0,.12,1.47,19.38,19.38,0,0,0,.49,2.57v.49a1.75,1.75,0,0,0-.24-.73,18.85,18.85,0,0,1-.86-2.45,8.24,8.24,0,0,0,.61,2.45c.25,1,.62,2.2.86,3.19-.12.12,0,.24-.12.24,0-.49-.37-.86-.49-1.35a3.33,3.33,0,0,1-.49-1,5.33,5.33,0,0,0,.24,1.35,34,34,0,0,1,1,3.43.9.9,0,0,1,.13.49A10.42,10.42,0,0,1,6,39.35a18.83,18.83,0,0,1-.62-8.22,16.16,16.16,0,0,1,2.45-6c.37-.37.62-.86,1.11-1.1,0,.24-.12.49-.12.73a4.54,4.54,0,0,1,2.33-2.45,1.75,1.75,0,0,0,.73-.24,17.69,17.69,0,0,1,3.43-1h0a7.92,7.92,0,0,0-1.84.85h-.12v-.12c.25.12.37,0,.49,0a5.31,5.31,0,0,1,2.33-.49c0,.12-.24,0-.24.12a6.35,6.35,0,0,0-2.46,1.11A5.76,5.76,0,0,0,10.65,26Zm2.58-4.29Z"/><path d="M9.43,33a10.5,10.5,0,0,0,.49-1.47,14.69,14.69,0,0,1,1.72-3.43A8.31,8.31,0,0,1,13,26.47c.25-.12.37-.12.49-.24s.13-.13.13,0h0a.12.12,0,0,0-.13.12h0v.12c-.12,0-.12,0-.12.12a17.86,17.86,0,0,0-2.45,6.75v.12c-.12,0,0-.12-.12-.12a1.94,1.94,0,0,0,.12,1.47c.25-1,.61-2.21.86-3.19a12.14,12.14,0,0,0,.12,2c.37-.24.37-.61.49-.86a1.15,1.15,0,0,1,.12.62,24.35,24.35,0,0,1-.24,3.06,18.5,18.5,0,0,0,.49,5.77,10.73,10.73,0,0,1-1.35-3.93A6.87,6.87,0,0,0,11.27,36v-.12h.12V36a5.12,5.12,0,0,0-.12,2v1.59c-.12-.24-.25-.37-.25-.49a8,8,0,0,1-.24-3.43,13.59,13.59,0,0,0,0-2.21,7,7,0,0,0-.49,2.21,1.75,1.75,0,0,1-.49-.49C9.43,34.44,9.8,33.58,9.43,33Z"/><path d="M19.61,22.18c-2.09.25-3.44.49-4.54,1.35a.12.12,0,0,1-.12.12c0,.12-.13.12-.13.12l-.12.13a8,8,0,0,0-2.21,1.84,4.06,4.06,0,0,0-1.34,1.59,15.66,15.66,0,0,0-1.72,3.56,10.23,10.23,0,0,0-.86,2.57,2.78,2.78,0,0,0-.12,1,.12.12,0,0,1-.13-.12v-1a11.78,11.78,0,0,1,2.33-6.62l.13-.13s.12-.12,0-.12c.12-.12.12,0,.12-.12a.12.12,0,0,1,.12-.12h0a.12.12,0,0,1-.12.12l-.12.12v.12l-.13.13-.24.24a11.5,11.5,0,0,0-3.19,6c0,.12,0,.24-.12.24v-.85a8.67,8.67,0,0,1,3.06-6,24.89,24.89,0,0,1,2.21-1.47c.12-.13.25-.13.25-.25s.24,0,.24-.12h.25v-.12c.12-.13.12,0,.12,0H13s-.24,0-.24.12c-.25,0-.37,0-.49.12s-.49.25-.74.25h0c.25-.13.37-.13.49-.25a13.42,13.42,0,0,1,2-1.35,9.59,9.59,0,0,1,3.67-1.35A4.75,4.75,0,0,1,19.61,22.18ZM12,25.12h0c-.49.13-.85.62-1.1.74l-.25.24-.12.13c-.12.12-.12.12-.12.24h0l.12-.12.12-.12A10.29,10.29,0,0,0,12,25.12Z"/><path d="M18.38,24h-.12a9.24,9.24,0,0,0-2,1.35l-.49.49-.49.49a3,3,0,0,0-1,1.1,7.28,7.28,0,0,0-1,1.6,1.93,1.93,0,0,0-.61,1.1c-.25.24-.25.74-.49,1a11.16,11.16,0,0,1,2-4.9c.25-.13.37-.13.49-.25a.12.12,0,0,1,.12-.12h0L14.7,26c-.37,0-.37.12-.49.25s-.37.24-.61.24v-.12h0a.12.12,0,0,0,.12-.12h0c.61-.49,1.1-1,1.72-1.48h.12a.12.12,0,0,1,.12-.12c.25-.12.37-.12.49-.24-.24,0-.37,0-.49.12h-.24c-.25,0-.49.24-.74.12h0a3,3,0,0,0,.61-.49,15.68,15.68,0,0,1,2-1c-.25.12-.62.12-.86.25a4.8,4.8,0,0,1,4.17-.74A8.13,8.13,0,0,0,16.05,25a.12.12,0,0,0-.12.12h.12a16.56,16.56,0,0,1,2.45-1.47A3.06,3.06,0,0,1,20,23.16h0c-.49.25-.86.49-1.35.74a.12.12,0,0,1-.12.12Z"/><path d="M13.35,32.72h0c-.12.49-.49.62-.61.86a1,1,0,0,1,0-.61,22.53,22.53,0,0,1,.73-2.7,16.82,16.82,0,0,1,1.6-2.33c.12,0,.12-.12.24-.24a.13.13,0,0,0,.13-.13c.36-.24.36-.36.61-.49-.25.49-.74.86-.86,1.35a14.47,14.47,0,0,0-1.1,2.46,7.87,7.87,0,0,0-.74,1.83Z"/><path d="M8.08,37.51A22.21,22.21,0,0,0,9.8,42.78a4.86,4.86,0,0,0,1,1.72h0a.73.73,0,0,0,.24.61v.12h0c.13-.12.13-.24,0-.24v-.25h0a1.8,1.8,0,0,1,.49,1.1h0v-.12c-.24-.24-.36-.61-.49-.73s-.49-.62-.61-.86c-.49-.74-.86-1.6-1.35-2.45-.12-.25-.12-.5-.24-.74l-.74-2.21a7,7,0,0,1-.49-2.2c0-.13,0-.25.12-.25A10.22,10.22,0,0,0,8.08,37.51Z"/><path d="M12.49,40.57c-.49-2.21-.24-5,.25-5.76,0,.61-.12,1.1-.12,1.72a1.94,1.94,0,0,0-.13.85A28.2,28.2,0,0,0,12.49,40.57Z"/><path d="M9.31,35.67c-.25-.25-.13-.74-.13-1a1.53,1.53,0,0,1,.13.61Z"/><path d="M35.54,23.41s.13,0,0,.12Z"/><path d="M28.92,13.35c0-.12,0-.12.25.12a7.52,7.52,0,0,1,0-2.32c0,1-.12,2,.86,2.69-.37-1-.86-1.71-.62-2.69a10.07,10.07,0,0,1,1.11,2v.61c-.13.37-.37.61-.62.61a1,1,0,0,1-.73-.49c-.12-.24-.12-.37-.25-.49Z"/><path d="M28.68,9.92c0-.37.24-.37.49-.25a.27.27,0,0,1,.24.25c.13.24.25.37.13.49s-.37.24-.62.24c-.49,0-.61-.24-.73-.73C28.68,10,28.68,10,28.68,9.92Z"/><path d="M30.89,8.82c0,.12-.25.24.12.36.12.13.37.13.61.13s.25-.25.25-.49c.24.24,0,.61,0,.73h0c-.13-.12-.37,0-.62,0a.66.66,0,0,1-.49-.24.36.36,0,0,1,.13-.49Z"/><path d="M30.89,8.82c.12-.37.24-.13.24-.13a.46.46,0,0,1,.12.25c0,.12-.12.12-.24.12s.24-.12.12-.24a.16.16,0,0,0-.24,0Z"/><path d="M19.48,26.23c.13.12.13.12.25,0a11,11,0,0,0,1.35-1.11s0-.12.12,0a1.36,1.36,0,0,0-.25.74,6.67,6.67,0,0,0-.49,1.35c.49-.25.49-.74.74-.86h0c0,.24-.12.61-.12.86.36-.13.49-.49.61-.74.24.25,0,.61,0,.86a4.62,4.62,0,0,0,.74-1.1c.12.24,0,.61,0,.73s-.13.25,0,.25.12-.13.12-.13a5,5,0,0,1,.73-1.71c.13.49.13.86.25,1.35.37-.25.37-.49.49-.49h0c0,.12-.12.49-.12.61V27a.12.12,0,0,0,.12-.12,2.32,2.32,0,0,1,.24-.86v.74A5.25,5.25,0,0,0,24,28.07c.12-.25.12-.37.24-.5a16.83,16.83,0,0,0,0,2.46c.13-.25.49-.62.62-.86h0a9.57,9.57,0,0,0-.13,1,.45.45,0,0,1,.13-.25c0-.12,0-.12.12-.12a4.77,4.77,0,0,1-1.35,2.7c-.37.12-.49.24-.61.12a.42.42,0,0,1-.12-.24c-.13,0-.13-.13-.13-.25v-.86c0-.24.13-.49,0-.49s-.12.13-.24.25-.12.12-.25.24a2.72,2.72,0,0,1-1.35,1,2.12,2.12,0,0,0,.25-.85c-.25-.13-.37.12-.49.12a17.13,17.13,0,0,1,1.47-3.43v-.13s.12-.12,0-.12a.12.12,0,0,0-.12.12v.13a15.86,15.86,0,0,1-1.35,1.59c0-.61.12-1,.12-1.59-.49,1.22-.61,2.69-2,3.55-.25,0-.37.12-.49.12,0-.24.12-.61.12-.85A9,9,0,0,1,19,29.17h0c-.73.73-1.22,1.84-2.2,2.45,0-.61.24-1.1.24-1.72l-.61.62v-.13a17.65,17.65,0,0,1,2.2-3.55l.13-.12.12-.13h0C19.11,26.59,19.11,26.47,19.48,26.23ZM22.92,30Zm-.25.49v-.13a.12.12,0,0,0,.12-.12c-.12,0-.12,0-.12.12S22.55,30.64,22.67,30.52Zm-2.45-2.95Zm2.57,2.58Z"/><path d="M17.15,17.89V18h0C17.15,17.89,17,17.89,17.15,17.89Z"/><path d="M32,24.75c.12.13.12.13.12.25h0a.42.42,0,0,1-.12-.25Z"/><path d="M32.11,25c.12,0,.12.12,0,0,.12.12,0,.12,0,0Z"/><path d="M20.22,23.16a.42.42,0,0,1-.25.12h0c.13-.12.13-.12.25-.12Z"/><path d="M32.11,20.83v.49A.6.6,0,0,1,32.11,20.83Z"/><path d="M33.09,10.65a6.33,6.33,0,0,1,1.6-.24,3.42,3.42,0,0,1,1.59.24H34.56a6.57,6.57,0,0,0-1.59.13c-.12,0-.12,0-.25-.13h.37Z"/><path d="M26.84,26a1,1,0,0,1,.12.49c-.12,0,0-.12-.12-.12C27,26.35,26.84,26.1,26.84,26Z"/><path d="M26.84,26.72c.12.24,0,.36,0,.49h0Z"/><path d="M26.84,26.47v0Z"/><path d="M27,27.45h0v0Z"/><path d="M11.51,45.6s.13,0,.13.24c0-.12-.13-.12-.13-.24Z"/></svg>