<svg id="Слой_1" data-name="Слой 1" xmlns="http://www.w3.org/2000/svg" viewBox="0 0 50 50"><defs><style>.cls-1{fill:#43bac2;}</style></defs><path class="cls-1" d="M30,39.22a17.7,17.7,0,0,0,.5,2.51,3.6,3.6,0,0,0,1.17,1.89,2.38,2.38,0,0,0,1.1.38A2.18,2.18,0,0,0,34,43.92a2.69,2.69,0,0,0,1.14-1.61,11.11,11.11,0,0,0,.42-3c0-.17-1.24-.27-1.24-.15-.07,1.35-.1,3-1,4.09a1.47,1.47,0,0,1-.64.49c-.15.06-.34,0,.14.07s.34.06.2,0a1.5,1.5,0,0,1-.33-.23,3.8,3.8,0,0,1-1-1.78,15.68,15.68,0,0,1-.47-2.44c0-.13-.52-.17-.61-.18s-.65-.06-.64,0Z"/><path class="cls-1" d="M15.79,39.34a15.61,15.61,0,0,0,.5,2.52,3.64,3.64,0,0,0,1.17,1.89,2.33,2.33,0,0,0,2.34.08A2.81,2.81,0,0,0,21,42.19a11.52,11.52,0,0,0,.41-3c0-.19-1.23-.19-1.25.09-.06,1.35-.09,3-1,4.09a1.72,1.72,0,0,1-.27.27l-.13.09c-.09,0-.24.06.05,0,0,0,.26-.05.27,0l-.07,0-.15-.06a1.31,1.31,0,0,1-.33-.25,3.76,3.76,0,0,1-1-1.74A17,17,0,0,1,17,39.25c0-.26-1.28-.13-1.25.09Z"/><path class="cls-1" d="M17.36,7.3c-1.69-.87-3.42-1.17-5,.15a13.62,13.62,0,0,0-3.73,6.18c-.78,2.28-1.29,4.63-2.19,6.87a17.7,17.7,0,0,0-1.68,7.6C5.16,36,13,40.72,20.15,41.34a58.89,58.89,0,0,0,9.76.08c3.86-.32,8.65-.92,11.67-3.62a23.43,23.43,0,0,0,3-3.78,8.66,8.66,0,0,0,1.19-6.35c-.81-5.61-4.76-10.08-6.89-15.18-.58-1.39-.91-2.86-1.42-4.27a3.39,3.39,0,0,0-1.46-2c-1.51-.88-3.52-.26-5,.51A14.45,14.45,0,0,1,28.27,8a15.58,15.58,0,0,1-3.39.49,16.24,16.24,0,0,1-7.65-1.25c-.7-.34.23.38.45.48A17.78,17.78,0,0,0,27.74,9,11.65,11.65,0,0,0,31.93,7.4a8,8,0,0,1,2.41-.86,2.38,2.38,0,0,1,1.29-.07c.52.22.69,1.1.86,1.63a42.67,42.67,0,0,0,2.79,7c1.11,2.07,2.36,4.07,3.39,6.18a17.37,17.37,0,0,1,2.1,7.54,9.66,9.66,0,0,1-.58,3.36,8.49,8.49,0,0,1-1.28,2,16.62,16.62,0,0,1-2.71,3.3A14,14,0,0,1,35,39.79a38.2,38.2,0,0,1-9.52,1.12,37.29,37.29,0,0,1-10-.84,13.16,13.16,0,0,1-9-8.21,12.57,12.57,0,0,1-.36-6.69c.51-2.54,1.81-4.91,2.54-7.41,1-3.45,3.49-12.87,8.88-10.11C18.32,8.05,17.75,7.5,17.36,7.3Z"/><path class="cls-1" d="M24.25,23.63a6.06,6.06,0,0,0,6.31,2.16c.64-.18-.15-1.1-.62-1a5,5,0,0,1-2.77,0,3.81,3.81,0,0,1-2-1.32.87.87,0,0,0-.77-.41c-.28.06-.29.37-.15.57Z"/><path class="cls-1" d="M12,20.23a6.65,6.65,0,0,1,4.61-1.8,10.86,10.86,0,0,1,5.49,1.64,1.45,1.45,0,0,0,.86.21c.19,0,.3-.13.07-.27-3.5-2-8.93-3.43-12.18-.18-.18.19.92.63,1.15.4Z"/><path class="cls-1" d="M11,20.34A10.6,10.6,0,0,0,17,22c1.67,0,4.19.23,5.3-1.32.23-.33-.79-1-1-.7-1,1.36-3.17,1.2-4.64,1.17a9.17,9.17,0,0,1-5.28-1.31c-.14-.1-.54-.31-.68-.11s.22.51.35.6Z"/><path class="cls-1" d="M37.75,19.9c-3.24-3.24-8.28-2.3-11.88-.27-.38.21.55,1,.89.82a13,13,0,0,1,5.56-1.82,6.29,6.29,0,0,1,4.84,1.53c.13.13.55.43.74.28s0-.41-.15-.54Z"/><path class="cls-1" d="M37.12,19.91a9.11,9.11,0,0,1-4.88,1.45,24.1,24.1,0,0,1-2.55,0,2.44,2.44,0,0,1-2-.9c-.13-.19-.51-.25-.72-.29-.05,0-.55-.07-.46.06,1.12,1.57,3.72,1.58,5.44,1.57,2.17,0,4.51-.21,6.33-1.52.14-.1-.33-.26-.38-.27s-.61-.22-.77-.1Z"/><path class="cls-1" d="M24.16,23.16a3.91,3.91,0,0,0-.84,1.38,4.11,4.11,0,0,1-.71,1.32c-.06.08-.18.15-.23.23s.18-.09.22-.1.07,0,0,0A1.45,1.45,0,0,1,22,25.9a.87.87,0,0,1-.67-.8c0-.06-.56.17-.6.19a2.93,2.93,0,0,0-.39.21s-.13.08-.13.14c0,.49.45.77.87.86a2.93,2.93,0,0,0,2.1-.63,3,3,0,0,0,1.1-1.4,5.1,5.1,0,0,1,.9-1.69c.18-.17-.2,0-.26,0a2.18,2.18,0,0,0-.75.4Z"/><ellipse class="cls-1" cx="17.25" cy="20.04" rx="0.72" ry="1.89"/><ellipse class="cls-1" cx="31.3" cy="20.04" rx="0.72" ry="1.89"/><path class="cls-1" d="M13.21,33.23a11.58,11.58,0,0,0,.39,1.93,3.35,3.35,0,0,0,1,1.63,1.38,1.38,0,0,0,1.65.24,2.47,2.47,0,0,0,.94-1.41,9.3,9.3,0,0,0,.31-2.23.74.74,0,0,0-.49-.74.47.47,0,0,0-.61.4,10.24,10.24,0,0,1-.16,1.65,2.41,2.41,0,0,1-.52,1.15l0,0c-.05.06.06,0,0,0l-.11.08s-.12.06-.06,0l-.09,0c.1,0,0,0-.05,0s0,0,0,0l-.07,0-.06,0,0,0a1,1,0,0,0-.13-.09c.12.08,0,0,0,0s-.12-.13-.07-.07,0-.06-.06-.08l-.12-.19s0,0,0-.08v0c0-.05-.05-.1-.07-.16s-.1-.25-.14-.38l-.06-.2s0-.1,0,0a.37.37,0,0,0,0-.07l-.09-.45c-.06-.31-.1-.62-.15-.93a.7.7,0,0,0-.62-.61.48.48,0,0,0-.46.58Z"/><path class="cls-1" d="M32.92,33.65a12.47,12.47,0,0,0,.34,1.7,2.49,2.49,0,0,0,.8,1.3,1.35,1.35,0,0,0,1.64-.17,2.59,2.59,0,0,0,.91-1.34,7.69,7.69,0,0,0,.28-2c0-.26-.44-.11-.54-.06s-.54.31-.56.57a9.53,9.53,0,0,1-.15,1.5,3.51,3.51,0,0,1-.19.63l-.11.21-.07.11,0,.06c0,.06.07-.09,0,0s.08-.06,0,0h0l.12-.07c-.08,0,.06,0,.09,0s-.06,0,0,0h0l-.08,0-.11,0a.8.8,0,0,1-.21-.15,2.45,2.45,0,0,1-.63-1.12,9.62,9.62,0,0,1-.31-1.6c0-.25-.41-.12-.55,0a1.56,1.56,0,0,0-.4.27c-.06.08-.17.19-.16.29Z"/><path class="cls-1" d="M.76,22.94l12.3,1.6c.3,0,.76-.38.27-.44L1,22.5c-.3,0-.76.37-.27.44Z"/><path class="cls-1" d="M1,25.75h12.1c.14,0,.41,0,.51-.13s.13-.18-.05-.18H1.49a.76.76,0,0,0-.51.14c-.07.08-.13.17.05.17Z"/><path class="cls-1" d="M49.14,21.8,36.23,23.37c-.4.05-.56.59-.07.53l12.91-1.57c.4,0,.56-.59.07-.53Z"/><path class="cls-1" d="M48.86,24.67H36.16c-.29,0-.77.44-.28.44h12.7c.29,0,.77-.44.28-.44Z"/></svg>