<svg id="Слой_1" data-name="Слой 1" xmlns="http://www.w3.org/2000/svg" viewBox="0 0 50 50"><path d="M10.2,28.82a5.08,5.08,0,0,1,3.22-4.76A5,5,0,0,1,19,25.3a48.44,48.44,0,0,1,3.41,4.41c2.62,3.85,5.17,7.75,7.74,11.63a1.65,1.65,0,0,1-2.25,2.36q-7.34-5-14.64-9.94a11.62,11.62,0,0,1-1.64-1.41A4.85,4.85,0,0,1,10.2,28.82Z"/><path d="M26.43,15.23A17.54,17.54,0,0,0,17,11.33V1A27.58,27.58,0,0,1,33.7,8Z"/><path d="M13.65,1V11.33q-2.73.81-5.66,1.52l-1.07.24L8.42,2.23c.3-.14.61-.27.94-.39A13.33,13.33,0,0,1,13.65,1Z"/><path d="M28.86,17.67l7.26-7.3a27.74,27.74,0,0,1,7,16.77H32.78A17.46,17.46,0,0,0,28.86,17.67Z"/><path d="M30.89,46.81A5,5,0,0,0,33.68,43,4.77,4.77,0,0,0,33,39.78c-.57-.92-1.17-1.81-1.74-2.74a.7.7,0,0,1-.11-.57,18.67,18.67,0,0,0,1.67-6h10.3c-.09.86-.15,1.71-.28,2.56a27.44,27.44,0,0,1-5.95,13.36c-.58.72-1.21,1.39-1.85,2.05a1.61,1.61,0,0,1-2.37,0Z"/></svg>