<svg id="Слой_1" data-name="Слой 1" xmlns="http://www.w3.org/2000/svg" viewBox="0 0 97.77 50"><defs><style>.cls-1{fill:#616160;}</style></defs><path class="cls-1" d="M13.21,23.55h-1.8a11,11,0,0,1-1.8-.2,8.33,8.33,0,0,1-1.5-.4,5.39,5.39,0,0,1-1.3-.7A6.55,6.55,0,0,1,5,20.75a6.25,6.25,0,0,1-1.3-2,11.14,11.14,0,0,1-.8-3,16,16,0,0,1,0-3.1,16.47,16.47,0,0,1,.6-3.2,13.59,13.59,0,0,1,1.3-3,13.3,13.3,0,0,1,1.4-1.9,9,9,0,0,1,1.9-1.5,6.2,6.2,0,0,1,3.2-.9,9.74,9.74,0,0,1,2.4.2,9,9,0,0,1,2.3.8A7.19,7.19,0,0,1,18.11,5a6.92,6.92,0,0,1,1,1.9,7.8,7.8,0,0,1,.4,2.2,2.77,2.77,0,0,1-.1.9c-.1.3-.2.5-.5.6a1.09,1.09,0,0,0-.5.1,2.2,2.2,0,0,0-.8.1c-.3.1-.6,0-.9.1s-.4,0-.5.1a.76.76,0,0,0-.4.1c-.2,0-.4.1-.6.1s-.4.1-.6.1h-.4a1.38,1.38,0,0,1-.4-.3c-.1-.1-.2-.3-.3-.4l-.3-.9c-.1-.3-.2-.6-.5-.7a.76.76,0,0,0-.4-.2h-.5a2.2,2.2,0,0,0-1.9.6,3.36,3.36,0,0,0-1,1.6,5.82,5.82,0,0,0-.3,1.9,3.86,3.86,0,0,0,.6,2,4.23,4.23,0,0,0,.5.7,3,3,0,0,0,.7.5,3.59,3.59,0,0,0,1.1.2,5.85,5.85,0,0,0,1.3-.2c.4-.1.8-.3,1.2-.4a2.18,2.18,0,0,0,.9-.7c.1-.1.1-.2.3-.3s.2-.2.3-.2.2.1.3.2.2.2.2.3c.4.6.9,1.3,1.3,1.9a22,22,0,0,0,1.4,1.8,2.25,2.25,0,0,0,.5.5c.2.2.4.4.4.5a1.09,1.09,0,0,1-.1.5,1.38,1.38,0,0,1-.3.4,7.05,7.05,0,0,1-2.7,2.1A10.17,10.17,0,0,1,13.21,23.55Zm3.2-17.4a.35.35,0,0,0,.4.4.52.52,0,0,0,.4-.2c.1-.1.1-.2,0-.4a1.24,1.24,0,0,1-.2-.3c-.1-.2-.2-.2-.3-.3s-.3-.4-.5-.6a2.65,2.65,0,0,0-.6-.5.59.59,0,0,0-.5-.2,4.88,4.88,0,0,0-.7-.3,2.54,2.54,0,0,0-.7-.2,1.09,1.09,0,0,0-.5-.1,1.27,1.27,0,0,0-.6.1,1.27,1.27,0,0,1-.6.1h-.2c-.1,0-.2,0-.2.1s-.2.2-.1.3a.19.19,0,0,0,.3,0c.2,0,.3-.1.4-.1s.3-.1.4-.1H13a.31.31,0,0,1,.2.1.35.35,0,0,1,.2.1c.1,0,.2.1.3.1s.3.1.5.2.3.1.5.2a.77.77,0,0,0,.3.1c.1,0,.2.1.3.2s.2.3.4.4a.78.78,0,0,0,.4.4A1.07,1.07,0,0,0,16.41,6.15Zm.7,1.6c.1,0,.2,0,.2-.1s.1-.2,0-.3-.1-.3-.3-.2l-.1.1c-.1,0-.2.1-.1.3S17,7.75,17.11,7.75Z"/><path class="cls-1" d="M27.31,24.05a.76.76,0,0,1-.5-.2c-.2-.1-.3-.3-.4-.4l-.3-.6c-.1-.2-.1-.4-.2-.6a6.15,6.15,0,0,1-.2-1.9,5.85,5.85,0,0,1,.4-1.9A3.77,3.77,0,0,1,27,17a13.44,13.44,0,0,0,1.1-1.4c.4-.4.7-.9,1.1-1.3a11,11,0,0,0,.9-1.4c.2-.4.4-.7.6-1.1a5.64,5.64,0,0,0,.4-1.2,8.58,8.58,0,0,0,.2-2.3c-.1-.8-.2-1.5-.3-2.3a9.06,9.06,0,0,1-.1,2.3,6.49,6.49,0,0,1-.7,2.1,9.74,9.74,0,0,1-1.5,2.4c-.6.7-1.3,1.4-2,2.1a11.2,11.2,0,0,0-1.7,2,6.59,6.59,0,0,0-1.1,2.4,4.08,4.08,0,0,0-.1,1.9,4.76,4.76,0,0,0,.5,1.8.37.37,0,0,1,.1.3.22.22,0,0,1-.2.2c-.1,0-.2.1-.3,0s-.2-.1-.3-.2a8.52,8.52,0,0,1-1.9-3.2,11.68,11.68,0,0,1-.8-3.6,13.52,13.52,0,0,1,.3-4,17.06,17.06,0,0,1,1.3-3.8A9.91,9.91,0,0,1,23.61,7,20,20,0,0,1,25,5.35a10.1,10.1,0,0,1,1.6-1.3,7.57,7.57,0,0,1,1.8-.9,4,4,0,0,1,1.5-.3,3.81,3.81,0,0,1,1.5.1,7.1,7.1,0,0,1,1.8.8,4.67,4.67,0,0,1,1.4,1.4,14,14,0,0,1,1.5,3,13,13,0,0,1,.7,3.3,14.52,14.52,0,0,1-.2,3.6,22.68,22.68,0,0,1-.6,2.5,9.43,9.43,0,0,1-1,2.3,10,10,0,0,1-1.6,2,10.09,10.09,0,0,1-2.1,1.5,6.36,6.36,0,0,1-1.8.6A7.54,7.54,0,0,0,27.31,24.05ZM35.11,12v.2c0,.1.1.1.2.1h.2c.1,0,.1-.1.2-.2v-.2a9.7,9.7,0,0,0-.1-1.7c-.1-.6-.2-1.1-.3-1.7a8.65,8.65,0,0,0-.7-1.7c-.3-.5-.6-1.1-.9-1.6-.1-.1-.1-.2-.2-.3s-.2-.1-.3-.2-.1-.1-.2,0l-.2.2c-.1.1-.1.1-.1.2s0,.1.1.2.3.2.3.3a2.19,2.19,0,0,1,.3.5,3,3,0,0,1,.4.8c.1.3.3.6.4.9a3.93,3.93,0,0,1,.2.6,4.54,4.54,0,0,1,.2.8c.1.3.1.7.2,1.1a4.1,4.1,0,0,1,.1,1.1A.73.73,0,0,1,35.11,12Zm0,1.6c.1.1.2.2.3.1a.31.31,0,0,1,.2-.1c0-.1.1-.2,0-.3a.22.22,0,0,0-.2-.2h-.3c-.1,0-.1.1-.2.1v.2Z"/><path class="cls-1" d="M39.31,23.65a.75.75,0,0,1-.5-.1c-.2,0-.3-.1-.5-.3a.37.37,0,0,1-.1-.3v-5.2c0-.4.1-.7.1-1.1s.1-.7.1-1.1v-11c0-.2.1-.5.1-.7s.1-.3.2-.5a.54.54,0,0,1,.4-.3,1.27,1.27,0,0,1,.6-.1,2,2,0,0,1,.7.1h6.2c1-.1,2.1,0,3.2,0h.4a.9.9,0,0,1,.5.1c.2.1.4,0,.5.1a.44.44,0,0,1,.3.1c.2.1.2.2.2.4v.4a3.4,3.4,0,0,1,.1,1,3.4,3.4,0,0,1-.1,1v.7a2.77,2.77,0,0,1-.1.9,1.88,1.88,0,0,1-.2.8,2.19,2.19,0,0,1-.3.5.85.85,0,0,1-.6.2h-.8a2,2,0,0,1-.8-.1,3.54,3.54,0,0,1-.6-.1c-.8-.1-1.5-.1-2.3-.2h-2.3v2.6c.7,0,1.5-.1,2.2-.1a16.2,16.2,0,0,1,2.2.1h.4a.9.9,0,0,1,.5.1.9.9,0,0,0,.5.1c.1.1.2.1.3.2a1.42,1.42,0,0,1,.2.6,1.7,1.7,0,0,1-.1.7v.5a2.49,2.49,0,0,1-.1.8,2.2,2.2,0,0,1-.1.8.78.78,0,0,0,0,.5V16c0,.1,0,.2-.1.2a.68.68,0,0,1-.6.4h-.6c-.8,0-1.6-.1-2.4-.1a19.27,19.27,0,0,0-2.4.1v5.6a2.54,2.54,0,0,1-.2.7.78.78,0,0,1-.4.4,1.27,1.27,0,0,1-.6.1H41a3.4,3.4,0,0,0-1,.1C40,23.55,39.71,23.65,39.31,23.65Zm0-.8h.8c.1,0,.1-.1.1-.2a.22.22,0,0,0-.2-.2h-.5c-.2,0-.3,0-.4-.1V21c0-.1-.1-.3-.1-.4v-1.4c0-.1-.1-.2-.2-.1a.22.22,0,0,0-.2.2v1.4a.76.76,0,0,1-.1.4v.4a5.07,5.07,0,0,0,.2.9C38.91,22.55,39,22.75,39.31,22.85Zm-.4-4.6c0,.2.1.2.2.2a.19.19,0,0,0,0-.3c-.1-.1-.1-.1-.2-.1Zm7.9-13.6h.4c.1,0,.3-.1.4-.1h1.6c.1.1.1.1.2,0s.1-.1.1-.2-.1-.1-.2-.1h-.9c-.2,0-.5-.1-.8-.1-.1,0-.1,0-.2-.1h-.6c-.2,0-.3-.1-.4,0a.6.6,0,0,0-.4.1.22.22,0,0,0-.2.2c0,.1,0,.2.1.2h.3c.1,0,.2.1.3.1Zm3.4,0a.37.37,0,0,0,.3.1c.1,0,.2-.1.2-.3a.37.37,0,0,0-.1-.3.19.19,0,0,0-.3,0l-.1.1c-.1,0-.1,0-.1.1v.2A.1.1,0,0,0,50.21,4.65Z"/><path class="cls-1" d="M54.51,23.65a.75.75,0,0,1-.5-.1c-.2,0-.3-.1-.5-.3a.37.37,0,0,1-.1-.3v-5.2c0-.4.1-.7.1-1.1s.1-.7.1-1.1v-11c0-.2.1-.5.1-.7s.1-.3.2-.5a.54.54,0,0,1,.4-.3,1.27,1.27,0,0,1,.6-.1,2,2,0,0,1,.7.1h6.2c1-.1,2.1,0,3.2,0h.4a.9.9,0,0,1,.5.1c.2.1.4,0,.5.1a.44.44,0,0,1,.3.1c.2.1.2.2.2.4v.4a3.4,3.4,0,0,1,.1,1,3.4,3.4,0,0,1-.1,1v.7a2.77,2.77,0,0,1-.1.9,1.88,1.88,0,0,1-.2.8,2.19,2.19,0,0,1-.3.5.85.85,0,0,1-.6.2h-.8a2,2,0,0,1-.8-.1,3.54,3.54,0,0,1-.6-.1c-.8-.1-1.5-.1-2.3-.2h-2.3v2.6c.7,0,1.5-.1,2.2-.1a16.2,16.2,0,0,1,2.2.1h.4a.9.9,0,0,1,.5.1.9.9,0,0,0,.5.1c.1.1.2.1.3.2a1.42,1.42,0,0,1,.2.6,1.7,1.7,0,0,1-.1.7v.5a2.49,2.49,0,0,1-.1.8,2.2,2.2,0,0,1-.1.8.78.78,0,0,0,0,.5V16c0,.1,0,.2-.1.2a.68.68,0,0,1-.6.4h-.6c-.8,0-1.6-.1-2.4-.1a19.27,19.27,0,0,0-2.4.1v5.6a2.54,2.54,0,0,1-.2.7.78.78,0,0,1-.4.4,1.27,1.27,0,0,1-.6.1h-1.4a3.4,3.4,0,0,0-1,.1C55.21,23.55,54.81,23.65,54.51,23.65Zm-.1-.8h.8c.1,0,.1-.1.1-.2a.22.22,0,0,0-.2-.2h-.5c-.2,0-.3,0-.4-.1V21c0-.1-.1-.3-.1-.4v-1.4c0-.1-.1-.2-.2-.1a.22.22,0,0,0-.2.2v1.4a.76.76,0,0,1-.1.4v.4a5.07,5.07,0,0,0,.2.9A2.65,2.65,0,0,0,54.41,22.85Zm-.3-4.6c0,.2.1.2.2.2a.19.19,0,0,0,0-.3c-.1-.1-.1-.1-.2-.1ZM62,4.65h.4c.1,0,.3-.1.4-.1h1.6c.1.1.1.1.2,0s.1-.1.1-.2-.1-.1-.2-.1h-.9c-.2,0-.5-.1-.8-.1-.1,0-.1,0-.2-.1H62c-.2,0-.3-.1-.4,0a.6.6,0,0,0-.4.1.22.22,0,0,0-.2.2c0,.1,0,.2.1.2h.3c.1,0,.2.1.3.1Zm3.4,0a.37.37,0,0,0,.3.1c.1,0,.2-.1.2-.3a.37.37,0,0,0-.1-.3.19.19,0,0,0-.3,0l-.1.1c-.1,0-.1,0-.1.1v.2A.1.1,0,0,0,65.41,4.65Z"/><path class="cls-1" d="M78.51,23.65h-3.4c-1.1,0-2.3-.1-3.5-.1h-1.9a.52.52,0,0,1-.4-.2,1.61,1.61,0,0,1-.4-.7c-.1-.3-.1-.5-.2-.8a13.4,13.4,0,0,1-.1-2,12.75,12.75,0,0,1,.1-2v-1.7a6.15,6.15,0,0,1,.1-1.3,10.45,10.45,0,0,0,0-2.5,20.85,20.85,0,0,1,0-2.5v-.8c0-.4.1-.8.1-1.2a4.87,4.87,0,0,1,.1-1.2A1.49,1.49,0,0,0,69,6c0-.4.1-.9.1-1.3a2.66,2.66,0,0,1,.3-1.2c.1-.2.1-.3.2-.5a.78.78,0,0,1,.4-.4c.2-.1.3-.1.5-.2s.3,0,.5,0h.7a4.48,4.48,0,0,1,1.1.1c.4,0,.7.1,1.1.1a5.64,5.64,0,0,1,.7.1,14.77,14.77,0,0,0,2.1.1h3.1a1.27,1.27,0,0,1,.6.1c.2,0,.3.1.4.1s.2.1.3.2.2.2.2.3v.8a.9.9,0,0,1-.1.5v.3a3.35,3.35,0,0,0,0,1v1.5a.9.9,0,0,1-.1.5,1.38,1.38,0,0,1-.3.4,1.48,1.48,0,0,1-.7.1h-1a3.4,3.4,0,0,1-1-.1,5.64,5.64,0,0,1-.7-.1c-.4,0-.8-.1-1.2-.1h-1.8c-.2,0-.4.1-.6.1v2.5h3c.2,0,.3,0,.4.1s.2.1.3.2a.37.37,0,0,1,.1.3v3c0,.2-.1.3-.1.4s-.1.2-.3.3a.76.76,0,0,1-.4.2c-.2,0-.3.1-.5.1h-3v2a5.7,5.7,0,0,0,1.3.1,5.7,5.7,0,0,1,1.3.1h1.6a8.6,8.6,0,0,0,1.6-.1h.6c.2,0,.3.1.4.3s.1.2.1.4v3.1c0,.4.1.9.1,1.3v.4c0,.1-.1.2-.2.3a.37.37,0,0,1-.3.1c-.3,0-.6.1-.9.1C79.11,23.65,78.81,23.65,78.51,23.65Zm-3.8-11.8H75a1.09,1.09,0,0,1,.5.1h.8a.22.22,0,0,0,.2-.2c0-.1,0-.2-.1-.2h-2.1c-.1,0-.2,0-.2.1s0,.2.1.2h.5Zm3.9-7.6c.1.1.2,0,.3,0s.2-.2.2-.3-.1-.2-.2-.3h-2.4c-.1,0-.2-.1-.3,0h-.8c-.2,0-.4,0-.4.1a.31.31,0,0,0-.1.2c0,.1.1.1.2.2h3C78.41,4.15,78.51,4.15,78.61,4.25Zm-1.7,7.5c-.1.2-.1.3.1.4s.2,0,.3-.3c0-.1,0-.2-.1-.2A.37.37,0,0,0,76.91,11.75Zm2.8-7.9c-.1,0-.1.1,0,0a.37.37,0,0,0-.1.3.1.1,0,0,0,.1.1h.2c.1-.1.2-.2.1-.3S79.91,3.75,79.71,3.85Z"/><path class="cls-1" d="M92.91,23.65h-3.4c-1.1,0-2.3-.1-3.5-.1h-1.9a.52.52,0,0,1-.4-.2,1.61,1.61,0,0,1-.4-.7c-.1-.3-.1-.5-.2-.8a13.4,13.4,0,0,1-.1-2,12.75,12.75,0,0,1,.1-2v-1.7a6.15,6.15,0,0,1,.1-1.3,10.45,10.45,0,0,0,0-2.5,10.45,10.45,0,0,1,0-2.5v-.8c0-.4.1-.8.1-1.2a4.87,4.87,0,0,1,.1-1.2,1.49,1.49,0,0,0,0-.7c0-.4.1-.9.1-1.3a2.66,2.66,0,0,1,.3-1.2c.1-.2.1-.3.2-.5a.78.78,0,0,1,.4-.4c.2-.1.3-.1.5-.2s.3,0,.5,0h.7a4.48,4.48,0,0,1,1.1.1c.4,0,.7.1,1.1.1a5.64,5.64,0,0,1,.7.1,14.77,14.77,0,0,0,2.1.1h3.1a1.27,1.27,0,0,1,.6.1c.2,0,.3.1.4.1s.2.1.3.2.2.2.2.3v.8a.9.9,0,0,1-.1.5v.3a3.35,3.35,0,0,0,0,1v1.5a.9.9,0,0,1-.1.5,1.38,1.38,0,0,1-.3.4,1.48,1.48,0,0,1-.7.1h-1a3.4,3.4,0,0,1-1-.1,5.64,5.64,0,0,1-.7-.1c-.4,0-.8-.1-1.2-.1h-1.8c-.2,0-.4.1-.6.1v2.5h3c.2,0,.3,0,.4.1s.2.1.3.2a.37.37,0,0,1,.1.3v3c0,.2-.1.3-.1.4s-.1.2-.3.3a.76.76,0,0,1-.4.2c-.2,0-.3.1-.5.1h-3v2a5.7,5.7,0,0,0,1.3.1,5.7,5.7,0,0,1,1.3.1h1.6a8.6,8.6,0,0,0,1.6-.1h.6c.2,0,.3.1.4.3s.1.2.1.4v3.1c0,.4.1.9.1,1.3v.4c0,.1-.1.2-.2.3a.37.37,0,0,1-.3.1c-.3,0-.6.1-.9.1C93.51,23.65,93.21,23.65,92.91,23.65Zm-3.7-11.8h.3a1.09,1.09,0,0,1,.5.1h.8a.22.22,0,0,0,.2-.2c0-.1,0-.2-.1-.2h-2.1c-.1,0-.2,0-.2.1s0,.2.1.2h.5Zm3.9-7.6c.1.1.2,0,.3,0s.2-.2.2-.3-.1-.2-.2-.3H91c-.1,0-.2-.1-.3,0h-.8c-.2,0-.4,0-.4.1a.31.31,0,0,0-.1.2c0,.1.1.1.2.2h3A.75.75,0,0,1,93.11,4.25Zm-1.7,7.5c-.1.2-.1.3.1.4s.2,0,.3-.3c0-.1,0-.2-.1-.2S91.41,11.65,91.41,11.75Zm2.8-7.9c-.1,0-.1.1,0,0a.37.37,0,0,0-.1.3.1.1,0,0,0,.1.1h.2c.1-.1.2-.2.1-.3S94.31,3.75,94.21,3.85Z"/><path class="cls-1" d="M6.61,46.65H6a2.77,2.77,0,0,0-.9.1h-.9c-.3,0-.5,0-.6-.1s-.2-.1-.3-.3-.1-.3-.2-.4v-4.5c0-.5.1-1,.1-1.5v-7.2a8.8,8.8,0,0,0-.1-1.4c0-.6-.1-1.3-.1-2v-1.9a3.47,3.47,0,0,1,.2-1.3,1.38,1.38,0,0,1,.3-.4c.1-.1.3-.2.4-.3a5.64,5.64,0,0,1,.7-.1c.3,0,.6-.1,1-.1h2.7a9.15,9.15,0,0,1,1.6.1,9.15,9.15,0,0,0,1.6.1c.5,0,.8.1,1,.1a6.36,6.36,0,0,1,1.8.6,8.64,8.64,0,0,1,1.6,1,6.57,6.57,0,0,1,1.2,1.7c.3.7.5,1.4.7,2a15.72,15.72,0,0,1,.4,2.3,5.86,5.86,0,0,1-.1,2.3,6.36,6.36,0,0,1-.6,1.8c-.3.6-.6,1.2-.9,1.7-.2.2-.4.5-.6.7a4.35,4.35,0,0,1-.7.6,7.46,7.46,0,0,1-1.2.7,5.78,5.78,0,0,1-1.4.5,5,5,0,0,1-1.7.2,11,11,0,0,1-1.8-.2c0,.6.1,1.2.1,1.8a11,11,0,0,0,.2,1.8.9.9,0,0,0,.1.5.9.9,0,0,1-.1.5.78.78,0,0,1-.4.4.83.83,0,0,1-.7.3,2.77,2.77,0,0,1-.9-.1A2.72,2.72,0,0,0,6.61,46.65Zm-1.7-.8a1.09,1.09,0,0,1,.5.1,1.21,1.21,0,0,1,.5.1c.2,0,.2-.1.2-.2s-.1-.2-.3-.3H4.61c-.1,0-.1-.1-.1-.3v-.5a1.27,1.27,0,0,1-.1-.6,1.27,1.27,0,0,0-.1-.6c.1-.1,0-.2-.1-.3s-.2,0-.2.1v1.5a.45.45,0,0,0,0,.5c0,.2.2.3.4.4S4.71,45.85,4.91,45.85Zm4.3-8.8a4.87,4.87,0,0,0,1.2-.1,1.7,1.7,0,0,0,1-.6,4.75,4.75,0,0,0,.9-1.9,5,5,0,0,0-.2-2.1c-.2-.3-.3-.6-.6-1a1.68,1.68,0,0,0-.8-.7,1.88,1.88,0,0,0-.8-.2h-.8v6C9.21,36.55,9.21,36.85,9.21,37.05Zm6.4-8c.1.1.1.1.2.1s.1-.1.1-.2a1.69,1.69,0,0,0-.2-.5l-.4-.4a.35.35,0,0,0-.2-.1c-.1-.1-.2-.1-.2-.2s-.2-.1-.2-.2-.1-.1-.2-.1-.2-.1-.4-.2-.3-.1-.4-.2-.2-.1-.3-.1-.2-.1-.3-.1a1.07,1.07,0,0,0-.6-.2h-1.1c-.2,0-.3-.1-.4-.1h-.4c-.1,0-.2.1-.3.1s-.1.2,0,.2.1.1.2.1a1.13,1.13,0,0,1,.8.1,2.35,2.35,0,0,0,.8.2h.6a.31.31,0,0,1,.2.1h.6a1.69,1.69,0,0,1,.5.2,1,1,0,0,1,.5.4c.2.1.3.3.5.4s.3.3.3.4C15.51,28.85,15.51,29,15.61,29.05Zm.2.7v.3c0,.1.1.1.2.1h.2c.1,0,.1-.1.1-.2v-.1c0-.2-.1-.2-.2-.3S15.91,29.65,15.81,29.75Z"/><path class="cls-1" d="M29.31,46.65a8.17,8.17,0,0,1-2.7.1,11,11,0,0,1-2.6-.6,10,10,0,0,1-1.4-.8,5.24,5.24,0,0,1-1.1-1,8.11,8.11,0,0,1-1-1.8c-.2-.7-.4-1.3-.6-2-.2-1-.3-2-.4-3s-.1-2-.1-3.1c0-.9.1-1.8.1-2.7s.1-1.8.2-2.7a1.09,1.09,0,0,1,.1-.5,2,2,0,0,1,.1-.7c0-.2.1-.5.1-.7a.52.52,0,0,1,.2-.4c.1-.1.2-.2.3-.2s.3-.1.5-.1h1.1c.4,0,.8-.1,1.3-.1a1.72,1.72,0,0,1,1.2.2.9.9,0,0,0,.5.1h.5a.52.52,0,0,1,.4.2c-.1-.2-.1-.1-.1.1v.5a4.33,4.33,0,0,1-.1.5,14.92,14.92,0,0,0-.2,2.1v4a12.1,12.1,0,0,0,.1,1.9c0,.4.1.8.1,1.2a2.66,2.66,0,0,0,.3,1.2,1.79,1.79,0,0,0,.5.7,2,2,0,0,0,.8.4,2.77,2.77,0,0,0,.9.1,1.88,1.88,0,0,0,.8-.2,1.34,1.34,0,0,0,.6-.7,3.55,3.55,0,0,0,.4-.9,4.15,4.15,0,0,0,.3-1.6c0-.5.1-1.1.1-1.6v-3.8a11.48,11.48,0,0,0-.6-3.7.52.52,0,0,1,.3-.7,1.69,1.69,0,0,1,1-.3c.4,0,.8-.1,1.1-.1a4.05,4.05,0,0,1,1.1,0h.7c.2,0,.5.1.7.1s.2.1.3.1a.22.22,0,0,1,.2.2,29.66,29.66,0,0,1,.8,5.2,45.09,45.09,0,0,1,0,5.2,20.12,20.12,0,0,1-1.1,4.9,5.56,5.56,0,0,1-.9,1.7,9.34,9.34,0,0,1-1.3,1.5,9.91,9.91,0,0,1-1.7,1.1A13.36,13.36,0,0,1,29.31,46.65Zm5.4-17.2c0,.1.1.1.2.1s.1-.1.1-.2v-.3a.6.6,0,0,0-.1-.4c0-.2-.1-.3-.1-.4a.37.37,0,0,0-.1-.3,3.93,3.93,0,0,0-.2-.6,1.07,1.07,0,0,0-.3-.5,1.29,1.29,0,0,0-.8-.2c-.4,0-.7-.1-.9-.1h-.8c-.2,0-.3,0-.4.1v.2a.35.35,0,0,0,.2.1.85.85,0,0,0,.7,0c.2,0,.5-.1.7-.1h.5a4.33,4.33,0,0,1,.5.1c.1,0,.1.1.2.2s.1.3.1.4.1.3.1.4.1.2.1.3.1.3.1.4.1.2.1.4v.2Z"/><path class="cls-1" d="M39.81,46.65a.6.6,0,0,0-.4.1.9.9,0,0,0-.5.1c-.2.1-.4,0-.5,0s-.3-.1-.4-.1a.52.52,0,0,1-.2-.4c0-.2-.1-.4-.1-.6v-2.5a6.15,6.15,0,0,0-.1-1.4v-1.6c0-.2.1-.3.3-.6s.4-.5.6-.7a4.62,4.62,0,0,1,.7-.7l.5-.5.6-.6a9,9,0,0,1,1-.9c.4-.4.8-.7,1.2-1.1a12,12,0,0,1,1.2-1.1,7.3,7.3,0,0,1,1-.9l.6-.6c-.5.1-1,.1-1.5.2a7.57,7.57,0,0,1-1.5.1h-2.6c-.2,0-.3.1-.5.1s-.3.1-.5.1h-.4c-.1,0-.2-.1-.2-.3v-3.9a1.27,1.27,0,0,0-.1-.6,1.27,1.27,0,0,0-.1-.6v-.4c0-.1.1-.2.1-.3s.1-.2.2-.3.2-.2.3-.2a.6.6,0,0,0,.4-.1h1.5c.5,0,1,.1,1.5.1a7.57,7.57,0,0,1,1.5.1,7.57,7.57,0,0,0,1.5-.1,24,24,0,0,1,2.8-.3,26.35,26.35,0,0,0,2.8-.2h.6a.86.86,0,0,1,.6.3c.1.1.1.2.1.4v1.7c0,.4-.1.8-.1,1.1v2.3c0,.1-.1.2-.2.4s-.2.3-.4.4-.3.3-.5.4a1.38,1.38,0,0,0-.4.3l-3.9,3.3a15.17,15.17,0,0,0-3.2,3.9c1.1,0,2.2,0,3.4.1h3.9a.75.75,0,0,0,.5-.1.76.76,0,0,1,.5.2c.2.1.2.3.2.5a8.1,8.1,0,0,0,0,2.2c0,.7.1,1.5.1,2.2v.5a.9.9,0,0,1-.1.5c0,.2-.1.3-.3.4a.37.37,0,0,1-.3.1h-3.6a18.48,18.48,0,0,1-2.3-.1h-4.4C40.11,47,40.11,46.55,39.81,46.65Zm5.6-5.1h2.4a.37.37,0,0,0,.3-.1h1.1c.1,0,.2-.1.3-.2s.1-.2-.1-.3a.9.9,0,0,0-.5-.1h-.2a.76.76,0,0,0-.4.1.6.6,0,0,0-.4.1h-2.2a.22.22,0,0,0-.2.2C45.21,41.45,45.31,41.55,45.41,41.55Zm4.5.1a.9.9,0,0,0,.5-.1c.1-.1.1-.2-.1-.3a.3.3,0,0,0-.4,0c-.1.1-.2.1-.2.3A.35.35,0,0,0,49.91,41.65Z"/><path class="cls-1" d="M55.71,46.65a.6.6,0,0,0-.4.1.9.9,0,0,0-.5.1c-.2.1-.4,0-.5,0s-.3-.1-.4-.1a.52.52,0,0,1-.2-.4c0-.2-.1-.4-.1-.6v-2.5a6.15,6.15,0,0,0-.1-1.4v-1.6c0-.2.1-.3.3-.6s.4-.5.6-.7a4.62,4.62,0,0,1,.7-.7l.5-.5.6-.6a9,9,0,0,1,1-.9c.4-.4.8-.7,1.2-1.1a12,12,0,0,1,1.2-1.1,7.3,7.3,0,0,1,1-.9l.6-.6c-.5.1-1,.1-1.5.2a7.57,7.57,0,0,1-1.5.1h-2.6c-.2,0-.3.1-.5.1s-.3.1-.5.1h-.4c-.1,0-.2-.1-.2-.3v-3.9a1.27,1.27,0,0,0-.1-.6,1.27,1.27,0,0,0-.1-.6v-.4c0-.1.1-.2.1-.3s.1-.2.2-.3.2-.2.3-.2a.6.6,0,0,0,.4-.1h1.5c.5,0,1,.1,1.5.1a7.57,7.57,0,0,1,1.5.1,7.57,7.57,0,0,0,1.5-.1,24,24,0,0,1,2.8-.3,26.35,26.35,0,0,0,2.8-.2H67a.86.86,0,0,1,.6.3c.1.1.1.2.1.4v1.7c0,.4-.1.8-.1,1.1v2.3c0,.1-.1.2-.2.4s-.2.3-.4.4-.3.3-.5.4a1.38,1.38,0,0,0-.4.3l-3.9,3.3a15.17,15.17,0,0,0-3.2,3.9c1.1,0,2.2,0,3.4.1h3.9a.75.75,0,0,0,.5-.1.76.76,0,0,1,.5.2c.2.1.2.3.2.5a8.1,8.1,0,0,0,0,2.2c0,.7.1,1.5.1,2.2v.5a.9.9,0,0,1-.1.5c0,.2-.1.3-.3.4a.37.37,0,0,1-.3.1h-3.6A18.48,18.48,0,0,1,61,47h-4.4C56,47,55.91,46.55,55.71,46.65Zm5.5-5.1h2.4a.37.37,0,0,0,.3-.1H65c.1,0,.2-.1.3-.2s.1-.2-.1-.3a.9.9,0,0,0-.5-.1h-.2a.76.76,0,0,0-.4.1.6.6,0,0,0-.4.1h-2.2a.22.22,0,0,0-.2.2C61.11,41.45,61.11,41.55,61.21,41.55Zm4.6.1a.9.9,0,0,0,.5-.1c.1-.1.1-.2-.1-.3a.3.3,0,0,0-.4,0c-.1.1-.2.1-.2.3C65.61,41.55,65.61,41.65,65.81,41.65Z"/><path class="cls-1" d="M77.31,46.85c-.8,0-1.6.1-2.4.1a9.64,9.64,0,0,1-2.4,0,3.59,3.59,0,0,1-1.1-.2,2.35,2.35,0,0,1-1-.5,1.79,1.79,0,0,1-.5-.7l-.3-.9a5.38,5.38,0,0,1-.1-.8v-3c0-1,0-2,.1-3s.1-2,.1-2.9c0-1.1.1-2.2.1-3.4a19.53,19.53,0,0,1,.3-3.4v-1.6a1.09,1.09,0,0,1,.1-.5.22.22,0,0,1,.2-.2c.1,0,.2-.1.4-.1h5c.1,0,.2.1.3.2s.1.3.2.6v1.1c0,.2-.1.5-.1.7s-.1.5-.1.7v.5c-.2,1.7-.3,3.3-.4,5s-.2,3.3-.2,5v.6c0,.3,0,.5.1.6H78c.4,0,.9.1,1.3.1a5.7,5.7,0,0,0,1.3-.1.75.75,0,0,0,.5-.1.75.75,0,0,1,.5.1.37.37,0,0,1,.1.3v1.7a6.6,6.6,0,0,0,.1,1.4v.4a1.27,1.27,0,0,0,.1.6c.1.2,0,.4,0,.6v.4a.22.22,0,0,1-.2.2.37.37,0,0,1-.3.1h-3.2C77.71,46.85,77.51,46.85,77.31,46.85Zm-2.6-16.6c0,.1,0,.2.1.2s.2,0,.2-.1V30a.85.85,0,0,0,.2-.6v-.7a1.27,1.27,0,0,1,.1-.6,1.27,1.27,0,0,0,.1-.6c0-.1-.1-.2-.2-.4s-.3-.2-.3-.3a.52.52,0,0,0-.4-.2h-1.3a2.2,2.2,0,0,0-.8.1h-.2l-.1.1c0,.1,0,.1.1.2a.14.14,0,0,0,.2,0,1.1,1.1,0,0,1,.8,0h1c.1,0,.1,0,.2.1l.2.2a.37.37,0,0,1,.1.3V28c0,.2-.1.3-.1.4v1.8A.1.1,0,0,1,74.71,30.25Zm-.1,1.7c0,.1.1.1.2.2s.1,0,.2-.1a.31.31,0,0,1,.1-.2v-.2c0-.1,0-.2-.1-.2a.37.37,0,0,0-.3.1.31.31,0,0,1-.1.2Z"/><path class="cls-1" d="M92.91,46.85h-3.4c-1.1,0-2.3-.1-3.5-.1h-1.9a.52.52,0,0,1-.4-.2,1.61,1.61,0,0,1-.4-.7c-.1-.3-.1-.5-.2-.8a13.4,13.4,0,0,1-.1-2,12.75,12.75,0,0,1,.1-2v-1.7a6.15,6.15,0,0,1,.1-1.3,10.45,10.45,0,0,0,0-2.5,10.45,10.45,0,0,1,0-2.5v-.8c0-.4.1-.8.1-1.2a4.87,4.87,0,0,1,.1-1.2,1.49,1.49,0,0,0,0-.7c0-.4.1-.9.1-1.3a2.66,2.66,0,0,1,.3-1.2c.1-.2.1-.3.2-.5a.78.78,0,0,1,.4-.4c.2-.1.3-.1.5-.2s.3,0,.5,0h.7a4.48,4.48,0,0,1,1.1.1c.4,0,.7.1,1.1.1a5.64,5.64,0,0,1,.7.1,14.77,14.77,0,0,0,2.1.1h3.1a1.27,1.27,0,0,1,.6.1c.2,0,.3.1.4.1s.2.1.3.2.2.2.2.3v.8a.9.9,0,0,1-.1.5v.3a3.35,3.35,0,0,0,0,1v1.5a.9.9,0,0,1-.1.5,1.38,1.38,0,0,1-.3.4,1.48,1.48,0,0,1-.7.1h-1a3.4,3.4,0,0,1-1-.1,5.64,5.64,0,0,1-.7-.1c-.4,0-.8-.1-1.2-.1h-1.8c-.2,0-.4.1-.6.1v2.5h3c.2,0,.3,0,.4.1s.2.1.3.2a.37.37,0,0,1,.1.3v3c0,.2-.1.3-.1.4s-.1.2-.3.3a.76.76,0,0,1-.4.2,4.33,4.33,0,0,1-.5.1h-3v2a5.7,5.7,0,0,0,1.3.1,5.7,5.7,0,0,1,1.3.1h1.6a8.6,8.6,0,0,0,1.6-.1h.6c.2,0,.3.1.4.3s.1.2.1.4v3.1c0,.4.1.9.1,1.3v.4c0,.1-.1.2-.2.3a.37.37,0,0,1-.3.1c-.3,0-.6.1-.9.1C93.51,46.75,93.21,46.75,92.91,46.85ZM89.21,35h.3a1.09,1.09,0,0,1,.5.1h.8a.22.22,0,0,0,.2-.2c0-.1,0-.2-.1-.2h-2.1c-.1,0-.2,0-.2.1s0,.2.1.2h.2C89.11,35.05,89.21,35,89.21,35Zm3.9-7.6c.1.1.2,0,.3,0s.2-.2.2-.3-.1-.2-.2-.3H91c-.1,0-.2-.1-.3,0h-.8c-.2,0-.4,0-.4.1a.31.31,0,0,0-.1.2c0,.1.1.1.2.2h3C92.91,27.25,93,27.25,93.11,27.35Zm-1.7,7.5c-.1.2-.1.3.1.4s.2,0,.3-.3c0-.1,0-.2-.1-.2S91.41,34.75,91.41,34.85Zm2.8-7.9c-.1,0-.1.1,0,0-.1.2-.1.2-.1.3a.1.1,0,0,0,.1.1h.2c.1-.1.2-.2.1-.3S94.31,26.85,94.21,27Z"/><path class="cls-1" d="M74.51,48.55a12.1,12.1,0,0,1-1.9.1,6.28,6.28,0,0,1-1.9-.3c-.2-.1-.3-.1-.4-.3l-.3-.3c-.1-.1-.2-.3-.3-.4s0-.1-.1-.2-.1-.1,0-.2a.22.22,0,0,1,.2-.2h.3l.1.1.1.1.1.1.1.1a2.09,2.09,0,0,0,.6.4c.1,0,.2.1.4.1a4.33,4.33,0,0,1,.5.1h1.8a2.2,2.2,0,0,0,.8-.1h1.1a.9.9,0,0,0,.5-.1c.1,0,.2.1.3.2a.19.19,0,0,1,0,.3.85.85,0,0,1-.6.2c-.3,0-.5,0-.6.1a.37.37,0,0,0-.3.1C74.61,48.45,74.61,48.55,74.51,48.55Z"/><path class="cls-1" d="M86,47.85c-.3,0-.5.1-.8.1a2.15,2.15,0,0,1-.8,0,1.6,1.6,0,0,1-.8-.3.4.4,0,0,1-.2-.4c0-.1.2-.2.4-.2a5.64,5.64,0,0,0,.7.1c.3,0,.7.1,1.1.1h1.8a.3.3,0,0,1,0,.6h-.7A.85.85,0,0,0,86,47.85Z"/><path class="cls-1" d="M28.11,48.15h-1.7a2.77,2.77,0,0,1-.9-.1h-.4c-.2,0-.4-.1-.6-.1s-.4-.1-.6-.1-.3-.1-.4-.1a2.18,2.18,0,0,1-.8-.5l-.3-.3c-.1-.1-.2-.3-.3-.4a.3.3,0,0,1,0-.4c.1-.1.2-.2.4-.1a3.13,3.13,0,0,1,1,.5,8.79,8.79,0,0,0,1,.6,4.28,4.28,0,0,0,1.6.5,10.28,10.28,0,0,0,1.7.1H28c.1,0,.2,0,.2.1a.37.37,0,0,1,.1.3C28.31,48.05,28.21,48.15,28.11,48.15Z"/><path class="cls-1" d="M17.21,27.15c0,.2-.1.4-.3.4a.27.27,0,0,1-.3-.3v-.1l-.1-.1c-.2-.2-.3-.4-.5-.6s-.3-.4-.5-.5a3.17,3.17,0,0,0-2.3-.7h-.8a.78.78,0,0,1-.7-.3.9.9,0,0,1-.1-.5c.1-.2.2-.3.4-.3h.5a4.33,4.33,0,0,1,.5.1l.9.3c.3.1.6.3.9.4.1,0,.2.1.4.2s.3.2.5.3.3.2.5.3a1.24,1.24,0,0,1,.3.2c.2.2.3.4.5.6A1.42,1.42,0,0,1,17.21,27.15Z"/><path class="cls-1" d="M16.31,24a19.45,19.45,0,0,1-2.2.8,9.28,9.28,0,0,1-2.4.3.76.76,0,0,1-.4-.1,1,1,0,0,0-.4-.1c-.2-.1-.2-.2-.2-.3s.1-.3.2-.3.2-.1.3,0h2.7a4.25,4.25,0,0,0,1.1-.2c.4-.1.7-.2,1-.3h.4c.2,0,.2.1.3.2C16.51,23.75,16.41,23.85,16.31,24Z"/><path class="cls-1" d="M40.41,25.55a2,2,0,0,1-.8-.1c-.2,0-.3-.1-.5-.2a1.38,1.38,0,0,1-.4-.3.3.3,0,0,1,0-.4c.1-.1.2-.2.3-.2h.3a.37.37,0,0,1,.3.1h.6c.2,0,.3.1.4.1.4.1.8.1,1.3.2a5.7,5.7,0,0,1,1.3.1c.2,0,.3.1.5.3s.1.3-.1.4a.3.3,0,0,1-.4,0h-2.8Z"/><path class="cls-1" d="M56.31,25.55a2,2,0,0,1-.8-.1c-.2,0-.3-.1-.5-.2a1.38,1.38,0,0,1-.4-.3.3.3,0,0,1,0-.4c.1-.1.2-.2.3-.2h.3a.37.37,0,0,1,.3.1h.6c.2,0,.3.1.4.1.4.1.8.1,1.3.2a5.7,5.7,0,0,1,1.3.1c.2,0,.3.1.5.3s.1.3-.1.4a.3.3,0,0,1-.4,0h-2.8Z"/><path class="cls-1" d="M71.51,24.75c-.3,0-.5.1-.8.1a2.15,2.15,0,0,1-.8,0,1.6,1.6,0,0,1-.8-.3.4.4,0,0,1-.2-.4c0-.2.2-.2.4-.2a5.64,5.64,0,0,0,.7.1c.3,0,.7.1,1.1.1h1.8a.3.3,0,1,1,0,.6h-.7A.85.85,0,0,0,71.51,24.75Z"/><path class="cls-1" d="M85.91,24.75c-.3,0-.5.1-.8.1a2.15,2.15,0,0,1-.8,0,1.6,1.6,0,0,1-.8-.3.4.4,0,0,1-.2-.4c0-.2.2-.2.4-.2a5.64,5.64,0,0,0,.7.1c.3,0,.7.1,1.1.1h1.8a.3.3,0,1,1,0,.6h-.7A.85.85,0,0,0,85.91,24.75Z"/><path class="cls-1" d="M47.31,2.15v.3c0,.1-.1.1-.2.1h-.2a.35.35,0,0,0-.2-.1,5.28,5.28,0,0,0-1.3-.1,4.87,4.87,0,0,0-1.2.1h-.5c-.2,0-.3,0-.4-.1h-.4a1.41,1.41,0,0,1-.9-.1c-.1,0-.2-.1-.3-.1s-.2-.1-.3-.2-.1-.3,0-.4a.52.52,0,0,1,.4-.2h.6a1.42,1.42,0,0,1,.6.2c.1,0,.2.1.4.1a1.27,1.27,0,0,1,.6.1c.2.1.4,0,.6,0h1.3a2.77,2.77,0,0,1,.9.1c.1,0,.1,0,.3.1Z"/><path class="cls-1" d="M62.41,2.15v.3c0,.1-.1.1-.2.1H62a.35.35,0,0,0-.2-.1,5.28,5.28,0,0,0-1.3-.1,4.87,4.87,0,0,0-1.2.1h-.5c-.2,0-.3,0-.4-.1H58a1.41,1.41,0,0,1-.9-.1c-.1,0-.2-.1-.3-.1s-.2-.1-.3-.2-.1-.3,0-.4a.52.52,0,0,1,.4-.2h.6a1.42,1.42,0,0,1,.6.2c.1,0,.2.1.4.1a1.27,1.27,0,0,1,.6.1c.2.1.4,0,.6,0H61a2.77,2.77,0,0,1,.9.1c.1,0,.1,0,.3.1S62.41,2.05,62.41,2.15Z"/><path class="cls-1" d="M4,6.65a.52.52,0,0,1-.4.2.27.27,0,0,1-.3-.3.9.9,0,0,1,.1-.5.9.9,0,0,0,.1-.5v-.4a.52.52,0,0,1,.2-.4l.3-.3c.2-.2.3-.4.5-.6l.4-.4a1.79,1.79,0,0,1,.7-.5,5.58,5.58,0,0,0,.8-.5.91.91,0,0,1,.5-.3c.1,0,.2-.1.3-.2s.3-.2.5-.2.3-.1.5-.2a.77.77,0,0,1,.3-.1h.2c.1,0,.2,0,.2.1a.37.37,0,0,1,.1.3c0,.1-.1.2-.2.3-.5.2-.9.4-1.4.6a3.45,3.45,0,0,0-1.2.9l-.3.3a2.18,2.18,0,0,0-.4.5c-.1.2-.3.3-.4.5a.22.22,0,0,0-.2.2,1.24,1.24,0,0,0-.2.3c-.2.2-.2.3-.3.3s-.1.2-.2.4A1.69,1.69,0,0,0,4,6.65Z"/></svg>