<svg id="Слой_1" data-name="Слой 1" xmlns="http://www.w3.org/2000/svg" viewBox="0 0 70.29 50"><defs><style>.cls-1{fill:#616160;}.cls-2{fill:#fff;}</style></defs><path class="cls-1" d="M26.16,24.39a13.32,13.32,0,0,1-8.3-3,7.76,7.76,0,0,1-2.77-7.28A3.14,3.14,0,0,0,14.27,11,5.1,5.1,0,0,1,13.19,8.6a3.61,3.61,0,0,1,4-4.25,5.64,5.64,0,0,0,2.15-.41A18.16,18.16,0,0,1,30.11,2.71C31.75,3,33.23,3.79,35,3.94c2.25.21,3.58,3,2.46,5.33a5.81,5.81,0,0,0-.31,4.61c1.07,3.28-.31,5.64-2.87,7.59A13.78,13.78,0,0,1,26.16,24.39Zm-.72-15c-.26-.2-.51-.41-.72-.56C22.11,6.66,19,7.68,18.32,11a7,7,0,0,0,7,8.36,7.83,7.83,0,0,0,7.58-7.23c.21-1.84-.35-3.12-1.74-3.84a3.92,3.92,0,0,0-4.87.41A5.24,5.24,0,0,1,25.44,9.37Z"/><path class="cls-2" d="M25.44,9.37c.31-.25.62-.41.87-.66a3.85,3.85,0,0,1,4.87-.41c1.39.72,2,2,1.74,3.84a7.87,7.87,0,0,1-7.58,7.23,7,7,0,0,1-7-8.36c.71-3.33,3.79-4.35,6.4-2.2A4,4,0,0,0,25.44,9.37Z"/><path class="cls-1" d="M22.37,14.19a.76.76,0,0,1-.57.05A11.3,11.3,0,0,1,20.42,13a1.24,1.24,0,0,1-.26-.61.89.89,0,0,1,.36-1,1,1,0,0,1,1,.16,3.3,3.3,0,0,1,.46.35,2.87,2.87,0,0,0,.2-.35c.26-.62.72-.88,1.18-.72a1.2,1.2,0,0,1,.82,1.38,2.33,2.33,0,0,1-.46.87C23.29,13.42,22.83,13.83,22.37,14.19Z"/><path class="cls-1" d="M30.21,10.66c-.41-.06-.82.25-1,.82a3.06,3.06,0,0,1-.2.3,1.9,1.9,0,0,1-.36-.3,1,1,0,0,0-1.13-.26,1.09,1.09,0,0,0-.31,1.23,1.06,1.06,0,0,0,.21.41,18,18,0,0,0,1.43,1.33c.11.1.41.05.52,0,.56-.46,1.07-.87,1.59-1.38a1.47,1.47,0,0,0,.3-.92A1.36,1.36,0,0,0,30.21,10.66Z"/><path class="cls-1" d="M15,11.68a11.49,11.49,0,0,1,.46,2.56,10.43,10.43,0,0,1-.16,2.57A13.19,13.19,0,0,1,13.76,21a13.21,13.21,0,0,1-1,1.48,14.17,14.17,0,0,1-1.28,1.29c-.21.15-.46.3-.67.46a3,3,0,0,1-.77.41l-.41.15a1.46,1.46,0,0,1-.46.1,6.37,6.37,0,0,1-1.38,0,7.49,7.49,0,0,1-1-.2l-1-.31c-.21-.1-.46-.2-.67-.31a2.62,2.62,0,0,1-.66-.41,6.93,6.93,0,0,1-1.18-1A5.7,5.7,0,0,1,2.68,22l-.46-.61a13.2,13.2,0,0,1-.77-1.33,13,13,0,0,1-.56-1.44A17.94,17.94,0,0,1,0,12.3,13.89,13.89,0,0,1,.33,9.37,11.2,11.2,0,0,1,1.2,6.55c.2-.41.41-.82.61-1.17a6,6,0,0,1,.87-1,7,7,0,0,1,.67-.51c.26-.16.46-.31.72-.46A3.49,3.49,0,0,1,4.89,3a2.52,2.52,0,0,1,.87-.21,4.67,4.67,0,0,1,1.18,0,3.07,3.07,0,0,1,1.18.21,3.08,3.08,0,0,1,1,.25.93.93,0,0,1,.26-.36l.41-.15a2.94,2.94,0,0,1,.66-.05,2.7,2.7,0,0,1,.67.1c.2,0,.46.15.67.21a2.12,2.12,0,0,1,.56.35,2.88,2.88,0,0,1,.31.36.49.49,0,0,1,0,.46l-.1.72L11.4,9.17a1,1,0,0,1-.26.36,3.68,3.68,0,0,0-.41.15,1.52,1.52,0,0,1-.67.05,2.61,2.61,0,0,1-.66-.1A3.54,3.54,0,0,1,8.17,9a1.06,1.06,0,0,1-.36-.57V8.19c0-.1.05-.2.05-.3V7.58a11.9,11.9,0,0,0-.1-1.33A4.53,4.53,0,0,0,7.4,4.91L7,5.12a1.76,1.76,0,0,0-.36.26,2.79,2.79,0,0,0-.77.76A3.47,3.47,0,0,0,5.3,7a1.3,1.3,0,0,0-.21.35.79.79,0,0,1-.2.36,10.07,10.07,0,0,0-.82,2.77,18,18,0,0,0-.21,2.92V14a2.12,2.12,0,0,0,.05.56,19.93,19.93,0,0,0,.41,2.92,14.12,14.12,0,0,0,.93,2.82c.15.36.36.67.51,1a5.24,5.24,0,0,0,.67.88l.25.25c.1.1.21.16.31.26a.15.15,0,0,0,.1.05.17.17,0,0,1,.1.05l.06.05h0a1.71,1.71,0,0,0,.41-.2,1.89,1.89,0,0,0,.36-.26A10.21,10.21,0,0,0,9.4,21.11a6.58,6.58,0,0,0,1-1.49,16.27,16.27,0,0,0,1.13-2.71A13.72,13.72,0,0,0,12,14a13,13,0,0,0-.46-2.87.58.58,0,0,1,0-.41,1.71,1.71,0,0,1,.31-.26,1.26,1.26,0,0,1,.62-.15h.61l.72.15a1.61,1.61,0,0,1,.66.31,2.46,2.46,0,0,1,.47.36C14.88,11.37,15,11.53,15,11.68Z"/><path class="cls-1" d="M50.25,9.17a6.83,6.83,0,0,1-1.44.51,7.54,7.54,0,0,1-1.48.21c-.41,0-.82,0-1.23.1a10.12,10.12,0,0,1-1.23,0l.46.82,2.56,4.82c.46.82.87,1.64,1.33,2.46s.87,1.64,1.34,2.46c.2.41.41.77.61,1.13s.41.76.62,1.12a.59.59,0,0,1,.15.36.46.46,0,0,1-.15.36.57.57,0,0,1-.47.26,1.91,1.91,0,0,1-.51.05,4.26,4.26,0,0,1-1.43-.26,1.63,1.63,0,0,1-.72-.46l-.26-.26a8.19,8.19,0,0,1-.51-1c-.15-.31-.36-.67-.51-1-.41-.82-.87-1.64-1.28-2.41s-.88-1.59-1.29-2.41c-.2-.41-.46-.82-.66-1.18a9,9,0,0,0-.67-1.18c.05.51.05,1.08.05,1.59s0,1.08,0,1.59c.06.82.06,1.64.11,2.46s.05,1.64.1,2.51c0,.36.05.72.05,1a7.74,7.74,0,0,0,0,1.07.46.46,0,0,1-.1.46,1.18,1.18,0,0,0-.26.16,1.37,1.37,0,0,1-.61.15,2.6,2.6,0,0,1-.62-.05,3.23,3.23,0,0,1-1.38-.46,1.86,1.86,0,0,1-.56-.51c0-.06-.06-.11-.06-.16s0-.1,0-.15c0-.21,0-.46,0-.67a3.54,3.54,0,0,0-.05-.72L40,17.52c-.06-1-.11-1.89-.11-2.82s-.1-1.89-.1-2.81c0-.47-.05-1-.05-1.44s0-1,0-1.43h-.31A3.77,3.77,0,0,1,38,8.55a2.14,2.14,0,0,1-.46-.36.65.65,0,0,1-.26-.41.56.56,0,0,1,.05-.41,1.36,1.36,0,0,1,.31-.25A2.1,2.1,0,0,1,38.05,7h.82a.17.17,0,0,0,.1,0,.17.17,0,0,0,.1,0,2.5,2.5,0,0,0,.21-.25c0-.06,0-.11,0-.16s.05-.1.05-.15V5.43A1,1,0,0,1,39.84,5a3,3,0,0,1,.67-.11A4.1,4.1,0,0,1,41.69,5a3,3,0,0,1,1,.56l.26.26.05.1a.38.38,0,0,1,0,.2,1.67,1.67,0,0,1,0,.52,1.77,1.77,0,0,1,0,.51,0,0,0,0,1,0,0c0,.1,0,.26,0,.36v.36c.67,0,1.33-.05,2-.1a4.32,4.32,0,0,1,.87-.11,5.22,5.22,0,0,0,.87-.2l.46-.16a2.62,2.62,0,0,0,.41-.2,2.06,2.06,0,0,0,.47-.46,3,3,0,0,0,.2-.62s-.05-.1-.05-.15a.18.18,0,0,0,0-.15l0-.11a.19.19,0,0,1-.11,0l-.05,0a0,0,0,0,1,0,0,.72.72,0,0,1-.36-.15,1.56,1.56,0,0,0-.51-.11,2.2,2.2,0,0,0-.56-.1C46,5.07,45.48,5,45,5s-1.08-.11-1.64-.16c-.1,0-.26,0-.46,0-.52,0-1,0-1.59,0s-1,0-1.59,0a3.59,3.59,0,0,1-1.44-.31,1.85,1.85,0,0,1-.51-.3,4.24,4.24,0,0,1-.46-.41,1.06,1.06,0,0,1-.15-.41A.46.46,0,0,1,37.28,3a.53.53,0,0,1,.46-.26,2,2,0,0,1,.51,0c1-.05,2-.05,3.08,0,.56,0,1.08,0,1.64.1a15.17,15.17,0,0,1,1.64.16c.56.05,1.08.15,1.64.2s1.08.21,1.59.36a11.46,11.46,0,0,1,1.69.61,5.91,5.91,0,0,1,1.49,1,3,3,0,0,1,.87,1.18,1.11,1.11,0,0,1,.1.56,1.91,1.91,0,0,1-.05.56,2,2,0,0,1-.67,1.18A11.65,11.65,0,0,1,50.25,9.17Z"/><path class="cls-1" d="M68.08,11c0,1.39,0,2.77-.1,4.15a21.94,21.94,0,0,1-.66,4.05,11.29,11.29,0,0,1-.41,1.28,13.51,13.51,0,0,1-.57,1.23c-.2.36-.41.67-.61,1a4.49,4.49,0,0,1-.77.87c-.16.1-.31.26-.46.36l-.47.31a2.19,2.19,0,0,1-.51.25,2.13,2.13,0,0,0-.56.21,9.69,9.69,0,0,1-1.18.2,10.12,10.12,0,0,1-1.23-.05,7.94,7.94,0,0,1-2.46-.72,11.92,11.92,0,0,1-2.2-1.33,8,8,0,0,1-1.49-1.54,3.28,3.28,0,0,1-.51-.71c-.16-.26-.31-.52-.46-.82a6.28,6.28,0,0,1-.41-.93c-.11-.3-.21-.61-.31-1a9.76,9.76,0,0,1-.21-1.69,5.51,5.51,0,0,1,.21-1.64,6.45,6.45,0,0,1,1.54-2.87,10.2,10.2,0,0,1,.87-.87,5.81,5.81,0,0,1,1-.72c-.1,0-.26-.05-.36-.05a1.43,1.43,0,0,1-.36-.1c-.3-.11-.66-.21-1.07-.36l-.62-.31c-.2-.1-.36-.26-.56-.36A2.67,2.67,0,0,1,52,7.27a4,4,0,0,1-.1-.77V6A1.77,1.77,0,0,1,52,5.48a2.43,2.43,0,0,1,.62-1.13,4.72,4.72,0,0,1,1-.77,5.91,5.91,0,0,1,1.59-.51,9.21,9.21,0,0,1,1.64-.21c.56,0,1.08,0,1.64,0s1.13,0,1.64,0c1.13.06,2.25.21,3.33.36l.72.16a1.94,1.94,0,0,1,.66.3,3.11,3.11,0,0,1,.41.31c.16.16.26.26.26.46s0,.36-.1.46a.93.93,0,0,1-.46.26,2.2,2.2,0,0,1-.57,0,1.16,1.16,0,0,1-.46,0,21.94,21.94,0,0,0-3.18-.36c-.41,0-.87,0-1.28,0a11,11,0,0,0-1.28,0,8.24,8.24,0,0,0-1.28.26l-.36.15a2.87,2.87,0,0,0-.36.21,1.72,1.72,0,0,0-.41.46,2.33,2.33,0,0,0-.2,1,2.22,2.22,0,0,0,.15.87l.1.21h.11a2.12,2.12,0,0,0,.56,0,2.6,2.6,0,0,1,.62.05c.46,0,.92.05,1.43.05s1,0,1.44,0c.25,0,.51.06.76.06a2.51,2.51,0,0,1,.67.2c.21.1.36.21.56.31a1.27,1.27,0,0,1,.47.41c.1.1.1.26.15.41a.48.48,0,0,1-.15.36,1,1,0,0,1-.57.25,12.16,12.16,0,0,0-2.71,1.39,5.77,5.77,0,0,0-1.23,1.07,7.88,7.88,0,0,0-1,1.29,7.27,7.27,0,0,0-.56,1.38,6.42,6.42,0,0,0-.21,1.43,6.36,6.36,0,0,0,.62,2.72,8.54,8.54,0,0,0,1.18,1.79c.3.31.61.57.92.88a1.09,1.09,0,0,1,.25.15c.11.05.16.1.26.15s.1,0,.15,0,.11.06.16.06h.41s.15-.06.36-.11a4,4,0,0,0,.71-.36,2.66,2.66,0,0,0,.77-.76,9.45,9.45,0,0,0,.62-.88,9.84,9.84,0,0,0,.82-1.94,16.33,16.33,0,0,0,.77-3.85c.1-1.28.15-2.61.15-3.89v-.51a.51.51,0,0,1,.15-.52c.06,0,.11-.05.26-.15a1.21,1.21,0,0,1,.56-.15,2.6,2.6,0,0,1,.62.05,3.1,3.1,0,0,1,1.38.46,1.89,1.89,0,0,1,.57.51c0,.05,0,.1,0,.15C68,10.86,68.08,10.91,68.08,11Z"/><path class="cls-1" d="M14.83,34.59a10.55,10.55,0,0,1,.46,2.51,8.53,8.53,0,0,1-.2,2.51,12.48,12.48,0,0,1-1.54,4.1,6.39,6.39,0,0,1-1,1.44,9.46,9.46,0,0,1-1.29,1.23c-.2.15-.46.31-.66.46a1.86,1.86,0,0,1-.72.31,1.36,1.36,0,0,0-.41.15,2,2,0,0,0-.46.16,6.37,6.37,0,0,1-1.38,0c-.31-.06-.67-.16-1-.21a6.06,6.06,0,0,1-1-.31,3.94,3.94,0,0,0-.67-.3c-.2-.16-.46-.26-.66-.41a7.45,7.45,0,0,1-1.18-1,4.77,4.77,0,0,0-.52-.56c-.15-.21-.3-.41-.46-.67a10.52,10.52,0,0,1-.71-1.28A7.57,7.57,0,0,1,1,41.3a21.66,21.66,0,0,1-.71-3A20.3,20.3,0,0,1,.07,35.1a25.5,25.5,0,0,1,.26-2.87,13.62,13.62,0,0,1,.82-2.71c.2-.41.41-.77.66-1.18a4.3,4.3,0,0,1,.82-1,3,3,0,0,1,.67-.51c.2-.15.46-.26.72-.46s.51-.26.77-.41a1.64,1.64,0,0,1,.82-.21,9.16,9.16,0,0,1,1.17-.05,2.32,2.32,0,0,1,1.08.21c.31.15.67.25,1,.41A.55.55,0,0,1,9.09,26c.15-.05.26-.15.41-.15a1.52,1.52,0,0,1,.67,0,1.58,1.58,0,0,1,.66.15c.21,0,.46.15.67.21a.77.77,0,0,1,.51.41,1,1,0,0,1,.26.3c.05.16.15.26.05.47l-.2.66-1.18,4.26a.56.56,0,0,1-.26.3c-.15,0-.26.16-.41.16a3,3,0,0,1-.67.05,1.46,1.46,0,0,1-.66-.16,3.2,3.2,0,0,1-1.23-.56,1,1,0,0,1-.31-.51v-.87a11,11,0,0,0-.05-1.28A12.08,12.08,0,0,0,7,28.18c-.15.06-.26.16-.41.21a1.56,1.56,0,0,0-.41.26,10,10,0,0,0-.77.71,5.78,5.78,0,0,0-.66.82c-.06.16-.16.26-.21.41s-.15.26-.2.41a7.92,7.92,0,0,0-.77,2.72,16.94,16.94,0,0,0-.21,2.87v1a17.88,17.88,0,0,0,.41,2.87,11.46,11.46,0,0,0,.92,2.72,8.28,8.28,0,0,0,.52,1,4.84,4.84,0,0,0,.66.82c0,.06.21.16.26.26a1.59,1.59,0,0,1,.26.26c.05.05.05.05.15.05s0,0,.15,0H7c.15,0,.26-.15.41-.21a.54.54,0,0,0,.31-.25A5.71,5.71,0,0,0,9,44a8.36,8.36,0,0,0,1-1.44,11.41,11.41,0,0,0,1.08-2.66,13.24,13.24,0,0,0,.46-2.77,11.88,11.88,0,0,0-.46-2.77.6.6,0,0,1,.05-.41c0-.15.21-.2.31-.25a1.4,1.4,0,0,1,.56-.21h.57a1.75,1.75,0,0,1,.71.21A3.11,3.11,0,0,1,14,34a2.41,2.41,0,0,0,.46.3C14.73,34.28,14.83,34.39,14.83,34.59Z"/><path class="cls-1" d="M26.88,34.33a19.24,19.24,0,0,1,.2,2.93c0,1,.05,1.94.05,2.92v2.3c0,.77-.05,1.54-.05,2.31,0,.31,0,.67,0,1s-.05.67-.05,1c0,.15-.16.25-.26.31s-.31.15-.46.15a4.4,4.4,0,0,1-1.38-.05c-.21,0-.46-.16-.67-.21a.8.8,0,0,1-.51-.41.6.6,0,0,1-.31-.51v-.26a6.24,6.24,0,0,0,.05-1,6.24,6.24,0,0,1,0-1v-.21c.05-1.43.05-2.92.05-4.36v-.51c0-1,0-1.89-.05-2.77s-.15-1.89-.25-2.76V32.8H19.5a8.29,8.29,0,0,0-.26,1.69c0,.56-.15,1.07-.21,1.69v.31c-.15,1.69-.2,3.38-.2,5.07V43.2c0,.51,0,1.08.05,1.64,0,.31.05.67.05,1s.05.66.05,1a.42.42,0,0,1-.15.46,1.23,1.23,0,0,1-.26.21,3.16,3.16,0,0,1-.56.15h-.56a3.46,3.46,0,0,1-1.39-.46,2.81,2.81,0,0,1-.56-.46s-.05,0-.05-.16,0-.05,0-.15h0l-.21-2.31c0-.82-.15-1.64-.2-2.46s-.16-1.64-.21-2.46-.15-1.95-.2-2.87-.16-2-.21-2.87c0-.72,0-1.43-.15-2.15s-.05-1.44-.16-2.15v-.05H13.6c-.15,0-.25-.06-.46-.06a3.34,3.34,0,0,1-1.23-.56,1.24,1.24,0,0,1-.26-.31.46.46,0,0,1-.05-.46.58.58,0,0,1,.26-.31c.15-.05.26-.15.41-.2a.91.91,0,0,0,.46-.16,1.65,1.65,0,0,0,.46-.15c.16-.05.26-.15.41-.2s.21-.06.26-.16a.46.46,0,0,0,.25-.15c.06-.16.06-.21.16-.31a1.48,1.48,0,0,1,.25-.26c.16-.15.31-.15.57-.2a2.73,2.73,0,0,1,.66.05,3.09,3.09,0,0,1,.67.15,3.18,3.18,0,0,1,.67.31.81.81,0,0,0,.41.26c.15.05.2.2.3.41A2.36,2.36,0,0,1,19,25.93a3.89,3.89,0,0,1,1.54-.31,5.11,5.11,0,0,1,1.54.21c.25.05.51.2.77.25s.51.26.71.41.41.31.57.46a5.05,5.05,0,0,1,.51.52,2,2,0,0,1,.56.92,9.53,9.53,0,0,1,.47,1c.15.31.2.67.3.93s.21.66.26.92l.2.2.21.21a.47.47,0,0,1,.15.41.33.33,0,0,1-.15.31l-.15.15a7,7,0,0,0,.15.92A1.75,1.75,0,0,1,26.88,34.33Zm-6.62-3.58h2.57a9.58,9.58,0,0,1-.31-1.08c-.15-.31-.26-.72-.41-1a2.71,2.71,0,0,0-.46-.77h0a8.22,8.22,0,0,0-.93,1c-.15.31-.3.57-.46.92a3.68,3.68,0,0,0-.3,1h.2C20.21,30.75,20.21,30.75,20.26,30.75Z"/><path class="cls-1" d="M37.23,32.08a6.83,6.83,0,0,1-1.44.51,4.53,4.53,0,0,1-1.48.21,9.52,9.52,0,0,0-1.18.15c-.41,0-.77,0-1.18,0l.46.77,2.46,4.66c.46.77.82,1.64,1.28,2.41s.82,1.64,1.28,2.41c.21.41.41.72.57,1.08s.41.72.56,1.07c0,.16.16.26.16.42s0,.25-.16.3a.77.77,0,0,1-.46.26,2.14,2.14,0,0,1-.51,0,3,3,0,0,1-1.39-.26,3.09,3.09,0,0,1-.71-.46l-.26-.25c-.2-.31-.31-.67-.51-.93s-.31-.66-.51-1L33,41.25c-.47-.77-.82-1.53-1.23-2.3-.21-.41-.47-.77-.67-1.18s-.41-.77-.67-1.18c.05.51.05,1,.05,1.54s.06,1,.06,1.53c.05.77.05,1.64.15,2.41a19.49,19.49,0,0,0,.15,2.41c0,.31.05.67.05,1a5.76,5.76,0,0,0,.06,1,.4.4,0,0,1-.16.46c-.15.06-.2.06-.25.16a1.63,1.63,0,0,1-.57.2,2,2,0,0,1-.56-.05A3.1,3.1,0,0,1,28,46.84a1.4,1.4,0,0,1-.56-.51s-.05,0-.05-.16-.05-.05-.05-.15V44.64l-.21-4.41c-.05-.92-.05-1.8-.15-2.72s-.05-1.79-.16-2.71c0-.47-.05-1-.05-1.44s-.05-1-.05-1.43h-.25a3.76,3.76,0,0,1-1.39-.47,2.41,2.41,0,0,0-.46-.3,1.12,1.12,0,0,1-.26-.41.54.54,0,0,1,.06-.41c0-.16.2-.21.3-.26a1.76,1.76,0,0,1,.46-.15h.72c.05,0,.05-.05.16-.05s.05-.06.15-.06.2-.2.2-.25.06-.05.06-.16v-1h0a.68.68,0,0,1,.46-.46,3.14,3.14,0,0,1,.66-.15,3.26,3.26,0,0,1,1.18.2,3.58,3.58,0,0,1,1,.51l.25.26.05.05a.27.27,0,0,1,.06.21,1.57,1.57,0,0,1,.05.51v.51h0v.82c.66,0,1.28,0,1.94,0a4.55,4.55,0,0,0,.82-.15c.26-.06.57-.16.82-.21a1,1,0,0,0,.47-.2c.15-.06.25-.16.41-.21a5,5,0,0,0,.46-.46,1.59,1.59,0,0,0,.2-.56v-.21a.3.3,0,0,0-.05-.2l0-.16a0,0,0,0,1,0,0l0,.1a0,0,0,0,1,0-.05.57.57,0,0,1-.31-.15,2.24,2.24,0,0,1-.51-.16A1.86,1.86,0,0,1,33.8,28a5.48,5.48,0,0,0-1.54-.2c-.51-.06-1-.06-1.54-.16h-.46c-.51,0-1-.05-1.49-.05a14.15,14.15,0,0,0-1.48.05,4.91,4.91,0,0,1-1.44-.31c-.2-.05-.31-.2-.51-.25s-.31-.26-.46-.41-.16-.26-.16-.41a.3.3,0,0,1,.16-.31.82.82,0,0,1,.46-.26,2.14,2.14,0,0,1,.51,0,29.42,29.42,0,0,1,3,0c.52,0,1,0,1.64.16A9.89,9.89,0,0,1,32.1,26c.52.05,1,.15,1.54.2a6.28,6.28,0,0,1,1.54.41,10.65,10.65,0,0,1,1.64.57,4.22,4.22,0,0,1,1.43.92,2.85,2.85,0,0,1,.82,1.08,2.56,2.56,0,0,1,.16.56,2,2,0,0,1,0,.57,1.94,1.94,0,0,1-.67,1.07A7.91,7.91,0,0,1,37.23,32.08Z"/><path class="cls-1" d="M54.45,33.62a13.07,13.07,0,0,1-.2,2.41c-.16.92-.26,1.79-.47,2.66a9.62,9.62,0,0,1-.92,2.51c-.2.46-.46.92-.66,1.28s-.52.82-.82,1.23a10.53,10.53,0,0,1-2.26,2,9.35,9.35,0,0,1-3.28,1.44,12.82,12.82,0,0,1-3.64.31c-.26,0-.51-.06-.72-.06s-.46-.15-.66-.2-.31-.21-.52-.26a3.72,3.72,0,0,1-.46-.41c-.05-.15-.15-.25-.15-.41a.3.3,0,0,1,.15-.3.83.83,0,0,1,.46-.26,2.22,2.22,0,0,1,.52-.05H41v-.62c0-.72,0-1.43,0-2.15s-.05-1.44-.05-2.05l-.21-5.64V33a3.1,3.1,0,0,1-1.74-.72,1.45,1.45,0,0,1-.26-.3.47.47,0,0,1,0-.46.52.52,0,0,1,.26-.31,4.09,4.09,0,0,1,.46-.21h.1a7.1,7.1,0,0,1,.67-.3.51.51,0,0,0,.26-.26c0-.05.15-.21.2-.26a.22.22,0,0,0,0-.15,3.15,3.15,0,0,1,0-1v-.31c0-.16,0-.21.16-.26a1.14,1.14,0,0,1,.92-.31,3.08,3.08,0,0,1,1,.16,2.73,2.73,0,0,1,.93.41,1.88,1.88,0,0,1,.66.77v.05a3.16,3.16,0,0,1,0,1c0,.05,0,.16,0,.21s0,.15,0,.2c0,.51,0,1,0,1.49v1.48c0,.93,0,1.8,0,2.72s.05,1.79.05,2.72,0,1.64,0,2.46.06,1.64.06,2.41v.82c.3-.16.66-.26.92-.41a4.57,4.57,0,0,0,.82-.52,11.4,11.4,0,0,0,1.43-1.28,8.6,8.6,0,0,0,1.18-1.54c.31-.66.67-1.28.93-2a11.46,11.46,0,0,0,.56-2.16,22.94,22.94,0,0,0,.41-2.46c0-.82.15-1.69.15-2.46V30.7c0-.26,0-.47,0-.72a1.06,1.06,0,0,0-.2-.67.58.58,0,0,0-.26-.31,1,1,0,0,0-.26-.2c.16-.15.06-.15.06-.15s-.06-.06-.16-.06l-.46-.2a1.65,1.65,0,0,1-.46-.15,1,1,0,0,1-.46-.16c-.31,0-.72-.15-1-.2a3.24,3.24,0,0,1-1-.16H45.22a24,24,0,0,0-3.48.21h-.21a2.27,2.27,0,0,1-1.17-.16c-.21-.05-.47-.15-.67-.2a.8.8,0,0,1-.51-.41,1.15,1.15,0,0,1-.26-.31.47.47,0,0,1-.05-.46.51.51,0,0,1,.26-.31c.15,0,.25-.15.41-.2l1-.05c.77-.06,1.49-.16,2.2-.16H45c.51,0,1,0,1.64,0s1,.16,1.54.21a14.39,14.39,0,0,1,1.69.41c.51.2,1.07.31,1.64.56.25.16.56.31.82.46a4.11,4.11,0,0,1,.77.57,4,4,0,0,1,.46.46c.15.2.25.31.41.51a1.8,1.8,0,0,1,.25.57,2.2,2.2,0,0,1,.16.66l0,.92C54.45,32,54.45,32.85,54.45,33.62Z"/><path class="cls-1" d="M68.39,29a.62.62,0,0,1,.16.52,1.92,1.92,0,0,1-.16.41,1.47,1.47,0,0,1-.15.41c-.21.71-.46,1.38-.67,2a19.54,19.54,0,0,1-.67,2c-.3.93-.56,1.8-.92,2.77s-.56,1.79-.82,2.77l-.77,2.46-.77,2.46a2.24,2.24,0,0,0-.25.77,5,5,0,0,1-.26.77.57.57,0,0,1-.15.3.35.35,0,0,1-.16.31c-.1.1-.15.26-.25.31s-.26.15-.41.2-.31.06-.46.06h-.41A3.23,3.23,0,0,1,59.88,47a4.15,4.15,0,0,1-.51-.46.49.49,0,0,0-.26-.3.51.51,0,0,0-.25-.31c-.46-.67-.82-1.28-1.28-2s-.82-1.28-1.28-2l-1.54-2.31-1.54-2.3a10.09,10.09,0,0,0-.77-1.08c-.25-.41-.51-.77-.72-1.18-.15-.15-.15-.2-.15-.3a.31.31,0,0,1,.15-.31.82.82,0,0,1,.47-.26c.2,0,.3,0,.51,0s.31,0,.51,0h.51c.77-.05,1.49-.15,2.21-.21s1.48-.15,2.2-.15a3.74,3.74,0,0,1,.72,0c.25,0,.46.16.72.21s.3.2.51.3a4.9,4.9,0,0,1,.46.41.51.51,0,0,1,0,.72.8.8,0,0,1-.46.26,1.8,1.8,0,0,1-.51.05c-.21,0-.31,0-.52,0a1.8,1.8,0,0,0-.51,0,2,2,0,0,0-1.28-.2,7.12,7.12,0,0,0-1.44.15c.41.56.77,1.23,1.18,1.79s.77,1.23,1.18,1.8.72,1.07,1.08,1.64.72,1.07,1,1.64a2.44,2.44,0,0,0,.26-.82c.05-.31.2-.57.26-.92.3-.93.56-1.8.92-2.77s.56-1.8.82-2.77c.15-.51.31-1,.46-1.49s.31-1,.46-1.48c-.51.15-1,.25-1.54.41s-1,.15-1.53.2a9.36,9.36,0,0,1-2,0c-.41,0-.77-.15-1.18-.2A8.56,8.56,0,0,0,56,32.49c-.31-.15-.67-.26-1-.41s-.56-.41-.82-.56a1.68,1.68,0,0,1-.51-.52,3.11,3.11,0,0,1-.41-.56,2.92,2.92,0,0,1-.41-1.38,3.44,3.44,0,0,1,0-.72,1.1,1.1,0,0,1,.21-.67c.05-.15.15-.2.2-.31a.55.55,0,0,1,.21-.25.91.91,0,0,1,.31-.26c.15-.05.2-.15.3-.2a1.45,1.45,0,0,1,.67-.26c.2-.05.46-.15.67-.21A5.3,5.3,0,0,1,57,26a8,8,0,0,1,1.54.15,19.9,19.9,0,0,1,4,1c.15.05.25.15.46.21s.31.2.46.3a1,1,0,0,1,.26.46c0,.16,0,.26-.16.47a.81.81,0,0,1-.46.25,2.14,2.14,0,0,1-.51.05,3.49,3.49,0,0,1-.72-.05c-.26,0-.46-.15-.67-.2a.25.25,0,0,0-.15-.05,2.37,2.37,0,0,0-.82-.26c-.26-.05-.56-.15-.82-.21a1.61,1.61,0,0,0-.51-.05,1.73,1.73,0,0,1-.51-.05h-.57l-.31.05a.34.34,0,0,0-.3.16c-.16.15-.26.2-.31.3a1.71,1.71,0,0,0-.21.93c0,.15.06.25.06.41s0,.25,0,.41l.2.25a0,0,0,0,1,0,.05l.05.06c.06,0,.06.05.16.05a.3.3,0,0,0,.2.05s.16.05.21.05a.3.3,0,0,1,.2,0c.16,0,.21.05.31.05a.58.58,0,0,1,.31.05H59a1.42,1.42,0,0,0,.51-.05,5.17,5.17,0,0,0,.93-.15,9.56,9.56,0,0,0,.92-.26A8,8,0,0,0,62.75,30c.46-.21.82-.46,1.28-.72a5.16,5.16,0,0,0,.67-.51,5.79,5.79,0,0,0,.56-.51.82.82,0,0,1,.47-.26,1.73,1.73,0,0,1,.51-.05,4.91,4.91,0,0,1,1.43.31c.21.05.31.2.52.25C68.14,28.65,68.24,28.75,68.39,29Z"/></svg>