<svg id="Слой_1" data-name="Слой 1" xmlns="http://www.w3.org/2000/svg" viewBox="0 0 90.81 50"><path d="M14.47,12.8a11.64,11.64,0,0,0-3.06-1.41A9.46,9.46,0,0,0,8.71,11a5.83,5.83,0,0,0-1.38.14,5.78,5.78,0,0,0-1.16.36,3.71,3.71,0,0,0-.88.52,2.6,2.6,0,0,0-.56.59,2.29,2.29,0,0,0-.4,1.18,5,5,0,0,0,.16.86c.11.41.54.85,1.3,1.34A10.17,10.17,0,0,0,9,17.17a23.25,23.25,0,0,0,5.2.47h.25v7.68h-6a7.08,7.08,0,0,1-2.6-.62A6.81,6.81,0,0,1,3.57,23a8.4,8.4,0,0,1-1.65-2.81,11.47,11.47,0,0,1-.64-4.06,13,13,0,0,1,.23-2.41,13.56,13.56,0,0,1,.7-2.41A11.07,11.07,0,0,1,3.36,9.16,8.52,8.52,0,0,1,5,7.37,7.39,7.39,0,0,1,7,6.16a6.69,6.69,0,0,1,2.46-.44h5Z"/><path d="M15.45,5.71H23.1V9.46a6.8,6.8,0,0,0,.11.77,5.44,5.44,0,0,0,.33,1.13,3.16,3.16,0,0,0,.72,1,1.75,1.75,0,0,0,1.24.44,2.57,2.57,0,0,0,1.61-.44,2.78,2.78,0,0,0,.79-1,3.2,3.2,0,0,0,.29-1.13c0-.36,0-.62,0-.78V5.71h4V9.08a6.18,6.18,0,0,1-2.73,5.2c-.42.28-.79.52-1.1.74l-.86.58v9.71H19.85V15.39l-.72-.47-.88-.59a6.05,6.05,0,0,1-2.08-2.27,6.37,6.37,0,0,1-.72-3Z"/><path d="M33.17,5.71H37a4,4,0,0,1,1.91.39A3.63,3.63,0,0,1,40.2,7.23,8.92,8.92,0,0,1,41.14,9c.28.71.62,1.49,1,2.35a5.46,5.46,0,0,0,1.31,2,1.6,1.6,0,0,0,1.18.52.88.88,0,0,0,.7-.47,2,2,0,0,0,.27-1.07V5.71H64.09v3.8H49.54V25.32H46.72a2.38,2.38,0,0,1-1.47-.5A5.45,5.45,0,0,1,44,23.49a11.47,11.47,0,0,1-1-1.87c-.32-.7-.62-1.42-.91-2.14s-.55-1.44-.8-2.12-.5-1.28-.75-1.8a5.9,5.9,0,0,0-.72-1.24A.79.79,0,0,0,39,14a.33.33,0,0,0-.26.32,2.12,2.12,0,0,0,0,.71,6,6,0,0,0,.17.94c.09.33.18.66.28,1s.19.6.28.86.17.47.22.59c.18.53.33.94.44,1.3a7.51,7.51,0,0,1,.25.93,4.19,4.19,0,0,1,.11.78c0,.25,0,.54,0,.88s0,.76,0,1.25v1.88H33.17ZM50.72,25.32V10.71H64.05v2.77H62a11.56,11.56,0,0,0-1.31,0,8,8,0,0,0-1.19.18,2.61,2.61,0,0,0-.85.34.57.57,0,0,0-.28.57,1.46,1.46,0,0,0,.12.5,1.06,1.06,0,0,0,.32.43,1.93,1.93,0,0,0,.62.32,3.77,3.77,0,0,0,1,.14h1.28v1.85h-.21a.67.67,0,0,1-.2,0h-1a3.11,3.11,0,0,0-1.25.14,1.38,1.38,0,0,0-.64.42.76.76,0,0,0-.17.52.56.56,0,0,0,.18.41,1.21,1.21,0,0,0,.86.32h4.77v5.65Z"/><path d="M65,25.32V5.71H80.35V9.46l-1,0H78c-.6,0-1.22,0-1.85.06a12.15,12.15,0,0,0-1.7.21,4.13,4.13,0,0,0-1.24.47.89.89,0,0,0-.47.73V11a2.26,2.26,0,0,0,.16.67,1.66,1.66,0,0,0,.44.58,2.37,2.37,0,0,0,.83.4,5.09,5.09,0,0,0,1.34.18h1.67v2.49h-.27l-.28,0H76a5.08,5.08,0,0,1-.67,0H75a3,3,0,0,0-1.72.37,1.24,1.24,0,0,0-.58,1v8.74Z"/><path d="M88.83,5.67v4a6,6,0,0,1-.16.94,7.7,7.7,0,0,1-.32,1c-.13.35-.29.75-.46,1.21s-.42,1-.66,1.69a2.53,2.53,0,0,0-.18.94,1.89,1.89,0,0,0,.08.58,8.42,8.42,0,0,0,.47,1.39l.55,1.27a12.31,12.31,0,0,1,.47,1.28,5.88,5.88,0,0,1,.25,1.44c0,.47,0,1,0,1.58s0,1.41,0,2.41H81.36V21.11a5.42,5.42,0,0,1,.26-1.32c.14-.41.3-.82.47-1.22s.35-.8.52-1.22A8.55,8.55,0,0,0,83.06,16a2.43,2.43,0,0,0,0-.6,2.5,2.5,0,0,0-.18-.94c-.24-.63-.47-1.17-.64-1.61s-.35-.85-.49-1.2-.23-.62-.33-.93a5.22,5.22,0,0,1-.15-.88V5.65Z"/><path d="M1.66,26.44h10a5.87,5.87,0,0,1,2.67.55,5.41,5.41,0,0,1,1.84,1.45,5.69,5.69,0,0,1,1,2,7.54,7.54,0,0,1,.24,2.94,6.39,6.39,0,0,1-.47,1.84,6.91,6.91,0,0,1-1.18,2.08,5.82,5.82,0,0,1-1.88,1.46,5.62,5.62,0,0,1-2.49.55,7.57,7.57,0,0,1-1.25-.2.34.34,0,0,0-.14,0l-.12,0v8.58H1.66Zm8.76,5.39a.76.76,0,0,0,0,.21v.22a3.23,3.23,0,0,0,.32,1.52,2.44,2.44,0,0,0,.43.53,1,1,0,0,0,.63.23,1.07,1.07,0,0,0,.64-.21,1.92,1.92,0,0,0,.71-1,5.19,5.19,0,0,0,.26-1.23v-.41a3.2,3.2,0,0,0-.32-1.52,2.27,2.27,0,0,0-.43-.55,1,1,0,0,0-.63-.23,1.19,1.19,0,0,0-.63.19,2,2,0,0,0-.71,1A5.33,5.33,0,0,0,10.42,31.83Z"/><path d="M26.64,26.48v8.24a19.12,19.12,0,0,0,.16,2.51,3.57,3.57,0,0,0,.52,1.54,1.24,1.24,0,0,0,1.09.53,1.15,1.15,0,0,0,1-.6A4.52,4.52,0,0,0,30,37.23a12,12,0,0,0,.27-1.88q.06-1,.06-1.83v-7h4v14.6a5.78,5.78,0,0,1-.67,2.82,6.48,6.48,0,0,1-1.79,2,8.14,8.14,0,0,1-2.52,1.25,10.8,10.8,0,0,1-2.88.44h-.37a10.69,10.69,0,0,1-2.81-.43A7.69,7.69,0,0,1,20.87,46a5.82,5.82,0,0,1-1.71-2,5.65,5.65,0,0,1-.65-2.77V26.48Z"/><path d="M35.38,47.59V43.86A5.6,5.6,0,0,1,36,41.32a11.81,11.81,0,0,1,1.46-2.24,22.47,22.47,0,0,1,1.88-2c.68-.65,1.31-1.27,1.88-1.88a12.54,12.54,0,0,0,1.46-1.79,3.2,3.2,0,0,0,.58-1.77A.75.75,0,0,0,42.9,31a2.31,2.31,0,0,0-.84-.35,7.6,7.6,0,0,0-1.27-.16c-.47,0-1,0-1.52,0H35.55v-4H49.91v3.75a.54.54,0,0,1,0,.15l-.06.17-.09.2-4,5a1.46,1.46,0,0,0-.16.19,1.29,1.29,0,0,1-.16.17h0a8.33,8.33,0,0,0-.91,1.29A2.91,2.91,0,0,0,44,38.85a.86.86,0,0,0,.19.58.67.67,0,0,0,.53.23,7.54,7.54,0,0,0,.83-.06l1.18-.13L48,39.34c.43,0,.82-.06,1.15-.06h1.87v8.31Z"/><path d="M52.15,47.59V43.86a5.74,5.74,0,0,1,.59-2.54,10.91,10.91,0,0,1,1.46-2.24,22.36,22.36,0,0,1,1.87-2c.68-.65,1.31-1.27,1.88-1.88a12.54,12.54,0,0,0,1.46-1.79A3.2,3.2,0,0,0,60,31.62a.75.75,0,0,0-.32-.64,2.38,2.38,0,0,0-.87-.35,6,6,0,0,0-1.26-.16c-.47,0-1,0-1.53,0H52.29v-4H66.65v3.75a.54.54,0,0,1,0,.15.49.49,0,0,1-.06.17l-.09.2-4,5a1.46,1.46,0,0,0-.16.19l-.16.17h0a7.7,7.7,0,0,0-.91,1.29,2.92,2.92,0,0,0-.43,1.46.93.93,0,0,0,.2.58.66.66,0,0,0,.53.23,7.54,7.54,0,0,0,.83-.06l1.18-.13,1.26-.11c.43,0,.82-.06,1.15-.06h1.87v8.29Z"/><path d="M76,26.44v3.07c0,.46,0,.89-.07,1.33a3.11,3.11,0,0,1-.47,1.41,15.59,15.59,0,0,0-1.1,2.34,17.67,17.67,0,0,0-.77,2.54,14.48,14.48,0,0,0-.36,2.45,7.59,7.59,0,0,0,.16,2.07,3.14,3.14,0,0,0,.76,1.44,2,2,0,0,0,1.48.52,4.92,4.92,0,0,0,4-1.74,4.75,4.75,0,0,0,.83-1.45,3.72,3.72,0,0,0,.25-1.18h8v8.35H68.93V26.44Zm1.36,12V26.44H88.59v2.11h-1.1a11.08,11.08,0,0,0-1.41.05,5.17,5.17,0,0,0-1.22.24c-.35.12-.51.31-.47.58a1.06,1.06,0,0,0,.32.71,1.72,1.72,0,0,0,1.18.33h1v1.41h-.65a1.17,1.17,0,0,1-.37,0,2.7,2.7,0,0,0-.94.11,1,1,0,0,0-.47.32.6.6,0,0,0-.11.39.52.52,0,0,0,.12.31.9.9,0,0,0,.66.25h3.51v5.18Z"/><path d="M30.87,8.2V6.86a.31.31,0,0,1,.33.28s0,0,0,.06c0,.18,0,.37,0,.55S31.19,8.1,30.87,8.2Z"/><path d="M19,6.86v1.3c-.21,0-.32-.07-.36-.3a3.42,3.42,0,0,1,0-.64.34.34,0,0,1,.31-.36A0,0,0,0,1,19,6.86Z"/><path d="M30.54,7.56v.62c0,.09,0,.22-.08.23s-.11-.14-.11-.23V6.93a.21.21,0,0,1,0-.11c0-.08-.07-.21.06-.22s.09.14.1.22v.74Z"/><path d="M19.35,7.48V6.74s0-.14.07-.14.08.07.08.12a7.92,7.92,0,0,1,0,1.54c0,.06,0,.09-.08.08s-.05-.06-.05-.1V7.48Z"/><path d="M20.25,5.87a.1.1,0,0,1,0,.13h0C20.22,6,20.17,5.89,20.25,5.87Z"/></svg>