<svg id="Слой_1" data-name="Слой 1" xmlns="http://www.w3.org/2000/svg" viewBox="0 0 95.76 50"><defs><style>.cls-1{fill:#616160;}</style></defs><path class="cls-1" d="M1.85,10.89a.69.69,0,0,1-.5-.21.69.69,0,0,1,0-1,.66.66,0,0,1,.5-.22.67.67,0,0,1,.51.22.71.71,0,0,1,0,1A.69.69,0,0,1,1.85,10.89Zm0,1.8a.66.66,0,0,1-.5-.22.63.63,0,0,1-.22-.5.67.67,0,0,1,.22-.51.71.71,0,0,1,1,0,.69.69,0,0,1,.21.51.66.66,0,0,1-.21.5A.67.67,0,0,1,1.85,12.69Zm0,1.79a.69.69,0,0,1-.5-.21.67.67,0,0,1-.22-.51.7.7,0,0,1,.22-.51.71.71,0,0,1,1,0,.73.73,0,0,1,.21.51.72.72,0,0,1-.72.72Zm0,1.8a.7.7,0,0,1-.5-.22.63.63,0,0,1-.22-.5.67.67,0,0,1,.22-.51.71.71,0,0,1,1,0,.69.69,0,0,1,.21.51.66.66,0,0,1-.21.5A.7.7,0,0,1,1.85,16.28Zm0,1.79a.69.69,0,0,1-.5-.21.67.67,0,0,1-.22-.51.68.68,0,0,1,.22-.51.71.71,0,0,1,1,0,.71.71,0,0,1,.21.51.72.72,0,0,1-.72.72Zm0,1.79a.69.69,0,0,1-.5-.21.65.65,0,0,1-.22-.5.67.67,0,0,1,.22-.51.71.71,0,0,1,1,0,.69.69,0,0,1,.21.51.67.67,0,0,1-.21.5A.69.69,0,0,1,1.85,19.86Zm0,1.8a.69.69,0,0,1-.5-.21.67.67,0,0,1-.22-.51.68.68,0,0,1,.22-.51.74.74,0,0,1,1,0,.71.71,0,0,1,.21.51.72.72,0,0,1-.72.72Zm0,1.79a.72.72,0,0,1-.5-.2.7.7,0,0,1,0-1,.71.71,0,0,1,1,0,.72.72,0,0,1,0,1A.73.73,0,0,1,1.85,23.45Zm0,1.8a.69.69,0,0,1-.5-.21.7.7,0,0,1,0-1,.68.68,0,0,1,.5-.2.69.69,0,0,1,.51.2.72.72,0,0,1-.51,1.23Zm1.8-14.36a.71.71,0,0,1-.51-1.22.67.67,0,0,1,.51-.22.63.63,0,0,1,.5.22.69.69,0,0,1,0,1A.66.66,0,0,1,3.65,10.89Zm0,14.36A.72.72,0,0,1,3.14,24a.69.69,0,0,1,.51-.2.65.65,0,0,1,.5.2.7.7,0,0,1,0,1A.66.66,0,0,1,3.65,25.25ZM5.44,10.89a.69.69,0,0,1-.5-.21.73.73,0,0,1,.5-1.23A.67.67,0,0,1,6,9.67a.72.72,0,0,1-.51,1.22Zm0,14.36a.69.69,0,0,1-.5-.21.7.7,0,0,1,0-1,.68.68,0,0,1,.5-.2A.69.69,0,0,1,6,24a.72.72,0,0,1-.51,1.23Zm1.8-14.36a.71.71,0,0,1-.51-1.22.67.67,0,0,1,.51-.22.63.63,0,0,1,.5.22.72.72,0,0,1-.5,1.22Zm0,14.36A.72.72,0,0,1,6.73,24a.69.69,0,0,1,.51-.2.65.65,0,0,1,.5.2.7.7,0,0,1,0,1A.66.66,0,0,1,7.24,25.25ZM9,12.69a.7.7,0,0,1-.52-.22.66.66,0,0,1-.21-.5.69.69,0,0,1,.21-.51A.73.73,0,0,1,9,11.25a.72.72,0,0,1,.71.72.73.73,0,0,1-.71.72ZM9,23.45a.77.77,0,0,1-.52-.2.72.72,0,0,1,0-1A.73.73,0,0,1,9,22a.72.72,0,0,1,.5,1.23A.72.72,0,0,1,9,23.45Zm1.79-9a.72.72,0,0,1-.72-.72.73.73,0,0,1,.21-.51.69.69,0,0,1,.51-.21.67.67,0,0,1,.5.21.73.73,0,0,1,.21.51.69.69,0,0,1-.21.51A.67.67,0,0,1,10.83,14.48Zm0,1.8a.7.7,0,0,1-.51-.22.66.66,0,0,1-.21-.5.72.72,0,0,1,.72-.72.67.67,0,0,1,.5.21.69.69,0,0,1,.21.51.66.66,0,0,1-.21.5A.68.68,0,0,1,10.83,16.28Zm0,1.79a.72.72,0,0,1-.72-.72.71.71,0,0,1,.21-.51.69.69,0,0,1,.51-.21.67.67,0,0,1,.5.21.71.71,0,0,1,.21.51.69.69,0,0,1-.21.51A.67.67,0,0,1,10.83,18.07Zm0,1.79a.69.69,0,0,1-.51-.21.67.67,0,0,1-.21-.5.72.72,0,0,1,.72-.72.67.67,0,0,1,.5.21.69.69,0,0,1,.21.51.72.72,0,0,1-.71.71Zm0,1.8a.72.72,0,0,1-.72-.72.71.71,0,0,1,.21-.51.73.73,0,0,1,.51-.2.7.7,0,0,1,.5.2.71.71,0,0,1,.21.51.69.69,0,0,1-.21.51A.67.67,0,0,1,10.83,21.66Z"/><path class="cls-1" d="M15.05,10.89a.71.71,0,0,1-.5-1.22.66.66,0,0,1,.5-.22.7.7,0,0,1,.52.22.74.74,0,0,1,0,1A.73.73,0,0,1,15.05,10.89Zm0,1.8a.73.73,0,0,1-.71-.72.72.72,0,0,1,.71-.72.7.7,0,0,1,.72.72.69.69,0,0,1-.2.5A.7.7,0,0,1,15.05,12.69Zm0,1.79a.72.72,0,0,1-.71-.72.73.73,0,0,1,.21-.51.69.69,0,0,1,.5-.21.73.73,0,0,1,.52.21.76.76,0,0,1,.2.51.7.7,0,0,1-.72.72Zm0,1.8a.7.7,0,0,1-.5-.22.66.66,0,0,1-.21-.5.72.72,0,0,1,.71-.72.7.7,0,0,1,.72.72.69.69,0,0,1-.2.5A.74.74,0,0,1,15.05,16.28Zm0,1.79a.72.72,0,0,1-.71-.72.71.71,0,0,1,.21-.51.69.69,0,0,1,.5-.21.73.73,0,0,1,.52.21.74.74,0,0,1,.2.51.7.7,0,0,1-.72.72Zm0,1.79a.69.69,0,0,1-.5-.21.67.67,0,0,1-.21-.5.72.72,0,0,1,.71-.72.7.7,0,0,1,.72.72.7.7,0,0,1-.2.5A.73.73,0,0,1,15.05,19.86Zm0,1.8a.72.72,0,0,1-.71-.72.71.71,0,0,1,.21-.51.72.72,0,0,1,.5-.2.77.77,0,0,1,.52.2.74.74,0,0,1,.2.51.7.7,0,0,1-.72.72Zm0,1.79a.72.72,0,0,1-.5-.2.72.72,0,0,1,.5-1.23.73.73,0,0,1,.52,1.23A.77.77,0,0,1,15.05,23.45Zm0,1.8a.72.72,0,0,1-.5-1.23.68.68,0,0,1,.5-.2A.72.72,0,0,1,15.57,25,.73.73,0,0,1,15.05,25.25Zm1.8-14.36a.71.71,0,0,1-.51-1.22.7.7,0,0,1,1,0,.72.72,0,0,1-.51,1.22Zm0,7.18a.72.72,0,0,1-.72-.72.71.71,0,0,1,.21-.51.72.72,0,0,1,1,0,.71.71,0,0,1,.21.51.72.72,0,0,1-.72.72Zm0,7.18A.72.72,0,0,1,16.34,24a.75.75,0,0,1,1,0,.72.72,0,0,1-.51,1.23Zm1.79-14.36a.69.69,0,0,1-.5-.21.69.69,0,0,1,0-1,.66.66,0,0,1,.5-.22.7.7,0,0,1,.52.22.74.74,0,0,1,0,1A.73.73,0,0,1,18.64,10.89Zm0,7.18a.69.69,0,0,1-.5-.21.7.7,0,0,1-.22-.51.72.72,0,0,1,.22-.51.69.69,0,0,1,.5-.21.73.73,0,0,1,.52.21.74.74,0,0,1,.2.51.7.7,0,0,1-.72.72Zm0,7.18a.69.69,0,0,1-.5-.21.7.7,0,0,1,0-1,.68.68,0,0,1,.5-.2A.72.72,0,0,1,19.16,25,.73.73,0,0,1,18.64,25.25Zm1.8-14.36a.66.66,0,0,1-.5-.21.69.69,0,0,1,0-1,.63.63,0,0,1,.5-.22.67.67,0,0,1,.51.22.72.72,0,0,1-.51,1.22Zm0,7.18a.66.66,0,0,1-.5-.21.67.67,0,0,1-.22-.51.68.68,0,0,1,.22-.51.66.66,0,0,1,.5-.21.69.69,0,0,1,.51.21.71.71,0,0,1,.21.51.72.72,0,0,1-.72.72Zm0,7.18a.66.66,0,0,1-.5-.21.7.7,0,0,1,0-1,.65.65,0,0,1,.5-.2A.69.69,0,0,1,21,24a.72.72,0,0,1-.51,1.23Zm1.8-14.36a.69.69,0,0,1-.51-.21.73.73,0,1,1,1,0A.69.69,0,0,1,22.24,10.89Zm0,7.18a.69.69,0,0,1-.51-.21.67.67,0,0,1-.22-.51.68.68,0,0,1,.22-.51.71.71,0,0,1,1,0,.68.68,0,0,1,.22.51.67.67,0,0,1-.22.51A.69.69,0,0,1,22.24,18.07Zm0,7.18a.69.69,0,0,1-.51-.21.7.7,0,0,1,0-1,.69.69,0,0,1,.51-.2.68.68,0,0,1,.5.2.7.7,0,0,1,0,1A.69.69,0,0,1,22.24,25.25ZM24,10.89a.71.71,0,0,1-.51-1.22A.67.67,0,0,1,24,9.45a.63.63,0,0,1,.5.22.72.72,0,0,1-.5,1.22Zm0,14.36A.72.72,0,0,1,23.52,24a.69.69,0,0,1,.51-.2.65.65,0,0,1,.5.2.7.7,0,0,1,0,1A.66.66,0,0,1,24,25.25Z"/><path class="cls-1" d="M28.26,10.89a.71.71,0,0,1-.51-1.22.7.7,0,0,1,1,0,.68.68,0,0,1,.2.5.69.69,0,0,1-.2.51A.69.69,0,0,1,28.26,10.89Zm0,1.8a.67.67,0,0,1-.51-.22.66.66,0,0,1-.21-.5.72.72,0,0,1,1.23-.51A.69.69,0,0,1,29,12a.65.65,0,0,1-.2.5A.67.67,0,0,1,28.26,12.69Zm0,1.79a.72.72,0,0,1-.72-.72.73.73,0,0,1,.21-.51.72.72,0,0,1,1,0,.72.72,0,0,1,.2.51.69.69,0,0,1-.2.51A.69.69,0,0,1,28.26,14.48Zm0,1.8a.7.7,0,0,1-.51-.22.66.66,0,0,1-.21-.5.72.72,0,0,1,1.23-.51.69.69,0,0,1,.2.51.65.65,0,0,1-.2.5A.7.7,0,0,1,28.26,16.28Zm0,1.79a.72.72,0,0,1-.72-.72.71.71,0,0,1,.21-.51.71.71,0,0,1,1.22.51.69.69,0,0,1-.2.51A.69.69,0,0,1,28.26,18.07Zm0,1.79a.69.69,0,0,1-.51-.21.67.67,0,0,1-.21-.5.72.72,0,0,1,1.23-.51.69.69,0,0,1,.2.51.66.66,0,0,1-.2.5A.69.69,0,0,1,28.26,19.86Zm0,1.8a.72.72,0,0,1-.72-.72.71.71,0,0,1,.21-.51.75.75,0,0,1,1,0,.7.7,0,0,1,.2.51.69.69,0,0,1-.2.51A.69.69,0,0,1,28.26,21.66Zm0,1.79a.73.73,0,0,1-.51-.2.72.72,0,0,1,1-1,.75.75,0,0,1,0,1A.73.73,0,0,1,28.26,23.45Zm0,1.8A.72.72,0,0,1,27.75,24a.72.72,0,0,1,1,1A.69.69,0,0,1,28.26,25.25Zm1.79,0a.69.69,0,0,1-.51-.21.72.72,0,0,1,1-1,.72.72,0,0,1-.51,1.23Zm1.79,0a.72.72,0,0,1-.5-1.23.68.68,0,0,1,.5-.2.71.71,0,0,1,.52.2.75.75,0,0,1,0,1A.72.72,0,0,1,31.84,25.25Zm1.8,0a.67.67,0,0,1-.5-.21.72.72,0,0,1,0-1,.66.66,0,0,1,.5-.2.69.69,0,0,1,.51.2.72.72,0,0,1-.51,1.23Zm1.8,0A.72.72,0,0,1,34.93,24a.69.69,0,0,1,.51-.2A.71.71,0,0,1,36,25,.71.71,0,0,1,35.44,25.25Zm1.79,0a.66.66,0,0,1-.5-.21.7.7,0,0,1,0-1,.65.65,0,0,1,.5-.2.69.69,0,0,1,.51.2.72.72,0,0,1-.51,1.23Z"/><path class="cls-1" d="M41.46,14.48a.71.71,0,0,1-.51-.21.69.69,0,0,1-.21-.51.73.73,0,0,1,.21-.51.71.71,0,0,1,.51-.21.69.69,0,0,1,.51.21.73.73,0,0,1,.21.51.72.72,0,0,1-.72.72Zm0,1.8a.72.72,0,0,1-.51-.22.66.66,0,0,1-.21-.5.69.69,0,0,1,.21-.51.71.71,0,0,1,.51-.21.72.72,0,0,1,.72.72.66.66,0,0,1-.21.5A.7.7,0,0,1,41.46,16.28Zm0,1.79a.71.71,0,0,1-.51-.21.69.69,0,0,1-.21-.51.72.72,0,0,1,.72-.72.69.69,0,0,1,.51.21.71.71,0,0,1,.21.51.72.72,0,0,1-.72.72Zm0,1.79a.71.71,0,0,1-.51-.21.67.67,0,0,1-.21-.5.69.69,0,0,1,.21-.51.71.71,0,0,1,.51-.21.72.72,0,0,1,.72.72.67.67,0,0,1-.21.5A.69.69,0,0,1,41.46,19.86Zm0,1.8a.71.71,0,0,1-.51-.21.69.69,0,0,1-.21-.51.71.71,0,0,1,.21-.51.74.74,0,0,1,.51-.2.73.73,0,0,1,.51.2.71.71,0,0,1,.21.51.72.72,0,0,1-.72.72Zm0,1.79a.74.74,0,0,1-.51-.2.72.72,0,0,1,0-1,.71.71,0,0,1,.51-.21A.72.72,0,0,1,42,23.25.73.73,0,0,1,41.46,23.45Zm0,1.8A.71.71,0,0,1,41,25a.71.71,0,0,1,.51-1.22A.69.69,0,0,1,42,24a.72.72,0,0,1-.51,1.23Zm1.8-12.56a.7.7,0,0,1-.52-.22.69.69,0,0,1-.2-.5.7.7,0,0,1,.72-.72.67.67,0,0,1,.5.21A.69.69,0,0,1,44,12a.66.66,0,0,1-.21.5A.65.65,0,0,1,43.26,12.69Zm0,5.38a.7.7,0,0,1-.72-.72.74.74,0,0,1,.2-.51.73.73,0,0,1,.52-.21.67.67,0,0,1,.5.21.71.71,0,0,1,.21.51.69.69,0,0,1-.21.51A.67.67,0,0,1,43.26,18.07Zm1.79-7.18a.71.71,0,0,1-.51-1.22.7.7,0,0,1,1,0,.68.68,0,0,1,.2.5.69.69,0,0,1-.2.51A.69.69,0,0,1,45.05,10.89Zm0,7.18a.72.72,0,0,1-.72-.72.71.71,0,0,1,.21-.51.71.71,0,0,1,1.22.51.69.69,0,0,1-.2.51A.69.69,0,0,1,45.05,18.07Zm1.8-7.18a.71.71,0,0,1-.51-1.22.69.69,0,0,1,1,0,.72.72,0,0,1-.5,1.22Zm0,7.18a.72.72,0,0,1-.72-.72.71.71,0,0,1,.21-.51.71.71,0,0,1,1,0,.71.71,0,0,1,.21.51.72.72,0,0,1-.71.72Zm1.79-5.38a.67.67,0,0,1-.51-.22.66.66,0,0,1-.21-.5.72.72,0,1,1,1.44,0,.66.66,0,0,1-.21.5A.67.67,0,0,1,48.64,12.69Zm0,5.38a.72.72,0,0,1-.72-.72.71.71,0,0,1,.21-.51.72.72,0,0,1,1,0,.71.71,0,0,1,.21.51.72.72,0,0,1-.72.72Zm1.79-3.59a.67.67,0,0,1-.5-.21.69.69,0,0,1-.21-.51.73.73,0,0,1,.21-.51.67.67,0,0,1,.5-.21.69.69,0,0,1,.51.21.73.73,0,0,1,.21.51.72.72,0,0,1-.72.72Zm0,1.8a.68.68,0,0,1-.5-.22.66.66,0,0,1-.21-.5.69.69,0,0,1,.21-.51.67.67,0,0,1,.5-.21.72.72,0,0,1,.72.72.66.66,0,0,1-.21.5A.7.7,0,0,1,50.43,16.28Zm0,1.79a.67.67,0,0,1-.5-.21.69.69,0,0,1-.21-.51.71.71,0,0,1,.21-.51.67.67,0,0,1,.5-.21.69.69,0,0,1,.51.21.71.71,0,0,1,.21.51.72.72,0,0,1-.72.72Zm0,1.79a.72.72,0,0,1-.71-.71.69.69,0,0,1,.21-.51.67.67,0,0,1,.5-.21.72.72,0,0,1,.72.72.67.67,0,0,1-.21.5A.69.69,0,0,1,50.43,19.86Zm0,1.8a.67.67,0,0,1-.5-.21.69.69,0,0,1-.21-.51.71.71,0,0,1,.21-.51.7.7,0,0,1,.5-.2.73.73,0,0,1,.51.2.71.71,0,0,1,.21.51.72.72,0,0,1-.72.72Zm0,1.79a.7.7,0,0,1-.5-.2.72.72,0,0,1,0-1,.67.67,0,0,1,.5-.21.72.72,0,0,1,.51,1.23A.73.73,0,0,1,50.43,23.45Zm0,1.8a.67.67,0,0,1-.5-.21.72.72,0,0,1,0-1,.66.66,0,0,1,.5-.2.69.69,0,0,1,.51.2.72.72,0,0,1-.51,1.23Z"/><path class="cls-1" d="M54.66,10.89a.69.69,0,0,1-.5-.21.71.71,0,1,1,1-1,.72.72,0,0,1-.51,1.22Zm0,1.8a.66.66,0,0,1-.5-.22.63.63,0,0,1-.22-.5.67.67,0,0,1,.22-.51.72.72,0,0,1,1.22.51.66.66,0,0,1-.21.5A.67.67,0,0,1,54.66,12.69Zm0,1.79a.69.69,0,0,1-.5-.21.67.67,0,0,1-.22-.51.7.7,0,0,1,.22-.51.71.71,0,0,1,1,0,.73.73,0,0,1,.21.51.72.72,0,0,1-.72.72Zm1.8,1.8a.7.7,0,0,1-.51-.22.66.66,0,0,1-.21-.5.72.72,0,0,1,.72-.72.66.66,0,0,1,.5.21.67.67,0,0,1,.22.51.63.63,0,0,1-.22.5A.67.67,0,0,1,56.46,16.28Zm1.79,1.79a.71.71,0,0,1-.51-.21.69.69,0,0,1-.21-.51.72.72,0,0,1,.72-.72.69.69,0,0,1,.51.21.71.71,0,0,1,.21.51.72.72,0,0,1-.72.72Zm0,1.79a.71.71,0,0,1-.51-.21.67.67,0,0,1-.21-.5.69.69,0,0,1,.21-.51.71.71,0,0,1,.51-.21.72.72,0,0,1,.72.72.67.67,0,0,1-.21.5A.69.69,0,0,1,58.25,19.86Zm0,1.8a.71.71,0,0,1-.51-.21.69.69,0,0,1-.21-.51.71.71,0,0,1,.21-.51.74.74,0,0,1,.51-.2.73.73,0,0,1,.51.2.71.71,0,0,1,.21.51.72.72,0,0,1-.72.72Zm0,1.79a.74.74,0,0,1-.51-.2.72.72,0,0,1,0-1,.71.71,0,0,1,.51-.21.72.72,0,0,1,.51,1.23A.73.73,0,0,1,58.25,23.45Zm0,1.8a.71.71,0,0,1-.51-.21.71.71,0,0,1,.51-1.22.69.69,0,0,1,.51.2.72.72,0,0,1-.51,1.23Zm1.8-9a.7.7,0,0,1-.51-.22.66.66,0,0,1-.21-.5.72.72,0,0,1,.72-.72.66.66,0,0,1,.5.21.7.7,0,0,1,.22.51.75.75,0,0,1-.72.72Zm1.8-5.39a.72.72,0,0,1-.52-.21.73.73,0,0,1,.52-1.23.66.66,0,0,1,.5.22.72.72,0,0,1-.5,1.22Zm0,1.8a.69.69,0,0,1-.52-.22.66.66,0,0,1-.21-.5.69.69,0,0,1,.21-.51.72.72,0,0,1,.52-.21.72.72,0,0,1,.71.72.73.73,0,0,1-.71.72Zm0,1.79a.72.72,0,0,1-.52-.21.69.69,0,0,1-.21-.51.73.73,0,0,1,.21-.51.72.72,0,0,1,.52-.21.69.69,0,0,1,.5.21.73.73,0,0,1,.21.51.72.72,0,0,1-.71.72Z"/><path class="cls-1" d="M1.85,34.38a.69.69,0,0,1-.5-.21.7.7,0,0,1,0-1,.71.71,0,0,1,1,0,.72.72,0,0,1-.51,1.23Zm0,1.79a.69.69,0,0,1-.5-.21.65.65,0,0,1-.22-.5A.67.67,0,0,1,1.35,35a.71.71,0,0,1,1,0,.69.69,0,0,1,.21.51.67.67,0,0,1-.21.5A.69.69,0,0,1,1.85,36.17Zm0,1.8a.69.69,0,0,1-.5-.21.7.7,0,0,1,0-1,.71.71,0,0,1,1,0A.72.72,0,0,1,1.85,38Zm0,1.79a.69.69,0,0,1-.5-.21.69.69,0,0,1,0-1,.71.71,0,0,1,1,0,.71.71,0,0,1,0,1A.69.69,0,0,1,1.85,39.76Zm0,1.8a.69.69,0,0,1-.5-.21.7.7,0,0,1,0-1,.68.68,0,0,1,.5-.2.69.69,0,0,1,.51.2.72.72,0,0,1-.51,1.23Zm0,1.79a.72.72,0,0,1-.5-.2.7.7,0,0,1-.22-.52.65.65,0,0,1,.22-.5.71.71,0,0,1,1,0,.67.67,0,0,1,.21.5.73.73,0,0,1-.21.52A.73.73,0,0,1,1.85,43.35Zm0,1.8a.69.69,0,0,1-.5-.21.68.68,0,0,1-.22-.51.67.67,0,0,1,.22-.51.71.71,0,0,1,1,0,.69.69,0,0,1,.21.51.71.71,0,0,1-.21.51A.69.69,0,0,1,1.85,45.15Zm1.8-10.77a.72.72,0,1,1,0-1.44.66.66,0,0,1,.5.21.7.7,0,0,1,0,1A.66.66,0,0,1,3.65,34.38Zm0,7.18a.72.72,0,0,1-.51-1.23.69.69,0,0,1,.51-.2.65.65,0,0,1,.5.2.7.7,0,0,1,0,1A.66.66,0,0,1,3.65,41.56Zm1.79-7.18a.69.69,0,0,1-.5-.21.7.7,0,0,1,0-1,.72.72,0,1,1,.5,1.23Zm0,7.18a.69.69,0,0,1-.5-.21.7.7,0,0,1,0-1,.68.68,0,0,1,.5-.2.69.69,0,0,1,.51.2.72.72,0,0,1-.51,1.23Zm1.8-7.18a.72.72,0,1,1,0-1.44.66.66,0,0,1,.5.21.7.7,0,0,1,0,1A.66.66,0,0,1,7.24,34.38Zm0,7.18a.72.72,0,0,1-.51-1.23.69.69,0,0,1,.51-.2.65.65,0,0,1,.5.2.7.7,0,0,1,0,1A.66.66,0,0,1,7.24,41.56ZM9,34.38a.73.73,0,0,1-.52-.21.72.72,0,0,1,0-1A.73.73,0,0,1,9,32.94a.72.72,0,0,1,0,1.44Zm0,7.18a.73.73,0,0,1-.52-.21.72.72,0,0,1,0-1,.72.72,0,0,1,.52-.2.68.68,0,0,1,.5.2A.72.72,0,0,1,9,41.56Zm1.79-5.39a.69.69,0,0,1-.51-.21.67.67,0,0,1-.21-.5.72.72,0,0,1,.72-.72.67.67,0,0,1,.5.21.69.69,0,0,1,.21.51.72.72,0,0,1-.71.71Zm0,1.8a.72.72,0,1,1,0-1.44.67.67,0,0,1,.5.21.72.72,0,0,1,0,1A.67.67,0,0,1,10.83,38Zm0,1.79a.72.72,0,1,1,0-1.43.67.67,0,0,1,.5.21.71.71,0,0,1,0,1A.67.67,0,0,1,10.83,39.76Z"/><path class="cls-1" d="M15.05,34.38a.72.72,0,0,1,0-1.44.72.72,0,1,1,0,1.44Zm0,1.79a.69.69,0,0,1-.5-.21.67.67,0,0,1-.21-.5.72.72,0,0,1,.71-.72.7.7,0,0,1,.72.72.7.7,0,0,1-.2.5A.73.73,0,0,1,15.05,36.17Zm0,1.8a.72.72,0,0,1,0-1.44.72.72,0,1,1,0,1.44Zm0,1.79a.72.72,0,0,1,0-1.43.73.73,0,0,1,.52.21.74.74,0,0,1,0,1A.73.73,0,0,1,15.05,39.76Zm0,1.8a.72.72,0,0,1-.5-1.23.68.68,0,0,1,.5-.2.72.72,0,0,1,.52,1.22A.73.73,0,0,1,15.05,41.56Zm1.8,1.79a.7.7,0,0,1-.72-.72.67.67,0,0,1,.21-.5.72.72,0,0,1,1,0,.67.67,0,0,1,.21.5.7.7,0,0,1-.72.72Zm1.79,0a.72.72,0,0,1-.5-.2.74.74,0,0,1-.22-.52.73.73,0,0,1,.72-.71.73.73,0,0,1,.52.21.7.7,0,0,1,.2.5.69.69,0,0,1-.72.72Zm1.8,0a.69.69,0,0,1-.5-.2.7.7,0,0,1-.22-.52.65.65,0,0,1,.22-.5.66.66,0,0,1,.5-.21.69.69,0,0,1,.51.21.67.67,0,0,1,.21.5.7.7,0,0,1-.72.72Zm1.8,0a.73.73,0,0,1-.51-.2.7.7,0,0,1-.22-.52.65.65,0,0,1,.22-.5.71.71,0,0,1,1,0,.65.65,0,0,1,.22.5.7.7,0,0,1-.22.52A.72.72,0,0,1,22.24,43.35Zm1.79-9a.72.72,0,1,1,0-1.44.66.66,0,0,1,.5.21.7.7,0,0,1,0,1A.66.66,0,0,1,24,34.38Zm0,1.79a.69.69,0,0,1-.51-.21.67.67,0,0,1-.21-.5.72.72,0,0,1,.72-.72.66.66,0,0,1,.5.21.67.67,0,0,1,.22.51.65.65,0,0,1-.22.5A.66.66,0,0,1,24,36.17ZM24,38a.72.72,0,1,1,0-1.44.66.66,0,0,1,.5.21.7.7,0,0,1,0,1A.66.66,0,0,1,24,38Zm0,1.79a.72.72,0,1,1,0-1.43.73.73,0,0,1,.72.71.67.67,0,0,1-.22.51A.66.66,0,0,1,24,39.76Zm0,1.8a.72.72,0,0,1-.51-1.23.69.69,0,0,1,.51-.2.65.65,0,0,1,.5.2.7.7,0,0,1,0,1A.66.66,0,0,1,24,41.56Zm0,1.79a.7.7,0,0,1-.72-.72.67.67,0,0,1,.21-.5.69.69,0,0,1,.51-.21.66.66,0,0,1,.5.21.65.65,0,0,1,.22.5.7.7,0,0,1-.22.52A.69.69,0,0,1,24,43.35Z"/><path class="cls-1" d="M28.26,34.38a.72.72,0,1,1,.51-1.23.75.75,0,0,1,0,1A.69.69,0,0,1,28.26,34.38Zm0,9a.7.7,0,0,1-.72-.72.67.67,0,0,1,.21-.5.72.72,0,0,1,1,0,.66.66,0,0,1,.2.5.69.69,0,0,1-.71.72Zm1.79-9a.69.69,0,0,1-.51-.21.75.75,0,0,1,0-1,.72.72,0,1,1,.51,1.23Zm0,7.18a.69.69,0,0,1-.51-.21.72.72,0,0,1,1-1,.72.72,0,0,1-.51,1.23Zm0,1.79a.69.69,0,0,1-.71-.72.66.66,0,0,1,.2-.5.72.72,0,0,1,1,0,.67.67,0,0,1,.21.5.7.7,0,0,1-.72.72Zm1.79-9a.72.72,0,0,1,0-1.44.72.72,0,0,1,.52.21.75.75,0,0,1,0,1A.72.72,0,0,1,31.84,34.38Zm0,5.38a.72.72,0,0,1,0-1.43.7.7,0,0,1,.72.71.73.73,0,0,1-.2.51A.72.72,0,0,1,31.84,39.76Zm0,3.59a.72.72,0,0,1-.5-.2.73.73,0,0,1-.21-.52.67.67,0,0,1,.21-.5.69.69,0,0,1,.5-.21.72.72,0,0,1,.52.21.7.7,0,0,1,.2.5.77.77,0,0,1-.2.52A.75.75,0,0,1,31.84,43.35Zm1.8-9a.67.67,0,0,1-.5-.21.72.72,0,0,1,0-1,.67.67,0,0,1,.5-.21.72.72,0,1,1,0,1.44Zm0,3.59a.67.67,0,0,1-.5-.21.72.72,0,0,1,0-1,.67.67,0,0,1,.5-.21.72.72,0,1,1,0,1.44Zm0,5.38a.7.7,0,0,1-.5-.2.73.73,0,0,1-.21-.52.72.72,0,0,1,.71-.71.69.69,0,0,1,.51.21.67.67,0,0,1,.21.5.7.7,0,0,1-.72.72Zm1.8-9a.72.72,0,1,1,0-1.44.71.71,0,0,1,.51.21.72.72,0,0,1,0,1A.71.71,0,0,1,35.44,34.38Zm0,1.79a.69.69,0,0,1-.51-.21.67.67,0,0,1-.21-.5.72.72,0,0,1,.72-.72A.71.71,0,0,1,36,35a.69.69,0,0,1,.21.51A.67.67,0,0,1,36,36,.71.71,0,0,1,35.44,36.17Zm0,7.18a.7.7,0,0,1-.72-.72.67.67,0,0,1,.21-.5.69.69,0,0,1,.51-.21.71.71,0,0,1,.51.21.67.67,0,0,1,.21.5.73.73,0,0,1-.21.52A.74.74,0,0,1,35.44,43.35Zm1.79-9a.66.66,0,0,1-.5-.21.7.7,0,0,1,0-1,.66.66,0,0,1,.5-.21.72.72,0,1,1,0,1.44Zm0,9a.69.69,0,0,1-.5-.2.7.7,0,0,1-.22-.52.65.65,0,0,1,.22-.5.66.66,0,0,1,.5-.21.69.69,0,0,1,.51.21.67.67,0,0,1,.21.5.7.7,0,0,1-.72.72Z"/><path class="cls-1" d="M41.46,34.38a.71.71,0,0,1-.51-.21.72.72,0,0,1,0-1,.71.71,0,0,1,.51-.21.72.72,0,1,1,0,1.44Zm0,9a.74.74,0,0,1-.51-.2.73.73,0,0,1-.21-.52.67.67,0,0,1,.21-.5.71.71,0,0,1,.51-.21.69.69,0,0,1,.51.21.67.67,0,0,1,.21.5.7.7,0,0,1-.72.72Zm1.8-9a.72.72,0,1,1,0-1.44.67.67,0,0,1,.5.21.72.72,0,0,1,0,1A.67.67,0,0,1,43.26,34.38Zm0,7.18a.73.73,0,0,1-.52-1.23.72.72,0,0,1,.52-.2.66.66,0,0,1,.5.2.72.72,0,0,1,0,1A.67.67,0,0,1,43.26,41.56Zm0,1.79a.69.69,0,0,1-.72-.72.7.7,0,0,1,.2-.5.73.73,0,0,1,.52-.21.72.72,0,0,1,.71.71.73.73,0,0,1-.21.52A.7.7,0,0,1,43.26,43.35Zm1.79-9a.72.72,0,1,1,.51-1.23.75.75,0,0,1,0,1A.69.69,0,0,1,45.05,34.38Zm0,5.38a.72.72,0,1,1,.51-1.22.68.68,0,0,1,.2.5.69.69,0,0,1-.2.51A.69.69,0,0,1,45.05,39.76Zm0,3.59a.7.7,0,0,1-.72-.72.67.67,0,0,1,.21-.5.72.72,0,0,1,1,0,.66.66,0,0,1,.2.5.69.69,0,0,1-.71.72Zm1.8-9a.72.72,0,1,1,.5-.21A.69.69,0,0,1,46.85,34.38Zm0,3.59a.72.72,0,1,1,.5-.21A.69.69,0,0,1,46.85,38Zm0,5.38a.7.7,0,0,1-.72-.72.67.67,0,0,1,.21-.5.71.71,0,0,1,1,0,.67.67,0,0,1,.21.5.73.73,0,0,1-.21.52A.72.72,0,0,1,46.85,43.35Zm1.79-9a.72.72,0,1,1,.51-.21A.69.69,0,0,1,48.64,34.38Zm0,1.79a.69.69,0,0,1-.51-.21.67.67,0,0,1-.21-.5.72.72,0,1,1,1.44,0,.67.67,0,0,1-.21.5A.69.69,0,0,1,48.64,36.17Zm0,7.18a.7.7,0,0,1-.72-.72.67.67,0,0,1,.21-.5.72.72,0,0,1,1,0,.67.67,0,0,1,.21.5.7.7,0,0,1-.72.72Zm1.79-9a.67.67,0,0,1-.5-.21.72.72,0,0,1,0-1,.67.67,0,0,1,.5-.21.72.72,0,1,1,0,1.44Zm0,9a.7.7,0,0,1-.5-.2.73.73,0,0,1-.21-.52.72.72,0,0,1,.71-.71.69.69,0,0,1,.51.21.67.67,0,0,1,.21.5.7.7,0,0,1-.72.72Z"/><path class="cls-1" d="M54.66,30.79a.69.69,0,0,1-.5-.21.67.67,0,0,1-.22-.51.73.73,0,0,1,.72-.72.69.69,0,0,1,.51.21.71.71,0,0,1,.21.51.72.72,0,0,1-.72.72Zm0,1.8a.7.7,0,0,1-.5-.22.63.63,0,0,1-.22-.5.7.7,0,0,1,.22-.52.74.74,0,0,1,1,0,.73.73,0,0,1,.21.52.66.66,0,0,1-.21.5A.7.7,0,0,1,54.66,32.59Zm0,1.79a.69.69,0,0,1-.5-.21.7.7,0,0,1,0-1,.72.72,0,1,1,.5,1.23Zm0,1.79a.69.69,0,0,1-.5-.21.65.65,0,0,1-.22-.5.67.67,0,0,1,.22-.51.72.72,0,0,1,1.22.51.67.67,0,0,1-.21.5A.69.69,0,0,1,54.66,36.17Zm0,1.8a.69.69,0,0,1-.5-.21.7.7,0,0,1,0-1,.72.72,0,1,1,.5,1.23Zm0,1.79a.69.69,0,0,1-.5-.21.69.69,0,0,1,0-1,.71.71,0,1,1,.5,1.22Zm0,1.8a.69.69,0,0,1-.5-.21.7.7,0,0,1,0-1,.68.68,0,0,1,.5-.2.69.69,0,0,1,.51.2.72.72,0,0,1-.51,1.23Zm1.8,1.79a.7.7,0,0,1-.72-.72.67.67,0,0,1,.21-.5.69.69,0,0,1,.51-.21.66.66,0,0,1,.5.21.65.65,0,0,1,.22.5.7.7,0,0,1-.22.52A.69.69,0,0,1,56.46,43.35Zm1.79,0a.74.74,0,0,1-.51-.2.73.73,0,0,1-.21-.52.67.67,0,0,1,.21-.5.71.71,0,0,1,.51-.21.69.69,0,0,1,.51.21.67.67,0,0,1,.21.5.7.7,0,0,1-.72.72Z"/><path class="cls-1" d="M62.48,36.17A.69.69,0,0,1,62,36a.67.67,0,0,1-.21-.5.72.72,0,0,1,.71-.72.7.7,0,0,1,.72.72.7.7,0,0,1-.2.5A.73.73,0,0,1,62.48,36.17Zm0,1.8a.72.72,0,0,1,0-1.44.72.72,0,1,1,0,1.44Zm0,1.79a.72.72,0,0,1,0-1.43.73.73,0,0,1,.52.21.74.74,0,0,1,0,1A.73.73,0,0,1,62.48,39.76Zm0,1.8a.72.72,0,0,1-.5-1.23.68.68,0,0,1,.5-.2A.72.72,0,0,1,63,41.35.73.73,0,0,1,62.48,41.56Zm1.8-7.18a.72.72,0,1,1,.51-.21A.69.69,0,0,1,64.28,34.38Zm0,3.59a.72.72,0,1,1,.51-.21A.69.69,0,0,1,64.28,38Zm0,5.38a.7.7,0,0,1-.72-.72.67.67,0,0,1,.21-.5.72.72,0,0,1,1,0,.67.67,0,0,1,.21.5.7.7,0,0,1-.72.72Zm1.79-9a.69.69,0,0,1-.5-.21.7.7,0,0,1,0-1,.69.69,0,0,1,.5-.21.72.72,0,1,1,0,1.44Zm0,3.59a.69.69,0,0,1-.5-.21.7.7,0,0,1,0-1,.69.69,0,0,1,.5-.21.72.72,0,1,1,0,1.44Zm0,5.38a.72.72,0,0,1-.5-.2.74.74,0,0,1-.22-.52.73.73,0,0,1,.72-.71.73.73,0,0,1,.52.21.7.7,0,0,1,.2.5.69.69,0,0,1-.72.72Zm1.8-9a.66.66,0,0,1-.5-.21.7.7,0,0,1,0-1,.66.66,0,0,1,.5-.21.72.72,0,1,1,0,1.44Zm0,3.59a.66.66,0,0,1-.5-.21.7.7,0,0,1,0-1,.66.66,0,0,1,.5-.21.72.72,0,1,1,0,1.44Zm0,5.38a.69.69,0,0,1-.5-.2.7.7,0,0,1-.22-.52.65.65,0,0,1,.22-.5.66.66,0,0,1,.5-.21.69.69,0,0,1,.51.21.67.67,0,0,1,.21.5.7.7,0,0,1-.72.72Zm1.8-9a.69.69,0,0,1-.51-.21.7.7,0,0,1,0-1,.71.71,0,0,1,1,0,.7.7,0,0,1,0,1A.69.69,0,0,1,69.67,34.38Zm0,3.59a.69.69,0,0,1-.51-.21.7.7,0,0,1,0-1,.71.71,0,0,1,1,0,.7.7,0,0,1,0,1A.69.69,0,0,1,69.67,38Zm0,5.38a.73.73,0,0,1-.51-.2.7.7,0,0,1-.22-.52.65.65,0,0,1,.22-.5.71.71,0,0,1,1,0,.65.65,0,0,1,.22.5.7.7,0,0,1-.22.52A.72.72,0,0,1,69.67,43.35Zm1.79-7.18A.69.69,0,0,1,71,36a.67.67,0,0,1-.21-.5.72.72,0,0,1,.72-.72A.66.66,0,0,1,72,35a.67.67,0,0,1,.22.51A.65.65,0,0,1,72,36,.66.66,0,0,1,71.46,36.17Zm0,1.8a.72.72,0,1,1,0-1.44.66.66,0,0,1,.5.21.7.7,0,0,1,0,1A.66.66,0,0,1,71.46,38Zm0,3.59A.72.72,0,0,1,71,40.33a.69.69,0,0,1,.51-.2.65.65,0,0,1,.5.2.7.7,0,0,1,0,1A.66.66,0,0,1,71.46,41.56Z"/><path class="cls-1" d="M71.81,18c0-1.95,0-3.89,0-5.84,0-.56.06-1.1.75-1.12s.85.51.85,1.12c0,3.58,0,7.15,0,10.73,0,.65.14,1,.79,1.15,1.21.33,2.39.78,3.59,1.16.57.19,1.06.46.81,1.16s-.75.56-1.29.37c-1.54-.53-3.08-1.06-4.64-1.54A1.06,1.06,0,0,1,71.8,24C71.83,22,71.81,20,71.81,18Z"/><path class="cls-1" d="M64.21,6.79a1.7,1.7,0,0,1-1.74,1.74,1.72,1.72,0,1,1,0-3.43A1.7,1.7,0,0,1,64.21,6.79Z"/><path class="cls-1" d="M91.11,24.32a1.72,1.72,0,0,1,1.66-1.74,1.78,1.78,0,0,1,1.78,1.73A1.74,1.74,0,0,1,92.86,26,1.66,1.66,0,0,1,91.11,24.32Z"/><path class="cls-1" d="M74.31,44.52a1.73,1.73,0,0,1-1.72,1.75,1.76,1.76,0,0,1-1.72-1.76,1.73,1.73,0,0,1,1.69-1.69A1.69,1.69,0,0,1,74.31,44.52Z"/><path class="cls-1" d="M72.58,2.39a1.69,1.69,0,0,1,1.73,1.72,1.74,1.74,0,0,1-1.66,1.73,1.76,1.76,0,0,1-1.78-1.7A1.72,1.72,0,0,1,72.58,2.39Z"/><path class="cls-1" d="M90.1,36.14a1.72,1.72,0,0,1,0-3.43,1.72,1.72,0,1,1,0,3.43Z"/><path class="cls-1" d="M84.43,41.79a1.72,1.72,0,1,1-1.78-1.69A1.74,1.74,0,0,1,84.43,41.79Z"/><path class="cls-1" d="M84.43,6.85a1.72,1.72,0,0,1-1.72,1.68,1.72,1.72,0,1,1,1.72-1.68Z"/><path class="cls-1" d="M91.83,14.25a1.75,1.75,0,0,1-1.72,1.69,1.72,1.72,0,0,1-1.72-1.76,1.72,1.72,0,0,1,3.44.07Z"/></svg>