<svg id="Слой_1" data-name="Слой 1" xmlns="http://www.w3.org/2000/svg" viewBox="0 0 195.06 50"><defs><style>.cls-1{fill:#f5e7f3;}.cls-2{fill:#ea5252;}.cls-3{fill:#f2893d;}.cls-4{fill:#ffe60e;}.cls-5{fill:#5eb66d;}.cls-6{fill:#5da8dd;}.cls-7{fill:#b7afd7;}</style></defs><path class="cls-1" d="M12.26,3.85a8.4,8.4,0,0,1,3.51.74,8.58,8.58,0,0,1,2.89,2,9.67,9.67,0,0,1,2,2.89A8.44,8.44,0,0,1,21.37,13v3a7.75,7.75,0,0,1-.61,3.14A8.18,8.18,0,0,1,19,21.64a8.3,8.3,0,0,1-2.58,1.73,7.78,7.78,0,0,1-3.14.61H4.5A1.84,1.84,0,0,1,3,23.37a2,2,0,0,1-.61-1.48v-7.7A2,2,0,0,1,2.78,13a1.92,1.92,0,0,1,.86-.74,1.37,1.37,0,0,0,.55-.43,2.81,2.81,0,0,0,.13-.74V5.94a2,2,0,0,1,.37-1.17A1.76,1.76,0,0,1,5.61,4a1.8,1.8,0,0,1,.8-.19Zm1.85,4.43A.42.42,0,0,0,14,8a.5.5,0,0,0-.37-.19c-.3,0-.43.12-.43.43v3.39c0,.31.13.43.43.43a.85.85,0,0,0,.37-.12c.13-.06.13-.19.13-.31Z"/><path class="cls-1" d="M38.92,12a1.81,1.81,0,0,1,1.48.62A2,2,0,0,1,41,14.19v7.64a1.84,1.84,0,0,1-.61,1.48,2,2,0,0,1-1.48.61H24.64a1.82,1.82,0,0,1-1.48-.61,2,2,0,0,1-.62-1.48V14.19A1.83,1.83,0,0,1,22.91,13a1.81,1.81,0,0,1,.92-.74,1.41,1.41,0,0,0,.56-.43,1.25,1.25,0,0,0,.18-.62V5.94a1.82,1.82,0,0,1,.62-1.47,2,2,0,0,1,1.48-.62H37a2,2,0,0,1,1.48.62A2,2,0,0,1,39,5.94V7.67a.33.33,0,0,1-.37.37h-2.4a.33.33,0,0,1-.37-.37c0-.25-.12-.43-.37-.43H33.87c-.25,0-.37.12-.37.43v.74a.31.31,0,0,0,.12.24.46.46,0,0,0,.31.13h.93a1,1,0,0,1,.55.18.77.77,0,0,1,.18.56v.8a1,1,0,0,1-.18.55.79.79,0,0,1-.55.25h-.93a.33.33,0,0,0-.37.37v.18a.33.33,0,0,0,.37.37Z"/><path class="cls-1" d="M54.93,12.1a2.07,2.07,0,0,1,1.54.62,2,2,0,0,1,.61,1.47v7.7a1.82,1.82,0,0,1-.61,1.48,2.06,2.06,0,0,1-1.54.61H44.28a1.82,1.82,0,0,1-1.48-.61,2,2,0,0,1-.62-1.48v-7.7A1.89,1.89,0,0,1,42.55,13a1.81,1.81,0,0,1,.92-.74,1.41,1.41,0,0,0,.56-.43,1.25,1.25,0,0,0,.18-.62V5.94a1.82,1.82,0,0,1,.62-1.47,2,2,0,0,1,1.48-.62h3.88a1.78,1.78,0,0,1,1.41.62,2,2,0,0,1,.56,1.41v7.51a1.26,1.26,0,0,0,.37.93,1.14,1.14,0,0,0,1,.31,1.3,1.3,0,0,0,.8-.44,1.41,1.41,0,0,0,.31-.86v-.92a.33.33,0,0,1,.12-.25C54.74,12.1,54.8,12.1,54.93,12.1Z"/><path class="cls-1" d="M74.63,12a1.81,1.81,0,0,1,1.48.62,2,2,0,0,1,.61,1.53v7.64a1.84,1.84,0,0,1-.61,1.48,2,2,0,0,1-1.48.61H60.34a1.82,1.82,0,0,1-1.47-.61,2,2,0,0,1-.62-1.48V14.19A1.83,1.83,0,0,1,58.62,13a1.77,1.77,0,0,1,.92-.74,1.41,1.41,0,0,0,.56-.43,1.25,1.25,0,0,0,.18-.62V5.94a1.82,1.82,0,0,1,.62-1.47,2,2,0,0,1,1.48-.62H72.72a2,2,0,0,1,1.48.62,2,2,0,0,1,.61,1.47V7.67a.33.33,0,0,1-.37.37H72a.33.33,0,0,1-.37-.37c0-.25-.12-.43-.37-.43H69.64c-.24,0-.37.12-.37.43v.74a.29.29,0,0,0,.13.24.42.42,0,0,0,.3.13h.93a1,1,0,0,1,.55.18.77.77,0,0,1,.19.56v.8a1,1,0,0,1-.19.55.79.79,0,0,1-.55.25H69.7a.33.33,0,0,0-.37.37v.18a.33.33,0,0,0,.37.37Z"/><path class="cls-1" d="M96.48,12.1a2,2,0,0,1,1.54.62,2,2,0,0,1,.62,1.47v7.7A1.8,1.8,0,0,1,98,23.37a2,2,0,0,1-1.54.61H80.05a1.82,1.82,0,0,1-1.48-.61A2,2,0,0,1,78,21.89v-7.7A2,2,0,0,1,78.32,13a2,2,0,0,1,.86-.74,1.41,1.41,0,0,0,.56-.43,1.3,1.3,0,0,0,.18-.68V5.94a2.08,2.08,0,0,1,.37-1.17A1.82,1.82,0,0,1,81.22,4a1.77,1.77,0,0,1,.8-.19H94.76a2,2,0,0,1,1.48.62,2.25,2.25,0,0,1,.61,1.47V7.48A2,2,0,0,1,96.24,9a2,2,0,0,1-1.48.62H91.62a.41.41,0,0,1-.43-.31.84.84,0,0,0-.37-.55,1.22,1.22,0,0,0-.68-.25H87.43a1.29,1.29,0,0,0-.8.31,1,1,0,0,0-.3.8v2.64a1.22,1.22,0,0,0,.3.81,1,1,0,0,0,.8.3h2.84c.18,0,.3-.06.3-.24s-.12-.25-.36-.25h-1a.32.32,0,0,1-.37-.37c0-.25.12-.43.37-.43H92l4.49.06Z"/><path class="cls-1" d="M118.28,12.16a1.83,1.83,0,0,1,1.48.62,2,2,0,0,1,.61,1.48v7.63a1.82,1.82,0,0,1-.61,1.48,2,2,0,0,1-1.48.61h-2.71a1.8,1.8,0,0,1-1.35-.55,1.91,1.91,0,0,1-.56-1.35v-3a.49.49,0,0,0-.12-.31.68.68,0,0,0-.37-.12c-.31,0-.43.12-.43.43v3a1.81,1.81,0,0,1-.56,1.35,1.88,1.88,0,0,1-1.35.55H101.9a2.1,2.1,0,0,1-2.09-2.09V14.26a1.8,1.8,0,0,1,.62-1.48,2,2,0,0,1,1.47-.62.65.65,0,0,0,.37-.12.52.52,0,0,0,.19-.37L103.13,6a2,2,0,0,1,.8-1.48,2.42,2.42,0,0,1,1.61-.62h9a2.31,2.31,0,0,1,1.6.62A2.22,2.22,0,0,1,117,6l.67,5.66a.56.56,0,0,0,.19.37A.91.91,0,0,0,118.28,12.16Zm-4.62-3.81a.46.46,0,0,0-.12-.31.68.68,0,0,0-.37-.13c-.31,0-.43.13-.43.44v3.32c0,.31.12.43.43.43a.89.89,0,0,0,.37-.12c.12-.06.12-.19.12-.31Z"/><path class="cls-1" d="M133.61,3.85a2.23,2.23,0,0,1,1.6.68,2.27,2.27,0,0,1,.68,1.66v3.7a.56.56,0,0,1-.19.43.52.52,0,0,1-.37.18h-2.27a.65.65,0,0,1-.43-.18.56.56,0,0,1-.19-.43.43.43,0,0,0-.18-.37.53.53,0,0,0-.37-.19h-.19a.64.64,0,0,0-.43.19.52.52,0,0,0-.18.37v1.35a1.08,1.08,0,0,0,.18.62,1.18,1.18,0,0,0,.49.43,2.15,2.15,0,0,1,.93.74,2,2,0,0,1,.37,1.16v7.7a1.83,1.83,0,0,1-.62,1.48,2,2,0,0,1-1.54.61h-7.14a2.1,2.1,0,0,1-2.16-2.09v-7.7A1.89,1.89,0,0,1,122,13a1.79,1.79,0,0,1,.93-.74,1.85,1.85,0,0,0,.49-.43,1.25,1.25,0,0,0,.18-.62V9.89a.43.43,0,0,0-.18-.37.52.52,0,0,0-.37-.19h-.18a.42.42,0,0,0-.37.19.5.5,0,0,0-.19.37.61.61,0,0,1-.61.61h-2.22a.57.57,0,0,1-.43-.18.59.59,0,0,1-.19-.43V6.19a2.5,2.5,0,0,1,.68-1.66,2.25,2.25,0,0,1,1.6-.68Z"/><path class="cls-1" d="M147.28,12.22a2.21,2.21,0,0,1,.92.74,2,2,0,0,1,.37,1.17v7.7a1.84,1.84,0,0,1-.61,1.48,2.06,2.06,0,0,1-1.54.61h-9.36a1.82,1.82,0,0,1-1.48-.61,2,2,0,0,1-.62-1.48V14.19a1.89,1.89,0,0,1,.37-1.16,1.79,1.79,0,0,1,.93-.74,1.45,1.45,0,0,0,.55-.43,1.17,1.17,0,0,0,.19-.62V5.94a1.82,1.82,0,0,1,.61-1.47,2,2,0,0,1,1.48-.62h5.42a1.84,1.84,0,0,1,1.48.62,2,2,0,0,1,.61,1.47v5.24a1,1,0,0,0,.19.61A.78.78,0,0,0,147.28,12.22Z"/><path class="cls-1" d="M168.27,12.16a1.83,1.83,0,0,1,1.48.62,2,2,0,0,1,.62,1.48v7.63a1.83,1.83,0,0,1-.62,1.48,2,2,0,0,1-1.48.61H151.9a2,2,0,0,1-1.48-.61,2,2,0,0,1-.62-1.48V14.26a1.83,1.83,0,0,1,.62-1.48,2,2,0,0,1,1.48-.62.71.71,0,0,0,.37-.12.54.54,0,0,0,.18-.37L153.13,6a2,2,0,0,1,.8-1.48,2.38,2.38,0,0,1,1.6-.62h9.05a2.29,2.29,0,0,1,1.6.62A2.22,2.22,0,0,1,167,6l.68,5.66a.54.54,0,0,0,.18.37A1.68,1.68,0,0,0,168.27,12.16Zm-7.75-3.69a.91.91,0,0,0-.13-.37c-.06-.12-.18-.12-.31-.12a.85.85,0,0,0-.36.12c-.13.12-.13.18-.13.37v3.32a.43.43,0,0,0,.13.31.64.64,0,0,0,.36.12c.31,0,.44-.12.44-.43Z"/><path class="cls-1" d="M191.42,12.22a2.31,2.31,0,0,1,.93.74,2.08,2.08,0,0,1,.37,1.17v7.7a1.84,1.84,0,0,1-.62,1.48,2,2,0,0,1-1.48.61H185.7a1.82,1.82,0,0,1-1.48-.61,2,2,0,0,1-.62-1.48V12.47a1.94,1.94,0,0,0-.49-1.23l-.43-.43h0l-1.6-1.6a.48.48,0,0,0-.68,0,.41.41,0,0,0,0,.68l1.73,1.78a1.5,1.5,0,0,1,.49,1.23v9a1.83,1.83,0,0,1-.62,1.48,2,2,0,0,1-1.47.61h-6.9a1.82,1.82,0,0,1-1.48-.61,2,2,0,0,1-.61-1.48v-7.7a1.83,1.83,0,0,1,.37-1.16,1.73,1.73,0,0,1,.92-.74,1.37,1.37,0,0,0,.55-.43,1.17,1.17,0,0,0,.19-.62V5.94a1.82,1.82,0,0,1,.61-1.47,2,2,0,0,1,1.48-.62h1.91a4.35,4.35,0,0,1,2,.43,4.84,4.84,0,0,1,1.6,1l2.09,1.91a.4.4,0,0,0,.25.06.17.17,0,0,0,.12-.19V5.82a1.77,1.77,0,0,1,.62-1.41,2,2,0,0,1,1.42-.62h3.07a1.8,1.8,0,0,1,1.48.62,2,2,0,0,1,.62,1.47v5.24a1,1,0,0,0,.18.61A.6.6,0,0,0,191.42,12.22Z"/><path class="cls-1" d="M14.54,26.08a6.94,6.94,0,0,1,3.38.8A7.88,7.88,0,0,1,20.51,29,8.4,8.4,0,0,1,22,32.05a8.25,8.25,0,0,1-.06,3.63A6.57,6.57,0,0,1,20.88,38a9.48,9.48,0,0,1-1.66,1.79,8.29,8.29,0,0,1-2.16,1.17,6.85,6.85,0,0,1-2.46.43c-.06,0-.06.06-.06.12v2.65a1.81,1.81,0,0,1-.62,1.47,2,2,0,0,1-1.54.62H4.44A1.81,1.81,0,0,1,3,45.59a2,2,0,0,1-.61-1.47v-7.7a1.88,1.88,0,0,1,.37-1.17,1.78,1.78,0,0,1,.92-.74,1.22,1.22,0,0,0,.55-.43,1.12,1.12,0,0,0,.19-.61V28.23A1.84,1.84,0,0,1,5,26.75a2,2,0,0,1,1.48-.61l8.07-.06Zm.8,4.31c0-.31-.12-.43-.43-.43s-.43.12-.43.43v3.38c0,.31.12.43.43.43s.43-.12.43-.43Z"/><path class="cls-1" d="M38.43,34.45a2.12,2.12,0,0,1,.92.74,2,2,0,0,1,.37,1.17v7.76a1.81,1.81,0,0,1-.62,1.47,2,2,0,0,1-1.47.62H25.07a1.8,1.8,0,0,1-1.48-.62A2,2,0,0,1,23,44.12v-7.7a1.94,1.94,0,0,1,.37-1.17,1.84,1.84,0,0,1,.93-.74,1.28,1.28,0,0,0,.55-.43,1.19,1.19,0,0,0,.18-.61V28.23a1.84,1.84,0,0,1,.62-1.48,2,2,0,0,1,1.48-.61h2.65a1,1,0,0,1,.8.37,1.13,1.13,0,0,1,.37.86V32.6a.44.44,0,0,1-.19.37.52.52,0,0,1-.37.19h-.61a.85.85,0,0,0-.37.12c-.13.06-.13.19-.13.31a.44.44,0,0,0,.13.31.65.65,0,0,0,.37.12h3.32a.89.89,0,0,0,.37-.12c.12-.06.12-.19.12-.31a.49.49,0,0,0-.12-.31.68.68,0,0,0-.37-.12h-.62a.44.44,0,0,1-.37-.19.52.52,0,0,1-.18-.37V27.37a1.18,1.18,0,0,1,.37-.86,1.07,1.07,0,0,1,.8-.37h2.65a2.08,2.08,0,0,1,2.09,2.09v5.24a1,1,0,0,0,.19.61A.84.84,0,0,0,38.43,34.45Z"/><path class="cls-1" d="M42.55,34.39h0L49.63,33a7.88,7.88,0,0,1,1.29-.12H52a.46.46,0,0,0,.31-.12.68.68,0,0,0,.12-.37c0-.31-.12-.43-.43-.43H45.38a1.23,1.23,0,0,1-1-.43,1.45,1.45,0,0,1-.43-1v-2a2.55,2.55,0,0,1,.18-1,2.46,2.46,0,0,1,.56-.81,3.9,3.9,0,0,1,.8-.55,2.55,2.55,0,0,1,1-.18h7.82a2.64,2.64,0,0,1,1,.18,2.49,2.49,0,0,1,.8.55,2.26,2.26,0,0,1,.49.81,2.55,2.55,0,0,1,.18,1V32a1.2,1.2,0,0,1-.43,1,1.41,1.41,0,0,1-1,.43H53.82a.91.91,0,0,0-.37.13c-.12.12-.12.18-.12.37a.46.46,0,0,0,.12.3.59.59,0,0,0,.37.13h4a1.82,1.82,0,0,1,1.48.61,2,2,0,0,1,.61,1.48v7.7a1.8,1.8,0,0,1-.61,1.47,2,2,0,0,1-1.48.62H43a1.79,1.79,0,0,1-1.47-.62A2,2,0,0,1,41,44.12v-7.7a1.92,1.92,0,0,1,.43-1.29A1.64,1.64,0,0,1,42.55,34.39Z"/><path class="cls-1" d="M62.62,34.39h0L69.7,33.1A6.87,6.87,0,0,1,71,33h1.1a.46.46,0,0,0,.31-.12.65.65,0,0,0,.13-.37c0-.31-.13-.43-.44-.43H65.45a1.22,1.22,0,0,1-1-.43,1.45,1.45,0,0,1-.43-1v-2a2.55,2.55,0,0,1,.18-1,2.32,2.32,0,0,1,.56-.8,3.58,3.58,0,0,1,.8-.56,2.59,2.59,0,0,1,1-.18h7.82a2.64,2.64,0,0,1,1,.18,2.42,2.42,0,0,1,.8.56,2.14,2.14,0,0,1,.49.8,2.55,2.55,0,0,1,.18,1v3.45a1.2,1.2,0,0,1-.43,1,1.42,1.42,0,0,1-1,.44H73.89a.89.89,0,0,0-.37.12c-.12.12-.12.18-.12.37a.51.51,0,0,0,.12.31.65.65,0,0,0,.37.12h4a1.82,1.82,0,0,1,1.48.61A2,2,0,0,1,80,36.48v7.64a1.8,1.8,0,0,1-.61,1.47,2,2,0,0,1-1.48.62H63.18a1.8,1.8,0,0,1-1.48-.62,2,2,0,0,1-.62-1.47v-7.7a2,2,0,0,1,.43-1.29A1.43,1.43,0,0,1,62.62,34.39Z"/><path class="cls-1" d="M93.78,34.33a2.06,2.06,0,0,1,1.54.61,2,2,0,0,1,.61,1.48v7.7a1.8,1.8,0,0,1-.61,1.47,2,2,0,0,1-1.54.62H83.19a1.8,1.8,0,0,1-1.48-.62,2,2,0,0,1-.62-1.47v-7.7a1.94,1.94,0,0,1,.37-1.17,1.84,1.84,0,0,1,.93-.74,1.28,1.28,0,0,0,.55-.43,1.19,1.19,0,0,0,.18-.61V28.23a1.84,1.84,0,0,1,.62-1.48,2,2,0,0,1,1.48-.61H89.1a1.94,1.94,0,0,1,1.41.55,2,2,0,0,1,.56,1.42v7.57a1.26,1.26,0,0,0,.37.93,1.14,1.14,0,0,0,1,.3,1.24,1.24,0,0,0,.8-.43,1.41,1.41,0,0,0,.31-.86V34.7a.32.32,0,0,1,.12-.25C93.65,34.33,93.71,34.33,93.78,34.33Z"/><path class="cls-1" d="M113.48,34.27a1.84,1.84,0,0,1,1.48.61,2.36,2.36,0,0,1,.61,1.54v7.64a1.82,1.82,0,0,1-.61,1.47,2,2,0,0,1-1.48.62H99.19a1.82,1.82,0,0,1-1.47-.62,2,2,0,0,1-.62-1.47V36.42a1.88,1.88,0,0,1,.37-1.17,1.82,1.82,0,0,1,.92-.74,1.31,1.31,0,0,0,.56-.43,1.19,1.19,0,0,0,.18-.61V28.23a1.84,1.84,0,0,1,.62-1.48,2,2,0,0,1,1.48-.61h10.34a2.08,2.08,0,0,1,2.09,2.09v1.66a.32.32,0,0,1-.37.37h-2.4c-.24,0-.43-.12-.43-.37a.32.32,0,0,0-.37-.36h-1.66a.32.32,0,0,0-.37.36v.68a.32.32,0,0,0,.12.25.49.49,0,0,0,.31.12h.92a1,1,0,0,1,.56.19.74.74,0,0,1,.18.55v.8A1,1,0,0,1,110,33a.76.76,0,0,1-.56.25h-.92c-.25,0-.37.12-.37.43v.19a.33.33,0,0,0,.37.37Z"/><path class="cls-2" d="M127.08,36.67a1.38,1.38,0,0,1,.74.61,1.84,1.84,0,0,1,.31,1v6.22a1.68,1.68,0,0,1-1.72,1.72h-7.58a1.82,1.82,0,0,1-1.23-.49,1.71,1.71,0,0,1-.49-1.23V38.27a1.84,1.84,0,0,1,.31-1,1.38,1.38,0,0,1,.74-.61.89.89,0,0,0,.43-.37.76.76,0,0,0,.12-.49V31.56a1.85,1.85,0,0,1,.49-1.23,1.69,1.69,0,0,1,1.17-.5h4.37a1.84,1.84,0,0,1,1.24.5,1.72,1.72,0,0,1,.49,1.23v4.25a1.22,1.22,0,0,0,.12.49A1.4,1.4,0,0,0,127.08,36.67Z"/><path class="cls-3" d="M128.87,35.56a1.44,1.44,0,0,1-.74-.62,1.86,1.86,0,0,1-.31-1V27.68a1.83,1.83,0,0,1,.5-1.23,1.81,1.81,0,0,1,1.23-.5h7.57a1.83,1.83,0,0,1,1.23.5,1.7,1.7,0,0,1,.49,1.23V33.9a1.88,1.88,0,0,1-.3,1,1.53,1.53,0,0,1-.74.62.77.77,0,0,0-.43.37.69.69,0,0,0-.13.49v4.25a1.82,1.82,0,0,1-.49,1.23,1.68,1.68,0,0,1-1.17.49h-4.43a1.82,1.82,0,0,1-1.23-.49,1.72,1.72,0,0,1-.5-1.23V36.36a1.14,1.14,0,0,0-.12-.49A1,1,0,0,0,128.87,35.56Z"/><path class="cls-4" d="M148.57,36.67a1.38,1.38,0,0,1,.74.61,1.84,1.84,0,0,1,.31,1v6.22a1.87,1.87,0,0,1-.49,1.23,1.83,1.83,0,0,1-1.24.49h-7.57a1.82,1.82,0,0,1-1.23-.49,1.71,1.71,0,0,1-.49-1.23V38.27a1.84,1.84,0,0,1,.31-1,1.4,1.4,0,0,1,.73-.61.87.87,0,0,0,.44-.37.76.76,0,0,0,.12-.49V31.56a1.8,1.8,0,0,1,.49-1.23,1.69,1.69,0,0,1,1.17-.5h4.37a1.83,1.83,0,0,1,1.23.5,1.69,1.69,0,0,1,.5,1.23v4.25a1.22,1.22,0,0,0,.12.49A1.32,1.32,0,0,0,148.57,36.67Z"/><path class="cls-5" d="M150.42,35.56a1.4,1.4,0,0,1-.74-.62,1.86,1.86,0,0,1-.31-1V27.68a1.87,1.87,0,0,1,.49-1.23,1.84,1.84,0,0,1,1.24-.5h7.57a1.83,1.83,0,0,1,1.23.5,1.7,1.7,0,0,1,.49,1.23V33.9a1.8,1.8,0,0,1-.31,1,1.46,1.46,0,0,1-.73.62.82.82,0,0,0-.44.37.74.74,0,0,0-.12.49v4.25a1.82,1.82,0,0,1-.49,1.23,1.68,1.68,0,0,1-1.17.49H152.7a1.78,1.78,0,0,1-1.23-.49,1.72,1.72,0,0,1-.5-1.23V36.36a1.14,1.14,0,0,0-.12-.49A1.65,1.65,0,0,0,150.42,35.56Z"/><path class="cls-6" d="M170.12,36.67a1.42,1.42,0,0,1,.74.61,1.93,1.93,0,0,1,.31,1v6.22a1.83,1.83,0,0,1-.5,1.23,1.8,1.8,0,0,1-1.23.49h-7.57a1.82,1.82,0,0,1-1.23-.49,1.71,1.71,0,0,1-.49-1.23V38.27a1.92,1.92,0,0,1,.3-1,1.46,1.46,0,0,1,.74-.61.81.81,0,0,0,.43-.37.72.72,0,0,0,.13-.49V31.56a1.8,1.8,0,0,1,.49-1.23,1.47,1.47,0,0,1,1.17-.5h4.37a1.83,1.83,0,0,1,1.23.5,1.68,1.68,0,0,1,.49,1.23v4.25a1.22,1.22,0,0,0,.13.49A1.32,1.32,0,0,0,170.12,36.67Z"/><path class="cls-7" d="M171.91,35.56a1.4,1.4,0,0,1-.74-.62,1.78,1.78,0,0,1-.31-1V27.68A1.69,1.69,0,0,1,172.58,26h7.58a1.83,1.83,0,0,1,1.23.5,1.7,1.7,0,0,1,.49,1.23V33.9a1.8,1.8,0,0,1-.31,1,1.44,1.44,0,0,1-.74.62.84.84,0,0,0-.43.37.74.74,0,0,0-.12.49v4.25a1.87,1.87,0,0,1-.49,1.23,1.68,1.68,0,0,1-1.17.49h-4.37a1.83,1.83,0,0,1-1.24-.49,1.76,1.76,0,0,1-.49-1.23V36.36a1.14,1.14,0,0,0-.12-.49A2.09,2.09,0,0,0,171.91,35.56Z"/><path class="cls-1" d="M191.61,36.67a1.42,1.42,0,0,1,.74.61,1.92,1.92,0,0,1,.3,1v6.22a1.68,1.68,0,0,1-1.72,1.72h-7.57a1.8,1.8,0,0,1-1.23-.49,1.72,1.72,0,0,1-.5-1.23V38.27a1.93,1.93,0,0,1,.31-1,1.42,1.42,0,0,1,.74-.61.85.85,0,0,0,.43-.37.76.76,0,0,0,.12-.49V31.56a1.81,1.81,0,0,1,.5-1.23,1.45,1.45,0,0,1,1.17-.5h4.37a1.83,1.83,0,0,1,1.23.5,1.68,1.68,0,0,1,.49,1.23v4.25a1.08,1.08,0,0,0,.13.49A1.89,1.89,0,0,0,191.61,36.67Z"/></svg>