<svg id="Слой_1" data-name="Слой 1" xmlns="http://www.w3.org/2000/svg" viewBox="0 0 124.89 50"><defs><style>.cls-1{fill:#616160;}</style></defs><path class="cls-1" d="M1,19.08l.42.1c.62-2.17,2.9-3.73,6-3.73,3.42,0,6.11,2.07,6.11,4.66v7.66H11.8V20.42c0-2.17-2.07-3.52-5-3.52s-5.17,1.45-5.17,3.63v7.34H0v-18H1.66v5.79Z"/><path class="cls-1" d="M23.59,26.73c2.9,0,5-1.13,5.49-3l1.55.31c-.83,2.59-3.52,4.14-7.14,4.14-4.76,0-7.66-2.38-7.66-6.41s2.8-6.32,7.35-6.32,7.45,2.59,7.45,6.21v.62h-13C17.9,25.08,20.08,26.73,23.59,26.73ZM29,20.94c0-2.28-2.38-4-5.69-4s-5.17,1.45-5.58,4Z"/><path class="cls-1" d="M44.39,27.87l.52-3.21-.41-.1c-.83,2.17-3.42,3.62-6.83,3.62-3.11,0-5.18-1.24-5.18-3.31s1.66-3.31,4.14-3.52l7.66-.41v-1c0-1.75-2-3-5-3s-5,1.14-5.27,2.8l-1.66-.31c.52-2.49,3.21-4,6.83-4,3.83,0,6.73,1.76,6.73,4.14v8.18ZM38,26.63c3.52,0,6.31-1.55,6.31-3.62v-.62l-7.45.41c-1.66.11-2.69.83-2.69,2S35.6,26.63,38,26.63Z"/><path class="cls-1" d="M50.5,9.87v17.9H48.84V9.87Z"/><path class="cls-1" d="M58.36,24.15c0,2,.42,2.17,2.8,2.17h2.89v1.55H60.74c-2.48,0-4-.72-4-3.41v-7H52.36V15.87h4.35V12.35L58.36,12v3.83h5.69v1.55H58.36Z"/><path class="cls-1" d="M67,19.08l.42.1c.62-2.17,2.89-3.73,6-3.73,3.41,0,6,2.07,6,4.66v7.66H77.61V20.42c0-2.17-2-3.52-5-3.52s-5.17,1.45-5.17,3.52v7.35H65.71V9.87h1.66v5.79Z"/><path class="cls-1" d="M11,29.94H14.8l-1.24,2.9.62.31a6.41,6.41,0,0,1,2.27-2.69,6.46,6.46,0,0,1,3.31-.93,5.16,5.16,0,0,1,4.14,1.65,5.7,5.7,0,0,1,.94,4.66,8.37,8.37,0,0,1-2.59,4.76,7.31,7.31,0,0,1-4.76,1.76,4.7,4.7,0,0,1-3-.93,4.05,4.05,0,0,1-1.35-2.8l-.72.31.41,3.52L12,47.12H7.86Zm5.9,9.11a3.86,3.86,0,0,0,2.58-.83,3.36,3.36,0,0,0,1.25-2.28,2.53,2.53,0,0,0-.42-2.27,3.21,3.21,0,0,0-2.38-.83,3.86,3.86,0,0,0-2.58.83,3.62,3.62,0,0,0-1.25,2.27,2.55,2.55,0,0,0,.52,2.38A3,3,0,0,0,16.87,39.05Z"/><path class="cls-1" d="M39.22,42H35.39l1.24-3.11-.52-.21a6.67,6.67,0,0,1-2.27,2.8,5.92,5.92,0,0,1-3.42,1.14,3.85,3.85,0,0,1-3.31-1.45,3.78,3.78,0,0,1-.83-3.42l1.35-7.76h4.14L30.42,37.5a1.62,1.62,0,0,0,.52,1.44,2.41,2.41,0,0,0,1.86.52,4.57,4.57,0,0,0,2.07-.52,2.14,2.14,0,0,0,1-1.44l1.24-7.45h4.14Z"/><path class="cls-1" d="M43.15,29.94h11.9l-.83,4.66L47.5,37.91l-1.76.31-.1.31h8L53,41.84H41.08L42,36.77l6.42-3.1,2-.21v-.31H42.53Z"/><path class="cls-1" d="M56.4,29.94H68.3l-.83,4.66-6.73,3.31L59,38.22l-.1.31h8l-.62,3.31H54.33l.93-5.07,6.41-3.1,2-.21v-.31H55.88Z"/><path class="cls-1" d="M71.09,24h4.14L72,42H67.88Z"/><path class="cls-1" d="M78.85,37a1.4,1.4,0,0,0,.73,1.45,4.36,4.36,0,0,0,2.27.51,5.94,5.94,0,0,0,2-.31A1.71,1.71,0,0,0,85,37.7l3.93.52a6.56,6.56,0,0,1-2.9,2.9,10.57,10.57,0,0,1-4.65,1,6.86,6.86,0,0,1-5.18-1.76A4.81,4.81,0,0,1,75,35.74a7.12,7.12,0,0,1,2.8-4.66,9.1,9.1,0,0,1,5.59-1.66,7.05,7.05,0,0,1,5,1.66,4.73,4.73,0,0,1,1.14,4.45L89.1,37Zm.52-2.69h6.11a1,1,0,0,0-.63-1.14,3.51,3.51,0,0,0-2.07-.41c-1.86,0-3,.51-3.41,1.55Z"/><path class="cls-1" d="M83.82,3.86a1.34,1.34,0,0,1,1.66-.93C94.58,5,101.1,9.76,102.65,15.77a11.45,11.45,0,0,1-1.34,9c-.11.1-.21.2-.31.2s-.21.11-.42.11a.37.37,0,0,1-.31-.11c-.1-.1-.2-.2-.2-.31l-5.9-11.38a1.83,1.83,0,0,0-.83-.72,1.43,1.43,0,0,0-1.14.1,1.83,1.83,0,0,0-.72.83,2.13,2.13,0,0,0,.1,1.14l6.11,11.79a12.58,12.58,0,0,1,1.24,7.76.6.6,0,0,1-.11.42l12.11-6.93a1.39,1.39,0,0,0,.52-2,1.51,1.51,0,0,0-2-.62l-4.34,2.59c-.11.1-.21.1-.42.1a.63.63,0,0,1-.41-.1c-.1-.11-.21-.21-.21-.32v-.41a8.2,8.2,0,0,1,2.49-4.55c3.41-3.11,9.21-3.62,15.72-1.35a1.58,1.58,0,0,1,.83.62,1.24,1.24,0,0,1,.11,1c-1.45,6.72-5.07,11.38-9.52,12.62a8,8,0,0,1-4.45,0,7.77,7.77,0,0,1-2.9-1.55l-8.49,4.86-.62,2.18a1.53,1.53,0,0,1-1.76,1,1.32,1.32,0,0,1-.93-.72c-.1-.21-.21-.31-.21-.52V40l1.56-5.07a10.27,10.27,0,0,0-.11-6.11,12,12,0,0,1-5.07-.41,10.88,10.88,0,0,1-5.07-3.1C81.44,20.73,80.72,12.76,83.82,3.86Z"/><path class="cls-1" d="M83.82,3.86a1.34,1.34,0,0,1,1.66-.93C94.58,5,101.1,9.76,102.65,15.77a11.45,11.45,0,0,1-1.34,9c-.11.1-.21.2-.31.2s-.21.11-.42.11a.37.37,0,0,1-.31-.11c-.1-.1-.2-.2-.2-.31l-5.9-11.38a1.83,1.83,0,0,0-.83-.72,1.43,1.43,0,0,0-1.14.1,1.83,1.83,0,0,0-.72.83,2.13,2.13,0,0,0,.1,1.14l6.11,11.79a12.58,12.58,0,0,1,1.24,7.76.6.6,0,0,1-.11.42l12.11-6.93a1.39,1.39,0,0,0,.52-2,1.51,1.51,0,0,0-2-.62l-4.34,2.59c-.11.1-.21.1-.42.1a.63.63,0,0,1-.41-.1c-.1-.11-.21-.21-.21-.32v-.41a8.2,8.2,0,0,1,2.49-4.55c3.41-3.11,9.21-3.62,15.72-1.35a1.58,1.58,0,0,1,.83.62,1.24,1.24,0,0,1,.11,1c-1.45,6.72-5.07,11.38-9.52,12.62a8,8,0,0,1-4.45,0,7.77,7.77,0,0,1-2.9-1.55l-8.49,4.86-.62,2.18a1.53,1.53,0,0,1-1.76,1,1.32,1.32,0,0,1-.93-.72c-.1-.21-.21-.31-.21-.52V40l1.56-5.07a10.27,10.27,0,0,0-.11-6.11,12,12,0,0,1-5.07-.41,10.88,10.88,0,0,1-5.07-3.1C81.44,20.73,80.72,12.76,83.82,3.86Z"/><path class="cls-1" d="M83.82,3.86a1.34,1.34,0,0,1,1.66-.93C94.58,5,101.1,9.76,102.65,15.77a11.45,11.45,0,0,1-1.34,9c-.11.1-.21.2-.31.2s-.21.11-.42.11a.37.37,0,0,1-.31-.11c-.1-.1-.2-.2-.2-.31l-5.9-11.38a1.83,1.83,0,0,0-.83-.72,1.43,1.43,0,0,0-1.14.1,1.83,1.83,0,0,0-.72.83,2.13,2.13,0,0,0,.1,1.14l6.11,11.79a12.58,12.58,0,0,1,1.24,7.76.6.6,0,0,1-.11.42l12.11-6.93a1.39,1.39,0,0,0,.52-2,1.51,1.51,0,0,0-2-.62l-4.34,2.59c-.11.1-.21.1-.42.1a.63.63,0,0,1-.41-.1c-.1-.11-.21-.21-.21-.32v-.41a8.2,8.2,0,0,1,2.49-4.55c3.41-3.11,9.21-3.62,15.72-1.35a1.58,1.58,0,0,1,.83.62,1.24,1.24,0,0,1,.11,1c-1.45,6.72-5.07,11.38-9.52,12.62a8,8,0,0,1-4.45,0,7.77,7.77,0,0,1-2.9-1.55l-8.49,4.86-.62,2.18a1.53,1.53,0,0,1-1.76,1,1.32,1.32,0,0,1-.93-.72c-.1-.21-.21-.31-.21-.52V40l1.56-5.07a10.27,10.27,0,0,0-.11-6.11,12,12,0,0,1-5.07-.41,10.88,10.88,0,0,1-5.07-3.1C81.44,20.73,80.72,12.76,83.82,3.86Z"/><path class="cls-1" d="M83.82,3.86a1.34,1.34,0,0,1,1.66-.93C94.58,5,101.1,9.76,102.65,15.77a11.45,11.45,0,0,1-1.34,9c-.11.1-.21.2-.31.2s-.21.11-.42.11a.37.37,0,0,1-.31-.11c-.1-.1-.2-.2-.2-.31l-5.9-11.38a1.83,1.83,0,0,0-.83-.72,1.43,1.43,0,0,0-1.14.1,1.83,1.83,0,0,0-.72.83,2.13,2.13,0,0,0,.1,1.14l6.11,11.79a12.58,12.58,0,0,1,1.24,7.76.6.6,0,0,1-.11.42l12.11-6.93a1.39,1.39,0,0,0,.52-2,1.51,1.51,0,0,0-2-.62l-4.34,2.59c-.11.1-.21.1-.42.1a.63.63,0,0,1-.41-.1c-.1-.11-.21-.21-.21-.32v-.41a8.2,8.2,0,0,1,2.49-4.55c3.41-3.11,9.21-3.62,15.72-1.35a1.58,1.58,0,0,1,.83.62,1.24,1.24,0,0,1,.11,1c-1.45,6.72-5.07,11.38-9.52,12.62a8,8,0,0,1-4.45,0,7.77,7.77,0,0,1-2.9-1.55l-8.49,4.86-.62,2.18a1.53,1.53,0,0,1-1.76,1,1.32,1.32,0,0,1-.93-.72c-.1-.21-.21-.31-.21-.52V40l1.56-5.07a10.27,10.27,0,0,0-.11-6.11,12,12,0,0,1-5.07-.41,10.88,10.88,0,0,1-5.07-3.1C81.44,20.73,80.72,12.76,83.82,3.86Z"/><path class="cls-1" d="M83.82,3.86a1.34,1.34,0,0,1,1.66-.93C94.58,5,101.1,9.76,102.65,15.77a11.45,11.45,0,0,1-1.34,9c-.11.1-.21.2-.31.2s-.21.11-.42.11a.37.37,0,0,1-.31-.11c-.1-.1-.2-.2-.2-.31l-5.9-11.38a1.83,1.83,0,0,0-.83-.72,1.43,1.43,0,0,0-1.14.1,1.83,1.83,0,0,0-.72.83,2.13,2.13,0,0,0,.1,1.14l6.11,11.79a12.58,12.58,0,0,1,1.24,7.76.6.6,0,0,1-.11.42l12.11-6.93a1.39,1.39,0,0,0,.52-2,1.51,1.51,0,0,0-2-.62l-4.34,2.59c-.11.1-.21.1-.42.1a.63.63,0,0,1-.41-.1c-.1-.11-.21-.21-.21-.32v-.41a8.2,8.2,0,0,1,2.49-4.55c3.41-3.11,9.21-3.62,15.72-1.35a1.58,1.58,0,0,1,.83.62,1.24,1.24,0,0,1,.11,1c-1.45,6.72-5.07,11.38-9.52,12.62a8,8,0,0,1-4.45,0,7.77,7.77,0,0,1-2.9-1.55l-8.49,4.86-.62,2.18a1.53,1.53,0,0,1-1.76,1,1.32,1.32,0,0,1-.93-.72c-.1-.21-.21-.31-.21-.52V40l1.56-5.07a10.27,10.27,0,0,0-.11-6.11,12,12,0,0,1-5.07-.41,10.88,10.88,0,0,1-5.07-3.1C81.44,20.73,80.72,12.76,83.82,3.86Z"/><path class="cls-1" d="M83.82,3.86a1.34,1.34,0,0,1,1.66-.93C94.58,5,101.1,9.76,102.65,15.77a11.45,11.45,0,0,1-1.34,9c-.11.1-.21.2-.31.2s-.21.11-.42.11a.37.37,0,0,1-.31-.11c-.1-.1-.2-.2-.2-.31l-5.9-11.38a1.83,1.83,0,0,0-.83-.72,1.43,1.43,0,0,0-1.14.1,1.83,1.83,0,0,0-.72.83,2.13,2.13,0,0,0,.1,1.14l6.11,11.79a12.58,12.58,0,0,1,1.24,7.76.6.6,0,0,1-.11.42l12.11-6.93a1.39,1.39,0,0,0,.52-2,1.51,1.51,0,0,0-2-.62l-4.34,2.59c-.11.1-.21.1-.42.1a.63.63,0,0,1-.41-.1c-.1-.11-.21-.21-.21-.32v-.41a8.2,8.2,0,0,1,2.49-4.55c3.41-3.11,9.21-3.62,15.72-1.35a1.58,1.58,0,0,1,.83.62,1.24,1.24,0,0,1,.11,1c-1.45,6.72-5.07,11.38-9.52,12.62a8,8,0,0,1-4.45,0,7.77,7.77,0,0,1-2.9-1.55l-8.49,4.86-.62,2.18a1.53,1.53,0,0,1-1.76,1,1.32,1.32,0,0,1-.93-.72c-.1-.21-.21-.31-.21-.52V40l1.56-5.07a10.27,10.27,0,0,0-.11-6.11,12,12,0,0,1-5.07-.41,10.88,10.88,0,0,1-5.07-3.1C81.44,20.73,80.72,12.76,83.82,3.86Z"/></svg>