<svg id="Слой_1" data-name="Слой 1" xmlns="http://www.w3.org/2000/svg" viewBox="0 0 178.13 50"><path d="M10.71,7.14h7.81q.24,0,1.29.12a8.31,8.31,0,0,1,5.07,2.62,8,8,0,0,1,1.86,5.47v4.81a3,3,0,0,1-1.44,2.65,5.41,5.41,0,0,1-5.53,0,3,3,0,0,1-1.45-2.65V15.35a.41.41,0,0,1,.16.16h-8A7.86,7.86,0,0,1,4.6,13.15,8,8,0,0,1,2.29,7.32V4.12A3,3,0,0,1,3.73,1.48,5.16,5.16,0,0,1,6.5.72a5.16,5.16,0,0,1,2.77.76,3,3,0,0,1,1.44,2.63ZM2.29,19.36a4.05,4.05,0,0,1,1.24-3,4.06,4.06,0,0,1,3-1.25,4.06,4.06,0,0,1,3,1.25,4.16,4.16,0,0,1,0,5.93,4.09,4.09,0,0,1-3,1.24,4.09,4.09,0,0,1-3-1.24A4.09,4.09,0,0,1,2.29,19.36Zm18-4v4.84c0,.94.73,1.41,2.2,1.41s2.21-.47,2.21-1.41V15.35A6,6,0,0,0,23,10.84a6.16,6.16,0,0,0-4.45-1.7h-8a1.71,1.71,0,0,1-1.28-.52A1.75,1.75,0,0,1,8.7,7.34V4.13c0-.93-.73-1.4-2.2-1.4s-2.2.46-2.2,1.4V7.32c0,.13,0,.45.08,1C5,11.77,7,13.51,10.51,13.51h8a1.75,1.75,0,0,1,1.29.52A1.79,1.79,0,0,1,20.33,15.32Zm-16,4a2.09,2.09,0,0,0,.64,1.56,2.1,2.1,0,0,0,1.56.65,2.11,2.11,0,0,0,1.56-.65,2.09,2.09,0,0,0,.64-1.56,2.19,2.19,0,0,0-2.2-2.2,2.09,2.09,0,0,0-1.56.64A2.12,2.12,0,0,0,4.3,19.36Z"/><path d="M33,23.57c-.16,0-.59,0-1.28-.12a8.26,8.26,0,0,1-5.07-2.63,7.94,7.94,0,0,1-1.86-5.47A7.89,7.89,0,0,1,27.1,9.44,8,8,0,0,1,33,7.14h6c.17,0,.59,0,1.29.12a8.31,8.31,0,0,1,5.07,2.62,8,8,0,0,1,1.86,5.47,7.89,7.89,0,0,1-2.36,5.91A8.06,8.06,0,0,1,39,23.57Zm0-2h6c.14,0,.46,0,1-.08q5.25-.89,5.25-6.14a6,6,0,0,0-1.77-4.51A6.16,6.16,0,0,0,39,9.14H33c-.13,0-.45,0-1,.08q-5.25.88-5.25,6.13a6,6,0,0,0,1.76,4.51A6.14,6.14,0,0,0,33,21.57Zm0-8h6a1.73,1.73,0,0,1,1.31.52,1.9,1.9,0,0,1,0,2.57,1.77,1.77,0,0,1-1.31.52H33a1.75,1.75,0,0,1-1.3-.52,1.9,1.9,0,0,1,0-2.57A1.71,1.71,0,0,1,33,13.55Z"/><path d="M53.59,15.15H64.22a3,3,0,0,1,2.64,1.45,5,5,0,0,1,.76,2.76,5.08,5.08,0,0,1-.76,2.77,3,3,0,0,1-2.64,1.44H53.39c-.16,0-.58,0-1.28-.12A8.26,8.26,0,0,1,47,20.82a7.94,7.94,0,0,1-1.86-5.47V10.54A3,3,0,0,1,46.62,7.9a5.41,5.41,0,0,1,5.53,0,3,3,0,0,1,1.44,2.64Zm-1.16,6.34a6.89,6.89,0,0,0,1,.08H64.22c.93,0,1.4-.74,1.4-2.21s-.47-2.2-1.4-2.2H53.39a1.78,1.78,0,0,1-1.28-.52,1.75,1.75,0,0,1-.52-1.29V10.54c0-.93-.74-1.4-2.2-1.4s-2.21.47-2.21,1.4v4.81Q47.18,20.6,52.43,21.49Z"/><path d="M82.77,22.57a2.53,2.53,0,0,1-2.12,1H73.83c-.16,0-.58,0-1.28-.12a8.26,8.26,0,0,1-5.07-2.63,7.94,7.94,0,0,1-1.86-5.47A7.93,7.93,0,0,1,68,9.44a8,8,0,0,1,5.85-2.3h8A7.93,7.93,0,0,1,87.76,9.5a8.06,8.06,0,0,1,2.31,5.85v4.81a3,3,0,0,1-1.45,2.65,5.1,5.1,0,0,1-2.76.76A4.81,4.81,0,0,1,82.77,22.57Zm.88-7.22v4.81c0,.94.74,1.41,2.21,1.41s2.2-.47,2.2-1.41V15.35c0-.13,0-.45-.08-1q-.89-5.25-6.13-5.25h-8c-.13,0-.45,0-1,.08q-5.25.88-5.25,6.13a6,6,0,0,0,1.75,4.51,6.09,6.09,0,0,0,4.43,1.71h6.77a1.21,1.21,0,0,0,1.08-.73V17.76a1.18,1.18,0,0,0-1-.6H73.83a1.78,1.78,0,0,1-1.28-.52,1.81,1.81,0,0,1,1.28-3.09h8a1.78,1.78,0,0,1,1.8,1.8Z"/><path d="M95,23.45a8.26,8.26,0,0,1-5.07-2.63,7.9,7.9,0,0,1-1.87-5.47,7.9,7.9,0,0,1,2.37-5.91,8,8,0,0,1,5.85-2.3H107.1a3,3,0,0,1,2.65,1.44,5.1,5.1,0,0,1,.76,2.76q0,3.14-2.25,4,2.25.84,2.25,4a5.16,5.16,0,0,1-.76,2.77,3,3,0,0,1-2.65,1.44H96.28C96.12,23.57,95.69,23.53,95,23.45Zm.32-2a6.65,6.65,0,0,0,1,.08H107.1c.94,0,1.4-.74,1.4-2.21s-.46-2.2-1.4-2.2H96.28A1.81,1.81,0,0,1,95,14.07a1.71,1.71,0,0,1,1.28-.52H107.1c.94,0,1.4-.74,1.4-2.21s-.46-2.2-1.4-2.2H96.28c-.14,0-.46,0-1,.08q-5.25.88-5.25,6.13T95.32,21.49Z"/><path d="M116.92,20.16a3,3,0,0,1-1.44,2.65,5.41,5.41,0,0,1-5.53,0,3,3,0,0,1-1.45-2.65V15.35a7.91,7.91,0,0,1,1.87-5.47,8.25,8.25,0,0,1,5.07-2.62c.69-.08,1.12-.12,1.28-.12h10.82a3,3,0,0,1,2.65,1.44,5.1,5.1,0,0,1,.76,2.76,5.11,5.11,0,0,1-.76,2.77,3,3,0,0,1-2.65,1.44H116.92Zm-6.41-4.81v4.81c0,.94.73,1.41,2.2,1.41s2.21-.47,2.21-1.41V15.35a1.74,1.74,0,0,1,.52-1.28,1.71,1.71,0,0,1,1.28-.52h10.82c.94,0,1.4-.74,1.4-2.21s-.46-2.2-1.4-2.2H116.72a6.77,6.77,0,0,0-1,.08Q110.51,10.11,110.51,15.35Z"/><path d="M146.1,22.57a2.55,2.55,0,0,1-2.13,1h-6.81c-.16,0-.59,0-1.28-.12a8.26,8.26,0,0,1-5.07-2.63,7.9,7.9,0,0,1-1.87-5.47,7.9,7.9,0,0,1,2.37-5.91,8,8,0,0,1,5.85-2.3h8a7.93,7.93,0,0,1,5.91,2.36,8.09,8.09,0,0,1,2.3,5.85v4.81A3,3,0,0,1,152,22.81a5.11,5.11,0,0,1-2.77.76A4.79,4.79,0,0,1,146.1,22.57Zm.88-7.22v4.81c0,.94.73,1.41,2.2,1.41s2.21-.47,2.21-1.41V15.35c0-.13,0-.45-.08-1q-.88-5.25-6.13-5.25h-8c-.13,0-.45,0-1,.08q-5.25.88-5.25,6.13a6,6,0,0,0,1.75,4.51,6.07,6.07,0,0,0,4.42,1.71h6.78a1.23,1.23,0,0,0,1.08-.73V17.76a1.19,1.19,0,0,0-1-.6h-6.81a1.82,1.82,0,0,1-1.28-3.09,1.71,1.71,0,0,1,1.28-.52h8a1.78,1.78,0,0,1,1.8,1.8Z"/><path d="M159.4,19.36a3.91,3.91,0,0,1,2.41-3.81h-7a3,3,0,0,1-2.64-1.44,5,5,0,0,1-.76-2.77,5,5,0,0,1,.76-2.76,3,3,0,0,1,2.64-1.44h17.64a3,3,0,0,1,2.65,1.44,5.1,5.1,0,0,1,.76,2.76,5.11,5.11,0,0,1-.76,2.77,3,3,0,0,1-2.65,1.44h-7a3.9,3.9,0,0,1,2.4,3.81,4.21,4.21,0,0,1-8.42,0Zm-6-8c0,1.47.47,2.21,1.4,2.21h17.64c.94,0,1.4-.74,1.4-2.21s-.46-2.2-1.4-2.2H154.79C153.86,9.14,153.39,9.88,153.39,11.34Zm8,8a2.09,2.09,0,0,0,.64,1.56,2.21,2.21,0,0,0,3.77-1.56,2.16,2.16,0,0,0-.64-1.56,2.21,2.21,0,0,0-3.77,1.56Z"/><path d="M23.42,34.85h-2a3,3,0,0,1-2.64-1.45A5,5,0,0,1,18,30.64a5.08,5.08,0,0,1,.76-2.77,3,3,0,0,1,2.64-1.44H34.24c.16,0,.59,0,1.28.12a8.26,8.26,0,0,1,5.07,2.63,7.9,7.9,0,0,1,1.87,5.47,7.9,7.9,0,0,1-2.37,5.91,8,8,0,0,1-5.85,2.3H26.42v3A3,3,0,0,1,25,48.51a5.35,5.35,0,0,1-5.53,0A3,3,0,0,1,18,45.87V42.66c0-.16,0-.58.12-1.28C18.72,37.93,20.48,35.76,23.42,34.85Zm2.8,6h8c.13,0,.45,0,1-.08q5.25-.89,5.25-6.13a6,6,0,0,0-1.76-4.51,6.14,6.14,0,0,0-4.45-1.71H21.41c-.93,0-1.4.74-1.4,2.21s.47,2.2,1.4,2.2H34.24A1.78,1.78,0,0,1,36,34.65a1.78,1.78,0,0,1-1.8,1.8h-8a6,6,0,0,0-4.5,1.76A6.14,6.14,0,0,0,20,42.66v3.21c0,.93.74,1.4,2.21,1.4s2.2-.47,2.2-1.4V42.66a1.78,1.78,0,0,1,1.8-1.8Z"/><path d="M55,34.45V29.84a3,3,0,0,1,1.44-2.65,5.43,5.43,0,0,1,5.54,0,3,3,0,0,1,1.44,2.65v4.81c0,.16,0,.59-.12,1.28A8.26,8.26,0,0,1,60.71,41a7.94,7.94,0,0,1-5.47,1.86h-6c-.16,0-.59,0-1.28-.12a8.25,8.25,0,0,1-5.07-2.62A8,8,0,0,1,41,34.65V29.84a3,3,0,0,1,1.45-2.65,5.41,5.41,0,0,1,5.53,0,3,3,0,0,1,1.44,2.65v4.61Zm-5.81,6.41h6a6,6,0,0,0,4.51-1.76,6.13,6.13,0,0,0,1.7-4.45V29.84c0-.94-.73-1.41-2.2-1.41s-2.2.47-2.2,1.41v4.81a1.74,1.74,0,0,1-.53,1.28,1.71,1.71,0,0,1-1.28.52h-6a1.78,1.78,0,0,1-1.8-1.8V29.84c0-.94-.74-1.41-2.21-1.41S43,28.9,43,29.84v4.81a6,6,0,0,0,1.76,4.51A6.18,6.18,0,0,0,49.23,40.86Z"/><path d="M78.45,34.45h4.61a3,3,0,0,1,2.64,1.44,5.41,5.41,0,0,1,0,5.53,3,3,0,0,1-2.64,1.44H78.25a7.8,7.8,0,0,1-5.89-2.32A8.35,8.35,0,0,1,70,34.85H65.42a3,3,0,0,1-2.64-1.45A5,5,0,0,1,62,30.64a5.08,5.08,0,0,1,.76-2.77,3,3,0,0,1,2.64-1.44h4.81a7.8,7.8,0,0,1,5.85,2.27A8.5,8.5,0,0,1,78.45,34.45Zm-.2,6.41h4.81c.93,0,1.4-.74,1.4-2.2s-.47-2.21-1.4-2.21H78.25A1.71,1.71,0,0,1,77,35.93a1.74,1.74,0,0,1-.53-1.28,9.52,9.52,0,0,0-.08-1c-.58-3.5-2.63-5.26-6.13-5.26H65.42c-.93,0-1.4.74-1.4,2.21s.47,2.2,1.4,2.2h4.81A1.79,1.79,0,0,1,72,34.65c0,.13,0,.45.08,1C72.7,39.11,74.75,40.86,78.25,40.86Z"/><path d="M101.45,34.45h4.61a3,3,0,0,1,2.65,1.44,5.41,5.41,0,0,1,0,5.53,3,3,0,0,1-2.65,1.44h-4.81a7.82,7.82,0,0,1-5.89-2.32A8.34,8.34,0,0,1,93,34.85H88.43a3,3,0,0,1-2.65-1.45A5.1,5.1,0,0,1,85,30.64a5.16,5.16,0,0,1,.76-2.77,3,3,0,0,1,2.65-1.44h4.81a7.8,7.8,0,0,1,5.85,2.27A8.45,8.45,0,0,1,101.45,34.45Zm-.2,6.41h4.81c.94,0,1.41-.74,1.41-2.2s-.47-2.21-1.41-2.21h-4.81a1.78,1.78,0,0,1-1.8-1.8c0-.14,0-.46-.08-1-.59-3.5-2.63-5.26-6.13-5.26H88.43c-.94,0-1.4.74-1.4,2.21s.46,2.2,1.4,2.2h4.81a1.78,1.78,0,0,1,1.28.52A1.75,1.75,0,0,1,95,34.65c0,.13,0,.45.08,1Q96,40.86,101.25,40.86Z"/><path d="M116.44,34.45h10.63a3,3,0,0,1,2.64,1.44,5.41,5.41,0,0,1,0,5.53,3,3,0,0,1-2.64,1.44H116.24c-.16,0-.58,0-1.28-.12a8.25,8.25,0,0,1-5.07-2.62A8,8,0,0,1,108,34.65V29.84a3,3,0,0,1,1.44-2.65,5.41,5.41,0,0,1,5.53,0,3,3,0,0,1,1.44,2.65Zm-1.16,6.33a6.89,6.89,0,0,0,1,.08h10.83c.93,0,1.4-.74,1.4-2.2s-.47-2.21-1.4-2.21H116.24a1.78,1.78,0,0,1-1.8-1.8V29.84c0-.94-.74-1.41-2.2-1.41S110,28.9,110,29.84v4.81Q110,39.9,115.28,40.78Z"/><path d="M147.47,34.45h2.6a3,3,0,0,1,2.65,1.44,5.41,5.41,0,0,1,0,5.53,3,3,0,0,1-2.65,1.44H137.25c-.17,0-.59,0-1.29-.12a8.28,8.28,0,0,1-5.07-2.62A8,8,0,0,1,129,34.65a7.89,7.89,0,0,1,2.36-5.91,8.06,8.06,0,0,1,5.86-2.31h2a7.82,7.82,0,0,1,5.85,2.25A8.47,8.47,0,0,1,147.47,34.45Zm-11.19,6.33a6.9,6.9,0,0,0,1,.08h12.82c.94,0,1.4-.74,1.4-2.2s-.46-2.21-1.4-2.21h-3.61a.89.89,0,0,1-1-1v-.8c0-.14,0-.46-.08-1-.59-3.5-2.63-5.26-6.13-5.26h-2c-.14,0-.46,0-1,.08Q131,29.4,131,34.65T136.28,40.78Zm4.49-7.09a1.71,1.71,0,0,1,.28,1v.8a.88.88,0,0,1-1,1h-2.8a1.8,1.8,0,0,1-1.31-.5,1.77,1.77,0,0,1-.5-1.3,1.72,1.72,0,0,1,1.81-1.81h2A1.62,1.62,0,0,1,140.77,33.69Z"/></svg>