<svg id="Слой_1" data-name="Слой 1" xmlns="http://www.w3.org/2000/svg" viewBox="0 0 68.82 50"><defs><style>.cls-1{fill:#db2878;}</style></defs><path class="cls-1" d="M12.43,37.68V44.9A1.35,1.35,0,0,1,11,46.32H6.44a.19.19,0,0,0-.14.07.19.19,0,0,0,0,.11v1.61H1.31V36.26H11A1.38,1.38,0,0,1,12.43,37.68ZM6.27,39.53v3.26a.17.17,0,0,0,.17.17H7.52a.19.19,0,0,0,.12-.05.2.2,0,0,0,.05-.13V39.53a.17.17,0,0,0-.17-.17H6.44a.17.17,0,0,0-.17.17Z"/><path class="cls-1" d="M24.92,36.26V46.69a1.43,1.43,0,0,1-1.43,1.42H15.21a1.38,1.38,0,0,1-1.42-1.42V36.26h4.74v8.57a.17.17,0,0,0,.17.17h1.08a.17.17,0,0,0,.17-.17V36.26Z"/><path class="cls-1" d="M26.27,48.11V44l2.22-3.53H26.3V36.26H35v4.16L32.79,44H35v4.16Z"/><path class="cls-1" d="M36.33,48.11V44l2.22-3.53H36.36V36.26H45v4.16L42.85,44H45v4.16Z"/><path class="cls-1" d="M55,45l0,3.1H46.39V36.26h4.94v8.58a.19.19,0,0,0,.17.17Z"/><path class="cls-1" d="M67.54,36.26l0,3.1h-6a.17.17,0,0,0-.17.17v.91a.17.17,0,0,0,.17.17h3.82v3.1H61.55a.17.17,0,0,0-.17.17v1a.17.17,0,0,0,.17.17h6v3.1h-9.7a1.39,1.39,0,0,1-1.43-1.42v-9a1.39,1.39,0,0,1,1.43-1.42Z"/><path class="cls-1" d="M32.45,1.89V35.12H19.11V24a.62.62,0,0,0-.14-.33.51.51,0,0,0-.38-.19H15.65a.51.51,0,0,0-.38.19.62.62,0,0,0-.14.33V35.12H1.26V1.89H15.17v11.2a.49.49,0,0,0,.15.33.51.51,0,0,0,.33.14h3a.51.51,0,0,0,.33-.14.61.61,0,0,0,.14-.38V1.89Z"/><path class="cls-1" d="M50.11,25.67v9.45H36.25V1.89h27.2a3.9,3.9,0,0,1,4,4v15.8a3.79,3.79,0,0,1-4,4h-.57l4.51,9.45H54.05Zm0-14.62v9.16a.51.51,0,0,0,.14.33.49.49,0,0,0,.33.15h3a.49.49,0,0,0,.33-.15.61.61,0,0,0,.14-.38V11.05a.51.51,0,0,0-.14-.33.49.49,0,0,0-.33-.15h-3a.49.49,0,0,0-.33.15A.51.51,0,0,0,50.16,11.05Z"/></svg>