<svg id="Слой_1" data-name="Слой 1" xmlns="http://www.w3.org/2000/svg" viewBox="0 0 184.81 50"><defs><style>.cls-1{fill:#616160;}</style></defs><path class="cls-1" d="M60.89,14.39h5.28c.11,0,.19-.08.25-.22a1.9,1.9,0,0,0,.14-.51,3.68,3.68,0,0,0,.07-.58c0-.2,0-.35,0-.46V5.29h6.58v9a4.66,4.66,0,0,1-.13.93,5.18,5.18,0,0,1-.36,1.07,3.58,3.58,0,0,1-.57.89,1,1,0,0,1-.74.41l-.59,0,2.39,5.78H66.64l-2.39-5.78H60.89v5.78H54.34V5.33l0,0h6.58Z"/><path class="cls-1" d="M89.54,23.41V19H81.68l-.16.41v4H75V19q1.14-3.3,2.41-6.24T80,6.71a1.55,1.55,0,0,1,.21-.33c.11-.16.24-.31.37-.47A4.36,4.36,0,0,1,81,5.48a.65.65,0,0,1,.38-.19H96.05V23.41ZM83,15.71h6.57V8.13H85.93Z"/><path class="cls-1" d="M101.72,5.29a1.56,1.56,0,0,1,.39.1,4.51,4.51,0,0,1,.57.25,5.35,5.35,0,0,1,.56.36,2.5,2.5,0,0,1,.46.46q1.55,1.61,3.07,3.3c1,1.13,2,2.3,3,3.49v-8h6.58V23.41h-3.9a1.09,1.09,0,0,1-.54-.25,4.48,4.48,0,0,1-.57-.52c-.19-.2-.37-.4-.55-.61l-.48-.57-5.89-6.29v8.24H97.88V5.29Z"/><path class="cls-1" d="M139.23,20.13A7.8,7.8,0,0,1,139,21.7a3.24,3.24,0,0,1-.62,1.23,1.44,1.44,0,0,1-1.16.48h-19V5.29h12a2.21,2.21,0,0,1,.7.16,2.29,2.29,0,0,1,.66.38,35.64,35.64,0,0,1,3.54,3.52c1.1,1.26,2.18,2.65,3.25,4.15a7.26,7.26,0,0,1,.79,2.44,22.24,22.24,0,0,1,.16,2.66C139.28,19.06,139.26,19.57,139.23,20.13Zm-7,0,.47-.44v-2L131,15.3h-4.62V12h2.33l-1.89-2.74a3.36,3.36,0,0,0-.38-.38,4.62,4.62,0,0,0-.55-.41l-.6-.33a1.31,1.31,0,0,0-.52-.14V20.17Z"/><path class="cls-1" d="M155.6,23.41V19h-7.86l-.16.41v4H141.1V19q1.14-3.3,2.41-6.24t2.56-6.06a1.85,1.85,0,0,1,.2-.33c.12-.16.25-.31.38-.47a4.36,4.36,0,0,1,.43-.43.65.65,0,0,1,.37-.19h14.66V23.41ZM149,15.71h6.57V8.13H152Z"/><path class="cls-1" d="M167.78,5.29a1.56,1.56,0,0,1,.39.1,4.51,4.51,0,0,1,.57.25,6.65,6.65,0,0,1,.56.36,2.5,2.5,0,0,1,.46.46c1,1.07,2.05,2.17,3.06,3.3s2,2.3,3,3.49v-8h6.57V23.41h-3.9a1.1,1.1,0,0,1-.53-.25,4.48,4.48,0,0,1-.57-.52c-.19-.2-.37-.4-.55-.61l-.49-.57-5.88-6.29v8.24h-6.57V5.29Z"/><path class="cls-1" d="M68.12,26.59a.64.64,0,0,1,.39.15,3.51,3.51,0,0,1,.41.37,1.7,1.7,0,0,1,.35.45,3.11,3.11,0,0,1,.2.44c.63,1.32,1.22,2.7,1.77,4.12S72.36,35,73,36.34c0,0,0,.1,0,.23s0,.26,0,.37a5.28,5.28,0,0,1-.1.94A5.63,5.63,0,0,1,72.6,39a3.23,3.23,0,0,1-.51.92.92.92,0,0,1-.73.38H60.89v4.41H54.31V26.59ZM60.89,37h4.59c.08,0,.16-.08.22-.24a2.53,2.53,0,0,0,.14-.51c0-.19.06-.38.08-.57s0-.32,0-.38a5,5,0,0,0-.35-1.45c-.23-.65-.49-1.3-.78-2s-.57-1.24-.82-1.75a4.93,4.93,0,0,0-.41-.75h-2.7Z"/><path class="cls-1" d="M74.54,26.59h6.64V40.46a2.48,2.48,0,0,0,.06.27.53.53,0,0,0,.22.33l.28.25h4.91V26.59h6.57V44.71H77.5a2.24,2.24,0,0,1-1.2-.34,3,3,0,0,1-.93-.89,4.92,4.92,0,0,1-.83-2.74Z"/><path class="cls-1" d="M95.08,26.59h14.47c.15,0,.22.38.22,1.16a3.49,3.49,0,0,1-.22,1.29l-7.36,11.45a2.74,2.74,0,0,0-.16.28.78.78,0,0,0-.09.26l0,.31c0,.08,0,.13.06.13h3.27v-1.2h4.5v4.44H95.08V40.18l6.7-10.79H95.11Z"/><path class="cls-1" d="M111.63,26.59h14.46c.15,0,.23.38.23,1.16a3.49,3.49,0,0,1-.23,1.29l-7.36,11.45a3.08,3.08,0,0,0-.15.28.66.66,0,0,0-.1.26l0,.31c0,.08,0,.13.06.13h3.28v-1.2h4.49v4.44H111.63V40.18l6.7-10.79h-6.67Z"/><path class="cls-1" d="M140.66,29.42h-1.73c-.11,0-.27.21-.49.64s-.48,1-.77,1.64-.59,1.4-.9,2.22-.58,1.61-.83,2.37-.46,1.46-.63,2.09a5.91,5.91,0,0,0-.25,1.39c0,.06,0,.19,0,.37a5.62,5.62,0,0,0,.09.57c0,.19.09.36.15.52s.12.24.2.24h8.65v3.24H129.46a.9.9,0,0,1-.71-.38,3.3,3.3,0,0,1-.5-.91,5.36,5.36,0,0,1-.3-1.11,6.1,6.1,0,0,1-.09-.94c0-.1,0-.23,0-.38s0-.23,0-.25q1.12-3.24,2.4-6.37c.85-2.08,1.71-4.21,2.57-6.37l.14-.17.25-.33c.09-.13.19-.25.28-.36l.24-.27a1.27,1.27,0,0,1,.24-.17.48.48,0,0,1,.23-.11h6.42Z"/><path class="cls-1" d="M146.16,37.23A7.21,7.21,0,0,1,147,34.8l.06-.13c1.07-1.45,2.16-2.79,3.26-4a39.31,39.31,0,0,1,3.47-3.48,2.12,2.12,0,0,1,.68-.41,2.2,2.2,0,0,1,.71-.15H166v2.7h-5.53a1.31,1.31,0,0,0-.52.14q-.3.15-.6.33a6,6,0,0,0-.55.41,4.47,4.47,0,0,0-.38.38l-1.92,2.74h7.24v3.3h-9.53L152.58,39v2l.44.44h13v3.24h-18a1.44,1.44,0,0,1-1.16-.49,3.23,3.23,0,0,1-.61-1.23,7.8,7.8,0,0,1-.26-1.57c0-.56,0-1.07,0-1.53A22.31,22.31,0,0,1,146.16,37.23Z"/><rect class="cls-1" x="11.3" y="27.4" width="8.31" height="8.31"/><polygon class="cls-1" points="48.05 43.96 19.64 43.95 19.69 35.65 48.11 35.66 48.05 43.96"/><rect class="cls-1" x="2.83" y="35.76" width="8.5" height="8.5"/><circle class="cls-1" cx="7.04" cy="31.55" r="4.21"/><circle class="cls-1" cx="33.21" cy="20.48" r="15.19"/></svg>