<svg id="Слой_1" data-name="Слой 1" xmlns="http://www.w3.org/2000/svg" viewBox="0 0 74.1 50"><defs><style>.cls-1{fill:#eef3f8;}.cls-2{fill:#d4ebea;}.cls-3{fill:#e7e1f1;}.cls-4{fill:#b9dfe0;}.cls-5{fill:#c3d0e5;}.cls-6{fill:#d4cde7;}.cls-7{fill:#9dd4d2;}.cls-8{fill:#9ebcd6;}.cls-9{fill:#c4bedf;}.cls-10{fill:#9d97ca;}.cls-11{fill:#b1add6;}.cls-12{fill:#8c82bd;}.cls-13{fill:#7e6fb1;}.cls-14{fill:#695aa3;}.cls-15{fill:#5b4b99;}.cls-16{fill:#6d56a0;}</style></defs><path class="cls-1" d="M19.53,45.64c-.44,0-.88,0-1.32,0-.61,0-1.22-.12-1.82-.21a18.79,18.79,0,0,1-2.78-.68c-.5-.15-1-.35-1.47-.55s-1.08-.51-1.61-.79A14.7,14.7,0,0,1,9,42.47c-.48-.33-.94-.68-1.39-1-.21-.15-.39-.33-.59-.5s-.67-.63-1-1a19.31,19.31,0,0,1-1.32-1.53c-.35-.44-.66-.9-1-1.37A10.28,10.28,0,0,1,3.14,36c-.25-.51-.52-1-.74-1.52s-.35-.89-.51-1.35a16.16,16.16,0,0,1-.5-1.81c-.13-.62-.24-1.23-.31-1.86,0-.36-.09-.72-.1-1.09A2.73,2.73,0,0,1,1,28c0-.23,0-.45,0-.68,0-.47,0-.94.08-1.41a19.4,19.4,0,0,1,.27-2,16.08,16.08,0,0,1,.41-1.66c.14-.5.32-1,.5-1.48s.27-.68.43-1a17.23,17.23,0,0,1,2.44-3.85c.33-.39.68-.76,1-1.13a15.65,15.65,0,0,1,2-1.71,10.11,10.11,0,0,1,1-.65c.4-.23.79-.47,1.21-.67s.81-.38,1.23-.52a4.23,4.23,0,0,1,1.31-.3l.21,0a1.5,1.5,0,0,1,.79.22c.13.06.15.14.19.25a.36.36,0,0,1,0,.32.11.11,0,0,0,0,.11.17.17,0,0,1,0,.14c-.07.21,0,.43-.08.64a3.83,3.83,0,0,0-.14,1c0,.49,0,1,0,1.45A8.57,8.57,0,0,0,14,16.22c0,.29.1.57.16.85a1.74,1.74,0,0,0,.17.45,8.19,8.19,0,0,1,.39.85c.05.11.14.18.2.29a2.55,2.55,0,0,0,.47.61c.06.06.06.14.12.2a.66.66,0,0,0,.71.1,2.22,2.22,0,0,0,.59-.31c.09-.07.13-.21.25-.28s.48-.4.75-.57.41-.2.49-.44a.27.27,0,0,1,.1-.08c.43-.23.8-.55,1.22-.79a2.64,2.64,0,0,1,.29-.15c.13-.07.23-.18.36-.26.32-.17.62-.36,1-.52.12-.06.22-.15.33-.21a2.28,2.28,0,0,1,.72-.31.66.66,0,0,0,.33-.2.38.38,0,0,1,.15-.09,3,3,0,0,0,.56-.24h0c.31,0,.53-.25.82-.33a5.25,5.25,0,0,0,.52-.17c.28-.12.58-.19.87-.29s.37-.08.55-.14.39-.09.58-.17a2.93,2.93,0,0,1,.6-.15h0c.16-.06.3-.23.49-.07.1-.14.24-.09.38-.07s.05,0,.06,0,.17-.07.26,0a.65.65,0,0,0,.31,0,.67.67,0,0,1,.37,0,.22.22,0,0,0,.13,0,1.33,1.33,0,0,1,.87.2,1.11,1.11,0,0,0,.29.1c.21.07.34.26.52.3a3,3,0,0,1,.67.42,2.06,2.06,0,0,1,.55.42c.23.25.52.43.75.68l.91,1c.32.36.58.76.87,1.14a8.94,8.94,0,0,1,.78,1.15c.19.35.41.69.58,1.05.26.55.5,1.11.73,1.68a15.22,15.22,0,0,1,.72,2.56c.09.45.13.91.19,1.37s.09,1.05.11,1.58a10.56,10.56,0,0,1,0,1.38c-.05.61-.12,1.22-.21,1.82a21,21,0,0,1-.5,2.22,16.46,16.46,0,0,1-.87,2.34A19.48,19.48,0,0,1,35,37.25a16.36,16.36,0,0,1-1,1.39,8.23,8.23,0,0,1-.79,1c-.45.46-.89.94-1.38,1.36s-1.11.92-1.7,1.33A19.18,19.18,0,0,1,28,43.63a17.32,17.32,0,0,1-1.92.86c-.46.17-.94.31-1.41.45a17.91,17.91,0,0,1-1.9.42c-.43.08-.87.14-1.31.18a13,13,0,0,1-1.53.1A.83.83,0,0,1,19.53,45.64ZM16.06,25.11c-.06-.05-.18,0-.2-.12s-.09-.1-.12-.14-.18-.07-.19-.18a.3.3,0,0,0-.3-.27.89.89,0,0,1-.53-.1.47.47,0,0,0-.35,0,.72.72,0,0,1-.75-.34.08.08,0,0,1,0-.08c.05-.07,0-.11,0-.16s-.12-.1,0-.17,0-.12,0-.17-.17-.09-.12-.18,0-.14,0-.19-.17-.13-.06-.24,0-.06,0-.08a4.27,4.27,0,0,1-.56-.71,7.75,7.75,0,0,1-.66-1.28c-.18-.41-.37-.82-.51-1.25a10.86,10.86,0,0,1-.31-1.25c-.05-.21-.06-.43-.11-.64a5.2,5.2,0,0,1-.21-1.23s0-.07,0-.1-.11-.35-.07-.54a.53.53,0,0,0,0-.25,4.12,4.12,0,0,1-.05-.93c0-.22,0-.46,0-.69a.66.66,0,0,0-.19-.46c-.06-.09-.16,0-.25,0a.13.13,0,0,1-.09,0,.51.51,0,0,0-.3,0,4,4,0,0,0-1.16.48,12,12,0,0,0-2.19,1.64,12.22,12.22,0,0,0-.87.89,16,16,0,0,0-1.14,1.44A16.74,16.74,0,0,0,3,20.75a20.1,20.1,0,0,0-.82,2.41,14.82,14.82,0,0,0-.33,1.61,14.38,14.38,0,0,0-.22,2.17,17.85,17.85,0,0,0,.09,2.31c.05.44.11.88.19,1.32A15.5,15.5,0,0,0,2.5,33a17,17,0,0,0,2.61,5,20.77,20.77,0,0,0,1.57,1.81A17.12,17.12,0,0,0,8.5,41.33a16.69,16.69,0,0,0,1.63,1.11,15.9,15.9,0,0,0,2,1.06,14.82,14.82,0,0,0,1.56.61,27.37,27.37,0,0,0,2.7.69,12.53,12.53,0,0,0,2,.25.11.11,0,0,0,.09,0l1,0a16.75,16.75,0,0,0,1.87,0C22,45,22.5,45,23,44.88a11.66,11.66,0,0,0,1.92-.46A19.3,19.3,0,0,0,28.45,43a18,18,0,0,0,1.67-1.05,16.44,16.44,0,0,0,2-1.63,15.48,15.48,0,0,0,2-2.22,19.54,19.54,0,0,0,1.56-2.55,15.06,15.06,0,0,0,.9-2.21,17.55,17.55,0,0,0,.72-3.35c.07-.65.11-1.3.12-1.94,0-.43,0-.85-.06-1.28a11.82,11.82,0,0,0-.14-1.32,14,14,0,0,0-.3-1.43c-.14-.47-.27-.93-.43-1.39a11.61,11.61,0,0,0-.78-1.77,11,11,0,0,0-1.59-2.35A6.46,6.46,0,0,0,32.28,17a1.81,1.81,0,0,0-1-.23.48.48,0,0,1-.31,0,.22.22,0,0,0-.16,0,4.34,4.34,0,0,1-.63.09c-.22,0-.44,0-.66.08a3.41,3.41,0,0,1-.64.1,2.6,2.6,0,0,0-.58.1c-.23.08-.46.08-.69.16-.47.17-1,.28-1.45.42l-.62.2c-.12,0-.2.18-.31.16-.27-.05-.42.19-.64.24a1.88,1.88,0,0,0-.57.24c-.14.08-.32.14-.48.21-.42.18-.82.41-1.23.62a9.8,9.8,0,0,0-.87.55c-.21.14-.4.29-.61.41s-.28.23-.45.31a.62.62,0,0,0-.28.25.35.35,0,0,1-.19.15.52.52,0,0,0-.15.06,4.07,4.07,0,0,1-.59.51c-.14.11-.24.25-.39.35s-.49.27-.6.55a.1.1,0,0,1-.07.06c-.11,0-.17.06-.24.12a.67.67,0,0,1-.53.21.33.33,0,0,0-.14,0,.08.08,0,0,0-.06.1c0,.14.08.27.27.29a.36.36,0,0,1,.23.14c0,.06.09.14.16.15a.21.21,0,0,1,.13.25c0,.14.05.17.13.22s.14.13,0,.22a.37.37,0,0,0-.19.25.2.2,0,0,1-.17.16,1.64,1.64,0,0,0-.85.37.24.24,0,0,1-.24.07A3.69,3.69,0,0,0,16.06,25.11Z"/><path class="cls-2" d="M18.46,45.05a12.53,12.53,0,0,1-2-.25,27.37,27.37,0,0,1-2.7-.69,14.82,14.82,0,0,1-1.56-.61,15.9,15.9,0,0,1-2-1.06A16.69,16.69,0,0,1,8.5,41.33a17.12,17.12,0,0,1-1.82-1.59,20.77,20.77,0,0,1-1.57-1.81A17,17,0,0,1,2.5,33a15.5,15.5,0,0,1-.62-2.41c-.08-.44-.14-.88-.19-1.32a17.85,17.85,0,0,1-.09-2.31,14.38,14.38,0,0,1,.22-2.17,14.82,14.82,0,0,1,.33-1.61A20.1,20.1,0,0,1,3,20.75a16.74,16.74,0,0,1,1.61-2.94,16,16,0,0,1,1.14-1.44,12.22,12.22,0,0,1,.87-.89,12,12,0,0,1,2.19-1.64,4,4,0,0,1,1.16-.48.51.51,0,0,1,.3,0,.13.13,0,0,0,.09,0c.09,0,.19-.12.25,0a.66.66,0,0,1,.19.46c0,.23,0,.47,0,.69a4.12,4.12,0,0,0,.05.93.53.53,0,0,1,0,.25c0,.19.08.36.07.54s0,.06,0,.1a5.2,5.2,0,0,0,.21,1.23c.05.21.06.43.11.64a10.86,10.86,0,0,0,.31,1.25c.14.43.33.84.51,1.25A7.75,7.75,0,0,0,12.71,22a4.27,4.27,0,0,0,.56.71s.05.05,0,.08,0,.17.06.24.1.09,0,.19,0,.13.12.18.11.09,0,.17,0,.13,0,.17.09.09,0,.16a.08.08,0,0,0,0,.08.72.72,0,0,0,.75.34.47.47,0,0,1,.35,0,.89.89,0,0,0,.53.1.3.3,0,0,1,.3.27c0,.11.14.1.19.18s.1.07.12.14.14.07.2.12-.11.09-.16.13-.25.17-.3.3a.82.82,0,0,1-.28.38c-.07,0-.16.15-.14.2s-.07.2-.19.23-.1.06,0,.14.14.07.12.13.1.3.18.44-.21.12-.28.26-.15.32-.23.47a2.85,2.85,0,0,0-.28.55.58.58,0,0,0,.07.49c.05.08.12.14.11.24s0,.25.16.27c0,0,0,0,.06.06a1.1,1.1,0,0,0,.32.45s.07.06.06.09a.86.86,0,0,1-.13.52,4.08,4.08,0,0,0-.44.72c-.14,0-.22.17-.36.16a.22.22,0,0,0-.24.12c0,.06-.14.13-.17.08s-.24-.22-.24-.4a.5.5,0,0,0-.14-.33.58.58,0,0,1-.11-.18,3,3,0,0,0-.34-.58c0-.07-.07-.12,0-.19s-.09-.32-.06-.48l-.05-.05c-.21-.12-.32-.38-.57-.46,0,0,0,0-.06-.06a2.33,2.33,0,0,0-.42-.41.22.22,0,0,1-.12-.2.22.22,0,0,0-.14-.21.15.15,0,0,1-.09-.07q-.13-.18-.3-.36-.32-.35-.6-.72a3.73,3.73,0,0,0-.54-.65,1.56,1.56,0,0,1-.4-.55c-.13-.26-.25-.51-.37-.77a3.72,3.72,0,0,1-.21-.39c-.13-.48-.34-.93-.5-1.39-.1-.31-.17-.62-.28-.92s-.22-.75-.39-1.1a6.14,6.14,0,0,1-.27-.79c-.07-.21-.13-.44-.19-.66-.1-.43-.23-.85-.32-1.28,0-.15-.13-.29-.11-.41a.74.74,0,0,0-.19-.59c-.22-.29-.25-.3-.55-.1A5.3,5.3,0,0,0,5,18.54a12.65,12.65,0,0,0-1.54,2.7c-.18.44-.35.89-.51,1.34a15.87,15.87,0,0,0-.68,2.88c-.09.63-.11,1.27-.15,1.91,0,.34,0,.68,0,1,0,.7.12,1.41.23,2.11a17.29,17.29,0,0,0,.75,2.8A15,15,0,0,0,4.3,35.9a17,17,0,0,0,2.51,3.32,16.32,16.32,0,0,0,1.44,1.32A17.26,17.26,0,0,0,10,41.83a15.2,15.2,0,0,0,1.42.8c.5.24,1,.47,1.5.68a14.72,14.72,0,0,1,1.44.55,2.73,2.73,0,0,0,.43.16c.59.16,1.18.32,1.78.45s1,.13,1.46.19l0,0c.44.05.88.16,1.33.18.14,0,.28-.07.42,0a.13.13,0,0,1-.12.07c-.27,0-.53,0-.79,0A1.65,1.65,0,0,0,18.46,45.05Z"/><path class="cls-3" d="M15.25,27.06c-.08-.14-.22-.24-.18-.44s-.08-.09-.12-.13-.07-.12,0-.14.24-.05.19-.23.07-.15.14-.2a.82.82,0,0,0,.28-.38c.05-.13.2-.2.3-.3s.13-.06.16-.13a3.69,3.69,0,0,1,.58,0,.24.24,0,0,0,.24-.07,1.64,1.64,0,0,1,.85-.37.2.2,0,0,0,.17-.16.37.37,0,0,1,.19-.25c.14-.09.14-.13,0-.22s-.17-.08-.13-.22a.21.21,0,0,0-.13-.25c-.07,0-.12-.09-.16-.15a.36.36,0,0,0-.23-.14c-.19,0-.23-.15-.27-.29a.08.08,0,0,1,.06-.1.33.33,0,0,1,.14,0,.67.67,0,0,0,.53-.21c.07-.06.13-.13.24-.12a.1.1,0,0,0,.07-.06c.11-.28.37-.4.6-.55s.25-.24.39-.35a4.07,4.07,0,0,0,.59-.51.52.52,0,0,1,.15-.06.35.35,0,0,0,.19-.15.62.62,0,0,1,.28-.25c.17-.08.29-.22.45-.31s.4-.27.61-.41a9.8,9.8,0,0,1,.87-.55c.41-.21.81-.44,1.23-.62.16-.07.34-.13.48-.21a1.88,1.88,0,0,1,.57-.24c.22-.05.37-.29.64-.24.11,0,.19-.12.31-.16l.62-.2c.49-.14,1-.25,1.45-.42.23-.08.46-.08.69-.16a2.6,2.6,0,0,1,.58-.1,3.41,3.41,0,0,0,.64-.1c.22-.06.44,0,.66-.08a4.34,4.34,0,0,0,.63-.09.22.22,0,0,1,.16,0,.48.48,0,0,0,.31,0,1.81,1.81,0,0,1,1,.23,6.46,6.46,0,0,1,1.81,1.48,11,11,0,0,1,1.59,2.35,11.61,11.61,0,0,1,.78,1.77c.16.46.29.92.43,1.39a14,14,0,0,1,.3,1.43,11.82,11.82,0,0,1,.14,1.32c0,.43.07.85.06,1.28,0,.64,0,1.29-.12,1.94a17.55,17.55,0,0,1-.72,3.35,15.06,15.06,0,0,1-.9,2.21,19.54,19.54,0,0,1-1.56,2.55,15.48,15.48,0,0,1-2,2.22,16.44,16.44,0,0,1-2,1.63A18,18,0,0,1,28.45,43a19.3,19.3,0,0,1-3.51,1.47,11.66,11.66,0,0,1-1.92.46c-.52.07-1.05.14-1.58.18a16.75,16.75,0,0,1-1.87,0l-1,0a.11.11,0,0,1-.09,0A1.65,1.65,0,0,1,19,45c.26,0,.52,0,.79,0a.13.13,0,0,0,.12-.07,9.58,9.58,0,0,0,1.31-.06c.42,0,.83-.1,1.24-.15s.79-.14,1.19-.22a2.49,2.49,0,0,0,.79-.28c.53-.12,1.05-.3,1.57-.46a10.42,10.42,0,0,0,1.62-.67,19.25,19.25,0,0,0,2.25-1.29,16.31,16.31,0,0,0,1.87-1.44c.36-.32.69-.68,1-1A15.46,15.46,0,0,0,34,37.83a16.57,16.57,0,0,0,1-1.6,15.58,15.58,0,0,0,1.52-3.79c.15-.61.27-1.21.36-1.83a13.51,13.51,0,0,0,.16-2q0-1-.09-2a15.86,15.86,0,0,0-.29-1.81,12.21,12.21,0,0,0-.75-2.18,4.1,4.1,0,0,0-.58-.94c-.19-.23-.4-.45-.59-.68a1.58,1.58,0,0,0-1-.57,4.86,4.86,0,0,0-1-.07c-.21,0-.43,0-.64,0L31,20.35a7,7,0,0,0-.78.11c-.25.06-.51.07-.76.11s-.49.09-.73.15-.65.19-1,.26-.77.25-1.14.38a9.63,9.63,0,0,0-1.05.43,8.5,8.5,0,0,0-.81.38c-.4.24-.82.45-1.2.72s-.62.38-.91.61l-.68.5a6.65,6.65,0,0,1-.88.62,2.27,2.27,0,0,0-.32.22,2.48,2.48,0,0,1-.73.45,4,4,0,0,0-.84.32.92.92,0,0,0-.41.42.94.94,0,0,1-.3.38c-.06,0-.15.09-.15.14,0,.21-.17.29-.25.44s0,0,0,.07h-.42a.18.18,0,0,1-.12,0,.39.39,0,0,0-.45,0c-.2.24-.53.25-.75.44h-.05a.89.89,0,0,1-.59-.15C15.49,27.28,15.39,27.14,15.25,27.06Z"/><path class="cls-4" d="M18.07,44.66c-.49-.06-1-.09-1.46-.19s-1.19-.29-1.78-.45a2.73,2.73,0,0,1-.43-.16A14.72,14.72,0,0,0,13,43.31c-.51-.21-1-.44-1.5-.68a15.2,15.2,0,0,1-1.42-.8,17.26,17.26,0,0,1-1.79-1.29,16.32,16.32,0,0,1-1.44-1.32A17,17,0,0,1,4.3,35.9a15,15,0,0,1-1.21-2.6,17.29,17.29,0,0,1-.75-2.8c-.11-.7-.19-1.41-.23-2.11,0-.34,0-.68,0-1,0-.64.06-1.28.15-1.91a15.87,15.87,0,0,1,.68-2.88c.16-.45.33-.9.51-1.34A12.65,12.65,0,0,1,5,18.54a5.3,5.3,0,0,1,1.33-1.3c.3-.2.33-.19.55.1a.74.74,0,0,1,.19.59c0,.12.09.26.11.41.09.43.22.85.32,1.28.06.22.12.45.19.66a6.14,6.14,0,0,0,.27.79c.17.35.25.74.39,1.1s.18.61.28.92c.16.46.37.91.5,1.39a3.72,3.72,0,0,0,.21.39c.12.26.24.51.37.77a1.56,1.56,0,0,0,.4.55,3.73,3.73,0,0,1,.54.65q.29.38.6.72.16.18.3.36a.15.15,0,0,0,.09.07.22.22,0,0,1,.14.21.22.22,0,0,0,.12.2,2.33,2.33,0,0,1,.42.41s0,.05.06.06c.25.08.36.34.57.46l.05.05c0,.16.13.31.06.48s0,.12,0,.19a3,3,0,0,1,.34.58.58.58,0,0,0,.11.18.5.5,0,0,1,.14.33c0,.18.17.26.24.4s.13,0,.17-.08a.22.22,0,0,1,.24-.12c.14,0,.22-.15.36-.16s0,.18.11.21a.24.24,0,0,1,.17.32c0,.09,0,.12.08.15a.19.19,0,0,1,.16.21.56.56,0,0,0,.15.35c.09.13.06.31.14.45a.34.34,0,0,1,.06.32,1.45,1.45,0,0,1-.4.52.21.21,0,0,0-.06.23.23.23,0,0,1,0,.14A1.45,1.45,0,0,0,15,35.14a.41.41,0,0,0,0,.16.41.41,0,0,1-.25.55c-.06,0-.13.06-.07.1s0,.13,0,.19-.17.29-.25.43a.57.57,0,0,0,0,.67.25.25,0,0,1-.26.07c-.12,0-.26,0-.31.15s-.09.07-.16.06-.32.11-.47,0,0,0,0,0c-.17,0-.45-.08-.47-.27a.2.2,0,0,0-.12-.17.44.44,0,0,1-.2-.15,7.41,7.41,0,0,0-.58-.54,1.6,1.6,0,0,0-.27-.25c-.18-.12-.27-.32-.44-.45s-.06-.18-.13-.25-.24-.32-.43-.41a.13.13,0,0,1-.06-.09.47.47,0,0,0-.28-.37,2,2,0,0,1-.37-.34.1.1,0,0,1,0-.14.24.24,0,0,0,0-.29l-.38-.45A3.44,3.44,0,0,1,9,33a2.92,2.92,0,0,0-.32-.38A2.18,2.18,0,0,1,8.22,32c-.14-.3-.34-.57-.49-.85a3,3,0,0,0-.22-.44A2.15,2.15,0,0,1,7.14,30c-.14-.5-.44-.93-.59-1.41a3.62,3.62,0,0,0-.13-.35c-.13-.3-.25-.6-.37-.9s-.31-.67-.44-1A10,10,0,0,0,5,25.2c-.21-.43-.42-.85-.62-1.29a4.59,4.59,0,0,1-.31-.77c0-.08-.1-.14-.16-.09s-.22.13-.29.23a4.19,4.19,0,0,0-.52,1.09,10.3,10.3,0,0,0-.39,1.73,16.59,16.59,0,0,0-.15,1.73,13.69,13.69,0,0,0,.12,2c0,.44.12.87.2,1.3a13.42,13.42,0,0,0,.41,1.54A14.06,14.06,0,0,0,4,34.59a15.72,15.72,0,0,0,1.82,2.95c.32.41.65.81,1,1.19A15.17,15.17,0,0,0,8.8,40.47a19.09,19.09,0,0,0,2.71,1.72c.6.32,1.23.6,1.86.87a1.76,1.76,0,0,0,1,.21,1,1,0,0,1,.29,0c.35.07.71.09,1.06.19a1.44,1.44,0,0,0,.51.08l.07,0a6.45,6.45,0,0,0,.63.16s.15,0,.11.09a.67.67,0,0,1-.1.23c-.11.12,0,.11.07.13l.45.1s0,0,0,0a4.59,4.59,0,0,0,.56.18,1.8,1.8,0,0,1,.28.09C18.26,44.67,18.15,44.59,18.07,44.66Z"/><path class="cls-5" d="M15.54,33.19a.34.34,0,0,0-.06-.32c-.08-.14-.05-.32-.14-.45a.56.56,0,0,1-.15-.35.19.19,0,0,0-.16-.21c-.08,0-.09-.06-.08-.15a.24.24,0,0,0-.17-.32c-.1,0-.07-.14-.11-.21a4.08,4.08,0,0,1,.44-.72.86.86,0,0,0,.13-.52s0-.07-.06-.09a1.1,1.1,0,0,1-.32-.45s0-.06-.06-.06c-.18,0-.17-.14-.16-.27s-.06-.16-.11-.24a.58.58,0,0,1-.07-.49,2.85,2.85,0,0,1,.28-.55c.08-.15.16-.31.23-.47s.23-.13.28-.26c.14.08.24.22.38.3a.89.89,0,0,0,.59.15h.05c.22-.19.55-.2.75-.44a.39.39,0,0,1,.45,0,.18.18,0,0,0,.12,0H18c.06,0,.12,0,.12.09s0,.18.11.23,0,.07,0,.11,0,.15.13.08l.08,0c.37-.07.73-.2,1.09-.3.1,0,.11,0,.1.08a.48.48,0,0,1-.08.16c0,.05-.07.11,0,.16a.67.67,0,0,1,0,.46,4.34,4.34,0,0,1,0,.51.5.5,0,0,1-.12.24c-.13.18-.31.32-.43.5a2.11,2.11,0,0,1-.35.38c-.11.1-.28.16-.33.29a3.89,3.89,0,0,1-.25.5c0,.1-.11.21,0,.3s0,.07,0,.12c-.1.21.06.42,0,.64,0,.06.12.1.09.18s0,.37.1.54a5.59,5.59,0,0,1-.53,1,.46.46,0,0,0-.09.2.13.13,0,0,1-.13.14c-.09,0-.21,0-.24-.08s-.1-.11-.2-.1-.22.06-.31,0a.58.58,0,0,0-.54-.21A2.89,2.89,0,0,1,15.54,33.19Z"/><path class="cls-5" d="M18.07,44.66c.08-.07.19,0,.29-.06a1.8,1.8,0,0,0-.28-.09,4.59,4.59,0,0,1-.56-.18s0,0,0,0c.63,0,1.26.08,1.89.06a10.84,10.84,0,0,1,1.14,0,5.19,5.19,0,0,0,1.18-.11c.63-.08,1.26-.2,1.88-.31a.87.87,0,0,0,.23,0c.48-.1,1-.19,1.42-.31a.63.63,0,0,1,.3-.07c0,.06-.05.08-.1.09l-1.54.52s-.07,0-.05.07c.18,0,.37-.12.55,0a2.49,2.49,0,0,1-.79.28c-.4.08-.79.16-1.19.22s-.82.11-1.24.15a9.58,9.58,0,0,1-1.31.06c-.14-.09-.28,0-.42,0-.45,0-.89-.13-1.33-.18Z"/><path class="cls-6" d="M24.39,44.18c-.18-.09-.37,0-.55,0,0-.07,0-.06.05-.07l1.54-.52c.05,0,.1,0,.1-.09.45-.17.91-.32,1.36-.5a18.27,18.27,0,0,0,2.82-1.52,14.6,14.6,0,0,0,2.1-1.66,15.9,15.9,0,0,0,2.07-2.34,15.77,15.77,0,0,0,1.47-2.63,15,15,0,0,0,.74-2,13.84,13.84,0,0,0,.32-1.45A21.26,21.26,0,0,0,36.65,29a10.33,10.33,0,0,0-.06-1.47,12.86,12.86,0,0,0-.26-1.63,6.28,6.28,0,0,0-.62-1.73,2.73,2.73,0,0,0-.72-.9c-.13-.09-.22-.21-.34-.29a1,1,0,0,0-.65-.12c-.57,0-1.14.1-1.72.11-.13,0-.26,0-.39,0-.29,0-.56.06-.84.08a9,9,0,0,0-1.27.19,13.35,13.35,0,0,0-1.42.34c-.43.14-.86.28-1.28.46s-.91.43-1.36.65-.91.49-1.36.73-1,.56-1.5.86c-.19.11-.43.16-.55.38a1.63,1.63,0,0,1-.51.43,1.72,1.72,0,0,0-.4.36,1.69,1.69,0,0,1-.63.53l-.86.5a.87.87,0,0,1-.35.13,4.34,4.34,0,0,0,0-.51.67.67,0,0,0,0-.46s0-.11,0-.16a.48.48,0,0,0,.08-.16c0-.07,0-.11-.1-.08-.36.1-.72.23-1.09.3l-.08,0c-.11.07-.16.07-.13-.08s0-.09,0-.11-.11-.13-.11-.23-.06-.09-.12-.09,0,0,0-.07.26-.23.25-.44c0-.05.09-.1.15-.14a.94.94,0,0,0,.3-.38.92.92,0,0,1,.41-.42,4,4,0,0,1,.84-.32,2.48,2.48,0,0,0,.73-.45,2.27,2.27,0,0,1,.32-.22,6.65,6.65,0,0,0,.88-.62l.68-.5c.29-.23.61-.41.91-.61s.8-.48,1.2-.72a8.5,8.5,0,0,1,.81-.38,9.63,9.63,0,0,1,1.05-.43c.37-.13.74-.28,1.14-.38s.65-.18,1-.26.48-.1.73-.15.51-.05.76-.11a7,7,0,0,1,.78-.11L32,20.29c.21,0,.43,0,.64,0a4.86,4.86,0,0,1,1,.07,1.58,1.58,0,0,1,1,.57c.19.23.4.45.59.68a4.1,4.1,0,0,1,.58.94,12.21,12.21,0,0,1,.75,2.18,15.86,15.86,0,0,1,.29,1.81q.09,1,.09,2a13.51,13.51,0,0,1-.16,2c-.09.62-.21,1.22-.36,1.83A15.58,15.58,0,0,1,35,36.23a16.57,16.57,0,0,1-1,1.6,15.46,15.46,0,0,1-1.22,1.46c-.35.35-.68.71-1,1a16.31,16.31,0,0,1-1.87,1.44,19.25,19.25,0,0,1-2.25,1.29,10.42,10.42,0,0,1-1.62.67C25.44,43.88,24.92,44.06,24.39,44.18Z"/><path class="cls-7" d="M16.26,43.53a1.44,1.44,0,0,1-.51-.08c-.35-.1-.71-.12-1.06-.19a1,1,0,0,0-.29,0,1.76,1.76,0,0,1-1-.21c-.63-.27-1.26-.55-1.86-.87A19.09,19.09,0,0,1,8.8,40.47a15.17,15.17,0,0,1-1.93-1.74c-.36-.38-.69-.78-1-1.19A15.72,15.72,0,0,1,4,34.59a14.06,14.06,0,0,1-.73-1.9,13.42,13.42,0,0,1-.41-1.54c-.08-.43-.16-.86-.2-1.3a13.69,13.69,0,0,1-.12-2,16.59,16.59,0,0,1,.15-1.73,10.3,10.3,0,0,1,.39-1.73,4.19,4.19,0,0,1,.52-1.09c.07-.1.2-.14.29-.23s.14,0,.16.09a4.59,4.59,0,0,0,.31.77c.2.44.41.86.62,1.29a10,10,0,0,1,.59,1.12c.13.35.31.67.44,1s.24.6.37.9a3.62,3.62,0,0,1,.13.35c.15.48.45.91.59,1.41a2.15,2.15,0,0,0,.37.72,3,3,0,0,1,.22.44c.15.28.35.55.49.85a2.18,2.18,0,0,0,.45.56A2.92,2.92,0,0,1,9,33a3.44,3.44,0,0,0,.35.41l.38.45a.24.24,0,0,1,0,.29.1.1,0,0,0,0,.14,2,2,0,0,0,.37.34.47.47,0,0,1,.28.37.13.13,0,0,0,.06.09c.19.09.28.28.43.41s.06.2.13.25.26.33.44.45a1.6,1.6,0,0,1,.27.25,7.41,7.41,0,0,1,.58.54.44.44,0,0,0,.2.15.2.2,0,0,1,.12.17c0,.19.3.3.47.27,0,0,0,0,0,0s.31,0,.47,0,.14,0,.16-.06.19-.18.31-.15a.25.25,0,0,0,.26-.07c.08.06.08.16.11.24s.07.34.24.44v0a.33.33,0,0,0,.11.35.13.13,0,0,1,0,.09s0,.08.05.1a.59.59,0,0,1,.25.43,1,1,0,0,1,0,.69.28.28,0,0,0,0,.3.34.34,0,0,1-.1.47c-.06,0-.11.12-.08.16s.16.44.25.66.23.24.21.43a.15.15,0,0,0,.06.1c.15.08.16.23.19.37s0,.13.06.16.16.23.22.35,0,.12,0,.17A.89.89,0,0,1,16.26,43.53Z"/><path class="cls-8" d="M16.26,43.53a.89.89,0,0,0-.18-.75c0-.05,0-.12,0-.17s-.08-.27-.22-.35-.05-.1-.06-.16,0-.29-.19-.37a.15.15,0,0,1-.06-.1c0-.19-.15-.29-.21-.43s-.08-.47-.25-.66,0-.12.08-.16a.34.34,0,0,0,.1-.47.28.28,0,0,1,0-.3,1,1,0,0,0,0-.69.59.59,0,0,0-.25-.43s0-.06-.05-.1a.13.13,0,0,0,0-.09.33.33,0,0,1-.11-.35v0c-.17-.1-.17-.28-.24-.44s0-.18-.11-.24a.57.57,0,0,1,0-.67c.08-.14.16-.29.25-.43s.19-.08,0-.19,0-.09.07-.1A.41.41,0,0,0,15,35.3a.41.41,0,0,1,0-.16,1.45,1.45,0,0,1,.11-1.06.23.23,0,0,0,0-.14.21.21,0,0,1,.06-.23,1.45,1.45,0,0,0,.4-.52,2.89,2.89,0,0,0,.72,0,.58.58,0,0,1,.54.21c.09.09.21.05.31,0s.16,0,.2.1.15.08.24.08a.13.13,0,0,0,.13-.14.46.46,0,0,1,.09-.2,5.59,5.59,0,0,0,.53-1,.58.58,0,0,1,.38.19.55.55,0,0,0,.25.23s0,.05,0,.08,0,.18.1.23a.2.2,0,0,1,.06.14.34.34,0,0,0,.1.26.24.24,0,0,1,0,.24s-.1.12,0,.16a.87.87,0,0,1,0,.39c0,.09-.1.2-.07.31.09.3-.07.59,0,.89s-.1.38,0,.57a.14.14,0,0,1,0,.11.86.86,0,0,0,0,.63s0,.1,0,.15a.87.87,0,0,0,0,.53.24.24,0,0,1,0,.2c-.06.25,0,.38.28.43a.11.11,0,0,1,.1.09s0,.08,0,.1c.2,0,.19.21.19.34a1,1,0,0,0,.12.53,1.89,1.89,0,0,1,.2.65c0,.08,0,.13.13.14s.2.1.18.21.06.15.15.18a.2.2,0,0,0,.06.14.36.36,0,0,1,.13.25,1.65,1.65,0,0,0,.1.44c0,.11.14.12.16.21a4.09,4.09,0,0,1,.18.49.31.31,0,0,0,.09.18,2.57,2.57,0,0,1,.36.62,1,1,0,0,0,.19.32,1.34,1.34,0,0,0,1.07.49c0,.07,0,.08.09.1a1.8,1.8,0,0,0,.65.06,4.34,4.34,0,0,1,.62-.06c-.06.11-.19.11-.28.15s-.33.1-.44.24c-.62.11-1.25.23-1.88.31a5.19,5.19,0,0,1-1.18.11,10.84,10.84,0,0,0-1.14,0c-.63,0-1.26,0-1.89-.06l-.45-.1c-.07,0-.18,0-.07-.13a.67.67,0,0,0,.1-.23c0-.09-.07-.08-.11-.09a6.45,6.45,0,0,1-.63-.16Z"/><path class="cls-9" d="M23.58,43.92c.11-.14.29-.16.44-.24s.22,0,.28-.15h.13c.47-.09.92-.24,1.38-.37a10,10,0,0,0,1.75-.65c.65-.32,1.29-.68,1.91-1.06a13,13,0,0,0,1.3-.89c.4-.33.78-.67,1.16-1A14.32,14.32,0,0,0,33.32,38c.33-.39.57-.86.93-1.23.12-.12.14-.3.22-.44.29-.52.54-1.06.82-1.59.13-.23.14-.5.25-.74s.08-.25.13-.37a11.09,11.09,0,0,0,.41-1.5c.08-.45.18-.9.23-1.36s.1-.86.11-1.28a13.75,13.75,0,0,0-.12-1.92,6.52,6.52,0,0,0-.62-2.07,1,1,0,0,0-.87-.57,5.92,5.92,0,0,0-1.33,0c-.43,0-.86.06-1.29.15s-.77.1-1.15.17c-.16,0-.31.08-.47.1a9.16,9.16,0,0,0-1.28.3,13.05,13.05,0,0,0-1.7.57c-.6.25-1.21.5-1.8.78a7.68,7.68,0,0,0-1.18.68,3.93,3.93,0,0,0-.7.58c-.21.25-.51.42-.71.68a.6.6,0,0,1-.22.23,5.16,5.16,0,0,0-.68.42,4.49,4.49,0,0,0-.62.42c-.23.22-.41.5-.63.75s-.13.28-.24.41a7.39,7.39,0,0,0-.61.75c-.06.09,0,.2-.07.3a1.18,1.18,0,0,0-.17.52.45.45,0,0,1-.09.32c-.22.25-.36.55-.6.79-.12,0,0-.12,0-.16a.24.24,0,0,0,0-.24.34.34,0,0,1-.1-.26.2.2,0,0,0-.06-.14c-.11,0-.11-.14-.1-.23s0-.07,0-.08a.55.55,0,0,1-.25-.23.58.58,0,0,0-.38-.19c-.06-.17-.18-.34-.1-.54s-.1-.12-.09-.18c.06-.22-.1-.43,0-.64,0-.05,0-.09,0-.12s-.07-.2,0-.3a3.89,3.89,0,0,0,.25-.5c.05-.13.22-.19.33-.29a2.11,2.11,0,0,0,.35-.38c.12-.18.3-.32.43-.5a.5.5,0,0,0,.12-.24.87.87,0,0,0,.35-.13l.86-.5a1.69,1.69,0,0,0,.63-.53,1.72,1.72,0,0,1,.4-.36,1.63,1.63,0,0,0,.51-.43c.12-.22.36-.27.55-.38.49-.3,1-.59,1.5-.86s.89-.5,1.36-.73.9-.45,1.36-.65.85-.32,1.28-.46a13.35,13.35,0,0,1,1.42-.34,9,9,0,0,1,1.27-.19c.28,0,.55-.07.84-.08.13,0,.26,0,.39,0,.58,0,1.15-.1,1.72-.11a1,1,0,0,1,.65.12c.12.08.21.2.34.29a2.73,2.73,0,0,1,.72.9,6.28,6.28,0,0,1,.62,1.73,12.86,12.86,0,0,1,.26,1.63A10.33,10.33,0,0,1,36.65,29a21.26,21.26,0,0,1-.24,2.39,13.84,13.84,0,0,1-.32,1.45,15,15,0,0,1-.74,2,15.77,15.77,0,0,1-1.47,2.63,15.9,15.9,0,0,1-2.07,2.34,14.6,14.6,0,0,1-2.1,1.66A18.27,18.27,0,0,1,26.89,43c-.45.18-.91.33-1.36.5a.63.63,0,0,0-.3.07c-.47.12-.94.21-1.42.31A.87.87,0,0,1,23.58,43.92Z"/><path class="cls-10" d="M22.94,43.43a1.34,1.34,0,0,1-1.07-.49,1,1,0,0,1-.19-.32,2.57,2.57,0,0,0-.36-.62.31.31,0,0,1-.09-.18,4.09,4.09,0,0,0-.18-.49c0-.09-.14-.1-.16-.21a1.65,1.65,0,0,1-.1-.44.36.36,0,0,0-.13-.25.2.2,0,0,1-.06-.14c0-.16.16-.3.19-.45a1.54,1.54,0,0,0,0-.74.14.14,0,0,1,0-.14c.11-.07.11-.17.12-.28s-.12-.5-.12-.76-.12-.38-.13-.57A8.07,8.07,0,0,0,20.6,36a.43.43,0,0,1,0-.16A3.36,3.36,0,0,1,20.9,35a13.5,13.5,0,0,0,.74-1.75c.06-.19.2-.34.26-.53A2.75,2.75,0,0,1,23,31.33s.06,0,.08,0,.21,0,.31-.06a2.17,2.17,0,0,0,.37-.31,3.88,3.88,0,0,0,1-.7L25,30a5,5,0,0,1,.74-.64c.3-.21.57-.46.88-.65a15,15,0,0,1,1.43-.76,11.28,11.28,0,0,1,1.37-.51,12.06,12.06,0,0,1,1.47-.34,7.33,7.33,0,0,1,1.47-.15c.31,0,.61,0,.91,0a6,6,0,0,1,1.13.1c.34.06.66.15,1,.22a.14.14,0,0,1,.11.08,2.84,2.84,0,0,1,.38,1c0,.12,0,.25.05.37a4.86,4.86,0,0,1,.11,1A8.11,8.11,0,0,1,36,31c0,.39-.1.77-.16,1.15a12.8,12.8,0,0,1-.36,1.35,12.22,12.22,0,0,1-.61,1.66c-.14.32-.32.63-.48,1s-.43.73-.65,1.09-.51.63-.74,1a8.75,8.75,0,0,1-1,1.06c-.2.21-.43.39-.64.59a9.06,9.06,0,0,1-.76.63,12.71,12.71,0,0,1-1.74,1.14,11.59,11.59,0,0,1-1.21.63,15.86,15.86,0,0,1-1.74.65,6.45,6.45,0,0,1-1.38.25,2.92,2.92,0,0,0-1.08.24A1.51,1.51,0,0,1,22.94,43.43ZM35.71,30.67a4.36,4.36,0,0,0-.15-1.27.7.7,0,0,0-.68-.52c-.29,0-.59-.09-.88-.15a4.9,4.9,0,0,0-1.07-.1,9.15,9.15,0,0,0-1.38.1c-.43.07-.86.14-1.28.25a9.24,9.24,0,0,0-1.95.75,7.55,7.55,0,0,0-1.33.82c-.14.11-.29.2-.42.32-.38.37-.78.71-1.13,1.12a9,9,0,0,0-.8,1.11A6.62,6.62,0,0,0,24,34.38a8.79,8.79,0,0,0-.42,1.22,15.32,15.32,0,0,0-.3,1.53c0,.24-.08.49-.13.73a2.47,2.47,0,0,0,0,.81,11.92,11.92,0,0,0,.29,1.42c.16.49.3,1,.49,1.46a4.82,4.82,0,0,0,.35.63.83.83,0,0,0,.69.4c.27,0,.54,0,.8,0a3,3,0,0,0,.61-.14c.45-.22.89-.43,1.36-.61A8.53,8.53,0,0,0,29,41.29a14.78,14.78,0,0,0,1.46-.91,10.21,10.21,0,0,0,1.7-1.52c.2-.23.43-.46.65-.69a9.86,9.86,0,0,0,1.11-1.54c.25-.39.45-.8.66-1.2a7.52,7.52,0,0,0,.46-1,11.61,11.61,0,0,0,.45-1.66A10.23,10.23,0,0,0,35.71,30.67Z"/><path class="cls-11" d="M22.94,43.43a1.51,1.51,0,0,0,.56-.11,2.92,2.92,0,0,1,1.08-.24A6.45,6.45,0,0,0,26,42.83a15.86,15.86,0,0,0,1.74-.65,11.59,11.59,0,0,0,1.21-.63,12.71,12.71,0,0,0,1.74-1.14,9.06,9.06,0,0,0,.76-.63c.21-.2.44-.38.64-.59a8.75,8.75,0,0,0,1-1.06c.23-.35.53-.62.74-1s.44-.72.65-1.09.34-.63.48-1a12.22,12.22,0,0,0,.61-1.66,12.8,12.8,0,0,0,.36-1.35c.06-.38.13-.76.16-1.15a8.11,8.11,0,0,0,.05-1.21,4.86,4.86,0,0,0-.11-1c0-.12,0-.25-.05-.37a2.84,2.84,0,0,0-.38-1,.14.14,0,0,0-.11-.08c-.33-.07-.65-.16-1-.22a6,6,0,0,0-1.13-.1c-.3,0-.6,0-.91,0a7.33,7.33,0,0,0-1.47.15,12.06,12.06,0,0,0-1.47.34,11.28,11.28,0,0,0-1.37.51,15,15,0,0,0-1.43.76c-.31.19-.58.44-.88.65A5,5,0,0,0,25,30l-.27.3a3.88,3.88,0,0,1-1,.7,2.17,2.17,0,0,1-.37.31c-.1,0-.18.17-.31.06s-.05,0-.08,0a2.75,2.75,0,0,0-1.13,1.34c-.06.19-.2.34-.26.53A13.5,13.5,0,0,1,20.9,35a3.36,3.36,0,0,0-.29.86.43.43,0,0,0,0,.16,8.07,8.07,0,0,1,.14,1.38c0,.19.14.37.13.57s.13.5.12.76,0,.21-.12.28a.14.14,0,0,0,0,.14,1.54,1.54,0,0,1,0,.74c0,.15-.15.29-.19.45-.09,0-.17,0-.15-.18s-.06-.19-.18-.21-.1-.06-.13-.14a1.89,1.89,0,0,0-.2-.65,1,1,0,0,1-.12-.53c0-.13,0-.3-.19-.34,0,0,0-.06,0-.1a.11.11,0,0,0-.1-.09c-.25,0-.34-.18-.28-.43a.24.24,0,0,0,0-.2.87.87,0,0,1,0-.53s0-.11,0-.15a.86.86,0,0,1,0-.63.14.14,0,0,0,0-.11c-.11-.19,0-.39,0-.57s.11-.59,0-.89c0-.11,0-.22.07-.31a.87.87,0,0,0,0-.39c.24-.24.38-.54.6-.79a.45.45,0,0,0,.09-.32,1.18,1.18,0,0,1,.17-.52c0-.1,0-.21.07-.3a7.39,7.39,0,0,1,.61-.75c.11-.13.14-.29.24-.41s.4-.53.63-.75a4.49,4.49,0,0,1,.62-.42,5.16,5.16,0,0,1,.68-.42.6.6,0,0,0,.22-.23c.2-.26.5-.43.71-.68a3.93,3.93,0,0,1,.7-.58A7.68,7.68,0,0,1,25.79,27c.59-.28,1.2-.53,1.8-.78a13.05,13.05,0,0,1,1.7-.57,9.16,9.16,0,0,1,1.28-.3c.16,0,.31-.08.47-.1.38-.07.77-.09,1.15-.17s.86-.1,1.29-.15a5.92,5.92,0,0,1,1.33,0,1,1,0,0,1,.87.57,6.52,6.52,0,0,1,.62,2.07,13.75,13.75,0,0,1,.12,1.92c0,.42-.07.85-.11,1.28s-.15.91-.23,1.36a11.09,11.09,0,0,1-.41,1.5c-.05.12-.07.25-.13.37s-.12.51-.25.74c-.28.53-.53,1.07-.82,1.59-.08.14-.1.32-.22.44-.36.37-.6.84-.93,1.23a14.32,14.32,0,0,1-1.39,1.52c-.38.36-.76.7-1.16,1a13,13,0,0,1-1.3.89c-.62.38-1.26.74-1.91,1.06a10,10,0,0,1-1.75.65c-.46.13-.91.28-1.38.37H24.3a4.34,4.34,0,0,0-.62.06,1.8,1.8,0,0,1-.65-.06S22.94,43.5,22.94,43.43Z"/><path class="cls-12" d="M35.71,30.67a10.23,10.23,0,0,1-.24,2.1A11.61,11.61,0,0,1,35,34.43a7.52,7.52,0,0,1-.46,1c-.21.4-.41.81-.66,1.2a9.86,9.86,0,0,1-1.11,1.54c-.22.23-.45.46-.65.69a10.21,10.21,0,0,1-1.7,1.52,14.78,14.78,0,0,1-1.46.91,8.53,8.53,0,0,1-1.27.49c-.47.18-.91.39-1.36.61a3,3,0,0,1-.61.14c-.26.06-.53,0-.8,0a.83.83,0,0,1-.69-.4,4.82,4.82,0,0,1-.35-.63c-.19-.48-.33-1-.49-1.46a11.92,11.92,0,0,1-.29-1.42,2.47,2.47,0,0,1,0-.81c.05-.24.09-.49.13-.73a15.32,15.32,0,0,1,.3-1.53A8.79,8.79,0,0,1,24,34.38a6.62,6.62,0,0,1,.63-1.28,9,9,0,0,1,.8-1.11c.35-.41.75-.75,1.13-1.12.13-.12.28-.21.42-.32a7.55,7.55,0,0,1,1.33-.82A9.24,9.24,0,0,1,30.27,29c.42-.11.85-.18,1.28-.25a9.15,9.15,0,0,1,1.38-.1,4.9,4.9,0,0,1,1.07.1c.29.06.59.12.88.15a.7.7,0,0,1,.68.52A4.36,4.36,0,0,1,35.71,30.67ZM35.23,32c0-.21,0-.42,0-.63-.06-.47-.16-.58-.62-.7l-.3-.09A5.76,5.76,0,0,0,33,30.31a3.91,3.91,0,0,0-1.08,0c-.24.05-.5,0-.73.09a8.85,8.85,0,0,0-1,.27,7.72,7.72,0,0,0-1.31.59,7.5,7.5,0,0,0-.86.62,7,7,0,0,0-.95.94,7.57,7.57,0,0,0-.7,1,5.33,5.33,0,0,0-.52,1.11,5.86,5.86,0,0,0-.32,1.39,6,6,0,0,0-.12,1.46,4.4,4.4,0,0,0,.07.73,2.13,2.13,0,0,1,.07.27,5.57,5.57,0,0,0,.31,1.11,4.78,4.78,0,0,0,.5,1,2.26,2.26,0,0,0,.31.45.85.85,0,0,0,.67.21,3.44,3.44,0,0,0,.91-.2c.29-.11.57-.25.85-.38a9,9,0,0,0,1-.53,12.21,12.21,0,0,0,1.19-.93c.28-.24.56-.49.81-.75s.35-.4.53-.59a10.32,10.32,0,0,0,.9-1.19c.35-.51.6-1.08.91-1.62a6,6,0,0,0,.42-1A7.49,7.49,0,0,0,35.23,32Z"/><path class="cls-13" d="M35.23,32a7.49,7.49,0,0,1-.39,2.29,6,6,0,0,1-.42,1c-.31.54-.56,1.11-.91,1.62a10.32,10.32,0,0,1-.9,1.19c-.18.19-.35.4-.53.59s-.53.51-.81.75a12.21,12.21,0,0,1-1.19.93,9,9,0,0,1-1,.53c-.28.13-.56.27-.85.38a3.44,3.44,0,0,1-.91.2.85.85,0,0,1-.67-.21,2.26,2.26,0,0,1-.31-.45,4.78,4.78,0,0,1-.5-1,5.57,5.57,0,0,1-.31-1.11,2.13,2.13,0,0,0-.07-.27,4.4,4.4,0,0,1-.07-.73,6,6,0,0,1,.12-1.46,5.86,5.86,0,0,1,.32-1.39,5.33,5.33,0,0,1,.52-1.11,7.57,7.57,0,0,1,.7-1,7,7,0,0,1,.95-.94,7.5,7.5,0,0,1,.86-.62,7.72,7.72,0,0,1,1.31-.59,8.85,8.85,0,0,1,1-.27c.23-.05.49,0,.73-.09a3.91,3.91,0,0,1,1.08,0,5.76,5.76,0,0,1,1.24.22l.3.09c.46.12.56.23.62.7C35.22,31.53,35.22,31.74,35.23,32Zm-2.77.17a1.5,1.5,0,0,0-.36,0,4.52,4.52,0,0,0-1.26.23,5,5,0,0,0-1.74,1,4.63,4.63,0,0,0-1.34,2,5.05,5.05,0,0,0-.28,2.15,3.81,3.81,0,0,0,.07.59,6.12,6.12,0,0,0,.68,1.63c.34.56.55.63,1.27.45a3.15,3.15,0,0,0,1.1-.58,11.41,11.41,0,0,0,1.88-1.66,8.47,8.47,0,0,0,.92-1.24,8.6,8.6,0,0,0,1.2-3,1.42,1.42,0,0,0-.09-.93.51.51,0,0,0-.28-.28A5.24,5.24,0,0,0,32.46,32.12Z"/><path class="cls-14" d="M32.46,32.12a5.24,5.24,0,0,1,1.77.33.51.51,0,0,1,.28.28,1.42,1.42,0,0,1,.09.93,8.6,8.6,0,0,1-1.2,3,8.47,8.47,0,0,1-.92,1.24A11.41,11.41,0,0,1,30.6,39.6a3.15,3.15,0,0,1-1.1.58c-.72.18-.93.11-1.27-.45a6.12,6.12,0,0,1-.68-1.63,3.81,3.81,0,0,1-.07-.59,5.05,5.05,0,0,1,.28-2.15,4.63,4.63,0,0,1,1.34-2,5,5,0,0,1,1.74-1,4.52,4.52,0,0,1,1.26-.23A1.5,1.5,0,0,1,32.46,32.12Zm-3.6,5.23s0,.08,0,.12A4.53,4.53,0,0,0,29.48,39c.27.4.55.35.91.22a3.31,3.31,0,0,0,.87-.51,8,8,0,0,0,.93-.8,6.88,6.88,0,0,0,.94-1.21A6,6,0,0,0,34,34.29a.54.54,0,0,0-.4-.62,4.13,4.13,0,0,0-1.49-.2,3.44,3.44,0,0,0-3,2.18,2.56,2.56,0,0,0-.21.73A3.16,3.16,0,0,0,28.86,37.35Z"/><path class="cls-15" d="M28.86,37.35a3.16,3.16,0,0,1,0-1,2.56,2.56,0,0,1,.21-.73,3.44,3.44,0,0,1,3-2.18,4.13,4.13,0,0,1,1.49.2.54.54,0,0,1,.4.62,6,6,0,0,1-.88,2.41,6.88,6.88,0,0,1-.94,1.21,8,8,0,0,1-.93.8,3.31,3.31,0,0,1-.87.51c-.36.13-.64.18-.91-.22a4.53,4.53,0,0,1-.62-1.53S28.84,37.4,28.86,37.35Z"/><path class="cls-16" d="M15.53,45.71h-.67a1.15,1.15,0,0,1-1.15-1.15V27a1.15,1.15,0,0,1,.34-.82,1.07,1.07,0,0,1,.81-.34h6.45a1.11,1.11,0,0,1,.82.34,1.18,1.18,0,0,1,.33.82V39.52a1.18,1.18,0,0,1-.33.82,1.11,1.11,0,0,1-.82.34H16.67v3.88a1.13,1.13,0,0,1-1.14,1.15Zm3.66-8a.28.28,0,0,0,.2-.08.29.29,0,0,0,.08-.21V29.13a.24.24,0,0,0-.08-.21.26.26,0,0,0-.2-.1H17a.28.28,0,0,0-.21.1.27.27,0,0,0-.09.21v8.56Z"/><path class="cls-16" d="M32.33,40.68H25.87a1.16,1.16,0,0,1-1.17-1.16V27a1.17,1.17,0,0,1,1.17-1.17h.67a1.08,1.08,0,0,1,.81.35,1.13,1.13,0,0,1,.34.82V37.4a.29.29,0,0,0,.3.29h2.19a.28.28,0,0,0,.21-.08.29.29,0,0,0,.09-.21V27a1.18,1.18,0,0,1,.33-.82,1.11,1.11,0,0,1,.82-.34h.7A1.17,1.17,0,0,1,33.49,27V39.52A1.18,1.18,0,0,1,32.33,40.68Z"/><path class="cls-16" d="M43.32,40.68H36.87a1.12,1.12,0,0,1-.83-.34,1.14,1.14,0,0,1-.35-.82V33a1.1,1.1,0,0,1,.35-.83,1.09,1.09,0,0,1,.82-.33h4.33a.31.31,0,0,0,.2-.09.32.32,0,0,0,.08-.21V29.13a.3.3,0,0,0-.08-.21.28.28,0,0,0-.2-.1H36.87a1.12,1.12,0,0,1-.83-.33,1.1,1.1,0,0,1-.35-.82V27a1.12,1.12,0,0,1,.35-.82,1.09,1.09,0,0,1,.82-.34h6.46a1.11,1.11,0,0,1,.82.34,1.18,1.18,0,0,1,.33.82v6.68a1.18,1.18,0,0,1-.33.82,1.11,1.11,0,0,1-.82.34H39a.29.29,0,0,0-.21.09.25.25,0,0,0-.09.19V37.4a.3.3,0,0,0,.3.29h4.33a1.16,1.16,0,0,1,1.15,1.15h0v.68a1.2,1.2,0,0,1-.33.82A1.11,1.11,0,0,1,43.32,40.68Z"/><path class="cls-16" d="M54.33,40.68H47.88a1.17,1.17,0,0,1-1.18-1.16V33a1.13,1.13,0,0,1,.34-.81,1.17,1.17,0,0,1,.83-.34h4.32a.27.27,0,0,0,.29-.29V29.13a.3.3,0,0,0-.08-.21.28.28,0,0,0-.21-.1H47.87a1.14,1.14,0,0,1-1.17-1.15V27a1.17,1.17,0,0,1,1.17-1.16h6.45a1.09,1.09,0,0,1,.81.34,1.15,1.15,0,0,1,.34.82v6.68a1.15,1.15,0,0,1-.34.82,1.09,1.09,0,0,1-.81.34H50a.27.27,0,0,0-.21.09.25.25,0,0,0-.09.19V37.4a.29.29,0,0,0,.09.21.3.3,0,0,0,.21.08h4.33a1.17,1.17,0,0,1,1.15,1.15v.68a1.17,1.17,0,0,1-.34.82A1.1,1.1,0,0,1,54.33,40.68Z"/><path class="cls-16" d="M59.55,40.68h-.68a1.09,1.09,0,0,1-.82-.34,1.12,1.12,0,0,1-.33-.82V20.42a1.14,1.14,0,0,1,1.15-1.15h.68a1.14,1.14,0,0,1,1.15,1.15v19.1a1.13,1.13,0,0,1-.34.82A1.07,1.07,0,0,1,59.55,40.68Z"/><path class="cls-16" d="M70.55,40.68H64.1a1.17,1.17,0,0,1-1.17-1.16V27a1.18,1.18,0,0,1,1.16-1.17h6.45a1.12,1.12,0,0,1,.82.35,1.17,1.17,0,0,1,.33.82v6.67a1.17,1.17,0,0,1-.33.82,1.12,1.12,0,0,1-.82.35H65.9V37.4a.3.3,0,0,0,.1.21.26.26,0,0,0,.2.08h4.33a1.15,1.15,0,0,1,1.15,1.15v.68a1.16,1.16,0,0,1-.33.82A1.1,1.1,0,0,1,70.55,40.68Zm-2.11-8.81a.27.27,0,0,0,.2-.09.32.32,0,0,0,.08-.21V29.13a.3.3,0,0,0-.08-.21.28.28,0,0,0-.2-.1H66.23a.32.32,0,0,0-.3.31v2.73Z"/><path class="cls-16" d="M21.56,24.57H15.11A1.13,1.13,0,0,1,14,23.44V4.31a1.08,1.08,0,0,1,.33-.81,1.13,1.13,0,0,1,.82-.34h6.45a1.09,1.09,0,0,1,.81.34,1.11,1.11,0,0,1,.34.81V23.42A1.15,1.15,0,0,1,21.56,24.57Zm-2.12-3a.3.3,0,0,0,.21-.09.24.24,0,0,0,.08-.2V6.43a.28.28,0,0,0-.08-.2.34.34,0,0,0-.21-.08H17.22a.24.24,0,0,0-.19.08.25.25,0,0,0-.09.2V21.3a.29.29,0,0,0,.28.29h2.22Z"/><path class="cls-16" d="M32.54,24.57h-.68a1.15,1.15,0,0,1-1.15-1.15h0V18.73H27.93v4.69a1.14,1.14,0,0,1-1.15,1.15h-.69a1.14,1.14,0,0,1-1.15-1.13V4.31a1.16,1.16,0,0,1,1.15-1.15h6.43a1.13,1.13,0,0,1,.81.34,1.11,1.11,0,0,1,.34.81V16a1.89,1.89,0,0,1-.5,1.31,1.75,1.75,0,0,1,.55,1.34v4.81a1.14,1.14,0,0,1-1.13,1.15h-.05Zm-2.11-8.81a.28.28,0,0,0,.28-.28h0v-9a.25.25,0,0,0-.09-.2.24.24,0,0,0-.19-.08H28.21a.34.34,0,0,0-.21.08.28.28,0,0,0-.08.2v9.32Z"/><path class="cls-16" d="M43.53,24.57H37.08a1.15,1.15,0,0,1-1.15-1.15h0V4.31a1.11,1.11,0,0,1,.34-.81,1.09,1.09,0,0,1,.81-.34h6.45a1.12,1.12,0,0,1,.85.34,1.07,1.07,0,0,1,.34.81V7.56a.87.87,0,0,1-.86.86H42.58a.86.86,0,0,1-.87-.86h0V6.43a.25.25,0,0,0-.09-.2.3.3,0,0,0-.21-.08h-2.2a.25.25,0,0,0-.21.08.28.28,0,0,0-.08.2V21.3a.28.28,0,0,0,.08.2.29.29,0,0,0,.21.09h2.2a.27.27,0,0,0,.21-.09.22.22,0,0,0,.09-.2V19a.25.25,0,0,0-.09-.2.27.27,0,0,0-.21-.09h-.52a1.14,1.14,0,0,1-1.15-1.13v-.7a1.15,1.15,0,0,1,1.14-1.15h2.65a1.16,1.16,0,0,1,.83.33,1.15,1.15,0,0,1,.34.82v6.52a1.09,1.09,0,0,1-.32.82A1.15,1.15,0,0,1,43.53,24.57Z"/></svg>