<svg id="Слой_1" data-name="Слой 1" xmlns="http://www.w3.org/2000/svg" viewBox="0 0 74.1 50"><defs><style>.cls-1{fill:#616160;}</style></defs><path class="cls-1" d="M15.53,45.71h-.67a1.15,1.15,0,0,1-1.15-1.15V27a1.15,1.15,0,0,1,.34-.82,1.07,1.07,0,0,1,.81-.34h6.45a1.11,1.11,0,0,1,.82.34,1.18,1.18,0,0,1,.33.82V39.52a1.18,1.18,0,0,1-.33.82,1.11,1.11,0,0,1-.82.34H16.67v3.88a1.13,1.13,0,0,1-1.14,1.15Zm3.66-8a.28.28,0,0,0,.2-.08.29.29,0,0,0,.08-.21V29.13a.24.24,0,0,0-.08-.21.26.26,0,0,0-.2-.1H17a.28.28,0,0,0-.21.1.27.27,0,0,0-.09.21v8.56Z"/><path class="cls-1" d="M32.33,40.68H25.87a1.16,1.16,0,0,1-1.17-1.16V27a1.17,1.17,0,0,1,1.17-1.17h.67a1.08,1.08,0,0,1,.81.35,1.13,1.13,0,0,1,.34.82V37.4a.29.29,0,0,0,.3.29h2.19a.28.28,0,0,0,.21-.08.29.29,0,0,0,.09-.21V27a1.18,1.18,0,0,1,.33-.82,1.11,1.11,0,0,1,.82-.34h.7A1.17,1.17,0,0,1,33.49,27V39.52A1.18,1.18,0,0,1,32.33,40.68Z"/><path class="cls-1" d="M43.32,40.68H36.87a1.12,1.12,0,0,1-.83-.34,1.14,1.14,0,0,1-.35-.82V33a1.1,1.1,0,0,1,.35-.83,1.09,1.09,0,0,1,.82-.33h4.33a.31.31,0,0,0,.2-.09.32.32,0,0,0,.08-.21V29.13a.3.3,0,0,0-.08-.21.28.28,0,0,0-.2-.1H36.87a1.12,1.12,0,0,1-.83-.33,1.1,1.1,0,0,1-.35-.82V27a1.12,1.12,0,0,1,.35-.82,1.09,1.09,0,0,1,.82-.34h6.46a1.11,1.11,0,0,1,.82.34,1.18,1.18,0,0,1,.33.82v6.68a1.18,1.18,0,0,1-.33.82,1.11,1.11,0,0,1-.82.34H39a.29.29,0,0,0-.21.09.25.25,0,0,0-.09.19V37.4a.3.3,0,0,0,.3.29h4.33a1.16,1.16,0,0,1,1.15,1.15h0v.68a1.2,1.2,0,0,1-.33.82A1.11,1.11,0,0,1,43.32,40.68Z"/><path class="cls-1" d="M54.33,40.68H47.88a1.17,1.17,0,0,1-1.18-1.16V33a1.13,1.13,0,0,1,.34-.81,1.17,1.17,0,0,1,.83-.34h4.32a.27.27,0,0,0,.29-.29V29.13a.3.3,0,0,0-.08-.21.28.28,0,0,0-.21-.1H47.87a1.14,1.14,0,0,1-1.17-1.15V27a1.17,1.17,0,0,1,1.17-1.16h6.45a1.09,1.09,0,0,1,.81.34,1.15,1.15,0,0,1,.34.82v6.68a1.15,1.15,0,0,1-.34.82,1.09,1.09,0,0,1-.81.34H50a.27.27,0,0,0-.21.09.25.25,0,0,0-.09.19V37.4a.29.29,0,0,0,.09.21.3.3,0,0,0,.21.08h4.33a1.17,1.17,0,0,1,1.15,1.15v.68a1.17,1.17,0,0,1-.34.82A1.1,1.1,0,0,1,54.33,40.68Z"/><path class="cls-1" d="M59.55,40.68h-.68a1.09,1.09,0,0,1-.82-.34,1.12,1.12,0,0,1-.33-.82V20.42a1.14,1.14,0,0,1,1.15-1.15h.68a1.14,1.14,0,0,1,1.15,1.15v19.1a1.13,1.13,0,0,1-.34.82A1.07,1.07,0,0,1,59.55,40.68Z"/><path class="cls-1" d="M70.55,40.68H64.1a1.17,1.17,0,0,1-1.17-1.16V27a1.18,1.18,0,0,1,1.16-1.17h6.45a1.12,1.12,0,0,1,.82.35,1.17,1.17,0,0,1,.33.82v6.67a1.17,1.17,0,0,1-.33.82,1.12,1.12,0,0,1-.82.35H65.9V37.4a.3.3,0,0,0,.1.21.26.26,0,0,0,.2.08h4.33a1.15,1.15,0,0,1,1.15,1.15v.68a1.16,1.16,0,0,1-.33.82A1.1,1.1,0,0,1,70.55,40.68Zm-2.11-8.81a.27.27,0,0,0,.2-.09.32.32,0,0,0,.08-.21V29.13a.3.3,0,0,0-.08-.21.28.28,0,0,0-.2-.1H66.23a.32.32,0,0,0-.3.31v2.73Z"/><path class="cls-1" d="M21.56,24.57H15.11A1.13,1.13,0,0,1,14,23.44V4.31a1.08,1.08,0,0,1,.33-.81,1.13,1.13,0,0,1,.82-.34h6.45a1.09,1.09,0,0,1,.81.34,1.11,1.11,0,0,1,.34.81V23.42A1.15,1.15,0,0,1,21.56,24.57Zm-2.12-3a.3.3,0,0,0,.21-.09.24.24,0,0,0,.08-.2V6.43a.28.28,0,0,0-.08-.2.34.34,0,0,0-.21-.08H17.22a.24.24,0,0,0-.19.08.25.25,0,0,0-.09.2V21.3a.29.29,0,0,0,.28.29h2.22Z"/><path class="cls-1" d="M32.54,24.57h-.68a1.15,1.15,0,0,1-1.15-1.15h0V18.73H27.93v4.69a1.14,1.14,0,0,1-1.15,1.15h-.69a1.14,1.14,0,0,1-1.15-1.13V4.31a1.16,1.16,0,0,1,1.15-1.15h6.43a1.13,1.13,0,0,1,.81.34,1.11,1.11,0,0,1,.34.81V16a1.89,1.89,0,0,1-.5,1.31,1.75,1.75,0,0,1,.55,1.34v4.81a1.14,1.14,0,0,1-1.13,1.15h-.05Zm-2.11-8.81a.28.28,0,0,0,.28-.28h0v-9a.25.25,0,0,0-.09-.2.24.24,0,0,0-.19-.08H28.21a.34.34,0,0,0-.21.08.28.28,0,0,0-.08.2v9.32Z"/><path class="cls-1" d="M43.53,24.57H37.08a1.15,1.15,0,0,1-1.15-1.15h0V4.31a1.11,1.11,0,0,1,.34-.81,1.09,1.09,0,0,1,.81-.34h6.45a1.12,1.12,0,0,1,.85.34,1.07,1.07,0,0,1,.34.81V7.56a.87.87,0,0,1-.86.86H42.58a.86.86,0,0,1-.87-.86h0V6.43a.25.25,0,0,0-.09-.2.3.3,0,0,0-.21-.08h-2.2a.25.25,0,0,0-.21.08.28.28,0,0,0-.08.2V21.3a.28.28,0,0,0,.08.2.29.29,0,0,0,.21.09h2.2a.27.27,0,0,0,.21-.09.22.22,0,0,0,.09-.2V19a.25.25,0,0,0-.09-.2.27.27,0,0,0-.21-.09h-.52a1.14,1.14,0,0,1-1.15-1.13v-.7a1.15,1.15,0,0,1,1.14-1.15h2.65a1.16,1.16,0,0,1,.83.33,1.15,1.15,0,0,1,.34.82v6.52a1.09,1.09,0,0,1-.32.82A1.15,1.15,0,0,1,43.53,24.57Z"/></svg>