<svg id="Слой_1" data-name="Слой 1" xmlns="http://www.w3.org/2000/svg" viewBox="0 0 121.27 50"><path d="M3,4.41l1.76-1V7.5L3,6.47l-1.73-1ZM3,9,1.24,10V5.91L3,6.91,4.73,8ZM3,9.4l1.76-1v4.09L3,11.46l-1.73-1ZM3,14,1.24,15V10.9l1.73,1L4.73,13Zm0,.43,1.76-1v4.09L3,16.45l-1.73-1Zm0,4.55L1.24,20v-4.1l1.73,1L4.73,18Zm0,.44,1.76-1v4.09L3,21.44l-1.73-1ZM7,1.92l1.76-1V5L7,4,5.23,3ZM7,6.47l-1.73,1V3.41L7,4.41,8.72,5.48Zm0,15.4,1.76-1V25L7,23.93l-1.73-1ZM11,4,9.22,5V.92l1.73,1L12.71,3Zm0,15.4,1.76-1v4.09l-1.76-1-1.73-1Zm0,4.55L9.22,25V20.87l1.73,1,1.76,1.07Zm4-17.46-1.73,1V3.41l1.73,1,1.77,1.07Zm0,.44,1.77-1V10L14.94,9,13.21,8Zm0,4.55-1.73,1V8.4l1.73,1,1.77,1.06Zm0,.43,1.77-1V15l-1.77-1-1.73-1Zm0,4.56-1.73,1V13.39l1.73,1,1.77,1.06Zm0,.43,1.77-1V20l-1.77-1-1.73-1Zm0,4.56-1.73,1V18.38l1.73,1,1.77,1.06Z"/><path d="M20.1,4.41l1.76-1V7.5l-1.76-1-1.73-1ZM20.1,9l-1.73,1V5.91l1.73,1L21.86,8Zm0,.43,1.76-1v4.09l-1.76-1-1.73-1Zm0,4.56-1.73,1V10.9l1.73,1L21.86,13Zm0,.43,1.76-1v4.09l-1.76-1-1.73-1Zm0,4.55-1.73,1v-4.1l1.73,1L21.86,18Zm0,.44,1.76-1v4.09l-1.76-1-1.73-1Zm0,4.55-1.73,1V20.87l1.73,1,1.76,1.07Zm4-7,1.76-1V20l-1.76-1-1.73-1Zm0,4.56-1.73,1V18.38l1.73,1,1.76,1.06Zm4-2.5-1.73,1v-4.1l1.73,1L29.84,18Zm0,.44,1.76-1v4.09l-1.76-1-1.73-1Zm4-17.46,1.76-1V5L32.07,4,30.34,3Zm0,4.55-1.73,1V3.41l1.73,1,1.76,1.07Zm0,.44,1.76-1V10L32.07,9,30.34,8Zm0,4.55-1.73,1V8.4l1.73,1,1.76,1.06Zm0,.43,1.76-1V15l-1.76-1-1.73-1Zm0,4.56-1.73,1V13.39l1.73,1,1.76,1.06Zm0,.43,1.76-1V20l-1.76-1-1.73-1Zm0,4.56-1.73,1V18.38l1.73,1,1.76,1.06Z"/><path d="M37.23,9,35.5,10V5.91l1.73,1L39,8Zm0,.43L39,8.4v4.09l-1.76-1-1.73-1Zm0,4.56L35.5,15V10.9l1.73,1L39,13Zm0,.43,1.76-1v4.09l-1.76-1-1.73-1Zm0,4.55L35.5,20v-4.1l1.73,1L39,18Zm0,.44,1.76-1v4.09l-1.76-1-1.73-1Zm0,4.55L35.5,25V20.87l1.73,1L39,22.94Zm4-12.47-1.73,1V8.4l1.73,1L43,10.46Zm0,.43,1.76-1V15l-1.76-1-1.73-1Zm4,2.07-1.73,1V10.9l1.73,1L47,13Zm0,.43,1.76-1v4.09l-1.76-1-1.73-1Zm4-12.47L51,.92V5L49.2,4,47.47,3Zm0,4.55-1.73,1V3.41l1.73,1L51,5.48Zm0,.44,1.76-1V10L49.2,9,47.47,8Zm0,4.55-1.73,1V8.4l1.73,1L51,10.46Zm0,.43,1.76-1V15L49.2,14l-1.73-1Zm0,4.56-1.73,1V13.39l1.73,1L51,15.45Zm0,.43,1.76-1V20l-1.76-1-1.73-1Z"/><path d="M54.36,4.41l1.76-1V7.5l-1.76-1-1.73-1Zm0,4.56-1.73,1V5.91l1.73,1L56.12,8Zm0,.43,1.76-1v4.09l-1.76-1-1.73-1Zm0,5,1.76-1v4.09l-1.76-1-1.73-1Zm0,4.55-1.73,1v-4.1l1.73,1L56.12,18Zm0,.44,1.76-1v4.09l-1.76-1-1.73-1Zm4-17.46,1.76-1V5L58.35,4,56.62,3Zm0,4.55-1.73,1V3.41l1.73,1,1.76,1.07Zm0,5-1.73,1V8.4l1.73,1,1.76,1.06Zm0,5-1.73,1V13.39l1.73,1,1.76,1.06Zm0,5.42,1.76-1V25l-1.76-1-1.73-1ZM62.34,4,60.61,5V.92l1.73,1L64.1,3Zm0,.43,1.76-1V7.5l-1.76-1-1.73-1Zm0,15,1.76-1v4.09l-1.76-1-1.73-1Zm0,4.55-1.73,1V20.87l1.73,1,1.76,1.07Zm4-17.46-1.73,1V3.41l1.73,1,1.76,1.07Zm0,15-1.73,1V18.38l1.73,1,1.76,1.06Z"/><path d="M71.48,4.41l1.77-1V7.5l-1.77-1-1.73-1Zm0,4.56-1.73,1V5.91l1.73,1L73.25,8Zm0,.43,1.77-1v4.09l-1.77-1-1.73-1Zm0,4.56-1.73,1V10.9l1.73,1L73.25,13Zm0,.43,1.77-1v4.09l-1.77-1-1.73-1Zm0,4.55-1.73,1v-4.1l1.73,1L73.25,18Zm0,.44,1.77-1v4.09l-1.77-1-1.73-1Zm0,4.55-1.73,1V20.87l1.73,1,1.77,1.07Zm4-22,1.76-1V5L75.48,4,73.75,3Zm0,4.55-1.73,1V3.41l1.73,1,1.76,1.07Zm0,5.42,1.76-1V15l-1.76-1-1.73-1Zm0,4.56-1.73,1V13.39l1.73,1,1.76,1.06ZM79.47,4,77.74,5V.92l1.73,1L81.23,3Zm0,5.42,1.76-1v4.09l-1.76-1-1.73-1Zm0,4.56-1.73,1V10.9l1.73,1L81.23,13Zm0,.43,1.76-1v4.09l-1.76-1-1.73-1Zm4-7.92-1.73,1V3.41l1.73,1,1.76,1.07Zm0,.44,1.76-1V10L83.46,9,81.73,8Zm0,4.55-1.73,1V8.4l1.73,1,1.76,1.06Zm0,5-1.73,1V13.39l1.73,1,1.76,1.06Zm0,.43,1.76-1V20l-1.76-1-1.73-1Zm0,4.56-1.73,1V18.38l1.73,1,1.76,1.06Z"/><path d="M20.19,26.82l1.76-1v4.09l-1.76-1-1.73-1Zm0,4.56-1.73,1V28.32l1.73,1L22,30.38Zm0,.43,1.76-1V34.9l-1.76-1-1.73-1Zm0,4.55-1.73,1V33.3l1.73,1L22,35.37Zm0,.44,1.76-1v4.09l-1.76-1-1.73-1Zm0,4.55-1.73,1V38.29l1.73,1L22,40.35Zm0,.43,1.76-1v4.09l-1.76-1-1.73-1Zm0,4.56-1.73,1V43.28l1.73,1L22,45.34Zm4-22,1.76-1v4.09l-1.76-1-1.73-1Zm0,4.56-1.73,1V25.82l1.73,1,1.76,1.06Zm0,5.42,1.76-1v4.09l-1.76-1-1.73-1Zm4-7.91-1.73,1V23.33l1.73,1,1.76,1.07Zm0,5.42,1.76-1V34.9l-1.76-1-1.73-1Zm0,4.55-1.73,1V33.3l1.73,1,1.76,1.07Zm4-7.48-1.73,1V25.82l1.73,1,1.77,1.06Zm0,.43,1.77-1v4.09l-1.77-1-1.73-1Zm0,4.56-1.73,1V30.81l1.73,1,1.77,1.06Z"/><path d="M37.32,29.31l1.76-1v4.09l-1.76-1-1.73-1Zm0,4.56-1.73,1V30.81l1.73,1,1.76,1.06Zm0,.43,1.76-1v4.09l-1.76-1-1.73-1Zm0,4.56-1.73,1V35.8l1.73,1,1.76,1.06Zm0,.43,1.76-1v4.09l-1.76-1-1.73-1Zm0,4.56-1.73,1V40.79l1.73,1,1.76,1.07Zm0,.43,1.76-1v4.09l-1.76-1-1.73-1Zm4,2.06-1.73,1V43.28l1.73,1,1.76,1.06Zm4-2.06,1.76-1v4.09l-1.76-1-1.73-1Zm4-17.46,1.76-1v4.09l-1.76-1-1.73-1Zm0,4.56-1.73,1V28.32l1.73,1,1.76,1.07Zm0,.43,1.76-1V34.9l-1.76-1-1.73-1Zm0,4.55-1.73,1V33.3l1.73,1,1.76,1.07Zm0,.44,1.76-1v4.09l-1.76-1-1.73-1Zm0,4.55-1.73,1V38.29l1.73,1,1.76,1.06Zm0,.43,1.76-1v4.09l-1.76-1-1.73-1Zm0,4.56-1.73,1V43.28l1.73,1,1.76,1.06Z"/><path d="M54.45,26.79l1.76-1v4.09l-1.76-1.07-1.73-1Zm0,4.52-1.73,1.06V28.28l1.73,1,1.76,1Zm0,5.45,1.76-1v4.09l-1.76-1.07-1.73-1Zm0,4.53-1.73,1.06V38.26l1.73,1,1.76,1Zm0,.46,1.76-1v4.09l-1.76-1.06-1.73-1Zm0,4.52-1.73,1.07V43.25l1.73,1,1.76,1Zm4-17.46-1.73,1.07V25.79l1.73,1,1.76,1Zm0,5.46,1.76-1v4.09L58.44,36.3l-1.73-1Zm0,4.52-1.73,1.07V35.77l1.73,1,1.76,1Zm0,5-1.73,1.06V40.75l1.73,1,1.76,1Zm4-17,1.76-1v4.09l-1.76-1.07-1.73-1Zm0,5,1.76-1v4.09L62.43,33.8l-1.73-1Zm0,4.53L60.7,37.36V33.27l1.73,1,1.76,1Zm0,5.45,1.76-1v4.09l-1.76-1.06-1.73-1Zm4-17.46,1.76-1v4.09l-1.76-1.06-1.73-1Zm0,4.52-1.73,1.07V25.79l1.73,1,1.76,1Zm0,.47,1.76-1v4.09l-1.76-1.06-1.73-1Zm0,4.52-1.73,1.07V30.78l1.73,1,1.76,1Zm0,5.46,1.76-1v4.09l-1.76-1.06-1.73-1Zm0,4.52-1.73,1.06V40.75l1.73,1,1.76,1Z"/><path d="M71.58,26.79l1.76-1v4.09l-1.76-1.07-1.73-1Zm0,4.52-1.73,1.06V28.28l1.73,1,1.76,1Zm0,5.45,1.76-1v4.09l-1.76-1.07-1.73-1Zm0,4.53-1.73,1.06V38.26l1.73,1,1.76,1Zm0,.46,1.76-1v4.09l-1.76-1.06-1.73-1Zm0,4.52-1.73,1.07V43.25l1.73,1,1.76,1Zm4-17.46-1.73,1.07V25.79l1.73,1,1.76,1Zm0,5.46,1.76-1v4.09L75.57,36.3l-1.73-1Zm0,4.52-1.73,1.07V35.77l1.73,1,1.76,1Zm0,5-1.73,1.06V40.75l1.73,1,1.76,1Zm4-17,1.76-1v4.09l-1.76-1.07-1.73-1Zm0,5,1.76-1v4.09L79.56,33.8l-1.73-1Zm0,4.53-1.73,1.06V33.27l1.73,1,1.76,1Zm0,5.45,1.76-1v4.09l-1.76-1.06-1.73-1Zm4-17.46,1.76-1v4.09l-1.76-1.06-1.73-1Zm0,4.52-1.73,1.07V25.79l1.73,1,1.76,1Zm0,.47,1.76-1v4.09l-1.76-1.06-1.73-1Zm0,4.52-1.73,1.07V30.78l1.73,1,1.76,1Zm0,5.46,1.76-1v4.09l-1.76-1.06-1.73-1Zm0,4.52-1.73,1.06V40.75l1.73,1,1.76,1Z"/><path d="M88.7,26.79l1.77-1v4.09L88.7,28.81l-1.73-1Zm0,2.49-1.73-1v4.09l1.73-1.06,1.77-1Zm0,2.49,1.77-1v4.09L88.7,33.8l-1.73-1Zm0,2.5-1.73-1v4.09L88.7,36.3l1.77-1Zm0,2.49,1.77-1v4.09L88.7,38.79l-1.73-1Zm0,2.5-1.73-1v4.09l1.73-1.06,1.77-1Zm0,2.49,1.77-1v4.09L88.7,43.78l-1.73-1Zm4,4.52,1.77,1.07V43.25l-1.77,1-1.72,1Zm4-4.52,1.76-1v4.09l-1.76-1.06-1.73-1Zm0,2.5-1.73-1v4.09l1.73-1.07,1.76-1Zm4-.47L99,44.84V40.75l1.73,1,1.76,1Z"/><path d="M105.83,26.82l1.77-1v4.09l-1.77-1-1.73-1Zm0,4.56-1.73,1V28.32l1.73,1,1.77,1.07Zm0,.43,1.77-1V34.9l-1.77-1-1.73-1Zm0,5,1.77-1v4.09l-1.77-1-1.73-1Zm0,4.55-1.73,1V38.29l1.73,1,1.77,1.06Zm0,.43,1.77-1v4.09l-1.77-1-1.73-1Zm4-17.46,1.77-1v4.09l-1.77-1-1.73-1Zm0,4.56-1.73,1V25.82l1.73,1,1.77,1.06Zm0,5-1.73,1V30.81l1.73,1,1.77,1.06Zm0,5-1.73,1V35.8l1.73,1,1.77,1.06Zm0,5.42,1.77-1v4.09l-1.77-1-1.73-1Zm4-17.89-1.73,1V23.33l1.73,1,1.77,1.07Zm0,.43,1.77-1v4.09l-1.77-1-1.73-1Zm0,15,1.77-1v4.09l-1.77-1-1.73-1Zm0,4.56-1.73,1V43.28l1.73,1,1.77,1.06Zm4-17.46-1.73,1V25.82l1.73,1,1.76,1.06Zm0,15-1.73,1V40.79l1.73,1,1.76,1.07Z"/></svg>