<svg id="Слой_1" data-name="Слой 1" xmlns="http://www.w3.org/2000/svg" viewBox="0 0 101.44 50"><path d="M34.74,9.48h8.74a4.92,4.92,0,0,1,2,.42,5.52,5.52,0,0,1,1.68,1.15,5.63,5.63,0,0,1,1.17,1.65,4.62,4.62,0,0,1,.43,2v1.69a5.52,5.52,0,0,1-.41,2.17,5.09,5.09,0,0,1-2.81,2.85,5.47,5.47,0,0,1-2.16.41,6,6,0,0,1-1.57-.21A4.87,4.87,0,0,1,40.42,21a3.08,3.08,0,0,1-1-1.06,2.92,2.92,0,0,1-.37-1.49A2.82,2.82,0,0,1,39.32,17a2.44,2.44,0,0,0,.28-.59c0-.05-.05-.07-.13-.07s-.31.2-.47.61a3.69,3.69,0,0,0-.25,1.43,3,3,0,0,0,.7,2.09,4.07,4.07,0,0,0,1.69,1.13,4.72,4.72,0,0,0,.19,1.54,11.15,11.15,0,0,0,.48,1.31c.19.4.35.79.5,1.16a2.83,2.83,0,0,1,.22,1.09.75.75,0,0,1-.12.4H34.74Zm8.49,3.38a3.63,3.63,0,0,1,.59.94A3.06,3.06,0,0,1,44,14.91a3.76,3.76,0,0,1-.19,1.22,6.48,6.48,0,0,1-.4.9,2.64,2.64,0,0,1-.4.57,1.84,1.84,0,0,0-.19.22c0,.07.05.1.15.1s.22-.08.37-.25a3.25,3.25,0,0,0,.42-.67,5.35,5.35,0,0,0,.36-1A4,4,0,0,0,44.28,15a3.68,3.68,0,0,0-.09-.82,3.73,3.73,0,0,0-.22-.71,1.78,1.78,0,0,0-.3-.5.43.43,0,0,0-.31-.19C43.27,12.74,43.23,12.78,43.23,12.86Z"/><path d="M49.11,16.63a1.39,1.39,0,0,1,.53-1.14,3.66,3.66,0,0,1,1.27-.61,7.07,7.07,0,0,1,1.55-.23c.54,0,1,0,1.39,0l2.66,0V25.45A1.64,1.64,0,0,1,56,26.66a1.73,1.73,0,0,1-1.23.48H49.11Zm0-4.61a1.63,1.63,0,0,1,.31-.95,3.34,3.34,0,0,1,.83-.8,4.45,4.45,0,0,1,1.21-.54A5,5,0,0,1,53,9.53a5,5,0,0,1,1.36.17,4.08,4.08,0,0,1,1.12.49,2.54,2.54,0,0,1,.77.72,1.52,1.52,0,0,1,.29.88,1.63,1.63,0,0,1-.31.94,2.9,2.9,0,0,1-.85.77A5.32,5.32,0,0,1,54.1,14a5.49,5.49,0,0,1-1.47.2,4.93,4.93,0,0,1-1.34-.18,4.31,4.31,0,0,1-1.11-.47,2.85,2.85,0,0,1-.76-.7A1.48,1.48,0,0,1,49.14,12Z"/><path d="M56.86,12.86a2.49,2.49,0,0,1,.33-1.18A4.16,4.16,0,0,1,58,10.59a4.29,4.29,0,0,1,1.13-.8,2.8,2.8,0,0,1,1.23-.31h6.86a3.36,3.36,0,0,1,1.14.22,3.6,3.6,0,0,1,2,1.86,3.79,3.79,0,0,1,.35,1.68,3.87,3.87,0,0,1-.59,2.15A7.1,7.1,0,0,1,68.68,17a15.38,15.38,0,0,1-1.91,1.32c-.69.39-1.33.8-1.92,1.2a7.06,7.06,0,0,0-1.47,1.33,2.51,2.51,0,0,0-.59,1.65,3.73,3.73,0,0,0,0,.43,2.43,2.43,0,0,0,.08.47,1,1,0,0,0,.18.37.31.31,0,0,0,.26.15c.07,0,.1,0,.1-.07a1.31,1.31,0,0,0-.18-.39,2.14,2.14,0,0,1-.17-1,2.21,2.21,0,0,1,.42-1.39,3.23,3.23,0,0,1,1.06-.88A5.67,5.67,0,0,1,66,19.8a7.61,7.61,0,0,1,1.37-.13,3.9,3.9,0,0,1,2.63.79,3,3,0,0,1,.91,2.35,6.28,6.28,0,0,1-.15,1.27,5.54,5.54,0,0,1-.44,1.22,6.78,6.78,0,0,1-.67,1.06,3.82,3.82,0,0,1-.84.78H57.71a3.45,3.45,0,0,1-.6-1.14,4.21,4.21,0,0,1,.25-3.42,9.49,9.49,0,0,1,1.26-1.9A13.4,13.4,0,0,1,60.29,19,18.7,18.7,0,0,1,62,17.65c.37-.25.72-.48,1.06-.69a5.27,5.27,0,0,0,.9-.67,2.78,2.78,0,0,0,.62-.85,2.61,2.61,0,0,0,.24-1.18c0-.7-.18-1.11-.55-1.25a.09.09,0,0,0-.1.1.16.16,0,0,0,.06.13.39.39,0,0,1,.13.15,1.29,1.29,0,0,1,.12.28,1.37,1.37,0,0,1,.07.49,2.36,2.36,0,0,1-.4,1.35,3.89,3.89,0,0,1-1,1,5.16,5.16,0,0,1-1.33.6,5.35,5.35,0,0,1-1.38.2,4.06,4.06,0,0,1-1.34-.23,4.18,4.18,0,0,1-1.15-.6,2.83,2.83,0,0,1-.78-.88,2.24,2.24,0,0,1-.29-1.11Z"/><path d="M71.21,12.86a2.49,2.49,0,0,1,.33-1.18,4.16,4.16,0,0,1,.82-1.09,4.29,4.29,0,0,1,1.13-.8,2.8,2.8,0,0,1,1.24-.31h6.85a3.42,3.42,0,0,1,1.15.22,3.55,3.55,0,0,1,1.14.69,3.51,3.51,0,0,1,.87,1.17,3.65,3.65,0,0,1,.35,1.68,3.86,3.86,0,0,1-.58,2.15A7.1,7.1,0,0,1,83,17a14.78,14.78,0,0,1-1.92,1.32c-.69.39-1.33.8-1.92,1.2a7.06,7.06,0,0,0-1.47,1.33,2.51,2.51,0,0,0-.59,1.65,3.73,3.73,0,0,0,0,.43,2.44,2.44,0,0,0,.09.47,1.15,1.15,0,0,0,.17.37.33.33,0,0,0,.26.15c.07,0,.1,0,.1-.07a1.46,1.46,0,0,0-.17-.39,2,2,0,0,1-.18-1,2.16,2.16,0,0,1,.43-1.39,3,3,0,0,1,1.06-.88,5.46,5.46,0,0,1,1.38-.46,7.69,7.69,0,0,1,1.37-.13,3.9,3.9,0,0,1,2.63.79,3,3,0,0,1,.91,2.35,5.64,5.64,0,0,1-.15,1.27,5.54,5.54,0,0,1-.44,1.22A6.12,6.12,0,0,1,84,26.36a3.82,3.82,0,0,1-.84.78H72.06a3.45,3.45,0,0,1-.6-1.14,4.75,4.75,0,0,1-.25-1.45,4.43,4.43,0,0,1,.5-2A9.49,9.49,0,0,1,73,20.68,14.11,14.11,0,0,1,74.64,19a20.22,20.22,0,0,1,1.71-1.33q.54-.37,1.05-.69a4.9,4.9,0,0,0,.9-.67,2.81,2.81,0,0,0,.63-.85,2.76,2.76,0,0,0,.23-1.18c0-.7-.18-1.11-.55-1.25a.09.09,0,0,0-.1.1.17.17,0,0,0,.07.13.49.49,0,0,1,.12.15,1.92,1.92,0,0,1,.13.28,1.68,1.68,0,0,1,.06.49,2.36,2.36,0,0,1-.4,1.35,3.74,3.74,0,0,1-1,1,5.16,5.16,0,0,1-1.33.6,5.28,5.28,0,0,1-1.37.2,4.07,4.07,0,0,1-1.35-.23,4.33,4.33,0,0,1-1.15-.6,2.83,2.83,0,0,1-.78-.88,2.24,2.24,0,0,1-.29-1.11Z"/><path d="M85.59,22.53a15,15,0,0,1,.19-2.17,24.74,24.74,0,0,1,.56-2.74,27.82,27.82,0,0,1,.93-2.9,14.36,14.36,0,0,1,1.32-2.63,7.35,7.35,0,0,1,1.72-1.89,3.47,3.47,0,0,1,2.13-.72,3.86,3.86,0,0,1,2.29.71A7.13,7.13,0,0,1,96.55,12a13.15,13.15,0,0,1,1.37,2.58,22.69,22.69,0,0,1,1,2.89,24.05,24.05,0,0,1,.55,2.79,19,19,0,0,1,.17,2.26c0,.55,0,1.09-.08,1.64a4.12,4.12,0,0,1-.43,1.48,2.61,2.61,0,0,1-1,1.06,3.25,3.25,0,0,1-1.76.4H92.94c.13-.26.25-.53.35-.79a2.5,2.5,0,0,0,.15-.88,2.17,2.17,0,0,0-.19-.92,6.21,6.21,0,0,0-.42-.81c-.16-.26-.3-.51-.43-.76a1.77,1.77,0,0,1-.18-.77,2.12,2.12,0,0,1,.08-.57,3.71,3.71,0,0,1,.22-.55s0-.07,0-.1a.14.14,0,0,0-.1,0c-.07,0-.14.06-.2.17a2.09,2.09,0,0,0-.17.4A3.82,3.82,0,0,0,92,22a1.48,1.48,0,0,0,0,.28,1.74,1.74,0,0,0,.2.84c.13.26.27.51.42.76s.29.5.42.77a1.8,1.8,0,0,1,.2.85,2.86,2.86,0,0,1-.16.91,2,2,0,0,1-.46.78H87.81a1.74,1.74,0,0,1-1.36-.5,2.8,2.8,0,0,1-.65-1.2,6.71,6.71,0,0,1-.2-1.51C85.59,23.4,85.59,22.93,85.59,22.53Zm5-3.88a1.35,1.35,0,0,0,.2-.32,3.48,3.48,0,0,1,.57-.71,1.94,1.94,0,0,1,.64-.4,2.38,2.38,0,0,1,.81-.14,1.78,1.78,0,0,1,1.24.59,3.25,3.25,0,0,1,.38.45,3,3,0,0,1,.18.35,1.33,1.33,0,0,1,.08.24c0,.06,0,.09.06.09s.1-.06.1-.15a1.22,1.22,0,0,0-.19-.65,2.22,2.22,0,0,0-.48-.59,2.88,2.88,0,0,0-.66-.43,1.62,1.62,0,0,0-.71-.18,2.43,2.43,0,0,0-1.46.5,2.34,2.34,0,0,0-.91,1.22.12.12,0,0,0,0,.13A.1.1,0,0,0,90.55,18.65Z"/><path d="M14.69,27.58h8.74a4.83,4.83,0,0,1,2,.42,5.81,5.81,0,0,1,1.69,1.15,5.68,5.68,0,0,1,1.17,1.66,4.54,4.54,0,0,1,.43,1.95v1.7a5.55,5.55,0,0,1-.41,2.17,5.28,5.28,0,0,1-1.12,1.72,5.07,5.07,0,0,1-1.69,1.13,5.65,5.65,0,0,1-2.16.41,6,6,0,0,1-1.57-.21,4.87,4.87,0,0,1-1.39-.62,3.17,3.17,0,0,1-1-1.06A2.93,2.93,0,0,1,19,36.5a2.85,2.85,0,0,1,.27-1.36,2.22,2.22,0,0,0,.27-.58c0-.05,0-.08-.12-.08s-.31.21-.47.61a3.74,3.74,0,0,0-.25,1.44,3,3,0,0,0,.7,2.09,4,4,0,0,0,1.69,1.12,4.52,4.52,0,0,0,.19,1.55,11,11,0,0,0,.48,1.3c.18.41.35.8.5,1.16a2.88,2.88,0,0,1,.22,1.1.77.77,0,0,1-.12.4H14.69ZM23.18,31a3.77,3.77,0,0,1,.59.93A3.07,3.07,0,0,1,24,33a3.69,3.69,0,0,1-.18,1.22,6.48,6.48,0,0,1-.4.9,2.64,2.64,0,0,1-.4.57,1.52,1.52,0,0,0-.19.23c0,.06,0,.1.15.1s.22-.08.36-.25a3.11,3.11,0,0,0,.43-.67,6,6,0,0,0,.36-1,4,4,0,0,0,.15-1.09,3.75,3.75,0,0,0-.09-.82,4.24,4.24,0,0,0-.22-.71,1.94,1.94,0,0,0-.3-.5.44.44,0,0,0-.31-.18C23.22,30.85,23.18,30.89,23.18,31Z"/><path d="M29.06,27.56h7.5a6.67,6.67,0,0,1,.51,1.2,3.4,3.4,0,0,1,.12.94,6.7,6.7,0,0,1-.4,2.33,18.3,18.3,0,0,1-.89,2c-.32.64-.62,1.25-.89,1.84a4.22,4.22,0,0,0-.42,1.83,3.75,3.75,0,0,0,.17,1.09,4,4,0,0,0,.41,1,2.27,2.27,0,0,0,.57.68,1,1,0,0,0,.65.26c.13,0,.2,0,.2-.1s-.05-.14-.15-.18a3.37,3.37,0,0,1-.32-.17,2.39,2.39,0,0,1-.89-1,3.58,3.58,0,0,1-.34-1.51,4.24,4.24,0,0,1,.41-1.78q.42-.89.9-1.83a19.55,19.55,0,0,0,.89-2,6.86,6.86,0,0,0,.39-2.35,5.53,5.53,0,0,0,0-.61c0-.17-.07-.34-.11-.49s-.12-.32-.19-.49l-.26-.57h6.2V42.81a2.16,2.16,0,0,1-.81,1.76,3.22,3.22,0,0,1-2.13.68H36.81a6,6,0,0,0,1-.54,6.67,6.67,0,0,0,1-.79,5,5,0,0,0,.8-1,3,3,0,0,0,.4-1.14c0-.23,0-.34-.13-.34s-.13.05-.16.16,0,.23-.09.38a3.13,3.13,0,0,1-.67,1.27,4.88,4.88,0,0,1-1.23,1A6.45,6.45,0,0,1,36,45a8,8,0,0,1-2,.25,5.44,5.44,0,0,1-2.18-.4,3.58,3.58,0,0,1-1.56-1.28,6.31,6.31,0,0,1-.94-2.27A15.85,15.85,0,0,1,29.06,38Z"/><path d="M43.44,31a2.56,2.56,0,0,1,.32-1.18,4.25,4.25,0,0,1,.83-1.1,4.53,4.53,0,0,1,1.13-.8A2.87,2.87,0,0,1,47,27.58h6.86a3.4,3.4,0,0,1,1.14.23,3.46,3.46,0,0,1,1.15.68A3.73,3.73,0,0,1,57,29.66a3.85,3.85,0,0,1,.35,1.68,3.9,3.9,0,0,1-.59,2.16,6.86,6.86,0,0,1-1.47,1.63,14.78,14.78,0,0,1-1.92,1.32c-.69.4-1.32.8-1.91,1.21A7.32,7.32,0,0,0,50,39a2.48,2.48,0,0,0-.59,1.66c0,.11,0,.26,0,.42a3.26,3.26,0,0,0,.09.47,1,1,0,0,0,.18.38.31.31,0,0,0,.26.15c.06,0,.1,0,.1-.08a1.3,1.3,0,0,0-.18-.38,2.14,2.14,0,0,1-.17-1,2.24,2.24,0,0,1,.42-1.4,3.32,3.32,0,0,1,1.06-.87,5,5,0,0,1,1.38-.46,7.86,7.86,0,0,1,1.37-.14,3.86,3.86,0,0,1,2.63.8,2.93,2.93,0,0,1,.91,2.34,5.57,5.57,0,0,1-.15,1.27,5.53,5.53,0,0,1-1.11,2.28,3.42,3.42,0,0,1-.83.79H44.29a3.17,3.17,0,0,1-.6-1.15,4.46,4.46,0,0,1-.25-1.44,4.39,4.39,0,0,1,.5-2,9.55,9.55,0,0,1,1.26-1.91,14,14,0,0,1,1.67-1.69,18.93,18.93,0,0,1,1.7-1.34l1.06-.68a5.85,5.85,0,0,0,.9-.67,2.91,2.91,0,0,0,.62-.85,2.64,2.64,0,0,0,.24-1.18c0-.7-.18-1.12-.55-1.25-.07,0-.1,0-.1.1a.14.14,0,0,0,.06.12,1,1,0,0,1,.13.15,1.7,1.7,0,0,1,.12.29,1.63,1.63,0,0,1,.06.49,2.26,2.26,0,0,1-.4,1.34,3.56,3.56,0,0,1-1,1,4.51,4.51,0,0,1-1.34.6,5.28,5.28,0,0,1-1.37.2,4,4,0,0,1-1.34-.22,4.18,4.18,0,0,1-1.15-.6,2.87,2.87,0,0,1-.78-.89,2.23,2.23,0,0,1-.29-1.1Z"/><path d="M57.79,31a2.46,2.46,0,0,1,.33-1.18,4,4,0,0,1,.82-1.1,4.53,4.53,0,0,1,1.13-.8,2.9,2.9,0,0,1,1.23-.31h6.86a3.4,3.4,0,0,1,1.14.23,3.46,3.46,0,0,1,1.15.68,3.73,3.73,0,0,1,.87,1.17,3.85,3.85,0,0,1,.35,1.68,3.9,3.9,0,0,1-.59,2.16,6.86,6.86,0,0,1-1.47,1.63,15.38,15.38,0,0,1-1.91,1.32c-.7.4-1.33.8-1.92,1.21A7.32,7.32,0,0,0,64.31,39a2.54,2.54,0,0,0-.59,1.66,3.58,3.58,0,0,0,0,.42,2.31,2.31,0,0,0,.08.47,1,1,0,0,0,.18.38.31.31,0,0,0,.26.15c.07,0,.1,0,.1-.08a1.3,1.3,0,0,0-.18-.38,2.14,2.14,0,0,1-.17-1,2.24,2.24,0,0,1,.42-1.4,3.32,3.32,0,0,1,1.06-.87,5,5,0,0,1,1.38-.46,7.87,7.87,0,0,1,1.38-.14,3.85,3.85,0,0,1,2.62.8,2.93,2.93,0,0,1,.91,2.34,5.57,5.57,0,0,1-.15,1.27,5.51,5.51,0,0,1-.43,1.22,6,6,0,0,1-.67,1.06,3.65,3.65,0,0,1-.84.79H58.64A3.33,3.33,0,0,1,58,44.1a4.46,4.46,0,0,1-.25-1.44,4.39,4.39,0,0,1,.5-2,9.55,9.55,0,0,1,1.26-1.91,14,14,0,0,1,1.67-1.69,18.93,18.93,0,0,1,1.7-1.34L64,35.07a5.85,5.85,0,0,0,.9-.67,2.91,2.91,0,0,0,.62-.85,2.64,2.64,0,0,0,.24-1.18c0-.7-.18-1.12-.55-1.25-.07,0-.1,0-.1.1a.14.14,0,0,0,.06.12,1,1,0,0,1,.13.15,1.7,1.7,0,0,1,.12.29,1.59,1.59,0,0,1,.07.49,2.33,2.33,0,0,1-.4,1.34,3.73,3.73,0,0,1-1,1,4.51,4.51,0,0,1-1.34.6,5.22,5.22,0,0,1-1.37.2A4,4,0,0,1,60,35.16a4.18,4.18,0,0,1-1.15-.6,2.87,2.87,0,0,1-.78-.89,2.23,2.23,0,0,1-.29-1.1Z"/><path d="M72.14,27.58h6.53c0,.22,0,.42,0,.62s0,.35,0,.45a12.86,12.86,0,0,1-.14,1.87c-.09.62-.19,1.23-.31,1.85s-.22,1.23-.31,1.85a13.59,13.59,0,0,0-.14,1.93,9.36,9.36,0,0,0,.2,2,12.54,12.54,0,0,0,.68,2,5.91,5.91,0,0,1-.71.57,1.62,1.62,0,0,1-.86.23,1.87,1.87,0,0,1-.88-.19,2.14,2.14,0,0,0-.42-.18s-.07,0-.07.15a.25.25,0,0,0,.15.23,1.42,1.42,0,0,0,.37.15,2.34,2.34,0,0,0,.46.09l.41,0a2,2,0,0,0,1.12-.32,3.85,3.85,0,0,0,.86-.76,6.8,6.8,0,0,0,.72-1,7,7,0,0,1,.74-1,3.86,3.86,0,0,1,.9-.76,2.13,2.13,0,0,1,1.17-.31,2.71,2.71,0,0,1,1.34.35,3.74,3.74,0,0,1,1.1.93,4.77,4.77,0,0,1,1,2.88,4.09,4.09,0,0,1-.3,1.56A3.68,3.68,0,0,1,85,44.09a4.15,4.15,0,0,1-1.28.85,4.32,4.32,0,0,1-1.64.31H75.48a3.19,3.19,0,0,1-1.93-.51,3.35,3.35,0,0,1-1-1.12,3.5,3.5,0,0,1-.36-1.13c0-.34,0-.51,0-.53Z"/><path d="M94.94,27.56A6.1,6.1,0,0,1,99,28.79a4.38,4.38,0,0,1,1.43,3.5,4,4,0,0,1-.71,2.5,2.38,2.38,0,0,1-2,.91,2,2,0,0,1-1.2-.29,5.59,5.59,0,0,1-.78-.68,4.81,4.81,0,0,0-.81-.67,2.24,2.24,0,0,0-1.25-.3,3.16,3.16,0,0,0-1.31.26c-.37.18-.56.35-.56.51s0,.13.1.13a.48.48,0,0,0,.21-.1,2.15,2.15,0,0,1,.35-.21,2.6,2.6,0,0,1,.5-.2,2.19,2.19,0,0,1,.66-.09,2.14,2.14,0,0,1,.9.19,2.41,2.41,0,0,1,1.23,1.23,2.2,2.2,0,0,1,0,1.79,2.29,2.29,0,0,1-.5.75,2.15,2.15,0,0,1-.72.51,2,2,0,0,1-.88.19,1.93,1.93,0,0,1-.65-.1,4.65,4.65,0,0,1-.54-.22l-.38-.23a.49.49,0,0,0-.2-.1c-.05,0-.08.08-.08.18s.19.39.56.53a3.55,3.55,0,0,0,1.24.21,2.39,2.39,0,0,0,1.27-.28,4.13,4.13,0,0,0,.78-.63,8.17,8.17,0,0,1,.7-.62,1.55,1.55,0,0,1,1-.29,2.52,2.52,0,0,1,1.16.29,3.16,3.16,0,0,1,1,.81,4.27,4.27,0,0,1,.67,1.23,4.9,4.9,0,0,1,.25,1.56,4.71,4.71,0,0,1-.29,1.66,3.79,3.79,0,0,1-2.1,2.2,4.19,4.19,0,0,1-1.7.33H86.44V27.56Z"/></svg>