<svg id="Слой_1" data-name="Слой 1" xmlns="http://www.w3.org/2000/svg" xmlns:xlink="http://www.w3.org/1999/xlink" viewBox="0 0 101.44 50"><defs><style>.cls-1{mask:url(#mask);filter:url(#luminosity-noclip-5);}.cls-2,.cls-4,.cls-6,.cls-8{mix-blend-mode:multiply;}.cls-2{fill:url(#linear-gradient);}.cls-3{mask:url(#mask-2);filter:url(#luminosity-noclip-6);}.cls-4{fill:url(#linear-gradient-2);}.cls-5{mask:url(#mask-3);filter:url(#luminosity-noclip-7);}.cls-6{fill:url(#linear-gradient-3);}.cls-7{mask:url(#mask-4);filter:url(#luminosity-noclip-8);}.cls-8{fill:url(#linear-gradient-4);}.cls-9{fill:#66c5dc;}.cls-10{fill:#f59e5f;}.cls-11,.cls-14,.cls-26,.cls-29,.cls-31{isolation:isolate;}.cls-11{opacity:0.2;}.cls-12{fill:#64140f;}.cls-13{fill:#fedc4d;}.cls-14{opacity:0.6;}.cls-15{fill:#fff;}.cls-16{mask:url(#mask-5);}.cls-17{fill:url(#linear-gradient-5);}.cls-18{mask:url(#mask-6);}.cls-19{fill:url(#linear-gradient-6);}.cls-20{fill:#d86735;}.cls-21{mask:url(#mask-7);}.cls-22{fill:url(#linear-gradient-7);}.cls-23{mask:url(#mask-8);}.cls-24{fill:url(#linear-gradient-8);}.cls-25{fill:#e5252b;}.cls-26{opacity:0.61;}.cls-27{fill:#a27044;}.cls-28{fill:#dc4c47;}.cls-29{opacity:0.19;}.cls-30{fill:#362258;}.cls-31{opacity:0.21;}.cls-32{filter:url(#luminosity-noclip-4);}.cls-33{filter:url(#luminosity-noclip-3);}.cls-34{filter:url(#luminosity-noclip-2);}.cls-35{filter:url(#luminosity-noclip);}</style><filter id="luminosity-noclip" x="15.31" y="-8233.49" width="4.57" height="32766" filterUnits="userSpaceOnUse" color-interpolation-filters="sRGB"><feFlood flood-color="#fff" result="bg"/><feBlend in="SourceGraphic" in2="bg"/></filter><mask id="mask" x="15.31" y="-8233.49" width="4.57" height="32766" maskUnits="userSpaceOnUse"><g class="cls-35"/></mask><linearGradient id="linear-gradient" x1="19.03" y1="69.89" x2="16.01" y2="62.17" gradientTransform="matrix(1, 0, 0, -1, 0, 84.98)" gradientUnits="userSpaceOnUse"><stop offset="0" stop-color="#fff"/><stop offset="1"/></linearGradient><filter id="luminosity-noclip-2" x="17.78" y="-8233.49" width="4.25" height="32766" filterUnits="userSpaceOnUse" color-interpolation-filters="sRGB"><feFlood flood-color="#fff" result="bg"/><feBlend in="SourceGraphic" in2="bg"/></filter><mask id="mask-2" x="17.78" y="-8233.49" width="4.25" height="32766" maskUnits="userSpaceOnUse"><g class="cls-34"/></mask><linearGradient id="linear-gradient-2" x1="21.62" y1="69.33" x2="18.23" y2="61.74" xlink:href="#linear-gradient"/><filter id="luminosity-noclip-3" x="3.43" y="-8233.49" width="4.75" height="32766" filterUnits="userSpaceOnUse" color-interpolation-filters="sRGB"><feFlood flood-color="#fff" result="bg"/><feBlend in="SourceGraphic" in2="bg"/></filter><mask id="mask-3" x="3.43" y="-8233.49" width="4.75" height="32766" maskUnits="userSpaceOnUse"><g class="cls-33"/></mask><linearGradient id="linear-gradient-3" x1="7.39" y1="70.96" x2="4.22" y2="63.19" xlink:href="#linear-gradient"/><filter id="luminosity-noclip-4" x="6.21" y="-8233.49" width="4.3" height="32766" filterUnits="userSpaceOnUse" color-interpolation-filters="sRGB"><feFlood flood-color="#fff" result="bg"/><feBlend in="SourceGraphic" in2="bg"/></filter><mask id="mask-4" x="6.21" y="-8233.49" width="4.3" height="32766" maskUnits="userSpaceOnUse"><g class="cls-32"/></mask><linearGradient id="linear-gradient-4" x1="10.05" y1="70.47" x2="6.8" y2="62.94" xlink:href="#linear-gradient"/><filter id="luminosity-noclip-5" x="15.31" y="15.13" width="4.57" height="7.8" filterUnits="userSpaceOnUse" color-interpolation-filters="sRGB"><feFlood flood-color="#fff" result="bg"/><feBlend in="SourceGraphic" in2="bg"/></filter><mask id="mask-5" x="15.31" y="15.13" width="4.57" height="7.8" maskUnits="userSpaceOnUse"><g class="cls-1"><path class="cls-2" d="M19.88,15.31l-3.11,7.62a8.76,8.76,0,0,1-.84-.32,2.13,2.13,0,0,1-.62-.4l2.89-7.08A15.41,15.41,0,0,1,19.88,15.31Z"/></g></mask><linearGradient id="linear-gradient-5" x1="19.03" y1="69.89" x2="16.01" y2="62.17" gradientTransform="matrix(1, 0, 0, -1, 0, 84.98)" gradientUnits="userSpaceOnUse"><stop offset="0" stop-color="#fff"/><stop offset="1" stop-color="#efe0e1"/></linearGradient><filter id="luminosity-noclip-6" x="17.78" y="15.5" width="4.25" height="7.95" filterUnits="userSpaceOnUse" color-interpolation-filters="sRGB"><feFlood flood-color="#fff" result="bg"/><feBlend in="SourceGraphic" in2="bg"/></filter><mask id="mask-6" x="17.78" y="15.5" width="4.25" height="7.95" maskUnits="userSpaceOnUse"><g class="cls-3"><path class="cls-4" d="M22,15.76l-3.14,7.69c-.4-.07-.77-.14-1.11-.23l3.15-7.72C21.3,15.58,21.67,15.66,22,15.76Z"/></g></mask><linearGradient id="linear-gradient-6" x1="21.62" y1="69.33" x2="18.23" y2="61.74" gradientTransform="matrix(1, 0, 0, -1, 0, 84.98)" gradientUnits="userSpaceOnUse"><stop offset="0" stop-color="#fff"/><stop offset="1" stop-color="#fff"/></linearGradient><filter id="luminosity-noclip-7" x="3.43" y="14.17" width="4.75" height="7.93" filterUnits="userSpaceOnUse" color-interpolation-filters="sRGB"><feFlood flood-color="#fff" result="bg"/><feBlend in="SourceGraphic" in2="bg"/></filter><mask id="mask-7" x="3.43" y="14.17" width="4.75" height="7.93" maskUnits="userSpaceOnUse"><g class="cls-5"><path class="cls-6" d="M8.19,14.26,5,22.11,4.18,22a1.23,1.23,0,0,1-.75-.49l3-7.32Q7.4,14.18,8.19,14.26Z"/></g></mask><linearGradient id="linear-gradient-7" x1="7.39" y1="70.96" x2="4.22" y2="63.19" xlink:href="#linear-gradient-6"/><filter id="luminosity-noclip-8" x="6.21" y="14.41" width="4.3" height="7.84" filterUnits="userSpaceOnUse" color-interpolation-filters="sRGB"><feFlood flood-color="#fff" result="bg"/><feBlend in="SourceGraphic" in2="bg"/></filter><mask id="mask-8" x="6.21" y="14.41" width="4.3" height="7.84" maskUnits="userSpaceOnUse"><g class="cls-7"><path class="cls-8" d="M10.51,14.63,7.4,22.26c-.43,0-.82,0-1.19,0L9.4,14.41C9.82,14.48,10.19,14.56,10.51,14.63Z"/></g></mask><linearGradient id="linear-gradient-8" x1="10.05" y1="70.47" x2="6.8" y2="62.94" xlink:href="#linear-gradient-6"/></defs><circle class="cls-9" cx="16" cy="25.22" r="15.02"/><path class="cls-10" d="M32.61,11.81a3.45,3.45,0,0,1-.12.88,2.59,2.59,0,0,1-2.89,2.2h0l0,.07c-.08.17-.29.56-.57,1.12C27.85,18.27,25.45,23,23.9,26.67c-.17.4-.35.83-.53,1.28-.59,1.41-1.26,3.05-2,4.7s-1.56,3.46-2.37,5a23.3,23.3,0,0,1-1.58,2.55,5.82,5.82,0,0,1-1.79,1.75,2.15,2.15,0,0,1-.32.13l-.05,0s.48,2.06-.75,2.21c-.55.07-.74-.42-.81-1.05a15.87,15.87,0,0,0-.15-2.28c-.31-.9-2-.82-2.32-3.75a7.84,7.84,0,0,1-1.36-3c.09.54.43,2.92-.54,2.92S8.87,34.8,8.49,33s-2.08-6.4-2.08-6.4.26,2.71-1.07,2.66-1-2.09-.66-3.69,0-4.44-.48-6.54a22.76,22.76,0,0,1-.42-5.21A3,3,0,0,1,4,12.87l0-.06a3.9,3.9,0,0,1-.48-.23l-.1-.06-.18-.11-.09-.05,0,0-.28-.2,0,0L2.6,12l-.05,0-.09-.09-.15-.13-.09-.1A2.91,2.91,0,0,1,2,11.28l-.07-.09,0,0s-.05-.08-.07-.13a.43.43,0,0,1,0-.07l0,0a.14.14,0,0,0,0-.06l0-.06A2.94,2.94,0,0,1,2.72,7.11c1.22-.72,4.83-.89,6.19-1.29a15.39,15.39,0,0,1,8.87-.19c3.91,1.23,5.4.73,7.28.83a12.69,12.69,0,0,1,4.27,1.32,8.28,8.28,0,0,1,2.31,1.68h0A3.4,3.4,0,0,1,32.61,11.81Z"/><g class="cls-11"><path class="cls-12" d="M32.61,11.81a2.85,2.85,0,0,1-.9,1.16c-1.21.89-3.2.88-3.84,2a11.22,11.22,0,0,1-.13,2.32,3.67,3.67,0,0,1-1.07,2c-.49.45-1.17.73-1.46,1.33s-.09,1.4-.37,2-.83.9-1.21,1.39a3.24,3.24,0,0,0-.57,2.17A10.23,10.23,0,0,0,23.37,28c-.59,1.41-1.26,3.05-2,4.7a1.38,1.38,0,0,1-1-.69,2.3,2.3,0,0,1-1.81,2.58A9.23,9.23,0,0,1,19,37.61h0L19,38a3,3,0,0,1-1.52,2.12h0a1.92,1.92,0,0,1-.82.21,1.71,1.71,0,0,0-.55,0c-.54.17-.63.93-.43,1.46v0l-.08,0a1.22,1.22,0,0,1-.24.1l-.05,0s.48,2.06-.75,2.21h-.28a.52.52,0,0,1-.18-.1l0,0a1.47,1.47,0,0,1-.1-.13l0,0a.05.05,0,0,1,0,0,1.5,1.5,0,0,1-.12-.34,1865820318486.39,1865820318486.39,0,0,1,0-.1c0-.06,0-.14,0-.21a.43.43,0,0,0,0-.05s0-.1,0-.15,0-.21,0-.31V42c0-.07,0-.14,0-.2h0v-.19a.13.13,0,0,1,0-.06,1.94,1.94,0,0,0,0-.24v-.11a.06.06,0,0,0,0,0,1.44,1.44,0,0,0,0-.24c-.31-.9-2-.82-2.32-3.75a7.84,7.84,0,0,1-1.36-3c.09.54.43,2.92-.54,2.92S8.87,34.8,8.49,33s-2.08-6.4-2.08-6.4.26,2.71-1.07,2.66-1-2.09-.66-3.69,0-4.44-.48-6.54a23.66,23.66,0,0,1-.44-4.77v-.12c0-.08,0-.15,0-.22v-.1s0-.08,0-.11a2.43,2.43,0,0,1,0-.3.13.13,0,0,1,0-.06.69.69,0,0,1,0-.13.83.83,0,0,1,0-.15.43.43,0,0,0,0,0s0,0,0,0l0,0,0,0,0-.06a3.9,3.9,0,0,1-.48-.23l-.1-.06-.18-.11-.09-.05,0,0-.28-.2,0,0L2.6,12l-.05,0-.09-.09-.15-.13-.09-.1A2.91,2.91,0,0,1,2,11.28l-.07-.09,0,0s-.05-.08-.07-.13a.43.43,0,0,1,0-.07l0,0a.14.14,0,0,0,0-.06l0-.06A2.94,2.94,0,0,1,2.72,7.11c1.22-.72,4.83-.89,6.19-1.29a15.39,15.39,0,0,1,8.87-.19c3.91,1.23,5.4.73,7.28.83l.36,0h.11l.38.07.09,0,.29.07.11,0,.2,0,.11,0,.5.15.13,0,.11,0c.26.08.53.18.8.29l.15.06.16.07.15.06.31.15.15.07.16.08.16.08.48.27.16.1.15.1a.91.91,0,0,1,.16.11l.14.09.16.12.12.09,0,0,.26.21h0l.12.11,0,0a1.14,1.14,0,0,1,.11.11l.1.09.06.06.08.09h0l.06.06a1.47,1.47,0,0,1,.1.13,3.37,3.37,0,0,1,.38.55l.07.12a3.23,3.23,0,0,1,.34,1.05A2.07,2.07,0,0,1,32.61,11.81Z"/></g><path class="cls-13" d="M26.82,14.8c.14,1,.38,2.32-.49,2.62a.91.91,0,0,1-1.19-.52,8.77,8.77,0,0,1-.84,3.61c-.88,1.88-1.92,2.83-2.08,4.86s.79,4.83-.74,5.3-1.35-1.8-1.35-1.8a13.68,13.68,0,0,0-.56,2.34c-.1,1,.08,1.78-.48,2s-1-.45-1-1.16a9.26,9.26,0,0,0-.2,3.22c.22,1.75.24,3.28-.64,3.79-.67.39-1.06-.34-1.58-.24-.87.16-.69,2.07-.44,3.15,0,.11.07.27.1.44.12.7.16,1.71-.82,1.83h-.28a.52.52,0,0,1-.18-.1l0,0a1.47,1.47,0,0,1-.1-.13l0,0a.05.05,0,0,1,0,0,1.5,1.5,0,0,1-.12-.34.43.43,0,0,1,0,0v-.05q0-.09,0-.21v-.05a15.87,15.87,0,0,0-.15-2.28c-.31-.9-2-.82-2.32-3.75a7.88,7.88,0,0,1-1.34-2.88.5.5,0,0,1,0-.12,1,1,0,0,0,0,.15A8,8,0,0,1,10,36c0,.6-.21,1.11-.66,1.11s-.48-.18-.58-.49c-.25-.77,0-2.33-.28-3.65a62.26,62.26,0,0,0-2-6.07c-.07-.21-.12-.33-.12-.33s.26,2.71-1.07,2.66c-.57,0-.84-.4-.93-.95a7.89,7.89,0,0,1,.27-2.74c.36-1.6,0-4.44-.48-6.54S3.57,13.75,4,12.87l0-.06a3.9,3.9,0,0,1-.48-.23c1.83-1.84,8.66-7.1,22.36-.69l1.14.55A7.82,7.82,0,0,0,26.82,14.8Z"/><g class="cls-11"><path class="cls-12" d="M32.49,12.69a2.59,2.59,0,0,1-2.89,2.2h0l0,.07c-.08.17-.29.56-.57,1.12a7.66,7.66,0,0,1-1.8-.45l-.26-.1c.09.82.08,1.65-.59,1.88a.91.91,0,0,1-1.19-.52,8.77,8.77,0,0,1-.84,3.61c-.88,1.88-1.92,2.83-2.08,4.86s.79,4.83-.74,5.3-1.35-1.8-1.35-1.8a13.68,13.68,0,0,0-.56,2.34c-.1,1,.08,1.78-.48,2s-1-.45-1-1.16a9.26,9.26,0,0,0-.2,3.22c.22,1.75.24,3.28-.64,3.79-.67.39-1.06-.34-1.58-.24-.87.16-.69,2.07-.44,3.15,0,.11.07.27.1.44.07.61.07,1.72-.82,1.83h-.28a.52.52,0,0,1-.18-.1l0,0a1.47,1.47,0,0,1-.1-.13l0,0a.05.05,0,0,1,0,0,1.5,1.5,0,0,1-.12-.34.43.43,0,0,1,0,0v-.05a2,2,0,0,1,0-.26h0a1.34,1.34,0,0,0,.72-.54A2.46,2.46,0,0,0,14.63,41a7.62,7.62,0,0,1-.21-1.71A1.47,1.47,0,0,1,15.34,38c.48-.14,1.1,0,1.41-.34a1.25,1.25,0,0,0,.19-.59c.2-1.69.34-3.72.71-5.57a.38.38,0,0,1,.59-.23c1,.69,1-.63,1.12-1.44a17,17,0,0,1,.58-2.09,4.33,4.33,0,0,0,.17-1.19c.13.65.27,1.31.4,2a.62.62,0,0,0,.2.41c.31.23.68-.22.78-.59.48-1.8,0-3.75.49-5.55.63-2.33,2.79-4.07,3.22-6.45a.36.36,0,0,0,.52,0,.92.92,0,0,0,.19-.56h0a1,1,0,0,0-.52-.93c-.61-.33-1.2-.68-1.82-1a11.64,11.64,0,0,0-3.9-1.41,22.8,22.8,0,0,0-5.27.27,7.88,7.88,0,0,1-5.11-.89,5.47,5.47,0,0,1-3,2,5.69,5.69,0,0,1-2.53.06A3,3,0,0,1,4,12.87l0-.06s-.19-.08-.48-.23l-.1-.06-.18-.11-.09-.05,0,0a2.55,2.55,0,0,1-.28-.21l0,0L2.6,12l-.05,0-.09-.09-.15-.13-.09-.1A2.91,2.91,0,0,1,2,11.28l-.07-.09,0,0s-.05-.08-.07-.13l0-.07,0-.06a.17.17,0,0,0,0-.05l0-.06A2.94,2.94,0,0,1,2.72,7.11c1.22-.72,4.83-.89,6.19-1.29a15.39,15.39,0,0,1,8.87-.19c3.91,1.23,5.4.73,7.28.83,1.3.07,4.85,1.07,6.58,3h0A3.32,3.32,0,0,1,32.49,12.69Z"/></g><path class="cls-12" d="M14.43,44.57h-.21l-.06,0a.76.76,0,0,1-.28-.15l0,0a.9.9,0,0,1-.15-.18l0,0,0-.06a1.87,1.87,0,0,1-.14-.4.35.35,0,0,1,0-.06.43.43,0,0,1,0-.05c0-.07,0-.15,0-.23v-.07c0-.05,0-.1,0-.15s0-.21,0-.32v-.1h0v-.14c0-.12,0-.24,0-.36v-.33h0v-.23c0-.07,0-.15,0-.23h0v-.09h0c0-.08,0-.15,0-.2-.08-.21-.28-.36-.56-.58A4.09,4.09,0,0,1,11,37.3a8.25,8.25,0,0,1-.67-1.1,1.77,1.77,0,0,1-.33.92.77.77,0,0,1-.61.28c-.32,0-.74-.14-.9-.83a7.38,7.38,0,0,1-.11-1.52,10.56,10.56,0,0,0-.14-2,50.94,50.94,0,0,0-1.55-4.94,2.18,2.18,0,0,1-.48,1.09,1.06,1.06,0,0,1-.84.35,1.18,1.18,0,0,1-.91-.44c-.57-.75-.34-2.25,0-3.61.38-1.67-.14-4.74-.48-6.42a24.3,24.3,0,0,1-.45-4.84V14.1a1.69,1.69,0,0,1,0-.23v-.1s0-.08,0-.12,0-.22,0-.32a.13.13,0,0,0,0-.06l0-.14a.94.94,0,0,1,0-.16l-.25-.13-.09-.05h0a1.32,1.32,0,0,1-.2-.12l0,0,0,0H3l0,0-.3-.21-.05,0-.16-.13-.05,0-.11-.09-.15-.15L2,11.81a2.34,2.34,0,0,1-.29-.35l-.07-.11,0,0c0-.05-.05-.1-.08-.14l0-.08v0a.08.08,0,0,1,0-.05l0-.06,0,0v0a3.23,3.23,0,0,1,1.17-4,13.47,13.47,0,0,1,4-.93,21.29,21.29,0,0,0,2.21-.39,15.66,15.66,0,0,1,9.05-.19,15.39,15.39,0,0,0,5.77.82,13.83,13.83,0,0,1,1.44,0l.38,0,.11,0,.4.07h.09l.3.07.09,0h0l.21.06.09,0h0l.51.15.13,0h0l.11,0,.81.29h0l.15.06.15.07.13,0h0l.32.15.15.08.16.07.17.09c.18.09.34.19.5.28l.16.1.16.1.16.11.1.07,0,0,.17.12.12.1,0,0,.26.22,0,0,.12.11,0,0,.11.1.1.11.06.06a.6.6,0,0,0,.08.08h0l.06.06a1.34,1.34,0,0,1,.11.14,3.69,3.69,0,0,1,.41.59l.07.13a3.52,3.52,0,0,1,.37,1.15,3.87,3.87,0,0,1,0,.48,4,4,0,0,1-.13.95,2.91,2.91,0,0,1-3,2.43c-.55,1-3.69,7.1-5.6,11.58-.18.43-.37.89-.53,1.29s-.21.51-.32.77c-.5,1.21-1.07,2.57-1.66,3.93-.88,2-1.66,3.65-2.38,5h0a23.68,23.68,0,0,1-1.6,2.59h0a6,6,0,0,1-1.88,1.82l-.09,0-.08,0a2.74,2.74,0,0,1-.25,1.84,1.12,1.12,0,0,1-.81.47Zm0-.59h0Zm0,0h.11a.54.54,0,0,0,.39-.23A2.53,2.53,0,0,0,15,42.12a.29.29,0,0,1,.21-.35h0l.21-.08.06,0A5.74,5.74,0,0,0,17.2,40v0a21.34,21.34,0,0,0,1.54-2.49h0c.71-1.31,1.48-2.92,2.36-4.94.59-1.35,1.15-2.71,1.65-3.91l.32-.78.54-1.29c2-4.66,5.29-11,5.66-11.71v0l0,0a.26.26,0,0,1,.32-.17,2.3,2.3,0,0,0,2.55-2,2.82,2.82,0,0,0,.12-.8h0a2.56,2.56,0,0,0,0-.39,2.84,2.84,0,0,0-.3-.95l-.06-.11a3.46,3.46,0,0,0-.36-.52l-.1-.12,0,0v0l-.08-.08h0l-.05-.05h0a.6.6,0,0,1-.08-.08h0l-.1-.1h0L31,9.21h0L30.7,9h0a.47.47,0,0,0-.12-.09l-.15-.12,0,0-.09-.07-.16-.1L30,8.48l-.15-.09-.47-.27L29.19,8,29,8l-.15-.08-.3-.13,0,0-.12,0h0l-.15-.06-.14-.06h0c-.26-.1-.52-.2-.78-.28l-.1,0h0l-.12,0-.5-.14h0l-.08,0-.21,0h0l-.08,0-.29-.06h-.08l-.38-.06-.09,0-.34,0a13.08,13.08,0,0,0-1.4,0,15.88,15.88,0,0,1-6-.84A15,15,0,0,0,9,6.11a21.13,21.13,0,0,1-2.3.4,13.66,13.66,0,0,0-3.82.86A2.63,2.63,0,0,0,2,10.66v0l0,0H2l0,0H2l0,0H2l0,.06a.75.75,0,0,0,.07.12l0,0a.7.7,0,0,0,.06.09,3.15,3.15,0,0,0,.24.3l.09.09.12.12.09.08,0,0,.14.11,0,0,.28.19,0,0h0l0,0,0,0,.17.11h0l.08.05c.26.14.45.22.45.22a.3.3,0,0,1,.16.41l0,0v0h0v0h0v.06l0,.14a.36.36,0,0,0,0,.11h0v0h0c0,.08,0,.17,0,.27v.21a1.48,1.48,0,0,0,0,.21v.12a24.42,24.42,0,0,0,.44,4.7c.35,1.73.88,4.89.48,6.67-.14.61-.56,2.49-.08,3.12a.59.59,0,0,0,.46.21.51.51,0,0,0,.39-.16,3.57,3.57,0,0,0,.38-2.18.29.29,0,0,1,.22-.32.3.3,0,0,1,.35.18c.07.19,1.71,4.61,2.09,6.45A11.07,11.07,0,0,1,8.93,35,7.86,7.86,0,0,0,9,36.44c.09.37.23.37.33.37a.2.2,0,0,0,.16-.07,4.35,4.35,0,0,0,.09-2.5.29.29,0,1,1,.58-.1A7.57,7.57,0,0,0,11.48,37a.32.32,0,0,1,.06.15A3.53,3.53,0,0,0,13.09,40a2,2,0,0,1,.76.86,1.84,1.84,0,0,1,.06.29.09.09,0,0,1,0,0v.06s0,0,0,.06,0,.17,0,.25v.06h0v.19h0v.33c0,.12,0,.24,0,.36v.08h0v0l-.29,0H14s0,.07,0,.1,0,.2,0,.29,0,.1,0,.15h0v0h0l0,.19h0v.07a.84.84,0,0,0,.09.28h0v0h0v0l.06.06h0l.08,0h0Zm0,0Zm-.05,0h0Zm15-29.19Zm0,0Zm1.61-5.56ZM30.7,9Zm0,0h0Z"/><path class="cls-12" d="M27.86,22.47c-.74-.42.14-1.51-.11-2.1a1.41,1.41,0,0,0-.53-.48,16.67,16.67,0,0,0-2.35-1.1,18.49,18.49,0,0,1-1.21,3.53A2.11,2.11,0,0,1,21.8,23.6a14.76,14.76,0,0,1-2.91-.15c-.4-.07-.77-.14-1.11-.23s-.71-.19-1-.29a8.76,8.76,0,0,1-.84-.32,2.13,2.13,0,0,1-.62-.4,2.22,2.22,0,0,1-.72-1.41,23.07,23.07,0,0,1-.13-3.57h0a1.71,1.71,0,0,1,0-.26v0a2.52,2.52,0,0,0-2.2-.24l-.06,0a15.46,15.46,0,0,1-1,4.27l0,.08a1.69,1.69,0,0,1-1.36,1,21.93,21.93,0,0,1-2.42.16c-.43,0-.82,0-1.19,0s-.87-.07-1.23-.11L4.18,22a1.23,1.23,0,0,1-.75-.49,1.27,1.27,0,0,1-.18-.39,17.37,17.37,0,0,1-.61-5.69,1.21,1.21,0,0,1,1.11-1.14c1-.08,1.87-.11,2.67-.1s1.24,0,1.77.09.85.09,1.21.15.79.15,1.11.22a8,8,0,0,1,1.38.45l0,0a3.88,3.88,0,0,1,2.74.21l.06,0a15,15,0,0,1,3.46-.21,15.41,15.41,0,0,1,1.68.18c.36,0,.71.11,1.05.19s.74.16,1.1.26a20.7,20.7,0,0,1,3.21,1.16,17,17,0,0,1,3.05,1.73,3.28,3.28,0,0,1,.91.89,1.7,1.7,0,0,1,.15.45C29.54,21.2,28.51,22.85,27.86,22.47Z"/><g class="cls-14"><path class="cls-15" d="M29.36,20.54a.28.28,0,0,1,0-.09A1.83,1.83,0,0,0,29.2,20a3.43,3.43,0,0,0-.91-.88,16.34,16.34,0,0,0-3.05-1.74A21.81,21.81,0,0,0,22,16.23c-.36-.1-.73-.19-1.1-.26s-.69-.14-1.05-.2c-.55-.08-1.11-.14-1.68-.17a14.44,14.44,0,0,0-3.46.21l-.06,0a3.88,3.88,0,0,0-2.74-.21l0,0a7.13,7.13,0,0,0-1.38-.45c-.32-.08-.69-.15-1.11-.22s-.77-.11-1.21-.15-1.12-.08-1.77-.09-1.69,0-2.67.1a1.2,1.2,0,0,0-1.11,1.13q0,.33,0,.75c0-.47,0-.88,0-1.21a1.21,1.21,0,0,1,1.11-1.14c1-.08,1.87-.11,2.67-.1s1.24,0,1.77.09.85.09,1.21.15.79.15,1.11.22a8,8,0,0,1,1.38.45l0,0a3.88,3.88,0,0,1,2.74.21l.06,0a15,15,0,0,1,3.46-.21,15.41,15.41,0,0,1,1.68.18c.36,0,.71.11,1.05.19s.74.16,1.1.26a20.7,20.7,0,0,1,3.21,1.16,17,17,0,0,1,3.05,1.73,3.28,3.28,0,0,1,.91.89,1.7,1.7,0,0,1,.15.45A2.51,2.51,0,0,1,29.36,20.54Z"/></g><path class="cls-12" d="M14.43,44.57a.86.86,0,0,1-.56-.2c-.47-.41-.48-1.3-.49-2.15A4.9,4.9,0,0,0,13.29,41c-.08-.21-.28-.36-.56-.58A4.09,4.09,0,0,1,11,37.3a8.25,8.25,0,0,1-.67-1.1,1.77,1.77,0,0,1-.33.92.77.77,0,0,1-.61.28c-.32,0-.74-.14-.9-.83a7.38,7.38,0,0,1-.11-1.52,10.56,10.56,0,0,0-.14-2,50.94,50.94,0,0,0-1.55-4.94,2.18,2.18,0,0,1-.48,1.09,1.06,1.06,0,0,1-.84.35,1.18,1.18,0,0,1-.91-.44c-.57-.75-.34-2.25,0-3.61.38-1.67-.14-4.74-.48-6.42A18.27,18.27,0,0,1,3.61,13l-.25-.13a.31.31,0,0,1-.15-.22.27.27,0,0,1,.08-.25,13.48,13.48,0,0,1,7.19-3.58c4.8-.88,10.41.26,16.65,3.39a.25.25,0,0,1,.1.08.28.28,0,0,1,.05.25,7.8,7.8,0,0,0-.17,2.25l0,.15c.15,1,.36,2.42-.7,2.79a1.19,1.19,0,0,1-1-.06,9.83,9.83,0,0,1-.83,3c-.29.61-.59,1.12-.87,1.61a6.85,6.85,0,0,0-1.19,3.15,12.52,12.52,0,0,0,.07,2c.13,1.56.27,3.16-1,3.55a1.17,1.17,0,0,1-1.15-.15,1.3,1.3,0,0,1-.38-.52,7,7,0,0,0-.18,1c0,.25,0,.49,0,.72,0,.66,0,1.29-.6,1.55a.76.76,0,0,1-.76,0,1.09,1.09,0,0,1-.26-.22,8.53,8.53,0,0,0,0,2c.22,1.75.27,3.46-.79,4.08a1.18,1.18,0,0,1-1.26-.07c-.19-.1-.31-.16-.42-.14a.3.3,0,0,0-.2.15,4.39,4.39,0,0,0,0,2.64h0a2.88,2.88,0,0,1-.09,2.13,1.19,1.19,0,0,1-.89.49ZM9.89,33.9a.3.3,0,0,1,.29.24A7.57,7.57,0,0,0,11.48,37a.32.32,0,0,1,.06.15A3.53,3.53,0,0,0,13.09,40a2,2,0,0,1,.76.86A5,5,0,0,1,14,42.21c0,.66,0,1.48.29,1.71a.27.27,0,0,0,.23,0,.6.6,0,0,0,.47-.24c.29-.42.09-1.29,0-1.66h0c-.05-.22-.5-2.21.08-3.09a.86.86,0,0,1,.6-.41,1.19,1.19,0,0,1,.8.19c.29.16.44.22.68.08.77-.44.68-2,.5-3.49a9.33,9.33,0,0,1,.2-3.33.29.29,0,0,1,.58.06,1.2,1.2,0,0,0,.37.9.18.18,0,0,0,.2,0c.23-.1.25-.44.26-1,0-.23,0-.49,0-.76a13.77,13.77,0,0,1,.58-2.4.3.3,0,0,1,.34-.2.29.29,0,0,1,.23.31c0,.29,0,1.16.37,1.45.05,0,.21.17.61.05.76-.24.73-1.32.59-2.94a13.7,13.7,0,0,1-.07-2.11,7.32,7.32,0,0,1,1.27-3.4A17.15,17.15,0,0,0,24,20.38a8.64,8.64,0,0,0,.81-3.47.31.31,0,0,1,.24-.3.29.29,0,0,1,.33.19.61.61,0,0,0,.82.34c.56-.19.47-1.08.32-2.15l0-.15h0a7.16,7.16,0,0,1,.13-2.23C13.19,5.93,6.21,10.48,4,12.5l.08,0a.3.3,0,0,1,.16.41l0,0c-.35.79-.15,3.93.26,6,.35,1.73.88,4.89.48,6.67-.14.61-.56,2.49-.08,3.12a.59.59,0,0,0,.46.21.51.51,0,0,0,.39-.16,3.57,3.57,0,0,0,.38-2.18.29.29,0,0,1,.22-.32.3.3,0,0,1,.35.18c.07.19,1.71,4.61,2.09,6.45A11.07,11.07,0,0,1,8.93,35,7.86,7.86,0,0,0,9,36.44c.09.37.23.37.33.37a.2.2,0,0,0,.16-.07,4.35,4.35,0,0,0,.09-2.5.29.29,0,0,1,.24-.34Z"/><g class="cls-16"><path class="cls-17" d="M19.88,15.31l-3.11,7.62a8.76,8.76,0,0,1-.84-.32,2.13,2.13,0,0,1-.62-.4l2.89-7.08A15.41,15.41,0,0,1,19.88,15.31Z"/></g><g class="cls-18"><path class="cls-19" d="M22,15.76l-3.14,7.69c-.4-.07-.77-.14-1.11-.23l3.15-7.72C21.3,15.58,21.67,15.66,22,15.76Z"/></g><path class="cls-20" d="M32.49,12.69a2.59,2.59,0,0,1-2.89,2.2,1.36,1.36,0,0,1-.24,0h0l-.22,0h0l-.1,0h0a3.84,3.84,0,0,1-.8-.36,4.21,4.21,0,0,1-.4-.28,19.78,19.78,0,0,0-3.19-1.33c-2-.67-4-1.36-4-1.36a9.54,9.54,0,0,0-3.74-.35c-2.42.15-6.3.44-7.84-.55a9.33,9.33,0,0,1-2.22,1.74A3.64,3.64,0,0,1,4,12.81a3.9,3.9,0,0,1-.48-.23l-.1-.06-.18-.11-.09-.05,0,0-.28-.2,0,0L2.6,12l-.05,0-.09-.09-.15-.13-.09-.1A2.91,2.91,0,0,1,2,11.28l-.07-.09,0,0s-.05-.08-.07-.13a.43.43,0,0,1,0-.07l0,0a.14.14,0,0,0,0-.06l0-.06A3.27,3.27,0,0,1,1.48,9a2.52,2.52,0,0,1,.13-.49A2.62,2.62,0,0,1,2.72,7.11c1.22-.72,4.83-.89,6.19-1.29a15.39,15.39,0,0,1,8.87-.19c3.91,1.23,5.4.73,7.28.83,1.3.07,4.85,1.07,6.58,3h0a3.82,3.82,0,0,1,.49.65l0,.06q.13.25.24.51a2.64,2.64,0,0,1,.15.55A3.14,3.14,0,0,1,32.49,12.69Z"/><g class="cls-14"><path class="cls-15" d="M32.17,10.18l0-.06a3.82,3.82,0,0,0-.49-.65h0c-1.73-1.93-5.28-2.93-6.58-3-1.88-.1-3.37.4-7.28-.83a13.33,13.33,0,0,0-4.28-.58h0a17.85,17.85,0,0,0-4.55.77c-1.36.4-5,.57-6.19,1.29A2.62,2.62,0,0,0,1.61,8.46,2.52,2.52,0,0,0,1.48,9,5,5,0,0,1,3.56,7.53a22.49,22.49,0,0,1,4.25-.82c1.45-.25,2.9-.67,4.35-.89.07.35.7.62,1.45.62s1.43-.3,1.46-.67c2.16.34,4.16,1.51,6.34,1.65,1.25.08,2.51-.19,3.76-.13,2.71.12,6.24,1.72,7.24,3.4Q32.31,10.43,32.17,10.18Z"/></g><g class="cls-11"><path class="cls-12" d="M32.49,12.69a2.59,2.59,0,0,1-2.89,2.2,1.36,1.36,0,0,1-.24,0h0l-.22,0h0l-.1,0h0a3.84,3.84,0,0,1-.8-.36,4.21,4.21,0,0,1-.4-.28,19.78,19.78,0,0,0-3.19-1.33c-2-.67-4-1.36-4-1.36a9.54,9.54,0,0,0-3.74-.35c-2.42.15-6.3.44-7.84-.55a9.33,9.33,0,0,1-2.22,1.74A3.64,3.64,0,0,1,4,12.81a3.9,3.9,0,0,1-.48-.23l-.1-.06-.18-.11-.09-.05,0,0-.28-.2,0,0L2.6,12l-.05,0-.09-.09-.15-.13-.09-.1A2.91,2.91,0,0,1,2,11.28l-.07-.09,0,0s-.05-.08-.07-.13a.43.43,0,0,1,0-.07l0,0a.14.14,0,0,0,0-.06l0-.06a3.24,3.24,0,0,1-.06-2.31A3.58,3.58,0,0,0,3.05,10.9a3.58,3.58,0,0,0,4.43-.4,2.7,2.7,0,0,1-.85-2.24C7.63,9.53,9.38,9.91,11,10a18.85,18.85,0,0,0,6.38-.72,1.05,1.05,0,0,0,.69-1.39l-.18-.47a12.57,12.57,0,0,0,7.78,4.09A1.28,1.28,0,0,0,26.85,11,4.33,4.33,0,0,1,29,9.35a4.61,4.61,0,0,0-1.06,2,2,2,0,0,0,.72,2,1.55,1.55,0,0,0,1.87-.17,1.61,1.61,0,0,0,.27-1.86A1,1,0,0,0,32,11.16a1,1,0,0,0,.24-.9c.13.32.26.65.37,1A3.14,3.14,0,0,1,32.49,12.69Z"/></g><path class="cls-12" d="M29.9,15.2l-.33,0-.26,0h0L29,15.09h0l-.09,0-.06,0a3.61,3.61,0,0,1-.85-.39,3.71,3.71,0,0,1-.41-.28,19.86,19.86,0,0,0-3.13-1.3c-2-.67-3.95-1.35-4-1.36h0a9.58,9.58,0,0,0-3.62-.34l-.31,0c-2.34.15-5.84.37-7.5-.49A9.16,9.16,0,0,1,7,12.53a4,4,0,0,1-3.07.56h0a4.88,4.88,0,0,1-.52-.25l-.09-.05h0a1.32,1.32,0,0,1-.2-.12l0,0,0,0H3l0,0a2.28,2.28,0,0,1-.3-.21l-.05,0h0l-.15-.12-.05,0-.11-.09-.15-.15L2,11.81a2.34,2.34,0,0,1-.29-.35l-.07-.11a.21.21,0,0,1,0-.06l-.08-.13,0-.08v0a.08.08,0,0,1,0-.05l0-.06,0,0v0a3.23,3.23,0,0,1,1.17-4,13.47,13.47,0,0,1,4-.93,21.29,21.29,0,0,0,2.21-.39,15.66,15.66,0,0,1,9.05-.19,15.39,15.39,0,0,0,5.77.82,13.83,13.83,0,0,1,1.44,0c1.24.07,4.94,1,6.77,3.08h0a3.6,3.6,0,0,1,.92,3.5h0A2.9,2.9,0,0,1,29.9,15.2Zm-.72-.69.2.05h0l.2,0h0a2.3,2.3,0,0,0,2.55-2h0a3,3,0,0,0-.77-2.94h0c-1.71-1.91-5.2-2.84-6.37-2.9a13.08,13.08,0,0,0-1.4,0,15.88,15.88,0,0,1-6-.84A15,15,0,0,0,9,6.11a21.13,21.13,0,0,1-2.3.4,13.66,13.66,0,0,0-3.82.86A2.63,2.63,0,0,0,2,10.66v0l0,0H2l0,0H2l0,0H2l0,.06a.75.75,0,0,0,.07.12l0,0,.06.08a3.15,3.15,0,0,0,.24.3l.09.09a.74.74,0,0,0,.13.12l.09.08,0,0,.14.11,0,0,.28.19,0,0h0l0,0,0,0,.17.11h0l.08.05c.26.14.45.22.45.22h0A3.67,3.67,0,0,0,6.67,12a9.14,9.14,0,0,0,2.14-1.68.29.29,0,0,1,.38-.05c1.39.9,5,.67,7.36.52l.3,0a10.21,10.21,0,0,1,3.86.37c.09,0,2,.71,4,1.36a19.76,19.76,0,0,1,3.25,1.35l0,0a3.9,3.9,0,0,0,.36.25,3.09,3.09,0,0,0,.74.34h0l.08,0ZM4.24,12.67a.08.08,0,0,1,0,0h0A.08.08,0,0,0,4.24,12.67Z"/><path class="cls-12" d="M29.9,15.2h-.35l-.24,0h0L29,15.09h0l-.08,0-.06,0a3.39,3.39,0,0,1-.86-.4,2.2,2.2,0,0,1-.5-.42v0a3.59,3.59,0,0,1,.27-3.67A3.34,3.34,0,0,1,30,8.77a2.2,2.2,0,0,1,1.8.46l0,0h0a3.6,3.6,0,0,1,.92,3.5A2.9,2.9,0,0,1,29.9,15.2Zm-.31-.61h.06a2.3,2.3,0,0,0,2.55-2h0a3,3,0,0,0-.76-2.93,1.61,1.61,0,0,0-1.32-.33,2.75,2.75,0,0,0-1.83,1.46,3.06,3.06,0,0,0-.3,3,1.44,1.44,0,0,0,.34.29,3.17,3.17,0,0,0,.72.33h0l.08,0h0l.21.05h0l.13,0Z"/><g class="cls-21"><path class="cls-22" d="M8.19,14.26,5,22.11,4.18,22a1.23,1.23,0,0,1-.75-.49l3-7.32Q7.4,14.18,8.19,14.26Z"/></g><g class="cls-23"><path class="cls-24" d="M10.51,14.63,7.4,22.26c-.43,0-.82,0-1.19,0L9.4,14.41C9.82,14.48,10.19,14.56,10.51,14.63Z"/></g><path class="cls-12" d="M27.94,13.83a1.86,1.86,0,0,0,.41.33,2,2,0,0,0,.48.18,1.64,1.64,0,0,0,1-.14,2.1,2.1,0,0,0,.82-.72,2,2,0,0,0,.33-1,1.76,1.76,0,0,0-.07-.56,1.25,1.25,0,0,0-.26-.48,1.12,1.12,0,0,0-.44-.3.82.82,0,0,0-1,.36.69.69,0,0,0-.09.54.76.76,0,0,0,.36.43.64.64,0,0,0,.57,0,.63.63,0,0,1-.58,0,.79.79,0,0,1-.42-.44.77.77,0,0,1,.07-.61,1,1,0,0,1,.46-.42,1,1,0,0,1,.63-.06,1.29,1.29,0,0,1,.55.33,1.49,1.49,0,0,1,.34.55,2.2,2.2,0,0,1,.12.62A2.31,2.31,0,0,1,31,13.67a2.48,2.48,0,0,1-.92.9,2.06,2.06,0,0,1-1.94,0,3,3,0,0,1-.55-.38.28.28,0,0,1,0-.39.27.27,0,0,1,.39,0h0Z"/><path class="cls-12" d="M7.28,22.55q-.54,0-1.08,0c-.43,0-.85-.07-1.25-.12s-.57-.08-.82-.13A1.53,1.53,0,0,1,3,21.18a17.9,17.9,0,0,1-.62-5.79A1.51,1.51,0,0,1,3.72,14c.93-.08,1.84-.11,2.7-.1A17.15,17.15,0,0,1,8.21,14c.43,0,.84.09,1.24.15s.78.14,1.13.23a7.65,7.65,0,0,1,1.38.44,4.1,4.1,0,0,1,2.85.26.31.31,0,0,1,.16.21.33.33,0,0,1,0,.17c0,.21-.14,1-.18,1.53,0,.09,0,.19,0,.29a.31.31,0,0,1-.31.28.3.3,0,0,1-.28-.31V17.1a2.25,2.25,0,0,0-1.67-.19,15.28,15.28,0,0,1-1,4.17l0,.09a2,2,0,0,1-1.6,1.22,20.72,20.72,0,0,1-2.46.16ZM6.11,14.47c-.75,0-1.54,0-2.34.1a.91.91,0,0,0-.84.85,17.47,17.47,0,0,0,.6,5.6,1,1,0,0,0,.14.3,1,1,0,0,0,.57.37c.25,0,.51.09.78.12s.8.09,1.21.12S7,22,7.4,22a19.29,19.29,0,0,0,2.38-.16A1.4,1.4,0,0,0,10.91,21l0-.09a14.63,14.63,0,0,0,1-4.18.3.3,0,0,1,.14-.22.28.28,0,0,1,.1-.05,2.61,2.61,0,0,1,2.07.07c0-.37.09-.76.12-1A3.52,3.52,0,0,0,12,15.38a.26.26,0,0,1-.23,0h0a8.54,8.54,0,0,0-1.33-.43c-.34-.08-.7-.15-1.09-.21a11,11,0,0,0-1.19-.15q-.84-.08-1.74-.09Zm8.78,1Z"/><path class="cls-12" d="M7.28,22.55l-1.08,0c-.43,0-.85-.07-1.25-.12s-.57-.08-.82-.13A1.53,1.53,0,0,1,3,21.18a17.9,17.9,0,0,1-.62-5.79A1.51,1.51,0,0,1,3.72,14c.93-.08,1.84-.11,2.7-.1A17.15,17.15,0,0,1,8.21,14c.43,0,.84.09,1.24.15s.78.14,1.13.23a8.26,8.26,0,0,1,1.43.46.3.3,0,0,1,.16.19,3.39,3.39,0,0,1,.33,1.72h0a13.2,13.2,0,0,1-1,4.37l0,.08a2,2,0,0,1-1.6,1.22,20.72,20.72,0,0,1-2.46.16ZM6.11,14.47c-.75,0-1.54,0-2.34.1a.91.91,0,0,0-.84.85,17.47,17.47,0,0,0,.6,5.6,1,1,0,0,0,.14.3,1,1,0,0,0,.57.37c.25,0,.51.09.78.12s.8.09,1.21.12S7,22,7.4,22a19.29,19.29,0,0,0,2.38-.16A1.4,1.4,0,0,0,10.91,21l0-.09a12.47,12.47,0,0,0,1-4.17,2.9,2.9,0,0,0-.25-1.39,8,8,0,0,0-1.22-.38c-.34-.08-.7-.15-1.09-.21a11,11,0,0,0-1.19-.15q-.84-.08-1.74-.09Zm6.1,2.24Z"/><path class="cls-15" d="M9.3,23.21c.74-1.07,1.91.08,3.77.08,1,0,2.31-.74,3.28.08s.4,4.29-3.53,4.07S8.5,24.35,9.3,23.21Z"/><path class="cls-12" d="M21.13,23.91a14.23,14.23,0,0,1-2.28-.17c-.38-.06-.76-.14-1.14-.23a8.73,8.73,0,0,1-1-.3c-.3-.1-.59-.21-.86-.32a2.79,2.79,0,0,1-.71-.46,2.64,2.64,0,0,1-.82-1.6,25.09,25.09,0,0,1-.13-3.6v0c0-.1,0-.2,0-.29,0-.65.19-1.6.19-1.64a.37.37,0,0,1,.07-.14l0,0a.29.29,0,0,1,.31-.06,14.9,14.9,0,0,1,3.43-.21c.56,0,1.14.09,1.72.18.34.06.7.12,1.06.2a11.2,11.2,0,0,1,1.11.27,20,20,0,0,1,6.37,2.93,3.59,3.59,0,0,1,1,1,3,3,0,0,1-.68,3.08.87.87,0,0,1-1.07.25h0c-.63-.36-.45-1-.32-1.54a1.44,1.44,0,0,0,.09-.7,1.44,1.44,0,0,0-.42-.35,15.81,15.81,0,0,0-2-.95,21,21,0,0,1-1.16,3.24,2.42,2.42,0,0,1-2.12,1.47Zm-6.38-6.67h0a25.49,25.49,0,0,0,.13,3.52A2,2,0,0,0,15.51,22a1.73,1.73,0,0,0,.54.35c.26.11.54.22.81.31s.66.2,1,.29.73.16,1.09.21a14.06,14.06,0,0,0,2.85.16,1.86,1.86,0,0,0,1.6-1.11,18.26,18.26,0,0,0,1.19-3.46.29.29,0,0,1,.14-.21.33.33,0,0,1,.26,0,16.38,16.38,0,0,1,2.39,1.13,1.55,1.55,0,0,1,.65.62A1.69,1.69,0,0,1,28,21.34c-.15.56-.16.76,0,.88s.25,0,.37-.16a2.45,2.45,0,0,0,.57-2.39,3.24,3.24,0,0,0-.83-.78A19.36,19.36,0,0,0,22,16.05c-.36-.1-.73-.19-1.08-.26s-.7-.14-1-.19a13.74,13.74,0,0,0-1.66-.17,14.57,14.57,0,0,0-3.26.18c0,.33-.12.92-.15,1.35C14.76,17.05,14.76,17.14,14.75,17.24Z"/><path class="cls-12" d="M13.16,27.74h-.35C10.26,27.59,9.3,26.38,9,25.67A2.69,2.69,0,0,1,9.05,23c.58-.82,1.37-.6,2.22-.36a6.31,6.31,0,0,0,1.8.31,5.06,5.06,0,0,0,1-.14,2.75,2.75,0,0,1,2.51.29,2.23,2.23,0,0,1,.31,2.45A3.71,3.71,0,0,1,13.16,27.74Zm-3-4.69a.66.66,0,0,0-.6.33h0a2.12,2.12,0,0,0,0,2c.5,1,1.69,1.64,3.35,1.73h.35a3,3,0,0,0,3.11-1.78,1.73,1.73,0,0,0-.14-1.78,2.25,2.25,0,0,0-2-.16,5.1,5.1,0,0,1-1.08.15,7,7,0,0,1-2-.33A4,4,0,0,0,10.14,23.05Zm-.84.16Z"/><path class="cls-12" d="M13.16,25.72l-.39,0a6.72,6.72,0,0,1-4-1.51.29.29,0,1,1,.38-.45,6.22,6.22,0,0,0,3.62,1.37,6.31,6.31,0,0,0,3.78-1,.3.3,0,0,1,.32.5A7,7,0,0,1,13.16,25.72Z"/><path class="cls-12" d="M10.07,23.59a2.94,2.94,0,0,1,0,.42c0,.13,0,.25,0,.37s0,.24-.07.37a2.88,2.88,0,0,1-.12.4.91.91,0,0,1-.21-.4,1.25,1.25,0,0,1,0-.43,1.12,1.12,0,0,1,.15-.41A.79.79,0,0,1,10.07,23.59Z"/><path class="cls-12" d="M11.15,24a2.4,2.4,0,0,1,0,.46,2.85,2.85,0,0,1,0,.42c0,.14,0,.27-.08.41a3.28,3.28,0,0,1-.15.44,1.09,1.09,0,0,1-.18-.45,1.19,1.19,0,0,1,0-.46,1.41,1.41,0,0,1,.14-.44A1.2,1.2,0,0,1,11.15,24Z"/><path class="cls-12" d="M12.51,24.36a1.72,1.72,0,0,1,.08.48,3.38,3.38,0,0,1,0,.45,3.56,3.56,0,0,1-.06.44,1.76,1.76,0,0,1-.15.46,1.52,1.52,0,0,1-.18-.46,1.86,1.86,0,0,1,0-.47,2.46,2.46,0,0,1,.1-.47A1.31,1.31,0,0,1,12.51,24.36Z"/><path class="cls-12" d="M13.94,24.31a1.45,1.45,0,0,1,.19.47,2.7,2.7,0,0,1,0,.49,2.76,2.76,0,0,1-.07.49,1.49,1.49,0,0,1-.22.46,2.29,2.29,0,0,1-.11-.49,3.18,3.18,0,0,1,0-.94A2.18,2.18,0,0,1,13.94,24.31Z"/><path class="cls-25" d="M7.83,32.75l-.2-.69-.19-.66-1-3.47-.17-.59s2.66-.85,4,.4a2.16,2.16,0,0,1,.51.82C11.91,31.85,7.83,32.75,7.83,32.75Z"/><g class="cls-14"><path class="cls-15" d="M10.42,31.22A2.73,2.73,0,0,0,10.49,29a2.16,2.16,0,0,0-.51-.82c-1-1-2.86-.67-3.62-.49l-.09-.3s2.66-.85,4,.4a2.16,2.16,0,0,1,.51.82A2.62,2.62,0,0,1,10.42,31.22Z"/></g><path class="cls-12" d="M15.14,24.17a1.12,1.12,0,0,1,.27.42,1.67,1.67,0,0,1,.11.48,1.41,1.41,0,0,1,0,.5,1.18,1.18,0,0,1-.2.46,2.39,2.39,0,0,1-.13-.47c0-.16,0-.3-.05-.45s0-.3,0-.45A2.09,2.09,0,0,1,15.14,24.17Z"/><path class="cls-12" d="M7.83,33.05a.31.31,0,0,1-.29-.22L6,27.42a.29.29,0,0,1,.19-.36,7.09,7.09,0,0,1,2-.3A2.71,2.71,0,0,1,11,28.47,3,3,0,0,1,10.9,31a5,5,0,0,1-3,2Zm-.07-.59ZM6.64,27.55,8,32.39a4.18,4.18,0,0,0,2.36-1.65,2.45,2.45,0,0,0,.07-2.08C9.85,26.93,7.46,27.35,6.64,27.55Z"/><path class="cls-25" d="M17.6,33a2.44,2.44,0,0,1-2.26,2.59,2.17,2.17,0,0,1-1.84-1.1s-.05-.08-.07-.13A2.77,2.77,0,0,1,13.09,33a2.61,2.61,0,0,1,1.36-2.38,2,2,0,0,1,.89-.21,2.14,2.14,0,0,1,.72.13A2.61,2.61,0,0,1,17.6,33Z"/><g class="cls-26"><path class="cls-15" d="M16.24,31.58a2.46,2.46,0,0,0-1.31-.17,1.79,1.79,0,0,0-1.18.92,3.12,3.12,0,0,0-.34,1.5,3.37,3.37,0,0,0,0,.55A2.77,2.77,0,0,1,13.09,33a2.61,2.61,0,0,1,1.36-2.38,2.32,2.32,0,0,1,.78.17A2.62,2.62,0,0,1,16.24,31.58Z"/></g><path class="cls-12" d="M7.63,32.36a.29.29,0,0,1-.28-.22L6.16,28a.28.28,0,0,1,.15-.34,3.6,3.6,0,0,1,3,0,2.07,2.07,0,0,1,1.1,1.59,2.44,2.44,0,0,1-.55,2,3.73,3.73,0,0,1-2.19,1.12ZM6.8,28.1l1,3.62a3.07,3.07,0,0,0,1.58-.92,1.88,1.88,0,0,0,.36-1.48A1.45,1.45,0,0,0,9,28.18,3.06,3.06,0,0,0,6.8,28.1Z"/><path class="cls-12" d="M15.34,35.9a2.91,2.91,0,0,1,0-5.77,2.91,2.91,0,0,1,0,5.77Zm0-5.18a2.32,2.32,0,0,0,0,4.59,2.32,2.32,0,0,0,0-4.59Z"/><path class="cls-12" d="M14.93,35.56a2.35,2.35,0,0,1-2.14-2.51,2.34,2.34,0,0,1,2.14-2.5,2.34,2.34,0,0,1,2.13,2.5A2.35,2.35,0,0,1,14.93,35.56Zm0-4.42a2,2,0,0,0,0,3.82,1.75,1.75,0,0,0,1.54-1.91A1.76,1.76,0,0,0,14.93,31.14Z"/><path class="cls-12" d="M14.63,32.47a.07.07,0,0,1-.12,0c-.17-.28-.46-.84-.18-.92S14.63,32.13,14.63,32.47Z"/><path class="cls-12" d="M7.86,29.29a.06.06,0,0,1-.1-.06c.08-.31.27-.91.52-.78S8.1,29.06,7.86,29.29Z"/><path class="cls-12" d="M8.16,30.14a.06.06,0,0,1,0-.11c.33,0,1,0,.9.28S8.46,30.31,8.16,30.14Z"/><path class="cls-12" d="M15.35,33.38a.06.06,0,0,1,.05-.1c.32.07.92.24.8.49S15.59,33.61,15.35,33.38Z"/><path class="cls-12" d="M14.42,33.3a.06.06,0,0,1,.09.06c-.09.31-.29.9-.54.76S14.17,33.52,14.42,33.3Z"/><path class="cls-27" d="M19.69,27.79a.31.31,0,0,1-.33.27l-.64-.18s.38,1.23.13,1.37c-.42.23-1.4.06-1.51-.27a.8.8,0,0,1,0-.31,5.27,5.27,0,0,1,.31-1l-.53-.07h0a.31.31,0,0,1-.24-.42A1.68,1.68,0,0,1,18.64,26a1.19,1.19,0,0,1,.55.2,1.4,1.4,0,0,1,.53,1.13A3.58,3.58,0,0,1,19.69,27.79Z"/><g class="cls-14"><path class="cls-15" d="M19.72,27.3a1.9,1.9,0,0,0-.95-.77,1.14,1.14,0,0,0-.68-.05,1.08,1.08,0,0,0-.49.36,2.89,2.89,0,0,0-.48.81h0a.31.31,0,0,1-.24-.42A1.68,1.68,0,0,1,18.64,26a1.19,1.19,0,0,1,.55.2A1.4,1.4,0,0,1,19.72,27.3Z"/></g><path class="cls-27" d="M14.28,13.88a2.38,2.38,0,0,0,1,0c.23-.13.17-.9-.08-1.18s-1,.36-1,.36v-.52a.23.23,0,0,0-.26-.19c-.42,0-1.25.25-1.16,1.13a1.3,1.3,0,0,0,1.27,1.09.25.25,0,0,0,.27-.27Z"/><path class="cls-12" d="M18.33,29.65a2.13,2.13,0,0,1-.78-.14.73.73,0,0,1-.49-.44A2.07,2.07,0,0,1,17.23,28l-.16,0a.61.61,0,0,1-.44-.29.61.61,0,0,1,0-.53,1.94,1.94,0,0,1,2.09-1.44c1,.13,1.46.94,1.31,2.15a.6.6,0,0,1-.65.52h-.05l-.15,0c.23,1,0,1.15-.15,1.21A1.39,1.39,0,0,1,18.33,29.65Zm-.71-.77a1.41,1.41,0,0,0,1,.14,4,4,0,0,0-.2-1.05.29.29,0,0,1,.07-.29.28.28,0,0,1,.29-.08l.6.16h0c.08-.61,0-1.37-.8-1.49a1.39,1.39,0,0,0-1.46,1.08h0l.54.07a.27.27,0,0,1,.22.15.29.29,0,0,1,0,.27A3.16,3.16,0,0,0,17.62,28.88Zm0,0Zm0,0"/><path class="cls-12" d="M14.09,14.85H14a1.56,1.56,0,0,1-1.53-1.35c-.08-.8.45-1.34,1.43-1.46a.54.54,0,0,1,.59.44v.06h0c.66-.31.83-.13.91,0a1.54,1.54,0,0,1,.29,1.14.64.64,0,0,1-.28.5,1.48,1.48,0,0,1-.81.09v0a.52.52,0,0,1-.16.44A.51.51,0,0,1,14.09,14.85ZM14,14.32Zm-.11-1.68c-.6.09-.88.35-.84.79a1,1,0,0,0,.95.82l0-.34a.28.28,0,0,1,.09-.25.34.34,0,0,1,.26-.08,2.46,2.46,0,0,0,.77.05A1.21,1.21,0,0,0,15,13a3.15,3.15,0,0,0-.68.33.27.27,0,0,1-.3,0,.28.28,0,0,1-.15-.26Zm1.17,1Z"/><path class="cls-28" d="M13.11,19.54a1,1,0,0,0-.61.47,1.77,1.77,0,0,0-.26.74,1.47,1.47,0,0,0,0,.66.75.75,0,0,0,.41.49.47.47,0,0,0,.58-.2c.19-.36-.24-.81-.07-1.18s.38-.34.44-.58a.37.37,0,0,0-.13-.35A.45.45,0,0,0,13.11,19.54Z"/><path class="cls-28" d="M7.62,22.79a1,1,0,0,0-1,.48,1.81,1.81,0,0,0-.24,1.09,1.49,1.49,0,0,0,.14.56.72.72,0,0,0,.43.37.48.48,0,0,0,.51-.2.77.77,0,0,0,0-.61.93.93,0,0,1-.08-.61,1,1,0,0,1,.29-.37.55.55,0,0,0,.22-.41A.33.33,0,0,0,7.62,22.79Z"/><path class="cls-28" d="M18.87,13.06a1.35,1.35,0,0,0,.4,1,2.17,2.17,0,0,0,.91.54,1,1,0,0,0,.56,0,.44.44,0,0,0,.34-.4.56.56,0,0,0-.43-.42,2.32,2.32,0,0,1-.59-.22,1.28,1.28,0,0,1-.32-.44.76.76,0,0,0-.38-.37C19.19,12.71,18.88,12.79,18.87,13.06Z"/><path class="cls-28" d="M13.31,28.76a4.39,4.39,0,0,1-1,.23.76.76,0,0,0-.36.11.44.44,0,0,0-.08.56.63.63,0,0,0,.51.28,1.36,1.36,0,0,0,.6-.11,3.29,3.29,0,0,0,.68-.33.79.79,0,0,0,.3-.3.4.4,0,0,0-.14-.47C13.72,28.63,13.53,28.68,13.31,28.76Z"/><path class="cls-28" d="M13.11,36.86a2,2,0,0,0-.14-.54.85.85,0,0,0-.37-.4.51.51,0,0,0-.53,0,.36.36,0,0,0-.07.5c.07.08.17.12.24.19s.18.51.26.77a.7.7,0,0,0,.28.39.47.47,0,0,0,.46,0,.35.35,0,0,0,.17-.41.91.91,0,0,0-.19-.26A.62.62,0,0,1,13.11,36.86Z"/><path class="cls-28" d="M9.57,12.16a5,5,0,0,0-1.5.38.74.74,0,0,0-.43.22.47.47,0,0,0,.16.63.85.85,0,0,0,.7,0,6.26,6.26,0,0,0,.67-.27A4.37,4.37,0,0,0,9.63,13a.56.56,0,0,0,.29-.38A.4.4,0,0,0,9.57,12.16Z"/><path class="cls-28" d="M23.08,13.75a.61.61,0,0,0-.37.29.36.36,0,0,0,0,.3.68.68,0,0,0,.81.24A1.29,1.29,0,0,0,24.2,14a.45.45,0,0,0,.07-.4.37.37,0,0,0-.43-.19C23.67,13.4,23.55,13.6,23.08,13.75Z"/><path class="cls-12" d="M24.88,17.2c0-.17.07-.35.1-.53s.05-.37.08-.55A8.17,8.17,0,0,0,25.11,15a8.07,8.07,0,0,1,.22,1.11c0,.18.05.37.07.56s0,.37,0,.57a.29.29,0,0,1-.27.29.27.27,0,0,1-.29-.27Z"/><path class="cls-12" d="M19.84,28.86l.07-.19c0-.07.05-.14.07-.2s.08-.28.11-.42a4.05,4.05,0,0,0,.12-.85,3.1,3.1,0,0,0-.07-.86,2.58,2.58,0,0,0-.12-.42,3,3,0,0,0-.21-.4,3.18,3.18,0,0,1,.27.37,2.6,2.6,0,0,1,.2.41,3.73,3.73,0,0,1,.21.89,5.63,5.63,0,0,1,0,.92c0,.15,0,.31-.05.46a1.85,1.85,0,0,0,0,.23c0,.08,0,.15-.05.24h0a.29.29,0,0,1-.35.2.28.28,0,0,1-.19-.34A.06.06,0,0,1,19.84,28.86Z"/><path class="cls-12" d="M21.42,12A2.52,2.52,0,0,1,20,10.23,2.26,2.26,0,0,0,21.6,11.5a.28.28,0,0,1,.22.33.28.28,0,0,1-.33.22l-.06,0Z"/><path class="cls-12" d="M9,10.86l-.74-.76,1,.28a.29.29,0,1,1-.28.48Z"/><g class="cls-11"><path class="cls-12" d="M6.41,26.57s.26,2.71-1.07,2.66c-.57,0-.84-.4-.93-.95a.75.75,0,0,0,.57.09,1.4,1.4,0,0,0,.77-.78,4.23,4.23,0,0,0,.41-1.35.13.13,0,0,1,.25,0,3.76,3.76,0,0,1,.12.67C6.46,26.69,6.41,26.57,6.41,26.57Z"/></g><g class="cls-29"><path class="cls-30" d="M7.83,32.75l-.2-.69-.19-.66a3.59,3.59,0,0,0,2.18-1.27,3,3,0,0,0,.61-2.39,2.16,2.16,0,0,1,.51.82C11.91,31.85,7.83,32.75,7.83,32.75Z"/></g><g class="cls-11"><path class="cls-30" d="M17.6,33a2.44,2.44,0,0,1-2.26,2.59,2.17,2.17,0,0,1-1.84-1.1,2.32,2.32,0,0,0,1.32-.15,2.69,2.69,0,0,0,1.5-2,3.08,3.08,0,0,0-.26-1.79A2.61,2.61,0,0,1,17.6,33Z"/></g><g class="cls-31"><path class="cls-30" d="M19.69,27.79a.31.31,0,0,1-.33.27l-.64-.18s.38,1.23.13,1.37c-.42.23-1.4.06-1.51-.27a.8.8,0,0,1,0-.31.91.91,0,0,0,.69-.09A.88.88,0,0,0,18.4,28a1.27,1.27,0,0,0,0-.28.29.29,0,0,1,.36-.29h0a.44.44,0,0,0,.42-.13.53.53,0,0,0,.1-.35,1.92,1.92,0,0,0-.14-.75A1.67,1.67,0,0,1,19.69,27.79Z"/></g><g class="cls-11"><path class="cls-12" d="M10,36c0,.6-.21,1.11-.66,1.11s-.48-.18-.58-.49a.43.43,0,0,0,.16,0,.66.66,0,0,0,.41-.46,2.21,2.21,0,0,0,0-.63l-.12-1.66a.7.7,0,0,1,0-.38.25.25,0,0,1,.31-.15.34.34,0,0,1,.16.21,2.44,2.44,0,0,1,.15.76v.12A11.72,11.72,0,0,0,10,36Z"/></g><path class="cls-13" d="M34.74,9.48h8.74a4.92,4.92,0,0,1,2,.42,5.52,5.52,0,0,1,1.68,1.15,5.63,5.63,0,0,1,1.17,1.65,4.62,4.62,0,0,1,.43,2v1.69a5.52,5.52,0,0,1-.41,2.17,5.09,5.09,0,0,1-2.81,2.85,5.47,5.47,0,0,1-2.16.41,6,6,0,0,1-1.57-.21A4.87,4.87,0,0,1,40.42,21a3.08,3.08,0,0,1-1-1.06,2.92,2.92,0,0,1-.37-1.49A2.82,2.82,0,0,1,39.32,17a2.44,2.44,0,0,0,.28-.59c0-.05-.05-.07-.13-.07s-.31.2-.47.61a3.69,3.69,0,0,0-.25,1.43,3,3,0,0,0,.7,2.09,4.07,4.07,0,0,0,1.69,1.13,4.72,4.72,0,0,0,.19,1.54,11.15,11.15,0,0,0,.48,1.31c.19.4.35.79.5,1.16a2.83,2.83,0,0,1,.22,1.09.75.75,0,0,1-.12.4H34.74Zm8.49,3.38a3.63,3.63,0,0,1,.59.94A3.06,3.06,0,0,1,44,14.91a3.76,3.76,0,0,1-.19,1.22,6.48,6.48,0,0,1-.4.9,2.64,2.64,0,0,1-.4.57,1.84,1.84,0,0,0-.19.22c0,.07.05.1.15.1s.22-.08.37-.25a3.25,3.25,0,0,0,.42-.67,5.35,5.35,0,0,0,.36-1A4,4,0,0,0,44.28,15a3.68,3.68,0,0,0-.09-.82,3.73,3.73,0,0,0-.22-.71,1.78,1.78,0,0,0-.3-.5.43.43,0,0,0-.31-.19C43.27,12.74,43.23,12.78,43.23,12.86Z"/><path class="cls-13" d="M49.11,16.63a1.39,1.39,0,0,1,.53-1.14,3.66,3.66,0,0,1,1.27-.61,7.07,7.07,0,0,1,1.55-.23c.54,0,1,0,1.39,0l2.66,0V25.45A1.64,1.64,0,0,1,56,26.66a1.73,1.73,0,0,1-1.23.48H49.11Zm0-4.61a1.63,1.63,0,0,1,.31-.95,3.34,3.34,0,0,1,.83-.8,4.45,4.45,0,0,1,1.21-.54A5,5,0,0,1,53,9.53a5,5,0,0,1,1.36.17,4.08,4.08,0,0,1,1.12.49,2.54,2.54,0,0,1,.77.72,1.52,1.52,0,0,1,.29.88,1.63,1.63,0,0,1-.31.94,2.9,2.9,0,0,1-.85.77A5.32,5.32,0,0,1,54.1,14a5.49,5.49,0,0,1-1.47.2,4.93,4.93,0,0,1-1.34-.18,4.31,4.31,0,0,1-1.11-.47,2.85,2.85,0,0,1-.76-.7A1.48,1.48,0,0,1,49.14,12Z"/><path class="cls-13" d="M56.86,12.86a2.49,2.49,0,0,1,.33-1.18A4.16,4.16,0,0,1,58,10.59a4.29,4.29,0,0,1,1.13-.8,2.8,2.8,0,0,1,1.23-.31h6.86a3.36,3.36,0,0,1,1.14.22,3.6,3.6,0,0,1,2,1.86,3.79,3.79,0,0,1,.35,1.68,3.87,3.87,0,0,1-.59,2.15A7.1,7.1,0,0,1,68.68,17a15.38,15.38,0,0,1-1.91,1.32c-.69.39-1.33.8-1.92,1.2a7.06,7.06,0,0,0-1.47,1.33,2.51,2.51,0,0,0-.59,1.65,3.73,3.73,0,0,0,0,.43,2.43,2.43,0,0,0,.08.47,1,1,0,0,0,.18.37.31.31,0,0,0,.26.15c.07,0,.1,0,.1-.07a1.31,1.31,0,0,0-.18-.39,2.14,2.14,0,0,1-.17-1,2.21,2.21,0,0,1,.42-1.39,3.23,3.23,0,0,1,1.06-.88A5.67,5.67,0,0,1,66,19.8a7.61,7.61,0,0,1,1.37-.13,3.9,3.9,0,0,1,2.63.79,3,3,0,0,1,.91,2.35,6.28,6.28,0,0,1-.15,1.27,5.54,5.54,0,0,1-.44,1.22,6.78,6.78,0,0,1-.67,1.06,3.82,3.82,0,0,1-.84.78H57.71a3.45,3.45,0,0,1-.6-1.14,4.21,4.21,0,0,1,.25-3.42,9.49,9.49,0,0,1,1.26-1.9A13.4,13.4,0,0,1,60.29,19,18.7,18.7,0,0,1,62,17.65c.37-.25.72-.48,1.06-.69a5.27,5.27,0,0,0,.9-.67,2.78,2.78,0,0,0,.62-.85,2.61,2.61,0,0,0,.24-1.18c0-.7-.18-1.11-.55-1.25a.09.09,0,0,0-.1.1.16.16,0,0,0,.06.13.39.39,0,0,1,.13.15,1.29,1.29,0,0,1,.12.28,1.37,1.37,0,0,1,.07.49,2.36,2.36,0,0,1-.4,1.35,3.89,3.89,0,0,1-1,1,5.16,5.16,0,0,1-1.33.6,5.35,5.35,0,0,1-1.38.2,4.06,4.06,0,0,1-1.34-.23,4.18,4.18,0,0,1-1.15-.6,2.83,2.83,0,0,1-.78-.88,2.24,2.24,0,0,1-.29-1.11Z"/><path class="cls-13" d="M71.21,12.86a2.49,2.49,0,0,1,.33-1.18,4.16,4.16,0,0,1,.82-1.09,4.29,4.29,0,0,1,1.13-.8,2.8,2.8,0,0,1,1.24-.31h6.85a3.42,3.42,0,0,1,1.15.22,3.55,3.55,0,0,1,1.14.69,3.51,3.51,0,0,1,.87,1.17,3.65,3.65,0,0,1,.35,1.68,3.86,3.86,0,0,1-.58,2.15A7.1,7.1,0,0,1,83,17a14.78,14.78,0,0,1-1.92,1.32c-.69.39-1.33.8-1.92,1.2a7.06,7.06,0,0,0-1.47,1.33,2.51,2.51,0,0,0-.59,1.65,3.73,3.73,0,0,0,0,.43,2.44,2.44,0,0,0,.09.47,1.15,1.15,0,0,0,.17.37.33.33,0,0,0,.26.15c.07,0,.1,0,.1-.07a1.46,1.46,0,0,0-.17-.39,2,2,0,0,1-.18-1,2.16,2.16,0,0,1,.43-1.39,3,3,0,0,1,1.06-.88,5.46,5.46,0,0,1,1.38-.46,7.69,7.69,0,0,1,1.37-.13,3.9,3.9,0,0,1,2.63.79,3,3,0,0,1,.91,2.35,5.64,5.64,0,0,1-.15,1.27,5.54,5.54,0,0,1-.44,1.22A6.12,6.12,0,0,1,84,26.36a3.82,3.82,0,0,1-.84.78H72.06a3.45,3.45,0,0,1-.6-1.14,4.75,4.75,0,0,1-.25-1.45,4.43,4.43,0,0,1,.5-2A9.49,9.49,0,0,1,73,20.68,14.11,14.11,0,0,1,74.64,19a20.22,20.22,0,0,1,1.71-1.33q.54-.37,1.05-.69a4.9,4.9,0,0,0,.9-.67,2.81,2.81,0,0,0,.63-.85,2.76,2.76,0,0,0,.23-1.18c0-.7-.18-1.11-.55-1.25a.09.09,0,0,0-.1.1.17.17,0,0,0,.07.13.49.49,0,0,1,.12.15,1.92,1.92,0,0,1,.13.28,1.68,1.68,0,0,1,.06.49,2.36,2.36,0,0,1-.4,1.35,3.74,3.74,0,0,1-1,1,5.16,5.16,0,0,1-1.33.6,5.28,5.28,0,0,1-1.37.2,4.07,4.07,0,0,1-1.35-.23,4.33,4.33,0,0,1-1.15-.6,2.83,2.83,0,0,1-.78-.88,2.24,2.24,0,0,1-.29-1.11Z"/><path class="cls-13" d="M85.59,22.53a15,15,0,0,1,.19-2.17,24.74,24.74,0,0,1,.56-2.74,27.82,27.82,0,0,1,.93-2.9,14.36,14.36,0,0,1,1.32-2.63,7.35,7.35,0,0,1,1.72-1.89,3.47,3.47,0,0,1,2.13-.72,3.86,3.86,0,0,1,2.29.71A7.13,7.13,0,0,1,96.55,12a13.15,13.15,0,0,1,1.37,2.58,22.69,22.69,0,0,1,1,2.89,24.05,24.05,0,0,1,.55,2.79,19,19,0,0,1,.17,2.26c0,.55,0,1.09-.08,1.64a4.12,4.12,0,0,1-.43,1.48,2.61,2.61,0,0,1-1,1.06,3.25,3.25,0,0,1-1.76.4H92.94c.13-.26.25-.53.35-.79a2.5,2.5,0,0,0,.15-.88,2.17,2.17,0,0,0-.19-.92,6.21,6.21,0,0,0-.42-.81c-.16-.26-.3-.51-.43-.76a1.77,1.77,0,0,1-.18-.77,2.12,2.12,0,0,1,.08-.57,3.71,3.71,0,0,1,.22-.55s0-.07,0-.1a.14.14,0,0,0-.1,0c-.07,0-.14.06-.2.17a2.09,2.09,0,0,0-.17.4A3.82,3.82,0,0,0,92,22a1.48,1.48,0,0,0,0,.28,1.74,1.74,0,0,0,.2.84c.13.26.27.51.42.76s.29.5.42.77a1.8,1.8,0,0,1,.2.85,2.86,2.86,0,0,1-.16.91,2,2,0,0,1-.46.78H87.81a1.74,1.74,0,0,1-1.36-.5,2.8,2.8,0,0,1-.65-1.2,6.71,6.71,0,0,1-.2-1.51C85.59,23.4,85.59,22.93,85.59,22.53Zm5-3.88a1.35,1.35,0,0,0,.2-.32,3.48,3.48,0,0,1,.57-.71,1.94,1.94,0,0,1,.64-.4,2.38,2.38,0,0,1,.81-.14,1.78,1.78,0,0,1,1.24.59,3.25,3.25,0,0,1,.38.45,3,3,0,0,1,.18.35,1.33,1.33,0,0,1,.08.24c0,.06,0,.09.06.09s.1-.06.1-.15a1.22,1.22,0,0,0-.19-.65,2.22,2.22,0,0,0-.48-.59,2.88,2.88,0,0,0-.66-.43,1.62,1.62,0,0,0-.71-.18,2.43,2.43,0,0,0-1.46.5,2.34,2.34,0,0,0-.91,1.22.12.12,0,0,0,0,.13A.1.1,0,0,0,90.55,18.65Z"/><path class="cls-13" d="M14.69,27.58h8.74a4.83,4.83,0,0,1,2,.42,5.81,5.81,0,0,1,1.69,1.15,5.68,5.68,0,0,1,1.17,1.66,4.54,4.54,0,0,1,.43,1.95v1.7a5.55,5.55,0,0,1-.41,2.17,5.28,5.28,0,0,1-1.12,1.72,5.07,5.07,0,0,1-1.69,1.13,5.65,5.65,0,0,1-2.16.41,6,6,0,0,1-1.57-.21,4.87,4.87,0,0,1-1.39-.62,3.17,3.17,0,0,1-1-1.06A2.93,2.93,0,0,1,19,36.5a2.85,2.85,0,0,1,.27-1.36,2.22,2.22,0,0,0,.27-.58c0-.05,0-.08-.12-.08s-.31.21-.47.61a3.74,3.74,0,0,0-.25,1.44,3,3,0,0,0,.7,2.09,4,4,0,0,0,1.69,1.12,4.52,4.52,0,0,0,.19,1.55,11,11,0,0,0,.48,1.3c.18.41.35.8.5,1.16a2.88,2.88,0,0,1,.22,1.1.77.77,0,0,1-.12.4H14.69ZM23.18,31a3.77,3.77,0,0,1,.59.93A3.07,3.07,0,0,1,24,33a3.69,3.69,0,0,1-.18,1.22,6.48,6.48,0,0,1-.4.9,2.64,2.64,0,0,1-.4.57,1.52,1.52,0,0,0-.19.23c0,.06,0,.1.15.1s.22-.08.36-.25a3.11,3.11,0,0,0,.43-.67,6,6,0,0,0,.36-1,4,4,0,0,0,.15-1.09,3.75,3.75,0,0,0-.09-.82,4.24,4.24,0,0,0-.22-.71,1.94,1.94,0,0,0-.3-.5.44.44,0,0,0-.31-.18C23.22,30.85,23.18,30.89,23.18,31Z"/><path class="cls-13" d="M29.06,27.56h7.5a6.67,6.67,0,0,1,.51,1.2,3.4,3.4,0,0,1,.12.94,6.7,6.7,0,0,1-.4,2.33,18.3,18.3,0,0,1-.89,2c-.32.64-.62,1.25-.89,1.84a4.22,4.22,0,0,0-.42,1.83,3.75,3.75,0,0,0,.17,1.09,4,4,0,0,0,.41,1,2.27,2.27,0,0,0,.57.68,1,1,0,0,0,.65.26c.13,0,.2,0,.2-.1s-.05-.14-.15-.18a3.37,3.37,0,0,1-.32-.17,2.39,2.39,0,0,1-.89-1,3.58,3.58,0,0,1-.34-1.51,4.24,4.24,0,0,1,.41-1.78q.42-.89.9-1.83a19.55,19.55,0,0,0,.89-2,6.86,6.86,0,0,0,.39-2.35,5.53,5.53,0,0,0,0-.61c0-.17-.07-.34-.11-.49s-.12-.32-.19-.49l-.26-.57h6.2V42.81a2.16,2.16,0,0,1-.81,1.76,3.22,3.22,0,0,1-2.13.68H36.81a6,6,0,0,0,1-.54,6.67,6.67,0,0,0,1-.79,5,5,0,0,0,.8-1,3,3,0,0,0,.4-1.14c0-.23,0-.34-.13-.34s-.13.05-.16.16,0,.23-.09.38a3.13,3.13,0,0,1-.67,1.27,4.88,4.88,0,0,1-1.23,1A6.45,6.45,0,0,1,36,45a8,8,0,0,1-2,.25,5.44,5.44,0,0,1-2.18-.4,3.58,3.58,0,0,1-1.56-1.28,6.31,6.31,0,0,1-.94-2.27A15.85,15.85,0,0,1,29.06,38Z"/><path class="cls-13" d="M43.44,31a2.56,2.56,0,0,1,.32-1.18,4.25,4.25,0,0,1,.83-1.1,4.53,4.53,0,0,1,1.13-.8A2.87,2.87,0,0,1,47,27.58h6.86a3.4,3.4,0,0,1,1.14.23,3.46,3.46,0,0,1,1.15.68A3.73,3.73,0,0,1,57,29.66a3.85,3.85,0,0,1,.35,1.68,3.9,3.9,0,0,1-.59,2.16,6.86,6.86,0,0,1-1.47,1.63,14.78,14.78,0,0,1-1.92,1.32c-.69.4-1.32.8-1.91,1.21A7.32,7.32,0,0,0,50,39a2.48,2.48,0,0,0-.59,1.66c0,.11,0,.26,0,.42a3.26,3.26,0,0,0,.09.47,1,1,0,0,0,.18.38.31.31,0,0,0,.26.15c.06,0,.1,0,.1-.08a1.3,1.3,0,0,0-.18-.38,2.14,2.14,0,0,1-.17-1,2.24,2.24,0,0,1,.42-1.4,3.32,3.32,0,0,1,1.06-.87,5,5,0,0,1,1.38-.46,7.86,7.86,0,0,1,1.37-.14,3.86,3.86,0,0,1,2.63.8,2.93,2.93,0,0,1,.91,2.34,5.57,5.57,0,0,1-.15,1.27,5.53,5.53,0,0,1-1.11,2.28,3.42,3.42,0,0,1-.83.79H44.29a3.17,3.17,0,0,1-.6-1.15,4.46,4.46,0,0,1-.25-1.44,4.39,4.39,0,0,1,.5-2,9.55,9.55,0,0,1,1.26-1.91,14,14,0,0,1,1.67-1.69,18.93,18.93,0,0,1,1.7-1.34l1.06-.68a5.85,5.85,0,0,0,.9-.67,2.91,2.91,0,0,0,.62-.85,2.64,2.64,0,0,0,.24-1.18c0-.7-.18-1.12-.55-1.25-.07,0-.1,0-.1.1a.14.14,0,0,0,.06.12,1,1,0,0,1,.13.15,1.7,1.7,0,0,1,.12.29,1.63,1.63,0,0,1,.06.49,2.26,2.26,0,0,1-.4,1.34,3.56,3.56,0,0,1-1,1,4.51,4.51,0,0,1-1.34.6,5.28,5.28,0,0,1-1.37.2,4,4,0,0,1-1.34-.22,4.18,4.18,0,0,1-1.15-.6,2.87,2.87,0,0,1-.78-.89,2.23,2.23,0,0,1-.29-1.1Z"/><path class="cls-13" d="M57.79,31a2.46,2.46,0,0,1,.33-1.18,4,4,0,0,1,.82-1.1,4.53,4.53,0,0,1,1.13-.8,2.9,2.9,0,0,1,1.23-.31h6.86a3.4,3.4,0,0,1,1.14.23,3.46,3.46,0,0,1,1.15.68,3.73,3.73,0,0,1,.87,1.17,3.85,3.85,0,0,1,.35,1.68,3.9,3.9,0,0,1-.59,2.16,6.86,6.86,0,0,1-1.47,1.63,15.38,15.38,0,0,1-1.91,1.32c-.7.4-1.33.8-1.92,1.21A7.32,7.32,0,0,0,64.31,39a2.54,2.54,0,0,0-.59,1.66,3.58,3.58,0,0,0,0,.42,2.31,2.31,0,0,0,.08.47,1,1,0,0,0,.18.38.31.31,0,0,0,.26.15c.07,0,.1,0,.1-.08a1.3,1.3,0,0,0-.18-.38,2.14,2.14,0,0,1-.17-1,2.24,2.24,0,0,1,.42-1.4,3.32,3.32,0,0,1,1.06-.87,5,5,0,0,1,1.38-.46,7.87,7.87,0,0,1,1.38-.14,3.85,3.85,0,0,1,2.62.8,2.93,2.93,0,0,1,.91,2.34,5.57,5.57,0,0,1-.15,1.27,5.51,5.51,0,0,1-.43,1.22,6,6,0,0,1-.67,1.06,3.65,3.65,0,0,1-.84.79H58.64A3.33,3.33,0,0,1,58,44.1a4.46,4.46,0,0,1-.25-1.44,4.39,4.39,0,0,1,.5-2,9.55,9.55,0,0,1,1.26-1.91,14,14,0,0,1,1.67-1.69,18.93,18.93,0,0,1,1.7-1.34L64,35.07a5.85,5.85,0,0,0,.9-.67,2.91,2.91,0,0,0,.62-.85,2.64,2.64,0,0,0,.24-1.18c0-.7-.18-1.12-.55-1.25-.07,0-.1,0-.1.1a.14.14,0,0,0,.06.12,1,1,0,0,1,.13.15,1.7,1.7,0,0,1,.12.29,1.59,1.59,0,0,1,.07.49,2.33,2.33,0,0,1-.4,1.34,3.73,3.73,0,0,1-1,1,4.51,4.51,0,0,1-1.34.6,5.22,5.22,0,0,1-1.37.2A4,4,0,0,1,60,35.16a4.18,4.18,0,0,1-1.15-.6,2.87,2.87,0,0,1-.78-.89,2.23,2.23,0,0,1-.29-1.1Z"/><path class="cls-13" d="M72.14,27.58h6.53c0,.22,0,.42,0,.62s0,.35,0,.45a12.86,12.86,0,0,1-.14,1.87c-.09.62-.19,1.23-.31,1.85s-.22,1.23-.31,1.85a13.59,13.59,0,0,0-.14,1.93,9.36,9.36,0,0,0,.2,2,12.54,12.54,0,0,0,.68,2,5.91,5.91,0,0,1-.71.57,1.62,1.62,0,0,1-.86.23,1.87,1.87,0,0,1-.88-.19,2.14,2.14,0,0,0-.42-.18s-.07,0-.07.15a.25.25,0,0,0,.15.23,1.42,1.42,0,0,0,.37.15,2.34,2.34,0,0,0,.46.09l.41,0a2,2,0,0,0,1.12-.32,3.85,3.85,0,0,0,.86-.76,6.8,6.8,0,0,0,.72-1,7,7,0,0,1,.74-1,3.86,3.86,0,0,1,.9-.76,2.13,2.13,0,0,1,1.17-.31,2.71,2.71,0,0,1,1.34.35,3.74,3.74,0,0,1,1.1.93,4.77,4.77,0,0,1,1,2.88,4.09,4.09,0,0,1-.3,1.56A3.68,3.68,0,0,1,85,44.09a4.15,4.15,0,0,1-1.28.85,4.32,4.32,0,0,1-1.64.31H75.48a3.19,3.19,0,0,1-1.93-.51,3.35,3.35,0,0,1-1-1.12,3.5,3.5,0,0,1-.36-1.13c0-.34,0-.51,0-.53Z"/><path class="cls-13" d="M94.94,27.56A6.1,6.1,0,0,1,99,28.79a4.38,4.38,0,0,1,1.43,3.5,4,4,0,0,1-.71,2.5,2.38,2.38,0,0,1-2,.91,2,2,0,0,1-1.2-.29,5.59,5.59,0,0,1-.78-.68,4.81,4.81,0,0,0-.81-.67,2.24,2.24,0,0,0-1.25-.3,3.16,3.16,0,0,0-1.31.26c-.37.18-.56.35-.56.51s0,.13.1.13a.48.48,0,0,0,.21-.1,2.15,2.15,0,0,1,.35-.21,2.6,2.6,0,0,1,.5-.2,2.19,2.19,0,0,1,.66-.09,2.14,2.14,0,0,1,.9.19,2.41,2.41,0,0,1,1.23,1.23,2.2,2.2,0,0,1,0,1.79,2.29,2.29,0,0,1-.5.75,2.15,2.15,0,0,1-.72.51,2,2,0,0,1-.88.19,1.93,1.93,0,0,1-.65-.1,4.65,4.65,0,0,1-.54-.22l-.38-.23a.49.49,0,0,0-.2-.1c-.05,0-.08.08-.08.18s.19.39.56.53a3.55,3.55,0,0,0,1.24.21,2.39,2.39,0,0,0,1.27-.28,4.13,4.13,0,0,0,.78-.63,8.17,8.17,0,0,1,.7-.62,1.55,1.55,0,0,1,1-.29,2.52,2.52,0,0,1,1.16.29,3.16,3.16,0,0,1,1,.81,4.27,4.27,0,0,1,.67,1.23,4.9,4.9,0,0,1,.25,1.56,4.71,4.71,0,0,1-.29,1.66,3.79,3.79,0,0,1-2.1,2.2,4.19,4.19,0,0,1-1.7.33H86.44V27.56Z"/></svg>