<svg id="Слой_1" data-name="Слой 1" xmlns="http://www.w3.org/2000/svg" viewBox="0 0 150 50"><defs><style>.cls-1{fill:#616160;}</style></defs><path class="cls-1" d="M7.37,11.18a3,3,0,0,1,1.71-.82L11,10a7.78,7.78,0,0,1,1.74-.21,6.2,6.2,0,0,1,4.08,1.53,6.22,6.22,0,0,1,2.07,2.91A6.7,6.7,0,0,1,19.2,16a4.85,4.85,0,0,1-.94,2.8,3.7,3.7,0,0,1-2.72,1.12,5.27,5.27,0,0,0-2.88.91,3.36,3.36,0,0,0-.79,2.08c-.06.79-.13,1.59-.21,2.39a1.86,1.86,0,0,1-1.1,1.57l-.07,0a6.11,6.11,0,0,1-2,.46A2,2,0,0,1,6.62,26.3a14.49,14.49,0,0,1-2-7.33A12.06,12.06,0,0,1,7.37,11.18Zm7.37,2.54a1.61,1.61,0,0,0-1.41-.9,2.85,2.85,0,0,0-1.06.24,10.22,10.22,0,0,0-1.1.56,3.2,3.2,0,0,0-1,.9,2.16,2.16,0,0,0-.45,1.26,1.43,1.43,0,0,0,.92,1.34,1.86,1.86,0,0,0,.89.21,3.31,3.31,0,0,0,1.57-.49,4.71,4.71,0,0,0,1.35-1A1.82,1.82,0,0,0,15,14.59,1.66,1.66,0,0,0,14.74,13.72Z"/><path class="cls-1" d="M29.13,11.46a8,8,0,0,1,5.65,2.44,7.61,7.61,0,0,1,2.47,5.73,10.11,10.11,0,0,1-2.19,6.11,4.65,4.65,0,0,1-2.74,1.31,15.88,15.88,0,0,1-3.12.3A10.38,10.38,0,0,1,23.52,26a6.2,6.2,0,0,1-2.7-5.59,10,10,0,0,1,1.26-4.84,8,8,0,0,1,7.05-4.13Zm.61,4.86A3.06,3.06,0,0,0,28.35,16a3.22,3.22,0,0,0-1.59.43,2.07,2.07,0,0,0-.9,1.07A3.71,3.71,0,0,0,25.53,19,2.16,2.16,0,0,0,26.9,20.9a3,3,0,0,0,1.36.35,2.09,2.09,0,0,0,1.12-.3,3,3,0,0,0,1.69-2.57A2.23,2.23,0,0,0,29.74,16.32Z"/><path class="cls-1" d="M41.45,25.57a14.08,14.08,0,0,1-1.69-4,16.47,16.47,0,0,1-.61-4.32q0-5,3.24-5.89A7.51,7.51,0,0,1,44.24,11a3.38,3.38,0,0,1,1.28.27q.67.27,1.23,2.34c.35,1.25.8,1.87,1.37,1.87s1-.56,1.29-1.69.72-2,1.1-2.2a5.32,5.32,0,0,1,2.14-.78,1.86,1.86,0,0,1,1.19.45,6.08,6.08,0,0,1,2,3.07A11.8,11.8,0,0,1,56.4,18a12.5,12.5,0,0,1-.7,4.29,7.11,7.11,0,0,1-2.51,3.5,2.4,2.4,0,0,1-1.39.47,3,3,0,0,1-1.52-.47,1.26,1.26,0,0,1-.61-1.2,7.06,7.06,0,0,1,.48-2.06,7.08,7.08,0,0,0,.48-2c0-.61-.28-.91-.82-.91q-.41,0-.9,1.5c-.32,1-.69,1.5-1.08,1.5s-.7-.56-1-1.67-.64-1.62-1.09-1.55-.87.54-.87,1.32a7.12,7.12,0,0,0,.19,1.5,21.93,21.93,0,0,1,.47,2.68,1.34,1.34,0,0,1-.82,1.43,4.39,4.39,0,0,1-1.44.26A2.06,2.06,0,0,1,41.45,25.57Z"/><path class="cls-1" d="M67.34,11.46A8.06,8.06,0,0,1,73,13.9a7.63,7.63,0,0,1,2.46,5.73,10.16,10.16,0,0,1-2.18,6.11,4.68,4.68,0,0,1-2.75,1.31,15.88,15.88,0,0,1-3.12.3A10.4,10.4,0,0,1,61.73,26,6.2,6.2,0,0,1,59,20.43a9.86,9.86,0,0,1,1.27-4.84,7.86,7.86,0,0,1,2.94-3A8,8,0,0,1,67.34,11.46ZM68,16.32A3,3,0,0,0,66.57,16a3.22,3.22,0,0,0-1.6.43,2.06,2.06,0,0,0-.89,1.07A3.71,3.71,0,0,0,63.75,19a2.15,2.15,0,0,0,1.36,1.94,3,3,0,0,0,1.36.35A2.15,2.15,0,0,0,67.6,21a3,3,0,0,0,1.69-2.57A2.24,2.24,0,0,0,68,16.32Z"/><path class="cls-1" d="M78.7,12c0-.19.43-.5,1.14-.94a5.22,5.22,0,0,1,2.78-.66h2.56a7.44,7.44,0,0,1,3.94.94,7.21,7.21,0,0,1,2.49,2.79,9.61,9.61,0,0,1,1.29,4.53,8.06,8.06,0,0,1-1.71,4.42Q89,26.24,87.5,26.89a16.21,16.21,0,0,1-4.86.44c-2.48,0-3.77-.34-3.85-1-.25-2.1-.41-3.57-.49-4.41q-.21-2.33-.21-4.14A25.09,25.09,0,0,1,78.7,12Zm3.38,3.38a15.77,15.77,0,0,0-.37,3c0,.4,0,1,0,1.81s0,1.42,0,1.82a.91.91,0,0,0,1,1,4.14,4.14,0,0,0,2.11-.73,5.44,5.44,0,0,0,1.66-1.55,3.62,3.62,0,0,0,.55-2A6.62,6.62,0,0,0,87,17.1a2.76,2.76,0,0,0-.87-1.41,4.1,4.1,0,0,0-2.79-1.15C82.61,14.54,82.19,14.83,82.08,15.41Z"/><path class="cls-1" d="M102.64,11.46a8,8,0,0,1,5.66,2.44,7.64,7.64,0,0,1,2.47,5.73,10.11,10.11,0,0,1-2.19,6.11,4.68,4.68,0,0,1-2.74,1.31,16.05,16.05,0,0,1-3.13.3A10.4,10.4,0,0,1,97,26a6.2,6.2,0,0,1-2.7-5.59,10,10,0,0,1,1.27-4.84,7.81,7.81,0,0,1,3-3A7.94,7.94,0,0,1,102.64,11.46Zm.61,4.86a3,3,0,0,0-1.38-.33,3.25,3.25,0,0,0-1.6.43,2.11,2.11,0,0,0-.89,1.07A3.71,3.71,0,0,0,99.05,19a2.16,2.16,0,0,0,1.36,1.94,3,3,0,0,0,1.37.35,2.11,2.11,0,0,0,1.12-.3,3,3,0,0,0,1.69-2.57A2.23,2.23,0,0,0,103.25,16.32Z"/><path class="cls-1" d="M127.08,25.64a3.58,3.58,0,0,1-2.84,1.27l-.33,0c-1.36-.07-2.21-1-2.53-2.82a16,16,0,0,0-1-3.92.65.65,0,0,0-.56-.19,1.69,1.69,0,0,0-1,.26,1.25,1.25,0,0,0,0,.21l.14.05a1.18,1.18,0,0,0-.61,1.19,21,21,0,0,0,.33,2.16,7.06,7.06,0,0,1,.14,1.32,2.67,2.67,0,0,1-.18,1.05,2.31,2.31,0,0,1-1.51,1,4.47,4.47,0,0,1-1.26.21A2,2,0,0,1,114,26.3a14.26,14.26,0,0,1-2-7.3,11.84,11.84,0,0,1,2.72-7.82,3.13,3.13,0,0,1,1.74-.82,20.6,20.6,0,0,1,3.63-.61,6.38,6.38,0,0,1,2.16.38,6.94,6.94,0,0,1,3.29,2.48,5.68,5.68,0,0,1,1,3.38,4.78,4.78,0,0,1-.94,2.8,1.77,1.77,0,0,0-.37,1,1.66,1.66,0,0,0,.3.8,6,6,0,0,1,.73,1.41Q126.72,24.31,127.08,25.64Zm-6.34-12.82a5.29,5.29,0,0,0-2.16.8,3.26,3.26,0,0,0-1,.93,2.18,2.18,0,0,0-.44,1.23,1.23,1.23,0,0,0,.23.75,1.78,1.78,0,0,0,1.55.8,3.32,3.32,0,0,0,1.67-.51c1.22-.74,1.83-1.48,1.83-2.23a1.66,1.66,0,0,0-.26-.87A1.61,1.61,0,0,0,120.74,12.82Z"/><path class="cls-1" d="M7.77,30.32a2.89,2.89,0,0,1,1.71-.82l1.95-.4a7.77,7.77,0,0,1,1.73-.21,6.2,6.2,0,0,1,4.09,1.52,6.12,6.12,0,0,1,2.06,2.91,6.42,6.42,0,0,1,.29,1.81,4.82,4.82,0,0,1-.94,2.79,3.71,3.71,0,0,1-2.73,1.13,5.2,5.2,0,0,0-2.87.9A3.39,3.39,0,0,0,12.27,42q-.09,1.2-.21,2.4A1.89,1.89,0,0,1,11,46l-.07,0a6.16,6.16,0,0,1-2.05.47A2,2,0,0,1,7,45.43a14.57,14.57,0,0,1-2-7.32A12,12,0,0,1,7.77,30.32Zm7.37,2.53A1.61,1.61,0,0,0,13.73,32a2.81,2.81,0,0,0-1.06.24,10.22,10.22,0,0,0-1.1.56,3.3,3.3,0,0,0-1,.89,2.19,2.19,0,0,0-.45,1.27A1.44,1.44,0,0,0,11,36.26a1.86,1.86,0,0,0,.89.21,3.34,3.34,0,0,0,1.57-.5,5,5,0,0,0,1.35-1,1.81,1.81,0,0,0,.55-1.23A1.65,1.65,0,0,0,15.14,32.85Z"/><path class="cls-1" d="M22.69,32.38a1.84,1.84,0,0,1,1.83-.86,7.28,7.28,0,0,1,2.4.46A1.75,1.75,0,0,1,28,33.79a7.83,7.83,0,0,1-.28,1.86,21.31,21.31,0,0,0-.66,3.16,1.61,1.61,0,0,0,1.08,1.72,3.76,3.76,0,0,0,1.31.3,1.34,1.34,0,0,0,1.41-.89,7.34,7.34,0,0,0,.24-2.28v-1a11.32,11.32,0,0,1,.21-2.52,2.82,2.82,0,0,1,.84-1.46,8.94,8.94,0,0,1,1.46-.84,2.06,2.06,0,0,1,.94-.28,1,1,0,0,1,.44.09q2.28,1.13,2.28,4.89a12.35,12.35,0,0,1-.77,4.21,8,8,0,0,1-2.35,3.5,8.31,8.31,0,0,1-5.28,2H28.4l-.54,0a13.42,13.42,0,0,1-2.49-.38,4.1,4.1,0,0,1-2-1.41A9.86,9.86,0,0,1,21,38.32,14,14,0,0,1,22.69,32.38Z"/><path class="cls-1" d="M43.12,30.46a20.19,20.19,0,0,1,5.51-.94,9.39,9.39,0,0,1,6.43,2.39,1.8,1.8,0,0,1,.68,1.37,1.66,1.66,0,0,1-.28.89,5.82,5.82,0,0,1-2.13,1.59q-1.2.62-2.4,1.2a17,17,0,0,0-3.57,2.37c-.42.38-.8.74-1.15,1.1-.65.68-.93,1.09-.82,1.25a1.25,1.25,0,0,0,1.13.54,10.57,10.57,0,0,0,3.22-1,10.18,10.18,0,0,1,3.56-1,2.94,2.94,0,0,1,2,.65,2,2,0,0,1,.87,1.41,2.06,2.06,0,0,1-1,1.5Q52.39,46,47.18,46a61.34,61.34,0,0,1-6.67-.57c-.56-.06-.84-.75-.84-2.08a3.65,3.65,0,0,1,.56-2.23,10.68,10.68,0,0,1,2.35-2.35c.56-.41,1.46-1,2.7-1.72s2.15-1.32,2.74-1.76c0,0,.53-.32,1.48-.86l1-.73a7.77,7.77,0,0,0-2.13-.28,9.59,9.59,0,0,0-2.94.54A27.94,27.94,0,0,1,41.71,35a2.42,2.42,0,0,1-1.86-.87,2.23,2.23,0,0,1-.65-1.5,1.3,1.3,0,0,1,1-1.32C41.59,30.91,42.55,30.62,43.12,30.46Z"/><path class="cls-1" d="M61.71,30.46a20.19,20.19,0,0,1,5.51-.94,9.39,9.39,0,0,1,6.43,2.39,1.82,1.82,0,0,1,.69,1.37,1.67,1.67,0,0,1-.29.89,5.73,5.73,0,0,1-2.13,1.59q-1.2.62-2.4,1.2A16.66,16.66,0,0,0,66,39.33c-.43.38-.81.74-1.16,1.1-.65.68-.93,1.09-.82,1.25a1.25,1.25,0,0,0,1.13.54,10.49,10.49,0,0,0,3.22-1,10.18,10.18,0,0,1,3.56-1,2.92,2.92,0,0,1,2,.65,2,2,0,0,1,.87,1.41,2.06,2.06,0,0,1-1,1.5Q71,46,65.77,46a61.34,61.34,0,0,1-6.67-.57c-.56-.06-.84-.75-.84-2.08a3.65,3.65,0,0,1,.56-2.23,10.9,10.9,0,0,1,2.35-2.35c.56-.41,1.46-1,2.7-1.72s2.15-1.32,2.74-1.76c0,0,.53-.32,1.48-.86l1-.73a7.77,7.77,0,0,0-2.13-.28A9.59,9.59,0,0,0,64,34,27.94,27.94,0,0,1,60.3,35a2.42,2.42,0,0,1-1.86-.87,2.28,2.28,0,0,1-.65-1.5,1.3,1.3,0,0,1,1-1.32C60.18,30.91,61.14,30.62,61.71,30.46Z"/><path class="cls-1" d="M79.45,29.24A4.8,4.8,0,0,1,81,29.5c1.66.54,2.49,1.25,2.49,2.11a9.13,9.13,0,0,1-1.4,3.21,8.63,8.63,0,0,0-1.39,3.53,2.29,2.29,0,0,0,.49,1.45,3.11,3.11,0,0,0,2.63,1.13A25,25,0,0,0,87,40.46a10.25,10.25,0,0,1,1.78-.21,3.29,3.29,0,0,1,1,.14,1.62,1.62,0,0,1,1.27,1.71,4.28,4.28,0,0,1-.66,2.21,3.61,3.61,0,0,1-1.92,1.45l-2.37.68a3.84,3.84,0,0,1-1.2.24c-.17,0-.6,0-1.27-.14q-2.53-.36-5.73-.73c-1-.11-1.63-1-2-2.56a14.16,14.16,0,0,1-.4-3.57,19.46,19.46,0,0,1,2.26-9.55A1.8,1.8,0,0,1,79.45,29.24Z"/><path class="cls-1" d="M102.48,29.05a7.88,7.88,0,0,1,4.69,1.36,2.55,2.55,0,0,1,1.3,2,1.75,1.75,0,0,1-.5,1.29,3.32,3.32,0,0,1-2.2,1.2,6.08,6.08,0,0,1-1.81-.38,15.47,15.47,0,0,0-3-.82,1.85,1.85,0,0,0-1.69,1,1,1,0,0,0-.17.45,6.41,6.41,0,0,0,.45.58,1.64,1.64,0,0,0,1.31.8l1.81.28c.63.16,1,.46,1,.9a1.58,1.58,0,0,1,0,.35,2.48,2.48,0,0,1-1,2,.83.83,0,0,1-.54.19,3.27,3.27,0,0,1-1.37-.55,3.45,3.45,0,0,0-1.28-.55c-.49,0-.73.3-.73.91a1.87,1.87,0,0,0,.85,1.29c.17.14.69.5,1.57,1.06a2.05,2.05,0,0,0,1.13.31,6.54,6.54,0,0,0,1.3-.2,5.78,5.78,0,0,1,1.3-.2,1.39,1.39,0,0,1,1.27.68,3.72,3.72,0,0,1,.35,1.83v.3c0,1-1.21,1.53-3.64,1.53a13.65,13.65,0,0,1-4-.61,7.82,7.82,0,0,1-3.49-2A8,8,0,0,1,93,38.28a9.19,9.19,0,0,1,2.3-6.08A8.86,8.86,0,0,1,102.48,29.05Z"/><path class="cls-1" d="M145.36,20.65c0-4.4-2.35-5.78-2.48-7.63a.69.69,0,0,1,.24-.68c-.27-.08-.53.19-.61.46a3.74,3.74,0,0,1-.21.83c-.14.25-.54.38-.7.14a.46.46,0,0,1,.07-.51c.1-.14.26-.26.36-.41a1.57,1.57,0,0,0-.08-1.44,1.94,1.94,0,0,1-.23-1.45,1.31,1.31,0,0,0-.79,1.31,2.18,2.18,0,0,1-.08-1.45A4.62,4.62,0,0,0,141,8.35a1.13,1.13,0,0,0-.9-1,1.29,1.29,0,0,1,0,.82.51.51,0,0,1-.65.34c-.29-.15-.27-.57-.19-.88a2.89,2.89,0,0,0,.09-1.69,4.61,4.61,0,0,0-.94-1.18c-.32-.4-.52-1-.19-1.39a1.19,1.19,0,0,0-.9.85,6.15,6.15,0,0,0-.16,1.29,1.87,1.87,0,0,1-.46,1.19,1.12,1.12,0,0,1-1.89-1A2.5,2.5,0,0,0,134.13,8a3.8,3.8,0,0,1,.15.83.63.63,0,0,1-.47.62.55.55,0,0,1-.52-.32,1.08,1.08,0,0,1,0-.64,2.48,2.48,0,0,0-.51,2.06,10,10,0,0,1,.2,2.18c-.14-.48-.53-1.09-1.11-1.14,1.19,1.58-2.5,3.51-2.5,9a8,8,0,0,0,16,0Zm-14.84,0a6.83,6.83,0,1,1,6.82,6.82A6.82,6.82,0,0,1,130.52,20.65Z"/><path class="cls-1" d="M137.34,15.51a.22.22,0,0,0,.23-.22v-.62a.22.22,0,0,0-.23-.22.22.22,0,0,0-.22.22v.62A.22.22,0,0,0,137.34,15.51Z"/><path class="cls-1" d="M134.85,15.89l-.3-.53a.23.23,0,0,0-.42.11.27.27,0,0,0,0,.12l.3.53a.24.24,0,0,0,.31.08A.22.22,0,0,0,134.85,15.89Z"/><path class="cls-1" d="M132.89,18.08a.23.23,0,0,0-.08-.31l-.53-.3a.22.22,0,0,0-.31.08.2.2,0,0,0,0,.11.23.23,0,0,0,.11.2l.53.3A.22.22,0,0,0,132.89,18.08Z"/><path class="cls-1" d="M132.2,20.65a.23.23,0,0,0-.22-.23h-.62a.23.23,0,0,0,0,.46H132A.23.23,0,0,0,132.2,20.65Z"/><path class="cls-1" d="M132.81,23.53a.23.23,0,0,0,.08-.31.22.22,0,0,0-.31-.08l-.53.3a.23.23,0,0,0-.11.2.2.2,0,0,0,0,.11.22.22,0,0,0,.31.08Z"/><path class="cls-1" d="M134.55,25.94l.3-.53a.22.22,0,0,0-.08-.31.24.24,0,0,0-.31.08l-.3.53a.27.27,0,0,0,0,.12.23.23,0,0,0,.42.11Z"/><path class="cls-1" d="M137.57,26.63V26a.22.22,0,0,0-.23-.22.22.22,0,0,0-.22.22v.62a.22.22,0,0,0,.22.22A.22.22,0,0,0,137.57,26.63Z"/><path class="cls-1" d="M139.8,25.3a.26.26,0,0,0,0,.11l.3.53a.23.23,0,0,0,.31.08.22.22,0,0,0,.08-.31l-.3-.53a.24.24,0,0,0-.31-.08A.23.23,0,0,0,139.8,25.3Z"/><path class="cls-1" d="M141.79,23.22a.2.2,0,0,0,0,.11.23.23,0,0,0,.11.2l.53.3a.22.22,0,0,0,.31-.08.23.23,0,0,0-.08-.31l-.53-.3A.22.22,0,0,0,141.79,23.22Z"/><path class="cls-1" d="M142.48,20.65a.23.23,0,0,0,.22.23h.62a.23.23,0,0,0,0-.46h-.62A.23.23,0,0,0,142.48,20.65Z"/><path class="cls-1" d="M142.63,17.86a.23.23,0,0,0,.08-.31.22.22,0,0,0-.31-.08l-.53.3a.23.23,0,0,0-.11.2.2.2,0,0,0,0,.11.22.22,0,0,0,.31.08Z"/><path class="cls-1" d="M140.22,16.12l.3-.53a.22.22,0,0,0-.08-.31.23.23,0,0,0-.31.08l-.3.53a.26.26,0,0,0,0,.11.23.23,0,0,0,.11.2A.24.24,0,0,0,140.22,16.12Z"/><path class="cls-1" d="M140.55,23.57l-1-1.1c-.45-.47-.9-1-1.36-1.45a.94.94,0,0,0-.19-1,.92.92,0,0,0-1-.2l-.56-.55a.36.36,0,0,0-.51.51l.55.56a.9.9,0,0,0,.21,1,.92.92,0,0,0,1,.19l.91.85c.32.3.77.73,1.09,1l.55.51a.2.2,0,0,0,.27,0A.21.21,0,0,0,140.55,23.57Z"/></svg>