<svg id="Слой_1" data-name="Слой 1" xmlns="http://www.w3.org/2000/svg" viewBox="0 0 132.4 50"><path d="M12.94,25.42h.48a.86.86,0,0,1,.61.25l8.82,8.83a.88.88,0,0,0,1.22,0l8.83-8.83a.84.84,0,0,1,.6-.25H34a.86.86,0,0,1,.86.86V47.46a.86.86,0,0,1-.86.86H28.74a.86.86,0,0,1-.86-.86V38.74a.85.85,0,0,1,.86-.86h.07a.86.86,0,0,1,.86.86v7a.86.86,0,0,0,.86.86h1.76a.87.87,0,0,0,.86-.86V30.08a.86.86,0,0,0-1.47-.61l-7.61,7.61a.88.88,0,0,1-1.22,0l-7.56-7.56a.86.86,0,0,0-1.47.6v15.6a.87.87,0,0,0,.86.86h1.76a.86.86,0,0,0,.86-.86V42.26a.86.86,0,0,1,.86-.85h0a.86.86,0,0,1,.86.85v5.29a.86.86,0,0,1-.86.86H12.94a.86.86,0,0,1-.86-.86V26.28A.87.87,0,0,1,12.94,25.42Z"/><path d="M38,14.48v7.06a.85.85,0,0,0,.85.84h3.57a.84.84,0,0,0,.84-.84V16.18a.84.84,0,0,0-.84-.85H42.4a.84.84,0,0,0-.84.85h0a.85.85,0,0,1-.85.84h-.14a.85.85,0,0,1-.85-.84v-1.7a.85.85,0,0,1,.85-.84h3.67a.85.85,0,0,1,.84.84v8.75a.85.85,0,0,1-.84.85H37.09a.85.85,0,0,1-.85-.85V14.48a.85.85,0,0,1,.85-.84h.09A.85.85,0,0,1,38,14.48Z"/><path d="M55.52,14.48v.45a.84.84,0,0,1-.25.6l-5.36,5.36a.85.85,0,0,0,.6,1.45h4.05a.84.84,0,0,1,.84.84v.05a.85.85,0,0,1-.84.85H47.48a.85.85,0,0,1-.85-.85V21.89a.84.84,0,0,1,.25-.6l4.51-4.52a.84.84,0,0,0-.59-1.44H49.31a.85.85,0,0,0-.84.85h0a.85.85,0,0,1-.85.84h-.14a.85.85,0,0,1-.85-.84v-1.7a.85.85,0,0,1,.85-.84h7.19A.85.85,0,0,1,55.52,14.48Z"/><path d="M66.09,14.48v.45a.84.84,0,0,1-.25.6l-5.36,5.36a.85.85,0,0,0,.6,1.45h4a.84.84,0,0,1,.85.84v.05a.85.85,0,0,1-.85.85H58.05a.85.85,0,0,1-.85-.85V21.89a.84.84,0,0,1,.25-.6L62,16.77a.84.84,0,0,0-.6-1.44H59.88a.85.85,0,0,0-.85.85h0a.85.85,0,0,1-.84.84h-.14a.85.85,0,0,1-.85-.84v-1.7a.85.85,0,0,1,.85-.84h7.19A.85.85,0,0,1,66.09,14.48Z"/><path d="M68.61,1.08h3.44a.85.85,0,0,1,.84.85V5.5a.84.84,0,0,1-.84.84h0a.83.83,0,0,1-.85-.84V3.72a.85.85,0,0,0-.84-.85h0a.85.85,0,0,0-.85.85V21.44a.85.85,0,0,0,.85.85h3.57a.85.85,0,0,0,.85-.85V14.38a.84.84,0,0,1,.84-.84h0a.83.83,0,0,1,.85.84v8.85a.85.85,0,0,1-.85.85h-7a.85.85,0,0,1-.84-.85V1.93A.85.85,0,0,1,68.61,1.08Z"/><path d="M78.93,13.44H85.8a.84.84,0,0,1,.84.84v3.58a.84.84,0,0,1-.84.84H82.37a.85.85,0,0,1-.85-.84v-.1a.85.85,0,0,1,.85-.84h1.74a.85.85,0,0,0,.84-.85h0a.85.85,0,0,0-.84-.85H80.63a.85.85,0,0,0-.85.85v5.31a.85.85,0,0,0,.85.85h3.48a.85.85,0,0,0,.84-.85h0a.85.85,0,0,1,.85-.84h.09a.85.85,0,0,1,.85.84v1.85a.84.84,0,0,1-.85.84h-7a.84.84,0,0,1-.84-.84V14.28A.85.85,0,0,1,78.93,13.44Z"/><path d="M45.13,26.27V35a.85.85,0,0,1-.85.85H37.09a.85.85,0,0,1-.85-.85V31.58a.85.85,0,0,1,.85-.85h3.57a.85.85,0,0,1,.85.85h0a.85.85,0,0,1-.85.85H38.92a.85.85,0,0,0-.84.84v0a.85.85,0,0,0,.84.85H42.5a.85.85,0,0,0,.84-.85V28a.85.85,0,0,0-.84-.85H38.92a.85.85,0,0,0-.84.85V28a.85.85,0,0,1-.85.84h-.14a.85.85,0,0,1-.85-.84V26.27a.85.85,0,0,1,.85-.85h7.19A.85.85,0,0,1,45.13,26.27Z"/><path d="M55.45,26.27V35a.85.85,0,0,1-.85.85H51a.84.84,0,0,1-.84-.85V33.32a.84.84,0,0,1,.84-.85h.1a.85.85,0,0,1,.84.85h0a.85.85,0,0,0,.85.85h0a.85.85,0,0,0,.85-.85V28a.85.85,0,0,0-.85-.85H49.2a.85.85,0,0,0-.85.85v7a.85.85,0,0,1-.85.85h-.09a.85.85,0,0,1-.85-.85V26.27a.85.85,0,0,1,.85-.85H54.6A.85.85,0,0,1,55.45,26.27Z"/><path d="M65.77,26.27V35a.85.85,0,0,1-.85.85H57.73a.85.85,0,0,1-.85-.85V31.58a.85.85,0,0,1,.85-.85H61.3a.85.85,0,0,1,.85.85h0a.85.85,0,0,1-.85.85H59.56a.85.85,0,0,0-.84.84v0a.85.85,0,0,0,.84.85h3.58a.85.85,0,0,0,.84-.85V28a.85.85,0,0,0-.84-.85H59.56a.85.85,0,0,0-.84.85V28a.85.85,0,0,1-.85.84h-.14a.85.85,0,0,1-.85-.84V26.27a.85.85,0,0,1,.85-.85h7.19A.85.85,0,0,1,65.77,26.27Z"/><path d="M68.05,25.26h7a.85.85,0,0,1,.84.84v5.31a.85.85,0,0,1-.84.85h0a.85.85,0,0,1-.85-.85V27.89a.85.85,0,0,0-.85-.85H69.74a.84.84,0,0,0-.84.85v5.36a.84.84,0,0,0,.84.85H75a.84.84,0,0,1,.84.84V47.4a.85.85,0,0,1-.84.85h-7a.85.85,0,0,1-.85-.85V40.21a.85.85,0,0,1,.85-.85h3.48a.84.84,0,0,1,.84.85v.14a.84.84,0,0,1-.84.85H69.79a.84.84,0,0,0-.85.84v3.53a.84.84,0,0,0,.85.84h3.48a.83.83,0,0,0,.84-.84V36.78a.84.84,0,0,0-.84-.85H68.05a.85.85,0,0,1-.85-.85v-9A.85.85,0,0,1,68.05,25.26Z"/><path d="M78.33,25.22H85.2a.84.84,0,0,1,.84.85v3.57a.84.84,0,0,1-.84.85H81.77a.85.85,0,0,1-.85-.85v-.09a.85.85,0,0,1,.85-.85h1.74a.85.85,0,0,0,.84-.85h0a.85.85,0,0,0-.84-.84H80a.85.85,0,0,0-.85.84v5.32A.85.85,0,0,0,80,34h3.48a.85.85,0,0,0,.84-.84h0a.85.85,0,0,1,.85-.85h.09a.85.85,0,0,1,.85.85V35a.85.85,0,0,1-.85.85h-7a.85.85,0,0,1-.84-.85V26.07A.85.85,0,0,1,78.33,25.22Z"/><path d="M96.58,26.27V35a.85.85,0,0,1-.85.85h-.14a.85.85,0,0,1-.85-.85V28a.85.85,0,0,0-.84-.85h-.05A.85.85,0,0,0,93,28v1.79a.85.85,0,0,1-.84.84h-.1a.85.85,0,0,1-.84-.84V28a.85.85,0,0,0-.85-.85h0a.85.85,0,0,0-.85.85v7a.85.85,0,0,1-.84.85h-.1a.85.85,0,0,1-.84-.85V26.27a.85.85,0,0,1,.84-.85h7.15A.85.85,0,0,1,96.58,26.27Z"/><path d="M99.13,25.22H106a.85.85,0,0,1,.85.85v3.57a.85.85,0,0,1-.85.85h-3.43a.85.85,0,0,1-.85-.85v-.09a.85.85,0,0,1,.85-.85h1.74a.84.84,0,0,0,.84-.85h0a.84.84,0,0,0-.84-.84h-3.48a.85.85,0,0,0-.85.84v5.32a.85.85,0,0,0,.85.84h3.48a.84.84,0,0,0,.84-.84h0a.85.85,0,0,1,.85-.85h.1a.85.85,0,0,1,.84.85V35a.85.85,0,0,1-.85.85h-7a.85.85,0,0,1-.85-.85V26.07A.85.85,0,0,1,99.13,25.22Z"/><path d="M117.42,26.27V35a.85.85,0,0,1-.85.85H113a.85.85,0,0,1-.85-.85V33.32a.85.85,0,0,1,.85-.85H113a.85.85,0,0,1,.85.85h0a.85.85,0,0,0,.85.85h0a.85.85,0,0,0,.84-.85V28a.85.85,0,0,0-.84-.85h-3.58a.85.85,0,0,0-.84.85v7a.85.85,0,0,1-.85.85h-.09a.85.85,0,0,1-.85-.85V26.27a.85.85,0,0,1,.85-.85h7.19A.85.85,0,0,1,117.42,26.27Z"/><path d="M129.38,31.58v1.65a.89.89,0,0,1-.89.89H125a.89.89,0,0,1-.89-.89V28a.89.89,0,0,1,.89-.9h1.65a.89.89,0,0,0,.89-.89h0a.89.89,0,0,0-.89-.89H125a.89.89,0,0,1-.89-.9c0-2.26,0-8.2,0-10.48a.89.89,0,0,0-.9-.89h0a.89.89,0,0,0-.9.89V24.43a.89.89,0,0,1-.89.9h-1.65a.89.89,0,0,0-.89.89h0a.89.89,0,0,0,.89.89h1.65a.89.89,0,0,1,.89.9v7a.89.89,0,0,0,.9.89h7.94l0,0V31.58a.89.89,0,0,0-.89-.89h0A.89.89,0,0,0,129.38,31.58Z"/><path d="M9.37,29.55h0A1.33,1.33,0,0,0,8,30.88v2.58a1.33,1.33,0,0,1-1.33,1.33H4.06a1.33,1.33,0,0,1-1.33-1.33V2.25A1.33,1.33,0,0,0,1.4.92H1.33A1.32,1.32,0,0,0,0,2.25V36.19a1.33,1.33,0,0,0,1.33,1.33h8a1.34,1.34,0,0,0,1.33-1.33V30.88A1.33,1.33,0,0,0,9.37,29.55Z"/><path d="M33.56.92H6.71A1.33,1.33,0,0,0,5.38,2.25v.07A1.34,1.34,0,0,0,6.71,3.65h24.2A1.33,1.33,0,0,1,32.24,5V20a1.33,1.33,0,0,1-1.33,1.33H9.44A1.33,1.33,0,0,1,8.11,20V17.31A1.33,1.33,0,0,1,9.44,16H22.79a1.33,1.33,0,0,0,1.33-1.33v-.07a1.33,1.33,0,0,0-1.33-1.33H6.86a1.33,1.33,0,0,0-1.33,1.33v8.18a1.32,1.32,0,0,0,1.33,1.33h26.7a1.32,1.32,0,0,0,1.33-1.33V2.25A1.32,1.32,0,0,0,33.56.92Z"/></svg>