<svg id="Слой_1" data-name="Слой 1" xmlns="http://www.w3.org/2000/svg" viewBox="0 0 113.85 50"><defs><style>.cls-1{fill:#616160;}</style></defs><path class="cls-1" d="M73.08,15.77c.25.13.37.13.49,0h0A6.27,6.27,0,0,0,75,15.53c-.61,0-1.1-.12-1.71-.12-.12,0-.12,0-.25-.13h.13A7.09,7.09,0,0,1,75,14.79a3.07,3.07,0,0,0-1-.12.12.12,0,0,1-.12-.12c.25,0,.49-.12.74-.12.61,0,1.22.12,2,.12h.73A4.74,4.74,0,0,0,76,13.69c.61,0,1,.37,1.59.49h0a.12.12,0,0,0,.12.12h0c0,.13.12.13.25.13a.67.67,0,0,1,.24-.5,6.21,6.21,0,0,0,1.47-1.1c.49-.49.49-.49,1.11,0a1.6,1.6,0,0,1-.74.61c-.37.13-.61.62-1.1.86a7.53,7.53,0,0,1,1.59,1.11c0,.12.12.12.12.24l.13.12c.12.25.24.37.24.49h0c.13-.24,0-.36-.12-.49l-.12-.12c0-.12,0-.24-.13-.24a4,4,0,0,1-.61-.74,6.45,6.45,0,0,1,1,.61,5.5,5.5,0,0,1,1.35,1.11.42.42,0,0,1,.12.24c-.12-.12-.12-.24-.24-.24l-.12-.13v-.12L82,16a.12.12,0,0,0-.12-.12H82c0,.12,0,.12.13.12v.12l.12.12.24.25c.25.12.37.49.49.61l.13.13.49.49a15.42,15.42,0,0,1,1.59,2.33,17.08,17.08,0,0,1,1,3.06c0,.12.12.12.25.12s.12-.12.12-.24a18.57,18.57,0,0,0-.12-2.58h0A5.19,5.19,0,0,0,86.32,19c0-.37,0-.49-.24-.49.12-.12,0-.12,0-.24V18.1a12,12,0,0,0-3.56-6.86,5.3,5.3,0,0,0-4.9-1c-.25,0-.37.12-1.1.85a.13.13,0,0,0-.13.13c.37-.13.62-.13,1.11-.25,2.94-.73,5.15,1.35,6.25,3.31a12.39,12.39,0,0,1,1.1,4.17v.25c-.12,0-.12-.13-.12-.13a7.73,7.73,0,0,1-.24-1.1c-.13.25-.13.61-.25.74-.12-.25-.12-.37-.24-.49v-.25c-.13,0-.13,0-.13.25v.49c-.24-.13-.24-.49-.49-.62,0,0,0,.13-.12.13a.61.61,0,0,0-.25-.49c-.24-.25-.12-.62-.24-1.11S82.89,16,83,16a2.63,2.63,0,0,0,.74.49c.12,0,.12.12.25.12h0a.12.12,0,0,0-.13-.12,1,1,0,0,0-.61-.61c-.25-.25-.86-.37-.86-1a9.82,9.82,0,0,0,1,.49c.12,0,.12.12.25.12-.13-.12-.13-.25-.25-.25a8.77,8.77,0,0,0-1.1-.85,9.34,9.34,0,0,1-1-1.35,2.47,2.47,0,0,1,1,0h0a1.27,1.27,0,0,0-1-.49h-.25c-.12-.13-.24-.13-.24-.25s.12-.12.24-.12h.74c-.12-.49-.61-.49-.86-.49s-.61.12-.86.24v-.12l.12-.12c0-.12-.12,0-.12,0-.24.12-.37-.12-.86-.12a8.33,8.33,0,0,1,1-.5,3.16,3.16,0,0,0-1.83.5c0-.13.24-.13.24-.25s.12,0,.12-.12H78.6c-.24.12-.74,0-1,.24-.25,0-.37,0-.49.13h0a3.87,3.87,0,0,0-1.59.73,3.21,3.21,0,0,0-1.84,2c-.13.13-.13.62-.25.86a5.08,5.08,0,0,1,0-1.35,2.79,2.79,0,0,0,.49-.86.64.64,0,0,1,.25-.49v-.12c0-.12,0-.12.12-.12h0a.12.12,0,0,0-.12.12v.12c-.37-.24-.37.13-.49.25a2,2,0,0,0-.74,1,2.32,2.32,0,0,0-.24,1.59,1,1,0,0,1-.25-.73c-.25-.49.12-.86.25-1.35A6,6,0,0,1,74.43,11c.61-.24,1-.73,1.6-1a.66.66,0,0,0,.49-.24c-.25,0-.62,0-.74.12a4.59,4.59,0,0,0-1.1.24A.12.12,0,0,0,74.8,10a.12.12,0,0,0,.12-.12h0c.12,0,.12,0,.12-.12,0,.12.13,0,.13,0A4.13,4.13,0,0,1,77,9.15c.73,0,1.59.25,2.33.25a3.52,3.52,0,0,0-1.48-.86c.62-.12,1.11,0,2.46.86a6.43,6.43,0,0,0-.62-1h.13a11.7,11.7,0,0,1,1.47,1.1l.12.12c.12.13.12.25.25.13v0l-.13-.13a.12.12,0,0,1-.12-.12c0-.24-.12-.49-.12-.86a9.15,9.15,0,0,1,1.1,1c.12.25.12.37.25.49s.12.25,0,.25h0v-.25c.24-.12.49-.12.73-.24a2.07,2.07,0,0,0,.49,1.84h0a.12.12,0,0,1,.13.12c.12,0,0-.12,0-.12-.25-.49,0-1.23-.5-1.84a2,2,0,0,1,1.11-.61c.86-.25,1.71-.62,2.57-.86a.92.92,0,0,1,.74.24c.12-.12.49-.12.61-.12A1.29,1.29,0,0,1,89.88,9,8.28,8.28,0,0,1,88,9.15H87.8c-.25.13-.49.13-.74.25s-.49,0-.61.12A3,3,0,0,0,85,10c-1.23.49-1.23.49-.62,1.47,0,.13.13.13.13.25l.73,2.2c.12-.36,0-.61.12-1.1a7.35,7.35,0,0,1,.62,2.7c.12-.49,0-1,.12-1.47,0,.24.12.73.12,1v.73a1.64,1.64,0,0,0,.12-.61h0v.12A4,4,0,0,1,86.2,17h0c.25-.12.25-.49.49-.61,0,.24-.12.61-.12.86a1.56,1.56,0,0,0-.12.73c.24,0,.49-.12.73-.12a.83.83,0,0,0-.49.86c.37,0,.37-.13.62-.13a.93.93,0,0,0-.25.62c-.12.12-.12.49-.12.61a5.14,5.14,0,0,1,.12,1.35.31.31,0,0,0,.49.24c.12,0,0-.12.25-.12s.36-.12.49-.12.36-.12.49,0h0c-.13.24-.25.24-.49.37-1,.49-1,.61-.86,2a6.69,6.69,0,0,0,2.33-4.91V18.1a23.68,23.68,0,0,1,.61-2.82c0-.12.12-.12,0-.24h0a2.16,2.16,0,0,1,.25-.86c.24-.49.49-1,.73-1.59A10.49,10.49,0,0,1,93,10.13a17.74,17.74,0,0,1,1.59-1.47A1.88,1.88,0,0,1,97,8.42h.12A.12.12,0,0,0,97,8.29c-.12-.36-.49-.49-.61-.61h0A2.29,2.29,0,0,1,97.85,9c.12-.24,0-.37.12-.49.25.74.49,1.72,1.6,1.47-.49.37-1,.37-1.47.86h0s-.13,0-.13.12h0c-.36,0-.36,0-.49.12h0c-.12,0-.24,0-.24.13h0s-.13,0-.13.12h0c-.36,0-.49,0-.49.25s.37.12.49.12c.37-.12.74-.12,1.11-.25s.61-.12,1.1-.12a1.11,1.11,0,0,0-.12,1.72h0a.12.12,0,0,1,.12.12c0,.12.12.12.12.24a1.56,1.56,0,0,1,.49.86,1.88,1.88,0,0,1-.85,2,2.21,2.21,0,0,1-.86.25,1,1,0,0,1-1.35-.86v-1.1c.24-.49.24-1,.49-1.47a1.09,1.09,0,0,1,.74-.74c-1,.86-.74,1.84-.49,2.82a2.11,2.11,0,0,0,.12-.86A1.81,1.81,0,0,1,98,12.71c.13-.25.13-.12.25,0a3.07,3.07,0,0,1,.12-1.1l.12-.13h0c0-.12-.12,0-.12,0a2.4,2.4,0,0,1-.73.49c-.25,0-.62.37-.74.62s-.12.24-.12,0h-.13c-.24,0-.36-.37-.85-.25a4.09,4.09,0,0,1,.61-.49h0a2.42,2.42,0,0,1-1-.12l.49-.49h-.61c-.13,0-.25,0-.25-.13a.42.42,0,0,1,.12-.24c.13,0,.13,0,.25-.12-.49,0-.25-.37-.74-.49-.24-.25-.12-.62-.24-.86.49-.25.73-.74,1.35-.74a1.16,1.16,0,0,0-.13,1.11c-.24-.13-.12-.37-.12-.86-.12.37-.24.49-.12.61a1.2,1.2,0,0,0,.86.86c.24.12.61,0,.85-.49-.61.12-1,.49-1.47-.12.25,0,.49.12.74.12s.49,0,.61-.12h0c.37-.13.25-.49.25-.74.12,0,.12.12.24.12-.12-.36-.37-.73-.73-1.47a2.61,2.61,0,0,0-1.35.12,4.08,4.08,0,0,0-1.84,1.11c-.12.12-.37.37-.25.61l-.24.25v.12H93c0,.12.12-.12.24,0-.24.24-.49.49-.49.73.37-.12.49-.24.61-.12a10.54,10.54,0,0,0-1,3.31,3.67,3.67,0,0,1,1-2c-.36,1.72-.73,3.43-.12,5-.12-1.35-.49-2.58.12-3.93,0,.25-.12.62-.12.86h0c.25-.12.37-.49.49-.73a16,16,0,0,0,.12,2.45v-1a1.49,1.49,0,0,0,.13-.74.12.12,0,0,1,.12-.12v.12c-.12.12,0,.49,0,.74a1,1,0,0,0,.12-.49s.12-.25.12,0,.13.73.13,1v.12h0A34.09,34.09,0,0,0,96,19.7c0,.12.12.12.12.24h0c-.12-.12,0-.12-.12-.24a11.93,11.93,0,0,0-.73-2.21,5.71,5.71,0,0,1-.74-2.82v-.49a8.72,8.72,0,0,0,.74,1.59,3.14,3.14,0,0,0,.61,1.11v-.62h0c.12.25.49.74.61,1h0a.12.12,0,0,1,.12.12,2.4,2.4,0,0,1,.49.73.13.13,0,0,1,.13.13l.12.12a.12.12,0,0,1,.12.12.12.12,0,0,1,.13.12h0c-.13,0,0-.12-.13-.12.13-.12,0-.12,0-.24s-.12-.13-.12-.13h0c0-.12.12,0,.12,0l.25.25c.49.61.86,1.1,1.35,1.72h0a3,3,0,0,0,.49.61v.12h0c0-.12,0-.12-.13-.12.13-.12,0-.25.13-.25a6.34,6.34,0,0,1,.73,1.6,1.32,1.32,0,0,0,.25.73h0a.46.46,0,0,1,.12.25c-.24,0-.24-.12-.49-.25,0,.13.12.49.12.74-.37-.25-.37-.61-.49-.86a.12.12,0,0,0-.12-.12v.24a1.52,1.52,0,0,1,0,.74,4.21,4.21,0,0,0-.25-1.1c0-.13-.12-.13-.12-.25A.12.12,0,0,1,99.2,22c-.12,0,0,.12,0,.12s.12.12.12.25a5.07,5.07,0,0,0,.12,1.34v.74h0c0,.12.13.49.13.61h-.13a8.74,8.74,0,0,1-.73-1.1c-.86-1.1-1-2.33-1.6-3.68,0,.25.13.49,0,.74a8.28,8.28,0,0,1-.24-1.11v.74a.12.12,0,0,1-.12-.12,6.51,6.51,0,0,0,0,1.59c-.13-.12,0-.49-.25-.61a2.6,2.6,0,0,0,.61,1.84A13,13,0,0,1,98,24.85c0,.12.25.49.25.73-.12-.24-.12-.36-.25-.49a5.37,5.37,0,0,0-1-1.84h0v.13a2.44,2.44,0,0,1,.25,1.1,1.81,1.81,0,0,1-.49-1c-.13.37.12.73.12,1h0c-.12,0,0,.12,0,.24a21.28,21.28,0,0,1,.49,2.7A16.81,16.81,0,0,1,95.89,24c0,.49.12.86.12,1.47-.12-.24-.12-.61-.24-.74.24,1.48.61,2.7.85,4.17,0-.12-.12-.12-.12-.24v-.12h0V28.4h0a7.45,7.45,0,0,0-.73-1.35,26.57,26.57,0,0,1-1.11-2.82.66.66,0,0,0-.24-.49V23.5a.16.16,0,0,0,0,.24c.12.25,0,.37.12.49s.12.74.12,1a.12.12,0,0,1-.12.12c0-.25,0-.37-.61-1.11a8.46,8.46,0,0,0,.24,1.84c-.12,0,0-.12-.12-.12s0-.12-.12-.24a6,6,0,0,0-.49-1.84v-.13h.12c.12.62.12,1.11.24,1.6a.36.36,0,0,0,.13.24c-.13.25,0,.37,0,.49.12.62.12,1.11.24,1.6s.12,1,.25,1.47h0a2.91,2.91,0,0,1-.49-.86,22.91,22.91,0,0,0-1.11-2.57A2.06,2.06,0,0,1,93,24.23a6.79,6.79,0,0,0,.73,2.58h0c0-.25-.12-.49-.12-.74s-.25-.49,0-.61,0-.12,0-.24a35.9,35.9,0,0,1-.86-5.28c0-.24-.12-.49-.12-1,0-.12,0-.24.24-.24s.25.36.25.49v.12a5,5,0,0,0-.25,2.33,11.09,11.09,0,0,1-.12,3.56c0,.24,0,.36-.12.49a6.36,6.36,0,0,1-.49-1c.12.86.61,1.72.73,2.7-.12-.12-.12-.24-.24-.24v0a13.89,13.89,0,0,1,.61,2.2c0,.37,0,.49.12.62s.13.49.13.73c-.37,0-.37-.37-.49-.49a13.66,13.66,0,0,1-1.6-4.9c0-.25-.12-.37-.12-.49s.12-.13,0-.25h0c0-.24-.12-.61-.12-.86-.13.25-.13.62-.25.86a2.11,2.11,0,0,1-.12-.86h-.12v.74c0,.24,0,.37-.13.49a16.39,16.39,0,0,1,0-3.43v-.62a14.23,14.23,0,0,1-.85,3.31c.12,0,0-.24.24-.24A17.66,17.66,0,0,0,90,26.44a8.69,8.69,0,0,0,0-1.84c0,.25.13.37.13.49s.12.62.12.86c.24-.24-.12-.86.49-1v.49a12.85,12.85,0,0,0-.12,3.07,2.35,2.35,0,0,0,0,1.34c0,.37.12.62.12,1.11a6.19,6.19,0,0,1-.61-1.35c-.13-.25-.13-.61-.25-.86a5.5,5.5,0,0,1-.12-2.45v-.49c-.12.12,0,.49-.25.61v-.61A29,29,0,0,1,90,20.19c-.49,1.59-.61,3.43-1.35,5a1.75,1.75,0,0,0-.24.73c-.25-.12-.12-.49-.12-.61v-.86h0v-.37a8.8,8.8,0,0,0,.49-1.59c-.37.61-.62,1.22-1.11,2S86.82,26,86.2,26.81V26a7.1,7.1,0,0,1,.62-1.47c.12-.12.12-.12.12-.25h.12v-.12h0c-.12-.12-.12-.12-.12,0a.12.12,0,0,0-.12.12,21.36,21.36,0,0,0-2.33,2.33c-.13.13-.13.25-.25.25s0,0-.12,0h0c-.12,0-.12,0-.12.12,0-.12-.13,0-.13,0l-.12.12a13.62,13.62,0,0,0-3.56,5.15,7.17,7.17,0,0,0-.73,3.19l-.12-.12a8.58,8.58,0,0,1,0-2.58v-.24a1,1,0,0,0,.12-.49.12.12,0,0,0,.12-.12c.12-.13.12-.13.12-.25.49-.86.86-1.84,1.35-2.7a23.35,23.35,0,0,0,1.47-2.45,9.69,9.69,0,0,1,2-1.84,12.25,12.25,0,0,1,1.83-1.1c.13,0,.13-.12.13-.25A2.86,2.86,0,0,1,86,22.4a2.66,2.66,0,0,1,.12-.74A9.48,9.48,0,0,0,85,19.45a7.17,7.17,0,0,0-1.72-2.2,6.57,6.57,0,0,0-8-1.48,10.16,10.16,0,0,0-3.07,2.46l-.12.12a.64.64,0,0,1-.24.49l-.13.12v.49a.12.12,0,0,0-.12.12l-.12.13v.12h0a.12.12,0,0,0,.12-.12c.12,0,.12,0,.12-.13.13.13.13,0,.13,0l.12-.12.12-.12c.12-.25.12-.37.25-.49l.12-.12a15.11,15.11,0,0,1,2.7-2.21A5.84,5.84,0,0,1,82.77,18v.12c-.12.13-.12,0-.25,0a1.75,1.75,0,0,0-.73-.24,3.9,3.9,0,0,0-1.6-.49,6.08,6.08,0,0,0-1.47-.12c-.24,0-.49.12-.73,0a.42.42,0,0,0-.25.12c-.12.24-.49.24-.61.24-.61.13-1,.13-1.47.25a4.66,4.66,0,0,0,.86-.74c.12-.12.24-.12.24-.24,0,.12.12,0,.12,0h0a.12.12,0,0,1-.12.12,7,7,0,0,0-2,1.47,2.43,2.43,0,0,1-.74.49c.13-.37.62-.49.62-1a4.74,4.74,0,0,0-1.11,1.47c0-.24.13-.37.13-.49s.24-.12.12-.24h0c0,.12-.12.12-.12.24a11.58,11.58,0,0,0-1,1.72l-.13.12-.12.12a10,10,0,0,0-1.1,1.35c0,.13-.13.13-.13,0a4.76,4.76,0,0,1,.13-1.35,1,1,0,0,0-.49,1c-.13.25,0,.62,0,.86a.86.86,0,0,1-.13-.49v-.49c-.12.12-.12.12-.12.25-.12.61,0,1.1-.12,1.71a4.38,4.38,0,0,0-.86,1.72,5.3,5.3,0,0,0-.49,3.31c0,.12.12.49.12.61v.25h0a2.65,2.65,0,0,1-.49-2A20.76,20.76,0,0,1,69,23.74a6.76,6.76,0,0,0,0,6.13c0,.13.12.13,0,.25a4.19,4.19,0,0,1-.86-1.84.94.94,0,0,1-.12-.49V26.44a18.43,18.43,0,0,1,1.1-5.15,20.85,20.85,0,0,1,1.47-2c-.37,0-.61.37-1.1.49a12.3,12.3,0,0,1,2.69-2.33c-.61,0-1,.37-1.59.49a5.67,5.67,0,0,1,2.82-1.47c-.61-.37-1.1-.25-1.59-.49A3.39,3.39,0,0,0,73.08,15.77Zm-2.2,4.17h0v.13c-.13-.13-.13,0,0,0-.25.12-.25.12-.13.24h-.12v.25h0v-.25h.12c0-.12,0-.12.13-.24h0Zm25,6a44.4,44.4,0,0,1-1.1-4.41c0-.25-.13-.37-.13-.49a53.89,53.89,0,0,0,1.35,6h.12c-.12-.24-.12-.73-.24-1s.12,0,.12-.12a.18.18,0,0,0,0,.25h0C95.77,26.07,95.77,26,95.89,26Zm2.21-5.64h0c0,.25-.13.37.12.25-.12.12,0,.12,0,.24A17.84,17.84,0,0,1,99,23.13a.12.12,0,0,1,.13.12c.24-.73.24-.85-.25-1.71a2.63,2.63,0,0,0-.61-1c0-.13-.12-.13-.12-.25Zm-5.89,8v-.12h0c0-.37-.12-.49,0-.49.12-.37-.12-.74,0-1,.12,0,.12.24.25.24v.12h0a9.13,9.13,0,0,1-.62-3.18V20.68a22.48,22.48,0,0,0-.24,2.7,7.46,7.46,0,0,0,.24,4c.12,0,.12.12.12.25s.13.37.25.49ZM77.74,14.55c0-.12-.12-.12-.24-.12h0C77.62,14.43,77.74,14.67,77.74,14.55Zm-1.1-4.29a1.3,1.3,0,0,0-.61.24h0C76.27,10.5,76.39,10.38,76.64,10.26Zm4,5c-.24-.12-.36-.24-.49-.24-.24-.25-.61-.61-.61-1-.24-.25-.37-.13-.49,0s0,.24.12.24a3.46,3.46,0,0,0,1,.74C80.32,15.16,80.32,15.28,80.68,15.28Zm15.94,9.81h0c.25-.12-.12-.49-.12-.73h0c.12.12.25,0,.12-.13-.49-1-.85-2.2-1.34-3.31a23.89,23.89,0,0,0,1.34,4.17Zm2.82-1.84ZM74.55,17.49c.13-.12,0-.12,0-.12v.12Zm5.89-8ZM92.7,11.36Z"/><path class="cls-1" d="M103,43.48h-.61c-.25,0-.37-.12-.49,0h0c-1.72.25-3.44.37-5.15.49a.17.17,0,0,1-.25,0c1.72,0,3.56.13,5.27.13-.24.49-.85.49-1.1.73h-.12a24.21,24.21,0,0,1-2.82,1,8.7,8.7,0,0,0-2.58.62c-.24,0-.36.12-.49.12a1.56,1.56,0,0,1-.73.12,6.41,6.41,0,0,0,.24-.61c.25-.25.25-.61.25-1.1A.86.86,0,0,1,95,44.1l.25-.25.12-.12h0a8.22,8.22,0,0,0,1.71-2.33,2,2,0,0,0,.62-1.1,8.91,8.91,0,0,1,.73-1.11h0v.13a2.75,2.75,0,0,0-.12,1.1A15.57,15.57,0,0,1,99.69,38a.12.12,0,0,1,.12-.13h0a2.75,2.75,0,0,1-.37,2,2.59,2.59,0,0,0,.74-2.21c.12-.49.12-.86.25-1.35s.24-.86.49-1.1c.36.24.36.73.49,1,.12-.74.49-1.23.61-1.84a4.16,4.16,0,0,1,.61-1,9.34,9.34,0,0,1,.49,1.47c0,.12,0,.24.13.24a1.46,1.46,0,0,1-.13-.73,22.84,22.84,0,0,0-.61-3.07c.12-.12,0-.12,0-.24a2.82,2.82,0,0,1,.12-1.72,6,6,0,0,1,1,1.47c.25-.61-.12-1-.24-1.59.37-.25.49.12.61,0a.12.12,0,0,0-.12-.12,11.84,11.84,0,0,0-1.11-1.6,7.3,7.3,0,0,1-.73-2c.37.12.86.25,1,.74a1.09,1.09,0,0,0,.74.73c-.62-.49-.62-1.35-1.35-2,.61.12.86.61,1.47.61-.12-.36-.49-.36-.74-.61a3.85,3.85,0,0,1-1.1-1.84c-.12-.12,0-.49-.25-.73a4.14,4.14,0,0,1-.49-1,9.43,9.43,0,0,0-1-2.33,13.58,13.58,0,0,0-1.47-2.45c0-.37,0-.49.25-.49h.12a1.61,1.61,0,0,0,1.35-1.1h0v-.25A2.39,2.39,0,0,0,100.3,13a2.56,2.56,0,0,1-.61-1.59,1,1,0,0,1,.86-.49h1.59a3.91,3.91,0,0,0-4.41-.12h0c-.12.12-.49.12-.62.24s-.12.12-.24,0,.12-.12.12-.24h0a.12.12,0,0,1,.12-.13h0c.13,0,.25,0,.25-.12h0c.37,0,.37,0,.49-.12h0s.12,0,.12-.25h0a7.61,7.61,0,0,1,2.21-.61c.12,0,.12,0,.12-.12s.13,0,.13,0h.12c-.25-.12-.37-.12-.49-.25a3.21,3.21,0,0,1,2.08.62c.37.61.37.85.12,1.1.62.49,1,.74,1.72,1.23s1.23,1.1,2,1.71c.13.25.37.49.13.74h-.86a16.17,16.17,0,0,0-4-3.07,1.23,1.23,0,0,0-1-.12c-.49.12-.61.25-.49.74a3,3,0,0,1,.49,1.1,3.47,3.47,0,0,1,.25,2A2.16,2.16,0,0,1,99,16.88c-.24,0-.24.37-.12.49.37.49.61,1.22,1.1,1.84.13.49.5.86.62,1.35,0,.12.12.24.24.12a2,2,0,0,1,1.11-.61c.24-.13.49-.13.73-.25,0,.12-.24.12-.24.25-.25.12-.49.49-1,.73a.47.47,0,0,0-.13.74c0,.12,0,.24.25.12.61-.25,1.1-.49,1.72-.74.12,0,.12.13.12.13a5.91,5.91,0,0,0-1.72,1c-.12,0-.12,0-.12.12h.37c0,.25-.37.25-.25.49a8.31,8.31,0,0,1,.49,1.1c0,.13.12.13.12.25s.37.24.62.12h0c.61,0,1-.24,1.47-.24-.25.12-.74.49-1,.61s-.37.12-.49.12-.13.12,0,.25c.37.12.37.49.61.61s.12,0,.25.25.12.36,0,.49A1.81,1.81,0,0,1,103,26c.37,1.1.25,1,1,.86a2.72,2.72,0,0,0,1-.12c.61,0,1-.13,1.47-.13-.12.37-.61.37-.73.49a10.08,10.08,0,0,0-2.33,1.11c0,.12-.25.12-.12.24s.12.13.24.13c.86-.13,1.59-.49,2.45-.62-.61.25-1.1.62-1.71.86a14.88,14.88,0,0,0,2.45-.61c.24,0,.37,0,.49-.12s.61-.13.86-.13h0a17.55,17.55,0,0,1-3.44,1.84v.12a4.77,4.77,0,0,1,1.84-.61c-.49.25-.73.74-1.1.86,0,0,.12-.25,0-.12s-.61.49-.86.61c.37,0,.74-.49,1-.49,0,.24,0,.12.12.12,1-.24,1.84-.73,2.7-1s1.6-.61,2.33-.86c.12,0,.49-.12.61-.12.25-.24.13-.49.13-.74v-1h.86v.25h0s-.13.12,0,.12h0c-.13.12-.13.12,0,.25v2c0,.49-.13.86-.13,1.35s-.12,1.1-.24,1.71a13.14,13.14,0,0,1-1,2.82c-.13.49-.49.86-.62,1.35a7.45,7.45,0,0,1-.73,1.35c-.12.25-.49.61-.61.86a1,1,0,0,1-.62.24c-1.47.25-2.82.37-4.29.5a.12.12,0,0,0-.12.12h4.29a2.4,2.4,0,0,0-.49.73c-.61.49-1.1,1.23-1.72,1.84s-1.47,1.23-2.33,1.84h0C103.37,43.85,103.37,43.85,103,43.48Zm2.7-10.79h0c-.25,0-.25.13-.37.13a2.18,2.18,0,0,1-1.47.49,8.61,8.61,0,0,0,1.84-.25h.12a.18.18,0,0,0,.25,0,8.39,8.39,0,0,0,1.71-.24h.12a.9.9,0,0,1,.49-.13,13.26,13.26,0,0,0,2.21-.49c.25,0,.25-.12.25-.24a9.35,9.35,0,0,0,.49-3.19c-.74.25-1.47.74-2.21,1H109c-.12,0-.25,0-.25.12a4.67,4.67,0,0,0-1.1.25h0a9.24,9.24,0,0,0,1.35-.25c.37-.12.73-.12,1-.24h.12a2.6,2.6,0,0,1-.73.49c-.62.24-1,.49-1.6.74a6.19,6.19,0,0,0-1.35.61h0c-.24,0-.36,0-.49.24h0a18.17,18.17,0,0,0-2.2.86h.12a13.07,13.07,0,0,1,3.19-.61h0v.12a12.14,12.14,0,0,0-1.35.61ZM108,37.6a.54.54,0,0,0,.49-.49c-.62.24-1.23.61-2,.86h0C107.17,37.84,107.54,37.72,108,37.6Zm1.35-4.29h1.1c.24,0,.24-.37.24-.49v-.13c0-.24.13-.36,0-.49s-.36,0-.49,0a34.27,34.27,0,0,0-4.9,1.84c1.1-.12,2.21-.49,3.31-.61a1.6,1.6,0,0,0,.74-.12Zm-5,2.45h0a9.69,9.69,0,0,1,2.57-.61,12.37,12.37,0,0,1,2.7-.62.71.71,0,0,0,.74-.49,1.56,1.56,0,0,1,.12-.73A33.37,33.37,0,0,0,104.35,35.76Zm.24,1c1.6-.24,3.19-.61,4.79-.86.12,0,.24,0,.24-.12a1.71,1.71,0,0,1,.25-.86C108,35.51,106.19,36.13,104.59,36.74Zm1.84.49h0a17.84,17.84,0,0,1,2.46-.49c.12-.12.12-.37.24-.61A12.27,12.27,0,0,0,106.43,37.23Zm-2.33-8.46h0c0,.25.13,0,0,0ZM104,36.86Z"/><path class="cls-1" d="M87.67,6V5.35a8.35,8.35,0,0,0,1.72.12A6.57,6.57,0,0,1,91,5.6a15.62,15.62,0,0,1-2-2.7V2.78c0-.25-.12-.62,0-.86.25,0,.37.24.49.24a22.61,22.61,0,0,1,2.7,1,2.06,2.06,0,0,1,1.35,1.1c0,.12.12.49.12.61s.12.49.37.12a.92.92,0,0,0,.12-.49,5.58,5.58,0,0,0-.12-2c0-.24.12-.37,0-.49V1.8c.12-.25,0-.62.24-.86a6.07,6.07,0,0,0,1.35,1.71l.49.5c.25.49.74.85.86,1.47a1.17,1.17,0,0,0,.25-.86,6.64,6.64,0,0,0,.12-1.6,9.18,9.18,0,0,1,1.47,2.58v.73c.37-.12.74-.61,1-.85v.12a2.16,2.16,0,0,0,1,1.84A1.51,1.51,0,0,1,101,8.05a1,1,0,0,1-.86,1H98.83c.25-.37.74-.37,1-.61s.12-.13.12-.25a1.32,1.32,0,0,1-.73.25,1.79,1.79,0,0,0,.24-.74.8.8,0,0,1-.85.49c.12-.24.24-.49.36-.49s.13,0,0-.12l-.12.12A1.06,1.06,0,0,1,98,7.8c0-.36.25-.36.25-.49s-.61,0-.61-.24.24,0,.24-.12A2.12,2.12,0,0,0,97,6.7a1.18,1.18,0,0,1,.74,1.1c0,.13.12.25,0,.25a.46.46,0,0,1-.25-.12c-.12-.37-.37-.74-.49-.74s.12.12,0,.25a2.49,2.49,0,0,0-1.84-.74c.25.25.62.49.86.74-.61.12-1,.12-1.47.24-.25.12-.49-.12-.74-.12s-.36,0-.49.12a3.31,3.31,0,0,1-1.47,1.11h-.12A3.1,3.1,0,0,1,89,7.31a7,7,0,0,1-.49-1.47C88.53,5.72,88.53,5.6,87.67,6Z"/><path class="cls-1" d="M70.75,38a5.14,5.14,0,0,0-.12-1.35,5.14,5.14,0,0,1-.12-1.35V33.68a2.12,2.12,0,0,1-.25.85c0-.36.13-.61.13-1.1a5.35,5.35,0,0,0,.61-2c-.12.12-.37.61-.61.73a12,12,0,0,1,1-3.18c.12,0,.12-.13.12-.13s.12-.12.12-.24v-.12h0v.12c-.24-.12-.24,0-.24.12a.12.12,0,0,0-.13.12c-.24.25-.49.62-.73.86a6.56,6.56,0,0,1,1-2.57c.24-.25.49-.62.73-.86-.36,0-.61.37-1.1.49a.12.12,0,0,1-.12-.12c.37-.25.61-.74,1.1-1h0c.25-.25.62-.49.86-.74l.12-.12c.13,0,.13,0,.13-.13s.12-.12.12-.24h0l-.12.12-.13.12H73a1.26,1.26,0,0,1-1,.5c0-.37.37-.37.49-.5a1.32,1.32,0,0,0,.25-.61,23.55,23.55,0,0,1,1.1-2.7c.49-.85,1-1.59,1.47-2.45a2.19,2.19,0,0,1,1.35-.86c-.12.25-.49.62-.61.86a7.93,7.93,0,0,1,3.31-1h.36c.25,0,.74.12,1,.12h.25c-.12.13-.12.13-.25.13a7.69,7.69,0,0,1-1.47.49h-.12a8.85,8.85,0,0,1-1,.49v.12c.25-.12.74-.12,1-.25h.12v.13h0a5.73,5.73,0,0,0-1.71,1.35l-.49.49a10.39,10.39,0,0,0-2.58,1.71h0a13.62,13.62,0,0,1,1.6-2.2l.12-.13a.66.66,0,0,1,.24-.49c-.24.13-.36.13-.49.25l-.12.12c-.49.12-.86.61-1.35.74l-.12.12a13.65,13.65,0,0,0-1.47,3.06h0c.37,0,.49-.36.61-.49a13.86,13.86,0,0,1,3.31-2.57,18.19,18.19,0,0,1,3.07-1.1c.24,0,.61-.13.85-.13h1.23a11,11,0,0,1,1.72.74A7.86,7.86,0,0,1,85.1,22c0,.37,0,.37-.25.24a9,9,0,0,0-1.1-.86c-.25-.12-.37-.24-.49-.24a3.53,3.53,0,0,0-2.7-.49c-4.29.86-7.6,3.31-9.07,7.6A19.19,19.19,0,0,0,75.29,47l.86.86a2.92,2.92,0,0,0,.61.61l.12.12v-.12a.91.91,0,0,1,.62.74,6.93,6.93,0,0,1-1.84-1.47c-.74-.86-1.23-1.6-1.84-2.33a28.11,28.11,0,0,1-2.7-4.91,24.37,24.37,0,0,1-.73-2.82C70.39,37.6,70.39,37.6,70.75,38Zm3.44-17.29h0a8.38,8.38,0,0,1,3.43-2.09,19,19,0,0,0-2.45.74c-.13,0-.13.12-.25.24a4.43,4.43,0,0,0-.73,1.11Z"/><path class="cls-1" d="M77,19.08c0,.13.12.13,0,0Z"/><path class="cls-1" d="M109.87,20.92a18.17,18.17,0,0,0-.86-2.2h.73c.25.61.49,1,.74,1.59.37,1.1.73,2.21,1,3.31.12.61.12,1.1.25,1.72V26a.12.12,0,0,1-.13.12c-.37.13-.61,0-.61-.49v-.49"/><path class="cls-1" d="M91,47.65a6.08,6.08,0,0,0-1.47-.12c-.24,0-.37,0-.24-.25a5.07,5.07,0,0,0,.12-1.34c0-.25.12-.49.12-.74.25-.12.25-.49.49-.61,0-.13.13-.13.13,0A2.59,2.59,0,0,0,91.6,47c.24.12.37.12.49.24s0,.13,0,.13A2.07,2.07,0,0,0,91,47.65Z"/><path class="cls-1" d="M106.19,15a1.26,1.26,0,0,1,1.47.61c.12.25.12.37.24.49A15.78,15.78,0,0,1,109,18h-.25c-.37,0-.49-.24-.61-.49"/><path class="cls-1" d="M82.28,45.2h0c.24-.12.49,0,.73,0a3.15,3.15,0,0,0,1.11.12c.61,0,.61,0,.61.74,0,.12-.12.24-.24.12a1,1,0,0,0-.49-.12A7.9,7.9,0,0,0,82.28,45.2Z"/><path class="cls-1" d="M87.31,44h0v-.12c0-.12.12-.49.12-.61a1.62,1.62,0,0,1,.86-1c.12,0,.12-.12.24,0a3.25,3.25,0,0,0-.86,1.35C87.31,43.73,87.55,44,87.31,44Z"/><path class="cls-1" d="M99.69,9.4a2.18,2.18,0,0,1-1-.25C99,9.15,99.44,9,99.69,9.4Z"/><path class="cls-1" d="M96.13,7.31h0c.13-.12,0-.12,0,0Z"/><path class="cls-1" d="M79.34,39c.12.12.12.49.24.73A4.94,4.94,0,0,0,79.83,41c0,.37,0,.49.12.61,0,.37,0,.5.12.62s0,.37.12.49a15.83,15.83,0,0,1,1.48-1.47v.36a2.38,2.38,0,0,0,1.1,1.72c.12-.24-.12-.37.12-.49.37.12.49.49.61.74s.13.36,0,.49.13.24.25.24.37-.12.49,0h0c.12.25.25.37.25.49.24.49.24.49-.25.49a5.33,5.33,0,0,1-1.35-.24A.94.94,0,0,0,82.4,45a5.3,5.3,0,0,0-1.47-.5,3.5,3.5,0,0,1-1.72-1,12.44,12.44,0,0,0,.62,2c0,.24.12.36.12.49a.17.17,0,0,1,0,.24c-.25.12-.37.12-.49,0l-.74-.73L78.23,45c-.49-.74-1-1.6-1.47-2.33s-.86-1.6-1.35-2.46a29.76,29.76,0,0,1-1.47-2.69h-.12A8.69,8.69,0,0,0,74.43,41a5.32,5.32,0,0,0,.86,2.33h0c.12.61.49,1,.61,1.47h0c-.12,0-.12-.24-.24-.24h0c.12-.13,0-.13,0-.25a16.3,16.3,0,0,1-1-2.2,10.65,10.65,0,0,1-.86-4.3,2.66,2.66,0,0,1,.24-1.34,7.76,7.76,0,0,1,.49,1.1,2.24,2.24,0,0,1,.13-1,3.64,3.64,0,0,1,.49,2,4.59,4.59,0,0,0,.24,1.1c.86,1.47,1.72,3.07,2.7,4.54a6.77,6.77,0,0,0,1.47,1.72h.12v-.25a13.91,13.91,0,0,1-1.34-4.54,8.94,8.94,0,0,1,0-3.18c.36.12.36.61.49.73S79.09,39,79.34,39Z"/><path class="cls-1" d="M76.52,48.14c-.37,0-.49-.36-.62-.49a19.54,19.54,0,0,1-2.57-5c.49.73.86,1.59,1.35,2.45a23.4,23.4,0,0,0,1.47,2.2C76.27,47.65,76.64,47.78,76.52,48.14Z"/><path class="cls-1" d="M76.76,48.14c.12,0,.12,0,.12.13h-.12Z"/><path class="cls-1" d="M90.49,36.37h0a9.73,9.73,0,0,1-2.2,1.23c.24.37.73.49,1.59.49a6.84,6.84,0,0,1-3.31,1.84c.74.61,2.45.12,3.43-.74h0c0,.37-.36.62-.49,1.11a4.36,4.36,0,0,0,2-.74,1.27,1.27,0,0,1,.62-.49,3.36,3.36,0,0,1,0,1.1,4.18,4.18,0,0,0,1.47-1.1c0,.49-.12.86-.12,1.35a3,3,0,0,0,1-1.1c.12.24,0,.36,0,.49v.12h0l.49-.49a.26.26,0,0,0,.24-.25h0c-.12.25-.12.37-.24.49l-.86.86c-.12,0-.12,0-.12-.12a.12.12,0,0,0,.12-.12h0v.12c-.25.24-.61.49-.86.73h0c0-.12.25-.49.12-.73-.36.12-.49.49-.61.61h0v-.24h-.12c-.25.12-.37.12-.49.24a.46.46,0,0,0-.37.12c-.12-.36.12-.49,0-.61s-.12,0-.12.12a.12.12,0,0,1-.13-.12c0-.24.13-.37.13-.49-.25.12-.37.12-.49.25a13.23,13.23,0,0,1-2.33.73,3,3,0,0,1,.61-1.1v-.25h0c0,.13-.12.13,0,.25,0-.12-.12,0-.12,0l-.74.73a3.93,3.93,0,0,1-.73.62c-.25.12-.37.12-.49.24-.62.12-1,.49-1.6.62h-.37c-.12-.13-.24,0-.12-.13s.49-.12.61-.24a8.7,8.7,0,0,1-1-.86c.13-.12.13,0,.25,0a4.25,4.25,0,0,0,1.72.24c-.25-.12-.37-.12-.5-.24a.64.64,0,0,1-.49-.25.63.63,0,0,1-.49-.61c0-.24.49-.12.62-.24h.12c.37-.13.37-.13.24-.62v-.12a2.58,2.58,0,0,0,1.35,0c0,.12.13.12.25,0h0a.37.37,0,0,0,.24-.12h0a.13.13,0,0,0,.13-.13c0-.12-.13-.12-.13-.12a2.42,2.42,0,0,1-1.1-1.1,7,7,0,0,0,1.59,0,2.42,2.42,0,0,0,1.48-.74,2.48,2.48,0,0,1-1.84-.49,3.8,3.8,0,0,0,2.2-1.1c0-.12.13-.12.13-.12V35h0c-.13-.12-.25-.12-.25,0a4.16,4.16,0,0,1-1.35.25c.37-.37.74-.61,1-.86h0l.13-.12.49-.49c0,.24-.37.49-.49,1A6.88,6.88,0,0,0,91.47,34a6.58,6.58,0,0,1-.85,1,13.19,13.19,0,0,1-1.48.86,2.37,2.37,0,0,0,1.6,0c0,.12-.12.12-.12.25s-.13.12-.13.24Z"/><path class="cls-1" d="M93,42.26h0a1.31,1.31,0,0,0,1-.25,3.73,3.73,0,0,0,1.59-1,.83.83,0,0,1,.61-.49v.12a8.67,8.67,0,0,1-2,1.72,1.77,1.77,0,0,1-.73.25A20.35,20.35,0,0,0,89.88,44c-.24,0-.37.13-.49,0a4.65,4.65,0,0,1,1.47-.85c.25-.25.61-.25.86-.49-.25-.13-.61-.13-.86-.25h0a5.14,5.14,0,0,1,1.35-.12C92.46,42.26,92.7,42.5,93,42.26Z"/><path class="cls-1" d="M80.19,40.3c0-.13.13-.13.13-.25l2.2-2.57c.13-.13.25-.13.13-.25h0l-.13.12a9.49,9.49,0,0,0-2.33,2.58c0,.12-.12.12-.12.24s-.12.25-.24.13a12.63,12.63,0,0,0-.25-2,12.64,12.64,0,0,1,1.1-1.59v-.12h0c0,.12-.12.12,0,.24-.12,0-.12.13-.24.25-.37.24-.61.73-.86,1h0v-2a11.77,11.77,0,0,1,1-3.56c.25,0,.12.12.12.25a2.93,2.93,0,0,0-.24,1.1c.37-.12.37-.49.49-.61a5,5,0,0,1-.25,1.47V35h0V34.9c.13-.12.13-.12.13-.24a1.66,1.66,0,0,0,.61-1.11v.25c0,.12-.12.49-.12.61s.12-.12.24-.24.13-.37.25-.25,0,.37,0,.49a5.34,5.34,0,0,1-.74,1.47c0,.25-.12.37-.12.49a10,10,0,0,0,1.47-1.71c0,.24-.12.49-.12.73-.12-.12-.12,0-.12,0h0c.12.12.12,0,.12,0a2.13,2.13,0,0,0,.73-.73c.25.24,0,.36,0,.49a4.17,4.17,0,0,0-.73,1.1,2.05,2.05,0,0,0,1.1-1,.12.12,0,0,1,.12-.12v.12c-.12.12-.12.49-.24.61l-.25.25c.13,0,.13,0,.25-.13.37-.12.61-.49.86-.73s.12-.25.24-.25c0,.37-.24.62-.73,1.11,0,.24-.25.24-.25.49h0a5.2,5.2,0,0,0,2-1.72,3.82,3.82,0,0,1-1,1.6l-.12.12.12-.12c.49-.5,1.23-1,2-1.6a.74.74,0,0,1-.12.49L85.1,36.5s-.25.12-.12.24h0c.12-.37.61-.49.85-.61a3.21,3.21,0,0,0,1.35-1c.37-.62,1.11-1,1.72-1.6.12-.24.12-.37.24-.49A4,4,0,0,0,90,32c-.12.73-.61,1.1-.73,1.59-.13.25-.13.37-.25.49-.49.62-.86,1-1.35,1.6h0l-.12.12a29.39,29.39,0,0,1-3.92,2.82.63.63,0,0,0-.49.24,25.4,25.4,0,0,0-2,1.72l-.86.86c0-.25-.13-.49-.13-.74Q80.38,40.66,80.19,40.3ZM82,36.74a6.6,6.6,0,0,0-1.71,2.33c-.13.12-.13.12-.13.25s.13,0,.13-.13c.61-.86,1.1-1.59,1.71-2.33v-.12Z"/><path class="cls-1" d="M95.64,35.51c.62-.24.86-.61.74-.73.12,0,.12.12.12.24.25.25,0,.74.49.86.12,0,.12.49.12.62s.13.49.13.73a4.17,4.17,0,0,0,.73-1.1c.13,0,0,.12.13.24a4.34,4.34,0,0,0,.12,1.11,15.08,15.08,0,0,0,1.35-2.82c.12.24.12.61.24.85a8.2,8.2,0,0,0,.12-1.71c.37,0,.37.24.5.24a2.56,2.56,0,0,1,.73,1.11.63.63,0,0,0-.24-.49c-.13.12,0,.24-.13.24s-.12-.24-.24-.24a4.14,4.14,0,0,1-.12,1.71l-.13.13c-.12,0-.12-.13-.12-.13,0-.24-.12-.49-.12-.73,0,.86-.74,1.22-1.72,1.71a.63.63,0,0,1-.24.49A1.94,1.94,0,0,0,98,37c0,.24,0,.36-.12.49,0-.25.12-.62,0-.86-.24.37-.61.61-.74,1.1l-.12.12c0-.24.12-.36,0-.49v-.73a.18.18,0,0,0,0-.25c-.12,0-.12.25-.24.25,0-.25.12-.49.12-.74-.25.25-.25.37-.49.49a1.66,1.66,0,0,0,.12-1.1,2.27,2.27,0,0,1-.86.24C95.77,35.51,95.77,35.39,95.64,35.51Z"/><path class="cls-1" d="M99.57,30.49c.12.61.12.61.61.61.74.12,1,.74,1,1.59a1.75,1.75,0,0,0-.24-.73l-.13-.12c-.12.24-.12.12-.12,0-.24-.25-.37-.25-.49,0-.25-.37-.25-.37-.49-.13-.12,0-.12.13-.25.13A4.76,4.76,0,0,0,99.57,30.49Z"/><path class="cls-1" d="M75.78,26.07a4.52,4.52,0,0,1,1-2.2v-.25h0v.12c-.12,0-.12.13-.12.13s-.12.12-.25.24c-.36.49-.61,1.11-1.1,1.84a1.84,1.84,0,0,0-.61.86A12.73,12.73,0,0,1,75.17,25c0-.12.12-.12.12-.25V24.6h0v.12c-.25,0-.12.13-.25.25-.49,1-.85,2-1.34,2.82-.13-.49.12-.86.12-1.35-.37,1.1-.74,2.09-1,3.07v-.86c0-.61.12-1,.12-1.47v-.13h0v.13a2.27,2.27,0,0,0-.24.86,14.75,14.75,0,0,0-.5,3.06,9.27,9.27,0,0,1-.12-2.57,15.92,15.92,0,0,0,0,5.88v.25c-.12-.25-.24-.37-.24-.49a8.74,8.74,0,0,1-.49-1.72,6.08,6.08,0,0,0,.12,1.47A19.52,19.52,0,0,0,72,36.5V37a1.67,1.67,0,0,0-.25-.74,19.79,19.79,0,0,1-.85-2.45,7.87,7.87,0,0,0,.61,2.45c.24,1,.61,2.21.86,3.19-.13.12,0,.24-.13.24,0-.49-.36-.86-.49-1.35a3.91,3.91,0,0,1-.49-1,5.35,5.35,0,0,0,.25,1.35c.37,1.11.73,2.33,1,3.44a.92.92,0,0,1,.12.49,11.09,11.09,0,0,1-1.47-3.19,19,19,0,0,1-.61-8.22,15.88,15.88,0,0,1,2.45-6c.37-.37.61-.86,1.1-1.11,0,.25-.12.49-.12.74a4.55,4.55,0,0,1,2.33-2.45,1.81,1.81,0,0,0,.74-.25,17.69,17.69,0,0,1,3.43-1h0A7.81,7.81,0,0,0,78.6,22h-.12V21.9c.24.13.37,0,.49,0a5.4,5.4,0,0,1,2.33-.49c0,.13-.25,0-.25.13a6.29,6.29,0,0,0-2.45,1.1A5.75,5.75,0,0,0,75.78,26.07Zm2.58-4.29Z"/><path class="cls-1" d="M74.55,33.06A9.34,9.34,0,0,0,75,31.59a15.3,15.3,0,0,1,1.72-3.43,8.35,8.35,0,0,1,1.35-1.6c.25-.12.37-.12.49-.24s.12-.12.12,0h0a.12.12,0,0,0-.12.12h0v.12c-.12,0-.12,0-.12.13A17.75,17.75,0,0,0,76,33.43v.12c-.13,0,0-.12-.13-.12A2,2,0,0,0,76,34.9c.24-1,.61-2.21.85-3.19a12.48,12.48,0,0,0,.13,2c.36-.25.36-.62.49-.86.12.12.12.49.12.61a22.85,22.85,0,0,1-.25,3.07,18.47,18.47,0,0,0,.49,5.76,10.66,10.66,0,0,1-1.34-3.93,6.53,6.53,0,0,0-.13-2.2V36h.13v.13a4.85,4.85,0,0,0-.13,2v1.59c-.12-.24-.24-.36-.24-.49a8.16,8.16,0,0,1-.25-3.43,12.55,12.55,0,0,0,0-2.21,7.65,7.65,0,0,0-.49,2.21,1.75,1.75,0,0,1-.49-.49C74.55,34.53,74.92,33.68,74.55,33.06Z"/><path class="cls-1" d="M84.73,22.27c-2.08.25-3.43.49-4.54,1.35a.12.12,0,0,1-.12.12.12.12,0,0,1-.12.13l-.12.12a7.89,7.89,0,0,0-2.21,1.84,4.17,4.17,0,0,0-1.35,1.59A16.31,16.31,0,0,0,74.55,31a10.76,10.76,0,0,0-.85,2.57,2.58,2.58,0,0,0-.13,1,.12.12,0,0,1-.12-.12v-1a11.7,11.7,0,0,1,2.33-6.62l.12-.12s.13-.13,0-.13c.13-.12.13,0,.13-.12a.12.12,0,0,1,.12-.12h0a.12.12,0,0,1-.12.12l-.13.12v.13l-.12.12-.24.24a11.5,11.5,0,0,0-3.19,6c0,.12,0,.25-.13.25v-.86a8.76,8.76,0,0,1,3.07-6A23.51,23.51,0,0,1,77.5,25c.12-.12.24-.12.24-.25s.25,0,.25-.12h.24v-.12c.13-.12.13,0,.13,0h-.25s-.25,0-.25.12c-.24,0-.36,0-.49.12s-.49.25-.73.25h0c.24-.12.37-.12.49-.25a13.84,13.84,0,0,1,2-1.34A9.32,9.32,0,0,1,82.77,22,4.88,4.88,0,0,1,84.73,22.27Zm-7.6,2.95h0c-.49.12-.86.61-1.1.73l-.25.25-.12.12c-.12.12-.12.12-.12.24h0l.12-.12.12-.12a10.87,10.87,0,0,0,1.35-1.1Z"/><path class="cls-1" d="M83.5,24.11h-.12a9.57,9.57,0,0,0-2,1.35l-.49.49-.49.49a2.86,2.86,0,0,0-1,1.1,7,7,0,0,0-1,1.6,2,2,0,0,0-.62,1.1c-.24.25-.24.74-.49,1a11.18,11.18,0,0,1,2-4.9c.24-.12.36-.12.49-.25A.12.12,0,0,1,80,26h0l-.12.12c-.37,0-.37.13-.49.25s-.37.24-.62.24v-.12h0a.12.12,0,0,0,.13-.12h0c.61-.49,1.1-1,1.71-1.47h.12a.13.13,0,0,1,.13-.13c.24-.12.37-.12.49-.24-.25,0-.37,0-.49.12h-.25c-.24,0-.49.25-.73.12h0a3,3,0,0,0,.61-.49,16.2,16.2,0,0,1,2-1c-.24.13-.61.13-.86.25a4.8,4.8,0,0,1,4.17-.74,8.07,8.07,0,0,0-4.53,2.33.13.13,0,0,0-.13.13h.13a15.33,15.33,0,0,1,2.45-1.48,3.06,3.06,0,0,1,1.47-.49h0c-.49.25-.86.49-1.35.74a.12.12,0,0,1-.12.12Z"/><path class="cls-1" d="M78.48,32.82h0c-.12.49-.49.61-.62.86a1,1,0,0,1,0-.62,24.64,24.64,0,0,1,.74-2.7A15.84,15.84,0,0,1,80.19,28c.13,0,.13-.13.25-.25a.12.12,0,0,0,.12-.12c.37-.25.37-.37.62-.49-.25.49-.74.86-.86,1.35A14.82,14.82,0,0,0,79.21,31a8.21,8.21,0,0,0-.73,1.84Z"/><path class="cls-1" d="M73.21,37.6a21.59,21.59,0,0,0,1.71,5.27,4.93,4.93,0,0,0,1,1.72h0a.71.71,0,0,0,.25.61v.12h0c.12-.12.12-.24,0-.24v-.25h0a1.82,1.82,0,0,1,.49,1.11h0v-.13a6.15,6.15,0,0,1-.49-.73c-.12-.25-.49-.62-.61-.86-.5-.74-.86-1.59-1.35-2.45-.13-.25-.13-.49-.25-.74l-.73-2.21a7,7,0,0,1-.49-2.2c0-.12,0-.25.12-.25A9.7,9.7,0,0,0,73.21,37.6Z"/><path class="cls-1" d="M77.62,40.66c-.49-2.2-.25-5,.24-5.76,0,.61-.12,1.1-.12,1.72a2.11,2.11,0,0,0-.12.86A28,28,0,0,0,77.62,40.66Z"/><path class="cls-1" d="M74.43,35.76c-.24-.25-.12-.74-.12-1a1.68,1.68,0,0,1,.12.61Z"/><path class="cls-1" d="M100.67,23.5s.12,0,0,.12Z"/><path class="cls-1" d="M94.05,13.44c0-.12,0-.12.24.13a7.59,7.59,0,0,1,0-2.33c0,1-.12,2,.86,2.69-.36-1-.86-1.71-.61-2.69a9.54,9.54,0,0,1,1.1,2v.61c-.12.37-.36.62-.61.62a1,1,0,0,1-.74-.5c-.12-.24-.12-.36-.24-.49Z"/><path class="cls-1" d="M93.8,10c0-.37.25-.37.49-.24a.26.26,0,0,1,.25.24c.12.25.25.37.12.49s-.37.25-.61.25c-.49,0-.61-.25-.74-.74C93.8,10.13,93.8,10.13,93.8,10Z"/><path class="cls-1" d="M96,8.91c0,.12-.24.24.12.37a1,1,0,0,0,.62.12c.24,0,.24-.25.24-.49.25.24,0,.61,0,.73h0c-.12-.12-.37,0-.61,0a.63.63,0,0,1-.49-.24A.37.37,0,0,1,96,8.91Z"/><path class="cls-1" d="M96,8.91c.12-.37.25-.12.25-.12a.42.42,0,0,1,.12.24c0,.12-.12.12-.25.12s.25-.12.13-.24a.18.18,0,0,0-.25,0Z"/><path class="cls-1" d="M84.61,26.32c.12.12.12.12.24,0a10.87,10.87,0,0,0,1.35-1.1s0-.13.12,0a1.32,1.32,0,0,0-.24.73,5.65,5.65,0,0,0-.49,1.35c.49-.25.49-.74.73-.86h0c0,.25-.12.61-.12.86.37-.12.49-.49.62-.74.24.25,0,.62,0,.86a4.17,4.17,0,0,0,.73-1.1c.12.24,0,.61,0,.73s-.12.25,0,.25a.12.12,0,0,0,.12-.12,5.24,5.24,0,0,1,.74-1.72c.12.49.12.86.24,1.35.37-.25.37-.49.49-.49h0c0,.12-.12.49-.12.61v.12a.12.12,0,0,0,.12-.12,2.4,2.4,0,0,1,.25-.86v.74a5.35,5.35,0,0,0-.25,1.35c.13-.25.13-.37.25-.49a16.7,16.7,0,0,0,0,2.45c.12-.25.49-.61.61-.86h0c0,.25-.12.49-.12,1A.42.42,0,0,1,90,30c0-.13,0-.13.13-.13a4.71,4.71,0,0,1-1.35,2.7c-.37.12-.49.25-.62.12a.42.42,0,0,1-.12-.24c-.12,0-.12-.12-.12-.25v-.85c0-.25.12-.49,0-.49s-.12.12-.25.24-.12.12-.24.25a2.9,2.9,0,0,1-1.35,1,2.37,2.37,0,0,0,.24-.86c-.24-.12-.36.12-.49.12a16.6,16.6,0,0,1,1.48-3.43V28s.12-.13,0-.13a.13.13,0,0,0-.13.13v.12a14.64,14.64,0,0,1-1.35,1.59c0-.61.13-1,.13-1.59-.49,1.22-.62,2.7-2,3.55-.25,0-.37.13-.5.13,0-.25.13-.62.13-.86a9,9,0,0,1,.49-1.72h0c-.74.74-1.23,1.84-2.21,2.45,0-.61.25-1.1.25-1.71l-.62.61v-.12a17.49,17.49,0,0,1,2.21-3.56l.12-.12.13-.12h0C84.24,26.69,84.24,26.56,84.61,26.32ZM88,30.12Zm-.24.49v-.12c.12,0,.12-.13.12-.13s-.12,0-.12.13S87.67,30.73,87.8,30.61Zm-2.46-2.94Zm2.58,2.57Z"/><path class="cls-1" d="M82.28,18v.12h0C82.28,18,82.16,18,82.28,18Z"/><path class="cls-1" d="M97.11,24.85c.13.12.13.12.13.24h0a.41.41,0,0,1-.13-.24Z"/><path class="cls-1" d="M97.24,25.09c.12,0,.12.13,0,0,.12.13,0,.13,0,0Z"/><path class="cls-1" d="M85.34,23.25a.41.41,0,0,1-.24.13h0c.12-.13.12-.13.24-.13Z"/><path class="cls-1" d="M97.24,20.92v.49A.56.56,0,0,1,97.24,20.92Z"/><path class="cls-1" d="M98.22,10.75a5.89,5.89,0,0,1,1.59-.25,3.32,3.32,0,0,1,1.6.25H99.69a7.1,7.1,0,0,0-1.59.12c-.13,0-.13,0-.25-.12h.37Z"/><path class="cls-1" d="M92,26.07a1,1,0,0,1,.12.49c-.12,0,0-.12-.12-.12C92.09,26.44,92,26.2,92,26.07Z"/><path class="cls-1" d="M92,26.81c.12.24,0,.37,0,.49h0Z"/><path class="cls-1" d="M92,26.56v0Z"/><path class="cls-1" d="M92.09,27.54h0v0Z"/><path class="cls-1" d="M76.64,45.69s.12,0,.12.25c0-.13-.12-.13-.12-.25Z"/><path class="cls-1" d="M5.35,10.81a1.24,1.24,0,0,0,.54.18,1.48,1.48,0,0,0,.73.68l1.26,1.19L9,13.77,10.5,14.9a4.42,4.42,0,0,0,1.16.89,1.59,1.59,0,0,1,.62.42,1.17,1.17,0,0,1,.45.3v0l-.21.06-.06-.06h0l-.11.1v0l.39.38h.1a.5.5,0,0,0,.29-.11c.13,0,.2.08.2.23l.24.3.21.21v.06a1,1,0,0,1-.62.32,4.22,4.22,0,0,1-.81.33l0,0v.06l.11.12v.08a2.63,2.63,0,0,1-1,.39l-.73.27-.21.18v.17A6.61,6.61,0,0,1,11,20.77s.07.08.07.24a.66.66,0,0,1,.2.39c.08,0,.17.18.29.55l.11.1v.17q.11,0,.21.33a1.72,1.72,0,0,1,.34.77c.07,0,.16.12.25.36.07,0,.14.14.21.41q.13,0,.21.42a1.69,1.69,0,0,1,.37.62l-.06.06q-.11,0-.21-.33c-.09,0-.14,0-.14-.05l0-.12-.15-.22-.06,0,0,0v0c-.07,0-.11-.09-.14-.27l-.35-.53,0-.09c-.11,0-.22-.18-.31-.53,0,0-.14-.17-.27-.5l-.18-.15,0-.19s-.07-.07-.1-.2-.11-.06-.11-.18-.07-.1-.13-.29a3.27,3.27,0,0,1-.36-.62l-.06-.22c-.05,0-.08-.09-.11-.27-.05,0-.1-.06-.14-.2h0l0,0v0c0,.19,0,.29.06.29l0,0h0l0,.11q0,.12.27.42l0,.12a.8.8,0,0,0,.21.41l.07.21v.09c.09,0,.14.09.14.27a4,4,0,0,1,.52,1c.07,0,.16.16.25.4l.1.1-.07.09a2.31,2.31,0,0,1,.52.89,3.9,3.9,0,0,0,.46.5.27.27,0,0,0,.27.29l.11-.09h0c.07,0,.11.11.13.34.09,0,.16.17.21.38.08,0,.24.23.46.71l1.39,1.93v.09s-.06.05-.17.05l-.17.06V29l0,.36a1.14,1.14,0,0,0-.7.32l-.35.19v0c.3.33.45.54.45.62s-.17.16-.52.27a.6.6,0,0,1-.42.27h-.16a1.16,1.16,0,0,1-.33-.45,2.11,2.11,0,0,1-.48-.71l-.59-1.13c-.28,0-.42,0-.42-.11a6.38,6.38,0,0,1-.8-1.28l-.46-.77,0-.24a.54.54,0,0,1-.22-.44,1.53,1.53,0,0,1-.41-.74c-.11,0-.22-.2-.35-.57a.38.38,0,0,1-.12-.3c-.09,0-.21-.21-.37-.52a1.86,1.86,0,0,0-.36-.6v-.06l.09-.08a.5.5,0,0,1-.32-.3c0-.22-.09-.32-.17-.32a3.71,3.71,0,0,1-.36-1,.88.88,0,0,1-.27-.56v-.15H7.54a2.11,2.11,0,0,0-.87.41l.1.22v.05l.1,1,0,.09.17.74v.21a6.63,6.63,0,0,0,.32,1.27l.06.06v.09l-.09.36,0,0v0c0,.22-.18.4-.52.54l-.45.3H6.18l-1.33.23a.38.38,0,0,0-.24.06H3.84l-.11-.06H3.49c-.16,0-.25-.1-.25-.3l.39-.32v-.12a1.74,1.74,0,0,1-.53-.15c-.16,0-.25-.07-.25-.2l-.13-.21c-.14,0-.24-.16-.31-.48l.18-.08.16,0,0,0V23.7a.54.54,0,0,0-.09-.35V23.2l-.05-.56.05,0v0l-.05,0,.05-.3V22.1l0-.08V22l0-.08v-.06l0-.09v-.06l-.14-.3V21l-.07-.09v-.12l.07-.09v0a.54.54,0,0,1-.13-.39v-.12s-.08-.18-.11-.53l0,0h0l.16.1.18-.1.11.1,0,.14,0,0H3l.14-.05v-.15l0-.3,0-.24c-.05,0-.09,0-.11-.12l.11-.26,0-.12.09-.07v-.08l-.09-.09V18.1S3,18,3,17.75c0,0-.08-.05-.1-.15l.13,0c0-.11-.07-.17-.2-.17v0c0-.1,0-.15.07-.15,0-.25-.08-.38-.25-.38l-.17-.09-.17.12c-.05,0-.08,0-.08-.09s.13-.13.38-.15c0,0,.05-.06.14-.06l0,0v-.07l-.09-.11v-.12l.09-.12V16a.59.59,0,0,1-.18-.39l0-.08,0-.47V15a3.56,3.56,0,0,1,.11-.89L2.61,14V13.9l.14-.21,0-.12,0-.12-.1-.09.07-.09-.07-.12.1-.14,0-.1v-.14l0-.09-.16-.12a.82.82,0,0,0-.22.59l0,0v0l0,0v0l0,.15-.1.15.06.18v.12a1.64,1.64,0,0,1-.53.23l0,0v0l.06-.17,0-.1a1.25,1.25,0,0,1,.33-1l-.1-.09v-.09l.34-.56c.06-.11.25-.19.55-.24q.18,0,.18-.09v0l-.07-.06H1.6l-.7,0-.06-.09v-.11q0-.12.9-.27l0,0h.06A9.13,9.13,0,0,0,3,11.05l1.09,0a.46.46,0,0,1,.24-.24h.08ZM1.84,14.54H2a.25.25,0,0,1,.25.12l0,.15.08.39a.44.44,0,0,1-.32.12l-.11.09-.06-.06V15a1,1,0,0,0,.2-.34c-.16,0-.24,0-.24-.08Zm.08,1.28h.31l0,.15.2.18v.14c0,.06-.12.1-.34.12l0,0H2c-.1,0-.15-.12-.15-.32l.08-.06L1.84,16v-.09Zm0-.71,0,0H2v-.09H2ZM2,16.89h.1a.29.29,0,0,0,.08.21l-.1.08.2.18v0l-.06.05H2.07l-.15-.12v-.27Zm.18-2.82.06.07-.06,0-.08,0Zm.48,3.68v.12l-.06.05-.14-.08-.08.08s0,.07.11.07l0,0v0l-.28.17h0l-.12-.08q.15-.36.24-.36Zm-.38.83.14.09-.08.06H2.27l-.06-.06v0Zm.45.26h.22v0l-.4.23-.17,0-.06.06-.08-.06c0-.06.09-.09.25-.09Zm-.11-1.56.09,0-.05,0H2.54l-.06-.06,0,0Zm-.07,1.39.07.06-.07.06H2.48v-.06Zm.11,1.27.1.09,0,.09c.1.06.15.13.15.2l0,.1.07,0v.07l-.18.29.22.18v0l0,0v0l.1.08-.06.1v0l.09.12c.07,0,.11,0,.11-.12h0l0,0V21l0-.27-.09-.17.09-.15-.09-.18v-.09c-.05,0-.17-.08-.35-.24h0ZM3,13.6l0,0h0l.09-.06v-.06h0Zm1.54,3.06v0l.15.15,0,.12,0,0h0l0,.2v.07l0,.08v0l-.13.18.1.06h.11l.08-.06,0-.14,0-.15L4.85,17l0,0v0l0,0v0l0-.18c0-.28,0-.42-.11-.42s-.06.09-.09.27Zm.2-1.76s0,.06-.13.06l0,0v.15l.07.06h0c.06,0,.11-.09.13-.27l0,0Zm-.09.8v.09h0l0-.06v0Zm0,.18,0,0v0l.09.09L4.85,16S4.81,15.91,4.72,15.88Zm0,2.14h.14L5,17.87l-.16-.18C4.75,17.69,4.7,17.8,4.68,18Zm.2.23-.16.29,0,.1h.14L5,18.52v-.21Zm-.06.59-.08.09.08.06.11-.08ZM4.77,20V20l.08.06h.08L5,20V20l-.1,0Zm.05-.8v.06l.06.06,0,0v-.15h0Zm.58-1.33c0,.1.07.15.1.15l.09-.07V17.8l-.09-.05Zm.15,7.35.06.06h.08l.1-.09-.1-.09Zm.14-9.72.06.06.09-.06-.09-.06Zm.88-1.22,0,.09-.32.24H6.14L6,14.52,6,14.58l.07.08-.1.12c0,.07.08.1.24.1v0l-.1.12c.11,0,.16.16.16.48l0,0H6.14l-.06-.05v-.15H6s-.1.13-.15.38h0v0l.15.32s.09-.09.11-.27h.08l.1.09,0,.15,0,.41v.07l0,.12.08.14,0,.3h0s-.07-.08-.1-.24L6,16.8s-.08.06-.1.18l.14.12c0,.22-.06.34-.11.38l0,.12,0,.27c.07,0,.1.1.1.3h0l0,.14v.27l.06.06c0-.05.08-.13.22-.27l-.11-.5.07-.07-.07-.32v0l.11-.09.1.09-.06.09v0l.06.09V18l0,.12,0,.11v0a.76.76,0,0,1,.18.44h.1l.11,0v.15h.06s.07-.08.11-.26H7l.1.09.11-.09c-.14-.12-.21-.22-.21-.29v-.22s.06-.06.18-.08l0,0,0,.15v0l.07.06h.07l0-.15c.39-.07.58-.14.58-.2v-.06l-.06-.09a1.33,1.33,0,0,0-.46.24h0l-.07-.07A3.91,3.91,0,0,1,8,17.54c.21-.14.31-.26.31-.36a2.15,2.15,0,0,1-.72-.74.27.27,0,0,1-.18-.27c-.25-.24-.38-.43-.38-.55s-.26-.27-.41-.66l-.05,0v0l.08-.06.13,0,0,0v-.06a.33.33,0,0,1-.15-.24c.24-.11.36-.23.36-.35l0,0H6.67Zm-.68,2.29.1.05h.09l0-.27,0,0H6S5.91,16.37,5.89,16.54Zm.19,2.25v0l.1.1.1-.1v0l-.07-.06H6.14Zm.2-4.18h0l.06.05v0l-.06.07H6.24l-.06-.07Zm0-.84v0l.18.15,0,0V13.8l-.1-.08h0Zm.12,7.63v.05l.1.1,0,0,0-.18h0Zm.06.47V22l.06.07,0,0v-.06l-.06-.06Zm0,.32.11.06,0,0v0l-.08-.05Zm0,.69.11.06,0-.06v0l0-.05Zm0-.48v.06l.09-.06Zm0,1.16,0,0v0l.09.06,0-.06Zm0,.41,0,0h.05c.07,0,.1,0,.1-.12l0-.08h0A.15.15,0,0,0,6.48,24Zm0-.59.05,0h0v-.09h0Zm.62-8.48a2.28,2.28,0,0,0,.19.68l0,.12v0l.09.09h.08l.14-.12c0-.12-.08-.19-.22-.23l0-.15v0l-.07-.2L7.47,15v0l-.08-.06Zm5.25,13.82v0l.21.18.07-.06h0v.06l-.07.09.07.06.21-.11-.24-.36h-.15Zm.49.47v.06c.18,0,.27.09.27.23v0l-.11.12a1,1,0,0,0,.39.18h0l.07-.06,0-.15a.37.37,0,0,0,.21-.14v-.1l-.13-.14,0-.15L13.46,29C13.07,29.05,12.88,29.12,12.88,29.19Zm.94.91,0,0h0s.1-.06.17-.18v0Z"/><path class="cls-1" d="M22.4,9.93s.05.06.15.08.13.18.38.22c0,.09.19.15.57.17l.06.06h.09c.09-.16.19-.23.29-.23l0,0H24a1.4,1.4,0,0,0,.59.26q0,.09.24.12s.1-.09.3-.15.41.09.41.27a10,10,0,0,1,.92,1.13,15.73,15.73,0,0,1,1.75,1.78l.53.79a3.21,3.21,0,0,1,.51.95,3.37,3.37,0,0,1,.42.93l.17.4a2,2,0,0,0,.23.57v.15a3,3,0,0,0-.7,1.18l-1,2.08a.7.7,0,0,1-.24.32.63.63,0,0,1-.2.42,11.28,11.28,0,0,1-.72,1.28,8.36,8.36,0,0,1-.65,1,7.07,7.07,0,0,1-.68.92l-.54.8c0,.14-.14.35-.44.65q-.09,0-.33.24a2,2,0,0,0-.83.47h-.08A3.76,3.76,0,0,1,23,26a5.64,5.64,0,0,1-1.16-1.24c-.05,0-.08-.06-.08-.18s-.21-.14-.3-.41a4.18,4.18,0,0,1-.65-.89.36.36,0,0,0-.15-.24c0-.08-.09-.21-.26-.38a.8.8,0,0,1-.09-.36c-.16,0-.33-.27-.5-.8a3.49,3.49,0,0,1-.66-.89v0s.11-.08.32-.12l0,0v-.09l-.06-.06a.44.44,0,0,0-.36.21c-.06,0-.13-.12-.21-.35-.07,0-.19-.15-.35-.45a.85.85,0,0,1-.21-.41c-.09,0-.24-.2-.44-.6a4,4,0,0,1-.57-.86,2,2,0,0,1-.32-.56v0c0-.07.17-.13.38-.18l0,0c.16-.06.24-.11.24-.14v0l0-.12.27-.59a19.12,19.12,0,0,1,.92-1.78s0-.05,0-.15l.1-.12S19,14,19,13.87h0l.09.06h.18l.11-.17v-.07l-.08-.08-.21.23-.06-.06v0L19.5,13a4.51,4.51,0,0,1,.74-1.16l.05-.27.25-.35.62-.63c0-.1.08-.16.24-.21l.23.18h.06c.06,0,.28-.22.65-.65Zm-4.53,7.53-.07.26a.2.2,0,0,0,.12.21h0a.38.38,0,0,0,.21-.26l-.26-.21Zm.41-.24v.12q0,.27.33.33c.21,0,.43.16.65.5.07,0,.21.19.44.59a.27.27,0,0,1,.15.24,1.37,1.37,0,0,1,.51.65l0,0h-.08a1.21,1.21,0,0,1-.42-.63c-.1,0-.15-.06-.15-.2h-.05l-.15.15v.15l.3.29,0,0v0c0,.07.2.3.59.71a1.11,1.11,0,0,0,.34.57c0,.06.06.09.2.09L21,21v.27l.23.3h.12l.06-.06V21.4a.43.43,0,0,1-.15-.35l-.29-.39s-.06-.05-.06-.15l.06-.38c-.18-.06-.26-.16-.26-.3a1.3,1.3,0,0,0-.39-.71,2.23,2.23,0,0,0-.54-.89c0-.09-.09-.22-.26-.39q0-.07-.18-.15c-.15-.19-.28-.29-.41-.29l-.07-.12-.23.06h0a.39.39,0,0,1-.23-.12Zm.33,2.17,0,0v0l.06.06,0,0v0Zm.12.17v.09l.11.12h0l.05-.06v-.06l-.15-.15Zm.38.36L19,20l.08.2h.09l.06-.05A.25.25,0,0,0,19.11,19.92Zm0-1.39v0a.71.71,0,0,1,.15.3l0,0h.15l.06-.06v0q-.24-.18-.24-.27l-.06-.07h0Zm0-3.65,0,0h0l.06-.05,0,0h0Zm.15-.33v0l.15,0v-.06l-.06-.05h0ZM20,13.07c-.07.14-.12.2-.15.2s-.06,0-.06-.08l0,0h0l-.3.18v.12l.07.06h.05l.18-.13h.09l0,0h0l0,.15v0l.06.05.26-.44v-.06C20.16,13.1,20.1,13.07,20,13.07Zm-.57,1.13v.08l.07.07h.12v-.09l-.12-.12Zm0,6.37.07.06h.05l.07-.06-.09-.06h0Zm.1.26.12.12.12-.14v0l-.07-.06C19.58,20.76,19.53,20.8,19.53,20.83Zm.2-7.14,0,0v.06l.07.06.05-.06Zm0,2.08v.06h.05l.06-.06-.06-.06Zm0,5.25,0,0v.08l.05.06.06-.06Zm.15.26v.15l.06.06h0l.06-.06v0L20,21.28Zm0-9,.15.15v.17h0s.07-.07.09-.23l-.18-.18Zm.06,3,0,0h.06v-.1h0ZM20.15,13l.06.05c.12,0,.18,0,.18-.05l0-.15.08-.1-.05,0h0Zm.06,8.79v.06h.08v-.11h0Zm0-6.78v0h.08l.07-.05,0,0h-.07Zm.05,4.86h.07l.06.05-.06.07-.07-.07Zm.07-7.32.11.08,0,0v-.06l-.07-.06h0Zm1.19.11-.13.19c0,.11-.14.3-.44.55a1.16,1.16,0,0,0-.12.42c-.19,0-.28.11-.3.32,0,0-.1.08-.17.24v.15l.12.12.08-.09v0l-.05-.09s.05-.06.17-.06q.12-.24.18-.24l0,0v-.06s0-.06.09-.06a1.51,1.51,0,0,1,.45-.75.45.45,0,0,1,.2-.35v-.24Zm-1.16,5.08v0l.15.15h.12l.05-.05v0l-.24-.3A.2.2,0,0,0,20.39,17.76Zm.17,3.81-.09.12.09.07h0l.09-.09Zm0-3.34v.12c.12.1.18.19.18.26s0,.11.12.15l.12-.18.09.07.15-.12q-.08-.24-.27-.24l0,0v0l0,0v0l0,0h0s-.06-.05-.06-.17l-.12-.09h-.08Zm.07-6.37v0l.05,0,.06,0v0l-.06-.07Zm3.46.44-.3.38v0l.06,0,.09,0,0,0v0c0,.07-.06.1-.18.1s-.08.15-.24.15l-.53.82a2.08,2.08,0,0,1-.32.51,5,5,0,0,1-.51.77,5.16,5.16,0,0,1-.59.79l-.86,1.16-.06.1v0a2.22,2.22,0,0,1,.39.62l0,.12a.33.33,0,0,1,.24.33c.12.05.23.28.36.68q.07,0,.18.33a1.19,1.19,0,0,1,.3.64c.05,0,.18.27.41.81l.83,1.6q0,.18.24.33l0,.08a1.81,1.81,0,0,0,.39.56,1.74,1.74,0,0,0,.45-.71s.09-.09.14-.26c0,0,.12-.12.25-.36.05,0,.08-.08.08-.23a3.15,3.15,0,0,0,.68-1.08.46.46,0,0,0,.45-.35l0-.15,0,0h0c.06,0,.09.06.09.2h.05l0-.15s.08-.09.15-.27v-.11l-.1-.12v0s.07-.08.22-.14l.29,0,0,0v-.1s-.07-.05-.21-.05l0-.09.06-.15-.12-.1h0l-.19.19-.2,0H26v-.05c.24-.21.35-.37.35-.48s.16-.18.33-.5l.09-.09h0l.05.06a.7.7,0,0,1-.32.59l0,0v.06l.06.06h.09l.39-.42c.07,0,.11,0,.11-.05v-.06l-.06-.09.06-.06s.06.05.06.15l0,0h0a.55.55,0,0,0,.32-.18v0l0-.06h-.06l-.15,0,0,0V18l.09-.12v-.08l-.06-.07c-.19,0-.29.07-.29.12l0,.12-.12.06L26.88,18v-.09l.59-.85V17l0,0v0a1.71,1.71,0,0,0-.74.2l-.26.09a3.17,3.17,0,0,1-1.23-1.28l-.4-.71a1.88,1.88,0,0,1-.3-.65l0,0h.08l.09.32,0,0h.07l.14.12h0l.12-.09.09.09q0,.09-.24.09l-.06.09v.05l.06.07.18-.09h0l.09.09v0l0,0v0l0,0h0l.12,0,0,0v.11l-.07.09q.23.27.39.27a1,1,0,0,0,.12.38c0,.1,0,.15.08.15H26l.15-.11a3.28,3.28,0,0,1-.39-.84c0-.15-.09-.26-.27-.35v0l.12-.15v-.05c-.13,0-.23-.12-.3-.35l.1-.1a.74.74,0,0,1-.22-.53l0,0c0-.06-.06-.13-.18-.2q0-.42-.18-.42c0-.11-.1-.25-.32-.45l-.21-.41Zm-2.76-.12,0,.15a1.84,1.84,0,0,0-.34.57s-.08.1-.14.32a.31.31,0,0,0-.18.27l0,0h.06s.07-.07.09-.21a1.69,1.69,0,0,0,.38-.56l.62-.81.07,0v-.1l-.07,0h-.05q-.3.19-.3.39A.33.33,0,0,0,21.36,12.18Zm-.62,10.43v.12h0l.06-.05v-.07ZM20.8,19l.18.21-.06.2c.29.07.44.11.44.15l-.08.12v.06l0,0v0l.15,0h0v.14c-.06,0-.08,0-.08.07v.12c.13,0,.2.14.2.35q.15,0,.15.09l-.15.18.09.08h.09l.12-.11-.06-.06s0-.06.11-.06l.07-.12a.45.45,0,0,1-.1-.27.43.43,0,0,1-.2-.27h-.06v-.05l.06-.09a.36.36,0,0,0-.21-.36c0-.08-.07-.14-.21-.17l-.09,0-.11-.18.18-.21v-.15l-.07-.06h0l-.32.21Q20.86,19,20.8,19Zm.09-3.09V16l.06.06c.2-.17.3-.3.3-.38l0,0h-.05C21,15.86,20.94,15.94,20.89,15.94Zm.51,5.73v.09h0l.06-.07v0Zm.05-7.09.06.07h.06l.06-.07-.06-.05h-.06Zm.1-1.09,0,0h.09A.65.65,0,0,0,22,13c.13,0,.19-.09.19-.27a.51.51,0,0,0,.23-.45c.09-.11.17-.17.24-.17l0,0V12h-.06c-.28.18-.41.36-.41.53a2.9,2.9,0,0,0-.48.71C21.64,13.22,21.59,13.31,21.55,13.49Zm.14.65v.06h.11v-.06l-.05-.06Zm.23,6.67a.36.36,0,0,1,.13.24c.1,0,.16,0,.17-.1v-.12l-.12-.11H22Zm.1-9.25v0l.05.05h0v-.08Zm0,3.09v0h.05a4.29,4.29,0,0,0,.74-1c0-.06.07-.16.21-.29s0-.21.13-.21.06-.1.11-.29c.1,0,.14,0,.14-.1v-.26l-.05-.09c-.06,0-.15.14-.27.41q-.06,0-.27.39c-.07,0-.11.09-.11.27a.67.67,0,0,0-.27.47,1.34,1.34,0,0,0-.27.54C22.14,14.51,22.09,14.56,22.05,14.65Zm.09,6.52v.11l.05.06.06-.09v-.08l-.06-.07Zm.23-10.62v.12h.09l.06-.06v-.06l-.06-.05h0Zm0,.27.09.12s.07,0,.09-.15l0,0h-.06Zm0,10.7v0h.09v0Zm.33-9.9,0,.06.07-.06-.07-.06Zm1.71,10.1v.07s0,.05-.15.05,0,.07-.11.07l0,0v0l0,.39L24,22.5h0l-.12-.12v0l.47-.59ZM24.12,13h0l.12.21v0h-.15l-.06.07v0l0,.15-.06.05c-.08,0-.14-.13-.21-.41v-.09h.1c0,.06,0,.09,0,.09Zm.15.65c.17,0,.28.05.32.15l0,0h0l-.22,0c0,.12-.05.18-.08.18L24.18,14v-.2S24.21,13.69,24.27,13.69Zm0-1,.06.07v0l-.06.06h0l-.06-.06Zm.21,8.69.11.12v.06l-.26.06,0,0v0Zm-.09.74h0v.06l0,.06h-.1v0Zm-.06,1.75,0,.09,0,0h0l0,0v0l.09-.12h-.07l0,0,0,.09Zm.08-9.66.1.08v.1l-.07,0-.08-.08v-.09Zm2,6.23.06.08c-.16,0-.34.27-.56.68a.41.41,0,0,1-.15.27c0,.05-.07.1-.21.18s-.05.27-.15.27a3.74,3.74,0,0,0-.47.85.52.52,0,0,0-.3.44l-.05.15c-.06,0-.13.07-.19.22v0l0,0v0c.07,0,.2-.14.38-.41.1,0,.15-.1.15-.29l0-.1a1,1,0,0,0,.39-.24l-.07-.2a1.61,1.61,0,0,0,.48-.6.36.36,0,0,0,.21-.32c.08,0,.15-.12.2-.3.05,0,.1-.09.15-.26a2.29,2.29,0,0,0,.42-.69l.17-.18v-.2h0a.68.68,0,0,0-.3.42Zm-1.8-8.49,0,.09h0s.07,0,.09-.14l0,0h0Zm.59,8.49h0l.05.05q-.06.3-.3.3l0,0v0a.27.27,0,0,1-.27.15l-.09.09h0V21s0-.07.14-.09a.27.27,0,0,1,.18-.27l0,0v0l.15-.15.08,0Zm-.45.82h.06v0l-.06.06h-.06v0Zm.06-8.89,0,0h.14l.07-.06,0,0H25ZM25,14.55l0,0v.07l-.06,0h-.06v0Zm0-1.83v0l.11.12h.07v-.15L25,12.65ZM25,14.14h.06v.09H25Zm.24,6.07,0,.07v0l0,.06-.07-.06v0Zm.35.62v.1h0l.29-.1v0l-.05-.06h-.18Zm.15-1.36,0,0v0s-.06,0-.06.08l0,0h0l0,0v0s.06,0,.06-.09l0,0Zm0-7.61v0l.06,0h.06v-.08l-.06-.07Zm.27,11,0,0h0l.07-.06,0,0h0Zm.2-10.82,0,.09v0s.06.07.17.09v0Q26.3,12.06,26.22,12.06Zm.12.39v0s.05.07.15.09l0,0v0l-.12-.12Zm.06.27v0l.09.08h.09l.06-.06v0l-.06-.07h-.12Zm.09,9v.07h.09l.06-.07-.09,0Zm0,1.48v.12h0l.06-.05-.06-.07Zm.15-3.58v0l.06.06h.06v-.09Zm0,1.55,0,0h0l.09-.09,0,0h0Zm.09,1.63v.11h0l.15-.15-.06-.06h0Zm.06-.22.06.07c.07,0,.11-.06.11-.09v-.1h0Zm.14-1.9,0,0v.06l.09.09,0,0v0Zm.24-7.85v.09a2.51,2.51,0,0,1,.38.5.32.32,0,0,1,.12.27q.11,0,.45.51c.06,0,.09,0,.09.11l.3.51a.94.94,0,0,0,.32.53,1,1,0,0,0,.24.54l0,.12a3.4,3.4,0,0,1-.36.56v0l.15.15.09,0s0,.06.15.06v0c0,.07-.05.1-.15.1V17l.3,0,.29-.3c0-.27-.06-.4-.2-.4a.36.36,0,0,0-.06-.25v0l0,0v0s-.08-.11-.17-.35l0-.15a2.61,2.61,0,0,1-.47-.86l-.27-.32a1.94,1.94,0,0,0-.57-.74.36.36,0,0,0-.15-.25L27.41,13q0-.12-.18-.12Zm0,.89v.06c0,.12,0,.18.09.18l.12-.12v0l-.09-.09Zm.06,6.56.06,0,.12-.15-.06-.05Zm.18-2.79v0l.09.09.09-.09v-.1l-.06-.05Zm0,4,.06.06.09-.09,0,0h0Zm.11-1.25-.08.12.06.07h.06l0-.15,0,0Zm0-3.07v0h.12l.07-.06,0,0h-.08Zm.49-.6q-.39.06-.39.18v.08l.15.19.24-.24h0l.06,0,0,0v0a1.29,1.29,0,0,1,.39.23h.15v0l0-.3c-.05,0-.11-.11-.18-.35q-.06,0-.06-.09h-.06l-.12.21Zm.7,1.24V18h.06l.24-.17-.15-.15h0Zm.24-.74.06.06,0,0V17h0Zm.18.18v0l.06.06h0v-.09Z"/><path class="cls-1" d="M33.81,11l.15.1.26-.1q.27.09.27.15v.54l-.09.5q.06.27.18.27a.59.59,0,0,1,.29-.1H35q.12.07.12.15l-.09.45q.11.21.15.21h0l.12-.09.09.05h0l.09-.05.23.12,0,.12-.07.35,0,.09,0,.3v1.81l0,.26,0,.09.07.36-.1.11s-.08,0-.09-.11h0l-.08.08V17l-.06.06-.15,0-.06.09v.08l.06.19h.06l.09-.07h0l.07.07v0s-.07.08-.21.12l0,.15,0,0h0l.11-.09.1.12a.46.46,0,0,1-.12.35l.09.15-.09.15.17.21v.12l0,.09v.12l0,.05h.07l0,0h0l0-.12,0-.4,0-.24.06-.06V18l-.15-.18v-.15l.12-.17-.08-.3V17l.08-.09.1.06,0,.2,0,.3,0,.12,0,.18,0,0v0l.05.12,0,.21v.12l0,.17,0,0v0l0,.41v.18l.06.09v0l-.06.07h0l-.13-.12.06-.1V19h-.06s-.09.11-.12.32l0,0v.06l0,.09v.06a3.35,3.35,0,0,0,.12.89l0,.18V21l0,.09v0l.08.15,0,.23.1.09v0l-.07.1v0l.07.06.11,0,0,0v.8s0,.06-.12.06l0,0v0l.2.15h.47c1.41,0,2.11.13,2.11.38.06,0,.09,0,.09.1.24.23.39.35.44.35a2,2,0,0,1,.33.59l.24.32v.1l-.09.12v0l.09.17,0,0c.57,0,.86.08.86.24A2.11,2.11,0,0,0,41,26v0l-.14.12-.15,0h-.34l-.08-.06A3.9,3.9,0,0,1,39.05,26H37.12L37,26H37L36.89,26H36.8l-.08.05h0c-.67,0-1,0-1,.12h-.33l-.09-.06h-.59l-.09.06h-.15l-.23-.06H34c-.45,0-.67-.1-.67-.3l-.45-.59v0s.13-.11.38-.2v-.07l-.12-.15a.2.2,0,0,1,.19-.08h0l0,0h0q.21-.16.21-.21l-.29-.09a1,1,0,0,1-.15-.65l-.09-.06h-.45l-.15-.18v-.17l.06-.1-.06-.08v-.45l.06-.09v-.09l-.06-.08v0l.06-.09-.06-.1V22l0-.15,0-.09,0-.77v-.18l0-.12,0,0-.15-1.76,0-.12s-.06,0-.06-.08l-.06-1.45s-.07-.1-.09-.3l0,0v0l-.06-.56,0-.44-.06-.3,0-.09L32,15.1l0,0v0l0-.26,0-.13a1.19,1.19,0,0,1-.06-.47v-.27l-.06-.08.06-.09v-.35l-.06-.1V13l.06-.09v-.27l-.06-.09V12.5l.09-.39L32,12l.06-.45v-.12l.06-.05h.26a1,1,0,0,0,.39-.06l.39.11h.06c.08,0,.14-.14.2-.32l0,0Zm-1.34,6.79v.09l.06.06.19-.24,0,0h-.09Zm0-1.51v.06l.07.05h0l.06-.05Zm.24.83v0l.06.07h.06v-.09l-.06-.06Zm0,.8v0h.12l.06-.06v-.06l-.06-.06Zm.92-4.44v.17l0,.18,0,.15-.18.05L33.42,14l0,0h0l-.27.3.13.19.29-.25h.06s.08.07.15.21l-.21.12s-.12.07-.35.09v.06c0,.21,0,.32.06.32a.92.92,0,0,0,.38-.23l.06.06V15c-.11,0-.27.12-.47.35v.24l.12.15-.12.15v0c.05.11.18.17.38.17l0,0v0l-.21.12-.2.36a.86.86,0,0,1,.2.35l.07.06v0l-.07.09.07.09-.12.27,0,.08.21,0,.24.06.2-.2v-.1l0-.08v0l0-.09-.11-.18.08-.17,0-.12,0-.1c-.19-.15-.29-.27-.29-.35a.56.56,0,0,1,.27-.12v0l-.1-.12v0l.07-.1v-.27l0,0v0l-.1,0v0l.07-.21-.12-.3a.51.51,0,0,0,.09-.35v-.06a.39.39,0,0,0-.12-.24v0l.15-.15v0l-.07-.17h0l.06-.38,0-.12h0Zm-.12,2.07h.06v.06l-.12.12,0,.15v0l-.06.06h0l-.07-.06v0C33.45,15.7,33.51,15.61,33.57,15.58Zm-.11,2.55v.23l-.07.09v.06c.08.18.15.28.21.29v.07h0l0,.3,0,.26.12.09.09-.12v-.06l-.09-.12v0l.06-.12,0-.15c.08,0,.12,0,.12-.05v-.21l0-.3s0-.05-.08-.15Zm.35-5.31-.12.39,0,0h.09s.07-.05.09-.15l0,0v0l0-.11Zm-.12,7.23,0,0v0l0,.18v0l.12.11,0-.08,0-.15.09-.09q-.06-.18-.12-.18Zm.15-7.47,0,0v0l0,.06,0,0v0Zm0,8.27q0,.15.09.15S34,21,34,20.85l0,0H33.9l0,0ZM34,18.57v.12l.09.09s.08-.08.1-.24l-.1-.06Zm0,.48,0,.14-.07.1v0l.15.21.12-.23V19.1L34.2,19h-.1l0,0Zm.17.71a.32.32,0,0,0-.09.2l.09.09h0l.06-.06C34.3,19.84,34.27,19.76,34.22,19.76Zm-.06-4.24v0l.12.12a.43.43,0,0,0,.32-.17v0s0-.06-.08-.06l0,0v-.21h0s-.08.09-.11.27S34.16,15.49,34.16,15.52Zm0,.59v0l.08.12v0l-.06.09,0,0h0q.24-.07.24-.12a.44.44,0,0,0-.09-.26C34.27,16,34.2,16.07,34.2,16.11Zm0,4.51v.08l0,.07.12-.15v0l-.06,0Zm.11-4v0l0,.12,0,.08q.07.18.12.18l.06-.06-.06-.06v0l.17-.11V16.7c0-.05-.07-.08-.17-.08Zm0-2.11v.12h0l.06-.06-.06-.06Zm0,.29s0,.08.14.1l.06-.1v0l0,0v0C34.4,14.74,34.35,14.77,34.35,14.8Zm0,2.67v.07l.15,0v-.07l-.06-.05Zm0,1.28q0,.24.09.24h.06l0-.15.08-.09,0,0h-.12l0,0Zm.74-3.85v.29l0,.18c0,.21.07.32.21.32l.06,0v0s-.06-.08-.15-.12l0-.15,0-.12.12-.12,0-.38h-.09Q35.14,14.75,35.14,14.9Zm0-.42.09.06.12-.12v-.09h-.06Zm0,1.36v.39l.12.15,0,.29v.1l.06.05h0l.09-.09v0a.32.32,0,0,1-.06-.23h0l.09-.44-.21-.25Zm.06,3.45-.06.08.09.06,0,0v-.06Zm.12,1.59v.06h0l.09-.09,0,0h0Zm.21-5.22.06.18h0l0-.18-.09-.05Zm0,.69v.15l0,.05h0v-.26h0Zm.32,3.17.06.06v.06l-.06.05h0l-.07-.05v0Zm0,.29h0l.06.07V20l-.06,0c-.06,0-.09-.07-.09-.17v0Zm0,.48.07.06V21l-.07.06,0,0h0l0-.23-.05-.39Zm0,1H36v.12h0l-.06-.05Z"/><path class="cls-1" d="M48.66,10.44h.09c.12.18.21.27.29.27a2.25,2.25,0,0,1,.48.42l.23,0c.08-.18.17-.27.24-.27l.3.1.44-.07c0,.05.12.16.35.34s.29.38.48.38a.38.38,0,0,1,.26.36l.39.65c.1,0,.15.06.15.2l.74,1a2.26,2.26,0,0,1,.47.8c.07,0,.1.16.1.48l0,0h-.07c-.08,0-.2-.16-.35-.41l-.06.09V15l0,.15c-.1,0-.14.1-.14.29l-.1.09h0s-.07-.09-.07-.26l-.08-.07a2.1,2.1,0,0,0-.6.3c-.08,0-.25-.19-.51-.53,0,0-.11-.12-.2-.36a5.21,5.21,0,0,0-.94-1.12,3.84,3.84,0,0,0-.45-.74c0-.09-.09-.17-.27-.21a7.61,7.61,0,0,1-1,1.5,5.33,5.33,0,0,0-1.11,1.61l-.52,1.06v0l.08.08h.51l.12,0,.17,0h.38l.1,0h.05l.1,0h.56l.18,0a1.16,1.16,0,0,0,.39.08l.2,0c.43.07.65.16.65.27s0,.12.06.35l-.41.07v0c.06,0,.1.06.12.17l0,0,.12,0,.21,0,.12.27v.15a.7.7,0,0,0-.09.42v.11l0,.3a1.1,1.1,0,0,1-.78.24l-1.33-.06h-.05l-.1-.06h0a5.86,5.86,0,0,0-1.24.26v.12a.88.88,0,0,1,.24.38c.07,0,.16.13.26.39a.57.57,0,0,1,.24.39.4.4,0,0,1,.27.38c.08,0,.3.26.65.77l.39.51.2.23v.07l-.09.17h0l0,0h0l.25-.23a1.14,1.14,0,0,1,.44-.74l0,0h0l.29,0a2,2,0,0,1,.45-.51l.71,0h.06l.17.24.15,0h.24l.09.08v.07A7.07,7.07,0,0,0,52,23.4v.26a11.84,11.84,0,0,0-.39,1.78c0,.16-.33.28-1,.36l-.74,0a1.14,1.14,0,0,0-.63.2l-.2-.12h0l-1.1.24h0v0a1.89,1.89,0,0,1,.66-.54v-.12l-.12-.15-.62.39-.24.08h0a.26.26,0,0,1-.24-.2,4.36,4.36,0,0,1-.5-.74s-.08-.06-.12-.18a11,11,0,0,1-.8-1.21,2.09,2.09,0,0,1-.36-.54l-.35-.62c-.27,0-.52-.32-.74-.95,0,0-.15-.19-.3-.56L43.76,20l-.56-1a12.07,12.07,0,0,0-.62-1.19v0l.05-.07.15,0,0,0v-.05a2.79,2.79,0,0,0-.27-.66l-.24-.41-.15-.33v0a1.83,1.83,0,0,0,.81-.74l1-1.09c.48-.52,1-1.1,1.45-1.73a6.81,6.81,0,0,1,1.4-1.27,3,3,0,0,1,.62-.44l.15,0h.15a.8.8,0,0,1,.35-.24l.18.06s.1-.12.29-.24Zm-4.25,8.39,0,.09v0c0,.05.07.07.2.09l0,0v0Zm.45,0L44.8,19c.14.12.21.21.21.26h.09l.09-.08Q45,18.8,44.86,18.8Zm.48.15v.15c-.16.13-.24.22-.24.26a3.87,3.87,0,0,0,.42.86.52.52,0,0,0,.12.3v.15l.25,0,0-.08-.09-.15v-.12c.14-.11.2-.21.2-.29s-.1-.11-.29-.12l0,0v0s0,.06.09.06l0,0v0l-.09.09-.11-.12,0,0v0q-.09,0-.21-.36a.21.21,0,0,1-.11-.21V19.4l.18-.19v-.15L45.39,19Zm-.19-.36,0,0v.06l.12.15h0l.07-.06v-.06A.21.21,0,0,0,45.15,18.59Zm.49.77-.1.12a.76.76,0,0,0,.21.27h0l.06-.06v-.06a.33.33,0,0,1-.15-.23l0,0Zm0-1.39v0l.09,0,.06-.09,0,0h-.06Zm.12-.2,0,0h.06a.53.53,0,0,1,.33-.14l0,0v0l0,0h0C45.87,17.64,45.74,17.71,45.72,17.77ZM45.81,16v0l.06.07.06-.07V16h-.06Zm.3,4.51a.41.41,0,0,1,.2.33l.15.15,0,.17.09.06h.06l.06-.06v-.12l-.38-.62Q46.11,20.5,46.11,20.55ZM49,13.11a6.25,6.25,0,0,1-.92,1c0,.1,0,.16-.09.17h0l0,0h0a3.88,3.88,0,0,0-.48.71,1.12,1.12,0,0,0-.33.44.55.55,0,0,0-.27.45.64.64,0,0,0-.17.44s-.14.08-.27.23v.1l.09.09h0q.57-.07.57-.24s.06-.12.09-.35l.11-.27,0-.12s.08-.06.12-.18h.06l.09,0v0a.33.33,0,0,1,.12-.21,1.6,1.6,0,0,1,.44-.77,1.9,1.9,0,0,1,.57-.74c0-.06,0-.08.11-.08a1.76,1.76,0,0,0,.36-.63Zm-2.31,8.3c0,.1.09.22.26.36l0,.15.41.44,0,0A1.75,1.75,0,0,0,47,21.7c-.09-.23-.16-.36-.21-.38h0ZM47.05,18l.24.09.06-.06,0,0h0l.5-.09,0,0,.12-.11.12.08h0l.09-.12h.06l.09,0v-.07l-.06-.06h-.06l-.09.06-.3-.06c0,.09,0,.13,0,.13h-.12v0l0-.09,0,0h0l-.21.05-.09-.09q-.39,0-.39.27Zm.24.8v.06l.06.06h0l.06-.06-.06-.06Zm.09,1.51v.12a.37.37,0,0,1,.09.27l0,0h.09l.06-.07c0-.27-.07-.4-.15-.4h-.06Zm.27-1.51v0l.06.06h.06l.12-.12-.12-.09Zm0,2,.06.07.06-.15h0Zm.24-.05,0,0v0l0,.07.06-.07Zm.2.39.06.11.09,0c0-.11,0-.16-.09-.18S48.09,21.11,48.09,21.18Zm.06,1.92v.06h.06Zm.15-1.69,0,0v.09c.14,0,.24.16.29.5.06,0,.1.07.1.21s.14.07.26.2H49l0-.14.12-.12s-.06-.06-.17-.06a.87.87,0,0,1-.3-.54C48.6,21.52,48.5,21.46,48.3,21.41ZM48.41,17l0,0v0l.11,0v0l-.05-.06h0Zm.07,6.61.3.54,0,0h0a.26.26,0,0,0,.21-.12.57.57,0,0,0-.26-.33.49.49,0,0,0-.18-.24Zm.32-5.68,0,0h0l.06-.06,0,0h0Zm.1,4.94V23L49,23v-.09L49,22.86ZM49,24.91l-.06.15.09.08.15,0,.06.07v-.1c-.1-.07-.15-.13-.15-.17Zm.09-7.12,0,0v0l0,0,.14,0h.1v-.06a.29.29,0,0,1-.21-.09Zm.15,5.72v0l0,.05h.07l.05-.05-.12-.1Zm.39.21-.07.15.22.2,0,0,.27.45h.09c.09,0,.14-.08.15-.11v-.1c-.21-.31-.34-.47-.42-.47l-.09,0C49.71,23.78,49.67,23.72,49.64,23.72Zm1.86.62,0,0h0l.15-.17V24l-.06-.05S51.57,24.05,51.5,24.34Z"/><path class="cls-1" d="M64.14,10.16h.26a1.51,1.51,0,0,1,.81.45,1.27,1.27,0,0,1,.32.86v.2l.06.09v.18l0,.18,0,0,.09.89q-.15,0-.15.09v.06a1.19,1.19,0,0,1,.15.5l-.35.06a.71.71,0,0,0-.12-.3v-.2a2,2,0,0,0-.33-1,.28.28,0,0,0-.15-.24h0c-.1,0-.33.23-.68.68a3.67,3.67,0,0,0-.74,1,2.89,2.89,0,0,0-.56.78l-.63.79a14.58,14.58,0,0,1-1.33,1.46v0l.06.1c-.12,0-.18.05-.18.08a.28.28,0,0,0,.2.06l0,.09h0S61,17,61,16.86l.15-.06,0,0v0l0,0,0,.23-.08,1.51,0,0h0l.07-.06,0-.68s0,0,0-.09l0-1,0,0h.38l0,0h0l0,.08,0,.15q.09.39.15.39s.06-.06.08-.18l0-.09.12-.15v0a.32.32,0,0,1-.09-.2h.45l.09.05h.18l.09-.05h0l0,0h0l0,.59,0,0h0q.11,0,.18-.36L63,16.83l.08-.08h.21l.77-.07.08,0,.1-.08,0,0a.67.67,0,0,0,.44-.15h.12a3.52,3.52,0,0,0,.74.24l0,0v0l0,.18.06.06a.59.59,0,0,1,.21-.33v-.05q-.09,0-.09-.06v0l.06,0h0l.47.32h0l.09,0a1.16,1.16,0,0,1,.47,1l-.32.53,0,.15v.39h.09v-.09l0-.15,0-.18v-.08a.31.31,0,0,0,.11-.21c.14,0,.22,0,.22.14l-.1.39.07.06v.12l-.81,1.36-.23.36a7.21,7.21,0,0,0-1.19,1.86,3.23,3.23,0,0,1-.65,1.19c-.39.54-.74,1.09-1.07,1.63-.23.33-.55.71-.94,1.16l-.12,0c0,.13-.2.39-.6.81-.12.25-.38.69-.76,1.3a1.11,1.11,0,0,1-.39.41l-.15,0h-.24a.85.85,0,0,0-.62-.36l-.38-.06a11.91,11.91,0,0,0-1.43.59h-.12a1.75,1.75,0,0,1-1.24-.8L56,28.07a3,3,0,0,1,.34-.92,5.07,5.07,0,0,0,.65-1.55l-.06-.85,0,0h0c.06,0,.13.35.2,1l-.23.84-.07.24v.05l.36-.56,0,0v0l-.15.65a4.57,4.57,0,0,0-.39,1v.15h0s.08-.17.15-.51a3,3,0,0,1,.77-1.21,3.46,3.46,0,0,0,.89-1.1,5.37,5.37,0,0,1,.62-1l.09.09a5.38,5.38,0,0,0,.71-.85,9.49,9.49,0,0,0,.65-1q.16-.24.21-.24l0,0-.11.41h0a.36.36,0,0,0,.23-.35l0,0v-.09L61,22.23V22l.37-.92s.05-.06.05-.17c.45-.48.78-.72,1-.72l.12-.12,0,0v0l0,.23,0,.12a.72.72,0,0,1-.21.32v0l.09.12,0,.09.08.06h0a.3.3,0,0,0,.23-.32v-.3q0-.17.51-.27h.09v-.06s0-.06-.09-.06l-.21.09L63,20.09l0,0h-.07l-.27-.18-.08.1-.15,0-.36,0a3.74,3.74,0,0,1-1-.12H61l-.23.07h-.24l-.09-.07-.08.07-.15,0-.74.12,0,0h0a.5.5,0,0,0-.29.1h-.15l-.11-.24h0a1.64,1.64,0,0,0-.85.32h-.39a.51.51,0,0,1-.27.12H57.2a.21.21,0,0,1-.21-.12l0-.44,0,0h-.08v.29l-.07.06L56.69,20h-.47L56,19.92a.58.58,0,0,1,.22-.48l0-.17,0,0h0s-.11.12-.19.36l-.17,0a.56.56,0,0,0-.27-.54c-.08,0-.11,0-.11-.08a1.05,1.05,0,0,0-.22-.47v-.1a3.49,3.49,0,0,0,.39-1.06.78.78,0,0,1,.33-.45l.68-.44a5.41,5.41,0,0,0,.89-.57.48.48,0,0,0,.3-.2v0l-.07-.08-.17.06h-.12l-.12-.12v0l.06-.09v0c-.39,0-.59-.06-.59-.11v0a2.1,2.1,0,0,1,.53-.35,1.48,1.48,0,0,1,.53-.42c0-.14.1-.23.3-.3.11-.25.25-.38.42-.38a4.85,4.85,0,0,1,1.06-.56s.18-.15.54-.32c0-.07.14-.16.35-.27l.8-.62.63-.63c.13-.26.22-.38.26-.38s.28-.09.83-.12h.33l.09-.06L64,11a.25.25,0,0,0,.23-.15s-.22-.13-.67-.27l-.07-.09q0-.12.42-.18h0l0,0h0Q64.08,10.18,64.14,10.16Zm-8.09,7,0,0v.47l0,.1v.08l0,.12,0,.09h.07l0-.06v-.35c0-.05,0-.07-.09-.07l0,0v-.05l0-.3,0,0Zm0,1.34v0h.07l0,0v-.07h0Zm0,.44V19l.07,0,0,0v0L56.1,19Zm.3-1.93q0,.36.09.36l.06-.06v0L56.44,17l0,0Zm.42,1.51v0l.09.09v0Zm.47,1.25v.12l.15,0,.06,0v-.45l.06-.09-.06-.18h0q-.12,0-.12.54Zm.18-1v.14h.09v-.2h0Zm.21-1.57,0,.59v0l-.06.09V18l.06.06h0L57.7,18v-.8Zm0-1.28,0,.22-.05.05v.12l0,.27,0,.3V17h.05l0-.44v-.24l.09-.12,0-.08,0-.15-.1-.07Zm0-.91v.17l.05.07,0,0V15Zm0,3.5v0h0v0Zm.44-3.63,0,0V15h.09V15Zm0,3.29v.1h.06v-.1Zm.17,1a1.59,1.59,0,0,0-.08.5v.09l.08,0,.07-.09V19.2Zm0-.33V19l.06,0c.06,0,.1-.13.11-.41l.07-.06v0l-.12-.12S58.34,18.58,58.3,18.82Zm.15-1.3a2.06,2.06,0,0,0-.09.59v0l.06.05h.12a.34.34,0,0,1,.05-.2l-.05-.09,0-.11-.06-.27Zm.06-1.46,0,.1,0,.23-.09.24,0,.05v0l0,.27,0,0v0l0,.18v.08l.06.07.06-.07V16.12Zm.08-1.28,0,.15,0,0h0s.07,0,.07-.09l0-.1Zm0-.44v.21l.07.06h0v-.33h0Zm.1,1.82v0l0,.68v.06h0l.05-.17v-.51l0,0v0l0,0Zm.08,1,0,0v0l0,.45h.12v-.07l-.06-.08v-.3Zm0-1.86,0,0h0l.06-.09V15h0Q58.77,15,58.77,15.27Zm.21.5,0,.2v.12h.09s.09-.13.11-.38l0,0H59.1Zm0-.3v.09h.06l.06-.06,0,0Zm.24.86c0,.15-.1.23-.15.23h0l0,0h0v.06l.06.06h0l.21-.25v0ZM59,16.9v.2s.08-.08.12-.24l0,0h0Zm.12,2.54,0,.27,0,0h0l0,0v-.27Zm.06-1,0,0h0l.06-.07,0,0h0Zm.06-.53,0,0v.3h0s.08-.09.08-.27Zm.08-.56v.14h.07v-.09Zm.18-1.34,0,.18s-.07.18-.07.54c0,0-.06.11-.08.35.07,0,.11.11.11.32l0,0h0l.12-1.08,0-.11s.07-.06.09-.18,0,0,0-.09l0,0h-.08Zm0,2.7,0,0v.33l0,.08v0l.12.15L59.6,19l0-.1,0,0v0Q59.56,18.76,59.51,18.76Zm0-.86,0,0v.56l.07.06.08-.09v-.08l-.05-.09V18Zm0,1.72,0,0v0l0,0h.07v0Zm.24-6.05s0,.08-.15.09l.06.24v.56l-.15.15v.09l.07.08v.3c0,.05.06.09.2.12l0,0v-1l0-.12,0-.12v-.26Zm-.24,1.9.07.06h.14c0,.09,0,.14.06.14l.06-.29,0-.09h0l-.27.09Zm0,.32.09.07.1-.07.08,0v-.05l-.2,0Zm.21,3.89v.06l.06.06h.06l.06-.06v0l-.09-.09h0Zm0-3.08V17h.06v-.41Zm0,.56v.14h.06v-.14Zm.3-2.28,0,0V15h.08v-.1Zm0-.45h0l.24-.5,0,0h.1c.07,0,.11.09.11.14h0l0,0-.18-.21h-.09C60.27,13.83,60.16,14.05,60.05,14.43Zm.27,3.65v.15h0v-.15Zm0,1.07v.08h0v-.08Zm0-3.48v.07l.06-.07Zm0,1.85h.1l0-.3V17Q60.34,17,60.34,17.52Zm.18-3.14-.15.2v.47a.67.67,0,0,1,.09.39h.06a.87.87,0,0,0,.18-.39l.06-.05v-.27l-.06-.06-.09.11,0,0v-.33Zm-.15,5.18v.06h.07v-.06Zm.09-4.8h.06l0,.36v0l-.06,0,0,0Zm.83,7.82c0,.16-.13.26-.38.3l-.18.18v0l.06.07.09-.09.08,0v0q.48-.35.48-.42v-.06Zm-.41-5.24.06.06v-.06Zm.23,1.42-.15.36v.2a.4.4,0,0,1-.08.27v0l.08.15c.15,0,.22-.09.22-.18l0-.24,0,0,0-.15,0-.38,0,0Zm.3-5,0,0h-.12v.24a.75.75,0,0,0-.08.35l-.09.1,0,.11,0,0,0,.2v.2l.07.1.15-.1h.05l.12.1.06-.06v-.09l-.06-.06h0l0,0h0l0,0V14.7a.87.87,0,0,0,.18-.39v-.5l0-.21-.09-.06S61.43,13.6,61.41,13.72Zm-.32,1.84,0,.11.15-.05.06.05h0v-.05s0-.06-.12-.06V15.5q.15,0,.15-.09l-.06-.06,0-.18-.05-.05c-.15,0-.22.12-.22.23Zm.2,3.49v.45l.06.06,0,0v-.36l0-.14,0,0h0Zm.27,2.23v.36l-.27.26v.59l.06,0v-.39l.62-.36.1.06h0l.06-.06v0l-.09-.1-.06.07c-.17-.2-.3-.3-.38-.3v-.12l.08-.09a.27.27,0,0,1,.15.24h.24l.1-.09-.15-.18.08,0,.15,0,0,0v0a1.23,1.23,0,0,0-.53-.15C61.64,20.9,61.56,21,61.56,21.28ZM61.5,17V17h.06V17Zm0,.21,0,0v0s.08.1.09.29h.06C61.63,17.31,61.59,17.19,61.53,17.19Zm.24,4.95v.05h.11l0,0h0l0-.09h-.09Zm.06-4.33v.06l.05.06h0l0-.12v0Zm.05-4.17.07,0,0,0,0-.07Zm.34.67h.05a.34.34,0,0,1,.15-.27V14l-.09-.09C62.26,13.87,62.23,14,62.22,14.31Zm.08,5.07q0,.15.09.15l0,0v-.08l-.06-.07,0,0Zm.12-.89v.12h0l0-.18h0Zm0,3.65v.05l0,.07.07-.07v-.05l-.07-.06Zm.09-.59-.06.09.09.08.05-.08Zm.3-3.26a2.88,2.88,0,0,0-.15.83l0,0v.17l0,.18,0,.12,0,0,0,0h0a.65.65,0,0,0,.26-.26V19a.35.35,0,0,1-.08-.21l0-.09,0-.12,0-.27,0,0Zm-.07-.24,0,0h.07l0-.06,0-.06Zm0,1.72v.09l.07-.06,0,0Zm.09-6.55,0,0v.14l.08.1,0,0v-.06C63,13.29,62.93,13.23,62.86,13.22Zm0,7.41h.08v-.15S62.85,20.53,62.84,20.63Zm.52-3.73-.11.14.11.09.07-.18Zm-.08.5,0,0v.07h.09v0ZM63.43,20v0l0,0h0l.07,0v0l-.07,0h0Zm.65-1.33,0,.15v.38l-.12.48,0,0v0l-.09.59,0,.12-.18.18.18.08a2.7,2.7,0,0,1,.15-.74v0l0-.15.15-1.1,0,0Zm-.27-1.84q0,.21-.06.21c0,.1.06.15.1.15h0a.53.53,0,0,0,.23-.3l0-.06Zm.09,1.87,0,0v.09H64v-.06Zm.18-.65v0l.09.09.06-.06V18h-.09Zm.15-1.31,0,0v.08l0,.59,0,0h0l.09-.47.05-.06,0,0v0l0-.08Zm.24.15,0,.06.18-.09.18.12v.27l-.06.08v.3h0l.06-.06V17l.12-.18v0s-.06,0-.18,0l-.09-.1H64.7Zm.2,2.73a.75.75,0,0,0-.18.47v.18h.12V20a.74.74,0,0,0,.12-.38Zm-.15-.24v.12h.07v-.12Zm0-.32v0l.06.07.06-.09L64.61,19Zm.09-8.45v.05l.12,0,0,0v0l0,0Zm0,8.18v0h0q.1-.36.18-.36l.11.12s0,.06-.11.06v.15l-.06.09.06.06q0-.07.18-.27v0a.33.33,0,0,0-.18-.27h0A.58.58,0,0,0,64.67,18.76Zm.15,1.06v.3l0,.18q0,.33.09.33s.06,0,.06-.09l.15,0v-.08L65,20.24l0,0v0c-.06-.29-.11-.44-.15-.44Zm.06-.4v.08q.18,0,.18.21h.08a.32.32,0,0,0-.15-.29Zm.06,1.29-.06.1c0,.08.08.13.11.14h.07l0-.14S65,20.74,64.94,20.71Zm.5-2.78,0,0,0,0v.3l.12.44,0,0v.32l-.06.09,0,.69s-.08.15-.12.44h0c.07,0,.12-.2.15-.62a3.42,3.42,0,0,0,.12-.8v-.06a.74.74,0,0,0-.15-.44V18Zm.09-.74a.66.66,0,0,1-.09.3v.11h0s.06-.11.08-.32l0,0Zm.33,1,0,.3h0l.06-.07,0,0v0l0-.12Zm0-.83,0,0v0l0,0H66v0Zm0,2.25,0,0v0H66Zm0-.42.07.21.17,0v-.15l0-.36c-.05,0-.08-.1-.08-.3A2.05,2.05,0,0,0,65.88,19.23Zm.22-2.1a.54.54,0,0,0-.1.29l.1.07h0l.06-.07v-.2Zm-.07.74c0,.16.08.24.19.24,0,.18,0,.27.08.27h0v-.33s0-.06-.15-.06-.05-.18-.08-.18Zm.19.59-.07.3,0,0h0c.07,0,.11-.06.11-.09v-.17l-.06-.07Zm0-.79,0,0v.12h0l.06-.06v0Zm0,1.24v.21h0l.06-.07v-.14Z"/><path class="cls-1" d="M8.42,28.08c.15,0,.36.21.65.63l.1,0,.41,0a12.42,12.42,0,0,0,1.72,2c0,.06.12.18.36.35l.62.81c0,.07,0,.11.12.11a16.19,16.19,0,0,1,1.51,2.49,3.66,3.66,0,0,1,.47,1v0l-.05.07H14.2s-.09-.09-.14-.27c-.15,0-.22,0-.22-.09l.1-.11V35l-.24-.22a.33.33,0,0,0-.3-.35c0-.12,0-.17-.08-.17h-.07l-.15.14.07.12-.07.21q.12,0,.15.27a.56.56,0,0,1,.42.23v.21l-.15.18v0l.06.07.26,0c.23.16.34.27.34.34a1.49,1.49,0,0,0,.38.29v.18l-.06.08v.07l.15.14v0a6.86,6.86,0,0,1-1.84,1.31h-.09V38a4.38,4.38,0,0,1,.74-.5.28.28,0,0,1,.24-.17v-.12h-.18c0,.08-.12.17-.35.27a.29.29,0,0,1-.3.17c0,.06-.19.21-.56.45,0,0-.11.12-.33.26q0,.08-.39.33a2,2,0,0,0-.53.44c.12,0,.18.06.18.1a.49.49,0,0,1-.3.14l-.06-.06-.06.06,0,.12a.8.8,0,0,1-.42.26c0,.08-.14.21-.44.39l-1.42,1a2.07,2.07,0,0,1-.62.2.48.48,0,0,0-.44-.23l-.09,0-.06.09v.15a7.9,7.9,0,0,1,.18,1.36c.09.39.17.59.23.62l0,.21v.18c-.09.16-.32.24-.68.24a3.35,3.35,0,0,1-1,.17H5.81s-.09.08-.17.24H5.49l-.18,0L5,44.42l-.1,0-.26,0H4.6l-.15-.14v-.22a5,5,0,0,0-.2-1.39l0-1v-.26l-.06-.09V41l.1-.12-.1-.11v-.27l0-.15,0,0h0q0,.33.12.33s.08-.14.1-.42L4.25,40l.11-.15,0-.24,0-.08,0,0h0l-.09.06-.06-.06v0l.21-.33,0-.15,0-.17c0-.06,0-.1-.08-.1l0,0v-.06a1,1,0,0,0,.08-.47l0,0h0l-.15,0,0-.09a.23.23,0,0,1,.23-.18v-.06l0-.21.06-.12-.06-.17V36.8l0-.18h-.1c0,.07,0,.1-.05.1H4v0a.23.23,0,0,1,.25-.23c0-.13.07-.2.23-.21a.16.16,0,0,1,.18-.18l0,0v-.09l-.21,0H4.3v0a.47.47,0,0,1,.24-.38l0-.18-.09-.06-.08.06h0l-.06-.06s.08-.08.24-.15l.18-.23v-.09l-.12,0-.09,0,0,.1L4.36,35l0,0h0l0-.14v-.12h.21l.06-.06v-.15a.8.8,0,0,0-.45.09h0l-.07-.06v0l.09-.12.1,0,.23,0,.15,0,.09-.12-.06-.11.06-.15a.5.5,0,0,0-.39-.12l0,0v-.09a.33.33,0,0,1,.1-.21v0l-.07-.06h0l-.15.12s-.05,0-.05-.09l.05-.23,0-.09.08-.1L4.15,33V33s.06-.07.18-.11,0-.14.15-.21l-.08-.08h0l-.11.08,0,0V32.5l.24-1.86,0-.09c0-.2,0-.32.09-.35v-.07c0-.55,0-.82.15-.82l.06-.07-.09,0-.09,0,0,0v0c0-.07.33-.24,1-.51a2.48,2.48,0,0,0,.71-.3,1.73,1.73,0,0,1,.94-.26,1.12,1.12,0,0,0,.39.18h0l.09-.07h.15a.42.42,0,0,0,.23.1C8.06,28.16,8.18,28.08,8.42,28.08ZM4.06,34.79h.07v.06H4.06Zm.07,2.45.08.1v0l-.06.07-.09-.09v-.06ZM4.25,34a.25.25,0,0,0,.23.1l.06.08v0a.25.25,0,0,1-.24.15l0-.1,0-.09-.12-.08,0,.08H4.1V34.1ZM4.1,35.79h.05v.09H4.1Zm.05,2.61.06.06v0l-.06,0-.05,0v0Zm0,.77h0v.09h0ZM4.3,41v.06l.06.06,0,0V41Zm0,.33v0l.06.07h0v-.09Zm.1-9.54,0,0h.06l.06-.06v-.08h0Zm.26.55-.12.19v.08l.06.09v.06s0,.06-.12.06v.06l.06.09v0l0,.15,0,0h.12l.06-.06v-.71Zm-.09,1,0,0v.07l.06,0,0,0v-.06Zm.09,3.26v0h.09v-.08h0Zm.06-1.42.06.06h.06L5,35.17v-.06s0-.06-.09-.06A.27.27,0,0,0,4.72,35.2Zm0,1.16.06.06.06-.06-.06-.06Zm0,2.69v.09l.06.06h0l.07-.06v-.09L4.8,39h0Zm0-4.47,0,0H4.9v-.09H4.8Zm.41,1.8.06.07.12-.12-.06-.06Zm.53-4.05-.05.14v.3a1.54,1.54,0,0,0-.15.59s-.06,0-.06.15c.09.3.16.46.21.47l.05,0v-.27l.07-.09-.07-.09v-.21H5.64v-.05A.38.38,0,0,1,5.91,33l0-.12h0l-.13,0,0,0v0l0-.09,0-.12,0-.3,0,0Zm-.23,2v.06l.08.09h0l.08-.09v0c0-.1,0-.16-.08-.17Zm.23,3a.59.59,0,0,1-.08.33l0,.06.15-.17v-.15l0-.07Zm-.05-2c0,.06.07.09.17.09h0v-.15H5.69Zm0,2.76.05.53-.05.06v0l.05.06a.48.48,0,0,0,.09-.27l0-.11,0-.07,0-.15,0-.12,0,0h0Zm.09-2.41,0,.21v.09l.07.09-.07.09v.26l0,.45,0,.18,0,.18h.07l.08-.1,0-.2.06-.36v-.06l0-.14,0-.18v-.21L5.91,36v0l-.13-.19Zm0-5.36-.09.24v.12l.07.05.12-.17C5.85,30.51,5.82,30.43,5.78,30.43Zm-.09.66v.4l.09.1h.06l0-.36v-.18L5.81,31h0Zm0,.74V32h0s0-.05,0-.15l.1,0v-.1h-.1Zm0,11.73v.12c0,.08.09.11.15.11l.66-.2v0c0-.28-.06-.41-.12-.41H6.05c-.13,0-.22.1-.27.32ZM6.47,29.9l-.09-.07h0l-.06.07V30h0l.15,0,0,0v.07l-.07.05-.08,0v.12h0l.09,0v0l-.12.38,0,.21c-.08,0-.12.05-.12.08a.39.39,0,0,0,.12.24v.18a.34.34,0,0,0-.12.27l0,0h0l-.12,0,0,0v.09s0,.05.09.05l0,0v.18q.09,0,.09.06c-.1,0-.15,0-.15.09l0,0v0l-.06.32.12.13-.12.12,0,0,0,.15V33l.09.12a.34.34,0,0,0-.09.27c-.07,0-.13.07-.17.17l0,.09v.06l-.12.18q.11,0,.15.21c.1,0,.15.05.15.08l-.18.3q0,.09.15.09v.09H6v.14l.09.12v0a.76.76,0,0,0-.09.3l0,0h.08c.14-.06.21-.13.21-.22l-.06-.17v0l.06-.09v-.06l0-.21.06-.06v-.15L6.2,34.1l.15-.17v-.09q-.18,0-.18-.09l.21-.18v-.33l0-.05h.12s.07,0,.07.08-.08.14-.12.15l0,.15,0,.33h0q.12,0,.12.06a.5.5,0,0,0-.15.41v.87l.08.08.24-.18a.23.23,0,0,1,.1-.2v-.15l-.07-.06H6.79l-.09.06,0,0v0a.47.47,0,0,0,.27-.48l-.06,0,0-.12a.49.49,0,0,0-.13-.33q0-.12.21-.33v0a.3.3,0,0,1-.08-.2l.08,0V33.1L6.92,33v-.14L7,32.72v0l-.08-.08h0a.47.47,0,0,1-.26.08.29.29,0,0,1-.09.21s0,.07.17.12v0l-.17.06H6.47L6.38,33l.09-.12V32.8l-.06-.06-.12,0v-.09q.18,0,.18-.06v0l-.09-.13v0c0-.05,0-.07.09-.07l.11,0,0,0v0s0-.07-.09-.07l0,0V32a1.34,1.34,0,0,1,.12-.47l-.09-.09.09-.12V31.2l.11-.89,0-.15,0-.3-.11-.08Zm-.42,5.54v0s0,.06.09.06l0,0v0l-.12.09,0,.15,0,.65,0,.17,0,.09.06.3-.06.38s.08.06.12.19h0l.06-.15a.19.19,0,0,1-.09-.19V37l.24-.36q-.15,0-.15-.09v-.29l0-.15L6.32,36l-.06-.24v-.12l0-.15-.18-.11Zm1.54,3c0,.08,0,.12-.08.12l-.15,0,0,0v0l0,0,0,0H7.27l-.12.09H7.09L7,38.61a.19.19,0,0,1-.18.14,3.48,3.48,0,0,0-.62.54v0l.12.12A1.53,1.53,0,0,0,7,39.05a1.56,1.56,0,0,1,.5-.3.44.44,0,0,1,.27-.14v0l-.08-.15ZM6.38,37.9l0,0c0,.12.05.18.08.18s.08,0,.1-.15Zm.24-2.43H6.5v.12c.08,0,.12,0,.12,0l-.09.12v.42a1.19,1.19,0,0,1,.09.39l0,.08.07.07.17,0v-.2l.06-.1v0l-.09-.09.09-.33-.09-.06,0-.29v-.15ZM6.53,37v.09c.06,0,.11.08.14.24l0,0h0q.09,0,.09-.33V37l-.15-.11Zm.09.53v.07l0,.08V38l.1.1.05-.1v-.14l0-.12.06-.21-.12-.08h0Zm0-5.27v0l.06.05h.09l.06-.12v0H6.77Zm.12,1.09.06.06-.06.06-.06-.06Zm0-3.94v.09l.06.06H7L7,29.51v-.09Zm.33,1.33v.07h0l0,.2v.74l0,.27.09.15-.09.12v.15l0,.08,0,.39.06,0-.12.19.06.15,0,.08,0,.24,0,.27,0,.26-.06.3,0,0v0l0,0v0l0,.12,0,.32v.12L7,35.26l.09.09v.12L7,35.56l.06.08L7,35.73v0l.06.1v0L7,36v0l.12.15L7,36.36v.09l.09.12v.15L7,36.8l.06.09v0L7,37l0,.12,0,.18.09.08v.33l-.17.48,0,0v0c.16,0,.27-.11.35-.32a.56.56,0,0,0,.51-.27c.54-.35.82-.57.83-.65a3.93,3.93,0,0,0,.77-.54,8.14,8.14,0,0,0,1-.74,3,3,0,0,0,.65-.44l0,0h0l.42-.33v0A20.79,20.79,0,0,0,9.4,32.62a6.85,6.85,0,0,1-.71-.91,4.22,4.22,0,0,1-.56-.89L8,30.72h0s-.08,0-.09.12L7.71,32.3l0,.05v.1l0,1.09s-.06,0-.06.09v.06h0l-.08,1.25,0,.08-.07.51,0,.08-.09,1.28,0,.23v0a.51.51,0,0,1-.08.35v.3l-.09.09h0l0,0h0l.07-.6,0-.32a.72.72,0,0,1,.11-.42v-.11l-.05-.09V36a.4.4,0,0,0,.09-.27l-.12-.08a.64.64,0,0,1,.08-.33v-.68l.1-.12v0a.29.29,0,0,1-.1-.21v-.08A.43.43,0,0,0,7.44,34l-.08-.08v-.12l.08-.12-.05-.09.05-.33q-.12,0-.12-.12l0-.11,0-.09a.61.61,0,0,0,.12-.32v0l-.05-.1.08-.76,0-.1.12-.23-.09-.12.07-.44s-.08-.08-.1-.24H7.36ZM6.94,42.31v0a.74.74,0,0,0,.21.32l0,0V42.5l-.08-.12.08-.12V42.2l0-.06H7C7,42.15,6.94,42.21,6.94,42.31Zm.12-1.83L7,40.57l0,0h0l.06-.07ZM7,41v.27l.06.05.11-.08v0L7,41Zm0,.51v.11H7l.09-.08,0,0Zm0,.3v.11l.06.06.09-.09v-.08Zm.24-11.6v0l0,.05,0,0v0l0,0Zm0,10.26,0,0h.15l.15-.12v0s0-.08-.11-.09A.19.19,0,0,0,7.29,40.42Zm.15-2.17,0,0v.07l0,0,0,0v-.06Zm.45.21,0,0H8a.4.4,0,0,1,.15-.25v0H8S8,38.3,7.89,38.46Zm.62-9.15-.06.08,0,0h0l.06-.06Zm.48.55,0,0c.08.17.18.26.3.26l0,0v-.08A.4.4,0,0,0,9,29.86Zm.11,2,0,.15,0,0h0L9.22,32v0l-.05-.06ZM9.17,40l.05.05L9.29,40l-.07-.07Zm.12-9.7c0,.12.06.18.2.18l.12.12h0l-.12-.33H9.34l0,0Zm.64,9.16v.06H10l.07-.06L10,39.38Zm.1-8.5,0,0v.13l.07.05h.08v-.09Zm.23.32,0,0v0q0,.08.24.12l.06-.1S10.44,31.27,10.26,31.26Zm0-1a1.21,1.21,0,0,1,.32.44l.19.19h.05l.06-.07c0-.17-.11-.29-.32-.35s-.1-.1-.13-.3h-.08Zm.15,1.25v.08c.08,0,.13.06.15.19h.09l.08-.1v-.05C10.73,31.62,10.62,31.58,10.41,31.56Zm.44-.57v.1l.18.29.24.11c0,.14.07.22.12.22l.08-.1v-.05l-.17-.22v0l.06-.09s-.18-.1-.39-.29h-.05Zm.07,1.07v0l.05.06H11l.09-.09L11,32h0Zm.64-.33v.06l.13.12h.05c0-.11,0-.16-.08-.18Zm.3,6.91h.06l.06.06a.77.77,0,0,1-.36.2v0Zm0-7v.05l.06.07v-.07Zm.18.2q-.06.27-.18.27v0q0,.09.24.09a1.26,1.26,0,0,0,.33.32.65.65,0,0,0,.38.54l.09-.09v0a1.11,1.11,0,0,1-.21-.32,1,1,0,0,1-.33-.45Zm.27,6.58,0,0v0l-.15.15h0l-.06-.06A.25.25,0,0,1,12.28,38.37Zm.35-.29h.07v.05a.22.22,0,0,1-.22.12h0v0C12.52,38.2,12.57,38.16,12.63,38.08Zm.24-4.86c0,.11.08.17.12.17l0,0h0c0-.13-.05-.2-.1-.2h0Z"/><path class="cls-1" d="M19.28,29.29l.36.12h.08l.3-.09a.39.39,0,0,1,.36.21l0,.77v.05l-.06.1v.74l0,.08,0,.15V33l.06.1-.06.08v.47l.06.09v0l-.09.12,0,.21v1.18l.06.09v.1l-.06.08V36l0,.14-.06.54,0,0v0l0,.41v.33l0,0,0,0c-.06,1.26-.13,2.17-.21,2.75h.09a1,1,0,0,0,.42-.5,2.38,2.38,0,0,0,.38-.47s.1-.08.15-.24c.07,0,.14-.07.21-.2s.17-.17.38-.51l.15-.12h0a.35.35,0,0,0,.24.12.48.48,0,0,0,.09-.27c0-.1,0-.15-.07-.15l0-.15,0-.53,0-.62,0-.18a4.34,4.34,0,0,0,.07-1v-.12l0-.17,0-.12,0-.18,0-.18.09-.06.05.06h.12l.09-.06,0-.35v-.15a.33.33,0,0,0,.15-.33l.06-.06h.09l.09.06h0c.08,0,.12-.09.12-.14l0-.1h0l.08-.08v-.09a.28.28,0,0,1-.2-.06.57.57,0,0,0-.18.35h-.06l-.09,0h0c-.06,0-.1.1-.13.3l-.06.05,0,.15-.07,0,0,.1-.15.05,0,0v-.09a.8.8,0,0,1,.1-.51l-.1-.12v0l.07-.06h.08l.24.06.27-.24q0-.08-.18-.12,0-.21-.09-.21a.3.3,0,0,0-.09.24s-.06,0-.06.09l0,0h-.07l-.05-.06,0-.15v-.06h0l0-.21v-.3l.06-.08-.06-.09c0-.25.1-.38.21-.38s.09,0,.09-.07-.18-.14-.18-.41v0a3.76,3.76,0,0,1,.15-.74v-.09c0-.37,0-.56.12-.56l.18,0,.06-.06h0l.3.26a.64.64,0,0,0,.27-.5,1.21,1.21,0,0,0,.15-.47l.17-.07a.8.8,0,0,0,.51.1h.42l.2,0,.21.2a.76.76,0,0,1,.33-.12.56.56,0,0,1,.32.12,1.9,1.9,0,0,1-.12.62v.45l0,.27,0,.21-.09.11v0l.07.08v0l-.13.12.06.17v.34l0,.08,0,.15v.57c0,.83,0,1.63-.08,2.39l0,.1a4.53,4.53,0,0,0-.09.91v.3a.93.93,0,0,0-.08.39l0,0,0,.5v.29l-.09.48,0,0v0l-.05.42,0,0c0,.31-.08.47-.12.47l.06.41,0,.3,0,0,0,.15a4.23,4.23,0,0,1-.12,1.15v1.31l.09.23c-.1.28-.21.44-.36.47l-.14-.11c-.06,0-.11.17-.15.5l-.3.77-.15,0h-.05l-.12,0-.24.1h-.06l-.44,0-.12-.29V44.2a1.29,1.29,0,0,0,.09-.66v0l.05-.12a2,2,0,0,1,.06-.57l0-.11,0-.57,0-.17,0,0v0l-.06-.47,0-.27V41l0-.24,0-.23v-.19l-.05-.08c-.09,0-.19.11-.3.29a4.1,4.1,0,0,0-.71.83l-1.13,1.28a2.87,2.87,0,0,0-.6.83l-.55.59h-.19l-.11,0-.51.14-.27,0-.7,0a1.57,1.57,0,0,0-.57-.08l-.44,0L17.08,44a1.18,1.18,0,0,1,.3-.45l.07-.15,0,0h0l-.38,0-.12-.15-.2,0h-.07c-.08,0-.14-.26-.17-.66l0-.17c0-.16,0-.24-.05-.24l0-.21,0-1.21,0-.12,0-.12a1.16,1.16,0,0,1,.1-.57l0,0,0-.3v-.08l0-.12,0-.12,0-.12,0-.18-.1-1,.1-1,0-.15,0-.12-.1-.08v-.24l.07-.09,0-.18a1.81,1.81,0,0,0,.15-.65l-.08-.09v-.06l0-.68,0-.15-.1-.35v0c.05,0,.08-.17.1-.39l0,0,.15,0h0l-.12-.15.09-.14-.05-.1V32.9l-.07,0h0a.28.28,0,0,0-.14.24h0l-.09-.1v-.24s.08,0,.24,0,.14-.16.2-.48v-.09a.19.19,0,0,0-.12-.2l-.2.32h-.06l0-.15L16.34,32v0l.07-.08,0,0,0-.2v-.2l-.07-.1v-.09l.07-.08a4.17,4.17,0,0,1,.17-1.46h0l.12,0c.16,0,.24-.12.24-.35a.37.37,0,0,1,.21-.09l.12.09h.27l.08-.07H18l.1.07h.32l.09-.07s.08.09.23.15h0a.49.49,0,0,1,.26,0Zm-2.84,4.18,0,.06c0,.07,0,.11-.08.11l-.07,0v0Zm.26-2.26a.59.59,0,0,0-.17.39.42.42,0,0,0,.15.24l.05-.06v0l-.05-.09,0-.12,0-.12.08-.08v-.07Zm0,9v.35l0,.15c.1,0,.15.06.15.09l-.15.11,0,.22v.17l0,0v0a.35.35,0,0,0,.21.09l.09-.09-.06-.09V41.2l.06-.18h0l0,0v-.42l-.06-.08v0l.09-.11v-.19s-.08-.08-.18-.08Zm.15,1.36c-.09.22-.15.33-.19.33s.06.14.09.14h0l.18-.17v-.18Zm0-6v.12l.05.06.09-.09v-.09ZM18,34l-.06.09v.06l.06.06.06-.06v-.09Zm.83.15,0,0v0l0,.12-.07.05.07.1-.07.12,0,.08h.06l.12-.11v0s0-.05-.12-.08l0-.22v0Zm0-1.13v.07l.09.08h.06q0-.18.18-.18v-.05l-.1-.09h0Zm.23.33v0l0,.11s-.09.14-.26.27v.15h0l.12-.08h.15v0L19,33.71a.39.39,0,0,0,.1-.27v0L19,33.35Zm-.17-.77q0,.16.24.21l0,0v0l-.1-.12,0,0v0l-.08-.06Zm.15-.5,0,.14.05.06.07-.06v-.09L19,32.08Zm0,2.66v.09q.11.21.15.21h0l0-.15,0-.09,0-.2c0-.16,0-.24-.08-.24S19,34.48,18.93,34.74ZM19.72,31c0,.07,0,.1-.08.1a.73.73,0,0,0-.06.32l.09.12v.06a.7.7,0,0,0-.24.41v.07c0,.12.1.2.29.26l0,0v0l0,0H19.6l-.11-.09h-.06v.06l0,.45h0l.06.17c-.12,0-.18.06-.18.1v0q0,.09.12.09l.09,0v.09q-.18,0-.18.21l0,0v0l0,0h.09s.06,0,.06.1a.29.29,0,0,0,.2-.1l.07.07q0,.12-.39.12l0,0v0s0,.06.09.06l0,0v.05a.87.87,0,0,0-.15.42v0a.66.66,0,0,1,.18.29l-.12.1,0,.14v.06l-.09.3,0,0v0l0,.12v0a.35.35,0,0,1,.09.21v0l0,.12,0,0v0l0,.56v0l.09.12v.54l.12.15,0,.14a.59.59,0,0,0,.15.21l0,.09a.83.83,0,0,0,.18.53c0,.1,0,.15.07.15l.12-.09L20,38.12l.05-.48,0-.17.1-.09c-.23-.09-.34-.15-.34-.18v0c0-.05,0-.08.12-.08v0s0-.06-.12-.06l0,0v0s.08-.07.25-.07a.42.42,0,0,1,.12-.26v-.15c0-.05-.12-.08-.37-.11v0l.27-.08a.63.63,0,0,1,.15-.45v-.06s0-.06-.09-.06l0,0v0l.07-.1-.1-.09v0l.1-.12V35l.05-.09V34.8L20,34.57l.05-.24L20,34.21q0-.21.12-.21l0-.15v-.21l0-.15-.1-.08v-.06l.1-.12-.15-.12v0l.11-.15-.15-.15.09-.45,0-.26L20,32v0s-.05-.13-.05-.27l-.15-.12a.29.29,0,0,0,.12-.21l-.19-.15.09-.12v0l-.09-.1Zm-.26-.17.06.06h0l.09-.09v-.06Q19.46,30.73,19.46,30.8Zm.24,5h.05v0l-.08.09,0,0v0Zm.05-1.19,0,0v0l-.07.06,0-.06Zm2.59,1.07,0,.12-.09.15.09.09h.1s.05,0,.05-.09l0-.15a.2.2,0,0,0,.13-.18l-.1-.06Zm0,.56a.31.31,0,0,1-.07.21l.07.15h.08a.78.78,0,0,1,.09-.33l0,0Zm0-1.3v.44h0c.07,0,.13-.14.21-.41l0-.09h-.15Zm.23-2.43.09.08h.12l.08-.08v-.27l.07-.09V32.1l-.07-.05h0s-.06.09-.09.26Q22.69,32.31,22.57,32.52Zm.09,2.08v.08h.12l.06-.06,0,0Zm.47-4s0,.05-.12.08l0,.21a2.57,2.57,0,0,1-.36.92v0l.06.09.15,0,0,0h0a.89.89,0,0,0,.15-.44l-.06-.19c.08,0,.13-.14.15-.41v-.24Zm-.29,4.26v.06a.41.41,0,0,1,.12.27l-.1.08.07.07H23c.06,0,.12-.12.17-.3v-.44l-.08-.09h0A.58.58,0,0,0,22.84,34.83Zm0,1.13v.09L23,36v-.08h0Zm0,.5,0,0v0l.06.06,0,0v0Zm.07-1v0a.77.77,0,0,1,.08.33h0l.06-.06v0c0-.18-.08-.26-.12-.26ZM23,32.85l-.05.09.09.08h0l.08-.08S23.11,32.86,23,32.85Zm0,3.58,0,0v.06l.06.06,0,0v-.06Zm.45,3.68.12.09h.12c.06,0,.13-.17.2-.51l0,0h-.12A.88.88,0,0,0,23.46,40.11Zm.15.56,0,0,0,.18h.06v-.15ZM25,31.48l.12.09h.09l.09-.09,0-.24s.07-.07.09-.2l-.06-.24,0-.12h-.09c-.08,0-.13.14-.15.41Z"/><path class="cls-1" d="M29.19,41.41l.08.1v0A.71.71,0,0,0,29,42a1,1,0,0,0-.24.44l-.12.1v0l.1.12c0,.1-.12.17-.37.24V43l.12.17v.06l-.29.21q-.12,0-.12.27l-.18.18h-.05l-.07-.07a8.36,8.36,0,0,1,.63-1.18L28.8,42A1.48,1.48,0,0,1,29.19,41.41Zm-.92,2.64v0l-.06.07h-.12L28,44.08l0,0Zm8.41-14.47h.12l.1.07.15,0,.17,0h0l.09-.07h.92l.09.07.08-.07h.12l.1.07h.44a1,1,0,0,1,.26.38c1,.1,1.55.26,1.55.48l.23.68.09.09v.06s-.08.09-.24.12c0,0,0,.05-.08.05l0,0v.08l.18.18v.12l0,.27a2.82,2.82,0,0,1-.41.53l-.45.53s-.11.11-.23.33l-.66.86a13.89,13.89,0,0,0-.91,1.28s-.1.09-.21.26c-.05,0-.12.09-.21.26L37,37.5a7.09,7.09,0,0,1-.92,1.16,2.18,2.18,0,0,1-.5.59,3.27,3.27,0,0,0-.44.56,5.5,5.5,0,0,0-.84,1,2.81,2.81,0,0,1-.71.71l.07.06h.14c.08-.1.44-.16,1.07-.18h0c0-.11.57-.17,1.72-.17l.06-.06h.17l1.37-.09c.11.21.19.32.23.32h.75c.19,0,.34.22.47.66l.24.3v0l-.24.18h-.8l-.09.06q.24.63.63.63a2.31,2.31,0,0,1,.35.62l.18.32-.12.09h-.21A8,8,0,0,0,38,44.15l-.11,0-.69-.12-.35,0,0,0h0l-.08.1h-.36l-.08-.07h-.19l-.08.07h-.77l-.24,0-.24,0a13.66,13.66,0,0,0-2.16.23h0v0l-1.25.24h0q-.16,0-.27-.3l0,0h-.1l-.62,0a2.44,2.44,0,0,1-.5-.29c0-.1-.18-.21-.53-.34q-.2,0-.3.3l0,.09q-.14,0-.33.54H28.5l-.12-.12V44.4l.07-.08v-.09l-.12-.15v0q.39,0,.39-.27a1,1,0,0,1,.26-.32l.48-1.13,0,0v0a.73.73,0,0,0,.36-.6.31.31,0,0,0,.18-.32,2,2,0,0,0,.54-.78l0,0v0l0-.15c.19-.09.4-.42.62-1l.23-.38s.06-.1.06-.3a1.09,1.09,0,0,0,.27-.32s.11-.14.21-.42h0l0,0v0l.09-.11-.07-.06a2.57,2.57,0,0,0-.62.68l-.15.33a.29.29,0,0,0-.26.2v.15l.06.09v0l-.09.09h0l-.09-.06h0l-.09.09.15.3a.3.3,0,0,1-.3.15l-.15,0-.23.23V40c.12,0,.2.09.23.27l-.38.23,0,.18q-.33.18-.33.27c0,.12-.08.24-.26.36l-.06.06h0l-.05-.06a1.58,1.58,0,0,1,.24-.48,2.13,2.13,0,0,1,.38-.62q0-.09.21-.3a1.72,1.72,0,0,1,.23-.5c.15-.26.28-.41.39-.44v-.15a7.41,7.41,0,0,1,.8-1c.26-.38.46-.57.59-.57l.18-.11,0-.12-.09-.12v-.06a1.44,1.44,0,0,1,.5-.39c0-.11.07-.19.22-.24a2.17,2.17,0,0,1,.35-.52h.09l.2,0c0-.11,0-.17.12-.17l.15-.12h0l.06,0v.15s-.08.07-.24.09l0,0v0l.08.3.18.06h0a.32.32,0,0,1,.23-.15c0-.1.06-.15.1-.15l.09,0v0c0-.05-.08-.07-.24-.07L34,35.63l.06-.05.11.08h.12s.07,0,.07-.15.18,0,.18-.08v-.07l-.1-.11.1-.09,0,.06h.07c0-.12,0-.18.08-.18l.09,0,0,0v0l0-.09-.21,0-.06-.07c-.12,0-.19.09-.2.15l0,.12q-.24,0-.24.09v0l.06.08-.06.07H34l-.12-.12v0a.9.9,0,0,1,.21-.3l.53-.71a8.69,8.69,0,0,1,1-.79c.27-.3.47-.45.59-.45q.57-.63.72-.63v-.06l-.07-.05h0L36,32.22h-.15l-.09,0-.12,0-1.87.1h-.21a2,2,0,0,1-1-.15h-.74l-.24,0c-.48-.4-.72-.69-.72-.86l0-.32,0-.27a.32.32,0,0,1,.22-.08,1.33,1.33,0,0,0,.17-.45c0-.12.47-.21,1.39-.29l.09,0L33,30h0l.18,0,.17-.09h.07a.48.48,0,0,0,.29.09l.12-.12h.41l.1-.05h.05l.09.05A5.58,5.58,0,0,1,36,29.68l.12,0,.14-.06,0,0h0A.53.53,0,0,0,36.68,29.58Zm-7.14,12.1v.09h0l-.05-.06,0,0ZM32.92,38l0,.12-.18,0,0,0v0c-.11.1-.17.17-.17.21l0,.09-.12.09,0,.15c-.34.28-.51.49-.51.65a.72.72,0,0,0-.2.44q-.12,0-.18.15l0,.12a.27.27,0,0,0-.15.24c-.09,0-.14.13-.17.38q-.09,0-.42.66c.05.49.14.74.27.74h.05q.09,0,.24-.36l.15-.06,0-.09,0,0v0l0-.12c.06,0,.1-.11.13-.32.11,0,.27-.26.47-.77,0,0,.12-.17.21-.47q.18,0,.18-.24.09,0,.12-.3c.11,0,.26-.2.44-.59q0-.06-.12-.06v0a.77.77,0,0,0,.24-.33l.15.07v0l0-.15.07-.06v0q-.16-.27-.21-.27l-.21,0v0A.28.28,0,0,0,32.92,38Zm.27,1.71-.06.19s.07.08.09.23-.08.14-.12.15l0,0v0l.06-.06,0-.11,0-.1-.09,0H33l0,0h0l0,.08a1.73,1.73,0,0,1-.5.56q0,.15-.18.18v0l.06,0Q32,41,32,41.18l0,.15,0,0h0l-.1,0c-.05.14-.1.2-.14.2v.06q0,.12.12.12v.06q-.08,0-.39.33l.06.08-.06.21,0,0h0a3.14,3.14,0,0,1,.47-.59l0-.09a1.72,1.72,0,0,0,.44-.56l.06-.06L32.42,41l.06-.06.05.06.24-.18v0l-.05-.08.05-.1,0-.14a.54.54,0,0,0,.17-.39H33v.15l0,.21,0,0h.09q0-.12.24-.39l.06-.26ZM32.3,43l.06,0h.06l.06,0v0l-.06-.07C32.34,43,32.3,43,32.3,43Zm.27-5.61a.16.16,0,0,0,.18.12v-.09l-.1-.08Zm.3,3.06,0,0v0l.07.07,0,0v0Zm0,2.25v0l.07.06H33l.15,0v-.05ZM33,41.41l.09.07h0l.12-.3,0,0h0A.33.33,0,0,0,33,41.41Zm.21-3.93v.08l.12.21.09,0q0,.18.09.18h0s0,0,0-.12l0,0h0l0,.06.06-.06,0-.12,0-.15,0,0h0l-.14.11h0l-.18-.18h0Zm.33,2-.09-.06q-.13.06-.15.12l.06.06.09,0,.09.08,0,0v.06l.06.05s.11-.17.2-.5l0,0h0l0,0h0c0-.09-.06-.14-.18-.18s-.12.11-.12.33l0,0Zm-.12-2.31.05.06.07-.06-.07-.06Zm.44-.48,0,0v0c0,.12-.05.18-.08.18l-.19,0,0,.18,0,.17-.08.1s0,.08.12.08l0,0h0l.12,0s.06-.06.09-.18a.11.11,0,0,0,.12-.12c.08,0,.12,0,.12-.08V37c-.12,0-.18,0-.18-.05v-.06l.15,0-.15-.26Zm-.12,5.9,0,0v0q0,.08.39.15l.06-.09v-.06l-.06-.06h0l-.18,0Zm.12-3.71,0,0v0l.21.2,0,0v0C34,39,34,38.89,33.81,38.89Zm.06-.12v.1h0l.06-.06,0,0Zm.15,0c0,.09,0,.14.09.14s.2-.09.2-.12-.05-.05-.05-.14h0A.2.2,0,0,0,34,38.75ZM34.26,36v0l.05.09v0l-.05.08v0l.05.08v0c-.17.1-.26.18-.26.24l.09.12.12-.21c.11,0,.17-.06.17-.18h0l0,0v-.06l.1-.12A.34.34,0,0,0,34.26,36Zm.44-.21-.05.06-.12,0v.08h.14l.09-.08,0,0ZM34.58,38a.76.76,0,0,0,0,.33l0,0h0s.07,0,.07-.1l0-.09.09-.08Zm0-3.19,0,0h.05a.37.37,0,0,1,.12-.27l0,0h-.06S34.65,34.63,34.61,34.81Zm.78,3.31,0,.06.06-.08,0,0h0ZM37.13,37l.06.06.06-.06-.06-.06Zm.21-.23.06,0h0l.13-.12v0l-.06,0Zm.45-.89V36l.08.09h0a.79.79,0,0,0,.32-.35A5.12,5.12,0,0,1,38.8,35l.25-.39,0,0H39a2.87,2.87,0,0,0-.74.86.42.42,0,0,0-.21.33Zm2.42,8.23h.1v.07h-.1Zm.48,0,.14,0h.42l.07.06-.42.06-.09,0-.18,0,0,0v0Z"/><path class="cls-1" d="M44.45,41.41l.09.1v0a.67.67,0,0,0-.26.45,1,1,0,0,0-.24.44l-.12.1v0l.09.12c0,.1-.12.17-.36.24V43l.12.17v.06l-.3.21q-.12,0-.12.27l-.17.18h-.06l-.06-.07a8.36,8.36,0,0,1,.63-1.18l.38-.65A1.6,1.6,0,0,1,44.45,41.41Zm-.91,2.64v0l-.07.07h-.12l-.05-.07,0,0ZM52,29.58h.12l.09.07.15,0,.18,0h0l.1-.07h.91l.1.07.08-.07h.12l.09.07h.45a1.07,1.07,0,0,1,.26.38c1,.1,1.54.26,1.54.48l.23.68.1.09v.06s-.08.09-.24.12c0,0,0,.05-.09.05l0,0v.08l.18.18v.12l0,.27a2.54,2.54,0,0,1-.42.53l-.44.53s-.11.11-.23.33l-.66.86a14,14,0,0,0-.92,1.28s-.1.09-.2.26c0,0-.12.09-.22.26l-1,1.25a7.2,7.2,0,0,1-.91,1.16,2.38,2.38,0,0,1-.5.59,2.8,2.8,0,0,0-.45.56,6.34,6.34,0,0,0-.83,1,3.18,3.18,0,0,1-.71.71l.06.06h.15c.08-.1.43-.16,1.06-.18h0c0-.11.58-.17,1.72-.17l.06-.06h.18l1.37-.09c.11.21.19.32.23.32h.74c.19,0,.35.22.47.66l.24.3v0l-.24.18h-.79l-.1.06q.24.63.63.63a2.07,2.07,0,0,1,.35.62l.18.32-.12.09h-.2a8.08,8.08,0,0,0-1.58-.14l-.11,0-.68-.12-.36,0,0,0h0l-.09.1h-.36l-.08-.07h-.18l-.09.07H50.5l-.24,0-.24,0a13.66,13.66,0,0,0-2.16.23h0v0l-1.26.24h0q-.16,0-.27-.3l0,0h-.09l-.62,0a2.11,2.11,0,0,1-.5-.29c0-.1-.18-.21-.54-.34q-.18,0-.3.3l0,.09c-.09,0-.19.21-.32.54h-.15l-.12-.12V44.4l.06-.08v-.09l-.12-.15v0q.39,0,.39-.27a1.28,1.28,0,0,1,.26-.32l.48-1.13,0,0v0a.73.73,0,0,0,.36-.6.32.32,0,0,0,.17-.32,2,2,0,0,0,.54-.78l0,0v0l0-.15c.2-.09.4-.42.62-1l.23-.38s.07-.1.07-.3a1.09,1.09,0,0,0,.27-.32s.1-.14.2-.42h0l0,0v0l.09-.11-.06-.06a2.4,2.4,0,0,0-.62.68l-.15.33a.31.31,0,0,0-.27.2v.15l.07.09v0l-.1.09h0L46,39.22h0l-.09.09.15.3q-.06.15-.3.15l-.14,0-.24.23V40c.13,0,.2.09.24.27l-.38.23,0,.18c-.21.12-.32.21-.32.27s-.09.24-.27.36l-.06.06h0l-.06-.06a1.58,1.58,0,0,1,.24-.48,2.13,2.13,0,0,1,.38-.62c0-.06.07-.16.22-.3a1.46,1.46,0,0,1,.23-.5c.15-.26.28-.41.39-.44v-.15a6.7,6.7,0,0,1,.79-1q.39-.57.6-.57l.17-.11,0-.12-.09-.12v-.06a1.27,1.27,0,0,1,.5-.39q0-.16.21-.24a2.17,2.17,0,0,1,.35-.52h.09l.21,0c0-.11,0-.17.12-.17l.15-.12h0l.07,0v.15s-.08.07-.24.09l0,0v0l.08.3.19.06h0a.32.32,0,0,1,.23-.15q0-.15.09-.15l.09,0v0c0-.05-.08-.07-.24-.07l-.12-.15.07-.05.11.08h.12s.06,0,.06-.15.18,0,.18-.08v-.07l-.09-.11.09-.09.06.06h.06c0-.12,0-.18.08-.18l.1,0,0,0v0l0-.09-.22,0,0-.07c-.13,0-.19.09-.21.15l0,.12q-.24,0-.24.09v0l.07.08-.07.07h-.15l-.12-.12v0a.9.9,0,0,1,.21-.3l.53-.71a8.69,8.69,0,0,1,1-.79c.28-.3.47-.45.6-.45.37-.42.61-.63.71-.63v-.06l-.06-.05h0l-.8-.07h-.15l-.09,0-.12,0-1.86.1h-.21a2,2,0,0,1-1-.15h-.74l-.24,0c-.47-.4-.71-.69-.71-.86l0-.32,0-.27a.28.28,0,0,1,.21-.08,1.11,1.11,0,0,0,.18-.45c0-.12.46-.21,1.39-.29L48,30l.27,0h0l.17,0,.18-.09h.06a.49.49,0,0,0,.3.09l.12-.12h.41l.09-.05h0l.1.05a5.45,5.45,0,0,1,1.48-.17l.12,0,.15-.06,0,0h0A.57.57,0,0,0,52,29.58Zm-7.14,12.1v.09h0l-.06-.06,0,0ZM48.19,38l0,.12-.18,0,0,0v0q-.18.15-.18.21l0,.09-.12.09,0,.15c-.34.28-.51.49-.51.65a.72.72,0,0,0-.21.44A.18.18,0,0,0,47,40l0,.12a.26.26,0,0,0-.14.24c-.09,0-.15.13-.18.38q-.09,0-.42.66c.06.49.15.74.27.74h.06q.09,0,.24-.36l.15-.06,0-.09,0,0v0l0-.12c.05,0,.09-.11.12-.32.12,0,.27-.26.47-.77,0,0,.12-.17.21-.47q.18,0,.18-.24.11,0,.12-.3c.12,0,.27-.2.45-.59q0-.06-.12-.06v0a.86.86,0,0,0,.24-.33l.14.07v0l0-.15.06-.06v0q-.15-.27-.21-.27l-.2,0v0Q48.21,37.89,48.19,38Zm.27,1.71-.07.19s.08.08.09.23-.07.14-.12.15l0,0v0l0-.06,0-.11,0-.1-.08,0h-.09l0,0h0l0,.08a1.85,1.85,0,0,1-.5.56c0,.1-.06.16-.19.18v0l.07,0q-.27.24-.27.39l0,.15,0,0h0l-.09,0c-.06.14-.11.2-.15.2v.06q0,.12.12.12v.06s-.17.11-.39.33l.07.08-.07.21,0,0h0a2.69,2.69,0,0,1,.47-.59l0-.09a1.72,1.72,0,0,0,.44-.56l.06-.06L47.69,41l.05-.06.06.06.24-.18v0L48,40.74l.06-.1,0-.14a.51.51,0,0,0,.18-.39h.05v.15l0,.21,0,0h.1q0-.12.24-.39l.05-.26ZM47.57,43l0,0h.07l.05,0v0l-.05-.07C47.61,43,47.57,43,47.57,43Zm.27-5.61c0,.08.07.12.17.12v-.09l-.09-.08Zm.29,3.06,0,0v0l.07.07,0,0v0Zm0,2.25v0l.07.06h.06l.14,0v-.05Zm.13-1.31.09.07h0l.12-.3,0,0h0A.32.32,0,0,0,48.22,41.41Zm.21-3.93v.08l.11.21.09,0q0,.18.09.18h0s.06,0,.06-.12l0,0h0l.06.06,0-.06,0-.12,0-.15,0,0h0l-.15.11h0l-.17-.18h0Zm.32,2-.09-.06q-.13.06-.15.12l.07.06.08,0,.09.08,0,0v.06l.06.05s.11-.17.2-.5l0,0h0l0,0h0c0-.09-.05-.14-.17-.18s-.12.11-.12.33l0,0Zm-.12-2.31.06.06.06-.06-.06-.06Zm.45-.48,0,0v0c0,.12-.05.18-.08.18l-.18,0-.06.18.06.17-.09.1s0,.08.12.08l0,0h0l.12,0s.06-.06.08-.18a.11.11,0,0,0,.12-.12c.08,0,.12,0,.12-.08V37c-.11,0-.17,0-.17-.05v-.06l.14,0-.14-.26ZM49,42.6l0,0v0q0,.08.39.15l0-.09v-.06l0-.06h0l-.18,0Zm.12-3.71,0,0v0l.2.2,0,0v0C49.28,39,49.21,38.89,49.08,38.89Zm.05-.12v.1h0l0-.06,0,0Zm.15,0c0,.09.06.14.09.14s.21-.09.21-.12-.06-.05-.06-.14h0A.21.21,0,0,0,49.28,38.75ZM49.52,36v0l.06.09v0l-.06.08v0l.06.08v0c-.18.1-.26.18-.26.24l.08.12.12-.21a.16.16,0,0,0,.18-.18h0l0,0v-.06l.09-.12A.34.34,0,0,0,49.52,36Zm.45-.21-.06.06-.12,0v.08h.15l.08-.08,0,0ZM49.85,38a.75.75,0,0,0-.06.33l0,0h0s.06,0,.06-.1l0-.09.1-.08Zm0-3.19,0,0H50a.37.37,0,0,1,.12-.27l0,0H50S49.92,34.63,49.87,34.81Zm.78,3.31.06.06,0-.08,0,0h0ZM52.39,37l.07.06,0-.06,0-.06Zm.22-.23,0,0h0l.12-.12v0l-.06,0Zm.44-.89V36l.08.09h0a.69.69,0,0,0,.32-.35,5.12,5.12,0,0,1,.57-.74l.26-.39,0,0h0a2.86,2.86,0,0,0-.75.86.42.42,0,0,0-.21.33Zm2.43,8.23h.09v.07h-.09ZM56,44l.15,0h.41l.07.06-.42.06-.09,0-.18,0,0,0v0Z"/><path class="cls-1" d="M60.46,29.46l.15.09.27-.09c.18.06.26.11.26.14v.54l-.09.5c.05.18.1.27.18.27a.57.57,0,0,1,.29-.09h.15c.08,0,.12.09.12.14l-.09.45q.11.21.15.21h0l.11-.09.09.06h0l.09-.06.23.12,0,.12-.07.35,0,.1,0,.29v1.81l0,.27,0,.08.07.36-.09.11s-.08,0-.1-.11h0l-.09.08v.27l-.06.06-.15,0-.06.09v.09l.06.18H62l.09-.06h0l.06.06v0s-.07.08-.21.12l0,.15,0,0h0l.12-.1.09.12a.49.49,0,0,1-.12.36l.09.14-.09.15.17.22v.12l0,.08v.12l0,.06h.07l0,0h0l0-.12,0-.41,0-.24,0-.06v-.09l-.15-.18V36.1l.12-.18-.08-.3v-.21l.08-.08.1.05,0,.21,0,.29,0,.12,0,.18,0,0v0l.05.12,0,.21v.12l0,.18,0,0v0l0,.42v.17l.06.1v0l-.06.07h0l-.12-.12,0-.09v-.06h0c-.06,0-.1.11-.12.32l0,0v.07l0,.08V38a3.33,3.33,0,0,0,.12.88l0,.18v.32l-.06.1v0l.08.14,0,.23.09.1v0l-.07.09v0l.07,0,.11,0,0,0V41s0,0-.12,0l0,0v0l.2.15h.47c1.41,0,2.11.12,2.11.38a.08.08,0,0,1,.09.09c.24.23.39.35.44.35a2,2,0,0,1,.33.59l.24.33v.09l-.09.12v0l.09.17,0,0c.57,0,.86.08.86.24a2,2,0,0,0,.42.79v0l-.15.12-.15,0H67L67,44.48a3.9,3.9,0,0,1-1.25-.11H63.78l-.09.05h-.06l-.09-.05h-.09l-.08.05h0c-.67,0-1,0-1,.12H62l-.09-.06h-.59l-.09.06h-.15l-.23-.06h-.21c-.46,0-.68-.1-.68-.3l-.45-.59v0s.13-.11.38-.2v-.07l-.12-.14a.19.19,0,0,1,.19-.09h0l0,0h0c.14-.11.22-.17.22-.2l-.3-.1a1,1,0,0,1-.15-.65l-.09-.06h-.45l-.14-.18v-.17l0-.09,0-.09v-.44l0-.1v-.09l0-.08v0l0-.09,0-.09v-.21l0-.15,0-.09,0-.77v-.17l0-.12,0,0L59,37.34l0-.12s-.06,0-.06-.09l-.06-1.45s-.07-.1-.09-.3l0,0v0l-.06-.57,0-.44-.06-.3,0-.09-.06-.42,0,0v0l0-.27,0-.12a1.22,1.22,0,0,1-.06-.47v-.27l-.06-.09.06-.09V31.8l-.06-.09v-.3l.06-.08v-.27l-.06-.1v-.05l.09-.39,0-.15.06-.44v-.12l.06-.06H59a1.18,1.18,0,0,0,.39-.05l.39.11h.06c.08,0,.14-.15.2-.33l0,0Zm-1.33,6.78v.09l0,.06.19-.24,0,0h-.08Zm0-1.51v.06l.07.06h.05l.06-.06Zm.24.83v0l.06.06h.06v-.09l-.06-.06Zm0,.8v0h.12l.06-.06v-.06l-.06-.05Zm.92-4.44v.17l0,.18,0,.15-.18,0-.09-.11,0,0h0l-.26.29.12.19.29-.24h.06s.08.07.15.2l-.21.12s-.11.08-.35.09V33c0,.22,0,.32.06.32a.94.94,0,0,0,.39-.23l.05.06v.21c-.11,0-.27.12-.47.35V34l.12.15-.12.15v0c0,.12.18.17.38.17l0,0v0l-.22.12-.2.36a.86.86,0,0,1,.2.35l.07.06v0l-.07.08.07.09-.12.27L60,36l.21,0,.24.05.2-.2v-.1l0-.08v0l0-.09-.11-.17.09-.18,0-.12,0-.09q-.3-.24-.3-.36a.56.56,0,0,1,.27-.12v0l-.1-.12v0l.07-.09V34l0,0v0l-.1,0v0l.07-.22-.12-.29a.56.56,0,0,0,.09-.36v-.06a.35.35,0,0,0-.12-.23v0l.15-.15v0l-.07-.17h0l.06-.38,0-.12h0ZM60.22,34h.06v.06l-.12.12,0,.15v0l0,0h0l-.07,0v-.06Q60.13,34,60.22,34Zm-.11,2.55v.23l-.07.1v.05c.08.18.15.28.22.3v.06h0l0,.3,0,.27.12.08.09-.12v-.06l-.09-.12v0l.06-.12,0-.15q.12,0,.12-.06v-.21l0-.3s0-.05-.08-.15Zm.35-5.31-.12.39,0,0h.09s.07,0,.09-.15l0,0v0l0-.11Zm-.12,7.24,0,0v0l0,.18v0l.12.11,0-.09,0-.14.09-.1c0-.11-.08-.17-.12-.17ZM60.49,31l0,0v0l0,.05,0,0v0Zm0,8.27q0,.15.09.15s.06,0,.08-.15l0,0h-.09l0,0ZM60.66,37v.12l.1.08c.05,0,.08-.08.09-.23l-.09-.07Zm0,.47,0,.15-.07.09v0l.15.2.12-.23v-.19l-.08-.08h-.09l0,0Zm.18.71a.31.31,0,0,0-.1.2l.1.1h0L61,38.4C61,38.25,60.93,38.17,60.88,38.17Zm-.07-4.24v0l.12.12a.48.48,0,0,0,.33-.18v0s0-.06-.09-.06l0,0v-.2h0s-.08.09-.11.27C60.87,33.87,60.81,33.9,60.81,33.93Zm0,.59v0l.08.12v0l0,.09,0,0h0q.24-.07.24-.12a.47.47,0,0,0-.09-.26C60.93,34.46,60.85,34.48,60.85,34.52Zm0,4.51v.09l0,.06L61,39v0L61,38.94ZM61,35v0l0,.12,0,.08q.07.18.12.18l.06-.06-.06-.05v0l.18-.11v-.07s-.08-.08-.18-.08Zm0-2.11V33h0l.06-.06L61,32.92Zm0,.3c0,.05,0,.08.14.09l.06-.09v0l0,0v0C61.06,33.16,61,33.18,61,33.22Zm0,2.66V36l.15,0v-.06l-.06-.06Zm0,1.28q0,.24.09.24h.06l0-.15.09-.09,0,0h-.12l0,0Zm.74-3.85v.29l0,.18c0,.22.06.32.2.32l.06-.05v0s-.06-.08-.14-.12l0-.15,0-.12.11-.12,0-.38h-.08C61.82,33.15,61.79,33.21,61.79,33.31Zm0-.42.1.07.11-.12v-.1h-.06Zm0,1.36v.39l.12.15,0,.3v.09l0,.06h0l.09-.1v0S62,35,62,34.88h0l.09-.44-.21-.24Zm.06,3.45-.06.08.1.07,0,0v-.06ZM62,39.29v.07h0l.09-.1,0,0h0Zm.21-5.21.06.17h0l0-.17L62.24,34Zm0,.68v.15l.06.06h0V34.7h0Zm.32,3.17.06.07v0l-.06.06h0l-.07-.06v0Zm0,.3h0l.06.06v.15l-.06.06q-.09,0-.09-.18v0Zm.05.47.07.06v.65l-.07.07,0,0h0l0-.23-.05-.39Zm0,1h.1v.12h0l-.06-.06Z"/><path class="cls-1" d="M75.31,28.85h.09q.18.27.3.27a2.22,2.22,0,0,1,.47.42l.23,0q.13-.27.24-.27l.3.09.44-.06s.12.15.35.33.29.38.49.38a.39.39,0,0,1,.25.36l.39.65c.1,0,.15.07.15.2l.74,1a2.48,2.48,0,0,1,.48.81c.06,0,.09.15.09.47l0,0h-.06q-.14,0-.36-.42l-.06.09v.15l0,.15q-.15,0-.15.3l-.1.08h0s-.07-.09-.07-.26l-.08-.06a1.83,1.83,0,0,0-.59.29c-.08,0-.25-.19-.51-.53,0,0-.11-.12-.21-.36a5.49,5.49,0,0,0-.94-1.12,4.21,4.21,0,0,0-.45-.74q0-.13-.27-.21a7.07,7.07,0,0,1-1,1.51A5.43,5.43,0,0,0,74.32,34l-.52,1.07v0l.08.09h.51l.12-.06.18.06h.38l.09-.06h0l.1.06h.56l.18-.06a.8.8,0,0,0,.39.08l.2,0c.43.06.65.15.65.26s0,.12.06.36l-.41.06v0c.06,0,.1.06.12.17l0,0,.12,0,.2,0,.12.27v.14a.73.73,0,0,0-.09.42V37l0,.3a1.09,1.09,0,0,1-.77.24l-1.34-.06h0l-.1-.06h0a4.86,4.86,0,0,0-1.25.27v.12a.83.83,0,0,1,.24.38q.1,0,.27.39a.53.53,0,0,1,.24.39.38.38,0,0,1,.26.38c.08,0,.3.25.65.76l.39.51.21.23V41l-.1.18h0l0,0h0l.24-.23a1.22,1.22,0,0,1,.44-.74l0,0h0l.29,0a2.51,2.51,0,0,1,.45-.51l.71,0h.06l.17.24.15,0H79l.09.09v.06a7.07,7.07,0,0,0-.41,1.75v.26a12.24,12.24,0,0,0-.39,1.78c0,.16-.33.28-1,.36l-.75,0a1,1,0,0,0-.62.21l-.21-.12h0l-1.1.24h0v0a2,2,0,0,1,.66-.54v-.12l-.12-.15-.62.39-.24.09h0q-.17,0-.24-.21a4.58,4.58,0,0,1-.5-.74s-.08-.06-.12-.18a11.46,11.46,0,0,1-.8-1.21,2.09,2.09,0,0,1-.36-.54l-.35-.62c-.27,0-.52-.31-.74-.95,0,0-.15-.19-.3-.56l-.41-.77-.57-1a10.69,10.69,0,0,0-.62-1.18v0l.06-.07.14,0,0,0v0a2.79,2.79,0,0,0-.27-.66L69,35l-.15-.33v0c.22-.05.49-.3.81-.74l1-1.09c.48-.52,1-1.09,1.45-1.72a6.48,6.48,0,0,1,1.4-1.27,2.55,2.55,0,0,1,.62-.45l.15,0h.15a.87.87,0,0,1,.35-.24l.18.06s.1-.12.29-.24Zm-4.25,8.39,0,.09v0s.07.07.2.08l0,0v0Zm.45,0-.06.15c.14.11.21.2.21.25h.09l.09-.08C71.74,37.33,71.63,37.22,71.51,37.22Zm.48.15v.14c-.16.13-.24.22-.24.26a4.51,4.51,0,0,0,.42.86.47.47,0,0,0,.12.3v.15l.26,0,0-.09-.09-.14v-.13c.14-.11.2-.21.2-.29s-.09-.1-.29-.12l0,0v0s0,.06.09.06l0,0v0l-.09.1-.11-.12,0,0v0q-.09,0-.21-.36a.2.2,0,0,1-.11-.2v-.06l.18-.19v-.14l-.12-.11ZM71.81,37l0,0v.07l.12.14h0l.06-.06v-.06A.19.19,0,0,0,71.81,37Zm.48.77-.1.12q.14.24.21.27h0l0,0V38a.33.33,0,0,1-.15-.23l0,0Zm0-1.39v0l.09,0,.06-.08,0,0h-.06Zm.12-.2,0,0h.06a.56.56,0,0,1,.33-.15l0,0v0l0,0h0Q72.4,36.09,72.37,36.18Zm.09-1.72v0l.06.07.06-.07V34.4h-.06Zm.3,4.5a.4.4,0,0,1,.2.33l.15.15,0,.18.1.05h0l.06-.05V39.5l-.38-.62C72.81,38.9,72.76,38.93,72.76,39Zm2.84-7.44a6,6,0,0,1-.91,1c0,.11,0,.16-.1.18h0l0,0h0a3.88,3.88,0,0,0-.48.71,1.15,1.15,0,0,0-.33.45.55.55,0,0,0-.26.44.61.61,0,0,0-.18.45c-.05,0-.14.07-.27.23v.09l.09.09h0q.57-.07.57-.24s.06-.12.09-.35l.11-.27,0-.12q.08,0,.12-.18H74l.09,0v0a.33.33,0,0,1,.12-.21,1.57,1.57,0,0,1,.45-.77,1.75,1.75,0,0,1,.56-.74s0-.08.11-.08a1.76,1.76,0,0,0,.36-.63Zm-2.31,8.3q0,.15.27.36l0,.15.41.44,0,0a1.46,1.46,0,0,0-.35-.62c-.09-.24-.16-.36-.21-.38h0Zm.41-3.38.24.09.06-.05,0,0h0l.5-.09,0,0,.12-.11.12.08h0l.09-.12H75l.09,0v-.07l-.06,0H75l-.09,0-.3,0c0,.08,0,.12,0,.12h-.12v0l0-.08,0,0h0l-.21.06-.09-.1q-.39,0-.39.27Zm.24.8v.06l.06.07h0l.06-.07L74,37.24ZM74,38.75v.13a.36.36,0,0,1,.09.26l0,0h.09l.06-.06c0-.28-.07-.41-.15-.41h-.06Zm.27-1.51v0l.06.06h.06l.12-.11-.12-.1Zm0,2,.06.07.06-.15h0Zm.24,0,0,0v0l.06.07.05-.07Zm.2.39.07.11.08,0c0-.1,0-.16-.08-.17S74.74,39.53,74.74,39.59Zm.07,1.92v.06h0ZM75,39.82l0,0v.09c.14,0,.24.17.29.5.07,0,.1.07.1.21s.14.07.27.21h0l0-.15.12-.12s-.06-.06-.17-.06a.88.88,0,0,1-.3-.53C75.25,39.93,75.15,39.88,75,39.82Zm.12-4.42,0,0v0l.11,0v0l0,0h0ZM75.13,42l.3.53,0,0h0a.29.29,0,0,0,.22-.12.6.6,0,0,0-.27-.32.48.48,0,0,0-.18-.25Zm.32-5.69,0,0h0l.07-.07,0,0h0Zm.1,4.94v.1l.11.05v-.09l-.06-.06Zm.11,2-.06.15.1.08.14,0,.06.07V43.5q-.15-.12-.15-.18Zm.09-7.11,0,0v0l0,0,.15,0h.09v0a.26.26,0,0,1-.21-.1Zm.15,5.71v0L76,42H76l.06-.06L76,41.87Zm.39.22-.07.14.22.21,0,0,.27.44h.09c.09,0,.14-.07.15-.11v-.09q-.3-.48-.42-.48l-.09,0C76.36,42.19,76.33,42.14,76.29,42.14Zm1.86.62,0,0h0l.14-.17v-.24l-.06-.06S78.22,42.46,78.15,42.76Z"/></svg>