<svg id="Слой_1" data-name="Слой 1" xmlns="http://www.w3.org/2000/svg" viewBox="0 0 131.48 50"><defs><style>.cls-1{fill:#ffdd06;}.cls-2{fill:#43bac2;}</style></defs><path class="cls-1" d="M51.89,20.62a3.51,3.51,0,0,1-1.78,1.61,17.65,17.65,0,0,1-4.43,1.28c-1,.17-2,.31-3,.42l-1.4.16-1.1.13-1.34.19-.59.13-.77-4.4-.15-.87.84,0,.72,4.05.59-.13c.19,0,.63-.1,1.34-.19l2.5-.3c1-.1,2-.24,3-.42A17.19,17.19,0,0,0,50.75,21,4.37,4.37,0,0,0,52,20.16,2,2,0,0,1,51.89,20.62Zm.92-3.72a1.8,1.8,0,0,1,.12,1.62,3.49,3.49,0,0,1-1.77,1.61,17.36,17.36,0,0,1-4.43,1.28q-1.51.25-3,.42L42.37,22l-1.11.13-1.33.19-.6.13-.77-4.39-.16-.88,1,0,2.11.06c.83,0,1.64,0,2.41,0a9.5,9.5,0,0,0,1.4-.12c-.33-.29-.69-.58-1.07-.87l-.67-.49-.68-.52a14.89,14.89,0,0,1-1.27-1,6.06,6.06,0,0,1-1.53-1.82,1.61,1.61,0,0,1-.07-1.4,2.2,2.2,0,0,1,.52-.71,1.64,1.64,0,0,0,.2.92,5.7,5.7,0,0,0,1.51,1.82c.4.35.82.69,1.28,1l.68.52.66.48c.46.37.84.67,1.13.93a3.28,3.28,0,0,1,.67.75h0c.46-.23.6-.53.4-.9a3.34,3.34,0,0,0-.68-.76c-.29-.25-.66-.56-1.12-.92l-.66-.49q-.35-.24-.69-.51c-.46-.34-.88-.68-1.28-1a5.76,5.76,0,0,1-1.51-1.81,1.55,1.55,0,0,1-.07-1.4,2.28,2.28,0,0,1,1.23-1.17A13.77,13.77,0,0,1,45.62,7L47,6.8l1.55-.21,1.68-.21,1.72-.22L52,7.22c0,.35.08.68.12,1s.08.63.11.88.05.47.08.64a1.37,1.37,0,0,1,0,.61c0,.06-.24.1-.56.12s-.86.08-1.32.14l-1.55.18a4.73,4.73,0,0,0-1.85.5c-.15.15-.1.37.17.67h0a11.88,11.88,0,0,1,1.29-.25c.49-.07,1-.13,1.56-.19l.67-.07.53,0a3.92,3.92,0,0,0,.06.45c0,.35,0,.55,0,.61a1.29,1.29,0,0,1-.56.12l-1.32.13-.62.08-.57.06c.3.24.64.49,1,.77.53.38,1.08.79,1.65,1.24A8.08,8.08,0,0,1,52.81,16.9ZM47.24,12h0Z"/><path class="cls-1" d="M60.54,18.11A1.52,1.52,0,0,0,62,19.42a5.11,5.11,0,0,0,3-.51A6,6,0,0,0,66.28,18c.48-.42.84-.75,1.08-1l.44-.41.39-.36.7-.63,1.35,3c-.23.26-.46.51-.7.76l-.69.73a18.62,18.62,0,0,1-1.37,1.33,9.09,9.09,0,0,1-2.86,1.72,10.88,10.88,0,0,1-3.32.64,7.8,7.8,0,0,1-1.38-.06,6.55,6.55,0,0,0,2.34.27,11.06,11.06,0,0,0,3.32-.63,9.24,9.24,0,0,0,2.85-1.74,17.84,17.84,0,0,0,1.38-1.31l.68-.74.7-.76-1-2.25.23-.2,1.35,3-1.39,1.49A18.62,18.62,0,0,1,69,22.17a9.35,9.35,0,0,1-2.86,1.72,10.94,10.94,0,0,1-3.32.64,6.22,6.22,0,0,1-3-.53,4.77,4.77,0,0,1-.76-.44h0a3.5,3.5,0,0,1-.78-.3A5.32,5.32,0,0,1,55.93,21a5.91,5.91,0,0,1-.65-3.38,8.91,8.91,0,0,1,.36-1.88A11.7,11.7,0,0,1,56.31,14a10.12,10.12,0,0,1,2.21-3.1,21.81,21.81,0,0,1,1.85-1.61c.7-.55,1.38-1,2.05-1.47S63.7,7,64.27,6.7l.86-.42L66,5.85,69.86,8.7l-1.85,5L65,14l.14-3.1c-.4.24-.75.45-1.06.66a7.45,7.45,0,0,0-1.06.85,9.06,9.06,0,0,0-1.92,2.74A5.29,5.29,0,0,0,60.54,18.11Zm-1.26,5.5s0,0,0,0S59.28,23.62,59.28,23.61ZM62,18.84a1.38,1.38,0,0,0,.19.57,1.4,1.4,0,0,1-.74-1.09,5.25,5.25,0,0,1,.6-3A9.07,9.07,0,0,1,64,12.57a7.15,7.15,0,0,1,1.06-.86l0,0,0,0,0,.95a5.71,5.71,0,0,0-.53.47,8.9,8.9,0,0,0-1.93,2.74A5.28,5.28,0,0,0,62,18.84Zm9.31-9.41-1.85,5-3,.26,0-.57L69,13.89,70.77,9Z"/><path class="cls-1" d="M76.8,7.4a10.93,10.93,0,0,1,2.31-.78c.65-.15,1.3-.27,1.93-.36a16.42,16.42,0,0,1,2-.17,4,4,0,0,1,2.56.56,2.86,2.86,0,0,1,1,1.9A4.05,4.05,0,0,1,86.14,11,9.41,9.41,0,0,1,84,13.66c-.51.46-1,.88-1.49,1.24s-1,.73-1.21.9a3,3,0,0,0-.45.37s.09,0,.3,0h1.29a4,4,0,0,0,.35-.26,18.52,18.52,0,0,0,1.48-1.25,9.25,9.25,0,0,0,2.17-2.64,4.09,4.09,0,0,0,.42-2.46A3.88,3.88,0,0,0,86.68,9a3,3,0,0,1,.85,1.77,4.08,4.08,0,0,1-.42,2.45A9.43,9.43,0,0,1,85,15.82l-.23.21-.23.2h4.32l-1.34,5.6-8.85-3.91.09,5.87-5-2.44L76.48,7.59Zm12,11h.94L88.43,24l-8.84-3.9L79.67,26l-5-2.44.13-.69,4.14,2L78.9,19l8.85,3.91,1.08-4.49Zm-9.43-4.9.19-2.12a4,4,0,0,1,1.18-.33q1.15-.24,1.68-.3h0a1.74,1.74,0,0,0,.23-.48c.11-.35,0-.55-.32-.61a10.53,10.53,0,0,0-1.62.26,6,6,0,0,0-1.42.37L79,13.68a4.59,4.59,0,0,0,.86-.42C79.71,13.37,79.56,13.45,79.42,13.52Zm.48-.26,0,0Zm0,0h0Zm.06,0h0Zm0,0,0,0Zm.06,0h0l0,0Zm0,0h0Zm0,0,0,0Zm.06-.05h0Zm.07-.55,0,.54a6.82,6.82,0,0,0,.93-.8A4.15,4.15,0,0,0,80.3,12.49Zm1.78-1.22s0,0,0,0,0,0,0,0l0,0Zm.07-.08h0l0,0Zm0,0h0l0,0ZM82.3,11l0,.06,0-.06.06-.06Zm.08-.1v0h0Zm.05-.07,0,0Z"/><path class="cls-1" d="M100.12,17.24,102,6.87,105.28,6,103.6,20l-7.82,3.55-4.13-3.67L95.8,7.37l4.24-.3L96.9,18.32,98,17.94l.45-.15Zm6.51-9.39-1.69,13.94-7.82,3.54L93,21.67l.12-.39,3.47,3.07,7.82-3.55L105.94,8Zm-6.08,1.09.84-.06L98,17.94Zm-1.61,8.7,2.45-8.76Z"/><path class="cls-1" d="M121.23,8.13l1-3.17,4.49,1.57,1.4,13.83L121.37,23l1.17-11.86-1.64,6.45-4.41,1.51L115,25.66l-.2-.14-.62-.4c-.42-.26-1-.65-1.79-1.17l-.91-.61-.81-.54-.62-.47,0-.1.62.43.69.45.93.62.86.56.62.41.2.13,2.31-10.26,0-3.72-2.94,13.08-.21-.13c-.14-.08-.35-.22-.62-.4l-.86-.56-.93-.62-1.71-1.15-.62-.48L114.7,7.46,119.48,5l.72,6.43.37-1.2-.34-3.07.84-.43Zm-4.89,6.44,0,4.6Zm1.54,6.33,0-1.18,3.6-1.24.51-2-.3,3.12ZM128.27,8.26l1.41,13.83L123,24.73l.12-1.28,5.61-2.2L127.34,7.93Z"/><path class="cls-1" d="M46.5,26.56a12.7,12.7,0,0,1,1.38-.1,7.51,7.51,0,0,1,1.36.07,3.49,3.49,0,0,1,1.93.91,2.28,2.28,0,0,1,.6,1.53,3.75,3.75,0,0,1-.53,1.84,13.8,13.8,0,0,1-1.64,2.46c-.35.44-.68.81-1,1.11s-.77.74-1.22,1.15-1,.93-1.63,1.47l-.94.81-1,.83.2,4.37-5-.69,1.34-13.63.92-.4.92-.4c.56-.25,1.11-.48,1.63-.68A13.18,13.18,0,0,1,46.5,26.56Zm5.66,2.22a2.24,2.24,0,0,1,.61,1.53,3.75,3.75,0,0,1-.53,1.84,14.16,14.16,0,0,1-1.63,2.47,12.86,12.86,0,0,1-1,1.09c-.32.33-.73.72-1.21,1.17l-1.64,1.46-.94.82-1,.82.2,4.37-5-.69,0-.54,4.41.61-.2-4.38,1-.81.94-.82,1.63-1.46c.48-.44.88-.83,1.22-1.17a12.4,12.4,0,0,0,1-1.09,15.33,15.33,0,0,0,1.65-2.46,3.92,3.92,0,0,0,.52-1.84A2.45,2.45,0,0,0,52,28.6ZM44,33.66c0-.47-.06-.86-.06-1.15a1,1,0,0,1,.08-.56,1,1,0,0,1,.37-.21l.32-.11.41-.15.44-.14L46,31.2a4.4,4.4,0,0,1,1.42-.29h.11a.84.84,0,0,0,0-.31.62.62,0,0,0-.62-.43,4.36,4.36,0,0,0-1.42.29c-.19.06-.49.15-.88.29s-.48.16-.73.25a.92.92,0,0,0-.37.21,1,1,0,0,0-.08.55c0,.33,0,.72.06,1.16l.09,1.14a1.87,1.87,0,0,0,.06.49s.07,0,.18-.08l.2-.15C44.08,34.14,44.06,33.91,44,33.66Zm2.52-1.84-.88.29-.72.26a.86.86,0,0,0-.38.21,1.13,1.13,0,0,0-.08.54c0,.29,0,.59,0,.89l.3-.25.35-.29c.36-.31.69-.62,1-.92a10.3,10.3,0,0,0,.88-.88A4.73,4.73,0,0,0,46.56,31.82Zm.95-.76h0Z"/><path class="cls-1" d="M60.57,36.58l1.67-9.07,2.84-.72L63.61,39l-6.83,3.11-3.62-3.21L56.79,28l3.71-.26-2.75,9.83,1-.33.4-.13Zm5.68-8.2L64.78,40.56,58,43.65l-3.62-3.2.11-.34,3,2.69,6.84-3.11,1.34-11.16Zm-5.31.95.74,0-2.94,7.91Zm-1.4,7.6,2.14-7.65Z"/><path class="cls-1" d="M70.41,31,71.86,27,79,26.8l1.77,2.28L74.14,37l.82-.27,5.46-6.55.32.4-4.87,5.85-.23.08,4.91-1.61L79,39.55l-8.87,2.39L68,38.5l7.53-8.15ZM79,40.27l-8.87,2.39-1.76-2.95L68,40l2,3.43L79,41.06l1.6-4.66-.31.11Zm-8.52-7.8.29-.82,4.09-.48L74,32Z"/><path class="cls-1" d="M84.89,31,86.33,27l7.1-.22,1.77,2.28L88.61,37l.82-.27,5.46-6.55.32.4-4.87,5.85-.23.08L95,34.9l-1.6,4.65-8.87,2.39-2-3.44L90,30.35Zm8.54,9.3-8.87,2.39-1.77-2.95-.27.3,2,3.43,8.86-2.38L95,36.4l-.3.11Zm-8.53-7.8.29-.82,4.09-.48-.8.87Z"/><path class="cls-1" d="M101.71,37.74l7.07-1.06-1.72,3.85-6.71,2.14-3.67-3.74,5.15-11.45,4.16-.29Zm8.3.13-1.72,3.85-6.7,2.13-1.19-1.2h0l.55.57,6.71-2.14L109,38Zm-6.46-.4-.94.14,3.71-9.17.9-.06Z"/><path class="cls-1" d="M124.59,28.46l-1.5,3.47-5.85.41,0,.3,3.89-.27-.92,2.54-3.54.41-.52,2.15.44-.12.3-1.24,3.53-.41.69-1.91h.23l-.91,2.52h-.07l2.8-.76L122.64,39l-8,3.12-3.12-4,2.89-10.88,9.95-.17-1.51,3.47-5.84.41-.29,1.74.35,0,.15-.93,5.85-.4,1.23-2.85ZM123.32,37l-.46,3.42-8,3.12-3.13-4,.13-.47,3,3.84,8-3.12.37-2.78Zm-6.78.39.08,0Zm3.69-1-3.39.39-.14.57-.08,0Z"/><path class="cls-2" d="M28.22,37.42a14.58,14.58,0,0,0,.45,2.26,3.23,3.23,0,0,0,1,1.69,2.27,2.27,0,0,0,1,.36,2.15,2.15,0,0,0,1.18-.07,2.44,2.44,0,0,0,1-1.45,10.5,10.5,0,0,0,.37-2.68c0-.17-1.24-.27-1.24-.15a6.43,6.43,0,0,1-.88,3.68,1.46,1.46,0,0,1-.57.44c-.15,0-.33,0,.18.06,1.64.19.39.09.31,0s0,0-.07,0a3.06,3.06,0,0,1-.29-.21,3.45,3.45,0,0,1-.9-1.6,16.3,16.3,0,0,1-.43-2.19c0-.13-.51-.16-.6-.18s-.65-.06-.64,0Z"/><path class="cls-2" d="M15.49,37.54a14.58,14.58,0,0,0,.45,2.26,3.35,3.35,0,0,0,1,1.71,1.73,1.73,0,0,0,1,.3,2.49,2.49,0,0,0,1.26-.23,2.53,2.53,0,0,0,1-1.49,10.08,10.08,0,0,0,.37-2.68c0-.16-.55-.12-.63-.11s-.61,0-.61.2c-.06,1.21-.09,2.7-.91,3.68a1.81,1.81,0,0,1-.24.24l-.11.07c-.08,0-.2,0,.09,0,0,0,.29,0,.3,0h-.05l-.13,0a1.33,1.33,0,0,1-.3-.23,3.34,3.34,0,0,1-.86-1.56,14.87,14.87,0,0,1-.43-2.19c0-.26-1.28-.13-1.25.09Z"/><path class="cls-2" d="M17,8.74c-1.4-.71-2.84-1.08-4.23-.12C11,9.8,10,12,9.26,13.88S8.08,18,7.33,20c-.91,2.41-1.84,4.61-1.75,7.25.25,7,7.24,11.43,13.56,12.06a50.6,50.6,0,0,0,8.79.13c3.48-.25,7.65-.76,10.49-3a16.43,16.43,0,0,0,2.8-3.41,7.77,7.77,0,0,0,1.3-5.75c-.63-5.07-4.19-9.12-6.14-13.7-.56-1.31-.87-2.68-1.35-4A3.13,3.13,0,0,0,33.7,7.77c-1.36-.8-3.08-.34-4.41.34A14,14,0,0,1,26.8,9.32a12.84,12.84,0,0,1-3,.47,14.67,14.67,0,0,1-7-1.11c-.69-.34.24.38.45.48a16,16,0,0,0,9,1.14A9.4,9.4,0,0,0,29.85,9a8.05,8.05,0,0,1,2.37-.92A2.7,2.7,0,0,1,33.27,8c.48.14.6.8.76,1.26a40.51,40.51,0,0,0,2.32,6c1,1.9,2.13,3.73,3.1,5.64a16.67,16.67,0,0,1,2.07,6.72,7.66,7.66,0,0,1-1.61,5.17,16.92,16.92,0,0,1-2.27,2.85,11.77,11.77,0,0,1-4.73,2.25,34.27,34.27,0,0,1-8.62,1.07,36.5,36.5,0,0,1-8.61-.65,11.74,11.74,0,0,1-8.44-7.43A11.4,11.4,0,0,1,7,24.71c.49-2.26,1.62-4.36,2.27-6.58.89-3.07,3.14-11.49,7.92-9C17.91,9.49,17.34,8.94,17,8.74Z"/><path class="cls-2" d="M23.11,23.43a5.5,5.5,0,0,0,5.74,2c.64-.17-.14-1.1-.62-1a4.44,4.44,0,0,1-2.45,0,3.89,3.89,0,0,1-1-.46,2.76,2.76,0,0,1-.75-.69.84.84,0,0,0-.76-.4c-.28.05-.29.36-.15.56Z"/><path class="cls-2" d="M12.16,20.39a6,6,0,0,1,4.13-1.61,9.5,9.5,0,0,1,4.84,1.45,1.53,1.53,0,0,0,.86.21c.2,0,.29-.14.07-.27a13.45,13.45,0,0,0-6-1.87A6.75,6.75,0,0,0,11,20c-.18.18.91.62,1.14.39Z"/><path class="cls-2" d="M11.21,20.49A9.54,9.54,0,0,0,16.64,22c1.51,0,3.78.21,4.78-1.19.23-.33-.79-1-1-.7-.87,1.21-2.84,1.07-4.15,1.05A8.15,8.15,0,0,1,11.54,20c-.14-.1-.55-.31-.68-.1s.22.5.35.59Z"/><path class="cls-2" d="M35.31,20.06c-2.93-2.94-7.48-2.11-10.75-.27-.38.21.55,1,.9.82a11.63,11.63,0,0,1,5-1.63,5.56,5.56,0,0,1,4.28,1.34c.14.14.53.41.74.28s0-.42-.15-.54Z"/><path class="cls-2" d="M34.65,20.06a8.1,8.1,0,0,1-4.37,1.3,19.27,19.27,0,0,1-2.28,0,2,2,0,0,1-1.7-.77c-.13-.19-.52-.25-.72-.29,0,0-.56-.07-.47.05a3.51,3.51,0,0,0,2.11,1.19,11.66,11.66,0,0,0,2.89.26,9.64,9.64,0,0,0,5.69-1.37c.14-.1-.33-.25-.38-.27s-.6-.22-.77-.1Z"/><path class="cls-2" d="M23,23a3.4,3.4,0,0,0-.75,1.25,4.1,4.1,0,0,1-.64,1.18c-.06.07-.16.13-.21.2a1.13,1.13,0,0,1,.27-.13c.17-.07.12,0,0,0a1.25,1.25,0,0,1-.54-.06.76.76,0,0,1-.6-.71c0-.06-.56.16-.6.18a3,3,0,0,0-.39.22s-.13.08-.13.14c0,.44.41.69.78.77A1.48,1.48,0,0,0,21,26a4.32,4.32,0,0,0,1.21-.57,2.73,2.73,0,0,0,1-1.27A4.33,4.33,0,0,1,24,22.64c.17-.17-.21,0-.26,0A2.13,2.13,0,0,0,23,23Z"/><ellipse class="cls-2" cx="16.86" cy="20.2" rx="0.64" ry="1.7"/><ellipse class="cls-2" cx="29.49" cy="20.2" rx="0.64" ry="1.7"/><path class="cls-2" d="M13.18,32a13.36,13.36,0,0,0,.35,1.76,3.17,3.17,0,0,0,.89,1.49,1.29,1.29,0,0,0,1.54.23,2.31,2.31,0,0,0,.87-1.29,8.64,8.64,0,0,0,.28-2,.74.74,0,0,0-.49-.73.45.45,0,0,0-.6.4,12.37,12.37,0,0,1-.15,1.48s0,.15,0,.08,0,.12,0,.18a2.83,2.83,0,0,1-.11.31l-.07.14c0,.09,0,0,0,0l0,.06a1.46,1.46,0,0,1-.17.24l-.05,0c0,.06.08,0,0,0l-.09.07,0,0s-.05,0,0,0-.08,0-.08,0h0c-.06,0,.06,0,0,0h0l-.06,0s.1.06,0,0L15,34.42c.07,0,.07.06,0,0l0,0s-.11-.12-.05,0,0-.05-.05-.07l-.11-.17a.21.21,0,0,1,0-.07s0,.11,0,0l-.06-.15a2,2,0,0,1-.12-.34l-.06-.18s0-.09,0,0,0,0,0,0-.06-.27-.08-.41-.09-.55-.13-.83a.7.7,0,0,0-.63-.61.47.47,0,0,0-.46.57Z"/><path class="cls-2" d="M30.89,32.45a9.85,9.85,0,0,0,.3,1.53,2.37,2.37,0,0,0,.72,1.18A1.3,1.3,0,0,0,33.47,35a2.42,2.42,0,0,0,.84-1.24,7,7,0,0,0,.26-1.82c0-.26-.44-.11-.55-.05s-.54.3-.55.56a10.3,10.3,0,0,1-.14,1.35,3.2,3.2,0,0,1-.17.55l-.06.13c0,.07,0,0,0,0l-.07.11,0,.05c0,.06.07-.1,0,0s.09-.07,0,0-.07,0,0,0l.12-.08s-.07,0,0,0l.11,0s-.07,0,0,0,0,0,0,0h-.06l-.1,0a.76.76,0,0,1-.19-.12,2.29,2.29,0,0,1-.56-1A8.61,8.61,0,0,1,32,31.94c0-.25-.4-.12-.55-.05a1.51,1.51,0,0,0-.39.27c-.07.08-.18.19-.16.29Z"/><path class="cls-2" d="M2,22.83l11.05,1.44c.3,0,.76-.38.27-.45l-11-1.44c-.3,0-.76.38-.27.45Z"/><path class="cls-2" d="M2.27,25.35H13.14a.76.76,0,0,0,.51-.14c.07-.08.14-.17-.05-.17H2.74c-.14,0-.42,0-.51.14s-.14.17,0,.17Z"/><path class="cls-2" d="M45.51,21.76l-11.6,1.41c-.39,0-.56.58-.06.52l11.6-1.41c.39-.05.56-.58.06-.52Z"/><path class="cls-2" d="M45.27,24.34H33.86c-.28,0-.76.43-.27.43H45c.28,0,.76-.43.27-.43Z"/></svg>