<svg id="Слой_1" data-name="Слой 1" xmlns="http://www.w3.org/2000/svg" viewBox="0 0 150 50"><path d="M31.49,12.53q0,1.19-5.82,2.94-3.3,1-7.23,1.82A71.94,71.94,0,0,1,3.56,19.17c-2.37,0-3.56-.35-3.56-1s1.93-1.75,5.78-2.92c1.06-.33,2.19-.64,3.39-1s2.47-.6,3.83-.89V10.77H3.76c-.48,0-.73-.16-.73-.48V7.63c0-.33.25-.49.73-.49H27.7c.49,0,.74.16.74.49v2.66c0,.32-.25.48-.74.48H18.44v1.59c1.8-.27,3.47-.48,5-.62s3-.22,4.41-.22C30.28,11.52,31.49,11.86,31.49,12.53ZM13,13.86c-2.25.49-4.3,1-6.15,1.63a46.67,46.67,0,0,0-5.11,2c-.64.32-1,.56-1,.74s0,.06.1.09a10.37,10.37,0,0,0,3.05.25c1.4,0,2.84-.06,4.34-.18s3.07-.31,4.73-.56ZM18.44,26q0,.48-.72.48h-4Q13,26.49,13,26V18.8c1-.12,2-.26,2.89-.43s1.75-.36,2.55-.58ZM30.75,12.46c0-.09-.3-.17-.89-.21-.33,0-.69-.07-1.08-.08s-.81,0-1.26,0a63.29,63.29,0,0,0-9.08.72v3.94a64.53,64.53,0,0,0,6.31-1.63,36.11,36.11,0,0,0,5-2Q30.75,12.73,30.75,12.46Z"/><path d="M59.78,19.36q0,.87-2.61.87a55.79,55.79,0,0,1-12.91-2,71.26,71.26,0,0,1-12.49-4.17C30,13.26,29.18,12.58,29.18,12s.86-.93,2.59-.87a3.4,3.4,0,0,1,1.84-3,6.73,6.73,0,0,1,3.6-1H51.73a7.12,7.12,0,0,1,3.46.9,3.13,3.13,0,0,1,2,2.73v6.52Q59.78,18.45,59.78,19.36Zm-28-7.59H31c-.71,0-1.07.08-1.07.24s.62.63,1.86,1.3Zm25.4,11.1a3.13,3.13,0,0,1-2,2.73,7.11,7.11,0,0,1-3.46.89H37.21a7.05,7.05,0,0,1-3.46-.89,3.13,3.13,0,0,1-2-2.73v-8.3a26.83,26.83,0,0,0,5.44,2.16v6.14H51.73V20.19a29.92,29.92,0,0,0,5.44.52Zm-5.44-12.1H37.21v.92q3.9.62,7.5,1.48t7,2Zm0,5q-3.49-1.23-7.11-2.11a75.27,75.27,0,0,0-7.41-1.39v3.39a72.92,72.92,0,0,0,14.52,3.53Zm7.36,3.6q0-.29-1.92-1.29V19.6h.54C58.63,19.6,59.09,19.52,59.09,19.35Z"/><path d="M80.11,18.14c0,.33-.24.49-.72.49H62.69c-.48,0-.73-.16-.73-.49V15.48c0-.32.25-.48.73-.48h16.7q.72,0,.72.48Z"/><path d="M113.35,13.75c0,.62-1,1.29-3,2s-4,1.3-6,1.84-4.18,1-6.4,1.45a68.53,68.53,0,0,1-12.75,1.32c-2.17,0-3.26-.33-3.26-1s1-1.31,3-2V7.63c0-.33.24-.49.72-.49h19.24a7.09,7.09,0,0,1,3.46.9,3.14,3.14,0,0,1,2,2.73v2C112.34,12.71,113.35,13,113.35,13.75ZM84.9,18.06c-1.53.64-2.3,1.07-2.3,1.29s.77.34,2.3.38Zm25.41,4.81a3.14,3.14,0,0,1-2,2.73,7.08,7.08,0,0,1-3.46.89H85.62q-.72,0-.72-.48V20.84a34.82,34.82,0,0,0,5.45-.3v2.33h14.51v-5c1-.24,2-.51,2.89-.79s1.75-.58,2.56-.88Zm-5.45-12.1H90.35v4.91A96.87,96.87,0,0,1,104.86,13Zm0,2.81a77.52,77.52,0,0,0-14.51,2.64v3.3a77.08,77.08,0,0,0,14.51-2.64Zm7.77.11s-.08-.09-.24-.14a4.17,4.17,0,0,0-.81-.14c-.35,0-.77-.05-1.27-.06V15C111.86,14.38,112.63,13.94,112.63,13.69Z"/><path d="M143.11,19.36q0,.87-2.61.87a55.71,55.71,0,0,1-12.91-2,71,71,0,0,1-12.49-4.17c-1.73-.81-2.6-1.49-2.6-2.06s.87-.93,2.6-.87a3.4,3.4,0,0,1,1.84-3,6.73,6.73,0,0,1,3.6-1h14.52a7.12,7.12,0,0,1,3.46.9,3.13,3.13,0,0,1,2,2.73v6.52Q143.11,18.45,143.11,19.36Zm-28-7.59h-.8c-.71,0-1.06.08-1.06.24s.62.63,1.86,1.3Zm25.4,11.1a3.13,3.13,0,0,1-2,2.73,7.11,7.11,0,0,1-3.46.89H120.54a7.05,7.05,0,0,1-3.46-.89,3.13,3.13,0,0,1-2-2.73v-8.3a26.59,26.59,0,0,0,5.44,2.16v6.14h14.52V20.19a29.84,29.84,0,0,0,5.44.52Zm-5.44-12.1H120.54v.92q3.9.62,7.5,1.48t7,2Zm0,5q-3.51-1.23-7.11-2.11t-7.41-1.39v3.39a72.92,72.92,0,0,0,14.52,3.53Zm7.36,3.6q0-.29-1.92-1.29V19.6H141C142,19.6,142.42,19.52,142.42,19.35Z"/><path d="M25.68,38.19q0,1-5.14,2.49c-2.08.59-4.22,1.1-6.4,1.53a52.15,52.15,0,0,1-10,1.18c-2,0-3-.27-3-.8s.9-1.09,2.71-1.7v-10c0-.25.19-.37.56-.37H19.4a5.59,5.59,0,0,1,2.72.7,2.45,2.45,0,0,1,1.55,2.14v2.85a1.93,1.93,0,0,1-.38,1.15C24.89,37.4,25.68,37.66,25.68,38.19ZM3.76,41.46c-1.43.56-2.15.95-2.15,1.18,0,0,0,0,.1.07a2.84,2.84,0,0,0,.74.14c.34,0,.77,0,1.31,0ZM8,45.35c0,.25-.18.37-.56.37H4.32c-.37,0-.56-.12-.56-.37V43.77l.34,0h.4c.65,0,1.27,0,1.85-.06s1.14-.1,1.67-.18Zm11.38-12H8v2.85H19.4Zm5.72,4.74q0-.11-.51-.15c-.44-.05-1-.08-1.77-.1a4.92,4.92,0,0,1-3.44,1.2H12A30,30,0,0,0,8,40v2.68a60.88,60.88,0,0,0,9-1.45,37.58,37.58,0,0,0,7.32-2.54C24.86,38.49,25.12,38.3,25.12,38.14ZM8,39.09v.52l1.14-.28,1-.24Z"/><path d="M49.14,38.42c0,.57-1.11.86-3.32.86A72.54,72.54,0,0,1,31,37.55c-1.3-.28-2.57-.61-3.79-1-2-.65-3-1.22-3-1.72S25,34,26.7,34V30.93c0-.25.19-.37.57-.37h3.14c.37,0,.56.12.56.37V34.1c2.05.15,4,.35,5.89.62s3.71.59,5.49,1V30.93c0-.25.19-.37.57-.37h3.13c.38,0,.57.12.57.37v6C48.3,37.45,49.14,38,49.14,38.42ZM26.7,34.48c-1.28.06-1.93.17-1.93.34s.65.53,1.93,1Zm19.92,8.4A2.44,2.44,0,0,1,45.08,45a5.72,5.72,0,0,1-2.73.7H31a5.53,5.53,0,0,1-2.71-.7,2.45,2.45,0,0,1-1.56-2.14V36.76A18.3,18.3,0,0,0,31,37.93v5H42.35V39.55c.9.06,1.7.09,2.41.11s1.33,0,1.86,0Zm-4.27-6.7A61.51,61.51,0,0,0,31,34.51V37.1q2.87.7,5.68,1.12t5.7.57Zm6.26,2.27c0-.17-.67-.5-2-1v1.35C47.94,38.75,48.61,38.63,48.61,38.45Z"/><path d="M71.82,33.7c0,.45-.51,1-1.53,1.52a50.17,50.17,0,0,1-7.14,3.23A73.36,73.36,0,0,1,54.64,41a20,20,0,0,1-4.4.6c-.93,0-1.39-.21-1.39-.62s.51-.93,1.52-1.53v-.33A2.45,2.45,0,0,1,51.93,37a5.53,5.53,0,0,1,2.71-.7,12.76,12.76,0,0,0,4-.48A59.85,59.85,0,0,1,66,33.7v-.3H50.94c-.38,0-.57-.13-.57-.38V30.93c0-.25.19-.37.57-.37H69.72c.38,0,.57.12.57.37v2.15h.11C71.35,33.06,71.82,33.27,71.82,33.7ZM50.37,40.11q-1,.68-1,.87c0,.1.15.16.45.16h.33l.18,0Zm19.92,5.24c0,.25-.19.37-.57.37H50.94c-.38,0-.57-.12-.57-.37V42a22.39,22.39,0,0,0,4.27-.6v1.53H69.72c.38,0,.57.13.57.38ZM54.64,39.09v1.42c.89-.18,1.78-.38,2.68-.62s1.83-.5,2.79-.8Zm11.38-5c-1.21.25-2.44.55-3.68.9s-2.52.76-3.83,1.23H66Zm4.27,2.13a2.49,2.49,0,0,1-1.56,2.14,5.56,5.56,0,0,1-2.71.7H62.51c1.42-.51,2.77-1.05,4.06-1.62s2.52-1.19,3.72-1.87Zm1-2.58c0-.11-.2-.16-.62-.16h-.34v1C70.93,34.09,71.25,33.8,71.25,33.67Z"/><path d="M95.49,33.7c0,.45-.51,1-1.53,1.52a50.17,50.17,0,0,1-7.14,3.23A73.36,73.36,0,0,1,78.31,41a20,20,0,0,1-4.4.6c-.93,0-1.39-.21-1.39-.62S73,40,74,39.42v-.33A2.45,2.45,0,0,1,75.6,37a5.5,5.5,0,0,1,2.71-.7,12.76,12.76,0,0,0,4-.48,59.85,59.85,0,0,1,7.33-2.07v-.3H74.61c-.38,0-.57-.13-.57-.38V30.93c0-.25.19-.37.57-.37H93.39c.38,0,.57.12.57.37v2.15h.11C95,33.06,95.49,33.27,95.49,33.7ZM74,40.11q-1,.68-1,.87c0,.1.15.16.45.16h.33l.18,0ZM94,45.35c0,.25-.19.37-.57.37H74.61c-.38,0-.57-.12-.57-.37V42a22.39,22.39,0,0,0,4.27-.6v1.53H93.39c.38,0,.57.13.57.38ZM78.31,39.09v1.42c.89-.18,1.78-.38,2.68-.62s1.83-.5,2.79-.8Zm11.38-5c-1.22.25-2.44.55-3.68.9s-2.52.76-3.83,1.23h7.51ZM94,36.25a2.49,2.49,0,0,1-1.56,2.14,5.56,5.56,0,0,1-2.71.7H86.18q2.13-.77,4-1.62c1.29-.57,2.53-1.19,3.73-1.87Zm1-2.58c0-.11-.2-.16-.62-.16H94v1C94.6,34.09,94.92,33.8,94.92,33.67Z"/><path d="M119.29,33.67q0,1-4.85,2.8c-1,.36-2,.69-3,1s-2,.6-3.11.87-2.23.56-3.27.78-2.06.42-3.06.57-1.78.25-2.54.33-1.46.11-2.11.11c-1.32,0-2-.22-2-.65s.78-1.16,2.36-1.82V30.93c0-.25.19-.37.57-.37h3.13c.38,0,.57.12.57.37v5.14q9.31-3,15.3-3C118.62,33,119.29,33.24,119.29,33.67ZM97.71,38.28c-1.2.59-1.8,1-1.8,1.22s.34.15,1,.15h.8Zm19.92,7.07c0,.25-.19.37-.57.37H98.28c-.38,0-.57-.12-.57-.37V40.51q1.25,0,2.31-.15c.71-.08,1.36-.17,2-.29v2.81h15.08c.38,0,.57.13.57.38Zm1.1-11.7c0-.11-.39-.16-1.16-.16a48.48,48.48,0,0,0-15.59,3v2.73a47.39,47.39,0,0,0,16.07-5C118.5,34,118.73,33.81,118.73,33.65Z"/><path d="M143.1,38.86c0,.59-1.24.89-3.71.89-1.3,0-2.62-.06-4-.17s-2.74-.27-4.18-.49c-1.25-.19-2.47-.41-3.66-.64s-2.39-.5-3.6-.78q-5.82-1.37-5.82-2.39c0-.51.83-.8,2.5-.86V30.93c0-.25.19-.37.57-.37H140c.37,0,.56.12.56.37V33c0,.25-.19.38-.56.38H124.93v1.13c1.09.09,2.16.18,3.2.3s2.07.25,3.11.39c1.56.23,2.87.46,3.91.7q.79.18,1.44.27a8.42,8.42,0,0,0,1.17.09h1.12l.66,0H140c.41,0,.62.22.62.67a2.26,2.26,0,0,1-.06.43C142.25,37.89,143.1,38.4,143.1,38.86Zm-22.44-4c-.21,0-.46,0-.75.07l-1,.14c-.12.06-.18.11-.18.14,0,.19.64.52,1.93,1Zm19.91,10.44c0,.25-.19.37-.56.37H121.23c-.38,0-.57-.12-.57-.37V37.17c1.2.34,2.53.67,4,1s3.09.63,4.89.94h-4.61v3.79H140c.37,0,.56.13.56.38Zm-5.91-9.1c-1.66-.36-3.29-.65-4.89-.86s-3.21-.37-4.84-.46v1.32Zm7.9,2.61c0-.15-.66-.48-2-1,0,.1,0,.2,0,.29s0,.17,0,.24c0,.46-.2.69-.59.69h-5.53c1.54.13,3,.2,4.21.2a14.34,14.34,0,0,0,3.66-.28Q142.56,38.94,142.56,38.86Z"/></svg>