<?xml version="1.0" encoding="UTF-8"?>
<svg id="_Слой_1" data-name="Слой 1" xmlns="http://www.w3.org/2000/svg" viewBox="0 0 101.29 85">
  <defs>
    <style>
      .cls-1 {
        fill: #f2f3f6;
      }

      .cls-1, .cls-2, .cls-3 {
        fill-rule: evenodd;
        stroke-width: 0px;
      }

      .cls-2 {
        fill: #ea4d86;
      }

      .cls-3 {
        fill: #3153a1;
      }
    </style>
  </defs>
  <path class="cls-3" d="m5.52,9.94c5.37-5.92,10.68-5.77,20.13.04,5.97,3.67,8.67,8.13,8.06,14.62-1.55,16.44.14,32.92-1.74,49.4-.64,5.62-2.75,5.61-10.03,5.26-14.44-.69-15.39-8.42-16.85-16.05C2.47,49.62-.13,36.01,1.93,22.11c.67-4.51,1.6-8.97,3.59-12.17Z"/>
  <path class="cls-1" d="m42.81,10.46c6.17-5.65,11.44-5.27,20.06.96,5.45,3.93,7.52,8.5,6.01,14.94-3.81,16.32-4.41,32.82-8.56,49.16-1.41,5.57-3.52,5.47-10.73,4.79-14.3-1.35-14.18-9.1-14.58-16.77-.73-13.66-1.44-27.35,2.53-41.12,1.29-4.47,2.84-8.87,5.26-11.96Z"/>
  <path class="cls-2" d="m90.57,77.9c-6.18,5.65-11.45,5.26-20.06-.98-5.44-3.94-7.5-8.51-5.98-14.95,3.85-16.32,4.5-32.82,8.68-49.15,1.43-5.57,3.53-5.47,10.74-4.78,14.3,1.36,14.15,9.11,14.54,16.78.7,13.66,1.37,27.35-2.64,41.11-1.3,4.47-2.86,8.87-5.29,11.96Z"/>
</svg>