<?xml version="1.0" encoding="UTF-8"?>
<svg id="_Слой_1" data-name="Слой 1" xmlns="http://www.w3.org/2000/svg" viewBox="0 0 101.29 85">
  <defs>
    <style>
      .cls-1 {
        fill: #fff;
      }

      .cls-1, .cls-2 {
        fill-rule: evenodd;
        stroke-width: 0px;
      }

      .cls-2 {
        fill: #dc153d;
      }
    </style>
  </defs>
  <path class="cls-2" d="m7.8,77.32C.1,71.59.08,65.29,7.1,53.49c4.43-7.45,9.98-11.11,18.24-11.07,20.91.1,41.74-3.62,62.71-3.13,7.15.16,7.22,2.67,7.05,11.32-.34,17.16-10.1,19.09-19.72,21.63-17.13,4.52-34.3,9.03-52,8.06-5.75-.31-11.43-.95-15.56-2.97Z"/>
  <path class="cls-1" d="m93.51,6.99c7.69,5.31,7.7,11.12.66,22-4.45,6.87-10.01,10.24-18.26,10.18-20.91-.14-41.75,3.24-62.71,2.74-7.15-.17-7.21-2.48-7.03-10.46.37-15.84,10.14-17.6,19.76-19.92,17.14-4.13,34.32-8.25,52.02-7.31,5.75.3,11.43.91,15.56,2.78Z"/>
</svg>