<?xml version="1.0" encoding="UTF-8"?>
<svg id="_Слой_1" data-name="Слой 1" xmlns="http://www.w3.org/2000/svg" viewBox="0 0 101.29 85">
  <defs>
    <style>
      .cls-1 {
        fill: #1d4294;
      }

      .cls-1, .cls-2, .cls-3 {
        fill-rule: evenodd;
        stroke-width: 0px;
      }

      .cls-2 {
        fill: #d52d1e;
      }

      .cls-3 {
        fill: #fff;
      }
    </style>
  </defs>
  <path class="cls-2" d="m7.64,78.42c-8.06-3.7-8.07-7.76-.74-15.37,4.63-4.81,10.44-7.17,19.07-7.14,21.86.07,43.64-2.34,65.56-2.02,7.47.11,7.55,1.72,7.37,7.3-.35,11.07-10.56,12.32-20.62,13.95-17.91,2.92-35.86,5.83-54.37,5.2-6.01-.2-11.95-.62-16.27-1.92Z"/>
  <path class="cls-1" d="m6.88,49.92c-7.74-4.33-7.43-8.38.49-15.38,5-4.43,10.97-6.32,19.57-5.6,21.78,1.8,43.68,1.14,65.51,3.2,7.44.7,7.39,2.31,6.76,7.86-1.23,11.01-11.51,11.44-21.66,12.27-18.08,1.48-36.21,2.95-54.61.86-5.97-.68-11.87-1.56-16.07-3.2Z"/>
  <path class="cls-3" d="m94.42,8.88c7.73,4.34,7.42,8.39-.51,15.38-5.01,4.42-10.98,6.3-19.58,5.58-21.78-1.84-43.68-1.21-65.5-3.3-7.44-.71-7.38-2.33-6.75-7.87C3.32,7.66,13.59,7.24,23.75,6.43c18.09-1.46,36.21-2.9,54.61-.77,5.97.69,11.87,1.58,16.06,3.23Z"/>
</svg>