<?xml version="1.0" encoding="UTF-8"?>
<svg id="_Слой_1" data-name="Слой 1" xmlns="http://www.w3.org/2000/svg" viewBox="0 0 101.29 85">
  <defs>
    <style>
      .cls-1 {
        fill: #e52320;
        fill-rule: evenodd;
      }

      .cls-1, .cls-2 {
        stroke-width: 0px;
      }

      .cls-2 {
        fill: #eef3fa;
      }
    </style>
  </defs>
  <rect class="cls-2" x="-1.52" y="-2.03" width="104.33" height="87.01"/>
  <g>
    <path class="cls-1" d="m56.07,76.31c-2.87,6.08-5.46,5.88-9.85-.22-2.77-3.86-3.91-8.5-3.35-15.21,1.54-18.39,1.28-34.19,2.86-51.13.54-5.81,1.57-5.79,5.12-5.36,7.04.85,7.19,8.86,7.59,16.77.73,14.09,1.45,28.21-.13,42.58-.51,4.67-1.15,9.27-2.25,12.56Z"/>
    <path class="cls-1" d="m6.4,47.58c-8.05-3.03-7.86-5.62.04-9.86,4.99-2.68,11.05-3.7,19.88-2.97,24.18,2.01,44.91,2.15,67.19,4.17,7.64.69,7.64,1.72,7.16,5.27-.94,7.03-11.45,6.98-21.82,7.18-18.48.37-37,.73-55.91-1.21-6.14-.63-12.2-1.39-16.55-2.58Z"/>
  </g>
</svg>